<?xml version="1.0" encoding="utf-8"?>
<!-- Generator: Adobe Illustrator 26.5.1, SVG Export Plug-In . SVG Version: 6.00 Build 0)  -->
<svg version="1.1" id="Ebene_1" xmlns="http://www.w3.org/2000/svg" xmlns:xlink="http://www.w3.org/1999/xlink" x="0px" y="0px"
	 viewBox="0 0 100 100" style="enable-background:new 0 0 100 100;" xml:space="preserve">
<g>
	<path d="M83.4,100.5c-0.2,0-0.3-0.1-0.4-0.2L49.7,50.4L-0.2,25.4c-0.1-0.1-0.2-0.2-0.3-0.3c0-0.1,0-0.3,0.1-0.4l16.6-25
		c0.1-0.1,0.2-0.2,0.4-0.2h0c0.2,0,0.3,0.1,0.4,0.2l33.3,49.9l49.9,24.9c0.1,0.1,0.2,0.2,0.3,0.3s0,0.3-0.1,0.4l-16.6,25
		C83.7,100.4,83.5,100.5,83.4,100.5L83.4,100.5z M51.5,51.3l31.9,47.8l15.9-23.9L51.5,51.3z M0.7,24.8l47.8,23.9L16.6,0.9L0.7,24.8z
		"/>
	<path d="M0,75.5c-0.2,0-0.4-0.1-0.4-0.3c-0.1-0.2,0-0.5,0.2-0.7l100-50c0.2-0.1,0.5,0,0.7,0.2c0.1,0.2,0,0.5-0.2,0.7l-100,50
		C0.2,75.5,0.1,75.5,0,75.5z"/>
	<path d="M50,54c-0.8,0-1.5-0.2-2.2-0.7c-1.8-1.2-2.3-3.7-1.1-5.5l33.4-50c1.2-1.8,3.7-2.3,5.5-1.1c1.8,1.2,2.3,3.7,1.1,5.5
		l-33.4,50C52.6,53.4,51.3,54,50,54z"/>
	<path d="M16.6,100.5c-0.1,0-0.2,0-0.3-0.1c-0.2-0.2-0.3-0.5-0.1-0.7l33.4-50c0.2-0.2,0.5-0.3,0.7-0.1c0.2,0.2,0.3,0.5,0.1,0.7
		l-33.4,50C16.9,100.4,16.8,100.5,16.6,100.5z"/>
	<path d="M50,100.5c-0.2,0-0.3-0.1-0.4-0.2l-50-75c-0.1-0.1-0.1-0.3-0.1-0.4c0-0.1,0.1-0.3,0.3-0.3l50-25c0.1-0.1,0.3-0.1,0.4,0
		l50,25c0.1,0.1,0.2,0.2,0.3,0.3s0,0.3-0.1,0.4l-50,75C50.3,100.4,50.2,100.5,50,100.5z M0.7,25.2L50,99.1l49.3-73.9L50,0.6
		L0.7,25.2z"/>
	<path d="M50,100.5c-0.1,0-0.2,0-0.2-0.1l-50-25c-0.1-0.1-0.2-0.2-0.3-0.3c0-0.1,0-0.3,0.1-0.4l50-75c0.2-0.3,0.6-0.3,0.8,0l50,75
		c0.1,0.1,0.1,0.3,0.1,0.4s-0.1,0.3-0.3,0.3l-50,25C50.2,100.5,50.1,100.5,50,100.5z M0.7,74.8L50,99.4l49.3-24.6L50,0.9L0.7,74.8z"
		/>
	<path d="M100,25.5c-0.2,0-0.3-0.1-0.4-0.2L83,0.3c-0.2-0.2-0.1-0.5,0.1-0.7c0.2-0.2,0.5-0.1,0.7,0.1l16.6,25
		c0.2,0.2,0.1,0.5-0.1,0.7C100.2,25.5,100.1,25.5,100,25.5z"/>
	<path d="M16.6,100.5c-0.2,0-0.3-0.1-0.4-0.2l-16.6-25c-0.2-0.2-0.1-0.5,0.1-0.7c0.2-0.2,0.5-0.1,0.7,0.1l16.6,25
		c0.2,0.2,0.1,0.5-0.1,0.7C16.8,100.5,16.7,100.5,16.6,100.5z"/>
	<path d="M50,100.5c-0.3,0-0.5-0.2-0.5-0.5V0c0-0.3,0.2-0.5,0.5-0.5s0.5,0.2,0.5,0.5v100C50.5,100.3,50.3,100.5,50,100.5z"/>
	<path d="M100,50.5H0c-0.3,0-0.5-0.2-0.5-0.5s0.2-0.5,0.5-0.5h100c0.3,0,0.5,0.2,0.5,0.5S100.3,50.5,100,50.5z"/>
</g>
</svg>
