<?xml version="1.0" encoding="utf-8"?>
<!-- Generator: Adobe Illustrator 26.5.1, SVG Export Plug-In . SVG Version: 6.00 Build 0)  -->
<svg version="1.1" id="Layer_1" xmlns="http://www.w3.org/2000/svg" xmlns:xlink="http://www.w3.org/1999/xlink" x="0px" y="0px"
	 viewBox="0 0 100 100" style="enable-background:new 0 0 100 100;" xml:space="preserve">
<path d="M100,23.4c-6.9,0-13.2-3-17.4-7.8c-0.1-0.1-0.1-0.1-0.2-0.2c-0.3-0.3-0.5-0.7-0.8-1c-0.1-0.1-0.2-0.2-0.3-0.4
	c-0.2-0.3-0.5-0.6-0.7-1c-0.1-0.2-0.2-0.3-0.3-0.5c-0.2-0.3-0.4-0.6-0.6-1c-0.1-0.2-0.2-0.4-0.3-0.6c-0.2-0.3-0.3-0.6-0.5-0.9
	L70.2-9.8l0,0c-0.2-0.3-0.3-0.7-0.5-1c-0.1-0.2-0.2-0.4-0.3-0.6c-0.2-0.3-0.4-0.7-0.6-1c-0.1-0.1-0.1-0.2-0.2-0.3
	c-0.2-0.3-0.5-0.7-0.7-1l-0.1-0.1c-0.6-0.8-1.3-1.6-2-2.3l0,0c-0.7-0.7-1.5-1.4-2.3-2l-0.1-0.1c-0.4-0.3-0.7-0.5-1.1-0.8
	c-0.1,0-0.1-0.1-0.2-0.1c-0.4-0.2-0.8-0.5-1.2-0.7c-0.1-0.1-0.3-0.1-0.4-0.2c-0.3-0.1-0.5-0.3-0.8-0.4c-0.2-0.1-0.3-0.2-0.5-0.2
	c-0.4-0.2-0.7-0.3-1.1-0.5c-0.2-0.1-0.4-0.1-0.6-0.2c-0.2-0.1-0.5-0.2-0.7-0.2c-0.2-0.1-0.4-0.1-0.6-0.2c-0.4-0.1-0.8-0.2-1.2-0.3
	c-0.1,0-0.3-0.1-0.4-0.1c-0.4-0.1-0.7-0.1-1-0.2c-0.1,0-0.2,0-0.4-0.1c-0.5-0.1-1-0.1-1.5-0.2l0,0c-0.5,0-1.1-0.1-1.6-0.1
	c-3.4,0-6.8,0.8-10,2.4c-10.3,5.2-14.9,17.2-11,27.8L29,7.2l1.1,2.5c3.7,7.3,11.3,12.4,20.1,12.4v1c-8.9,0-17-5-21-12.9l-8.3-19
	c-0.1-0.3-0.2-0.6-0.4-0.9l-0.1-0.2l0,0c0,0,0-0.1-0.1-0.1c-0.4-0.8-0.9-1.7-1.4-2.4l0,0c0-0.1-0.1-0.1-0.1-0.2
	c-0.6-0.8-1.2-1.6-1.8-2.4c-0.1-0.1-0.1-0.2-0.2-0.2c-0.2-0.3-0.5-0.6-0.8-0.8c-0.1-0.1-0.1-0.1-0.1-0.2l0,0c0,0,0,0-0.1-0.1
	c-0.3-0.3-0.7-0.6-1-0.9c-0.1,0-0.1-0.1-0.2-0.1c-0.3-0.3-0.6-0.5-0.9-0.8l-0.1-0.1l-0.1-0.1c0,0,0,0-0.1-0.1
	c-0.8-0.6-1.5-1.1-2.3-1.5l0,0L11-20c-2.3-1.2-4.8-2.1-7.4-2.5c-0.1,0-1.7-0.1-1.7-0.1l0,0c-0.5,0-1.9-0.1-1.9-0.1v99
	c6.6,0,12.8,2.7,17,7.1c0.4,0.4,0.8,0.9,1.2,1.4c0.1,0.1,0.1,0.1,0.2,0.2c0.3,0.4,0.6,0.8,0.9,1.2c0.1,0.1,0.2,0.2,0.2,0.3
	c0.3,0.4,0.5,0.8,0.8,1.2c0.1,0.1,0.2,0.2,0.2,0.4c0.3,0.5,0.6,1.1,0.9,1.6l1.3,2.9l7.5,17.1v0.1c0.2,0.5,0.5,1,0.8,1.4
	c0,0,0,0.1,0.1,0.1c0.2,0.4,0.5,0.8,0.8,1.2c0.2,0.2,0.4,0.5,0.6,0.7c0.1,0.2,0.2,0.3,0.4,0.5c0.2,0.3,0.5,0.6,0.8,0.9
	c0.1,0.1,0.1,0.2,0.2,0.2c0.3,0.3,0.6,0.6,0.9,0.9c0.1,0.1,0.1,0.1,0.2,0.2c0.3,0.3,0.6,0.5,0.9,0.8c0.1,0.1,0.2,0.2,0.3,0.2
	c0.3,0.2,0.6,0.4,0.8,0.7c0.1,0.1,0.3,0.2,0.4,0.3c0.2,0.2,0.5,0.3,0.7,0.5c0.2,0.1,0.4,0.3,0.6,0.4c0.2,0.1,0.4,0.2,0.6,0.3
	c0.3,0.1,0.5,0.3,0.8,0.4c0.1,0.1,0.3,0.1,0.4,0.2c0.3,0.2,0.7,0.3,1,0.5c0.1,0,0.2,0.1,0.3,0.1c0.4,0.2,0.8,0.3,1.1,0.4
	c0.1,0,0.1,0.1,0.2,0.1c0.4,0.1,0.8,0.3,1.2,0.4c0.1,0,0.2,0,0.3,0.1c0.4,0.1,0.8,0.2,1.2,0.3c0.2,0,0.3,0.1,0.5,0.1
	c0.3,0.1,0.7,0.1,1,0.2c0.4,0.1,0.7,0.1,1.1,0.1c0.1,0,0.3,0,0.4,0c0.5,0,1.1,0.1,1.6,0.1l0,0l0,0c3.4,0,6.8-0.8,10-2.4
	c10.3-5.2,14.9-17.2,11-27.8l0.3,0.6l-1.1-2.4C67,82.5,59.3,77.3,50.3,77.3v-1c9.3,0,17.4,5.5,21.2,13.4l7.8,17.9
	c0.5,1.2,1,2.4,1.7,3.5v0.1v0.1c0.5,0.8,1,1.6,1.6,2.4c0,0,0,0,0,0.1l0.1,0.1c0.2,0.3,0.5,0.6,0.8,0.9l0.1,0.1c0,0,0,0,0,0.1
	c0.6,0.7,1.4,1.4,2.1,2l0.1,0.1c0,0,0.1,0,0.1,0.1c3.1,2.6,6.9,4.3,11.1,4.9c0,0,0,0,0.1,0l0,0c1,0.1,2,0.2,3,0.2h0.1L100,23.4
	L100,23.4z"/>
<path d="M100-22.4c-12.4,0-22.4,10-22.4,22.4s10,22.4,22.4,22.4V-22.4z"/>
<path d="M0,122.4c12.4,0,22.4-10,22.4-22.4S12.4,77.6,0,77.6V122.4L0,122.4z"/>
</svg>
