<?xml version="1.0" encoding="utf-8"?>
<!-- Generator: Adobe Illustrator 26.5.1, SVG Export Plug-In . SVG Version: 6.00 Build 0)  -->
<svg version="1.1" id="Layer_1" xmlns="http://www.w3.org/2000/svg" xmlns:xlink="http://www.w3.org/1999/xlink" x="0px" y="0px"
	 viewBox="0 0 100 100" style="enable-background:new 0 0 100 100;" xml:space="preserve">
<g id="Layer_21">
	<path d="M100-22.4c-4.1,0-7.9,1.1-11.2,3l0,0c-0.1,0-0.1,0.1-0.2,0.1c-0.1,0.1-0.3,0.2-0.4,0.2C78.8-13.5,76.1-6.8,75.1,0h-0.3
		c-1-6.8-3.7-13.5-13.1-19.1c-0.1-0.1-0.3-0.2-0.4-0.2c-0.1,0-0.1-0.1-0.2-0.1l0,0l0,0c-2.8-1.6-6-2.7-9.4-2.9c0,0,0,0-0.1,0
		c-0.6,0-1.1-0.1-1.7-0.1l0,0l0,0l0,0c-0.6,0-1.1,0-1.7,0.1c0,0,0,0-0.1,0c-3.4,0.3-6.6,1.3-9.4,2.9l0,0l0,0c-0.1,0-0.1,0.1-0.2,0.1
		l0,0c-0.1,0.1-0.3,0.2-0.4,0.2l0,0C28.7-13.5,26-6.8,25,0h-0.3c-1-6.8-3.7-13.5-13.1-19.1c-0.1-0.1-0.3-0.2-0.4-0.2
		s-0.1-0.1-0.2-0.1l0,0c-3.3-1.9-7.1-3-11.2-3V100h100L100-22.4L100-22.4z"/>
</g>
</svg>
