<?xml version="1.0" encoding="utf-8"?>
<!-- Generator: Adobe Illustrator 26.5.1, SVG Export Plug-In . SVG Version: 6.00 Build 0)  -->
<svg version="1.1" id="Layer_1" xmlns="http://www.w3.org/2000/svg" xmlns:xlink="http://www.w3.org/1999/xlink" x="0px" y="0px"
	 viewBox="0 0 100 100" style="enable-background:new 0 0 100 100;" xml:space="preserve">
<g id="Layer_21">
	<path d="M100,77.6c12.4,0,22.4,10,22.4,22.4s-10,22.4-22.4,22.4c-4.1,0-7.9-1.1-11.2-3l0,0c-0.1,0-0.1-0.1-0.2-0.1
		c-0.1-0.1-0.3-0.2-0.4-0.2c-12.4-7.4-13.1-16.8-13.7-25.8C74.1,88,73.8,82.8,71.2,78h-0.4c2.6,6.2,2.3,13.5-1.3,19.8
		c-6.2,10.7-19.9,14.4-30.6,8.2c-3.5-2-6.3-4.9-8.2-8.2l0,0c0-0.1-0.1-0.1-0.1-0.2c-0.1-0.1-0.1-0.3-0.2-0.4
		c-7.1-12.7-3-21.1,1-29.2c2.8-5.7,5.5-11.3,4.6-18.2c0,7.8-4,15.4-11.2,19.6c-10.7,6.2-24.5,2.5-30.6-8.2c-2-3.5-3-7.4-3-11.2l0,0
		c0-0.1,0-0.1,0-0.2c0-0.2,0-0.3,0-0.5c0.2-14.5,8-19.7,15.4-24.8c5.3-3.6,10.4-7,13.1-13.5C15.8,17.8,8.6,22.3,0.2,22.3
		c-12.4,0-22.4-10-22.4-22.4s10-22.4,22.4-22.4s22.4,10,22.4,22.4l0,0l0,0l0,0h55.1l0,0v-0.1c0-0.1,0-0.3,0-0.4c0-0.2,0-0.4,0-0.5
		s0-0.1,0-0.2c0-0.3,0-0.6,0.1-0.9c0-0.1,0-0.2,0-0.2c0-0.3,0.1-0.6,0.1-0.8c0-0.1,0-0.2,0-0.3C77.9-3.7,78-4,78-4.3
		c0-0.1,0.1-0.3,0.1-0.4c0-0.2,0.1-0.4,0.1-0.6s0.1-0.3,0.1-0.5s0.1-0.3,0.1-0.5c0.1-0.2,0.1-0.4,0.2-0.6c0-0.1,0.1-0.2,0.1-0.4
		C78.8-7.5,78.9-7.8,79-8c0-0.1,0.1-0.2,0.1-0.3c0.1-0.3,0.2-0.5,0.3-0.8c0-0.1,0.1-0.1,0.1-0.2c0.1-0.3,0.3-0.6,0.4-0.8
		c0-0.1,0.1-0.1,0.1-0.2c0.1-0.2,0.2-0.3,0.2-0.5c0.1-0.1,0.1-0.2,0.2-0.4c0,0,0-0.1,0.1-0.1s0-0.1,0.1-0.1c0.1-0.1,0.1-0.2,0.2-0.4
		s0.2-0.3,0.3-0.5c0-0.1,0.1-0.1,0.1-0.2c0.2-0.3,0.4-0.5,0.5-0.8c0-0.1,0.1-0.1,0.1-0.2c0.2-0.2,0.3-0.5,0.5-0.7
		c0.1-0.1,0.1-0.2,0.2-0.2c0.2-0.2,0.3-0.4,0.5-0.6c0.1-0.1,0.2-0.2,0.3-0.3c0.1-0.2,0.3-0.3,0.4-0.5c0.1-0.1,0.2-0.2,0.4-0.4
		s0.2-0.2,0.4-0.4c0.1-0.2,0.3-0.3,0.5-0.4c0.1-0.1,0.2-0.2,0.3-0.3c0.2-0.2,0.4-0.3,0.6-0.5c0.1-0.1,0.1-0.1,0.2-0.2
		c0.2-0.2,0.4-0.3,0.7-0.5c0.1,0,0.1-0.1,0.2-0.1c0.2-0.2,0.5-0.3,0.8-0.5c0.1,0,0.1-0.1,0.2-0.1c0.1-0.1,0.3-0.2,0.4-0.3
		c0.1-0.1,0.2-0.1,0.4-0.2c0,0,0.1,0,0.1-0.1c0,0,0.1,0,0.1-0.1c0.1-0.1,0.2-0.1,0.4-0.2s0.3-0.2,0.5-0.2c0.1,0,0.1-0.1,0.2-0.1
		c0.3-0.1,0.6-0.3,0.8-0.4c0.1,0,0.1-0.1,0.2-0.1c0.3-0.1,0.5-0.2,0.8-0.3c0.1,0,0.2-0.1,0.3-0.1c0.2-0.1,0.5-0.2,0.7-0.3
		c0.1,0,0.2-0.1,0.4-0.1c0.2-0.1,0.4-0.1,0.6-0.2s0.3-0.1,0.5-0.1s0.3-0.1,0.5-0.1c0.2-0.1,0.4-0.1,0.6-0.1c0.1,0,0.3-0.1,0.4-0.1
		c0.2-0.1,0.5-0.1,0.7-0.1c0.1,0,0.2,0,0.3,0c0.3,0,0.6-0.1,0.9-0.1c0.1,0,0.1,0,0.2,0c0.3,0,0.6-0.1,0.9-0.1c0.1,0,0.1,0,0.2,0
		c0.2,0,0.4,0,0.5,0s0.3,0,0.4,0h0.1h0.1c0.1,0,0.3,0,0.4,0c0.2,0,0.4,0,0.5,0s0.1,0,0.2,0c0.3,0,0.6,0,0.9,0.1c0.1,0,0.1,0,0.2,0
		c0.3,0,0.6,0.1,0.9,0.1c0.1,0,0.2,0,0.3,0c0.2,0,0.5,0.1,0.8,0.1c0.1,0,0.3,0.1,0.4,0.1c0.2,0,0.4,0.1,0.6,0.1s0.3,0.1,0.5,0.1
		s0.3,0.1,0.5,0.1c0.2,0.1,0.4,0.1,0.6,0.2c0.1,0,0.2,0.1,0.4,0.1c0.2,0.1,0.5,0.2,0.7,0.3c0.1,0,0.2,0.1,0.3,0.1
		c0.3,0.1,0.5,0.2,0.8,0.3c0.1,0,0.1,0.1,0.2,0.1c0.3,0.1,0.6,0.3,0.8,0.4c0.1,0,0.1,0.1,0.2,0.1c0.2,0.1,0.3,0.2,0.5,0.2
		c0.1,0.1,0.2,0.1,0.4,0.2c0,0,0.1,0,0.1,0.1c0,0,0.1,0,0.1,0.1c0.1,0.1,0.2,0.1,0.4,0.2c0.1,0.1,0.3,0.2,0.4,0.3
		c0.1,0,0.1,0.1,0.2,0.1c0.1,0.1,0.2,0.1,0.2,0.2l0,0c0.2,0.1,0.3,0.2,0.5,0.3c0.1,0,0.1,0.1,0.2,0.1c0.2,0.2,0.5,0.3,0.7,0.5
		c0.1,0.1,0.2,0.1,0.2,0.2c0.2,0.2,0.4,0.3,0.6,0.5c0.1,0.1,0.2,0.2,0.3,0.3c0.2,0.1,0.3,0.3,0.5,0.4c0.1,0.1,0.2,0.2,0.4,0.4
		c0.1,0.1,0.2,0.2,0.4,0.4c0.1,0.2,0.3,0.3,0.4,0.5c0.1,0.1,0.2,0.2,0.3,0.3c0.2,0.2,0.3,0.4,0.5,0.6c0.1,0.1,0.1,0.2,0.2,0.2
		c0.2,0.2,0.4,0.5,0.5,0.7c0,0.1,0.1,0.1,0.1,0.2c0.2,0.2,0.4,0.5,0.5,0.8c0,0.1,0.1,0.1,0.1,0.2c0.1,0.2,0.2,0.3,0.3,0.5
		c0.1,0.1,0.1,0.2,0.2,0.4c0,0,0,0.1,0.1,0.1s0,0.1,0.1,0.1c0.1,0.1,0.1,0.2,0.2,0.4s0.2,0.3,0.2,0.5c0,0.1,0.1,0.1,0.1,0.2
		c0.1,0.3,0.3,0.6,0.4,0.8c0,0.1,0.1,0.1,0.1,0.2c0.1,0.3,0.2,0.5,0.3,0.8c0,0.1,0.1,0.2,0.1,0.3c0.1,0.2,0.2,0.5,0.3,0.7
		c0,0.1,0.1,0.2,0.1,0.4c0.1,0.2,0.1,0.4,0.2,0.6s0.1,0.3,0.1,0.5s0.1,0.3,0.1,0.5c0.1,0.2,0.1,0.4,0.1,0.6c0,0.1,0.1,0.3,0.1,0.4
		c0.1,0.2,0.1,0.5,0.1,0.7c0,0.1,0,0.2,0.1,0.3c0,0.3,0.1,0.6,0.1,0.8c0,0.1,0,0.2,0,0.2c0,0.3,0.1,0.6,0.1,0.9c0,0.1,0,0.1,0,0.2
		c0,0.2,0,0.4,0,0.5s0,0.3,0,0.4v0.1v0.1c0,0.1,0,0.3,0,0.4c0,0.2,0,0.4,0,0.5s0,0.1,0,0.2c0,0.3,0,0.6-0.1,0.9c0,0.1,0,0.2,0,0.2
		c0,0.3-0.1,0.6-0.1,0.8c0,0.1,0,0.2,0,0.3c0,0.2-0.1,0.5-0.1,0.8c0,0.1-0.1,0.3-0.1,0.4c0,0.2-0.1,0.4-0.1,0.6S122,5.3,122,5.5
		s-0.1,0.3-0.1,0.5c-0.1,0.2-0.1,0.4-0.2,0.6c0,0.1-0.1,0.2-0.1,0.4c-0.1,0.2-0.2,0.5-0.3,0.7c0,0.1-0.1,0.2-0.1,0.3
		c-0.1,0.3-0.2,0.5-0.3,0.8c0,0.1-0.1,0.1-0.1,0.2c-0.1,0.3-0.3,0.6-0.4,0.8c0,0.1-0.1,0.1-0.1,0.2c-0.1,0.2-0.2,0.3-0.2,0.5
		c-0.1,0.1-0.1,0.2-0.2,0.4c0,0,0,0.1-0.1,0.1s0,0.1-0.1,0.1c-0.1,0.1-0.1,0.2-0.2,0.4s-0.2,0.3-0.3,0.4c0,0.1-0.1,0.1-0.1,0.2
		c-0.2,0.3-0.3,0.5-0.5,0.8c0,0.1-0.1,0.1-0.1,0.2c-0.2,0.2-0.3,0.5-0.5,0.7c-0.1,0.1-0.1,0.2-0.2,0.2c-0.2,0.2-0.3,0.4-0.5,0.6
		c-0.1,0.1-0.2,0.2-0.3,0.3c-0.1,0.2-0.3,0.3-0.4,0.5c-0.1,0.1-0.2,0.2-0.4,0.4s-0.2,0.2-0.4,0.4c-0.2,0.2-0.3,0.3-0.5,0.4
		c-0.1,0.1-0.2,0.2-0.3,0.3c-0.2,0.2-0.4,0.3-0.6,0.5c-0.1,0.1-0.1,0.1-0.2,0.2c-0.2,0.2-0.4,0.3-0.7,0.5c-0.1,0-0.1,0.1-0.2,0.1
		c-0.2,0.2-0.5,0.3-0.8,0.5c-0.1,0-0.1,0.1-0.2,0.1c-0.1,0.1-0.3,0.2-0.4,0.3c-0.1,0.1-0.2,0.1-0.4,0.2c0,0-0.1,0-0.1,0.1
		c0,0-0.1,0-0.1,0.1c-0.1,0.1-0.2,0.1-0.4,0.2s-0.3,0.2-0.5,0.2c-0.1,0-0.1,0.1-0.2,0.1c-0.3,0.1-0.6,0.3-0.8,0.4
		c-0.1,0-0.1,0.1-0.2,0.1c-0.3,0.1-0.5,0.2-0.8,0.3c-0.1,0-0.2,0.1-0.3,0.1c-0.2,0.1-0.5,0.2-0.7,0.3c-0.1,0-0.2,0.1-0.4,0.1
		c-0.2,0.1-0.4,0.1-0.6,0.2s-0.3,0.1-0.5,0.1s-0.3,0.1-0.5,0.1c-0.2,0.1-0.4,0.1-0.6,0.2c-0.1,0-0.3,0.1-0.4,0.1
		c-0.2,0.1-0.5,0.1-0.8,0.1c-0.1,0-0.2,0-0.3,0c-0.3,0-0.6,0.1-0.9,0.1c-0.1,0-0.1,0-0.2,0c-0.3,0-0.6,0.1-0.9,0.1
		c-0.1,0-0.1,0-0.2,0c-0.2,0-0.4,0-0.5,0s-0.3,0-0.4,0h-0.1L100,77.6L100,77.6z"/>
</g>
</svg>
