<?xml version="1.0" encoding="utf-8"?>
<!-- Generator: Adobe Illustrator 26.5.1, SVG Export Plug-In . SVG Version: 6.00 Build 0)  -->
<svg version="1.1" id="Layer_1" xmlns="http://www.w3.org/2000/svg" xmlns:xlink="http://www.w3.org/1999/xlink" x="0px" y="0px"
	 viewBox="0 0 100 100" style="enable-background:new 0 0 100 100;" xml:space="preserve">
<g id="Layer_21">
	<path d="M122.4,100.1c0-4.1-1.1-7.9-3-11.2l0,0c0-0.1-0.1-0.1-0.1-0.2c-0.1-0.1-0.2-0.3-0.2-0.4c-5.6-9.4-12.3-12.1-19.1-13.1v-0.3
		c6.8-1,13.5-3.7,19.1-13.1c0.1-0.1,0.2-0.3,0.2-0.4c0-0.1,0.1-0.1,0.1-0.2l0,0l0,0c1.6-2.8,2.7-6,2.9-9.4l0,0c0,0,0,0,0-0.1
		c0-0.6,0.1-1.1,0.1-1.7l0,0l0,0l0,0c0-0.6,0-1.1-0.1-1.7c0,0,0,0,0-0.1l0,0c-0.3-3.4-1.3-6.6-2.9-9.4l0,0l0,0
		c0-0.1-0.1-0.1-0.1-0.2l0,0c-0.1-0.1-0.2-0.3-0.2-0.4l0,0c-5.6-9.4-12.3-12.1-19.1-13.1v-0.3c6.8-1,13.5-3.7,19.1-13.1
		c0.1-0.1,0.2-0.3,0.2-0.4s0.1-0.1,0.1-0.2l0,0c1.9-3.3,3-7.1,3-11.2H0v100L122.4,100.1L122.4,100.1z"/>
</g>
</svg>
