<?xml version="1.0" encoding="utf-8"?>
<!-- Generator: Adobe Illustrator 26.5.1, SVG Export Plug-In . SVG Version: 6.00 Build 0)  -->
<svg version="1.1" id="Ebene_1" xmlns="http://www.w3.org/2000/svg" xmlns:xlink="http://www.w3.org/1999/xlink" x="0px" y="0px"
	 viewBox="0 0 100 100" style="enable-background:new 0 0 100 100;" xml:space="preserve">
<path d="M123.6,50.1C140.5,20.7,150.1-13.5,150-50h-0.2c-36.4,0-70.4,9.6-99.7,26.4C20.7-40.5-13.5-50.1-50-50v0.2
	c0,36.4,9.6,70.5,26.4,99.8C-40.5,79.3-50.1,113.5-50,150h0.2c36.4,0,70.4-9.6,99.7-26.4c29.4,16.9,63.6,26.5,100.1,26.4v-0.1
	C150,113.4,140.4,79.4,123.6,50.1z M50,100C22.4,100,0,77.6,0,50C0,22.4,22.4,0,50,0s50,22.4,50,50C100,77.6,77.6,100,50,100z"/>
</svg>
