<?xml version="1.0" encoding="utf-8"?>
<!-- Generator: Adobe Illustrator 26.5.1, SVG Export Plug-In . SVG Version: 6.00 Build 0)  -->
<svg version="1.1" id="Ebene_1" xmlns="http://www.w3.org/2000/svg" xmlns:xlink="http://www.w3.org/1999/xlink" x="0px" y="0px"
	 viewBox="0 0 100 100" style="enable-background:new 0 0 100 100;" xml:space="preserve">
<g>
	<path d="M96.3,44.1c-3.2-14.3-14.5-26.6-28.8-31.3C52.1,7.7,30,11.1,21.3,25.5c-2.2,3.7-3.5,7.7-3.8,11.7c-2.4,1.8-4.6,3.9-6.4,6.2
		c-1.9,2.4-3.4,5-4.5,7.7C5.4,44.7,6,38.3,8.2,32.8c3.6-8.8,10.9-16.4,20-20.8c13-6.4,29.5-7.2,42-2.2c0.5,0.2,1.1,0,1.3-0.6
		c0.2-0.5,0-1.1-0.6-1.3c-13-5.3-30.1-4.4-43.6,2.2c-9.5,4.7-17.2,12.6-21,21.9C3.6,38.9,3.3,47,5.3,55c-0.8,3.3-1,6.8-0.5,10.3
		c2.3,18.9,19.7,28.8,34.8,30c1.4,0.1,2.9,0.2,4.3,0.2c6.5,0,12.8-1.1,18.6-3.2c7.4-1.1,14.3-3.9,19.9-8.3
		C94,74.9,99.6,58.8,96.3,44.1z M39.8,93.3c-14.4-1.1-30.8-10.4-33-28.2c-0.2-2-0.3-3.9-0.1-5.8c0.8,2.1,1.7,4.1,2.7,6.1
		C17.3,80,35,91.3,52.6,92.6c0.2,0,0.4,0,0.7,0C48.9,93.4,44.3,93.7,39.8,93.3z M81.2,82.4c-2.5,2-5.3,3.6-8.3,4.9
		c5.5-3.4,10.1-7.8,13.4-13c5.6-8.8,7.3-21.5,4.3-32.2c-2.4-8.7-7.6-15.3-14.9-19c-0.5-0.2-1.1-0.1-1.3,0.4
		c-0.2,0.5-0.1,1.1,0.4,1.3c8.6,4.4,12.3,12.1,13.9,17.8c2.8,10.1,1.1,22.4-4.1,30.6C79.7,81,71.6,87,62.1,90.4
		c-3.1,0.4-6.2,0.5-9.3,0.3c-16.9-1.3-34-12.1-41.6-26.2c-1.6-3.1-2.9-6.2-3.8-9.4c1-3.7,2.7-7.2,5.2-10.3c1.4-1.7,3-3.3,4.8-4.8
		c0.2,7.1,3.3,13.8,9,18c1.9,1.4,4,2.5,6.3,3.3c0.8,2.7,2.6,5.2,5.1,7.2c6.1,4.7,15.3,6,21.2,4.7c6.4-1.4,14.2-5.9,17-13
		c2.7-6.8,1.5-14.9-3.2-21.2c-8.5-11.5-25.2-11.3-32-10.6c-7.8,0.8-15.2,3.4-21.3,7.4c0.5-3.1,1.5-6.2,3.3-9.1
		C31.2,13,52.2,9.8,66.9,14.7c13.6,4.5,24.4,16.2,27.4,29.8C97.5,58.5,92.2,73.7,81.2,82.4z M62.8,41.8c-0.2-0.5-0.8-0.7-1.3-0.5
		c-0.5,0.2-0.7,0.8-0.5,1.3c1.1,2.4,0.9,5.4-0.6,8.2c-2.5,4.7-7,7.9-12.8,9.2c-4.4,1-9,0.8-13.2-0.5c-0.1-0.7-0.2-1.3-0.3-2
		c-0.1-3.7,2-7.2,5-8.6c0.5-0.2,0.7-0.8,0.5-1.3c-0.2-0.5-0.8-0.7-1.3-0.5c-3.8,1.7-6.4,6-6.2,10.5c0,0.4,0.1,0.8,0.1,1.2
		c-1.7-0.7-3.2-1.6-4.6-2.6c-5.6-4.2-8.5-11-8.2-18c6.1-4.4,13.8-7.3,21.7-8.1c6.4-0.6,22.2-0.9,30.2,9.8c4.3,5.8,5.4,13.2,3,19.3
		c-2.6,6.4-9.7,10.6-15.6,11.8c-5.5,1.2-14,0.1-19.6-4.3c-1.8-1.4-3.1-3.1-4-4.9c4.2,1.1,8.7,1.2,12.9,0.2
		c6.4-1.4,11.4-5.1,14.1-10.3C64,48.5,64.2,44.7,62.8,41.8z"/>
</g>
</svg>
