<?xml version="1.0" encoding="utf-8"?>
<!-- Generator: Adobe Illustrator 26.5.1, SVG Export Plug-In . SVG Version: 6.00 Build 0)  -->
<svg version="1.1" id="Ebene_1" xmlns="http://www.w3.org/2000/svg" xmlns:xlink="http://www.w3.org/1999/xlink" x="0px" y="0px"
	 viewBox="0 0 100 100" style="enable-background:new 0 0 100 100;" xml:space="preserve">
<g>
	<g>
		<path d="M49.6-0.9c-0.5,0.2-0.7,0.8-0.5,1.3c0.1,0.1,5.9,12.3,3,22.6c-1.4,5.1-6.6,14.3-12.6,25c-2.8,4.9-5.7,10.1-8.4,15.2
			c-0.5,1-1,1.9-1.5,2.8c-4.6-3.9-8.9-8.1-11.9-16.5c-4.5-12.5-1.5-26.4,8-36.3c0.4-0.4,0.4-1,0-1.4c-0.4-0.4-1-0.4-1.4,0
			C14.3,22.3,11,37,15.8,50.2c3.3,9.1,7.9,13.4,12.9,17.6c-6.9,13.1-9.5,18.8-12.9,32c-0.1,0.5,0.2,1.1,0.7,1.2c0.1,0,0.2,0,0.3,0
			c0.4,0,0.8-0.3,1-0.7c3.4-12.9,5.9-18.5,12.5-31.2c7,5.8,14.2,12,18.9,31.1c0.1,0.5,0.5,0.8,1,0.8c0.1,0,0.2,0,0.2,0
			c0.5-0.1,0.9-0.7,0.7-1.2c-4.9-20-12.4-26.3-19.7-32.4c0,0-0.1-0.1-0.1-0.1c0.5-1,1.1-2,1.7-3.1c2.7-5.1,5.6-10.2,8.4-15.1
			C47.3,38.2,52.6,28.9,54,23.6c3-11.1-2.9-23.5-3.2-24C50.7-0.9,50.1-1.1,49.6-0.9z"/>
		<path d="M78.8,56.9c-6.6-19.7-5.9-24.4-2.8-44.2c0.1-0.5-0.3-1.1-0.8-1.1c-0.5-0.1-1.1,0.3-1.1,0.8c-3.1,20.2-3.8,25,2.9,45.2
			c6,18,7.6,30.2,5.5,42.3c-0.1,0.5,0.3,1.1,0.8,1.2c0.1,0,0.1,0,0.2,0c0.5,0,0.9-0.3,1-0.8C86.5,87.7,84.9,75.2,78.8,56.9z"/>
	</g>
</g>
</svg>
