<?xml version="1.0" encoding="utf-8"?>
<!-- Generator: Adobe Illustrator 26.5.1, SVG Export Plug-In . SVG Version: 6.00 Build 0)  -->
<svg version="1.1" id="Ebene_1" xmlns="http://www.w3.org/2000/svg" xmlns:xlink="http://www.w3.org/1999/xlink" x="0px" y="0px"
	 viewBox="0 0 100 100" style="enable-background:new 0 0 100 100;" xml:space="preserve">
<g>
	<path d="M99.7,50.4c0.5-0.1,0.9-0.7,0.8-1.2c-0.1-0.5-0.7-0.9-1.2-0.8c-10.1,2.3-19.4,3.3-29,1.4c-1.7-2.6-3.4-5-5.2-7.4
		c0.8-1.6,1.6-3.2,2.2-4.9c0.6-0.4,1.3-0.8,1.9-1.1l1.8-1c10.8-6.2,15.3-8.7,28.7-10c0.5-0.1,1-0.5,0.9-1.1c-0.1-0.5-0.5-1-1.1-0.9
		c-13.9,1.4-18.8,4.2-29.5,10.3l-1.8,1c1.4-5.2,1.5-10.7-0.6-16c-4-9.9-15.6-15.9-26-13.3c-7.7,1.9-13.8,8.3-16,15.8
		c-2.5,0.9-4.8,2.3-6.7,4c-1.6,1.4-2.8,3-3.6,4.7c-0.2,0-0.4,0.1-0.7,0.1C7.6,31.5,0.1,37.7,0.2,46.2c0,5.2,3.1,10.5,8.3,14.6
		c3.1,2.4,6.6,4.2,9.9,6c1.5,0.8,3,1.6,4.4,2.4c2.5,1.4,4.8,2.8,7.1,4.3c-5,5.9-11.5,14.3-14.6,25.7c-0.1,0.5,0.2,1.1,0.7,1.2
		c0.1,0,0.2,0,0.3,0c0.4,0,0.8-0.3,1-0.7c3.1-11.1,9.4-19.3,14.4-25.1c7.8,5.5,14,12.6,17,25.1c0.1,0.5,0.5,0.8,1,0.8
		c0.1,0,0.2,0,0.2,0c0.5-0.1,0.9-0.7,0.7-1.2c-3.1-13-9.8-20.4-17.7-26.1c0.2-0.2,0.4-0.4,0.6-0.7c4-4.6,8.7-8,13.3-11.3
		c1.2-0.9,2.5-1.8,3.8-2.7c9.8,5.8,18.5,9.4,28.2,12.2c3.3,9.1,4.9,18.8,3.2,28.6c-0.1,0.5,0.3,1.1,0.8,1.1c0.1,0,0.1,0,0.2,0
		c0.5,0,0.9-0.3,1-0.8c1.6-9.7,0.2-19.3-2.9-28.3c5.6,1.5,11.5,2.8,18.2,4c0.5,0.1,1.1-0.3,1.2-0.8c0.1-0.5-0.3-1.1-0.8-1.2
		c-7.2-1.4-13.5-2.7-19.4-4.4c-2.2-6-5.2-11.6-8.5-16.9C81,53.6,90,52.6,99.7,50.4z M67.4,49.2c-1.8-0.5-3.7-1-5.5-1.7
		c0.7-1,1.4-2,2.1-3.1C65.1,45.9,66.3,47.6,67.4,49.2z M16.7,31.7c2.7-0.4,5.6-0.3,8.7,0.4c1.5,6.5,5.8,12.5,13,18.3
		c-3.4,0.6-6.6,0.7-9.6,0c-6.3-1.3-13-6.7-13.1-14.1C15.7,34.7,16,33.1,16.7,31.7z M27.6,32.6c2.6,0.7,5.4,1.8,8.2,3.2
		c3.2,1.6,6.3,3.5,9.4,5.3c2.2,1.3,4.4,2.7,6.7,3.9c-0.8,0.5-1.6,0.9-2.4,1.3c-2.9,1.5-5.8,2.7-8.5,3.4
		C33.6,44.3,29.2,38.6,27.6,32.6z M46.2,39.4c-3.1-1.9-6.2-3.8-9.5-5.4c-3.3-1.7-6.5-2.9-9.6-3.6c-0.1-0.4-0.1-0.9-0.2-1.3
		c-0.2-2.1,0-4.3,0.4-6.4c1.8-0.6,3.7-0.9,5.6-0.9c0.6,0,1.3,0,1.9,0.1c7.7,0.9,15.2,5.7,23,14.7c0.8,1,1.7,2,2.5,3
		c-0.2,0.1-0.4,0.2-0.5,0.4c-1.9,1.3-3.9,2.6-6,3.8C51.2,42.4,48.6,40.9,46.2,39.4z M60.8,41.7c0.2-0.2,0.5-0.3,0.7-0.5
		c0.4,0.5,0.7,0.9,1.1,1.4c-0.8,1.4-1.7,2.8-2.7,4.1c-1.3-0.5-2.7-1.1-4.1-1.8c0,0,0,0,0,0C57.6,43.9,59.2,42.8,60.8,41.7z
		 M63.7,40.7c-0.2-0.2-0.3-0.4-0.5-0.6c0.4-0.2,0.8-0.5,1.1-0.7C64.1,39.9,63.9,40.3,63.7,40.7z M42.1,7.3c1.5-0.4,3-0.5,4.5-0.5
		c8.1,0,16.1,5.1,19.1,12.6c2.2,5.6,1.8,11.4-0.1,16.8c-1.2,0.8-2.5,1.5-3.7,2.3c-0.9-1.1-1.8-2.2-2.7-3.2
		c-8.1-9.4-16-14.5-24.3-15.4c-2.3-0.3-4.7-0.1-7.1,0.5C30.2,14.2,35.5,8.9,42.1,7.3z M20.3,26.6c1.4-1.3,3.1-2.3,4.8-3.1
		c-0.3,1.9-0.4,3.8-0.2,5.7c0,0.2,0.1,0.4,0.1,0.7c-2.5-0.4-4.9-0.6-7.2-0.4C18.5,28.5,19.3,27.5,20.3,26.6z M45.6,59.6
		c-4.7,3.3-9.5,6.8-13.7,11.6c-0.2,0.2-0.4,0.5-0.7,0.8c-2.4-1.6-4.9-3.1-7.4-4.6c-1.5-0.8-3-1.6-4.4-2.4c-3.3-1.7-6.7-3.5-9.6-5.8
		c-4.7-3.7-7.5-8.5-7.5-13c-0.1-6.9,6-12.4,12.2-14c-0.4,1.4-0.6,2.8-0.6,4.2c0.1,7.4,6.4,14.3,14.6,16c3.8,0.8,7.8,0.7,12.1-0.4
		c1.3,1,2.7,1.9,4.1,2.9c1.4,0.9,2.7,1.8,4.1,2.6C47.6,58.1,46.6,58.9,45.6,59.6z M50.4,56.1c-1.5-0.9-3.1-1.9-4.7-3
		c-1-0.6-1.9-1.3-2.8-1.9c2.4-0.8,4.9-1.8,7.4-3.1c1.2-0.6,2.4-1.3,3.5-2c0.4,0.2,0.8,0.4,1.1,0.6c1.2,0.6,2.5,1.1,3.7,1.7
		c-0.3,0.4-0.6,0.7-0.9,1.1C55.5,52,53,54.1,50.4,56.1z M77.8,68.4c-8.8-2.6-16.8-6-25.6-11.2c2.5-1.9,4.9-4,7-6.4
		c0.5-0.5,0.9-1.1,1.4-1.6c2.9,1.1,5.7,1.9,8.4,2.5C72.4,56.9,75.5,62.5,77.8,68.4z"/>
</g>
</svg>
