<?xml version="1.0" encoding="utf-8"?>
<!-- Generator: Adobe Illustrator 26.5.1, SVG Export Plug-In . SVG Version: 6.00 Build 0)  -->
<svg version="1.1" id="Ebene_1" xmlns="http://www.w3.org/2000/svg" xmlns:xlink="http://www.w3.org/1999/xlink" x="0px" y="0px"
	 viewBox="0 0 100 100" style="enable-background:new 0 0 100 100;" xml:space="preserve">
<g>
	<path d="M97.4,39.7c-1.9-4.5-5.5-8.2-9.8-10.3c-3.6-3.8-8.9-6.1-14.7-6.4c-5.2-0.2-10.7,1.1-16.4,4c-3.6-0.3-7.2-0.5-10.7-0.7
		c9.5-5.1,20.2-8.1,31-8.3c0.6,0,1-0.5,1-1c0-0.6-0.5-1-1-1c-12.1,0.3-24.2,3.9-34.7,10.1c-1.4-0.1-2.9-0.1-4.3-0.2
		c-5.2-0.2-9.7-0.6-12.6-3.6c-0.4-0.4-0.8-0.9-1.1-1.4c1.5-0.6,3-1.2,4.5-1.9c1.8-0.8,3.9-1.9,5.3-3.6c1.7-2.1,2-4.8,0.8-6.8
		c-1.7-2.7-5.7-2.8-8.5-1.4c-2.7,1.4-4.6,4.3-5.1,7.7c-0.2,1.7-0.1,3.3,0.3,4.8c-6.8,2.4-13.9,3.9-21,4.3c-0.6,0-1,0.5-0.9,1.1
		c0,0.6,0.5,1,1.1,0.9c7.3-0.4,14.6-1.9,21.6-4.4c0.4,0.8,1,1.5,1.6,2.2c3.7,3.7,9.6,4,14,4.1c0.5,0,1,0,1.4,0.1
		c-4.3,2.8-8.2,6.1-11.8,9.8c-2.4,0-4.7,0.5-6.7,1.3c-4,1.7-7.3,5-9.3,9C7.7,47.9,4,48.2,0.3,49c-0.5,0.1-0.9,0.7-0.8,1.2
		c0.1,0.5,0.6,0.9,1.2,0.8c3.3-0.7,6.5-1,9.9-0.9c-1,2.7-1.4,5.6-1.1,8.6c0.4,5.2,2.8,10.2,6.5,14.4c-5.1,1-10.2,1.3-15.4,0.9
		c-0.6-0.1-1,0.4-1.1,0.9c0,0.5,0.4,1,0.9,1.1c5.7,0.5,11.6,0.1,17.2-1.2c1.3,1.2,2.7,2.3,4.2,3.3c6,3.9,13.5,6,22.3,6.3
		c0.7,0,1.5,0,2.2,0c7,0,14-1,20.8-2.1c0.5-0.1,0.9-0.6,0.8-1.1c-0.1-0.5-0.6-0.9-1.1-0.8c-7.4,1.1-15.1,2.2-22.6,2
		c-8.5-0.3-15.6-2.3-21.3-6c-1.1-0.7-2.1-1.4-3-2.2c2.5-0.7,4.9-1.5,7.3-2.5c5.1,3.3,10.8,4.1,15.4,4.1c0.9,0,1.8,0,2.6-0.1
		c4.5-0.3,8.8-1.4,13-2.7c3.6,1.4,7.6,2.1,11.5,2.1c3.4,0,6.8-0.5,10-1.6c7-2.3,13-7.1,16.4-13.1C99.6,54.1,100.2,46.1,97.4,39.7z
		 M23.3,19c-0.3-1.2-0.4-2.5-0.2-3.8c0.4-2.7,1.9-5.1,4-6.2c0.8-0.5,1.9-0.7,2.8-0.7c1.2,0,2.4,0.4,3,1.4c0.8,1.3,0.3,3.2-0.6,4.4
		c-1.1,1.4-2.9,2.3-4.6,3C26.2,17.8,24.8,18.5,23.3,19z M88,33.1c4.6,7.3,1.8,17.2-3.4,23.2c-5.7,6.6-14.3,10.3-22,13.1
		c-1.4,0.5-2.9,1-4.4,1.5c-0.2-0.1-0.4-0.1-0.6-0.2c-4.7-2-9-5.2-13-8.4c-0.6-0.4-1.1-0.8-1.7-1.3c2.6-3,4.7-7,3.8-11.5
		c0-0.2-0.1-0.5-0.2-0.7c1.4,2,3.3,3.7,5.6,4.8c4.3,2.1,9.6,2.3,15.3,0.8c3,2.1,6.8,2.9,10.3,2.1c5.2-1.3,9.3-6.1,9.6-11.4
		c0-0.6-0.4-1-0.9-1.1c-0.6-0.1-1,0.4-1.1,0.9c-0.3,4.4-3.8,8.6-8.1,9.6c-2.4,0.6-5,0.2-7.3-0.9c2.8-1.1,5-2.4,6.8-4.1
		c2.6-2.5,4-5.9,3.8-9.1c-0.3-4.6-3.5-8-6.8-9.9c2.1-0.8,4.5-1.2,6.7-1.1c2,0.1,4,0.7,5.8,1.6C87,31.6,87.6,32.3,88,33.1z
		 M27.4,69.4c-4.8-3.4-7.7-8.9-7.4-14.2c0.1-1.2,0.3-2.4,0.6-3.6c4.9,1.3,9.8,3.5,14.8,6.6c1.6,1,3.1,2,4.6,3.1
		c-1.3,1.2-2.5,2.2-3.4,2.8C33.7,66.3,30.6,68,27.4,69.4z M36.4,56.5c-5.1-3.1-10.1-5.4-15.2-6.8c1.1-2.7,3-5.6,5.7-8.6
		c0.4-0.5,0.8-0.9,1.2-1.3c2.2,0.1,4.5,0.5,6.9,1.2c5.3,1.8,8.9,5.1,9.7,9c0.8,3.8-1.1,7.2-3.4,9.9C39.8,58.7,38.1,57.6,36.4,56.5z
		 M72,31.8c3.9,1.9,6.5,5.3,6.7,8.7c0.2,2.6-1.1,5.4-3.2,7.6c-1.8,1.8-4.3,3.2-7.5,4.2c-0.9-0.7-1.6-1.6-2.2-2.5
		c-1.9-3.1-2.1-7.3-0.7-10.9c1.2-3,3.6-5.6,6.5-7.2C71.7,31.6,71.8,31.7,72,31.8z M72.9,25c3.3,0.1,6.5,1.1,9.2,2.6
		c-0.5-0.1-0.9-0.1-1.4-0.2c-3.3-0.2-6.5,0.5-9.3,1.9c-3.3-1.3-6.8-1.7-10.7-2C64.9,25.6,69,24.8,72.9,25z M57,29
		c1.1,0.1,2.1,0.2,3.2,0.3c3.3,0.3,6.3,0.6,9,1.4c-2.7,1.9-4.8,4.4-6,7.4c-1.7,4.2-1.4,9.1,0.8,12.7c0.5,0.8,1,1.4,1.6,2.1
		c-4.7,1-9.1,0.7-12.5-1c-4.6-2.2-7.5-7.2-6.8-11.7c0.6-3.9,3.7-7.4,9.2-10.4C56,29.5,56.5,29.3,57,29z M42.6,28.1
		c3.6,0.2,7.1,0.4,10.7,0.6c-5.3,3.2-8.3,7-9,11.1c-0.3,1.8-0.1,3.6,0.4,5.3c-1.9-2.6-5.1-4.8-9-6.1c-1.9-0.6-3.8-1-5.7-1.2
		C33.8,34.2,38.1,30.9,42.6,28.1z M21.4,40.9c1.2-0.5,2.6-0.8,4-1c-2.9,3.3-4.9,6.4-6.1,9.3c-1.9-0.5-3.9-0.8-5.8-1
		C15.3,45,18,42.3,21.4,40.9z M18.2,72.6c-3.9-4-6.4-9-6.8-14c-0.2-2.9,0.2-5.7,1.2-8.3c2,0.2,4,0.5,6,0.9c-0.4,1.3-0.6,2.7-0.7,4
		c-0.3,5.6,2.6,11.3,7.3,15.2C23,71.2,20.6,72,18.2,72.6z M45.1,73.8c-4.2,0.3-10.2,0-15.6-3.1c2.9-1.4,5.7-3,8.3-4.8
		c1-0.7,2.4-1.8,3.9-3.3c0.6,0.5,1.2,0.9,1.8,1.4c3.7,2.8,7.6,5.8,11.9,7.9C52,72.8,48.6,73.5,45.1,73.8z M94.3,59.5
		c-3.1,5.6-8.7,10-15.3,12.1c-5.7,1.8-11.9,1.9-17.7,0.4c0.7-0.2,1.3-0.5,2-0.7c7.9-2.9,16.8-6.7,22.8-13.7
		c5.2-6.1,8.2-15.9,4.5-23.8c2.1,1.8,3.8,4.1,4.9,6.7C98.1,46.3,97.6,53.6,94.3,59.5z"/>
</g>
</svg>
