<?xml version="1.0" encoding="utf-8"?>
<!-- Generator: Adobe Illustrator 26.5.1, SVG Export Plug-In . SVG Version: 6.00 Build 0)  -->
<svg version="1.1" id="Ebene_1" xmlns="http://www.w3.org/2000/svg" xmlns:xlink="http://www.w3.org/1999/xlink" x="0px" y="0px"
	 viewBox="0 0 100 100" style="enable-background:new 0 0 100 100;" xml:space="preserve">
<g>
	<path d="M100.2,73.5c-8.7-1.8-15.1-1.7-20.2-1.7c-6.1,0-10.3,0-14.8-2.7c-0.2-0.3-0.5-0.6-0.7-0.9c1.8-1,3.6-2,5.3-3.1
		c0.7-0.5,1.4-1,2.3-1.6c4.9-3.6,13.2-9.6,28.2-12.9c0.5-0.1,0.9-0.7,0.8-1.2c-0.1-0.5-0.7-0.9-1.2-0.8c-8.2,1.8-14.4,4.4-19.2,7
		c2.1-2.4,3.6-5,4.4-7.8c1.5-5.2,0.4-10.9-2.6-14.8c4.9-3.7,10.2-6.7,17.7-7.4c0.6,0,1-0.5,0.9-1.1s-0.5-1-1.1-0.9
		c-8.1,0.7-13.8,3.9-18.9,7.9c-0.7-0.6-1.4-1.2-2.1-1.7c-6.1-3.8-15.1-1.8-20,4.3c-0.9,1.1-1.7,2.4-2.3,3.7
		c-1.1-1.2-2.3-2.4-3.6-3.4c-2.6-2-5.4-3.6-8.5-4.7c1.6,0.1,3.3,0.2,4.8,0.2c6.5,0,12.2-2.4,15.2-6.3c2.2-2.9,2.8-6.4,1.7-10.2
		c-1-3.7-3.8-6.7-7.7-8.4C53.2,2.5,46.1,3,39.8,6.3c-7.2,3.8-11,11.4-12.1,19.5c-0.2,0-0.5-0.1-0.7-0.1c-9.2-1.3-18.7-2.6-27-2.1
		c-0.6,0-1,0.5-0.9,1.1c0,0.6,0.5,1,1.1,0.9c8.1-0.5,17.5,0.8,26.6,2.1c0.3,0,0.5,0.1,0.8,0.1c0,0.2,0,0.5,0,0.7
		c-6.1,1.3-10.9,4.6-13.3,9c-1.5,2.7-1.9,5.9-1.5,9.1c-4.8,0.5-9.3,1.3-12.9,2c-0.5,0.1-0.9,0.6-0.8,1.2c0.1,0.5,0.6,0.9,1.2,0.8
		c3.6-0.7,8-1.5,12.9-2c0.8,3.3,2.6,6.4,5.3,8.8c4.6,4.2,11.4,6.1,18.5,5.4c0.8,1.7,1.5,3.4,2.3,5.1c0.2,0.5,0.4,0.9,0.6,1.4
		c-12.8,3.1-25,6-39.5,4.4c-0.6-0.1-1,0.3-1.1,0.9c-0.1,0.5,0.3,1,0.9,1.1c15,1.6,28-1.5,40.5-4.5c0.6,1.6,1.2,3.1,1.8,4.6
		c-1.2,0.5-2.3,1-3.4,1.5c-9.8,4.6-19.4,10.5-22.9,22.1c-0.2,0.5,0.1,1.1,0.7,1.2c0.1,0,0.2,0,0.3,0c0.4,0,0.8-0.3,1-0.7
		C21,88.9,30.2,83.3,39.6,78.9c1.1-0.5,2.1-1,3.2-1.5c2.3,6.7,4,13.1,5.6,19.7l0.7,2.6l0,0c0,0,0,0,0,0c0,0.1,0.1,0.1,0.1,0.2
		c0,0,0,0.1,0.1,0.1c0,0.1,0.1,0.1,0.1,0.1c0,0,0.1,0.1,0.1,0.1c0.1,0,0.1,0.1,0.2,0.1c0,0,0.1,0,0.1,0c0.1,0,0.2,0.1,0.3,0.1
		c0.1,0,0.2,0,0.2,0c0,0,0,0,0,0c0,0,0,0,0,0c0.1,0,0.1-0.1,0.2-0.1c0.1,0,0.1,0,0.2-0.1c0.1,0,0.1-0.1,0.1-0.1c0,0,0.1-0.1,0.1-0.1
		c0-0.1,0-0.1,0.1-0.2c0-0.1,0.1-0.1,0.1-0.2c0-0.1,0-0.1,0-0.2c0-0.1,0-0.1,0-0.2l0,0c0,0,0,0,0,0c-3-10.8,2.3-20.3,7.1-28.1
		c1.3-0.6,2.6-1.2,3.9-1.8c0.3,0.3,0.7,0.5,1,0.8c0.2,0.2,0.5,0.3,0.7,0.4c0.7,0.9,1.4,1.8,2.1,2.6c1.1,1.3,2.7,2.8,4.6,4.4
		c5.8,5.1,13.7,12.1,12,21.8c-0.1,0.5,0.3,1.1,0.8,1.2c0.1,0,0.1,0,0.2,0c0.5,0,0.9-0.3,1-0.8c1.9-10.8-6.5-18.2-12.6-23.6
		c-1.4-1.3-2.7-2.4-3.7-3.4c3.6,1.2,7.3,1.2,11.9,1.2c5.1,0,11.4,0,19.8,1.7c0.1,0,0.1,0,0.2,0c0.5,0,0.9-0.3,1-0.8
		C101.1,74.2,100.8,73.6,100.2,73.5z M60.9,62.8c-1.5-2.6-2.8-5.5-3.6-8.6c0-0.2-0.1-0.3-0.1-0.5c0,0,0,0,0,0
		c1.5-1.1,2.9-2.2,4.3-3.4c0.7,2.2,1.1,4.4,1.2,6.6C62.9,58.6,62.1,60.5,60.9,62.8z M56.7,51.6c-0.6-3.5-0.4-6.9,0.5-10
		c1.5,2.1,2.7,4.3,3.6,6.7C59.5,49.4,58.1,50.5,56.7,51.6z M55.5,54.9c0.8,3.1,2.1,6,3.6,8.6c-0.4-0.5-0.8-1-1.3-1.5
		c-1-1.2-2.1-2.5-3.3-3.7c-0.6-0.6-1.2-1.2-1.8-1.7C53.7,56.1,54.6,55.6,55.5,54.9z M62.8,65.8c1.3-0.4,2.6-0.8,3.9-1.3
		c-1.1,0.7-2.3,1.3-3.5,2C63.1,66.3,63,66,62.8,65.8z M83,47.1c-1.6,5.3-5.9,10.1-11.9,13.3c-2.7,1.4-5.5,2.5-8.5,3.3
		c1.4-2.6,2.2-4.9,2.1-6.9c-0.2-2.7-0.7-5.4-1.5-7.9c1.2-1,2.5-2.1,3.7-3.1c2-1.7,4.1-3.5,6.2-5.2c1.4-1.1,2.8-2.3,4.1-3.4
		c1.2-1,2.4-2.1,3.7-3.1C83.4,37.5,84.4,42.6,83,47.1z M60.4,35.2c2.8-3.5,7.2-5.4,11.4-5.4c2.1,0,4.2,0.5,6,1.6
		c0.6,0.4,1.1,0.8,1.6,1.2c-1.2,1-2.4,2-3.6,3c-1.3,1.1-2.7,2.3-4,3.4c-2.1,1.7-4.2,3.5-6.2,5.3c-1,0.9-2,1.8-3.1,2.7
		c-1.1-2.7-2.6-5.3-4.5-7.6C58.6,37.8,59.5,36.5,60.4,35.2z M55.7,39.7c-1.4,4-1.7,8.5-0.8,13.2c-1.2,0.9-2.5,1.7-3.7,2.4
		C45.2,50,39,47,32.1,46.1c-1.1-3.3-2-6.6-2.4-10c-0.3-1.9-0.4-4-0.3-6c1.5-0.2,2.9-0.4,4.4-0.4c6.4,0,12.9,2.2,18,6.1
		C53.2,37,54.5,38.3,55.7,39.7z M38,60.5C38,60.5,38,60.5,38,60.5c-1.8-4-3.7-8.1-5.2-12.2c5.9,1,11.3,3.6,16.6,8.1
		C45.5,58.5,41.7,59.8,38,60.5z M40.8,8c5.8-3,12.2-3.5,17.1-1.4c3.3,1.4,5.6,4,6.5,7.1c0.9,3.2,0.4,6.1-1.4,8.5
		c-2.6,3.5-7.7,5.5-13.6,5.5c-6,0-12.9-0.8-19.6-1.8C30.7,18.5,34.2,11.5,40.8,8z M29.6,28c-0.1,0-0.1,0-0.2,0c0,0,0,0,0,0
		C29.5,28,29.6,28,29.6,28z M15.9,38.3c2-3.8,6.2-6.6,11.5-7.9c0,2,0.1,4,0.3,5.9c0.4,3.3,1.2,6.4,2.2,9.6c-0.4,0-0.9-0.1-1.3-0.1
		c-4.7-0.2-9.5,0.1-14,0.5C14.2,43.5,14.6,40.7,15.9,38.3z M19.6,55.8c-2.3-2.1-3.8-4.7-4.6-7.5c4.4-0.4,9-0.6,13.5-0.5
		c0.7,0,1.4,0.1,2.1,0.1c1.5,4.4,3.4,8.6,5.3,12.8C29.7,61.2,23.7,59.4,19.6,55.8z M38.8,62.3c4-0.7,8-2.2,12.2-4.6
		c0.7,0.7,1.4,1.3,2.1,2.1c1.1,1.1,2.2,2.4,3.2,3.6c0.5,0.5,0.9,1.1,1.4,1.6c-1.5,0.3-3,0.7-4.5,1c-3.9,0.8-7.8,1.7-11.6,2.6
		c-0.2-0.6-0.5-1.1-0.7-1.7C40.2,65.4,39.5,63.9,38.8,62.3z M42.4,70.5c3.7-0.9,7.4-1.8,11.2-2.5c1.7-0.3,3.3-0.7,4.9-1.1
		c-0.3,0.5-0.6,1-0.9,1.5c-0.2,0.4-0.5,0.8-0.7,1.2c-2.4,1-4.8,2-7.2,2.9c-1.8,0.7-3.7,1.5-5.6,2.2C43.5,73.4,43,71.9,42.4,70.5z
		 M48.4,89.1c-1.1-4.1-2.3-8.2-3.8-12.5c1.9-0.8,3.8-1.5,5.7-2.3c1.6-0.6,3.1-1.2,4.7-1.9C52.1,77.4,49.3,83,48.4,89.1z M60.1,68.1
		c0.1-0.1,0.1-0.2,0.2-0.3c0.1,0.1,0.1,0.1,0.2,0.1C60.4,68,60.2,68,60.1,68.1z"/>
</g>
</svg>
