<?xml version="1.0" encoding="utf-8"?>
<!-- Generator: Adobe Illustrator 26.5.1, SVG Export Plug-In . SVG Version: 6.00 Build 0)  -->
<svg version="1.1" id="Ebene_1" xmlns="http://www.w3.org/2000/svg" xmlns:xlink="http://www.w3.org/1999/xlink" x="0px" y="0px"
	 viewBox="0 0 100 100" style="enable-background:new 0 0 100 100;" xml:space="preserve">
<g>
	<path d="M83.6-0.5c-0.5-0.1-1.1,0.2-1.2,0.7C79.5,12.5,69.2,20.9,59.2,29c-2.2,1.8-4.5,3.6-6.6,5.5c-0.6,0.6-1.3,1.1-1.9,1.7
		c-4.3,3.7-8.8,7.5-11.9,12.4c-2.2,3.5-3.5,7.4-3.6,11c-3.3-2.5-6.2-5.3-8.8-8.3c0.8-5.1,2.6-10,5.3-14.2c2.2-3.4,5-6.5,7.7-9.5
		c2-2.2,4-4.4,5.8-6.8c3-4,7.8-11.9,5.9-20.5c-0.1-0.5-0.7-0.9-1.2-0.8c-0.5,0.1-0.9,0.7-0.8,1.2c1.7,7.8-2.7,15.2-5.5,18.8
		c-1.8,2.3-3.8,4.5-5.7,6.7c-2.7,3-5.6,6.2-7.9,9.7c-2.6,4.1-4.4,8.6-5.4,13.3c-3.6-4.5-6.4-9.4-8.2-14.5
		c-3.7-10.1-3.2-21.1,1.3-33.9c0.2-0.5-0.1-1.1-0.6-1.3c-0.5-0.2-1.1,0.1-1.3,0.6c-4.7,13.2-5.1,24.7-1.3,35.2
		c2.1,5.8,5.4,11.4,9.7,16.4c-1.1,8.1,0.2,16.6,4.1,24c0.2,0.3,0.5,0.5,0.9,0.5c0.2,0,0.3,0,0.5-0.1c0.5-0.3,0.7-0.9,0.4-1.4
		c-3.4-6.3-4.7-13.7-4-21c2.7,3,5.8,5.7,9.2,8.2c0.2,2.1,0.8,4.2,1.8,5.9c2.7,4.8,7.8,7.4,11.9,9.1c0.9,0.4,1.7,0.7,2.6,1
		c0.3,1.4,0.4,2.9,0.1,4.2c-0.5,2.1-2,4-4.1,5.1c-1.6,0.8-3.3,0.9-4.7,0.2c-0.5-0.2-1.1,0-1.3,0.5c-0.2,0.5,0,1.1,0.5,1.3
		c0.9,0.4,1.9,0.6,2.8,0.6c1.2,0,2.4-0.3,3.6-0.9c2.6-1.3,4.5-3.7,5.1-6.4c0.3-1.2,0.3-2.5,0.2-3.8c2.9,1.2,5.7,2.4,8.1,4.3
		c3.4,2.6,6.3,7.1,5.3,11.5c-0.1,0.5,0.2,1.1,0.7,1.2c0.1,0,0.2,0,0.2,0c0.5,0,0.9-0.3,1-0.8c1.3-5.7-2.4-10.9-6-13.6
		c-3-2.3-6.5-3.7-9.9-5c-0.8-2.4-2.2-4.9-4.3-7c-2.4-2.5-5.4-4.4-8.2-6.3c-0.9-0.6-1.9-1.2-2.8-1.9c-0.2-0.2-0.5-0.3-0.7-0.5
		c-0.1-3.7,1-7.8,3.3-11.4c3-4.6,7.3-8.4,11.5-11.9c0.7-0.6,1.3-1.1,1.9-1.7c2.1-1.8,4.4-3.7,6.5-5.4c10.3-8.3,20.9-17,23.9-29.8
		C84.4,0.2,84.1-0.3,83.6-0.5z M39.5,65.1c2.7,1.8,5.6,3.6,7.9,6c1.4,1.4,2.5,3,3.2,4.6c-0.3-0.1-0.6-0.2-0.9-0.4
		c-3.8-1.6-8.5-4-10.9-8.2c-0.6-1-1-2.2-1.3-3.3C38.1,64.2,38.8,64.6,39.5,65.1z"/>
</g>
</svg>
