<?xml version="1.0" encoding="utf-8"?>
<!-- Generator: Adobe Illustrator 26.5.1, SVG Export Plug-In . SVG Version: 6.00 Build 0)  -->
<svg version="1.1" id="Ebene_1" xmlns="http://www.w3.org/2000/svg" xmlns:xlink="http://www.w3.org/1999/xlink" x="0px" y="0px"
	 viewBox="0 0 100 100" style="enable-background:new 0 0 100 100;" xml:space="preserve">
<g>
	<path d="M19.8,67.4c5.7,4.9,13.3,7.5,21,7.5c5,0,10.1-1.1,14.7-3.4c5.7-2.8,8.3-7.3,10.4-12.4c1.3-0.3,2.6-0.6,3.9-0.9
		c5.6-1.3,10.3-2.4,14.9-3.4c4.6-1,9.4-2.1,15-3.4c0.5-0.1,0.9-0.7,0.7-1.2c-0.1-0.5-0.7-0.9-1.2-0.7c-5.6,1.3-10.3,2.4-14.9,3.4
		c-4.6,1-9.4,2.1-15,3.4c-0.8,0.2-1.6,0.4-2.5,0.6c0.1-0.3,0.2-0.5,0.3-0.8c1.3-3.3,2.7-6.6,4.8-9.8C78,37.4,85.9,28,99.6,26.5
		c0.5-0.1,0.9-0.6,0.9-1.1s-0.6-0.9-1.1-0.9c-14.6,1.6-22.8,11.4-29,20.7c-2.2,3.3-3.6,6.8-5,10.2c-0.3,0.7-0.6,1.4-0.8,2
		c-2.3,0.5-4.6,0.9-7,1c0.1-0.4,0.2-0.8,0.3-1.2c1.3-6.3,0.4-11.5-2.7-15.6c-3.2-4.2-8.6-6.9-15.3-7.7c0.4-1,0.8-2,1.3-3
		c1.4-0.5,2.8-0.9,4.3-1.4c3-0.9,6.1-1.9,9.4-3.2c16.3-6.8,26.1-15.4,29-25.6c0.2-0.5-0.2-1.1-0.7-1.2c-0.5-0.2-1.1,0.2-1.2,0.7
		c-2.7,9.5-12.1,17.7-27.8,24.3c-3.2,1.3-6.2,2.3-9.2,3.2c-0.8,0.3-1.7,0.5-2.5,0.8c0.7-1.3,1.4-2.5,2.1-3.8
		c1.1-1.9,2.1-3.8,3.1-5.8c2.3-4.7,4.7-11.8,2.9-18.6c-0.1-0.5-0.7-0.9-1.2-0.7c-0.5,0.1-0.9,0.7-0.7,1.2C50.1,7,47.9,13.6,45.7,18
		c-0.9,1.9-2,3.9-3.1,5.7c-1,1.8-2.1,3.7-3,5.6c-3.5,1.2-6.9,2.7-10,5.2c-6.1,1.6-11.1,5.5-14.6,11.1c0.2-2.5,0.6-5.2,1-8
		c0.3-2.4,0.7-4.9,1-7.5c0.5-4.3,0.1-9.2-0.3-14C16.5,10.3,16,4.8,17.1,0.8c0.1-0.5-0.2-1.1-0.7-1.2c-0.5-0.1-1.1,0.2-1.2,0.7
		c-1.2,4.4-0.8,10-0.3,16c0.4,4.7,0.7,9.5,0.3,13.6c-0.3,2.6-0.7,5-1,7.4c-0.7,4.6-1.3,8.9-1.3,12.9c-0.4,0.9-0.7,1.9-1,2.9
		c-1.8,6.1-0.3,12.9,3.8,18.3c5.5,7.1,15,11.6,26.7,12.7c1.2,0.1,2.3,0.2,3.5,0.2c7,0,13.6-2,20.5-4c9.9-2.9,20-6,33-3.8
		c0.5,0.1,1.1-0.3,1.1-0.8c0.1-0.5-0.3-1.1-0.8-1.1c-13.4-2.2-23.8,0.9-33.9,3.9C58,80.7,50.6,83,42.6,82.2
		c-11.2-1.1-20.2-5.3-25.4-12c-3.2-4.1-4.6-9.4-4-14.2C14.1,60.3,15.9,64.1,19.8,67.4z M53.5,42.8c2.7,3.6,3.5,8.3,2.3,14
		c-0.1,0.6-0.3,1.1-0.5,1.7c-0.6,0-1.2,0-1.8-0.1c-5.7-0.4-10.7-2.9-13.3-6.6c-2.8-4-3.2-9.8-1.3-16C45.5,36.5,50.6,39,53.5,42.8z
		 M38.5,31.9c-0.3,0.6-0.5,1.2-0.7,1.8c-1.1-0.1-2.2-0.1-3.3,0C35.8,33,37.1,32.4,38.5,31.9z M30.6,36.4c2-0.5,4.2-0.7,6.5-0.6
		c-2,6.6-1.4,12.8,1.7,17.3c3,4.3,8.4,7,14.8,7.5c0.3,0,0.6,0,1,0c-1.8,3-4.8,5.2-8.7,6.2c-8.8,2.3-17-0.4-20.8-6.8
		c-4.5-7.7-1.6-15.8,2.3-20.4C28.4,38.3,29.5,37.3,30.6,36.4z M26,38.1c-0.1,0.1-0.1,0.1-0.2,0.2c-4.3,5.1-7.6,14.1-2.5,22.7
		c4.3,7.2,13.3,10.2,23,7.7c4.8-1.3,8.6-4.2,10.5-8.2c2.3-0.1,4.6-0.4,6.8-0.8c-2,4.2-4.3,7.8-8.9,10.1c-10.9,5.4-24.6,3.8-33.5-3.9
		c-4.8-4.2-6.2-9.2-6.2-15.2C17.2,44.9,21.1,40.5,26,38.1z"/>
</g>
</svg>
