<?xml version="1.0" encoding="utf-8"?>
<!-- Generator: Adobe Illustrator 26.5.1, SVG Export Plug-In . SVG Version: 6.00 Build 0)  -->
<svg version="1.1" id="Ebene_1" xmlns="http://www.w3.org/2000/svg" xmlns:xlink="http://www.w3.org/1999/xlink" x="0px" y="0px"
	 viewBox="0 0 100 100" style="enable-background:new 0 0 100 100;" xml:space="preserve">
<g>
	<path d="M100.2,51.5c0.5-0.1,0.9-0.7,0.8-1.2c-0.1-0.5-0.7-0.9-1.2-0.8c-7.5,1.7-16.9,3.4-26.6,4.1c2.8-3,4.5-6.8,4.9-10.6
		c0.8-0.9,1.6-1.8,2.3-2.7c1.5-1.8,3.1-3.6,4.7-5.3c3.7-3.9,8.3-8.1,15-8.6c0.6,0,1-0.5,0.9-1.1c0-0.6-0.5-1-1.1-0.9
		c-7.4,0.5-12.3,5-16.3,9.2c-1.7,1.7-3.2,3.6-4.8,5.3c-0.3,0.3-0.5,0.6-0.8,0.9c0-0.4-0.1-0.9-0.2-1.3c0.1,0,0.1-0.1,0.2-0.1
		c4.5-2.8,6.8-6.7,6.2-10.4c-0.5-3.1-3.1-5.7-6.9-7c-4.3-1.6-9.2-1.3-13.3,0.7c-1.1,0.5-2.1,1.1-3,1.9c-0.6-0.2-1.2-0.3-1.7-0.4
		c-2.5-0.5-5-0.8-7.3-0.8c0-0.6,0-1.2-0.1-1.8c3.2-1.3,6-1.9,9.1-2.5c3.3-0.6,6.7-1.3,10.5-3c3.2-1.4,10.7-5.7,12.7-14.5
		c0.1-0.5-0.2-1.1-0.8-1.2c-0.5-0.1-1.1,0.2-1.2,0.8c-1.8,7.9-8.7,11.8-11.6,13.1c-3.6,1.6-6.7,2.2-10.1,2.9
		c-2.8,0.5-5.6,1.1-8.7,2.3c0-1.3,0-2.6,0.1-3.9C52.2,9.5,52.3,4.5,51,0.2c-0.2-0.5-0.7-0.8-1.3-0.7c-0.5,0.2-0.8,0.7-0.7,1.3
		c1.3,4,1.1,8.8,1,13.8c0,1.6-0.1,3.2-0.1,4.8c0,0-0.1,0-0.1,0c-2.7,1.3-5.4,2.5-8,4.1c-2.6,0.5-5.2,1.3-7.6,2
		c-0.6,0.2-1.1,0.3-1.6,0.5C24,20.3,15.1,12.6,17.6,0.7c0.1-0.5-0.2-1.1-0.8-1.2c-0.5-0.1-1.1,0.2-1.2,0.8
		C13,12.6,21.6,20.8,30.1,26.6c-4.2,0.8-7,0.3-11-0.4c-4.3-0.8-9.6-1.7-19-1.7c-0.6,0-1,0.5-1,1c0,0.6,0.5,1,1,1c0,0,0,0,0,0
		c0.2,0,0.4,0,0.6,0c8.9,0,14,0.9,18.1,1.7c4.7,0.8,8,1.4,13.7,0c0.7,0.5,1.4,0.9,2.1,1.3c-2.6,3-4.3,6.3-4.8,9.7
		c-0.5,3.5,0.3,7.2,2,10.4c-1.9-0.3-3.7-0.6-5.6-0.9c-9-1.3-16.1-1.1-26.2,0.8c-0.5,0.1-0.9,0.6-0.8,1.2c0.1,0.5,0.6,0.9,1.2,0.8
		c9.9-1.8,16.8-2,25.6-0.8c2.4,0.3,4.9,0.8,7.3,1.2c0.2,0.3,0.5,0.7,0.8,1c-0.1,0-0.2-0.1-0.3-0.1c-2.4-0.9-5.3-0.6-7.7,0.9
		c-2.8,1.8-5.5,5.3-5,9.4c0.5,4.1,3.8,6.8,7.2,8.3c-7.8,4.4-16.8,4.5-27.8,3.1c-0.5-0.1-1,0.3-1.1,0.9c-0.1,0.5,0.3,1,0.9,1.1
		c3.9,0.5,7.6,0.8,11,0.8c7.3,0,13.7-1.3,19.5-5.1c4.5,1.1,9.4,0.6,13.5-1.3c4.3-2,7.7-5.5,9.8-9.7c0,0,0,0,0.1,0
		c4.4,0,8.5-0.9,12.1-2.4c1.5,1.3,2.9,2.4,4.2,3.3c8.8,6.4,17.1,12,29.7,14.4c0.1,0,0.1,0,0.2,0c0.5,0,0.9-0.3,1-0.8
		c0.1-0.5-0.2-1.1-0.8-1.2C88,72.2,79.9,66.7,71.3,60.4c-1.2-0.9-2.4-1.8-3.4-2.7c1-0.6,2-1.2,2.9-2C81.5,55.2,92,53.3,100.2,51.5z
		 M70.7,53.3c-0.2,0.2-0.4,0.3-0.6,0.5c-1.7,0.1-3.4,0.2-5.2,0.2c3.3-1.5,5.8-3.7,7.9-5.6c0.9-0.8,1.8-1.6,2.6-2.5
		C74.5,48.7,72.9,51.3,70.7,53.3z M76.1,42.2c-1.5,1.6-3,3.3-4.6,4.7c-2.8,2.5-5.5,4.6-8.8,5.8c-1.2-1.4-2.3-2.9-3.2-4.4
		c-1.8-3-2.8-6.2-3.1-9.2c2.2,1.6,5,2.7,8.1,3c3.7,0.4,7.7-0.5,11.5-2.4C76.1,40.5,76.1,41.4,76.1,42.2z M61.6,26
		c4.6,1.4,11.5,4.4,13.8,11.1c0.1,0.2,0.1,0.4,0.2,0.6c-3.6,1.9-7.4,2.8-10.9,2.5c-3.3-0.3-6.3-1.6-8.3-3.6c0.1-1.4,0.3-2.7,0.8-4
		C58,30,59.6,27.7,61.6,26z M64.9,23.7c3.6-1.8,8-2,11.8-0.6c2.4,0.9,5.1,2.7,5.6,5.5c0.6,3.2-2.1,6.2-4.9,8.1c0-0.1,0-0.1-0.1-0.2
		c-2.4-6.8-8.9-10.3-13.8-12C64,24.2,64.5,23.9,64.9,23.7z M59,25.3c0.1,0,0.2,0.1,0.4,0.1c-1.8,1.9-3.2,4.1-4,6.6
		c-0.3,0.8-0.4,1.5-0.6,2.3c-0.1-0.2-0.2-0.4-0.3-0.5c-1.3-2.9-2-6.1-2.3-9.2C54.4,24.6,56.6,24.8,59,25.3z M50,21.6
		c0,0.3,0,0.6,0,0.9c-0.7,0-1.5,0.1-2.2,0.1C48.5,22.3,49.3,21.9,50,21.6z M42.7,25.4c2.4-0.5,4.9-0.8,7.5-0.9
		c0.3,3.4,1,6.8,2.4,10.1c0.4,1,1.1,1.9,1.8,2.7c-0.1,4,1.1,8.2,3.4,12.1c0.8,1.4,1.8,2.7,2.8,3.9c-1.5,0.3-3,0.4-4.8,0.3
		c0.1-1,0.1-2,0-3c-0.8-9.5-8.4-15.5-15.7-20.1c-0.7-0.5-1.5-0.9-2.3-1.4c0,0,0,0-0.1,0c0.3-0.3,0.6-0.6,1-0.9
		C39.9,27.2,41.2,26.3,42.7,25.4z M37.3,26.7c-0.5,0.4-1,0.8-1.4,1.3c-0.3-0.2-0.6-0.4-0.9-0.6C35.7,27.2,36.5,27,37.3,26.7z
		 M31.6,39.5c0.5-3.1,2.1-6.2,4.6-8.9c0.2,0.1,0.3,0.2,0.5,0.3c0.8,0.5,1.6,1,2.3,1.4c6.9,4.3,14.1,10,14.8,18.6
		c0.1,0.9,0.1,1.7,0,2.6c-0.4,0-0.8-0.1-1.2-0.1c-4.7-0.6-9.4-1.5-14-2.4c-1.5-0.3-2.9-0.6-4.4-0.8C32.1,46.9,31.1,43.1,31.6,39.5z
		 M38.3,52.9c4.6,0.9,9.4,1.8,14.1,2.4c0.4,0.1,0.8,0.1,1.2,0.1c-0.2,1.3-0.6,2.5-1.1,3.7c-5.7-0.2-10.9-2-14.6-5
		c-0.6-0.5-1.2-1-1.7-1.6C36.8,52.7,37.6,52.8,38.3,52.9z M30.1,70c-3.4-1-6.9-3.6-7.4-7.1c-0.3-2.7,1.3-5.8,4.1-7.5
		c1.2-0.7,2.5-1.1,3.9-1.1c0.7,0,1.5,0.1,2.1,0.4c3.1,1.1,4.1,4.5,3.5,7.3C35.7,64.9,33.6,67.6,30.1,70z M43.1,69
		c-3.2,1.5-6.9,2-10.5,1.5c3.1-2.5,4.9-5.2,5.6-8.2c0.4-2,0.2-4.2-0.8-6.1c3.8,2.8,8.7,4.4,14.1,4.8C49.7,64.5,46.8,67.3,43.1,69z
		 M54.6,59.2c0.4-1.1,0.7-2.3,0.9-3.5c0.2,0,0.3,0,0.5,0c2.3,0.2,4.6,0.3,7,0.3c0.4,0.4,0.8,0.9,1.3,1.3
		C61.4,58.4,58.1,59.1,54.6,59.2z M66.2,56.4c-0.1-0.1-0.3-0.2-0.4-0.4c0.4,0,0.8,0,1.2,0C66.7,56.1,66.5,56.2,66.2,56.4z"/>
</g>
</svg>
