<?xml version="1.0" encoding="utf-8"?>
<!-- Generator: Adobe Illustrator 26.5.1, SVG Export Plug-In . SVG Version: 6.00 Build 0)  -->
<svg version="1.1" id="Ebene_1" xmlns="http://www.w3.org/2000/svg" xmlns:xlink="http://www.w3.org/1999/xlink" x="0px" y="0px"
	 viewBox="0 0 100 100" style="enable-background:new 0 0 100 100;" xml:space="preserve">
<g>
	<path d="M81.7,80.6c-2.1-3.5-5.1-6.7-8.9-9.6c1.7-1.2,3.2-2.7,4.5-4.3c4.7-5.8,6.3-13.9,4-20.6C79,39,72.4,33.6,65.2,33
		c-1.9-0.2-4.1-0.1-6.4,0.2c0.1-0.6,0.1-1.2,0.1-1.8c0.1-3.7-1-6.8-2.4-9.9c1.4-0.6,2.7-1.1,4-1.6c2.7-1.1,5.6-2.2,8.3-3.5
		c3.3-1.6,14.3-7.6,16-16.2C84.9-0.4,84.6-0.9,84-1c-0.5-0.1-1.1,0.2-1.2,0.8c-1.5,7.7-11.8,13.3-14.9,14.8
		c-2.6,1.3-5.4,2.4-8.2,3.5c-1.4,0.5-2.8,1.1-4.1,1.7c0,0,0,0,0,0c-1.9-4.1-3.8-8.3-3.5-13.8c0.1-2.1-0.1-4.1-0.6-6.2
		c-0.1-0.5-0.7-0.8-1.2-0.7c-0.5,0.1-0.8,0.7-0.7,1.2C50,2,50.2,3.8,50.1,5.6c0,0,0,0,0,0c0,0,0,0.1,0,0.1c-0.2,4-1.7,8.1-4.6,12.4
		c-1.1,1.6-2.3,3.1-3.5,4.6c-1.6,0.2-3.3,0.8-5.1,1.6c-3,1.4-5.7,3.2-8.2,5.2c-3.5-1.7-7.2-3.1-11.3-4.1c-2-9.8-0.6-20.8,0.8-25.1
		c0.2-0.5-0.1-1.1-0.6-1.3c-0.5-0.2-1.1,0.1-1.3,0.6c-1.7,5-2.9,15.6-1,25.3c-4.3-0.8-9.1-1.2-14.7-1c-0.6,0-1,0.5-1,1
		c0,0.6,0.5,1,1,1c5.8-0.2,10.7,0.2,15.1,1.1c0.8,3.3,2,6.4,3.7,9c0.2,0.3,0.4,0.6,0.6,0.9c-0.4,0.3-0.7,0.7-1.1,1
		c-1.2,1.1-2.2,2.1-3.1,3c-3.4,3.4-6,6.1-15.4,8c-0.5,0.1-0.9,0.6-0.8,1.2c0.1,0.5,0.5,0.8,1,0.8c0.1,0,0.1,0,0.2,0
		c10-2,13-5,16.4-8.5c0.9-0.9,1.9-1.9,3-2.9c0.3-0.3,0.6-0.6,0.9-0.8c1.6,2.2,3.5,4.4,5.6,6.4c-0.6,2.2-0.8,4.3-0.7,6.4
		c0.1,2.6,0.9,5.2,2.1,7.7c-2.4-0.6-4.8-0.8-7.1-0.3c-5,0.9-9.1,4.6-10.3,9c-0.5,1.9-0.5,3.9,0,6C7.6,74.3,4.3,74.3,0.6,74
		c-0.6-0.1-1,0.4-1.1,0.9c0,0.5,0.4,1,0.9,1.1c1.6,0.1,3.2,0.2,4.7,0.2c2.2,0,4.2-0.2,6.2-0.4c0.5,1.2,1.1,2.4,1.9,3.5
		c1.9,2.6,4.8,4.9,8.5,6.6c-2.5,4.4-4.3,9-5.5,13.9c-0.1,0.5,0.2,1.1,0.7,1.2c0.1,0,0.2,0,0.2,0c0.4,0,0.9-0.3,1-0.8
		c1.2-4.7,3-9.2,5.4-13.5c7.6,3.1,16,3.2,23.1,0.5c0.3,1.5,0.6,3,1,4.5c0.6,2.7,1.1,5.6,1.9,8.5c0.1,0.5,0.5,0.8,1,0.8
		c0.1,0,0.2,0,0.2,0c0.5-0.1,0.9-0.7,0.7-1.2c-0.7-2.9-1.3-5.7-1.9-8.4c-0.3-1.7-0.7-3.3-1-4.9c1.5-0.7,2.9-1.5,4.2-2.5
		c2.9-2.1,5.3-4.9,6.9-7.9c4-0.5,7.9-1.8,11.3-3.9c3.9,2.9,6.8,6,8.9,9.5c3.4,5.6,4.3,11.6,2.9,18.2c-0.1,0.5,0.2,1.1,0.8,1.2
		c0.1,0,0.1,0,0.2,0c0.5,0,0.9-0.3,1-0.8C86.3,93.2,85.3,86.6,81.7,80.6z M65,35c6.4,0.5,12.3,5.3,14.4,11.7
		c2,6.1,0.6,13.4-3.7,18.7c-1.3,1.6-2.9,3.1-4.7,4.3c-1.2-0.8-2.4-1.7-3.7-2.4c-1.5-0.9-3-1.7-4.5-2.5c0.1-3.3-0.6-6.5-2-9.5
		c-1.5-3.2-3.8-5.8-6.3-8.1c2.1-4,3.4-8,4-11.9C60.9,34.9,63.1,34.9,65,35z M58.3,74.1c-5.4,0.4-11-0.9-16.1-3.6
		c-0.9-1.3-1.8-2.5-2.7-3.6c2.4-2.5,4.7-5.1,7-7.8c0.9,0.4,1.7,0.9,2.6,1.3c1.8,0.9,3.6,1.7,5.4,2.6c2,0.9,4.1,1.9,6.1,2.9
		C60.4,68.7,59.7,71.5,58.3,74.1C58.4,74.1,58.4,74.1,58.3,74.1z M34.1,64.4c0.9,0.7,1.8,1.5,2.7,2.4c0,0,0,0,0,0
		C35.8,66.1,34.9,65.3,34.1,64.4z M44.1,41.8c0.2,0.2,0.5,0.3,0.7,0.5c-0.9,1.4-1.8,3.1-2.8,5c-0.9,1.6-1.8,3.4-2.8,5.2
		c-3.9-2.5-7.3-5.2-10.2-7.9c1-3.1,2.7-6.3,5.2-9.6C37.5,37,40.7,39.4,44.1,41.8z M43.8,48.3c0.9-1.8,1.8-3.4,2.6-4.8
		c0.5,0.3,0.9,0.7,1.4,1c1.4,1,2.8,2,4.1,3.2c-1.4,2.5-3.1,5.1-5.1,7.6c-0.3,0.4-0.6,0.8-0.9,1.1c-1.8-1-3.5-1.9-5.1-2.9
		C42,51.7,43,49.9,43.8,48.3z M47.6,41.8c0.2-0.2,0.3-0.4,0.5-0.6c2.5-2.8,5.4-4.5,8.3-5.4c-0.6,3.3-1.8,6.6-3.4,10
		c-1.3-1.1-2.6-2.1-3.9-3C48.6,42.5,48.1,42.2,47.6,41.8z M44.7,58.1c-2.1,2.5-4.3,4.9-6.6,7.3c-1.1-1.1-2.2-2.1-3.4-2.9
		c2-2.3,3.6-4.8,5.1-7.2C41.4,56.2,43,57.2,44.7,58.1z M55.4,61.2c-1.8-0.8-3.6-1.7-5.4-2.6c-0.8-0.4-1.5-0.8-2.2-1.1
		c0.2-0.3,0.5-0.6,0.7-0.9c1.9-2.5,3.6-5,5-7.5c2.2,2,4.1,4.4,5.5,7.1c1.1,2.3,1.7,4.9,1.7,7.5C59,62.8,57.2,62,55.4,61.2z
		 M56.9,31.4c0,0.8-0.1,1.5-0.2,2.3c-3.5,0.9-7.1,2.7-10.1,6.2c-0.2,0.2-0.4,0.5-0.6,0.8c-0.2-0.2-0.4-0.3-0.7-0.5
		c-3.4-2.4-6.6-4.8-9.9-6.8c1.4-1.8,3-3.5,4.4-5.2c1-1.2,2.1-2.4,3.1-3.6c0.4,0,0.7-0.1,1.1-0.1c0.6,0,1.3,0.1,1.9,0.2
		c-0.9,0.7-1.8,1.6-2.5,2.6c-1.1,1.7-1.5,4.4,0,6.3c0.8,1.1,2.1,1.7,3.6,1.7c0,0,0.1,0,0.1,0c1.6,0,3.1-0.7,4-1.8
		c1.7-2.1,1.7-5.5-0.1-7.8c-0.3-0.4-0.7-0.8-1.1-1.2c1.5-0.8,3.1-1.6,4.6-2.3C55.9,25.3,57,28.1,56.9,31.4z M48.1,25.7
		c0.6,0.4,1,0.8,1.4,1.3c1.2,1.6,1.3,3.9,0.2,5.3c-0.6,0.7-1.5,1.2-2.6,1.1c-0.9,0-1.6-0.3-2.1-0.9c-0.9-1.2-0.6-2.9,0.1-4
		C45.9,27.3,47,26.4,48.1,25.7z M47.2,19.2c1.6-2.3,2.7-4.6,3.6-6.9c0.7,3,1.9,5.6,3.1,8.2c-2,0.9-3.9,1.8-5.8,2.9
		c-1-0.5-2.2-0.7-3.4-0.8C45.5,21.5,46.4,20.4,47.2,19.2z M37.7,26.2c0.7-0.3,1.4-0.6,2-0.8c-0.5,0.5-0.9,1-1.3,1.5
		c-1.6,1.8-3.2,3.6-4.7,5.4c-1-0.6-2.1-1.2-3.1-1.8C32.8,28.9,35.2,27.3,37.7,26.2z M21,35.1c-1.4-2.2-2.5-4.7-3.2-7.4
		c3.3,0.8,6.2,1.9,9.1,3.3c-1.9,1.5-3.7,3.2-5.4,4.8c0,0,0,0,0,0C21.3,35.5,21.2,35.3,21,35.1z M22.6,37.3c0.1-0.1,0.1-0.1,0.2-0.2
		c2-1.8,4-3.6,6.1-5.3c1.2,0.6,2.4,1.3,3.6,2c-2.3,3.1-4,6.1-5.1,9.1C25.6,41.2,24,39.3,22.6,37.3z M28,51.5
		c-0.1-1.5,0.1-3.1,0.4-4.7c2.9,2.6,6.1,5.1,9.8,7.5c-1.5,2.4-3.1,4.8-5.1,7.2c-0.7-0.4-1.5-0.8-2.3-1.2
		C29.2,57.4,28.2,54.4,28,51.5z M12.6,68.4c1-3.7,4.5-6.8,8.7-7.6c0.8-0.1,1.6-0.2,2.4-0.2c1.9,0,3.9,0.4,5.8,1.2
		c0.4,0.7,0.9,1.4,1.4,2c-4.5,4.6-10.3,8.3-18.3,9.7C12.2,71.8,12.2,70.1,12.6,68.4z M14.8,78.1c-0.6-0.8-1.1-1.7-1.5-2.6
		c8.2-1.6,14.3-5.5,18.9-10.1c1,1.1,2,2.1,3.2,3C33.2,70.6,31,73,29,75.5c-2.4,2.8-4.5,5.7-6.3,8.7C19.2,82.5,16.6,80.5,14.8,78.1z
		 M24.5,84.9c1.7-2.8,3.7-5.5,5.9-8.2c2.1-2.5,4.3-4.8,6.5-7.2c0.4,0.3,0.8,0.6,1.1,0.8c0.9,0.6,1.8,1.1,2.7,1.6
		c0.3,0.4,0.5,0.8,0.8,1.3c2.3,3.8,3.5,7.7,4.6,12C39.6,87.8,31.7,87.8,24.5,84.9z M51.6,82.3c-1.1,0.8-2.3,1.5-3.5,2.1
		c-0.9-3.8-2.1-7.4-4-10.8c4.3,1.8,8.8,2.7,13.1,2.6C55.8,78.5,53.9,80.6,51.6,82.3z M60.8,73.8c1-2.2,1.6-4.5,1.9-6.9
		c1.2,0.7,2.5,1.3,3.7,2c1,0.6,2,1.2,2.9,1.9C66.7,72.3,63.8,73.3,60.8,73.8z"/>
</g>
</svg>
