<?xml version="1.0" encoding="utf-8"?>
<!-- Generator: Adobe Illustrator 26.5.1, SVG Export Plug-In . SVG Version: 6.00 Build 0)  -->
<svg version="1.1" id="Ebene_1" xmlns="http://www.w3.org/2000/svg" xmlns:xlink="http://www.w3.org/1999/xlink" x="0px" y="0px"
	 viewBox="0 0 100 100" style="enable-background:new 0 0 100 100;" xml:space="preserve">
<g>
	<path d="M100.2,51c0.5-0.1,0.9-0.7,0.7-1.2c-0.1-0.5-0.7-0.9-1.2-0.7c-2.8,0.7-5.2,1.1-7.4,1.6c-4,0.8-7.2,1.4-10.2,2.7
		c-3.1-2.8-6.7-5-10.5-6.8c1.3-1.7,2.6-3.4,4.1-5c8.7-9.6,16.8-14.8,24.3-15.5c0.5-0.1,1-0.5,0.9-1.1c-0.1-0.5-0.5-1-1.1-0.9
		c-7.9,0.7-16.5,6.2-25.6,16.2c-1.6,1.8-3.1,3.7-4.5,5.5c-3-1.2-6-2-9.2-2.5c-1.3-0.5-2.6-0.9-3.9-1.3c2.3-1.4,4.6-2.9,6.8-4.5
		C74,29.7,80.4,18.2,84.3,0.2c0.1-0.5-0.2-1.1-0.8-1.2c-0.5-0.1-1.1,0.2-1.2,0.8c-3.8,17.5-10,28.6-20.1,36
		c-2.2,1.6-4.6,3.1-6.9,4.6c-0.4,0.2-0.8,0.5-1.2,0.7c-2.8-0.9-5.8-2.1-8.8-3.4c1.1-1.9,2.2-3.9,3.2-5.9c4.4-9.2,6.4-17.8,2.5-32.1
		c-0.1-0.5-0.7-0.9-1.2-0.7c-0.5,0.1-0.8,0.7-0.7,1.2C52.8,14,51,21.9,46.7,31c-1,2-2,4-3.2,5.9c-7.9-3.8-15.7-9.3-21-17.3
		c1.7-0.9,3.4-2,4.7-3.6c1.8-2.2,2.3-5,1.3-7.2c-0.7-1.5-2-2.6-3.7-3.1C23,5,20.8,5.2,19.2,6.2c-0.7,0.4-1.4,1-1.9,1.7
		c-0.3-2.1-0.2-4.6,0.4-7.7c0.1-0.5-0.2-1.1-0.8-1.2c-0.5-0.1-1.1,0.2-1.2,0.8c-0.9,4.5-0.8,7.8,0,10.6c-0.6,1.4-0.9,3.1-0.8,4.8
		c0.1,1.8,0.6,3.5,1.3,5.1C11.6,22.1,6.3,23.7,0,24c-0.6,0-1,0.5-1,1s0.5,1,1,1c6.6-0.3,12.3-2,17.1-3.9c0.4,0.8,0.9,1.6,1.3,2.2
		c3.3,5.3,7.7,9.9,12,14.4c1.8,1.9,3.5,3.7,5.2,5.6c-1.2,0-2.5,0.1-3.7,0.1c-0.8-2.8-2.1-5.5-4.1-7.6c-2.4-2.5-5.4-3.8-8.9-3.8
		c0,0,0,0,0,0c-2.9,0-5.6,1.2-7.6,3.4C9,38.7,8,42,8.3,45.2c0.1,0.7,0.2,1.4,0.4,2.1c-2.9,0.5-5.8,1.1-8.9,1.7
		c-0.5,0.1-0.9,0.6-0.8,1.2c0.1,0.5,0.6,0.9,1.2,0.8c3.2-0.6,6.2-1.2,9.2-1.8c1,2.4,2.7,4.8,5,6.8c3.6,3.3,8,5.7,12.6,7.2
		c-0.6,1.3-1.3,2.7-1.8,4c-1.4,1.5-3.2,2.8-5.3,3.6L19.6,71c-5.8,2.4-9.7,4-19.5,3c-0.6-0.1-1,0.3-1.1,0.9c-0.1,0.5,0.3,1,0.9,1.1
		c2.1,0.2,4,0.3,5.7,0.3c6.5,0,10.1-1.5,14.8-3.5l0.2-0.1c1-0.4,2-1,3-1.6c-3.3,8.8-5.5,18.1-7.7,27.7l-0.2,0.9
		c-0.1,0.5,0.2,1.1,0.7,1.2c0.1,0,0.2,0,0.2,0c0.5,0,0.9-0.3,1-0.8l0.2-0.9c2.5-10.9,5-21.3,9-31c1.2-1.3,2.2-2.7,3.1-4.3
		c2.1,0.5,4.3,0.9,6.4,1c-0.6,6.1,1.1,11.7,4.8,16.3c1.9,2.4,4.3,4.4,7.1,6c0,0,0,0,0,0.1c-0.4,3.3-0.8,6.7,0.8,12.7
		c0.1,0.4,0.5,0.7,1,0.7c0.1,0,0.2,0,0.3,0c0.5-0.1,0.9-0.7,0.7-1.2c-1.4-5.2-1.2-8.2-0.8-11.2c3.4,1.7,7.2,2.8,11.2,3.1
		c0.7,0.1,1.5,0.1,2.2,0.1c6.6,0,13.8-2.7,18.2-8.1c1.5,5.2,1.8,10.9,0.6,16.2c-0.1,0.5,0.2,1.1,0.8,1.2c0.1,0,0.1,0,0.2,0
		c0.5,0,0.9-0.3,1-0.8c1.4-6.2,1-12.8-1.1-18.7c0.8-1.3,1.4-2.7,1.8-4.3c0.3-0.9,0.4-1.8,0.5-2.7c0.8-0.7,1.5-1.6,2-2.5
		c2.1-4,0.8-9.2-2.8-11.5c-1.1-0.6-2.3-1-3.6-1c-0.6-0.9-1.3-1.7-2-2.5c0.9-0.5,1.7-1,2.5-1.4c2.3,2.2,4.4,4.6,6.1,7.3
		c0.4,0.6,0.8,1.5,1.2,2.6c1.5,3.6,3.8,8.9,10.7,10.4c0.1,0,0.1,0,0.2,0c0.5,0,0.9-0.3,1-0.8c0.1-0.5-0.2-1.1-0.8-1.2
		c-5.9-1.3-7.8-5.7-9.3-9.3c-0.5-1.1-0.9-2.1-1.4-2.9c-1.6-2.6-3.6-4.9-5.8-7.1c2.6-1,5.4-1.5,9-2.2C94.9,52.1,97.4,51.6,100.2,51z
		 M68.5,47.4c-0.3,0.4-0.5,0.7-0.8,1.1c-0.5-0.7-1-1.4-1.6-1.9C66.9,46.8,67.7,47.1,68.5,47.4z M67.3,53.6c-0.2,2.8-2.7,5.4-5.8,5.9
		c-0.7,0.1-1.5,0.2-2.3,0.1c3.2-2.1,5.7-4.6,8-7.4C67.3,52.7,67.3,53.2,67.3,53.6z M46.8,57.5c-0.8-2-1.8-3.8-2.9-5.6
		c1.1-1.4,2.3-2.7,3.7-3.8c-0.4,1.3-0.4,2.7-0.1,4.1c0.6,2.9,2.6,5,4.1,6.3c0.8,0.7,1.7,1.3,2.6,1.7c-1.9,0.8-3.8,1.5-5.8,2
		C48,60.6,47.5,59,46.8,57.5z M46.4,62.6c-2.6,0.5-5.2,0.7-7.8,0.7c0.6-3.4,2-6.7,4-9.6c0.9,1.5,1.7,3,2.3,4.7
		C45.6,59.7,46,61.1,46.4,62.6z M39.9,46.2c1.8,0,3.6,0.1,5.4,0.2c0.4,0,0.8,0,1.2,0.1c-1.4,1.1-2.6,2.4-3.8,3.8
		C41.9,48.8,40.9,47.5,39.9,46.2C39.9,46.2,39.9,46.2,39.9,46.2z M52.9,56.9c-1.3-1.1-2.9-2.8-3.4-5.2c-0.4-1.8,0-3.8,1.1-5
		c4.9,0.5,10.4,1.5,15.6,3.6c-2.8,3.4-5.7,6.4-9.8,8.7C55.2,58.5,54,57.8,52.9,56.9z M60.1,45.2c1.1,0.5,2.2,1,3.2,1.7
		c0.2,0.2,0.5,0.3,0.7,0.5c-3.4-1.1-6.9-1.9-10.2-2.3c0.7-0.1,1.5-0.2,2.2-0.2c0.5,0,0.9,0,1.4,0C58.3,45,59.2,45.1,60.1,45.2z
		 M52,42.5c-1,0.7-2,1.3-3,2c-1.2-0.1-2.4-0.2-3.5-0.2c-1.4-0.1-2.8-0.1-4.2-0.1c1-1.6,2.1-3.1,3-4.7C46.9,40.6,49.5,41.6,52,42.5z
		 M20.2,7.9c0.7-0.4,1.6-0.7,2.5-0.7c0.5,0,1.1,0.1,1.6,0.2c1.2,0.4,2,1.1,2.4,2c0.7,1.5,0.3,3.5-1,5.2c-1.1,1.4-2.7,2.3-4.2,3.1
		c-0.1-0.2-0.2-0.3-0.3-0.5L20.9,17c-1.3-2.2-2.4-4.2-3.1-6.4C18.4,9.5,19.1,8.5,20.2,7.9z M18.1,19.5c-0.6-1.4-1-2.9-1.1-4.4
		c0-0.4,0-0.8,0-1.3c0.6,1.4,1.4,2.7,2.2,4.2l0.2,0.4c0.1,0.1,0.1,0.2,0.2,0.4C19.1,19,18.6,19.2,18.1,19.5z M31.8,37.3
		c-4.2-4.4-8.5-9-11.7-14.1c-0.4-0.6-0.8-1.2-1.1-1.9c0.6-0.3,1.2-0.5,1.8-0.8c5.4,8.4,13.6,14.2,21.8,18.1
		c-1.2,1.9-2.4,3.8-3.6,5.6c-0.2,0-0.5,0-0.7,0C36.1,41.8,34,39.5,31.8,37.3z M37.2,46.2c0.1,0.1,0.1,0.1,0.2,0.2
		c-0.2,0.3-0.4,0.6-0.6,0.9c-1.3,1.9-2.6,3.8-3.9,5.8c0.1-2.1-0.1-4.4-0.5-6.8C33.9,46.3,35.6,46.2,37.2,46.2z M10.3,45
		c-0.3-2.7,0.6-5.4,2.3-7.3c1.6-1.8,3.8-2.7,6.1-2.7c0,0,0,0,0,0c3,0,5.5,1.1,7.5,3.2c1.7,1.7,2.8,4,3.5,6.3
		c-6.4,0.4-12.5,1.3-19.1,2.5C10.5,46.3,10.4,45.7,10.3,45z M15.7,54.6c-1.9-1.7-3.4-3.7-4.3-5.7c6.5-1.1,12.6-2,18.9-2.4
		c0.5,2.4,0.7,4.8,0.6,6.8c-0.1,1.3-0.2,2.6-0.5,3.9c-0.3,0.5-0.6,1-0.9,1.4c-0.5,0.9-1.1,1.9-1.6,2.8C23.4,60,19.2,57.7,15.7,54.6z
		 M32.2,57.9c2-3.2,4.1-6.4,6.2-9.5c0.1-0.1,0.2-0.3,0.3-0.4c1,1.2,1.9,2.5,2.8,3.8c-2.4,3.4-4.1,7.3-4.8,11.4
		c-2-0.1-3.9-0.4-5.8-0.9C31.4,60.9,31.9,59.4,32.2,57.9z M42.7,80.2c-3.4-4.2-4.9-9.4-4.4-15c2.9,0.1,5.7-0.2,8.5-0.7
		c1.3,5.7,1.5,11.7,1.7,17.6c0,1.2,0,2.2-0.1,3.2C46.3,83.9,44.3,82.2,42.7,80.2z M61.5,89.7c-4-0.4-7.8-1.5-11.1-3.3
		c0.1-1.3,0.2-2.7,0.2-4.3c-0.2-5.7-0.4-12-1.7-18c2.7-0.7,5.3-1.7,7.8-2.9c1.8,0.5,3.6,0.7,5.3,0.4c4-0.7,7.2-4.1,7.4-7.8
		c0-0.7,0-1.4-0.2-2.1c2.5,1.3,4.9,3,7,5.1c-3.9,2.9-6.1,6.1-6.6,9.4c-0.6,4.5,2.3,9.1,6.6,10.5c0.9,0.3,1.9,0.4,2.8,0.4
		c0,0,0,0,0,0c0.8,1.3,1.4,2.7,2,4.2C76.8,87.4,68.6,90.3,61.5,89.7z M83.7,73.5c-1.1,0.8-2.3,1.3-3.6,1.5c-0.1-0.2-0.2-0.3-0.3-0.5
		l-0.6-0.9c-1.9-2.8-3.9-5.7-3.1-8.5c0.4-1.3,1.4-2.5,2.9-3.1c0.4-0.2,0.9-0.3,1.3-0.3C82.6,65.2,84,69.3,83.7,73.5z M78.1,60.1
		c-2.1,0.8-3.6,2.4-4.1,4.4c-1,3.8,1.3,7.2,3.4,10.2l0.2,0.3c-0.3-0.1-0.6-0.1-0.9-0.2c-3.4-1.1-5.7-4.8-5.2-8.3
		c0.4-2.8,2.4-5.6,6-8.2c0.5,0.5,0.9,1.1,1.4,1.6C78.7,59.9,78.4,60,78.1,60.1z M83.1,76.7c-0.2,0.8-0.5,1.6-0.9,2.4
		c-0.3-0.8-0.7-1.5-1.1-2.2c0.7-0.2,1.5-0.4,2.1-0.8C83.2,76.3,83.2,76.5,83.1,76.7z M83.8,62.2c2.7,1.7,3.7,5.8,2.1,8.8
		c0,0.1-0.1,0.1-0.1,0.2c-0.2-3.3-1.3-6.6-3-9.5C83.1,61.9,83.5,62,83.8,62.2z M77.9,55.6c-2.4-2.4-5.3-4.4-8.3-5.9
		c-0.1,0-0.1-0.1-0.2-0.1c0.4-0.5,0.7-0.9,1.1-1.4c3.5,1.5,6.8,3.6,9.7,6.1C79.4,54.6,78.6,55.1,77.9,55.6z"/>
</g>
</svg>
