<?xml version="1.0" encoding="utf-8"?>
<!-- Generator: Adobe Illustrator 26.5.1, SVG Export Plug-In . SVG Version: 6.00 Build 0)  -->
<svg version="1.1" id="Ebene_1" xmlns="http://www.w3.org/2000/svg" xmlns:xlink="http://www.w3.org/1999/xlink" x="0px" y="0px"
	 viewBox="0 0 100 100" style="enable-background:new 0 0 100 100;" xml:space="preserve">
<g>
	<g>
		<path d="M50,192.2c-78.4,0-142.2-63.8-142.2-142.2c0-0.3,0.2-0.5,0.5-0.5s0.5,0.2,0.5,0.5c0,77.8,63.3,141.2,141.2,141.2
			S191.2,127.8,191.2,50c0-0.3,0.2-0.5,0.5-0.5s0.5,0.2,0.5,0.5C192.2,128.4,128.4,192.2,50,192.2z"/>
		<path d="M175,50.5c-0.3,0-0.5-0.2-0.5-0.5c0-68.6-55.9-124.5-124.5-124.5S-74.5-18.6-74.5,50c0,0.3-0.2,0.5-0.5,0.5
			s-0.5-0.2-0.5-0.5C-75.5-19.2-19.2-75.5,50-75.5S175.5-19.2,175.5,50C175.5,50.3,175.3,50.5,175,50.5z"/>
		<path d="M50,158.8C-10,158.8-58.8,110-58.8,50c0-0.3,0.2-0.5,0.5-0.5s0.5,0.2,0.5,0.5c0,59.5,48.4,107.8,107.8,107.8
			S157.8,109.5,157.8,50c0-0.3,0.2-0.5,0.5-0.5s0.5,0.2,0.5,0.5C158.8,110,110,158.8,50,158.8z"/>
		<path d="M141.7,50.5c-0.3,0-0.5-0.2-0.5-0.5c0-50.3-40.9-91.2-91.2-91.2S-41.2-0.3-41.2,50c0,0.3-0.2,0.5-0.5,0.5
			s-0.5-0.2-0.5-0.5c0-50.8,41.3-92.2,92.2-92.2S142.2-0.8,142.2,50C142.2,50.3,141.9,50.5,141.7,50.5z"/>
		<path d="M50,125.5c-41.6,0-75.5-33.9-75.5-75.5c0-0.3,0.2-0.5,0.5-0.5s0.5,0.2,0.5,0.5c0,41.1,33.4,74.5,74.5,74.5
			s74.5-33.4,74.5-74.5c0-0.3,0.2-0.5,0.5-0.5s0.5,0.2,0.5,0.5C125.5,91.6,91.6,125.5,50,125.5z"/>
		<path d="M108.3,50.5c-0.3,0-0.5-0.2-0.5-0.5c0-31.9-25.9-57.8-57.8-57.8S-7.8,18.1-7.8,50c0,0.3-0.2,0.5-0.5,0.5s-0.5-0.2-0.5-0.5
			C-8.8,17.6,17.6-8.8,50-8.8s58.8,26.4,58.8,58.8C108.8,50.3,108.6,50.5,108.3,50.5z"/>
		<path d="M50,92.2C26.7,92.2,7.8,73.3,7.8,50c0-0.3,0.2-0.5,0.5-0.5s0.5,0.2,0.5,0.5c0,22.7,18.5,41.2,41.2,41.2S91.2,72.7,91.2,50
			c0-0.3,0.2-0.5,0.5-0.5s0.5,0.2,0.5,0.5C92.2,73.3,73.3,92.2,50,92.2z"/>
		<path d="M75,50.5c-0.3,0-0.5-0.2-0.5-0.5c0-13.5-11-24.5-24.5-24.5S25.5,36.5,25.5,50c0,0.3-0.2,0.5-0.5,0.5s-0.5-0.2-0.5-0.5
			c0-14.1,11.4-25.5,25.5-25.5S75.5,35.9,75.5,50C75.5,50.3,75.3,50.5,75,50.5z"/>
		<path d="M50,58.8c-4.9,0-8.8-4-8.8-8.8c0-0.3,0.2-0.5,0.5-0.5s0.5,0.2,0.5,0.5c0,4.3,3.5,7.8,7.8,7.8s7.8-3.5,7.8-7.8
			c0-0.3,0.2-0.5,0.5-0.5s0.5,0.2,0.5,0.5C58.8,54.9,54.9,58.8,50,58.8z"/>
	</g>
</g>
</svg>
