<?xml version="1.0" encoding="utf-8"?>
<!-- Generator: Adobe Illustrator 26.5.1, SVG Export Plug-In . SVG Version: 6.00 Build 0)  -->
<svg version="1.1" id="Ebene_1" xmlns="http://www.w3.org/2000/svg" xmlns:xlink="http://www.w3.org/1999/xlink" x="0px" y="0px"
	 viewBox="0 0 100 100" style="enable-background:new 0 0 100 100;" xml:space="preserve">
<g>
	<g>
		<path d="M50,192.2c-0.3,0-0.5-0.2-0.5-0.5s0.2-0.5,0.5-0.5c77.8,0,141.2-63.3,141.2-141.2c0-77.8-63.3-141.2-141.2-141.2
			c-0.3,0-0.5-0.2-0.5-0.5s0.2-0.5,0.5-0.5c78.4,0,142.2,63.8,142.2,142.2S128.4,192.2,50,192.2z"/>
		<path d="M50,142.2c-50.8,0-92.2-41.3-92.2-92.2c0-50.8,41.3-92.2,92.2-92.2c0.3,0,0.5,0.2,0.5,0.5s-0.2,0.5-0.5,0.5
			C-0.3-41.2-41.2-0.3-41.2,50c0,50.3,40.9,91.2,91.2,91.2c0.3,0,0.5,0.2,0.5,0.5S50.3,142.2,50,142.2z"/>
		<path d="M50,108.8c-0.3,0-0.5-0.2-0.5-0.5s0.2-0.5,0.5-0.5c31.9,0,57.8-25.9,57.8-57.8c0-31.9-25.9-57.8-57.8-57.8
			c-0.3,0-0.5-0.2-0.5-0.5s0.2-0.5,0.5-0.5c32.4,0,58.8,26.4,58.8,58.8C108.8,82.4,82.4,108.8,50,108.8z"/>
		<path d="M50,75.5c-14.1,0-25.5-11.4-25.5-25.5S35.9,24.5,50,24.5c0.3,0,0.5,0.2,0.5,0.5s-0.2,0.5-0.5,0.5
			c-13.5,0-24.5,11-24.5,24.5s11,24.5,24.5,24.5c0.3,0,0.5,0.2,0.5,0.5S50.3,75.5,50,75.5z"/>
	</g>
</g>
</svg>
