<?xml version="1.0" encoding="utf-8"?>
<!-- Generator: Adobe Illustrator 26.5.1, SVG Export Plug-In . SVG Version: 6.00 Build 0)  -->
<svg version="1.1" id="Ebene_1" xmlns="http://www.w3.org/2000/svg" xmlns:xlink="http://www.w3.org/1999/xlink" x="0px" y="0px"
	 viewBox="0 0 100 100" style="enable-background:new 0 0 100 100;" xml:space="preserve">
<g>
	<g>
		<path d="M50,101.5L50,101.5c-0.8,0-1.5-0.7-1.5-1.5c0-0.9,0.8-1.6,1.6-1.5c0.9-0.1,1.6,0.6,1.6,1.5c0,0.8-0.7,1.5-1.5,1.5h0
			c0,0-0.1,0-0.1,0C50.1,101.5,50,101.5,50,101.5z M46,101.3c-0.2,0-0.3,0-0.5-0.1c-0.8-0.3-1.2-1.1-0.9-1.9c0.2-0.7,0.9-1.1,1.6-1
			c0.7,0.1,1.3,0.7,1.3,1.5C47.5,100.7,46.8,101.3,46,101.3z M54.2,101.3c-0.7,0-1.3-0.5-1.5-1.1c-0.2-0.8,0.3-1.6,1.1-1.8
			c0.9-0.2,1.9,0.5,1.9,1.5c0,0.8-0.6,1.4-1.3,1.5C54.3,101.3,54.3,101.3,54.2,101.3z M42,100.9c-0.1,0-0.2,0-0.3,0
			c-0.7-0.1-1.2-0.7-1.2-1.5c0-0.8,0.7-1.5,1.5-1.5c0.1,0,0.3,0,0.4,0.1c0.8,0.2,1.3,1.1,1,1.9C43.2,100.4,42.6,100.9,42,100.9z
			 M58.2,100.8c-0.8,0-1.5-0.7-1.5-1.5c0-0.7,0.5-1.3,1.2-1.5c0.7-0.1,1.5,0.3,1.7,1c0.3,0.8-0.2,1.6-0.9,1.9
			C58.5,100.8,58.4,100.8,58.2,100.8z M38,100.1c-0.1,0-0.2,0-0.3,0c-0.7-0.1-1.2-0.7-1.2-1.5c0-0.8,0.7-1.5,1.5-1.5
			c0.1,0,0.3,0,0.4,0.1c0.8,0.2,1.3,1.1,1,1.9C39.3,99.6,38.7,100.1,38,100.1z M62.2,100c-0.8,0-1.5-0.7-1.5-1.5
			c0-0.7,0.5-1.3,1.2-1.5c0.7-0.1,1.5,0.3,1.7,1c0.3,0.8-0.2,1.6-0.9,1.9C62.5,100,62.3,100,62.2,100z M34.2,98.9
			c-0.1,0-0.3,0-0.4-0.1c0,0-0.1,0-0.1,0c-0.8-0.3-1.2-1.1-0.9-1.9c0.3-0.8,1.1-1.2,1.9-0.9c0.8,0.3,1.2,1.1,1,1.9
			C35.4,98.5,34.8,98.9,34.2,98.9z M66,98.9c-0.7,0-1.3-0.5-1.5-1.1c-0.2-0.8,0.3-1.6,1-1.8c0.8-0.2,1.6,0.2,1.9,1
			c0.3,0.8-0.2,1.6-0.9,1.9c0,0-0.1,0-0.1,0C66.3,98.9,66.1,98.9,66,98.9z M30.4,97.5c-0.2,0-0.3,0-0.5-0.1c-0.1,0-0.2-0.1-0.3-0.1
			c-0.7-0.4-1-1.3-0.6-2c0.4-0.7,1.2-0.9,1.9-0.6c0.7,0.3,1.1,1.1,0.8,1.9C31.6,97.1,31,97.5,30.4,97.5z M69.8,97.4
			c-0.5,0-1-0.2-1.2-0.7c-0.5-0.7-0.3-1.6,0.4-2.1c0.1-0.1,0.2-0.1,0.4-0.2c0.8-0.3,1.6,0.2,1.9,0.9c0.2,0.7-0.1,1.5-0.8,1.8
			C70.2,97.4,70,97.4,69.8,97.4z M26.8,95.8c-0.2,0-0.5-0.1-0.7-0.2c-0.6-0.3-1-1.1-0.7-1.8c0.3-0.8,1.1-1.2,1.9-0.9
			c0.1,0,0.3,0.1,0.4,0.2c0.7,0.5,0.9,1.4,0.4,2.1C27.7,95.5,27.3,95.8,26.8,95.8z M73.4,95.7c-0.6,0-1.2-0.4-1.4-1
			c-0.2-0.7,0.1-1.5,0.7-1.8c0.7-0.4,1.5-0.2,2,0.5c0.5,0.7,0.3,1.6-0.4,2.1c-0.1,0.1-0.2,0.1-0.4,0.2
			C73.7,95.7,73.5,95.7,73.4,95.7z M23.3,93.8c-0.3,0-0.6-0.1-0.8-0.3c0,0-0.1-0.1-0.1-0.1c-0.6-0.5-0.8-1.5-0.2-2.1
			c0.5-0.6,1.4-0.7,2-0.3c0.7,0.5,0.8,1.4,0.4,2.1C24.3,93.5,23.8,93.8,23.3,93.8z M76.9,93.7c-0.5,0-1-0.2-1.2-0.7
			c-0.5-0.7-0.3-1.6,0.4-2.1c0.7-0.5,1.6-0.3,2.1,0.4c0.5,0.7,0.3,1.6-0.4,2.1l0,0C77.4,93.6,77.1,93.7,76.9,93.7z M20,91.5
			c-0.3,0-0.6-0.1-0.9-0.3c-0.6-0.5-0.8-1.4-0.4-2c0.5-0.7,1.4-0.9,2.1-0.4c0,0,0.1,0.1,0.1,0.1c0.6,0.5,0.8,1.5,0.2,2.1
			C20.9,91.3,20.4,91.5,20,91.5z M80.2,91.4c-0.4,0-0.8-0.1-1.1-0.4c-0.6-0.6-0.6-1.5,0-2.1c0.1-0.1,0.2-0.1,0.2-0.2
			c0.7-0.5,1.6-0.3,2.1,0.4c0.4,0.7,0.3,1.5-0.3,2C80.8,91.3,80.5,91.4,80.2,91.4z M16.9,88.9c-0.3,0-0.7-0.1-0.9-0.3
			c-0.1-0.1-0.2-0.1-0.2-0.2c-0.5-0.6-0.4-1.6,0.2-2.1c0.6-0.5,1.5-0.5,2,0.1c0.6,0.5,0.6,1.4,0.1,2C17.7,88.7,17.3,88.9,16.9,88.9z
			 M83.3,88.8c-0.3,0-0.6-0.1-0.8-0.3c-0.7-0.5-0.9-1.4-0.4-2.1c0.1-0.2,0.3-0.3,0.4-0.4c0.7-0.5,1.6-0.3,2.1,0.4
			c0.4,0.6,0.3,1.5-0.2,1.9C84,88.7,83.6,88.8,83.3,88.8z M14,86.1c-0.3,0-0.7-0.1-0.9-0.3c-0.1-0.1-0.2-0.2-0.3-0.3
			c-0.5-0.7-0.3-1.6,0.4-2.1c0.6-0.4,1.4-0.3,1.9,0.2c0.5,0.5,0.6,1.4,0.1,2C14.8,85.9,14.4,86.1,14,86.1z M86.2,86
			c-0.4,0-0.8-0.1-1.1-0.4c-0.6-0.6-0.6-1.5,0-2.1c0.6-0.6,1.5-0.6,2.1,0s0.6,1.5,0,2.1l0,0C86.9,85.9,86.5,86,86.2,86z M11.3,83.1
			c-0.4,0-0.9-0.2-1.2-0.5c-0.5-0.5-0.5-1.3,0-1.9c0.5-0.6,1.5-0.8,2.1-0.2c0.1,0.1,0.2,0.2,0.3,0.3c0.5,0.7,0.3,1.6-0.4,2.1
			C11.9,83,11.6,83.1,11.3,83.1z M88.8,83c-0.4,0-0.8-0.1-1.1-0.4c-0.5-0.5-0.6-1.4-0.1-2c0.5-0.6,1.4-0.8,2-0.3
			c0.7,0.5,0.9,1.4,0.4,2.1c-0.1,0.1-0.1,0.2-0.2,0.2C89.6,82.8,89.2,83,88.8,83z M8.9,79.9c-0.5,0-0.9-0.2-1.2-0.6
			c-0.5-0.6-0.4-1.4,0.1-2c0.6-0.6,1.5-0.6,2.1,0c0.1,0.1,0.1,0.2,0.2,0.2c0.5,0.7,0.3,1.6-0.4,2.1C9.5,79.8,9.2,79.9,8.9,79.9z
			 M91.2,79.8c-0.4,0-0.8-0.1-1.1-0.4c-0.5-0.5-0.6-1.4-0.1-2c0.5-0.6,1.4-0.8,2-0.3c0.7,0.5,0.9,1.4,0.4,2.1
			c-0.1,0.1-0.1,0.2-0.2,0.2C92,79.6,91.6,79.8,91.2,79.8z M6.7,76.5c-0.5,0-1-0.3-1.3-0.8c-0.4-0.7-0.2-1.5,0.5-2
			c0.7-0.5,1.6-0.3,2.1,0.4c0,0.1,0.1,0.1,0.1,0.2c0.4,0.7,0.1,1.6-0.7,2C7.2,76.5,6.9,76.5,6.7,76.5z M93.4,76.4
			c-0.2,0-0.3,0-0.5-0.1c-0.8-0.3-1.2-1.1-0.9-1.9c0-0.1,0.1-0.3,0.2-0.4c0.5-0.7,1.4-0.9,2.1-0.4c0.7,0.4,0.9,1.3,0.5,2
			C94.4,76.1,93.9,76.4,93.4,76.4z M4.8,73c-0.5,0-1.1-0.3-1.3-0.8l0,0c-0.4-0.7-0.1-1.6,0.7-2c0.7-0.4,1.6-0.1,2,0.7
			c0.4,0.7,0.1,1.6-0.7,2C5.3,72.9,5.1,73,4.8,73z M95.2,72.8c-0.3,0-0.6-0.1-0.8-0.3c-0.6-0.4-0.8-1.2-0.5-1.9
			c0.3-0.7,1.1-1,1.8-0.8c0.8,0.3,1.2,1.1,0.9,1.9c0,0.1-0.1,0.3-0.2,0.4C96.2,72.6,95.7,72.8,95.2,72.8z M96.8,69.1
			c-0.2,0-0.5-0.1-0.7-0.2c-0.7-0.4-1-1.2-0.7-1.9c0.3-0.7,1.1-1.1,1.9-0.9c0.8,0.3,1.2,1.1,0.9,1.9c0,0.1-0.1,0.1-0.1,0.2
			C97.9,68.8,97.4,69.1,96.8,69.1z M1.9,68.3c-0.3-0.8,0.1-1.6,0.9-1.9c0.8-0.3,1.6,0.1,1.9,0.9L1.9,68.3z M2,65.5
			c-0.6,0-1.2-0.4-1.4-1c0,0,0-0.1,0-0.1c-0.2-0.8,0.3-1.6,1.1-1.8c0.8-0.2,1.6,0.3,1.8,1c0.2,0.8-0.2,1.6-1,1.9
			C2.3,65.4,2.1,65.5,2,65.5z M98.1,65.3c-0.1,0-0.2,0-0.4,0c-0.8-0.2-1.3-1-1.1-1.8c0,0,0-0.1,0-0.1c0.3-0.8,1.1-1.2,1.9-0.9
			c0.8,0.3,1.2,1.1,1,1.9C99.3,64.8,98.7,65.3,98.1,65.3z M1,61.5c-0.7,0-1.3-0.5-1.5-1.2c-0.2-0.8,0.3-1.6,1.1-1.8
			c0.8-0.2,1.6,0.3,1.8,1.1c0,0,0,0.1,0,0.1c0.1,0.8-0.4,1.6-1.2,1.7C1.2,61.5,1.1,61.5,1,61.5z M99,61.4c-0.8,0-1.5-0.7-1.5-1.5
			c0-0.2,0-0.3,0.1-0.5c0.3-0.8,1.1-1.2,1.9-0.9c0.7,0.2,1.1,1,1,1.7C100.4,60.8,99.8,61.4,99,61.4z M0.4,57.6
			c-0.7,0-1.4-0.5-1.5-1.3c0-0.1,0-0.2,0-0.3c0-0.8,0.7-1.5,1.5-1.5c0.8,0,1.4,0.6,1.5,1.4c0.1,0.8-0.5,1.5-1.2,1.6
			C0.5,57.6,0.4,57.6,0.4,57.6z M99.7,57.4c-0.1,0-0.2,0-0.4,0c-0.7-0.2-1.2-0.9-1.1-1.6c0.1-0.8,0.7-1.3,1.5-1.3l0,0
			c0.8,0,1.5,0.7,1.5,1.5c0,0.1,0,0.3,0,0.4C100.9,56.9,100.3,57.4,99.7,57.4z M0,53.6c-0.8,0-1.5-0.6-1.5-1.4
			c0-0.8,0.5-1.5,1.3-1.6c0.8-0.1,1.6,0.5,1.7,1.3c0,0.1,0,0.1,0,0.2C1.5,52.9,0.9,53.6,0,53.6z M100,53.4c-0.8,0-1.5-0.7-1.5-1.5
			s0.7-1.5,1.5-1.5s1.5,0.7,1.5,1.5v0C101.5,52.7,100.8,53.4,100,53.4z M0,49.5L0,49.5c-0.8,0-1.5-0.7-1.5-1.5c0-0.1,0-0.1,0-0.2
			c0.1-0.8,0.8-1.4,1.7-1.3c0.8,0.1,1.4,0.8,1.3,1.6C1.5,48.9,0.8,49.5,0,49.5z M100,49.3c-0.8,0-1.5-0.7-1.5-1.5s0.7-1.5,1.5-1.5
			s1.5,0.7,1.5,1.5v0C101.5,48.7,100.8,49.3,100,49.3z M0.4,45.5c-0.1,0-0.2,0-0.2,0c-0.8-0.1-1.3-0.8-1.2-1.6
			c0.1-0.8,0.7-1.4,1.5-1.4c0.8,0,1.5,0.7,1.5,1.5c0,0.1,0,0.2,0,0.3C1.7,45,1.1,45.5,0.4,45.5z M99.6,45.3c-0.7,0-1.3-0.5-1.5-1.1
			c0-0.1,0-0.3,0-0.4c0-0.8,0.7-1.5,1.5-1.5c0.8,0,1.4,0.6,1.5,1.3c0.1,0.7-0.4,1.4-1.1,1.6C99.9,45.3,99.7,45.3,99.6,45.3z M1,41.6
			c-0.1,0-0.2,0-0.2,0c-0.8-0.1-1.4-0.9-1.2-1.7c0,0,0-0.1,0-0.1c0.2-0.8,1-1.3,1.8-1.1c0.8,0.2,1.3,1,1.1,1.8
			C2.3,41.1,1.7,41.6,1,41.6z M99,41.4c-0.7,0-1.3-0.5-1.5-1.2c-0.1-0.7,0.3-1.5,1-1.7c0.8-0.3,1.6,0.2,1.9,0.9
			c0.1,0.2,0.1,0.3,0.1,0.5C100.5,40.7,99.8,41.4,99,41.4z M2,37.7c-0.2,0-0.3,0-0.5-0.1c-0.8-0.3-1.2-1.1-1-1.9
			c0.2-0.8,1-1.2,1.8-1c0.8,0.2,1.3,1,1.1,1.8c0,0,0,0.1,0,0.1C3.2,37.3,2.6,37.7,2,37.7z M98,37.5c-0.7,0-1.2-0.4-1.4-1.1
			c-0.2-0.8,0.2-1.6,1-1.9c0.8-0.3,1.6,0.2,1.9,0.9c0,0,0,0.1,0,0.1c0.2,0.8-0.3,1.6-1.1,1.8C98.2,37.4,98.1,37.5,98,37.5z
			 M3.2,33.8c-0.2,0-0.3,0-0.5-0.1c-0.8-0.3-1.2-1.1-0.9-1.9c0,0,0,0,0-0.1C2.1,31,3,30.6,3.8,30.9c0.8,0.3,1.2,1.2,0.9,1.9
			C4.4,33.4,3.8,33.8,3.2,33.8z M96.7,33.6c-0.5,0-1.1-0.3-1.3-0.8c0-0.1-0.1-0.1-0.1-0.2c-0.3-0.8,0.2-1.6,0.9-1.9
			c0.8-0.3,1.6,0.1,1.9,0.9c0.3,0.7,0,1.6-0.7,1.9C97.2,33.6,96.9,33.6,96.7,33.6z M4.8,30.1c-0.2,0-0.5-0.1-0.7-0.2
			c-0.7-0.4-1-1.3-0.7-2l0,0c0.4-0.7,1.3-1,2-0.7c0.7,0.4,1,1.3,0.7,2C5.9,29.8,5.4,30.1,4.8,30.1z M95.1,30c-0.5,0-1-0.2-1.2-0.7
			c-0.1-0.1-0.1-0.2-0.2-0.4c-0.3-0.8,0.2-1.6,0.9-1.9c0.7-0.2,1.5,0.1,1.8,0.8c0.3,0.7,0.1,1.5-0.5,1.9C95.7,29.9,95.4,30,95.1,30z
			 M6.7,26.6c-0.2,0-0.5-0.1-0.7-0.2c-0.7-0.4-1-1.3-0.7-2c0-0.1,0.1-0.1,0.1-0.2c0.5-0.7,1.4-0.9,2.1-0.4c0.7,0.4,0.9,1.3,0.5,2
			C7.7,26.3,7.2,26.6,6.7,26.6z M93.2,26.4c-0.5,0-1.1-0.3-1.3-0.8c-0.4-0.7-0.2-1.5,0.5-2c0.7-0.5,1.6-0.3,2.1,0.4
			c0.1,0.1,0.1,0.2,0.2,0.4c0.3,0.8-0.2,1.6-0.9,1.9C93.6,26.4,93.4,26.4,93.2,26.4z M8.8,23.2c-0.3,0-0.6-0.1-0.8-0.3
			c-0.7-0.5-0.9-1.4-0.4-2.1c0.1-0.1,0.1-0.2,0.2-0.2c0.6-0.6,1.5-0.6,2.1,0c0.5,0.5,0.6,1.4,0.1,2C9.7,23,9.3,23.2,8.8,23.2z
			 M91.1,23c-0.4,0-0.8-0.1-1.1-0.4c-0.1-0.1-0.1-0.2-0.2-0.2c-0.5-0.7-0.3-1.6,0.4-2.1c0.7-0.4,1.5-0.3,2,0.3
			c0.5,0.6,0.4,1.4-0.1,2C91.8,22.9,91.5,23,91.1,23z M11.2,19.9c-0.3,0-0.6-0.1-0.8-0.3c-0.7-0.5-0.9-1.4-0.4-2.1
			c0.1-0.1,0.2-0.3,0.3-0.3c0.6-0.5,1.6-0.4,2.1,0.2c0.5,0.6,0.4,1.4,0,1.9C12.1,19.8,11.7,19.9,11.2,19.9z M88.6,19.8
			c-0.3,0-0.6-0.1-0.8-0.3c-0.2-0.1-0.3-0.3-0.4-0.4c-0.5-0.7-0.3-1.6,0.4-2.1c0.6-0.4,1.5-0.3,1.9,0.2c0.5,0.5,0.5,1.3,0.1,1.8
			C89.6,19.6,89.1,19.8,88.6,19.8z M13.9,16.9c-0.4,0-0.9-0.2-1.2-0.6c-0.5-0.6-0.4-1.5,0.1-2c0.5-0.5,1.3-0.6,1.9-0.2
			c0.7,0.5,0.9,1.4,0.4,2.1c-0.1,0.1-0.2,0.2-0.3,0.3C14.6,16.8,14.2,16.9,13.9,16.9z M86,16.8c-0.4,0-0.8-0.1-1.1-0.4
			c-0.6-0.6-0.6-1.5,0-2.1c0.6-0.6,1.5-0.6,2.1,0l0,0c0.6,0.6,0.6,1.5,0,2.1C86.7,16.7,86.3,16.8,86,16.8z M16.8,14.1
			c-0.4,0-0.9-0.2-1.2-0.6c-0.5-0.6-0.4-1.5,0.1-2c0.5-0.5,1.4-0.6,2-0.1c0.6,0.5,0.7,1.5,0.2,2.1c-0.1,0.1-0.1,0.2-0.2,0.2
			C17.5,14,17.1,14.1,16.8,14.1z M83.1,14c-0.4,0-0.7-0.1-1-0.4c-0.5-0.5-0.7-1.3-0.2-1.9c0.5-0.7,1.4-0.9,2.1-0.4
			c0.2,0.1,0.3,0.3,0.4,0.4c0.5,0.7,0.3,1.6-0.4,2.1C83.6,13.9,83.3,14,83.1,14z M19.9,11.6c-0.4,0-0.9-0.2-1.2-0.6
			c-0.5-0.6-0.4-1.6,0.2-2.1c0,0,0.1-0.1,0.1-0.1c0.7-0.5,1.6-0.3,2.1,0.4c0.4,0.7,0.3,1.6-0.4,2C20.6,11.5,20.2,11.6,19.9,11.6z
			 M79.9,11.5c-0.3,0-0.6-0.1-0.9-0.3c-0.6-0.5-0.8-1.4-0.3-2c0.5-0.7,1.4-0.9,2.1-0.4c0.1,0.1,0.2,0.1,0.2,0.2
			c0.6,0.6,0.6,1.5,0,2.1C80.7,11.3,80.3,11.5,79.9,11.5z M23.2,9.3c-0.5,0-1-0.2-1.2-0.7c-0.5-0.7-0.3-1.6,0.4-2.1
			c0.6-0.5,1.5-0.3,2,0.3c0.5,0.6,0.4,1.6-0.2,2.1c0,0-0.1,0.1-0.1,0.1C23.8,9.2,23.5,9.3,23.2,9.3z M76.6,9.2c-0.2,0-0.3,0-0.5-0.1
			c-0.1,0-0.3-0.1-0.4-0.2c-0.7-0.5-0.9-1.4-0.4-2.1c0.4-0.7,1.3-0.9,2-0.5c0.6,0.3,1,1.1,0.7,1.8C77.8,8.8,77.3,9.2,76.6,9.2z
			 M26.7,7.3c-0.5,0-1-0.2-1.2-0.7C25,5.9,25.2,5,25.9,4.5c0.1-0.1,0.2-0.1,0.4-0.2c0.8-0.3,1.6,0.2,1.9,0.9C28.4,6,28,6.8,27.4,7.1
			C27.2,7.2,26.9,7.3,26.7,7.3z M73.1,7.2c-0.2,0-0.3,0-0.5-0.1c-0.1,0-0.3-0.1-0.4-0.2c-0.7-0.5-0.9-1.4-0.4-2.1
			c0.4-0.7,1.3-0.9,2-0.5c0.6,0.3,1,1.1,0.7,1.8C74.4,6.8,73.8,7.2,73.1,7.2z M30.3,5.5c-0.6,0-1.2-0.4-1.4-1
			C28.7,3.8,29,3,29.7,2.7c0.7-0.3,1.5,0,1.9,0.6c0.4,0.7,0.2,1.6-0.6,2c-0.1,0-0.2,0.1-0.3,0.1C30.6,5.5,30.5,5.5,30.3,5.5z
			 M69.5,5.5c-0.2,0-0.4,0-0.6-0.1c-0.7-0.3-1-1.1-0.8-1.8c0.3-0.8,1.1-1.2,1.9-0.9c0.1,0,0.3,0.1,0.4,0.2c0.7,0.5,0.9,1.4,0.4,2.1
			C70.5,5.2,70,5.5,69.5,5.5z M34.1,4.1c-0.6,0-1.2-0.4-1.4-1.1c-0.2-0.8,0.2-1.6,1-1.9c0,0,0.1,0,0.1,0c0.8-0.2,1.6,0.2,1.9,1
			c0.2,0.8-0.2,1.6-1,1.9C34.4,4.1,34.2,4.1,34.1,4.1z M65.7,4c-0.1,0-0.2,0-0.4,0c0,0-0.1,0-0.1,0c-0.8-0.3-1.2-1.1-0.9-1.9
			c0.3-0.8,1.1-1.2,1.9-1c0.8,0.2,1.2,1,1,1.8C67,3.6,66.4,4,65.7,4z M37.9,3c-0.7,0-1.3-0.4-1.4-1.1c-0.2-0.8,0.2-1.6,1-1.9
			C37.7,0,37.8,0,38,0c0.8,0,1.5,0.7,1.5,1.5c0,0.7-0.5,1.4-1.2,1.5C38.1,3,38,3,37.9,3z M61.9,2.9c-0.2,0-0.3,0-0.5-0.1
			c-0.8-0.3-1.2-1.1-0.9-1.9c0.2-0.7,1-1.1,1.7-1c0.7,0.1,1.2,0.7,1.2,1.5C63.4,2.2,62.7,2.9,61.9,2.9z M41.9,2.2
			c-0.7,0-1.3-0.4-1.4-1.1c-0.2-0.8,0.2-1.6,1-1.9c0.1,0,0.3-0.1,0.4-0.1c0.8,0,1.5,0.7,1.5,1.5c0,0.7-0.5,1.4-1.2,1.5
			C42.1,2.2,42,2.2,41.9,2.2z M57.9,2.1c-0.2,0-0.3,0-0.5-0.1c-0.8-0.3-1.2-1.1-0.9-1.9c0.2-0.7,1-1.1,1.7-1
			c0.7,0.1,1.2,0.7,1.2,1.5C59.4,1.5,58.8,2.1,57.9,2.1z M45.9,1.7c-0.8,0-1.5-0.7-1.5-1.5c0-0.8,0.6-1.4,1.3-1.5
			c0.7-0.1,1.4,0.4,1.6,1.1c0.2,0.8-0.2,1.6-1,1.9C46.2,1.6,46,1.7,45.9,1.7z M53.9,1.7c-0.1,0-0.1,0-0.2,0
			c-0.8-0.1-1.3-0.7-1.3-1.5c0-0.8,0.7-1.5,1.5-1.5c0.1,0,0.3,0,0.4,0c0.8,0.2,1.3,1,1.1,1.8C55.2,1.2,54.6,1.7,53.9,1.7z M49.9,1.5
			c-0.8,0-1.5-0.7-1.5-1.5s0.7-1.5,1.5-1.5h0c0.8,0,1.5,0.7,1.5,1.5S50.7,1.5,49.9,1.5z"/>
		<path d="M50,97.3L50,97.3c-0.8,0-1.5-0.7-1.5-1.5c0-0.9,0.7-1.6,1.6-1.5c0.9-0.1,1.6,0.6,1.6,1.5c0,0.8-0.7,1.5-1.5,1.5h0
			c0,0-0.1,0-0.1,0C50.1,97.3,50,97.3,50,97.3z M46,97.2c-0.2,0-0.3,0-0.5-0.1c-0.8-0.3-1.2-1.1-0.9-1.9c0.2-0.7,0.9-1.1,1.6-1
			c0.7,0.1,1.3,0.7,1.3,1.5C47.5,96.5,46.8,97.2,46,97.2z M54.2,97.1c-0.7,0-1.3-0.5-1.5-1.1c-0.2-0.8,0.3-1.6,1.1-1.8
			c0.9-0.2,1.9,0.5,1.9,1.5c0,0.8-0.6,1.4-1.3,1.5C54.3,97.1,54.2,97.1,54.2,97.1z M42,96.6c-0.1,0-0.2,0-0.3,0
			c-0.7-0.1-1.2-0.7-1.2-1.5c0-0.8,0.7-1.5,1.5-1.5c0.1,0,0.3,0,0.4,0.1c0.8,0.2,1.3,1.1,1,1.9C43.3,96.2,42.7,96.6,42,96.6z
			 M58.1,96.6c-0.8,0-1.5-0.7-1.5-1.5c0-0.7,0.5-1.3,1.2-1.5c0.7-0.1,1.5,0.3,1.7,1c0.3,0.8-0.2,1.6-0.9,1.9
			C58.5,96.6,58.3,96.6,58.1,96.6z M38.1,95.8c-0.1,0-0.3,0-0.4-0.1c0,0-0.1,0-0.1,0c-0.8-0.3-1.2-1.1-0.9-1.9
			c0.3-0.8,1.1-1.2,1.9-0.9c0.8,0.3,1.2,1.1,1,1.9C39.4,95.4,38.8,95.8,38.1,95.8z M62,95.7c-0.7,0-1.3-0.5-1.5-1.1
			c-0.2-0.8,0.3-1.6,1-1.8c0.8-0.2,1.6,0.2,1.9,1c0.3,0.8-0.2,1.6-0.9,1.9c0,0-0.1,0-0.1,0C62.3,95.7,62.1,95.7,62,95.7z M34.3,94.6
			c-0.2,0-0.3,0-0.5-0.1c-0.1,0-0.2-0.1-0.3-0.1c-0.7-0.4-1-1.3-0.6-2c0.4-0.7,1.2-0.9,1.9-0.6c0.7,0.3,1.1,1.1,0.8,1.9
			C35.6,94.2,35,94.6,34.3,94.6z M65.8,94.5c-0.5,0-1.1-0.3-1.3-0.8c-0.4-0.7-0.1-1.6,0.7-2c0.1,0,0.1-0.1,0.2-0.1
			c0.8-0.3,1.6,0.2,1.9,0.9c0.3,0.8-0.1,1.6-0.9,1.9C66.2,94.5,66,94.5,65.8,94.5z M30.6,93c-0.2,0-0.3,0-0.5-0.1
			c-0.1,0-0.2-0.1-0.3-0.1c-0.7-0.4-1-1.3-0.6-2c0.4-0.7,1.2-0.9,1.9-0.6c0.7,0.3,1.1,1.1,0.8,1.9C31.9,92.6,31.3,93,30.6,93z
			 M69.5,93c-0.5,0-1-0.2-1.2-0.7c-0.5-0.7-0.3-1.6,0.4-2.1c0.1-0.1,0.2-0.1,0.4-0.2c0.8-0.3,1.6,0.2,1.9,0.9
			c0.2,0.7-0.1,1.5-0.8,1.8C69.9,92.9,69.7,93,69.5,93z M27.1,91.2c-0.2,0-0.5-0.1-0.7-0.2c-0.6-0.3-1-1.1-0.7-1.8
			c0.3-0.8,1.1-1.2,1.9-0.9c0.1,0,0.3,0.1,0.4,0.2c0.7,0.5,0.9,1.4,0.4,2.1C28.1,91,27.6,91.2,27.1,91.2z M73.1,91.1
			c-0.6,0-1.2-0.4-1.4-1c-0.2-0.7,0.1-1.5,0.7-1.8c0.7-0.4,1.5-0.2,2,0.5c0.5,0.7,0.3,1.6-0.4,2.1c-0.1,0.1-0.2,0.1-0.4,0.2
			C73.4,91.1,73.2,91.1,73.1,91.1z M23.7,89c-0.3,0-0.6-0.1-0.8-0.3c0,0-0.1-0.1-0.1-0.1c-0.6-0.5-0.8-1.5-0.2-2.1
			c0.5-0.6,1.4-0.7,2-0.3c0.7,0.5,0.8,1.4,0.4,2.1C24.7,88.8,24.2,89,23.7,89z M76.4,88.9c-0.4,0-0.8-0.1-1.1-0.4
			c-0.6-0.6-0.6-1.5,0-2.1c0.1-0.1,0.2-0.1,0.2-0.2c0.7-0.5,1.6-0.3,2.1,0.4c0.4,0.7,0.3,1.5-0.3,2C77.1,88.8,76.7,88.9,76.4,88.9z
			 M20.6,86.6c-0.3,0-0.7-0.1-0.9-0.3c0,0-0.1-0.1-0.1-0.1c-0.6-0.6-0.6-1.5,0-2.1c0.6-0.6,1.5-0.6,2.1-0.1c0.6,0.5,0.7,1.4,0.2,2.1
			C21.4,86.4,21,86.6,20.6,86.6z M79.6,86.5c-0.3,0-0.6-0.1-0.8-0.3c-0.7-0.5-0.9-1.4-0.4-2.1c0.1-0.2,0.3-0.3,0.4-0.4
			c0.7-0.5,1.6-0.3,2.1,0.4c0.4,0.6,0.3,1.5-0.2,1.9C80.3,86.4,79.9,86.5,79.6,86.5z M17.6,83.9c-0.3,0-0.7-0.1-0.9-0.3
			c-0.1-0.1-0.2-0.2-0.3-0.3c-0.5-0.7-0.3-1.6,0.4-2.1c0.6-0.4,1.4-0.3,1.9,0.2c0.5,0.5,0.6,1.4,0.1,2
			C18.5,83.7,18.1,83.9,17.6,83.9z M82.5,83.8c-0.4,0-0.8-0.1-1.1-0.4c-0.6-0.6-0.6-1.5,0-2.1s1.5-0.6,2.1,0c0.6,0.6,0.6,1.5,0,2.1
			l0,0C83.3,83.6,82.9,83.8,82.5,83.8z M14.9,81c-0.4,0-0.9-0.2-1.2-0.5c-0.5-0.5-0.5-1.3,0-1.9c0.5-0.6,1.5-0.8,2.1-0.2
			c0.1,0.1,0.2,0.2,0.3,0.3c0.5,0.7,0.3,1.6-0.4,2.1C15.5,80.9,15.2,81,14.9,81z M85.2,80.8c-0.5,0-1-0.2-1.2-0.7
			c-0.4-0.6-0.3-1.3,0.1-1.8c0.5-0.5,1.3-0.7,1.9-0.2c0.7,0.5,0.9,1.4,0.4,2.1c-0.1,0.2-0.3,0.3-0.4,0.4
			C85.8,80.8,85.5,80.8,85.2,80.8z M12.5,77.8c-0.5,0-0.9-0.2-1.2-0.6c-0.5-0.6-0.4-1.4,0.1-2c0.6-0.6,1.5-0.6,2.1,0
			c0.1,0.1,0.1,0.2,0.2,0.2c0.5,0.7,0.3,1.6-0.4,2.1C13.1,77.7,12.8,77.8,12.5,77.8z M87.6,77.7c-0.4,0-0.8-0.1-1.1-0.4
			c-0.5-0.5-0.6-1.4-0.1-2c0.5-0.6,1.4-0.8,2-0.3c0.7,0.5,0.9,1.4,0.4,2.1c-0.1,0.1-0.1,0.2-0.2,0.2C88.4,77.5,88,77.7,87.6,77.7z
			 M10.3,74.4c-0.5,0-1-0.3-1.3-0.8c-0.4-0.7-0.2-1.5,0.5-2c0.7-0.5,1.6-0.3,2.1,0.4c0,0.1,0.1,0.1,0.1,0.2c0.4,0.7,0.1,1.6-0.7,2
			C10.8,74.4,10.6,74.4,10.3,74.4z M89.8,74.3c-0.2,0-0.3,0-0.5-0.1c-0.8-0.3-1.2-1.1-0.9-1.9c0-0.1,0.1-0.3,0.2-0.4
			c0.5-0.7,1.4-0.9,2.1-0.4c0.7,0.4,0.9,1.3,0.5,2C90.8,74,90.3,74.3,89.8,74.3z M8.5,70.9c-0.5,0-1.1-0.3-1.3-0.8l0,0
			c-0.4-0.7-0.1-1.6,0.7-2c0.7-0.4,1.6-0.1,2,0.7c0.4,0.7,0.1,1.6-0.7,2C8.9,70.8,8.7,70.9,8.5,70.9z M91.6,70.7
			c-0.3,0-0.6-0.1-0.8-0.3c-0.6-0.4-0.8-1.2-0.5-1.9c0.3-0.7,1.1-1,1.8-0.8c0.8,0.3,1.2,1.1,0.9,1.9c0,0.1-0.1,0.3-0.2,0.4
			C92.6,70.5,92.1,70.7,91.6,70.7z M93.1,67c-0.1,0-0.2,0-0.4,0c-0.8-0.2-1.3-1-1.1-1.8c0,0,0-0.1,0-0.1c0.3-0.8,1.1-1.2,1.9-0.9
			c0.8,0.3,1.2,1.1,1,1.9C94.4,66.6,93.8,67,93.1,67z M5.5,66.2c-0.3-0.8,0.1-1.6,0.9-1.9C7.2,64,8,64.4,8.3,65.2L5.5,66.2z
			 M5.7,63.4c-0.6,0-1.2-0.4-1.4-1c0-0.1-0.1-0.2-0.1-0.3c-0.1-0.8,0.5-1.6,1.3-1.7c0.8-0.1,1.5,0.4,1.6,1.1c0.2,0.8-0.2,1.5-1,1.8
			C6,63.4,5.9,63.4,5.7,63.4z M94.3,63.2c-0.1,0-0.2,0-0.4,0c-0.8-0.2-1.3-1-1.1-1.8c0,0,0-0.1,0-0.1c0.3-0.8,1.1-1.2,1.9-0.9
			c0.8,0.3,1.2,1.1,1,1.9C95.6,62.8,95,63.2,94.3,63.2z M4.9,59.5c-0.7,0-1.3-0.5-1.5-1.2c-0.2-0.8,0.3-1.6,1.1-1.8
			c0.8-0.2,1.6,0.3,1.8,1.1c0,0,0,0.1,0,0.1c0.1,0.8-0.4,1.6-1.2,1.7C5,59.5,4.9,59.5,4.9,59.5z M95.2,59.3c-0.8,0-1.5-0.7-1.5-1.5
			c0-0.2,0-0.3,0.1-0.5c0.3-0.8,1.1-1.2,1.9-0.9c0.7,0.2,1.1,1,1,1.7C96.5,58.8,95.9,59.3,95.2,59.3z M4.3,55.5
			c-0.7,0-1.4-0.5-1.5-1.3c0-0.1,0-0.2,0-0.3c0-0.8,0.7-1.5,1.5-1.5c0.8,0,1.4,0.6,1.5,1.4c0.1,0.8-0.5,1.5-1.2,1.6
			C4.5,55.5,4.4,55.5,4.3,55.5z M95.7,55.4c-0.1,0-0.2,0-0.4,0c-0.7-0.2-1.2-0.9-1.1-1.6c0.1-0.8,0.7-1.3,1.5-1.3l0,0
			c0.8,0,1.5,0.7,1.5,1.5c0,0.1,0,0.3,0,0.4C97,54.9,96.3,55.4,95.7,55.4z M4.2,51.5c-0.8,0-1.5-0.7-1.5-1.5v0
			c0-0.8,0.7-1.5,1.5-1.5s1.5,0.7,1.5,1.5S5,51.5,4.2,51.5z M95.8,51.4c-0.8,0-1.5-0.7-1.5-1.5s0.7-1.5,1.5-1.5s1.5,0.7,1.5,1.5v0
			C97.3,50.7,96.7,51.4,95.8,51.4z M4.3,47.6c-0.1,0-0.2,0-0.2,0c-0.8-0.1-1.3-0.8-1.2-1.6c0.1-0.8,0.7-1.4,1.5-1.4
			c0.8,0,1.5,0.7,1.5,1.5c0,0.1,0,0.2,0,0.3C5.7,47,5.1,47.6,4.3,47.6z M95.6,47.4c-0.7,0-1.3-0.5-1.5-1.1c0-0.1,0-0.3,0-0.4
			c0-0.8,0.7-1.5,1.5-1.5c0.8,0,1.4,0.6,1.5,1.3c0.1,0.7-0.4,1.4-1.1,1.6C95.9,47.4,95.8,47.4,95.6,47.4z M4.8,43.6
			c-0.1,0-0.2,0-0.2,0c-0.8-0.1-1.4-0.9-1.2-1.7c0,0,0-0.1,0-0.1c0.2-0.8,1-1.3,1.8-1.1c0.8,0.2,1.3,1,1.1,1.8
			C6.2,43.1,5.6,43.6,4.8,43.6z M95.1,43.4c-0.7,0-1.3-0.5-1.5-1.2c-0.1-0.7,0.3-1.5,1-1.7c0.8-0.3,1.6,0.2,1.9,0.9
			c0.1,0.2,0.1,0.3,0.1,0.5C96.6,42.7,95.9,43.4,95.1,43.4z M5.7,39.7c-0.2,0-0.3,0-0.5-0.1c-0.7-0.2-1.2-1-1-1.8
			c0.2-0.7,0.9-1.2,1.6-1.1c0.8,0.1,1.4,0.9,1.3,1.7c0,0.1,0,0.2-0.1,0.3C6.9,39.3,6.3,39.7,5.7,39.7z M94.2,39.5
			c-0.7,0-1.2-0.4-1.4-1.1c-0.2-0.8,0.2-1.6,1-1.9c0.8-0.3,1.6,0.2,1.9,0.9c0,0,0,0.1,0,0.1c0.2,0.8-0.3,1.6-1.1,1.8
			C94.5,39.5,94.4,39.5,94.2,39.5z M6.9,35.9c-0.2,0-0.3,0-0.5-0.1c-0.8-0.3-1.2-1.1-0.9-1.9c0,0,0,0,0-0.1c0.3-0.8,1.2-1.2,1.9-0.9
			s1.2,1.2,0.9,1.9C8.1,35.5,7.5,35.9,6.9,35.9z M93,35.7c-0.5,0-1.1-0.3-1.3-0.8c0-0.1-0.1-0.1-0.1-0.2c-0.3-0.8,0.2-1.6,0.9-1.9
			c0.8-0.3,1.6,0.1,1.9,0.9c0.3,0.7,0,1.6-0.7,1.9C93.5,35.7,93.3,35.7,93,35.7z M8.4,32.2c-0.2,0-0.5-0.1-0.7-0.2
			c-0.7-0.4-1-1.3-0.7-2l0,0c0.4-0.7,1.3-1,2-0.7c0.7,0.4,1,1.3,0.7,2C9.5,31.9,9,32.2,8.4,32.2z M91.5,32c-0.5,0-1-0.2-1.2-0.7
			c-0.1-0.1-0.1-0.2-0.2-0.4c-0.3-0.8,0.2-1.6,0.9-1.9c0.7-0.2,1.5,0.1,1.8,0.8c0.3,0.7,0.1,1.5-0.5,1.9C92.1,31.9,91.8,32,91.5,32z
			 M10.3,28.6c-0.2,0-0.5-0.1-0.7-0.2c-0.7-0.4-1-1.3-0.7-2C9,26.4,9,26.4,9,26.3c0.5-0.7,1.4-0.9,2.1-0.4c0.7,0.4,0.9,1.3,0.5,2
			C11.3,28.4,10.8,28.6,10.3,28.6z M89.6,28.5c-0.5,0-1.1-0.3-1.3-0.8c-0.4-0.7-0.2-1.5,0.5-2c0.7-0.5,1.6-0.3,2.1,0.4
			c0.1,0.1,0.1,0.2,0.2,0.4c0.3,0.8-0.2,1.6-0.9,1.9C89.9,28.5,89.8,28.5,89.6,28.5z M12.4,25.3c-0.3,0-0.6-0.1-0.8-0.3
			c-0.7-0.5-0.9-1.4-0.4-2.1c0.1-0.1,0.1-0.2,0.2-0.2c0.6-0.6,1.5-0.6,2.1,0c0.5,0.5,0.6,1.4,0.1,2C13.3,25.1,12.9,25.3,12.4,25.3z
			 M87.5,25.1c-0.4,0-0.8-0.1-1.1-0.4c-0.1-0.1-0.1-0.2-0.2-0.2c-0.5-0.7-0.3-1.6,0.4-2.1c0.7-0.4,1.5-0.3,2,0.3
			c0.5,0.6,0.4,1.4-0.1,2C88.2,25,87.9,25.1,87.5,25.1z M14.9,22.1c-0.3,0-0.6-0.1-0.8-0.3c-0.7-0.5-0.9-1.4-0.4-2.1
			c0.1-0.1,0.2-0.3,0.3-0.3c0.6-0.5,1.6-0.4,2.1,0.2c0.5,0.6,0.4,1.4,0,1.9C15.7,21.9,15.3,22.1,14.9,22.1z M85,22
			c-0.3,0-0.6-0.1-0.8-0.3c-0.2-0.1-0.3-0.3-0.4-0.4c-0.5-0.7-0.3-1.6,0.4-2.1c0.6-0.4,1.5-0.3,1.9,0.2c0.5,0.5,0.5,1.3,0.1,1.8
			C86,21.7,85.5,22,85,22z M17.6,19.2c-0.4,0-0.9-0.2-1.2-0.6c-0.5-0.6-0.4-1.5,0.1-2c0.5-0.5,1.3-0.6,1.9-0.2
			c0.7,0.5,0.9,1.4,0.4,2.1c-0.1,0.1-0.2,0.2-0.3,0.3C18.2,19,17.9,19.2,17.6,19.2z M82.3,19c-0.4,0-0.8-0.1-1.1-0.4
			c-0.6-0.6-0.6-1.5,0-2.1c0.6-0.6,1.5-0.6,2.1,0l0,0c0.6,0.6,0.6,1.5,0,2.1C83.1,18.9,82.7,19,82.3,19z M20.5,16.4
			c-0.4,0-0.9-0.2-1.2-0.6c-0.5-0.6-0.4-1.5,0.2-2.1c0.6-0.5,1.5-0.5,2.1,0.1c0.6,0.6,0.6,1.5,0,2.1c0,0-0.1,0.1-0.1,0.1
			C21.2,16.3,20.8,16.4,20.5,16.4z M79.4,16.3c-0.4,0-0.7-0.1-1-0.4c-0.5-0.5-0.7-1.3-0.2-1.9c0.5-0.7,1.4-0.9,2.1-0.4
			c0.2,0.1,0.3,0.3,0.4,0.4c0.5,0.7,0.3,1.6-0.4,2.1C79.9,16.3,79.7,16.3,79.4,16.3z M23.7,14c-0.5,0-1-0.2-1.2-0.7
			c-0.5-0.7-0.3-1.6,0.4-2.1c0.6-0.5,1.5-0.3,2,0.3c0.5,0.6,0.4,1.6-0.2,2.1c0,0-0.1,0.1-0.1,0.1C24.2,13.9,23.9,14,23.7,14z
			 M76.2,13.9c-0.3,0-0.7-0.1-0.9-0.3c-0.6-0.5-0.8-1.4-0.3-2c0.5-0.7,1.4-0.9,2.1-0.4c0.1,0.1,0.2,0.1,0.2,0.2
			c0.6,0.6,0.6,1.5,0,2.1C77,13.8,76.6,13.9,76.2,13.9z M27,11.9c-0.5,0-1-0.2-1.2-0.7c-0.5-0.7-0.3-1.6,0.4-2.1
			C26.3,9,26.4,9,26.6,8.9c0.8-0.3,1.6,0.2,1.9,0.9c0.2,0.7-0.1,1.5-0.7,1.8C27.5,11.8,27.3,11.9,27,11.9z M72.8,11.8
			c-0.2,0-0.3,0-0.5-0.1c-0.1,0-0.3-0.1-0.4-0.2c-0.7-0.5-0.9-1.4-0.4-2.1c0.4-0.7,1.3-0.9,2-0.5c0.6,0.3,1,1.1,0.7,1.8
			C74,11.4,73.5,11.8,72.8,11.8z M30.6,10c-0.6,0-1.2-0.4-1.4-1c-0.2-0.7,0.1-1.5,0.8-1.8c0.7-0.3,1.5-0.1,1.9,0.5
			c0.5,0.7,0.3,1.6-0.4,2.1c-0.1,0.1-0.2,0.1-0.4,0.2C30.9,10,30.7,10,30.6,10z M69.3,9.9c-0.2,0-0.4,0-0.6-0.1
			c-0.7-0.3-1-1.1-0.8-1.8C68.1,7.2,69,6.7,69.7,7c0.1,0,0.3,0.1,0.4,0.2c0.7,0.5,0.9,1.4,0.4,2.1C70.2,9.7,69.8,9.9,69.3,9.9z
			 M34.2,8.5c-0.6,0-1.2-0.4-1.4-1c-0.2-0.7,0.1-1.6,0.8-1.9c0.7-0.3,1.5,0,1.9,0.6c0.4,0.7,0.2,1.6-0.6,2c-0.1,0-0.2,0.1-0.3,0.1
			C34.6,8.4,34.4,8.5,34.2,8.5z M65.6,8.4c-0.1,0-0.2,0-0.4,0c0,0-0.1,0-0.1,0c-0.8-0.3-1.2-1.1-0.9-1.9c0.3-0.8,1.1-1.2,1.9-1
			c0.8,0.2,1.2,1,1,1.8C66.9,7.9,66.3,8.4,65.6,8.4z M61.8,7.2c-0.1,0-0.2,0-0.4,0c0,0-0.1,0-0.1,0c-0.8-0.3-1.2-1.1-0.9-1.9
			c0.3-0.8,1.1-1.2,1.9-1c0.8,0.2,1.2,1,1,1.8C63.1,6.7,62.4,7.2,61.8,7.2z M38.5,7.2l-0.9-2.8c0.8-0.3,1.6,0.2,1.9,0.9
			C39.7,6.1,39.3,6.9,38.5,7.2z M42,6.4c-0.7,0-1.3-0.4-1.4-1.1c-0.2-0.8,0.2-1.6,1-1.9c0.1,0,0.3-0.1,0.4-0.1
			c0.8,0,1.5,0.7,1.5,1.5c0,0.7-0.5,1.4-1.2,1.5C42.1,6.4,42,6.4,42,6.4z M57.9,6.3c-0.2,0-0.3,0-0.5-0.1c-0.8-0.3-1.2-1.1-0.9-1.9
			c0.2-0.7,1-1.1,1.7-1c0.7,0.1,1.2,0.7,1.2,1.5C59.4,5.7,58.7,6.3,57.9,6.3z M45.9,5.8c-0.8,0-1.5-0.7-1.5-1.5
			c0-0.8,0.6-1.4,1.3-1.5c0.7-0.1,1.4,0.3,1.6,1c0.3,0.8-0.2,1.6-0.9,1.9C46.2,5.8,46.1,5.8,45.9,5.8z M53.9,5.8c-0.1,0-0.1,0-0.2,0
			c-0.8-0.1-1.3-0.7-1.3-1.5c0-0.8,0.7-1.5,1.5-1.5c0.1,0,0.3,0,0.4,0c0.8,0.2,1.3,1,1.1,1.8C55.2,5.4,54.6,5.8,53.9,5.8z M49.9,5.7
			c-0.8,0-1.5-0.7-1.5-1.5s0.7-1.5,1.5-1.5h0c0.8,0,1.5,0.7,1.5,1.5S50.7,5.7,49.9,5.7z"/>
		<path d="M50,93.2L50,93.2c-0.8,0-1.5-0.7-1.5-1.5c0-0.9,0.7-1.5,1.6-1.5c0.9,0,1.6,0.6,1.6,1.5c0,0.8-0.7,1.5-1.5,1.5h0
			C50.1,93.2,50.1,93.2,50,93.2C50.1,93.2,50,93.2,50,93.2z M46,93c-0.2,0-0.3,0-0.5-0.1c-0.8-0.3-1.2-1.1-0.9-1.9
			c0.2-0.7,0.9-1.1,1.6-1c0.7,0.1,1.3,0.7,1.3,1.5C47.5,92.3,46.8,93,46,93z M54.2,93c-0.7,0-1.3-0.5-1.5-1.1
			C52.5,91,53,90.2,53.8,90c0.9-0.2,1.9,0.5,1.9,1.5c0,0.8-0.6,1.4-1.3,1.5C54.3,93,54.2,93,54.2,93z M42,92.4c-0.1,0-0.2,0-0.3,0
			c-0.7-0.1-1.2-0.7-1.2-1.5c0-0.8,0.7-1.5,1.5-1.5c0.1,0,0.3,0,0.4,0.1c0.8,0.2,1.3,1.1,1,1.9C43.3,92,42.7,92.4,42,92.4z
			 M58.2,92.4c-0.8,0-1.5-0.7-1.5-1.5c0-0.7,0.5-1.3,1.2-1.5c0.7-0.1,1.5,0.3,1.7,1c0.3,0.8-0.2,1.6-0.9,1.9
			C58.5,92.3,58.3,92.4,58.2,92.4z M38.1,91.4c-0.1,0-0.3,0-0.4-0.1c0,0-0.1,0-0.1,0c-0.8-0.3-1.2-1.1-0.9-1.9
			c0.3-0.8,1.1-1.2,1.9-0.9c0.8,0.3,1.2,1.1,1,1.9C39.3,91,38.7,91.4,38.1,91.4z M62.1,91.4c-0.7,0-1.3-0.5-1.5-1.1
			c-0.2-0.8,0.3-1.6,1-1.8c0.8-0.2,1.6,0.2,1.9,1c0.3,0.8-0.2,1.6-0.9,1.9c0,0-0.1,0-0.1,0C62.3,91.4,62.2,91.4,62.1,91.4z
			 M34.3,90.1c-0.2,0-0.3,0-0.5-0.1c-0.1,0-0.2-0.1-0.3-0.1c-0.7-0.4-1-1.3-0.6-2c0.4-0.7,1.2-0.9,1.9-0.6c0.7,0.3,1.1,1.1,0.8,1.9
			C35.5,89.7,34.9,90.1,34.3,90.1z M65.8,90c-0.5,0-1-0.2-1.2-0.7c-0.5-0.7-0.3-1.6,0.4-2.1c0.1-0.1,0.2-0.1,0.4-0.2
			c0.8-0.3,1.6,0.2,1.9,0.9c0.2,0.7-0.1,1.5-0.8,1.8C66.3,90,66.1,90,65.8,90z M30.7,88.4c-0.2,0-0.5-0.1-0.7-0.2
			c-0.6-0.3-1-1.1-0.7-1.8c0.3-0.8,1.1-1.2,1.9-0.9c0.1,0,0.3,0.1,0.4,0.2c0.7,0.5,0.9,1.4,0.4,2.1C31.6,88.2,31.1,88.4,30.7,88.4z
			 M69.5,88.3c-0.6,0-1.2-0.4-1.4-1c-0.2-0.7,0.1-1.5,0.7-1.8c0.7-0.4,1.5-0.2,2,0.5c0.5,0.7,0.3,1.6-0.4,2.1
			c-0.1,0.1-0.2,0.1-0.4,0.2C69.8,88.3,69.6,88.3,69.5,88.3z M27.2,86.4c-0.3,0-0.6-0.1-0.8-0.3c0,0-0.1-0.1-0.1-0.1
			c-0.6-0.5-0.8-1.5-0.2-2.1c0.5-0.6,1.4-0.7,2-0.3c0.7,0.5,0.8,1.4,0.4,2.1C28.1,86.1,27.7,86.4,27.2,86.4z M72.9,86.3
			c-0.5,0-1-0.2-1.2-0.7c-0.5-0.7-0.3-1.6,0.4-2.1c0.7-0.5,1.6-0.3,2.1,0.4c0.5,0.7,0.3,1.6-0.4,2.1l0,0
			C73.5,86.2,73.2,86.3,72.9,86.3z M23.9,84c-0.3,0-0.6-0.1-0.9-0.3c-0.6-0.5-0.8-1.4-0.4-2c0.5-0.7,1.4-0.9,2.1-0.4
			c0,0,0.1,0.1,0.1,0.1c0.6,0.5,0.8,1.5,0.2,2.1C24.8,83.8,24.4,84,23.9,84z M76.2,83.9c-0.4,0-0.8-0.1-1.1-0.4
			c-0.6-0.6-0.6-1.5,0-2.1c0.1-0.1,0.2-0.1,0.2-0.2c0.7-0.5,1.6-0.3,2.1,0.4c0.4,0.7,0.3,1.5-0.3,2C76.8,83.8,76.5,83.9,76.2,83.9z
			 M20.9,81.3c-0.3,0-0.7-0.1-0.9-0.3c-0.1-0.1-0.2-0.1-0.2-0.2c-0.5-0.6-0.4-1.6,0.2-2.1c0.6-0.5,1.5-0.5,2,0.1
			c0.6,0.5,0.6,1.4,0.1,2C21.8,81.1,21.4,81.3,20.9,81.3z M79.2,81.2c-0.4,0-0.8-0.1-1.1-0.4c-0.6-0.6-0.6-1.5,0-2.1
			c0.6-0.6,1.5-0.6,2.1,0c0.6,0.6,0.6,1.5,0,2.1l0,0C80,81.1,79.6,81.2,79.2,81.2z M18.2,78.4c-0.4,0-0.9-0.2-1.2-0.5
			c-0.5-0.5-0.5-1.3,0-1.9c0.5-0.6,1.5-0.8,2.1-0.2c0.1,0.1,0.2,0.2,0.3,0.3c0.5,0.7,0.3,1.6-0.4,2.1C18.8,78.3,18.5,78.4,18.2,78.4
			z M81.9,78.3c-0.5,0-1-0.2-1.2-0.7c-0.4-0.6-0.3-1.3,0.1-1.8c0.5-0.5,1.3-0.7,1.9-0.2c0.7,0.5,0.9,1.4,0.4,2.1
			c-0.1,0.2-0.3,0.3-0.4,0.4C82.5,78.2,82.2,78.3,81.9,78.3z M15.7,75.2c-0.5,0-0.9-0.2-1.2-0.6c-0.5-0.6-0.4-1.4,0.1-2
			c0.6-0.6,1.5-0.6,2.1,0c0.1,0.1,0.1,0.2,0.2,0.2c0.5,0.7,0.3,1.6-0.4,2.1C16.3,75.1,16,75.2,15.7,75.2z M84.4,75
			c-0.4,0-0.8-0.1-1.1-0.4c-0.5-0.5-0.6-1.4-0.1-2c0.5-0.6,1.4-0.8,2-0.3c0.7,0.5,0.9,1.4,0.4,2.1c-0.1,0.1-0.1,0.2-0.2,0.2
			C85.1,74.9,84.7,75,84.4,75z M13.6,71.8c-0.5,0-1-0.3-1.3-0.8c-0.4-0.7-0.2-1.5,0.5-2c0.7-0.5,1.6-0.3,2.1,0.4
			c0,0.1,0.1,0.1,0.1,0.2c0.4,0.7,0.1,1.6-0.7,2C14.1,71.7,13.8,71.8,13.6,71.8z M86.5,71.6c-0.2,0-0.3,0-0.5-0.1
			c-0.8-0.3-1.2-1.1-0.9-1.9c0-0.1,0.1-0.3,0.2-0.4c0.5-0.7,1.4-0.9,2.1-0.4c0.7,0.4,0.9,1.3,0.5,2C87.5,71.3,87,71.6,86.5,71.6z
			 M11.8,68.2c-0.6,0-1.1-0.3-1.3-0.8c0-0.1-0.1-0.1-0.1-0.2c-0.3-0.8,0.2-1.6,0.9-1.9c0.7-0.2,1.5,0.1,1.9,0.8
			c0.3,0.7,0,1.6-0.7,1.9C12.3,68.1,12,68.2,11.8,68.2z M88.3,68c-0.3,0-0.6-0.1-0.8-0.3c-0.6-0.4-0.8-1.2-0.5-1.9
			c0.3-0.7,1.1-1.1,1.8-0.8c0.8,0.3,1.2,1.1,0.9,1.9c0,0.1-0.1,0.3-0.2,0.4C89.2,67.8,88.7,68,88.3,68z M10.4,64.4
			c-0.6,0-1.2-0.4-1.4-1c0,0,0-0.1,0-0.1c-0.2-0.8,0.3-1.6,1.1-1.8c0.8-0.2,1.6,0.3,1.8,1c0.2,0.8-0.2,1.6-1,1.9
			C10.7,64.4,10.5,64.4,10.4,64.4z M89.7,64.3c-0.1,0-0.2,0-0.4,0c-0.8-0.2-1.3-1-1.1-1.8c0,0,0-0.1,0-0.1c0.3-0.8,1.1-1.2,1.9-0.9
			c0.8,0.3,1.2,1.1,1,1.9C90.9,63.8,90.3,64.3,89.7,64.3z M9.3,60.5c-0.7,0-1.3-0.5-1.5-1.2c-0.2-0.8,0.3-1.6,1.1-1.8
			c0.8-0.2,1.6,0.3,1.8,1.1c0,0,0,0.1,0,0.1c0.1,0.8-0.4,1.6-1.2,1.7C9.5,60.5,9.4,60.5,9.3,60.5z M90.7,60.4
			c-0.8,0-1.5-0.7-1.5-1.5c0-0.2,0-0.3,0.1-0.5c0.3-0.8,1.1-1.2,1.9-0.9c0.7,0.2,1.1,1,1,1.7C92.1,59.8,91.5,60.4,90.7,60.4z
			 M8.6,56.6c-0.7,0-1.4-0.5-1.5-1.3c0-0.1,0-0.2,0-0.3c0-0.8,0.7-1.5,1.5-1.5c0.8,0,1.4,0.6,1.5,1.4c0.1,0.8-0.5,1.5-1.2,1.6
			C8.8,56.6,8.7,56.6,8.6,56.6z M91.4,56.4c-0.1,0-0.2,0-0.4,0c-0.7-0.2-1.2-0.9-1.1-1.6c0.1-0.8,0.7-1.3,1.5-1.3l0,0
			c0.8,0,1.5,0.7,1.5,1.5c0,0.1,0,0.3,0,0.4C92.7,55.9,92.1,56.4,91.4,56.4z M8.3,52.5c-0.8,0-1.5-0.6-1.5-1.4
			c0-0.8,0.5-1.5,1.3-1.6C9,49.4,9.7,50,9.8,50.9c0,0.1,0,0.1,0,0.2C9.8,51.9,9.2,52.5,8.3,52.5z M91.7,52.4c-0.8,0-1.5-0.7-1.5-1.5
			s0.7-1.5,1.5-1.5s1.5,0.7,1.5,1.5v0C93.2,51.7,92.5,52.4,91.7,52.4z M8.4,48.5L8.4,48.5c-0.8,0-1.5-0.7-1.5-1.5c0-0.1,0-0.1,0-0.2
			c0.1-0.8,0.9-1.4,1.7-1.3c0.8,0.1,1.4,0.8,1.3,1.6C9.9,47.9,9.2,48.5,8.4,48.5z M91.5,48.4c-0.7,0-1.3-0.5-1.5-1.1
			c0-0.1,0-0.3,0-0.4c0-0.8,0.7-1.5,1.5-1.5c0.8,0,1.4,0.6,1.5,1.3c0.1,0.7-0.4,1.4-1.1,1.6C91.8,48.4,91.7,48.4,91.5,48.4z
			 M91.1,44.4c-0.7,0-1.3-0.5-1.5-1.2c-0.1-0.7,0.3-1.5,1-1.7c0.8-0.3,1.6,0.2,1.9,0.9c0.1,0.2,0.1,0.3,0.1,0.5
			C92.6,43.7,91.9,44.4,91.1,44.4z M10.4,43.2l-3-0.4c0.1-0.8,0.8-1.4,1.7-1.3C9.9,41.6,10.5,42.4,10.4,43.2z M9.8,40.6
			c-0.2,0-0.3,0-0.5-0.1c-0.7-0.2-1.2-1-1-1.8c0.2-0.7,0.9-1.2,1.6-1.1c0.8,0.1,1.4,0.9,1.3,1.7c0,0.1,0,0.2-0.1,0.3
			C11,40.2,10.4,40.6,9.8,40.6z M90.2,40.4c-0.7,0-1.2-0.4-1.4-1.1c-0.2-0.8,0.2-1.6,1-1.9c0.8-0.3,1.6,0.2,1.9,0.9c0,0,0,0.1,0,0.1
			c0.2,0.8-0.3,1.6-1.1,1.8C90.4,40.4,90.3,40.4,90.2,40.4z M11,36.8c-0.2,0-0.3,0-0.5-0.1c-0.8-0.3-1.2-1.1-0.9-1.9c0,0,0,0,0-0.1
			c0.3-0.8,1.2-1.2,1.9-0.9c0.8,0.3,1.2,1.2,0.9,1.9C12.2,36.4,11.6,36.8,11,36.8z M88.9,36.6c-0.5,0-1.1-0.3-1.3-0.8
			c0-0.1-0.1-0.1-0.1-0.2c-0.3-0.8,0.2-1.6,0.9-1.9c0.8-0.3,1.6,0.1,1.9,0.9c0.3,0.7,0,1.6-0.7,1.9C89.4,36.6,89.2,36.6,88.9,36.6z
			 M12.6,33.1c-0.2,0-0.5-0.1-0.7-0.2c-0.7-0.4-1-1.3-0.7-2l0,0c0.4-0.7,1.3-1,2-0.7c0.7,0.4,1,1.3,0.7,2
			C13.7,32.8,13.2,33.1,12.6,33.1z M87.3,32.9c-0.5,0-1.1-0.3-1.3-0.8c-0.4-0.7-0.2-1.5,0.5-2c0.7-0.5,1.6-0.3,2.1,0.4
			c0.1,0.1,0.1,0.2,0.2,0.4c0.3,0.8-0.2,1.6-0.9,1.9C87.6,32.9,87.5,32.9,87.3,32.9z M14.6,29.6c-0.3,0-0.6-0.1-0.8-0.3
			c-0.7-0.4-0.9-1.3-0.4-2c0.4-0.7,1.3-0.9,2-0.6c0.7,0.4,1,1.3,0.7,2c0,0.1-0.1,0.1-0.1,0.2C15.5,29.3,15.1,29.6,14.6,29.6z
			 M85.3,29.4c-0.5,0-1.1-0.3-1.3-0.8c-0.4-0.7-0.2-1.5,0.5-2c0.7-0.5,1.6-0.3,2.1,0.4c0.1,0.1,0.1,0.2,0.2,0.4
			c0.3,0.8-0.2,1.6-0.9,1.9C85.7,29.4,85.5,29.4,85.3,29.4z M16.9,26.3c-0.3,0-0.6-0.1-0.8-0.3c-0.7-0.5-0.9-1.4-0.4-2.1
			c0.1-0.1,0.1-0.2,0.2-0.2c0.6-0.6,1.5-0.6,2.1,0c0.5,0.5,0.6,1.4,0.1,2C17.8,26.1,17.3,26.3,16.9,26.3z M83,26.1
			c-0.4,0-0.8-0.1-1.1-0.4c-0.1-0.1-0.1-0.2-0.2-0.2c-0.5-0.7-0.3-1.6,0.4-2.1c0.7-0.4,1.5-0.3,2,0.3c0.5,0.6,0.4,1.4-0.1,2
			C83.8,26,83.4,26.1,83,26.1z M19.5,23.2c-0.3,0-0.7-0.1-1-0.3c-0.6-0.5-0.7-1.5-0.2-2.1c0,0,0.1-0.1,0.1-0.1
			c0.6-0.6,1.5-0.6,2.1,0c0.6,0.6,0.6,1.5,0.1,2.1C20.3,23,19.9,23.2,19.5,23.2z M80.4,23.1c-0.3,0-0.6-0.1-0.8-0.3
			c-0.2-0.1-0.3-0.3-0.4-0.4c-0.5-0.7-0.3-1.6,0.4-2.1c0.6-0.4,1.5-0.3,1.9,0.2c0.5,0.5,0.5,1.3,0.1,1.8
			C81.4,22.8,80.9,23.1,80.4,23.1z M22.3,20.4c-0.4,0-0.9-0.2-1.2-0.6c-0.5-0.6-0.4-1.5,0.1-2c0.5-0.5,1.4-0.6,2-0.1
			c0.6,0.5,0.7,1.5,0.2,2.1c-0.1,0.1-0.1,0.2-0.2,0.2C23,20.3,22.7,20.4,22.3,20.4z M77.5,20.3c-0.4,0-0.7-0.1-1-0.4
			c-0.5-0.5-0.7-1.3-0.2-1.9c0.5-0.7,1.4-0.9,2.1-0.4c0.2,0.1,0.3,0.3,0.4,0.4c0.5,0.7,0.3,1.6-0.4,2.1
			C78.1,20.2,77.8,20.3,77.5,20.3z M25.5,17.8c-0.5,0-1-0.2-1.2-0.7c-0.5-0.7-0.3-1.6,0.4-2.1c0.6-0.5,1.5-0.3,2,0.3
			c0.5,0.6,0.4,1.6-0.2,2.1c0,0-0.1,0.1-0.1,0.1C26,17.8,25.8,17.8,25.5,17.8z M74.4,17.7c-0.3,0-0.6-0.1-0.9-0.3
			c-0.6-0.5-0.8-1.4-0.3-2c0.5-0.7,1.4-0.9,2.1-0.4c0.1,0.1,0.2,0.1,0.2,0.2c0.6,0.6,0.6,1.5,0,2.1C75.2,17.6,74.8,17.7,74.4,17.7z
			 M28.8,15.6c-0.5,0-1-0.2-1.2-0.7c-0.5-0.7-0.3-1.6,0.4-2.1c0.1-0.1,0.2-0.1,0.4-0.2c0.8-0.3,1.6,0.2,1.9,0.9
			c0.2,0.7-0.1,1.5-0.7,1.8C29.3,15.6,29.1,15.6,28.8,15.6z M71,15.5c-0.2,0-0.3,0-0.5-0.1c-0.1,0-0.3-0.1-0.4-0.2
			c-0.7-0.5-0.9-1.4-0.4-2.1c0.4-0.7,1.3-0.9,2-0.5c0.6,0.3,1,1.1,0.7,1.8C72.3,15.1,71.7,15.5,71,15.5z M32.4,13.7
			c-0.6,0-1.2-0.4-1.4-1c-0.2-0.7,0.1-1.6,0.8-1.9c0.7-0.3,1.5,0,1.9,0.6c0.4,0.7,0.2,1.6-0.6,2c-0.1,0-0.2,0.1-0.3,0.1
			C32.7,13.7,32.5,13.7,32.4,13.7z M67.5,13.7c-0.2,0-0.4,0-0.6-0.1c-0.7-0.3-1-1.1-0.8-1.8c0.3-0.8,1.1-1.2,1.9-0.9
			c0.1,0,0.3,0.1,0.4,0.2c0.7,0.5,0.9,1.4,0.4,2.1C68.4,13.4,68,13.7,67.5,13.7z M36.1,12.2c-0.6,0-1.2-0.4-1.4-1.1
			c-0.2-0.8,0.2-1.6,1-1.9c0,0,0.1,0,0.1,0c0.8-0.2,1.6,0.2,1.9,1c0.2,0.8-0.2,1.6-1,1.9C36.4,12.2,36.2,12.2,36.1,12.2z M63.7,12.2
			c-0.1,0-0.2,0-0.4,0c0,0-0.1,0-0.1,0c-0.8-0.3-1.2-1.1-0.9-1.9c0.3-0.8,1.1-1.2,1.9-1c0.8,0.2,1.2,1,1,1.8
			C65,11.7,64.4,12.2,63.7,12.2z M40,11.1c-0.7,0-1.3-0.4-1.4-1.1c-0.2-0.8,0.2-1.6,1-1.9c0.1,0,0.3-0.1,0.4-0.1
			c0.8,0,1.5,0.7,1.5,1.5c0,0.7-0.5,1.4-1.2,1.5C40.1,11,40,11.1,40,11.1z M59.9,11c-0.2,0-0.3,0-0.5-0.1c-0.8-0.3-1.2-1.1-0.9-1.9
			c0.2-0.7,1-1.1,1.7-1c0.7,0.1,1.2,0.7,1.2,1.5C61.4,10.3,60.7,11,59.9,11z M43.9,10.3c-0.8,0-1.5-0.7-1.5-1.5
			c0-0.8,0.6-1.4,1.3-1.5c0.7-0.1,1.4,0.3,1.6,1c0.3,0.8-0.2,1.6-0.9,1.9C44.2,10.2,44.1,10.3,43.9,10.3z M55.9,10.3
			c-0.1,0-0.1,0-0.2,0c-0.8-0.1-1.3-0.7-1.3-1.5c0-0.8,0.7-1.5,1.5-1.5c0.1,0,0.3,0,0.4,0c0.8,0.2,1.3,1,1.1,1.8
			C57.2,9.8,56.6,10.3,55.9,10.3z M47.9,9.9c-0.8,0-1.5-0.7-1.5-1.5c0-0.8,0.6-1.4,1.3-1.5c0.7-0.1,1.4,0.4,1.6,1.1
			c0.2,0.8-0.2,1.6-1,1.9C48.2,9.9,48,9.9,47.9,9.9z M51.9,9.9c-0.8,0-1.5-0.7-1.5-1.5s0.7-1.5,1.5-1.5h0c0.8,0,1.5,0.7,1.5,1.5
			S52.8,9.9,51.9,9.9z"/>
		<path d="M50.2,89L50.2,89c-0.1,0-0.1,0-0.2,0h0c-0.8,0-1.5-0.7-1.5-1.5c0-0.9,0.7-1.5,1.6-1.5c0.8,0,1.6,0.6,1.6,1.5
			C51.6,88.3,51,89,50.2,89z M46,88.8c-0.2,0-0.3,0-0.5-0.1c-0.8-0.3-1.2-1.1-0.9-1.9c0.2-0.7,0.9-1.1,1.6-1
			c0.7,0.1,1.3,0.7,1.3,1.5C47.5,88.1,46.8,88.8,46,88.8z M54.1,88.8c-0.7,0-1.3-0.5-1.5-1.1c-0.2-0.8,0.3-1.6,1.1-1.8
			c0.9-0.2,1.9,0.5,1.9,1.5c0,0.8-0.6,1.4-1.3,1.5C54.2,88.8,54.2,88.8,54.1,88.8z M42.1,88.2c-0.1,0-0.2,0-0.3,0
			c-0.7-0.1-1.2-0.7-1.2-1.5c0-0.8,0.7-1.5,1.5-1.5c0.1,0,0.3,0,0.4,0.1c0.8,0.2,1.3,1.1,1,1.9C43.3,87.7,42.7,88.2,42.1,88.2z
			 M58.1,88.1c-0.8,0-1.5-0.7-1.5-1.5c0-0.7,0.5-1.3,1.2-1.5c0.7-0.1,1.5,0.3,1.7,1c0.3,0.8-0.2,1.6-0.9,1.9
			C58.4,88.1,58.2,88.1,58.1,88.1z M61.9,87.1c-0.7,0-1.3-0.5-1.5-1.1c-0.2-0.8,0.3-1.6,1-1.8c0.8-0.2,1.6,0.2,1.9,1
			c0.3,0.8-0.2,1.6-0.9,1.9c0,0-0.1,0-0.1,0C62.1,87,62,87.1,61.9,87.1z M37.8,87c-0.8-0.2-1.3-1.1-1-1.9c0.2-0.8,1.1-1.3,1.9-1
			L37.8,87z M34.5,85.7c-0.2,0-0.3,0-0.5-0.1c-0.1,0-0.2-0.1-0.3-0.1c-0.7-0.4-1-1.3-0.6-2c0.4-0.7,1.2-0.9,1.9-0.6
			c0.7,0.3,1.1,1.1,0.8,1.9C35.7,85.3,35.1,85.7,34.5,85.7z M65.6,85.6c-0.5,0-1-0.2-1.2-0.7c-0.5-0.7-0.3-1.6,0.4-2.1
			c0.1-0.1,0.2-0.1,0.4-0.2c0.8-0.3,1.6,0.2,1.9,0.9c0.2,0.7-0.1,1.5-0.8,1.8C66,85.5,65.8,85.6,65.6,85.6z M31,83.8
			c-0.2,0-0.5-0.1-0.7-0.2c-0.6-0.3-1-1.1-0.7-1.8c0.3-0.8,1.1-1.2,1.9-0.9c0.1,0,0.3,0.1,0.4,0.2c0.7,0.5,0.9,1.4,0.4,2.1
			C31.9,83.6,31.5,83.8,31,83.8z M69.1,83.7c-0.6,0-1.2-0.4-1.4-1c-0.2-0.7,0.1-1.5,0.7-1.8c0.7-0.4,1.5-0.2,2,0.5
			c0.5,0.7,0.3,1.6-0.4,2.1c-0.1,0.1-0.2,0.1-0.4,0.2C69.5,83.7,69.3,83.7,69.1,83.7z M27.7,81.6c-0.3,0-0.6-0.1-0.9-0.3
			c-0.6-0.5-0.8-1.4-0.4-2c0.5-0.7,1.4-0.9,2.1-0.4c0,0,0.1,0.1,0.1,0.1c0.6,0.5,0.8,1.5,0.2,2.1C28.5,81.4,28.1,81.6,27.7,81.6z
			 M72.5,81.5c-0.4,0-0.8-0.1-1.1-0.4c-0.6-0.6-0.6-1.5,0-2.1c0.1-0.1,0.2-0.1,0.2-0.2c0.7-0.5,1.6-0.3,2.1,0.4
			c0.4,0.7,0.3,1.5-0.3,2C73.1,81.4,72.8,81.5,72.5,81.5z M24.6,79.1c-0.3,0-0.7-0.1-0.9-0.3c-0.1-0.1-0.2-0.1-0.2-0.2
			c-0.5-0.6-0.4-1.6,0.2-2.1c0.6-0.5,1.5-0.5,2,0.1c0.6,0.5,0.6,1.4,0.1,2C25.5,78.9,25,79.1,24.6,79.1z M75.5,79
			c-0.4,0-0.8-0.1-1.1-0.4c-0.6-0.6-0.6-1.5,0-2.1c0.6-0.6,1.5-0.6,2.1,0c0.6,0.6,0.6,1.5,0,2.1l0,0C76.3,78.8,75.9,79,75.5,79z
			 M21.8,76.2c-0.4,0-0.9-0.2-1.2-0.5c-0.5-0.5-0.5-1.3,0-1.9c0.5-0.6,1.5-0.8,2.1-0.2c0.1,0.1,0.2,0.2,0.3,0.3
			c0.5,0.7,0.3,1.6-0.4,2.1C22.4,76.1,22.1,76.2,21.8,76.2z M78.3,76.1c-0.5,0-1-0.2-1.2-0.7c-0.4-0.6-0.3-1.3,0.1-1.8
			c0.5-0.5,1.3-0.7,1.9-0.2c0.7,0.5,0.9,1.4,0.4,2.1c-0.1,0.2-0.3,0.3-0.4,0.4C78.9,76,78.6,76.1,78.3,76.1z M19.3,73.1
			c-0.5,0-0.9-0.2-1.2-0.6c-0.5-0.6-0.4-1.4,0.1-2c0.6-0.6,1.5-0.6,2.1,0c0.1,0.1,0.1,0.2,0.2,0.2c0.5,0.7,0.3,1.6-0.4,2.1
			C19.9,73,19.6,73.1,19.3,73.1z M80.7,73c-0.4,0-0.8-0.1-1.1-0.4c-0.5-0.5-0.6-1.4-0.1-2c0.5-0.6,1.4-0.8,2-0.3
			c0.7,0.5,0.9,1.4,0.4,2.1c-0.1,0.1-0.1,0.2-0.2,0.2C81.5,72.8,81.1,73,80.7,73z M17.2,69.7c-0.5,0-1-0.3-1.3-0.8
			c-0.4-0.7-0.2-1.5,0.5-2c0.7-0.5,1.6-0.3,2.1,0.4c0,0.1,0.1,0.1,0.1,0.2c0.4,0.7,0.1,1.6-0.7,2C17.7,69.6,17.4,69.7,17.2,69.7z
			 M82.9,69.6c-0.2,0-0.3,0-0.5-0.1c-0.8-0.3-1.2-1.1-0.9-1.9c0-0.1,0.1-0.3,0.2-0.4c0.5-0.7,1.4-0.9,2.1-0.4c0.7,0.4,0.9,1.3,0.5,2
			C83.9,69.3,83.4,69.6,82.9,69.6z M15.5,66.1c-0.6,0-1.1-0.3-1.3-0.8c0-0.1-0.1-0.1-0.1-0.2c-0.3-0.8,0.2-1.6,0.9-1.9
			c0.7-0.2,1.5,0.1,1.9,0.8c0.3,0.7,0,1.6-0.7,1.9C15.9,66.1,15.7,66.1,15.5,66.1z M84.6,66c-0.3,0-0.6-0.1-0.8-0.3
			c-0.6-0.4-0.8-1.2-0.5-1.9c0.3-0.7,1.1-1.1,1.8-0.8c0.8,0.3,1.2,1.1,0.9,1.9c0,0.1-0.1,0.3-0.2,0.4C85.6,65.7,85.1,66,84.6,66z
			 M14.1,62.4c-0.6,0-1.2-0.4-1.4-1c0,0,0-0.1,0-0.1c-0.2-0.8,0.3-1.6,1.1-1.8c0.8-0.2,1.6,0.3,1.8,1c0.2,0.8-0.2,1.6-1,1.9
			C14.4,62.3,14.3,62.4,14.1,62.4z M85.9,62.2c-0.1,0-0.2,0-0.4,0c-0.8-0.2-1.3-1-1.1-1.8c0,0,0-0.1,0-0.1c0.3-0.8,1.1-1.2,1.9-0.9
			c0.8,0.3,1.2,1.1,1,1.9C87.2,61.8,86.6,62.2,85.9,62.2z M13.1,58.5c-0.7,0-1.3-0.5-1.5-1.2c-0.2-0.8,0.3-1.6,1.1-1.8
			c0.8-0.2,1.6,0.3,1.8,1.1c0,0,0,0.1,0,0.1c0.1,0.8-0.4,1.6-1.2,1.7C13.3,58.5,13.2,58.5,13.1,58.5z M86.9,58.3
			c-0.8,0-1.5-0.7-1.5-1.5c0-0.2,0-0.3,0.1-0.5c0.3-0.8,1.1-1.2,1.9-0.9c0.7,0.2,1.1,1,1,1.7C88.2,57.8,87.6,58.3,86.9,58.3z
			 M12.6,54.5c-0.7,0-1.4-0.5-1.5-1.3c0-0.1,0-0.2,0-0.3c0-0.8,0.7-1.5,1.5-1.5c0.8,0,1.4,0.6,1.5,1.4c0.1,0.8-0.5,1.5-1.2,1.6
			C12.8,54.5,12.7,54.5,12.6,54.5z M87.4,54.4c-0.1,0-0.2,0-0.4,0c-0.7-0.2-1.2-0.9-1.1-1.6c0.1-0.8,0.7-1.3,1.5-1.3l0,0
			c0.8,0,1.5,0.7,1.5,1.5c0,0.1,0,0.3,0,0.4C88.7,53.9,88.1,54.4,87.4,54.4z M12.5,50.5L12.5,50.5c-0.8,0-1.5-0.7-1.5-1.5
			c0-0.1,0-0.1,0-0.2c0.1-0.8,0.9-1.4,1.7-1.3c0.8,0.1,1.4,0.8,1.3,1.6C14,49.9,13.3,50.5,12.5,50.5z M87.5,50.4
			c-0.8,0-1.5-0.7-1.5-1.5s0.7-1.5,1.5-1.5s1.5,0.7,1.5,1.5v0C89,49.7,88.3,50.4,87.5,50.4z M87.2,46.4c-0.7,0-1.3-0.5-1.5-1.1
			c0-0.1,0-0.3,0-0.4c0-0.8,0.7-1.5,1.5-1.5c0.8,0,1.4,0.6,1.5,1.3c0.1,0.7-0.4,1.4-1.1,1.6C87.4,46.4,87.3,46.4,87.2,46.4z
			 M14.3,45.2l-3-0.4c0.1-0.8,0.9-1.4,1.7-1.3C13.8,43.7,14.4,44.4,14.3,45.2z M13.6,42.6c-0.2,0-0.3,0-0.5-0.1
			c-0.7-0.2-1.2-1-1-1.8c0.2-0.7,0.9-1.2,1.6-1.1c0.8,0.1,1.4,0.9,1.3,1.7c0,0.1,0,0.2-0.1,0.3C14.8,42.2,14.2,42.6,13.6,42.6z
			 M86.4,42.5c-0.7,0-1.3-0.5-1.5-1.2c-0.1-0.7,0.3-1.5,1-1.7c0.8-0.3,1.6,0.2,1.9,0.9c0.1,0.2,0.1,0.3,0.1,0.5
			C87.9,41.8,87.2,42.5,86.4,42.5z M14.7,38.8c-0.2,0-0.3,0-0.5-0.1c-0.8-0.3-1.2-1.1-0.9-1.9c0,0,0,0,0-0.1
			c0.3-0.8,1.2-1.2,1.9-0.9c0.8,0.3,1.2,1.2,0.9,1.9C15.9,38.4,15.3,38.8,14.7,38.8z M85.2,38.7c-0.7,0-1.2-0.4-1.4-1.1
			c-0.2-0.8,0.2-1.6,1-1.9c0.8-0.3,1.6,0.2,1.9,0.9c0,0,0,0.1,0,0.1c0.2,0.8-0.3,1.6-1.1,1.8C85.5,38.7,85.4,38.7,85.2,38.7z
			 M16.3,35.1c-0.2,0-0.5-0.1-0.7-0.2c-0.7-0.4-1-1.3-0.7-2l0,0c0.4-0.7,1.3-1,2-0.7c0.7,0.4,1,1.3,0.7,2
			C17.3,34.8,16.8,35.1,16.3,35.1z M83.7,35c-0.5,0-1-0.2-1.2-0.7c-0.1-0.1-0.1-0.2-0.2-0.4c-0.3-0.8,0.2-1.6,0.9-1.9
			c0.7-0.2,1.5,0.1,1.8,0.8c0.3,0.7,0.1,1.5-0.5,1.9C84.3,34.9,84,35,83.7,35z M18.2,31.7c-0.3,0-0.6-0.1-0.8-0.3
			c-0.7-0.4-0.9-1.3-0.4-2c0.4-0.7,1.3-0.9,2-0.6c0.7,0.4,1,1.3,0.7,2c0,0.1-0.1,0.1-0.1,0.2C19.1,31.4,18.7,31.7,18.2,31.7z
			 M81.7,31.5c-0.5,0-1.1-0.3-1.3-0.8c-0.4-0.7-0.2-1.5,0.5-2c0.7-0.5,1.6-0.3,2.1,0.4c0.1,0.1,0.1,0.2,0.2,0.4
			c0.3,0.8-0.2,1.6-0.9,1.9C82.1,31.5,81.9,31.5,81.7,31.5z M20.5,28.4c-0.3,0-0.6-0.1-0.8-0.3c-0.7-0.5-0.9-1.4-0.4-2.1
			c0.1-0.1,0.2-0.3,0.3-0.3c0.6-0.5,1.6-0.4,2.1,0.2c0.5,0.6,0.4,1.4,0,1.9C21.3,28.2,20.9,28.4,20.5,28.4z M79.4,28.3
			c-0.4,0-0.8-0.1-1.1-0.4c-0.1-0.1-0.1-0.2-0.2-0.2c-0.5-0.7-0.3-1.6,0.4-2.1c0.7-0.4,1.5-0.3,2,0.3c0.5,0.6,0.4,1.4-0.1,2
			C80.2,28.1,79.8,28.3,79.4,28.3z M23.1,25.4c-0.4,0-0.9-0.2-1.2-0.6c-0.5-0.6-0.4-1.5,0.1-2c0.5-0.5,1.3-0.6,1.9-0.2
			c0.7,0.5,0.9,1.4,0.4,2.1c-0.1,0.1-0.2,0.2-0.3,0.3C23.8,25.3,23.4,25.4,23.1,25.4z M76.8,25.3c-0.4,0-0.8-0.1-1.1-0.4
			c-0.6-0.6-0.6-1.5,0-2.1c0.6-0.6,1.5-0.6,2.1,0l0,0c0.6,0.6,0.6,1.5,0,2.1C77.6,25.1,77.2,25.3,76.8,25.3z M26,22.7
			c-0.4,0-0.9-0.2-1.2-0.6c-0.5-0.6-0.4-1.5,0.2-2.1c0.6-0.5,1.5-0.5,2.1,0.1c0.6,0.6,0.6,1.5,0,2.1c0,0-0.1,0.1-0.1,0.1
			C26.7,22.6,26.4,22.7,26,22.7z M73.9,22.6c-0.3,0-0.6-0.1-0.9-0.3c-0.6-0.5-0.8-1.4-0.3-2c0.5-0.7,1.4-0.9,2.1-0.4
			c0.1,0.1,0.2,0.1,0.2,0.2c0.6,0.6,0.6,1.5,0,2.1C74.6,22.4,74.2,22.6,73.9,22.6z M29.2,20.3c-0.5,0-1-0.2-1.2-0.7
			c-0.5-0.7-0.3-1.6,0.4-2.1c0.6-0.5,1.5-0.3,2,0.3c0.5,0.6,0.4,1.6-0.2,2.1c0,0-0.1,0.1-0.1,0.1C29.8,20.2,29.5,20.3,29.2,20.3z
			 M70.7,20.2c-0.3,0-0.6-0.1-0.8-0.3c-0.7-0.5-0.9-1.4-0.4-2.1c0.5-0.7,1.4-0.9,2.1-0.4l0,0c0.7,0.5,0.9,1.4,0.4,2.1
			C71.6,20,71.1,20.2,70.7,20.2z M32.7,18.3c-0.5,0-1-0.2-1.2-0.7c-0.5-0.7-0.3-1.6,0.4-2.1c0.1-0.1,0.2-0.1,0.4-0.2
			c0.8-0.3,1.6,0.2,1.9,0.9c0.2,0.7-0.1,1.5-0.7,1.8C33.1,18.2,32.9,18.3,32.7,18.3z M67.2,18.2c-0.2,0-0.3,0-0.5-0.1
			c-0.1,0-0.3-0.1-0.4-0.2c-0.7-0.5-0.9-1.4-0.4-2.1c0.4-0.7,1.3-0.9,2-0.5c0.6,0.3,1,1.1,0.7,1.8C68.4,17.8,67.8,18.2,67.2,18.2z
			 M36.3,16.6c-0.6,0-1.2-0.4-1.4-1c-0.2-0.7,0.1-1.6,0.8-1.9c0.7-0.3,1.5,0,1.9,0.6c0.4,0.7,0.2,1.6-0.6,2c-0.1,0-0.2,0.1-0.3,0.1
			C36.6,16.6,36.4,16.6,36.3,16.6z M63.6,16.5c-0.2,0-0.4,0-0.6-0.1c-0.7-0.3-1.1-1.1-0.9-1.9c0.3-0.8,1.1-1.2,1.9-0.9
			c0.1,0,0.1,0.1,0.2,0.1c0.7,0.4,1,1.3,0.7,2C64.7,16.2,64.1,16.5,63.6,16.5z M59.8,15.3c-0.1,0-0.2,0-0.4,0c0,0-0.1,0-0.1,0
			c-0.8-0.3-1.2-1.1-0.9-1.9c0.3-0.8,1.1-1.2,1.9-1c0.8,0.2,1.2,1,1,1.8C61.1,14.8,60.5,15.3,59.8,15.3z M40.6,15.3l-0.9-2.8
			c0.8-0.3,1.6,0.2,1.9,0.9C41.8,14.1,41.3,15,40.6,15.3z M44,14.5c-0.7,0-1.3-0.4-1.4-1.1c-0.2-0.8,0.2-1.6,1-1.9
			c0.1,0,0.3-0.1,0.4-0.1c0.8,0,1.5,0.7,1.5,1.5c0,0.7-0.5,1.4-1.2,1.5C44.1,14.5,44.1,14.5,44,14.5z M55.9,14.5
			c-0.2,0-0.3,0-0.5-0.1c-0.8-0.3-1.2-1.1-0.9-1.9c0.2-0.7,1-1.1,1.7-1c0.7,0.1,1.2,0.7,1.2,1.5C57.4,13.8,56.7,14.5,55.9,14.5z
			 M47.9,14.1c-0.8,0-1.5-0.7-1.5-1.5c0-0.8,0.6-1.4,1.3-1.5c0.7-0.1,1.4,0.3,1.6,1c0.3,0.8-0.2,1.6-0.9,1.9
			C48.3,14,48.1,14.1,47.9,14.1z M51.9,14c-0.1,0-0.1,0-0.2,0c-0.8-0.1-1.3-0.7-1.3-1.5c0-0.8,0.7-1.5,1.5-1.5c0.1,0,0.3,0,0.4,0
			c0.8,0.2,1.3,1,1.1,1.8C53.2,13.6,52.6,14,51.9,14z"/>
		<path d="M50.1,84.8L50.1,84.8c-0.1,0-0.1,0-0.1,0h0c-0.8,0-1.5-0.7-1.5-1.5c0-0.9,0.7-1.5,1.6-1.5c0.8,0,1.6,0.6,1.6,1.5
			C51.6,84.2,51,84.8,50.1,84.8z M46,84.6c-0.2,0-0.3,0-0.5-0.1c-0.8-0.3-1.2-1.1-0.9-1.9c0.2-0.7,0.9-1.1,1.6-1
			c0.7,0.1,1.3,0.7,1.3,1.5C47.5,83.9,46.8,84.6,46,84.6z M54.1,84.6c-0.7,0-1.3-0.5-1.5-1.1c-0.2-0.8,0.3-1.6,1.1-1.8
			c0.9-0.2,1.9,0.5,1.9,1.5c0,0.8-0.6,1.4-1.3,1.5C54.3,84.6,54.2,84.6,54.1,84.6z M42,83.9c-0.1,0-0.2,0-0.3,0
			c-0.7-0.1-1.2-0.7-1.2-1.5c0-0.8,0.7-1.5,1.5-1.5c0.1,0,0.3,0,0.4,0.1c0.8,0.2,1.3,1.1,1,1.9C43.3,83.4,42.7,83.9,42,83.9z
			 M58.1,83.8c-0.8,0-1.5-0.7-1.5-1.5c0-0.7,0.5-1.3,1.2-1.5c0.7-0.1,1.5,0.3,1.7,1c0.3,0.8-0.2,1.6-0.9,1.9
			C58.4,83.8,58.3,83.8,58.1,83.8z M38.2,82.7c-0.2,0-0.3,0-0.5-0.1c-0.1,0-0.2-0.1-0.3-0.1c-0.7-0.4-1-1.3-0.6-2
			c0.4-0.7,1.2-0.9,1.9-0.6c0.7,0.3,1.1,1.1,0.8,1.9C39.4,82.3,38.8,82.7,38.2,82.7z M61.9,82.6c-0.5,0-1.1-0.3-1.3-0.8
			c-0.4-0.7-0.1-1.6,0.7-2c0.1,0,0.1-0.1,0.2-0.1c0.8-0.3,1.6,0.2,1.9,0.9c0.3,0.8-0.1,1.6-0.9,1.9C62.3,82.6,62.1,82.6,61.9,82.6z
			 M34.5,81c-0.2,0-0.5-0.1-0.7-0.2c-0.6-0.3-1-1.1-0.7-1.8c0.3-0.8,1.1-1.2,1.9-0.9c0.1,0,0.3,0.1,0.4,0.2c0.7,0.5,0.9,1.4,0.4,2.1
			C35.5,80.8,35,81,34.5,81z M65.6,81c-0.6,0-1.2-0.4-1.4-1c-0.2-0.7,0.1-1.5,0.7-1.8c0.7-0.4,1.5-0.2,2,0.5
			c0.5,0.7,0.3,1.6-0.4,2.1c-0.1,0.1-0.2,0.1-0.4,0.2C65.9,80.9,65.7,81,65.6,81z M31.1,78.9c-0.3,0-0.6-0.1-0.8-0.3
			c0,0-0.1-0.1-0.1-0.1c-0.6-0.5-0.8-1.5-0.2-2.1c0.5-0.6,1.4-0.7,2-0.3c0.7,0.5,0.8,1.4,0.4,2.1C32,78.7,31.6,78.9,31.1,78.9z
			 M69,78.9c-0.4,0-0.8-0.1-1.1-0.4c-0.6-0.6-0.6-1.5,0-2.1c0.1-0.1,0.2-0.1,0.2-0.2c0.7-0.5,1.6-0.3,2.1,0.4c0.4,0.7,0.3,1.5-0.3,2
			C69.7,78.8,69.3,78.9,69,78.9z M27.9,76.4c-0.3,0-0.7-0.1-0.9-0.3c-0.1-0.1-0.2-0.1-0.2-0.2c-0.5-0.6-0.4-1.6,0.2-2.1
			c0.6-0.5,1.5-0.5,2,0.1c0.6,0.5,0.6,1.4,0.1,2C28.8,76.3,28.4,76.4,27.9,76.4z M72.2,76.4c-0.3,0-0.6-0.1-0.8-0.3
			c-0.7-0.5-0.9-1.4-0.4-2.1c0.1-0.2,0.3-0.3,0.4-0.4c0.7-0.5,1.6-0.3,2.1,0.4c0.4,0.6,0.3,1.5-0.2,1.9
			C72.9,76.2,72.5,76.4,72.2,76.4z M25.1,73.6c-0.4,0-0.8-0.2-1.1-0.5c-0.5-0.6-0.5-1.5,0.1-2.1c0.6-0.6,1.5-0.6,2.1,0
			c0,0,0.1,0.1,0.1,0.1c0.5,0.6,0.4,1.6-0.2,2.1C25.7,73.5,25.4,73.6,25.1,73.6z M75,73.5c-0.5,0-1-0.2-1.2-0.7
			c-0.4-0.6-0.3-1.3,0.1-1.8c0.5-0.5,1.3-0.7,1.9-0.2c0.7,0.5,0.9,1.4,0.4,2.1c-0.1,0.2-0.3,0.3-0.4,0.4
			C75.6,73.4,75.3,73.5,75,73.5z M22.6,70.4c-0.5,0-0.9-0.2-1.2-0.6c-0.5-0.6-0.4-1.4,0.1-2c0.6-0.6,1.5-0.6,2.1,0
			c0.1,0.1,0.1,0.2,0.2,0.2c0.5,0.7,0.3,1.6-0.4,2.1C23.2,70.4,22.9,70.4,22.6,70.4z M77.5,70.3c-0.4,0-0.8-0.1-1.1-0.4
			c-0.5-0.5-0.6-1.4-0.1-2c0.5-0.6,1.4-0.8,2-0.3c0.7,0.5,0.9,1.4,0.4,2.1c-0.1,0.1-0.1,0.2-0.2,0.2C78.3,70.2,77.9,70.3,77.5,70.3z
			 M20.5,67c-0.5,0-1-0.3-1.3-0.8c-0.4-0.7-0.2-1.5,0.5-2c0.7-0.5,1.6-0.3,2.1,0.4c0,0.1,0.1,0.1,0.1,0.2c0.4,0.7,0.1,1.6-0.7,2
			C21,67,20.7,67,20.5,67z M79.6,66.9c-0.2,0-0.3,0-0.5-0.1c-0.8-0.3-1.2-1.1-0.9-1.9c0-0.1,0.1-0.3,0.2-0.4
			c0.5-0.7,1.4-0.9,2.1-0.4c0.7,0.4,0.9,1.3,0.5,2C80.6,66.6,80.1,66.9,79.6,66.9z M81.2,63.2c-0.2,0-0.5-0.1-0.7-0.2
			c-0.7-0.4-1-1.2-0.7-1.9c0.3-0.7,1.1-1.1,1.9-0.9c0.8,0.3,1.2,1.1,0.9,1.9c0,0.1-0.1,0.1-0.1,0.2C82.3,62.9,81.8,63.2,81.2,63.2z
			 M17.4,62.4c-0.3-0.8,0.1-1.6,0.9-1.9c0.8-0.3,1.6,0.1,1.9,0.9L17.4,62.4z M17.6,59.5c-0.6,0-1.2-0.4-1.4-1c0-0.1-0.1-0.2-0.1-0.3
			c-0.1-0.8,0.5-1.6,1.3-1.7c0.8-0.1,1.5,0.4,1.6,1.1c0.2,0.8-0.2,1.5-1,1.8C18,59.5,17.8,59.5,17.6,59.5z M82.4,59.4
			c-0.8,0-1.5-0.7-1.5-1.5c0-0.2,0-0.3,0.1-0.5c0.3-0.8,1.1-1.2,1.9-0.9c0.7,0.2,1.1,1,1,1.7C83.7,58.9,83.1,59.4,82.4,59.4z
			 M16.9,55.5c-0.7,0-1.4-0.5-1.5-1.3c0-0.1,0-0.2,0-0.3c0-0.8,0.7-1.5,1.5-1.5c0.8,0,1.4,0.6,1.5,1.4c0.1,0.8-0.5,1.5-1.2,1.6
			C17.1,55.5,17,55.5,16.9,55.5z M83.1,55.4c-0.1,0-0.2,0-0.4,0c-0.7-0.2-1.2-0.9-1.1-1.6c0.1-0.8,0.7-1.3,1.5-1.3l0,0
			c0.8,0,1.5,0.7,1.5,1.5c0,0.1,0,0.3,0,0.4C84.4,55,83.8,55.4,83.1,55.4z M16.7,51.5c-0.8,0-1.5-0.7-1.5-1.5v0
			c0-0.8,0.7-1.5,1.5-1.5s1.5,0.7,1.5,1.5S17.5,51.5,16.7,51.5z M83.3,51.4c-0.8,0-1.5-0.7-1.5-1.5s0.7-1.5,1.5-1.5s1.5,0.7,1.5,1.5
			v0C84.8,50.7,84.2,51.4,83.3,51.4z M16.9,47.5c-0.1,0-0.2,0-0.2,0c-0.8-0.1-1.3-0.8-1.2-1.6c0.1-0.8,0.7-1.4,1.5-1.4
			c0.8,0,1.5,0.7,1.5,1.5c0,0.1,0,0.2,0,0.3C18.3,47,17.6,47.5,16.9,47.5z M83.1,47.4c-0.7,0-1.3-0.5-1.5-1.1c0-0.1,0-0.3,0-0.4
			c0-0.8,0.7-1.5,1.5-1.5c0.8,0,1.4,0.6,1.5,1.3c0.1,0.7-0.4,1.4-1.1,1.6C83.3,47.4,83.2,47.4,83.1,47.4z M17.6,43.6
			c-0.2,0-0.3,0-0.5-0.1c-0.7-0.2-1.2-1-1-1.8c0.2-0.7,0.9-1.2,1.6-1.1c0.8,0.1,1.4,0.9,1.3,1.7c0,0.1,0,0.2-0.1,0.3
			C18.8,43.2,18.2,43.6,17.6,43.6z M82.3,43.4c-0.7,0-1.3-0.5-1.5-1.2c-0.1-0.7,0.3-1.5,1-1.7c0.8-0.3,1.6,0.2,1.9,0.9
			c0.1,0.2,0.1,0.3,0.1,0.5C83.8,42.8,83.2,43.4,82.3,43.4z M18.8,39.7c-0.2,0-0.3,0-0.5-0.1c-0.8-0.3-1.2-1.1-0.9-1.9
			c0,0,0,0,0-0.1c0.3-0.8,1.2-1.2,1.9-0.9s1.2,1.2,0.9,1.9C20,39.3,19.4,39.7,18.8,39.7z M81.1,39.6c-0.5,0-1.1-0.3-1.3-0.8
			c0-0.1-0.1-0.1-0.1-0.2c-0.3-0.8,0.2-1.6,0.9-1.9c0.8-0.3,1.6,0.1,1.9,0.9c0.3,0.7,0,1.6-0.7,1.9C81.6,39.6,81.4,39.6,81.1,39.6z
			 M20.5,36.1c-0.2,0-0.5-0.1-0.7-0.2c-0.7-0.4-1-1.3-0.7-2c0-0.1,0.1-0.1,0.1-0.2c0.5-0.7,1.4-0.9,2.1-0.4c0.7,0.4,0.9,1.3,0.5,2
			C21.5,35.8,21,36.1,20.5,36.1z M79.5,35.9c-0.5,0-1.1-0.3-1.3-0.8c-0.4-0.7-0.2-1.5,0.5-2c0.7-0.5,1.6-0.3,2.1,0.4
			c0.1,0.1,0.1,0.2,0.2,0.4c0.3,0.8-0.2,1.6-0.9,1.9C79.8,35.9,79.6,35.9,79.5,35.9z M22.5,32.6c-0.3,0-0.6-0.1-0.8-0.3
			c-0.7-0.5-0.9-1.4-0.4-2.1c0.1-0.1,0.1-0.2,0.2-0.2c0.6-0.6,1.5-0.6,2.1,0c0.5,0.5,0.6,1.4,0.1,2C23.4,32.4,23,32.6,22.5,32.6z
			 M77.4,32.5c-0.4,0-0.8-0.1-1.1-0.4c-0.1-0.1-0.1-0.2-0.2-0.2c-0.5-0.7-0.3-1.6,0.4-2.1c0.7-0.4,1.5-0.3,2,0.3
			c0.5,0.6,0.4,1.4-0.1,2C78.1,32.4,77.8,32.5,77.4,32.5z M25,29.4c-0.3,0-0.7-0.1-1-0.3c-0.6-0.5-0.7-1.5-0.2-2.1
			c0,0,0.1-0.1,0.1-0.1c0.6-0.6,1.5-0.6,2.1,0c0.6,0.6,0.6,1.5,0.1,2.1C25.9,29.3,25.4,29.4,25,29.4z M74.9,29.4
			c-0.3,0-0.6-0.1-0.8-0.3c-0.2-0.1-0.3-0.3-0.4-0.4c-0.5-0.7-0.3-1.6,0.4-2.1c0.6-0.4,1.5-0.3,1.9,0.2c0.5,0.5,0.5,1.3,0.1,1.8
			C75.9,29.1,75.4,29.4,74.9,29.4z M27.9,26.6c-0.4,0-0.9-0.2-1.2-0.6c-0.5-0.6-0.4-1.5,0.1-2c0.5-0.5,1.4-0.6,2-0.1
			c0.6,0.5,0.7,1.5,0.2,2.1c-0.1,0.1-0.1,0.2-0.2,0.2C28.5,26.5,28.2,26.6,27.9,26.6z M72,26.5c-0.4,0-0.7-0.1-1-0.4
			c-0.5-0.5-0.7-1.3-0.2-1.9c0.5-0.7,1.4-0.9,2.1-0.4c0.2,0.1,0.3,0.3,0.4,0.4c0.5,0.7,0.3,1.6-0.4,2.1C72.6,26.4,72.3,26.5,72,26.5
			z M31,24.1c-0.5,0-1-0.2-1.2-0.7c-0.5-0.7-0.3-1.6,0.4-2.1c0.6-0.5,1.5-0.3,2,0.3c0.5,0.6,0.4,1.6-0.2,2.1c0,0-0.1,0.1-0.1,0.1
			C31.6,24,31.3,24.1,31,24.1z M68.9,24c-0.3,0-0.6-0.1-0.9-0.3c-0.6-0.5-0.8-1.4-0.3-2c0.5-0.7,1.4-0.9,2.1-0.4
			c0.1,0.1,0.2,0.1,0.2,0.2c0.6,0.6,0.6,1.5,0,2.1C69.6,23.9,69.3,24,68.9,24z M34.5,22c-0.5,0-1-0.2-1.2-0.7
			c-0.5-0.7-0.3-1.6,0.4-2.1c0.1-0.1,0.2-0.1,0.4-0.2c0.8-0.3,1.6,0.2,1.9,0.9c0.2,0.7-0.1,1.5-0.7,1.8C35,22,34.7,22,34.5,22z
			 M65.4,22c-0.2,0-0.3,0-0.5-0.1c-0.1,0-0.3-0.1-0.4-0.2c-0.7-0.5-0.9-1.4-0.4-2.1c0.4-0.7,1.3-0.9,2-0.5c0.6,0.3,1,1.1,0.7,1.8
			C66.6,21.6,66.1,22,65.4,22z M38.1,20.4c-0.6,0-1.2-0.4-1.4-1c-0.2-0.7,0.1-1.6,0.8-1.9c0.7-0.3,1.5,0,1.9,0.6
			c0.4,0.7,0.2,1.6-0.6,2c-0.1,0-0.2,0.1-0.3,0.1C38.4,20.3,38.3,20.4,38.1,20.4z M61.8,20.3c-0.2,0-0.4,0-0.6-0.1
			c-0.7-0.3-1.1-1.1-0.9-1.9c0.3-0.8,1.1-1.2,1.9-0.9c0.1,0,0.1,0.1,0.2,0.1c0.7,0.4,1,1.3,0.7,2C62.8,20,62.3,20.3,61.8,20.3z
			 M42,19.1c-0.7,0-1.3-0.4-1.4-1.1c-0.2-0.8,0.2-1.6,1-1.9c0.1,0,0.3-0.1,0.4-0.1c0.8,0,1.5,0.7,1.5,1.5c0,0.7-0.5,1.4-1.2,1.5
			C42.1,19.1,42.1,19.1,42,19.1z M57.9,19.1c-0.2,0-0.3,0-0.5-0.1c-0.8-0.3-1.2-1.1-0.9-1.9c0.2-0.7,1-1.1,1.7-1
			c0.7,0.1,1.2,0.7,1.2,1.5C59.4,18.4,58.7,19.1,57.9,19.1z M45.9,18.4c-0.8,0-1.5-0.7-1.5-1.5c0-0.8,0.6-1.4,1.3-1.5
			c0.7-0.1,1.4,0.3,1.6,1c0.3,0.8-0.2,1.6-0.9,1.9C46.2,18.4,46.1,18.4,45.9,18.4z M54,18.4c-0.1,0-0.1,0-0.2,0
			c-0.8-0.1-1.3-0.7-1.3-1.5c0-0.8,0.7-1.5,1.5-1.5c0.1,0,0.3,0,0.4,0c0.8,0.2,1.3,1,1.1,1.8C55.2,17.9,54.6,18.4,54,18.4z
			 M49.9,18.2c-0.8,0-1.5-0.7-1.5-1.5s0.7-1.5,1.5-1.5h0c0.8,0,1.5,0.7,1.5,1.5S50.8,18.2,49.9,18.2z"/>
		<path d="M50.1,80.7L50.1,80.7c0,0-0.1,0-0.1,0h0c-0.8,0-1.5-0.7-1.5-1.5c0-0.8,0.7-1.6,1.6-1.5c0.8-0.1,1.6,0.7,1.6,1.5
			C51.6,80,50.9,80.7,50.1,80.7z M46,80.4c-0.2,0-0.3,0-0.5-0.1c-0.8-0.3-1.2-1.1-0.9-1.9c0.2-0.7,0.9-1.1,1.6-1
			c0.7,0.1,1.3,0.7,1.3,1.5C47.5,79.7,46.9,80.4,46,80.4z M54.1,80.4c-0.7,0-1.3-0.5-1.5-1.1c-0.2-0.8,0.3-1.6,1.1-1.8
			c0.9-0.2,1.9,0.5,1.9,1.5c0,0.8-0.6,1.4-1.3,1.5C54.2,80.4,54.1,80.4,54.1,80.4z M42.1,79.6c-0.1,0-0.3,0-0.4-0.1c0,0-0.1,0-0.1,0
			c-0.8-0.3-1.2-1.1-0.9-1.9c0.3-0.8,1.1-1.2,1.9-0.9c0.8,0.3,1.2,1.1,1,1.9C43.4,79.2,42.8,79.6,42.1,79.6z M58,79.6
			c-0.7,0-1.3-0.5-1.5-1.1c-0.2-0.8,0.3-1.6,1-1.8c0.8-0.2,1.6,0.2,1.9,1c0.3,0.8-0.2,1.6-0.9,1.9c0,0-0.1,0-0.1,0
			C58.2,79.5,58.1,79.6,58,79.6z M38.4,78.3c-0.2,0-0.3,0-0.5-0.1c-0.1,0-0.2-0.1-0.3-0.1c-0.7-0.4-1-1.3-0.6-2
			c0.4-0.7,1.2-0.9,1.9-0.6c0.7,0.3,1.1,1.1,0.8,1.9C39.6,77.9,39,78.3,38.4,78.3z M61.7,78.2c-0.5,0-1-0.2-1.2-0.7
			c-0.5-0.7-0.3-1.6,0.4-2.1c0.1-0.1,0.2-0.1,0.4-0.2c0.8-0.3,1.6,0.2,1.9,0.9c0.2,0.7-0.1,1.5-0.8,1.8
			C62.1,78.2,61.9,78.2,61.7,78.2z M34.9,76.4c-0.3,0-0.5-0.1-0.7-0.2c-0.6-0.4-0.9-1.2-0.7-1.9c0.3-0.8,1.2-1.1,1.9-0.8
			c0.1,0,0.2,0.1,0.3,0.1c0.7,0.5,0.9,1.4,0.4,2.1C35.8,76.2,35.3,76.4,34.9,76.4z M65.2,76.4c-0.6,0-1.2-0.4-1.4-1
			c-0.2-0.7,0.1-1.5,0.7-1.8c0.7-0.4,1.5-0.2,2,0.5c0.5,0.7,0.3,1.6-0.4,2.1c-0.1,0.1-0.2,0.1-0.4,0.2
			C65.5,76.3,65.4,76.4,65.2,76.4z M31.6,74.1c-0.3,0-0.6-0.1-0.9-0.3c-0.6-0.5-0.8-1.4-0.4-2c0.5-0.7,1.4-0.9,2.1-0.4
			c0,0,0.1,0.1,0.1,0.1c0.6,0.5,0.8,1.5,0.2,2.1C32.5,73.9,32,74.1,31.6,74.1z M68.5,74.1c-0.4,0-0.8-0.1-1.1-0.4
			c-0.6-0.6-0.6-1.5,0-2.1c0.1-0.1,0.2-0.1,0.2-0.2c0.7-0.5,1.6-0.3,2.1,0.4c0.4,0.7,0.3,1.5-0.3,2C69.1,74,68.8,74.1,68.5,74.1z
			 M28.7,71.4c-0.3,0-0.7-0.1-0.9-0.3c-0.1-0.1-0.2-0.2-0.3-0.3c-0.5-0.7-0.3-1.6,0.4-2.1c0.6-0.4,1.4-0.3,1.9,0.2
			c0.5,0.5,0.6,1.4,0.1,2C29.6,71.2,29.1,71.4,28.7,71.4z M71.4,71.3c-0.4,0-0.8-0.1-1.1-0.4c-0.6-0.6-0.6-1.5,0-2.1
			c0.6-0.6,1.5-0.6,2.1,0c0.6,0.6,0.6,1.5,0,2.1l0,0C72.1,71.2,71.8,71.3,71.4,71.3z M26.2,68.3c-0.5,0-0.9-0.2-1.2-0.6
			c-0.5-0.6-0.4-1.4,0.1-2c0.6-0.6,1.5-0.6,2.1,0c0.1,0.1,0.1,0.2,0.2,0.2c0.5,0.7,0.3,1.6-0.4,2.1C26.8,68.2,26.5,68.3,26.2,68.3z
			 M73.9,68.2c-0.4,0-0.8-0.1-1.1-0.4c-0.5-0.5-0.6-1.4-0.1-2c0.5-0.6,1.4-0.8,2-0.3c0.7,0.5,0.9,1.4,0.4,2.1
			c-0.1,0.1-0.1,0.2-0.2,0.2C74.6,68.1,74.3,68.2,73.9,68.2z M24.1,64.9c-0.5,0-1.1-0.3-1.3-0.8l0,0c-0.4-0.7-0.1-1.6,0.7-2
			c0.7-0.4,1.6-0.1,2,0.7c0.4,0.7,0.1,1.6-0.7,2C24.6,64.9,24.3,64.9,24.1,64.9z M75.9,64.8c-0.2,0-0.3,0-0.5-0.1
			c-0.8-0.3-1.2-1.1-0.9-1.9c0-0.1,0.1-0.3,0.2-0.4c0.5-0.7,1.4-0.9,2.1-0.4c0.7,0.4,0.9,1.3,0.5,2C77,64.5,76.5,64.8,75.9,64.8z
			 M77.5,61.2c-0.1,0-0.2,0-0.4,0c-0.8-0.2-1.3-1-1.1-1.8c0,0,0-0.1,0-0.1c0.3-0.8,1.1-1.2,1.9-0.9c0.8,0.3,1.2,1.1,1,1.9
			C78.8,60.8,78.2,61.2,77.5,61.2z M21.1,60.3c-0.3-0.8,0.1-1.6,0.9-1.9c0.8-0.3,1.6,0.1,1.9,0.9L21.1,60.3z M21.4,57.5
			c-0.7,0-1.3-0.5-1.5-1.2c-0.2-0.8,0.3-1.6,1.1-1.8c0.8-0.2,1.6,0.3,1.8,1.1c0,0,0,0.1,0,0.1c0.1,0.8-0.4,1.6-1.2,1.7
			C21.6,57.5,21.5,57.5,21.4,57.5z M78.6,57.4c-0.8,0-1.5-0.7-1.5-1.5c0-0.2,0-0.3,0.1-0.5c0.3-0.8,1.1-1.2,1.9-0.9
			c0.7,0.2,1.1,1,1,1.7C79.9,56.8,79.3,57.4,78.6,57.4z M20.9,53.5c-0.8,0-1.5-0.6-1.5-1.4c0-0.8,0.5-1.5,1.3-1.6
			c0.8-0.1,1.6,0.5,1.7,1.3c0,0.1,0,0.1,0,0.2C22.4,52.8,21.7,53.5,20.9,53.5z M79.1,53.4c-0.1,0-0.2,0-0.4,0
			c-0.7-0.2-1.2-0.9-1.1-1.6c0.1-0.8,0.7-1.3,1.5-1.3l0,0c0.8,0,1.5,0.7,1.5,1.5c0,0.1,0,0.3,0,0.4C80.4,53,79.8,53.4,79.1,53.4z
			 M20.9,49.5L20.9,49.5c-0.8,0-1.5-0.7-1.5-1.5c0-0.1,0-0.1,0-0.2c0.1-0.8,0.9-1.4,1.7-1.3c0.8,0.1,1.4,0.8,1.3,1.6
			C22.4,48.9,21.7,49.5,20.9,49.5z M79.1,49.4c-0.7,0-1.3-0.5-1.5-1.1c0-0.1,0-0.3,0-0.4c0-0.8,0.7-1.5,1.5-1.5
			c0.8,0,1.4,0.6,1.5,1.3c0.1,0.7-0.4,1.4-1.1,1.6C79.3,49.4,79.2,49.4,79.1,49.4z M21.4,45.6c-0.1,0-0.2,0-0.2,0
			c-0.8-0.1-1.4-0.9-1.2-1.7c0,0,0-0.1,0-0.1c0.2-0.8,1-1.3,1.8-1.1c0.8,0.2,1.3,1,1.1,1.8C22.8,45.1,22.1,45.6,21.4,45.6z
			 M78.5,45.5c-0.7,0-1.3-0.5-1.5-1.2c-0.1-0.7,0.3-1.5,1-1.7c0.8-0.3,1.6,0.2,1.9,0.9C80,43.7,80,43.8,80,44
			C80,44.8,79.4,45.5,78.5,45.5z M22.5,41.8c-0.2,0-0.3,0-0.5-0.1c-0.8-0.3-1.2-1.1-0.9-1.9c0,0,0,0,0-0.1c0.3-0.8,1.2-1.2,1.9-0.9
			c0.8,0.3,1.2,1.2,0.9,1.9C23.7,41.4,23.1,41.8,22.5,41.8z M77.5,41.7c-0.7,0-1.2-0.4-1.4-1.1c-0.2-0.8,0.2-1.6,1-1.9
			c0.8-0.3,1.6,0.2,1.9,0.9c0,0,0,0.1,0,0.1c0.2,0.8-0.3,1.6-1.1,1.8C77.7,41.7,77.6,41.7,77.5,41.7z M24.1,38.1
			c-0.2,0-0.5-0.1-0.7-0.2c-0.7-0.4-1-1.3-0.7-2l0,0c0.4-0.7,1.3-1,2-0.7c0.7,0.4,1,1.3,0.7,2C25.2,37.8,24.6,38.1,24.1,38.1z
			 M75.9,38c-0.5,0-1.1-0.3-1.3-0.8c-0.4-0.7-0.2-1.5,0.5-2c0.7-0.5,1.6-0.3,2.1,0.4c0.1,0.1,0.1,0.2,0.2,0.4
			c0.3,0.8-0.2,1.6-0.9,1.9C76.2,38,76,38,75.9,38z M26.2,34.7c-0.3,0-0.6-0.1-0.8-0.3c-0.7-0.5-0.9-1.4-0.4-2.1
			c0.1-0.1,0.1-0.2,0.2-0.2c0.6-0.6,1.5-0.6,2.1,0c0.5,0.5,0.6,1.4,0.1,2C27.1,34.5,26.6,34.7,26.2,34.7z M73.8,34.6
			c-0.4,0-0.8-0.1-1.1-0.4c-0.1-0.1-0.1-0.2-0.2-0.2c-0.5-0.7-0.3-1.6,0.4-2.1c0.7-0.4,1.5-0.3,2,0.3c0.5,0.6,0.4,1.4-0.1,2
			C74.6,34.5,74.2,34.6,73.8,34.6z M28.7,31.6c-0.4,0-0.9-0.2-1.2-0.6c-0.5-0.6-0.4-1.5,0.1-2c0.5-0.5,1.3-0.6,1.9-0.2
			c0.7,0.5,0.9,1.4,0.4,2.1c-0.1,0.1-0.2,0.2-0.3,0.3C29.3,31.5,29,31.6,28.7,31.6z M71.3,31.6c-0.4,0-0.8-0.1-1.1-0.4
			c-0.6-0.6-0.6-1.5,0-2.1c0.6-0.6,1.5-0.6,2.1,0l0,0c0.6,0.6,0.6,1.5,0,2.1C72,31.4,71.7,31.6,71.3,31.6z M31.6,28.9
			c-0.4,0-0.9-0.2-1.2-0.6c-0.5-0.6-0.4-1.6,0.2-2.1c0,0,0.1-0.1,0.1-0.1c0.7-0.5,1.6-0.3,2.1,0.4c0.4,0.7,0.3,1.6-0.4,2
			C32.2,28.8,31.9,28.9,31.6,28.9z M68.4,28.8c-0.3,0-0.6-0.1-0.9-0.3c-0.6-0.5-0.8-1.4-0.3-2c0.5-0.7,1.4-0.9,2.1-0.4
			c0.1,0.1,0.2,0.1,0.2,0.2c0.6,0.6,0.6,1.5,0,2.1C69.1,28.7,68.7,28.8,68.4,28.8z M34.8,26.6c-0.5,0-1-0.2-1.2-0.7
			c-0.5-0.7-0.3-1.6,0.4-2.1c0.1-0.1,0.2-0.1,0.3-0.1c0.8-0.3,1.6,0.1,1.9,0.8c0.3,0.7,0,1.5-0.7,1.9C35.3,26.5,35.1,26.6,34.8,26.6
			z M65.1,26.6c-0.2,0-0.3,0-0.5-0.1c-0.1,0-0.3-0.1-0.4-0.2c-0.7-0.5-0.9-1.4-0.4-2.1c0.4-0.7,1.3-0.9,2-0.5c0.6,0.3,1,1.1,0.7,1.8
			C66.3,26.2,65.7,26.6,65.1,26.6z M38.3,24.8c-0.6,0-1.2-0.4-1.4-1c-0.2-0.7,0.1-1.6,0.8-1.9c0.7-0.3,1.5,0,1.9,0.6
			c0.4,0.7,0.2,1.6-0.6,2c-0.1,0-0.2,0.1-0.3,0.1C38.7,24.7,38.5,24.8,38.3,24.8z M61.6,24.7c-0.2,0-0.4,0-0.6-0.1
			c-0.7-0.3-1-1.1-0.8-1.8c0.3-0.8,1.1-1.2,1.9-0.9c0.1,0,0.3,0.1,0.4,0.2c0.7,0.5,0.9,1.4,0.4,2.1C62.5,24.5,62.1,24.7,61.6,24.7z
			 M57.8,23.4c-0.1,0-0.2,0-0.4,0c0,0-0.1,0-0.1,0c-0.8-0.3-1.2-1.1-0.9-1.9c0.3-0.8,1.1-1.2,1.9-1c0.8,0.2,1.2,1,1,1.8
			C59.1,22.9,58.5,23.4,57.8,23.4z M42.6,23.3l-0.9-2.8c0.8-0.3,1.6,0.2,1.9,0.9C43.8,22.2,43.4,23.1,42.6,23.3z M46,22.6
			c-0.8,0-1.5-0.7-1.5-1.5c0-0.8,0.6-1.4,1.3-1.5c0.7-0.1,1.4,0.3,1.6,1c0.3,0.8-0.2,1.6-0.9,1.9C46.3,22.6,46.1,22.6,46,22.6z
			 M53.9,22.6c-0.1,0-0.1,0-0.2,0c-0.8-0.1-1.3-0.7-1.3-1.5c0-0.8,0.7-1.5,1.5-1.5c0.1,0,0.3,0,0.4,0c0.8,0.2,1.3,1,1.1,1.8
			C55.2,22.1,54.6,22.6,53.9,22.6z M50,22.3c-0.8,0-1.5-0.7-1.5-1.5s0.7-1.5,1.5-1.5h0c0.8,0,1.5,0.7,1.5,1.5S50.8,22.3,50,22.3z"/>
		<path d="M50,76.5L50,76.5c-0.8,0-1.5-0.7-1.5-1.5c0-0.8,0.7-1.5,1.5-1.5c0.9,0,1.6,0.6,1.6,1.5c0,0.8-0.7,1.5-1.5,1.5L50,76.5
			C50.1,76.5,50,76.5,50,76.5z M46,76.2c-0.1,0-0.2,0-0.3,0c-0.7-0.1-1.2-0.7-1.2-1.5c0-0.8,0.7-1.5,1.5-1.5c0.1,0,0.3,0,0.4,0.1
			c0.8,0.2,1.3,1.1,1,1.9C47.2,75.8,46.6,76.2,46,76.2z M54.1,76.2c-0.8,0-1.5-0.7-1.5-1.5c0-0.7,0.5-1.3,1.2-1.5
			c0.7-0.1,1.5,0.3,1.7,1c0.3,0.8-0.2,1.6-0.9,1.9C54.4,76.1,54.3,76.2,54.1,76.2z M42.1,75.2c-0.1,0-0.3,0-0.4-0.1c0,0-0.1,0-0.1,0
			c-0.8-0.3-1.2-1.1-0.9-1.9c0.3-0.8,1.1-1.2,1.9-0.9c0.8,0.3,1.2,1.1,1,1.9C43.3,74.8,42.7,75.2,42.1,75.2z M58,75.2
			c-0.7,0-1.3-0.5-1.5-1.1c-0.2-0.8,0.3-1.6,1-1.8c0.8-0.2,1.6,0.2,1.9,1c0.3,0.8-0.2,1.6-0.9,1.9c0,0-0.1,0-0.1,0
			C58.2,75.2,58.1,75.2,58,75.2z M38.4,73.6c-0.2,0-0.5-0.1-0.7-0.2c-0.6-0.3-1-1.1-0.7-1.8c0.3-0.8,1.1-1.2,1.9-0.9
			c0.1,0,0.3,0.1,0.4,0.2c0.7,0.5,0.9,1.4,0.4,2.1C39.3,73.4,38.9,73.6,38.4,73.6z M61.7,73.6c-0.6,0-1.2-0.4-1.4-1
			c-0.2-0.7,0.1-1.5,0.7-1.8c0.7-0.4,1.5-0.2,2,0.5c0.5,0.7,0.3,1.6-0.4,2.1c-0.1,0.1-0.2,0.1-0.4,0.2C62,73.6,61.8,73.6,61.7,73.6z
			 M35,71.5c-0.3,0-0.6-0.1-0.9-0.3c-0.6-0.5-0.8-1.4-0.4-2c0.5-0.7,1.4-0.9,2.1-0.4c0,0,0.1,0.1,0.1,0.1c0.6,0.5,0.8,1.5,0.2,2.1
			C35.9,71.3,35.4,71.5,35,71.5z M65.1,71.4c-0.4,0-0.8-0.1-1.1-0.4c-0.6-0.6-0.6-1.5,0-2.1c0.1-0.1,0.2-0.1,0.2-0.2
			c0.7-0.5,1.6-0.3,2.1,0.4c0.4,0.7,0.3,1.5-0.3,2C65.7,71.3,65.4,71.4,65.1,71.4z M32,68.8c-0.3,0-0.7-0.1-0.9-0.3
			c-0.1-0.1-0.2-0.2-0.3-0.3c-0.5-0.7-0.3-1.6,0.4-2.1c0.6-0.4,1.4-0.3,1.9,0.2c0.5,0.5,0.6,1.4,0.1,2C32.9,68.6,32.4,68.8,32,68.8z
			 M68.1,68.8c-0.4,0-0.8-0.1-1.1-0.4c-0.6-0.6-0.6-1.5,0-2.1s1.5-0.6,2.1,0s0.6,1.5,0,2.1l0,0C68.8,68.6,68.5,68.8,68.1,68.8z
			 M29.4,65.7c-0.5,0-0.9-0.2-1.2-0.6c-0.5-0.6-0.4-1.4,0.1-2c0.6-0.6,1.5-0.6,2.1,0c0.1,0.1,0.1,0.2,0.2,0.2
			c0.5,0.7,0.3,1.6-0.4,2.1C30,65.6,29.7,65.7,29.4,65.7z M70.6,65.6c-0.4,0-0.8-0.1-1.1-0.4c-0.5-0.5-0.6-1.4-0.1-2
			c0.5-0.6,1.4-0.8,2-0.3c0.7,0.5,0.9,1.4,0.4,2.1c-0.1,0.1-0.1,0.2-0.2,0.2C71.4,65.5,71,65.6,70.6,65.6z M27.4,62.2
			c-0.5,0-1.1-0.3-1.3-0.8l0,0c-0.4-0.7-0.1-1.6,0.7-2c0.7-0.4,1.6-0.1,2,0.7c0.4,0.7,0.1,1.6-0.7,2C27.9,62.2,27.6,62.2,27.4,62.2z
			 M72.6,62.1c-0.3,0-0.6-0.1-0.8-0.3c-0.6-0.4-0.8-1.2-0.5-1.9c0.3-0.7,1.1-1.1,1.8-0.8c0.8,0.3,1.2,1.1,0.9,1.9
			c0,0.1-0.1,0.3-0.2,0.4C73.6,61.9,73.1,62.1,72.6,62.1z M26,58.5c-0.6,0-1.2-0.4-1.4-1c0,0,0-0.1,0-0.1c-0.2-0.8,0.3-1.6,1.1-1.8
			c0.8-0.2,1.6,0.3,1.8,1c0.2,0.8-0.2,1.6-1,1.9C26.3,58.5,26.1,58.5,26,58.5z M74,58.4c-0.1,0-0.2,0-0.4,0c-0.8-0.2-1.3-1-1.1-1.8
			c0,0,0-0.1,0-0.1c0.3-0.8,1.1-1.2,1.9-0.9c0.8,0.3,1.2,1.1,1,1.9C75.3,58,74.7,58.4,74,58.4z M25.2,54.5c-0.7,0-1.4-0.5-1.5-1.3
			c0-0.1,0-0.2,0-0.3c0-0.8,0.7-1.5,1.5-1.5c0.8,0,1.4,0.6,1.5,1.4c0.1,0.8-0.5,1.5-1.2,1.6C25.3,54.5,25.3,54.5,25.2,54.5z
			 M74.8,54.4c-0.1,0-0.2,0-0.4,0c-0.7-0.2-1.2-0.9-1.1-1.6c0.1-0.8,0.7-1.3,1.5-1.3l0,0c0.8,0,1.5,0.7,1.5,1.5c0,0.1,0,0.3,0,0.4
			C76.1,54,75.5,54.4,74.8,54.4z M25,50.5L25,50.5c-0.8,0-1.5-0.7-1.5-1.5c0-0.1,0-0.1,0-0.2c0.1-0.8,0.9-1.4,1.7-1.3
			c0.8,0.1,1.4,0.8,1.3,1.6C26.5,49.9,25.8,50.5,25,50.5z M75,50.4c-0.8,0-1.5-0.7-1.5-1.5s0.7-1.5,1.5-1.5s1.5,0.7,1.5,1.5v0
			C76.5,49.8,75.8,50.4,75,50.4z M25.5,46.5c-0.1,0-0.2,0-0.2,0c-0.8-0.1-1.4-0.9-1.2-1.7c0,0,0-0.1,0-0.1c0.2-0.8,1-1.3,1.8-1.1
			c0.8,0.2,1.3,1,1.1,1.8C26.8,46,26.2,46.5,25.5,46.5z M74.5,46.4c-0.7,0-1.3-0.5-1.5-1.2c-0.1-0.7,0.3-1.5,1-1.7
			c0.8-0.3,1.6,0.2,1.9,0.9c0.1,0.2,0.1,0.3,0.1,0.5C76,45.8,75.3,46.4,74.5,46.4z M26.6,42.7c-0.2,0-0.3,0-0.5-0.1
			c-0.8-0.3-1.2-1.1-0.9-1.9c0,0,0,0,0-0.1c0.3-0.8,1.2-1.2,1.9-0.9c0.8,0.3,1.2,1.2,0.9,1.9C27.8,42.3,27.2,42.7,26.6,42.7z
			 M73.4,42.6c-0.5,0-1.1-0.3-1.3-0.8c0-0.1-0.1-0.1-0.1-0.2c-0.3-0.8,0.2-1.6,0.9-1.9c0.8-0.3,1.6,0.1,1.9,0.9
			c0.3,0.7,0,1.6-0.7,1.9C73.8,42.5,73.6,42.6,73.4,42.6z M28.3,39c-0.2,0-0.5-0.1-0.7-0.2c-0.7-0.4-1-1.3-0.7-2
			c0-0.1,0.1-0.1,0.1-0.2c0.5-0.7,1.4-0.9,2.1-0.4c0.7,0.4,0.9,1.3,0.5,2C29.4,38.8,28.9,39,28.3,39z M71.6,39
			c-0.5,0-1.1-0.3-1.3-0.8c-0.4-0.7-0.2-1.5,0.5-2c0.7-0.5,1.6-0.3,2.1,0.4c0.1,0.1,0.1,0.2,0.2,0.4c0.3,0.8-0.2,1.6-0.9,1.9
			C71.9,38.9,71.8,39,71.6,39z M30.6,35.7c-0.3,0-0.6-0.1-0.8-0.3c-0.7-0.5-0.9-1.4-0.4-2.1c0.1-0.1,0.2-0.3,0.3-0.3
			c0.6-0.5,1.6-0.4,2.1,0.2c0.5,0.6,0.4,1.4,0,1.9C31.5,35.5,31.1,35.7,30.6,35.7z M69.3,35.7c-0.3,0-0.6-0.1-0.8-0.3
			c-0.2-0.1-0.3-0.3-0.4-0.4c-0.5-0.7-0.3-1.6,0.4-2.1c0.6-0.4,1.5-0.3,1.9,0.2c0.5,0.5,0.5,1.3,0.1,1.8
			C70.3,35.4,69.8,35.7,69.3,35.7z M33.4,32.8c-0.4,0-0.9-0.2-1.2-0.6c-0.5-0.6-0.4-1.5,0.1-2c0.5-0.5,1.4-0.6,2-0.1
			c0.6,0.5,0.7,1.5,0.2,2.1c-0.1,0.1-0.1,0.2-0.2,0.2C34.1,32.7,33.7,32.8,33.4,32.8z M66.5,32.8c-0.4,0-0.7-0.1-1-0.4
			c-0.5-0.5-0.7-1.3-0.2-1.9c0.5-0.7,1.4-0.9,2.1-0.4c0.2,0.1,0.3,0.3,0.4,0.4c0.5,0.7,0.3,1.6-0.4,2.1
			C67.1,32.7,66.8,32.8,66.5,32.8z M36.6,30.4c-0.5,0-1-0.2-1.2-0.7c-0.5-0.7-0.3-1.6,0.4-2.1c0.6-0.5,1.5-0.3,2,0.3
			c0.5,0.6,0.4,1.6-0.2,2.1c0,0-0.1,0.1-0.1,0.1C37.2,30.3,36.9,30.4,36.6,30.4z M63.3,30.3c-0.2,0-0.3,0-0.5-0.1
			c-0.1,0-0.3-0.1-0.4-0.2c-0.7-0.5-0.9-1.4-0.4-2.1c0.4-0.7,1.3-0.9,2-0.5c0.6,0.3,1,1.1,0.7,1.8C64.5,30,63.9,30.3,63.3,30.3z
			 M40.2,28.5c-0.6,0-1.2-0.4-1.4-1c-0.2-0.7,0.1-1.6,0.8-1.9c0.7-0.3,1.5,0,1.9,0.6c0.4,0.7,0.2,1.6-0.6,2c-0.1,0-0.2,0.1-0.3,0.1
			C40.5,28.5,40.3,28.5,40.2,28.5z M59.8,28.5c-0.2,0-0.4,0-0.6-0.1c-0.7-0.3-1-1.1-0.8-1.8c0.3-0.8,1.1-1.2,1.9-0.9
			c0.1,0,0.3,0.1,0.4,0.2c0.7,0.5,0.9,1.4,0.4,2.1C60.7,28.2,60.2,28.5,59.8,28.5z M44,27.2c-0.7,0-1.3-0.4-1.4-1.1
			c-0.2-0.8,0.2-1.6,1-1.9c0.1,0,0.3-0.1,0.4-0.1c0.8,0,1.5,0.7,1.5,1.5c0,0.7-0.5,1.4-1.2,1.5C44.2,27.2,44.1,27.2,44,27.2z
			 M55.9,27.2c-0.2,0-0.3,0-0.5-0.1c-0.8-0.3-1.2-1.1-0.9-1.9c0.2-0.7,1-1.1,1.7-1c0.7,0.1,1.2,0.7,1.2,1.5
			C57.4,26.5,56.8,27.2,55.9,27.2z M47.9,26.6c-0.8,0-1.5-0.7-1.5-1.5c0-0.8,0.6-1.4,1.3-1.5c0.7-0.1,1.4,0.3,1.6,1
			c0.3,0.8-0.2,1.6-0.9,1.9C48.3,26.6,48.1,26.6,47.9,26.6z M52,26.6c-0.1,0-0.1,0-0.2,0c-0.8-0.1-1.3-0.7-1.3-1.5
			c0-0.8,0.7-1.5,1.5-1.5c0.1,0,0.3,0,0.4,0c0.8,0.2,1.3,1,1.1,1.8C53.3,26.1,52.6,26.6,52,26.6z"/>
		<path d="M50,72.3L50,72.3c-0.8,0-1.5-0.7-1.5-1.5c0-0.8,0.7-1.5,1.5-1.5c0.8,0,1.6,0.7,1.6,1.5C51.6,71.7,50.9,72.3,50,72.3
			L50,72.3C50,72.3,50,72.3,50,72.3z M46.1,72c-0.1,0-0.2,0-0.3,0c-0.7-0.1-1.2-0.7-1.2-1.5c0-0.8,0.7-1.5,1.5-1.5
			c0.1,0,0.3,0,0.4,0.1c0.8,0.2,1.3,1.1,1,1.9C47.3,71.5,46.7,72,46.1,72z M54,71.9c-0.8,0-1.5-0.7-1.5-1.5c0-0.7,0.5-1.3,1.2-1.5
			c0.7-0.1,1.5,0.3,1.7,1c0.3,0.8-0.2,1.6-0.9,1.9C54.3,71.9,54.2,71.9,54,71.9z M42.3,70.8c-0.2,0-0.3,0-0.5-0.1
			c-0.1,0-0.2-0.1-0.3-0.1c-0.7-0.4-1-1.3-0.6-2c0.4-0.7,1.2-0.9,1.9-0.6c0.7,0.3,1.1,1.1,0.8,1.9C43.5,70.4,42.9,70.8,42.3,70.8z
			 M57.8,70.8c-0.5,0-1-0.2-1.2-0.7c-0.5-0.7-0.3-1.6,0.4-2.1c0.1-0.1,0.2-0.1,0.4-0.2c0.8-0.3,1.6,0.2,1.9,0.9
			c0.2,0.7-0.1,1.5-0.8,1.8C58.2,70.8,58,70.8,57.8,70.8z M38.7,69c-0.3,0-0.5-0.1-0.7-0.2c-0.6-0.4-0.9-1.2-0.7-1.9
			c0.3-0.8,1.2-1.1,1.9-0.8c0.1,0,0.2,0.1,0.3,0.1c0.7,0.5,0.9,1.4,0.4,2.1C39.7,68.8,39.2,69,38.7,69z M61.3,69
			c-0.4,0-0.8-0.1-1.1-0.4c-0.6-0.6-0.6-1.5,0-2.1c0.1-0.1,0.2-0.1,0.2-0.2c0.7-0.5,1.6-0.3,2.1,0.4c0.4,0.7,0.3,1.5-0.3,2
			C62,68.9,61.6,69,61.3,69z M35.6,66.6c-0.3,0-0.7-0.1-0.9-0.3c-0.1-0.1-0.2-0.1-0.2-0.2c-0.5-0.6-0.4-1.6,0.2-2.1
			c0.6-0.5,1.5-0.5,2,0.1c0.6,0.5,0.6,1.4,0.1,2C36.5,66.4,36.1,66.6,35.6,66.6z M64.4,66.5c-0.4,0-0.8-0.1-1.1-0.4
			c-0.6-0.6-0.6-1.5,0-2.1s1.5-0.6,2.1,0c0.6,0.6,0.6,1.5,0,2.1l0,0C65.2,66.4,64.8,66.5,64.4,66.5z M33,63.6
			c-0.5,0-0.9-0.2-1.2-0.6c-0.5-0.6-0.4-1.4,0.1-2c0.6-0.6,1.5-0.6,2.1,0c0.1,0.1,0.1,0.2,0.2,0.2c0.5,0.7,0.3,1.6-0.4,2.1
			C33.6,63.5,33.3,63.6,33,63.6z M67,63.5c-0.4,0-0.8-0.1-1.1-0.4c-0.5-0.5-0.6-1.4-0.1-2c0.5-0.6,1.4-0.8,2-0.3
			c0.7,0.5,0.9,1.4,0.4,2.1c-0.1,0.1-0.1,0.2-0.2,0.2C67.8,63.4,67.4,63.5,67,63.5z M31.1,60.2c-0.6,0-1.1-0.3-1.3-0.8
			c0-0.1-0.1-0.1-0.1-0.2c-0.3-0.8,0.2-1.6,0.9-1.9c0.7-0.3,1.5,0.1,1.9,0.8c0.3,0.7,0,1.6-0.7,1.9C31.5,60.1,31.3,60.2,31.1,60.2z
			 M69,60.1c-0.3,0-0.6-0.1-0.8-0.3c-0.6-0.4-0.8-1.2-0.5-1.9c0.3-0.7,1.1-1,1.8-0.8c0.8,0.3,1.2,1.1,0.9,1.9c0,0.1-0.1,0.3-0.2,0.4
			C69.9,59.9,69.5,60.1,69,60.1z M29.8,56.4c-0.6,0-1.2-0.4-1.4-1c0-0.1-0.1-0.2-0.1-0.3c-0.1-0.8,0.5-1.6,1.3-1.7
			c0.8-0.1,1.5,0.4,1.6,1.1c0.2,0.8-0.2,1.5-1,1.8C30.1,56.4,29.9,56.4,29.8,56.4z M70.3,56.4c-0.8,0-1.5-0.7-1.5-1.5
			c0-0.2,0-0.3,0.1-0.5c0.3-0.8,1.1-1.2,1.9-0.9c0.7,0.2,1.1,1,1,1.7C71.6,55.8,71,56.4,70.3,56.4z M29.2,52.5
			c-0.8,0-1.5-0.6-1.5-1.4c0-0.8,0.5-1.5,1.3-1.6c0.8-0.1,1.6,0.5,1.7,1.3c0,0.1,0,0.1,0,0.2C30.7,51.8,30,52.5,29.2,52.5z
			 M70.8,52.4c-0.8,0-1.5-0.7-1.5-1.5s0.7-1.5,1.5-1.5c0.8,0,1.5,0.7,1.5,1.5v0C72.3,51.8,71.6,52.4,70.8,52.4z M70.6,48.5
			c-0.7,0-1.3-0.5-1.5-1.1c0-0.1,0-0.3,0-0.4c0-0.8,0.7-1.5,1.5-1.5c0.8,0,1.4,0.6,1.5,1.3c0.1,0.7-0.4,1.4-1.1,1.6
			C70.9,48.5,70.7,48.5,70.6,48.5z M30.9,47.2l-3-0.4c0.1-0.8,0.9-1.4,1.7-1.3C30.4,45.7,31,46.4,30.9,47.2z M30.3,44.7
			c-0.2,0-0.3,0-0.5-0.1c-0.8-0.3-1.2-1.1-0.9-1.9c0,0,0,0,0-0.1c0.3-0.8,1.2-1.2,1.9-0.9c0.8,0.3,1.2,1.2,0.9,1.9
			C31.5,44.3,30.9,44.7,30.3,44.7z M69.7,44.6c-0.7,0-1.2-0.4-1.4-1.1c-0.2-0.8,0.2-1.6,1-1.9c0.8-0.3,1.6,0.2,1.9,0.9
			c0,0,0,0.1,0,0.1c0.2,0.8-0.3,1.6-1.1,1.8C69.9,44.6,69.8,44.6,69.7,44.6z M31.9,41.1c-0.2,0-0.5-0.1-0.7-0.2
			c-0.7-0.4-1-1.3-0.7-2c0-0.1,0.1-0.1,0.1-0.2c0.5-0.7,1.4-0.9,2.1-0.4c0.7,0.4,0.9,1.3,0.5,2C33,40.8,32.5,41.1,31.9,41.1z M68,41
			c-0.5,0-1.1-0.3-1.3-0.8c-0.4-0.7-0.2-1.5,0.5-2c0.7-0.5,1.6-0.3,2.1,0.4c0.1,0.1,0.1,0.2,0.2,0.4c0.3,0.8-0.2,1.6-0.9,1.9
			C68.3,41,68.2,41,68,41z M34.2,37.9c-0.3,0-0.6-0.1-0.8-0.3c-0.7-0.5-0.9-1.4-0.4-2.1c0.1-0.1,0.2-0.3,0.3-0.3
			c0.6-0.5,1.6-0.4,2.1,0.2c0.5,0.6,0.4,1.4,0,1.9C35.1,37.7,34.7,37.9,34.2,37.9z M65.7,37.8c-0.3,0-0.6-0.1-0.8-0.3
			c-0.2-0.1-0.3-0.3-0.4-0.4c-0.5-0.7-0.3-1.6,0.4-2.1c0.6-0.4,1.5-0.3,1.9,0.2c0.5,0.5,0.5,1.3,0.1,1.8
			C66.7,37.6,66.2,37.8,65.7,37.8z M37.1,35.2c-0.4,0-0.9-0.2-1.2-0.6c-0.5-0.6-0.4-1.6,0.2-2.1c0,0,0.1-0.1,0.1-0.1
			c0.7-0.5,1.6-0.3,2.1,0.4c0.4,0.7,0.3,1.6-0.4,2C37.7,35.1,37.4,35.2,37.1,35.2z M62.8,35.1c-0.3,0-0.6-0.1-0.9-0.3
			c-0.6-0.5-0.8-1.4-0.3-2c0.5-0.7,1.4-0.9,2.1-0.4c0.1,0.1,0.2,0.1,0.2,0.2c0.6,0.6,0.6,1.5,0,2.1C63.6,35,63.2,35.1,62.8,35.1z
			 M40.4,33c-0.5,0-1-0.2-1.2-0.7c-0.5-0.7-0.3-1.6,0.4-2.1c0.1-0.1,0.2-0.1,0.4-0.2c0.8-0.3,1.6,0.2,1.9,0.9
			c0.2,0.7-0.1,1.5-0.7,1.8C40.9,32.9,40.7,33,40.4,33z M59.5,33c-0.2,0-0.3,0-0.5-0.1c-0.1,0-0.3-0.1-0.4-0.2
			c-0.7-0.5-0.9-1.4-0.4-2.1c0.4-0.7,1.3-0.9,2-0.5c0.6,0.3,1,1.1,0.7,1.8C60.7,32.6,60.1,33,59.5,33z M44.1,31.5
			c-0.6,0-1.2-0.4-1.4-1.1c-0.2-0.8,0.2-1.6,1-1.9c0,0,0.1,0,0.1,0c0.8-0.2,1.6,0.2,1.9,1c0.2,0.8-0.2,1.6-1,1.9
			C44.4,31.5,44.2,31.5,44.1,31.5z M55.8,31.5c-0.1,0-0.2,0-0.4,0c0,0-0.1,0-0.1,0c-0.8-0.3-1.2-1.1-0.9-1.9c0.3-0.8,1.1-1.2,1.9-1
			c0.8,0.2,1.2,1,1,1.8C57.1,31,56.5,31.5,55.8,31.5z M48,30.8c-0.8,0-1.5-0.7-1.5-1.5c0-0.8,0.6-1.4,1.3-1.5c0.7-0.1,1.4,0.3,1.6,1
			c0.3,0.8-0.2,1.6-0.9,1.9C48.3,30.7,48.1,30.8,48,30.8z M51.9,30.8c-0.1,0-0.1,0-0.2,0c-0.8-0.1-1.3-0.7-1.3-1.5
			c0-0.8,0.7-1.5,1.5-1.5c0.1,0,0.3,0,0.4,0c0.8,0.2,1.3,1,1.1,1.8C53.2,30.3,52.6,30.8,51.9,30.8z"/>
		<path d="M48,68c-0.2,0-0.3,0-0.5-0.1c-0.8-0.3-1.2-1.1-0.9-1.9c0.2-0.7,0.9-1.1,1.6-1c0.7,0.1,1.3,0.7,1.3,1.5
			C49.5,67.4,48.8,68,48,68z M52,68c-0.7,0-1.3-0.5-1.5-1.1c-0.2-0.8,0.3-1.6,1.1-1.8c0.9-0.2,1.9,0.5,1.9,1.5
			c0,0.8-0.6,1.4-1.3,1.5C52.1,68,52.1,68,52,68z M44.1,67.1c-0.2,0-0.3,0-0.5-0.1c-0.1,0-0.2-0.1-0.3-0.1c-0.7-0.4-1-1.3-0.6-2
			c0.4-0.7,1.2-0.9,1.9-0.6c0.7,0.3,1.1,1.1,0.8,1.9C45.3,66.7,44.7,67.1,44.1,67.1z M55.9,67.1c-0.5,0-1.1-0.3-1.3-0.8
			c-0.4-0.7-0.1-1.6,0.7-2c0.1,0,0.1-0.1,0.2-0.1c0.8-0.3,1.6,0.2,1.9,0.9c0.3,0.8-0.1,1.6-0.9,1.9C56.3,67.1,56.1,67.1,55.9,67.1z
			 M40.5,65.2c-0.3,0-0.6-0.1-0.8-0.3c0,0-0.1-0.1-0.1-0.1c-0.6-0.5-0.8-1.5-0.2-2.1c0.5-0.6,1.4-0.7,2-0.3c0.7,0.5,0.8,1.4,0.4,2.1
			C41.5,65,41,65.2,40.5,65.2z M59.5,65.2c-0.4,0-0.8-0.1-1.1-0.4c-0.6-0.6-0.6-1.5,0-2.1c0.1-0.1,0.2-0.1,0.2-0.2
			c0.7-0.5,1.6-0.3,2.1,0.4c0.4,0.7,0.3,1.5-0.3,2C60.1,65.1,59.8,65.2,59.5,65.2z M37.5,62.6c-0.4,0-0.8-0.2-1.1-0.5
			c-0.5-0.6-0.5-1.5,0.1-2.1c0.6-0.6,1.5-0.6,2.1,0c0,0,0.1,0.1,0.1,0.1c0.5,0.6,0.4,1.6-0.2,2.1C38.2,62.5,37.9,62.6,37.5,62.6z
			 M62.5,62.6c-0.5,0-1-0.2-1.2-0.7c-0.4-0.6-0.3-1.3,0.1-1.8c0.5-0.5,1.3-0.7,1.9-0.2c0.7,0.5,0.9,1.4,0.4,2.1
			c-0.1,0.2-0.3,0.3-0.4,0.4C63,62.5,62.8,62.6,62.5,62.6z M35.3,59.3c-0.5,0-1-0.3-1.3-0.8c-0.4-0.7-0.2-1.5,0.5-2
			c0.7-0.5,1.6-0.3,2.1,0.4c0,0.1,0.1,0.1,0.1,0.2c0.4,0.7,0.1,1.6-0.7,2C35.7,59.2,35.5,59.3,35.3,59.3z M64.8,59.3
			c-0.2,0-0.3,0-0.5-0.1c-0.8-0.3-1.2-1.1-0.9-1.9c0-0.1,0.1-0.3,0.2-0.4c0.5-0.7,1.4-0.9,2.1-0.4c0.7,0.4,0.9,1.3,0.5,2
			C65.8,58.9,65.3,59.3,64.8,59.3z M33.8,55.5c-0.6,0-1.2-0.4-1.4-1c0-0.1-0.1-0.2-0.1-0.3c-0.1-0.8,0.5-1.6,1.3-1.7
			c0.8-0.1,1.5,0.4,1.6,1.1c0.2,0.8-0.2,1.5-1,1.8C34.1,55.5,34,55.5,33.8,55.5z M66.2,55.5c-0.8,0-1.5-0.7-1.5-1.5
			c0-0.2,0-0.3,0.1-0.5c0.3-0.8,1.1-1.2,1.9-0.9c0.7,0.2,1.1,1,1,1.7C67.5,55,66.9,55.5,66.2,55.5z M33.3,51.5
			c-0.8,0-1.5-0.7-1.5-1.5v0c0-0.8,0.7-1.5,1.5-1.5s1.5,0.7,1.5,1.5S34.2,51.5,33.3,51.5z M66.7,51.5c-0.8,0-1.5-0.7-1.5-1.5
			c0,0,0,0,0,0s0,0,0,0c0-0.8,0.7-1.5,1.5-1.5s1.5,0.7,1.5,1.5v0c0,0,0,0,0,0s0,0,0,0v0C68.2,50.8,67.5,51.5,66.7,51.5z M33.8,47.5
			c-0.2,0-0.3,0-0.5-0.1c-0.7-0.2-1.2-1-1-1.8c0.2-0.7,0.9-1.2,1.6-1.1c0.8,0.1,1.4,0.9,1.3,1.7c0,0.1,0,0.2-0.1,0.3
			C35,47.2,34.4,47.5,33.8,47.5z M66.2,47.5c-0.7,0-1.3-0.5-1.5-1.2c-0.1-0.7,0.3-1.5,1-1.7c0.8-0.3,1.6,0.2,1.9,0.9
			c0.1,0.2,0.1,0.3,0.1,0.5C67.7,46.8,67,47.5,66.2,47.5z M35.2,43.8c-0.2,0-0.5-0.1-0.7-0.2c-0.7-0.4-1-1.3-0.7-2
			c0-0.1,0.1-0.1,0.1-0.2c0.5-0.7,1.4-0.9,2.1-0.4c0.7,0.4,0.9,1.3,0.5,2C36.3,43.5,35.7,43.8,35.2,43.8z M64.7,43.7
			c-0.5,0-1.1-0.3-1.3-0.8c-0.4-0.7-0.2-1.5,0.5-2c0.7-0.5,1.6-0.3,2.1,0.4c0.1,0.1,0.1,0.2,0.2,0.4c0.3,0.8-0.2,1.6-0.9,1.9
			C65.1,43.7,64.9,43.7,64.7,43.7z M37.5,40.5c-0.3,0-0.7-0.1-1-0.3c-0.6-0.5-0.7-1.5-0.2-2.1c0,0,0.1-0.1,0.1-0.1
			c0.6-0.6,1.5-0.6,2.1,0c0.6,0.6,0.6,1.5,0.1,2.1C38.3,40.3,37.9,40.5,37.5,40.5z M62.4,40.4c-0.3,0-0.6-0.1-0.8-0.3
			c-0.2-0.1-0.3-0.3-0.4-0.4c-0.5-0.7-0.3-1.6,0.4-2.1c0.6-0.4,1.5-0.3,1.9,0.2c0.5,0.5,0.5,1.3,0.1,1.8
			C63.4,40.2,62.9,40.4,62.4,40.4z M40.5,37.8c-0.5,0-1-0.2-1.2-0.7c-0.5-0.7-0.3-1.6,0.4-2.1c0.6-0.5,1.5-0.3,2,0.3
			c0.5,0.6,0.4,1.6-0.2,2.1c0,0-0.1,0.1-0.1,0.1C41.1,37.7,40.8,37.8,40.5,37.8z M59.4,37.8c-0.3,0-0.6-0.1-0.9-0.3
			c-0.6-0.5-0.8-1.4-0.3-2c0.5-0.7,1.4-0.9,2.1-0.4c0.1,0.1,0.2,0.1,0.2,0.2c0.6,0.6,0.6,1.5,0,2.1C60.2,37.6,59.8,37.8,59.4,37.8z
			 M44,35.9c-0.6,0-1.2-0.4-1.4-1c-0.2-0.7,0.1-1.6,0.8-1.9c0.7-0.3,1.5,0,1.9,0.6c0.4,0.7,0.2,1.6-0.6,2c-0.1,0-0.2,0.1-0.3,0.1
			C44.4,35.9,44.2,35.9,44,35.9z M55.9,35.9c-0.2,0-0.4,0-0.6-0.1c-0.7-0.3-1.1-1.1-0.9-1.9c0.3-0.8,1.1-1.2,1.9-0.9
			c0.1,0,0.1,0.1,0.2,0.1c0.7,0.4,1,1.3,0.7,2C56.9,35.6,56.4,35.9,55.9,35.9z M47.9,35c-0.8,0-1.5-0.7-1.5-1.5
			c0-0.8,0.6-1.4,1.3-1.5c0.7-0.1,1.4,0.3,1.6,1c0.3,0.8-0.2,1.6-0.9,1.9C48.3,34.9,48.1,35,47.9,35z M52,34.9c-0.1,0-0.1,0-0.2,0
			c-0.8-0.1-1.3-0.7-1.3-1.5c0-0.8,0.7-1.5,1.5-1.5c0.1,0,0.3,0,0.4,0c0.8,0.2,1.3,1,1.1,1.8C53.2,34.5,52.6,34.9,52,34.9z"/>
		<path d="M50,64L50,64C50,64,50,64,50,64L50,64c-0.9,0-1.6-0.7-1.6-1.5S49.2,61,50,61c0,0,0,0,0,0c0.8,0,1.5,0.7,1.5,1.5
			S50.9,64,50,64z M53.9,63.4c-0.7,0-1.3-0.5-1.5-1.1c-0.2-0.8,0.3-1.6,1-1.8c0.8-0.2,1.6,0.2,1.9,1c0.3,0.8-0.2,1.6-0.9,1.9
			c0,0-0.1,0-0.1,0C54.1,63.4,54,63.4,53.9,63.4z M45.7,63.3c-0.8-0.2-1.3-1.1-1-1.9c0.2-0.8,1.1-1.3,1.9-1L45.7,63.3z M42.7,61.6
			c-0.3,0-0.6-0.1-0.9-0.3c-0.6-0.5-0.8-1.4-0.4-2c0.5-0.7,1.4-0.9,2.1-0.4c0,0,0.1,0.1,0.1,0.1c0.6,0.5,0.8,1.5,0.2,2.1
			C43.5,61.4,43.1,61.6,42.7,61.6z M57.4,61.6c-0.4,0-0.8-0.1-1.1-0.4c-0.6-0.6-0.6-1.5,0-2.1c0.1-0.1,0.2-0.1,0.2-0.2
			c0.7-0.5,1.6-0.3,2.1,0.4c0.4,0.7,0.3,1.5-0.3,2C58,61.5,57.7,61.6,57.4,61.6z M39.9,58.9c-0.5,0-0.9-0.2-1.2-0.6
			c-0.5-0.6-0.4-1.4,0.1-2c0.6-0.6,1.5-0.6,2.1,0c0.1,0.1,0.1,0.2,0.2,0.2c0.5,0.7,0.3,1.6-0.4,2.1C40.5,58.8,40.2,58.9,39.9,58.9z
			 M60.1,58.8c-0.4,0-0.8-0.1-1.1-0.4c-0.5-0.5-0.6-1.4-0.1-2c0.5-0.6,1.4-0.8,2-0.3c0.7,0.5,0.9,1.4,0.4,2.1
			c-0.1,0.1-0.1,0.2-0.2,0.2C60.9,58.7,60.5,58.8,60.1,58.8z M38.1,55.4c-0.6,0-1.2-0.4-1.4-1c0,0,0-0.1,0-0.1
			c-0.2-0.8,0.3-1.6,1.1-1.8c0.8-0.2,1.6,0.3,1.8,1c0.2,0.8-0.2,1.6-1,1.9C38.4,55.3,38.3,55.4,38.1,55.4z M61.9,55.3
			c-0.1,0-0.2,0-0.4,0c-0.8-0.2-1.3-1-1.1-1.8c0,0,0-0.1,0-0.1c0.3-0.8,1.1-1.2,1.9-0.9c0.8,0.3,1.2,1.1,1,1.9
			C63.1,54.9,62.6,55.3,61.9,55.3z M37.5,51.5c-0.8,0-1.5-0.7-1.5-1.5v0c0-0.8,0.7-1.5,1.5-1.5S39,49.2,39,50S38.3,51.5,37.5,51.5z
			 M62.5,51.5c-0.8,0-1.5-0.7-1.5-1.5s0.7-1.5,1.5-1.5S64,49.1,64,50v0C64,50.8,63.3,51.5,62.5,51.5z M38.1,47.7
			c-0.2,0-0.3,0-0.5-0.1c-0.8-0.3-1.2-1.1-1-1.9c0.2-0.8,1-1.2,1.8-1c0.8,0.2,1.3,1,1.1,1.8c0,0,0,0.1,0,0.1
			C39.3,47.3,38.7,47.7,38.1,47.7z M61.9,47.6c-0.7,0-1.2-0.4-1.4-1.1c-0.2-0.8,0.2-1.6,1-1.9c0.8-0.3,1.6,0.2,1.9,0.9
			c0,0,0,0.1,0,0.1c0.2,0.8-0.3,1.6-1.1,1.8C62.1,47.6,62,47.6,61.9,47.6z M39.9,44.2c-0.3,0-0.6-0.1-0.8-0.3
			c-0.7-0.5-0.9-1.4-0.4-2.1c0.1-0.1,0.1-0.2,0.2-0.2c0.6-0.6,1.5-0.6,2.1,0c0.5,0.5,0.6,1.4,0.1,2C40.8,44,40.3,44.2,39.9,44.2z
			 M60.1,44.1c-0.4,0-0.8-0.1-1.1-0.4c-0.1-0.1-0.1-0.2-0.2-0.2c-0.5-0.7-0.3-1.6,0.4-2.1c0.7-0.4,1.5-0.3,2,0.3
			c0.5,0.6,0.4,1.4-0.1,2C60.9,44,60.5,44.1,60.1,44.1z M42.6,41.4c-0.4,0-0.9-0.2-1.2-0.6c-0.5-0.6-0.4-1.6,0.2-2.1
			c0,0,0.1-0.1,0.1-0.1c0.7-0.5,1.6-0.3,2.1,0.4c0.4,0.7,0.3,1.6-0.4,2C43.3,41.3,43,41.4,42.6,41.4z M57.3,41.4
			c-0.3,0-0.6-0.1-0.9-0.3c-0.6-0.5-0.8-1.4-0.3-2c0.5-0.7,1.4-0.9,2.1-0.4c0.1,0.1,0.2,0.1,0.2,0.2c0.6,0.6,0.6,1.5,0,2.1
			C58.1,41.2,57.7,41.4,57.3,41.4z M46.1,39.6c-0.6,0-1.2-0.4-1.4-1.1c-0.2-0.8,0.2-1.6,1-1.9c0,0,0.1,0,0.1,0
			c0.8-0.2,1.6,0.2,1.9,1c0.2,0.8-0.2,1.6-1,1.9C46.4,39.6,46.3,39.6,46.1,39.6z M53.8,39.6c-0.1,0-0.2,0-0.4,0c0,0-0.1,0-0.1,0
			c-0.8-0.3-1.2-1.1-0.9-1.9c0.3-0.8,1.1-1.2,1.9-1c0.8,0.2,1.2,1,1,1.8C55.1,39.2,54.5,39.6,53.8,39.6z M50,39
			c-0.8,0-1.5-0.7-1.5-1.5S49.1,36,50,36h0c0.8,0,1.5,0.7,1.5,1.5S50.8,39,50,39z"/>
		<path d="M50,59.8L50,59.8C50,59.8,50,59.8,50,59.8L50,59.8c-0.9,0-1.6-0.7-1.6-1.5c0-0.8,0.7-1.5,1.5-1.5c0,0,0,0,0,0
			c0.8,0,1.5,0.7,1.5,1.5S50.9,59.8,50,59.8z M46.1,58.9c-0.2,0-0.5-0.1-0.7-0.2c-0.6-0.3-1-1.1-0.7-1.8c0.3-0.8,1.1-1.2,1.9-0.9
			c0.1,0,0.3,0.1,0.4,0.2c0.7,0.5,0.9,1.4,0.4,2.1C47.1,58.6,46.6,58.9,46.1,58.9z M53.9,58.9c-0.6,0-1.2-0.4-1.4-1
			c-0.2-0.7,0.1-1.5,0.7-1.8c0.7-0.4,1.5-0.2,2,0.5c0.5,0.7,0.3,1.6-0.4,2.1c-0.1,0.1-0.2,0.1-0.4,0.2
			C54.2,58.8,54.1,58.9,53.9,58.9z M43.1,56.2c-0.5,0-0.9-0.2-1.2-0.6c-0.5-0.6-0.4-1.4,0.1-2c0.6-0.6,1.5-0.6,2.1,0
			c0.1,0.1,0.1,0.2,0.2,0.2c0.5,0.7,0.3,1.6-0.4,2.1C43.7,56.2,43.4,56.2,43.1,56.2z M56.9,56.2c-0.4,0-0.8-0.1-1.1-0.4
			c-0.5-0.5-0.6-1.4-0.1-2c0.5-0.6,1.4-0.8,2-0.3c0.7,0.5,0.9,1.4,0.4,2.1c-0.1,0.1-0.1,0.2-0.2,0.2C57.6,56.1,57.3,56.2,56.9,56.2z
			 M41.7,52.5c-0.7,0-1.4-0.5-1.5-1.3c0-0.1,0-0.2,0-0.3c0-0.8,0.7-1.5,1.5-1.5c0.8,0,1.4,0.6,1.5,1.4c0.1,0.8-0.5,1.5-1.2,1.6
			C41.9,52.5,41.8,52.5,41.7,52.5z M58.3,52.5c-0.1,0-0.2,0-0.4,0c-0.7-0.2-1.2-0.9-1.1-1.6c0.1-0.8,0.7-1.3,1.5-1.3l0,0
			c0.8,0,1.5,0.7,1.5,1.5c0,0.1,0,0.3,0,0.4C59.6,52,59,52.5,58.3,52.5z M42.2,48.6c-0.2,0-0.3,0-0.5-0.1c-0.8-0.3-1.2-1.1-0.9-1.9
			c0,0,0,0,0-0.1c0.3-0.8,1.2-1.2,1.9-0.9c0.8,0.3,1.2,1.2,0.9,1.9C43.4,48.2,42.8,48.6,42.2,48.6z M57.8,48.5
			c-0.5,0-1.1-0.3-1.3-0.8c0-0.1-0.1-0.1-0.1-0.2c-0.3-0.8,0.2-1.6,0.9-1.9c0.8-0.3,1.6,0.1,1.9,0.9c0.3,0.7,0,1.6-0.7,1.9
			C58.2,48.5,58,48.5,57.8,48.5z M44.5,45.3c-0.4,0-0.9-0.2-1.2-0.6c-0.5-0.6-0.4-1.5,0.1-2c0.5-0.5,1.4-0.6,2-0.1
			c0.6,0.5,0.7,1.5,0.2,2.1c-0.1,0.1-0.1,0.2-0.2,0.2C45.1,45.2,44.8,45.3,44.5,45.3z M55.5,45.3c-0.4,0-0.7-0.1-1-0.4
			c-0.5-0.5-0.7-1.3-0.2-1.9c0.5-0.7,1.4-0.9,2.1-0.4c0.2,0.1,0.3,0.3,0.4,0.4c0.5,0.7,0.3,1.6-0.4,2.1
			C56.1,45.2,55.8,45.3,55.5,45.3z M48,43.4c-0.7,0-1.3-0.4-1.4-1.1c-0.2-0.8,0.2-1.6,1-1.9c0.1,0,0.3-0.1,0.4-0.1
			c0.8,0,1.5,0.7,1.5,1.5c0,0.7-0.5,1.4-1.2,1.5C48.2,43.4,48.1,43.4,48,43.4z M52,43.4c-0.2,0-0.3,0-0.5-0.1
			c-0.8-0.3-1.2-1.1-0.9-1.9c0.2-0.7,1-1.1,1.7-1c0.7,0.1,1.2,0.7,1.2,1.5C53.5,42.7,52.8,43.4,52,43.4z"/>
		<path d="M50,55.7L50,55.7C50,55.7,50,55.7,50,55.7L50,55.7c-0.9,0-1.6-0.7-1.6-1.5c0-0.8,0.7-1.5,1.5-1.5c0.8,0,1.5,0.7,1.5,1.5
			C51.5,55,50.9,55.7,50,55.7z M46.7,54.1c-0.4,0-0.8-0.1-1.1-0.4c-0.1-0.1-0.1-0.2-0.2-0.2c-0.5-0.7-0.3-1.6,0.4-2.1
			c0.6-0.4,1.5-0.3,2,0.3c0.5,0.6,0.5,1.5-0.1,2C47.5,54,47.1,54.1,46.7,54.1z M53.3,54.1c-0.4,0-0.8-0.1-1.1-0.4
			c-0.5-0.5-0.6-1.4-0.1-2c0.5-0.6,1.4-0.8,2-0.3c0.7,0.5,0.9,1.4,0.4,2.1c-0.1,0.1-0.1,0.2-0.2,0.2C54,53.9,53.7,54.1,53.3,54.1z
			 M45.9,50.6c-0.1,0-0.2,0-0.2,0c-0.8-0.1-1.4-0.9-1.2-1.7c0-0.1,0-0.2,0.1-0.2c0.3-0.8,1.1-1.2,1.9-0.9c0.7,0.2,1.2,1,1,1.8
			C47.2,50.1,46.6,50.6,45.9,50.6z M54.1,50.5c-0.7,0-1.3-0.5-1.5-1.2c-0.2-0.7,0.3-1.5,1-1.7c0.8-0.3,1.6,0.2,1.9,0.9
			c0.1,0.2,0.1,0.3,0.1,0.5C55.6,49.9,54.9,50.5,54.1,50.5z M48.2,47.8c-0.6,0-1.2-0.4-1.4-1c-0.2-0.7,0.1-1.5,0.8-1.8
			c0.6-0.3,1.4-0.2,1.8,0.4c0.5,0.6,0.4,1.6-0.2,2.1c-0.1,0.1-0.3,0.2-0.5,0.3C48.5,47.7,48.3,47.8,48.2,47.8z M51.8,47.7
			c-0.2,0-0.4,0-0.6-0.1c-0.7-0.3-1-1.1-0.8-1.8c0.3-0.8,1.1-1.2,1.9-0.9c0.1,0,0.3,0.1,0.4,0.2c0.7,0.5,0.9,1.4,0.4,2.1
			C52.8,47.5,52.3,47.7,51.8,47.7z"/>
	</g>
</g>
</svg>
