<?xml version="1.0" encoding="utf-8"?>
<!-- Generator: Adobe Illustrator 26.5.1, SVG Export Plug-In . SVG Version: 6.00 Build 0)  -->
<svg version="1.1" id="Ebene_1" xmlns="http://www.w3.org/2000/svg" xmlns:xlink="http://www.w3.org/1999/xlink" x="0px" y="0px"
	 viewBox="0 0 100 100" style="enable-background:new 0 0 100 100;" xml:space="preserve">
<g>
	<g>
		<path d="M50,93.2L50,93.2c-0.8,0-1.5-0.7-1.5-1.5s0.7-1.5,1.5-1.5c0.2,0,0.4,0,0.6,0.1c0.2-0.1,0.4-0.1,0.6-0.1
			c0.8,0,1.5,0.7,1.5,1.5s-0.7,1.5-1.5,1.5h0c-0.2,0-0.4,0-0.6-0.1C50.4,93.1,50.2,93.2,50,93.2z M46,93c-0.1,0-0.3,0-0.4,0
			c-0.8-0.2-1.3-1-1.1-1.8c0.2-0.7,0.9-1.2,1.6-1.1c0.8,0.1,1.3,0.7,1.3,1.5C47.5,92.3,46.8,93,46,93z M55.2,92.8
			c-0.7,0-1.3-0.5-1.5-1.1c-0.2-0.8,0.3-1.6,1.1-1.8c0.1,0,0.3,0,0.4,0c0.8,0,1.5,0.7,1.5,1.5c0,0.8-0.6,1.4-1.3,1.5
			C55.3,92.8,55.2,92.8,55.2,92.8z M42,92.4c-0.1,0-0.2,0-0.3,0c-0.7-0.1-1.2-0.7-1.2-1.5c0-0.8,0.7-1.5,1.5-1.5
			c0.2,0,0.3,0,0.5,0.1c0.8,0.3,1.2,1.1,0.9,1.9C43.2,92,42.7,92.4,42,92.4z M59.1,92.2c-0.8,0-1.5-0.7-1.5-1.5
			c0-0.7,0.5-1.3,1.2-1.5c0.7-0.1,1.5,0.3,1.7,1c0.3,0.8-0.2,1.6-0.9,1.9C59.5,92.1,59.3,92.2,59.1,92.2z M38.1,91.4
			c-0.1,0-0.3,0-0.4-0.1c-0.8-0.2-1.2-1-1-1.8c0.2-0.8,1-1.3,1.8-1.1c0,0,0.1,0,0.1,0c0.8,0.3,1.2,1.1,0.9,1.9
			C39.4,91.1,38.8,91.4,38.1,91.4z M63,91.1c-0.7,0-1.3-0.5-1.5-1.1c-0.2-0.8,0.3-1.6,1-1.8c0.8-0.2,1.6,0.2,1.9,1
			c0.3,0.8-0.2,1.6-0.9,1.9c0,0-0.1,0-0.1,0C63.2,91.1,63.1,91.1,63,91.1z M34.4,90.1c-0.2,0-0.3,0-0.5-0.1c-0.1,0-0.1-0.1-0.2-0.1
			c-0.7-0.4-1-1.3-0.7-2c0.4-0.7,1.2-1,1.9-0.7c0.7,0.3,1.1,1.1,0.9,1.9C35.6,89.7,35,90.1,34.4,90.1z M66.7,89.7
			c-0.5,0-1-0.2-1.2-0.7c-0.5-0.7-0.3-1.6,0.4-2.1c0.1-0.1,0.2-0.1,0.4-0.2c0.8-0.3,1.6,0.2,1.9,0.9c0.2,0.7-0.1,1.5-0.8,1.8
			C67.2,89.6,66.9,89.7,66.7,89.7z M30.7,88.4c-0.2,0-0.5-0.1-0.7-0.2c-0.6-0.3-1-1.1-0.7-1.8c0.3-0.8,1.1-1.2,1.9-0.9
			c0.1,0,0.3,0.1,0.4,0.2c0.7,0.5,0.9,1.4,0.4,2.1C31.7,88.2,31.2,88.4,30.7,88.4z M70.3,87.9c-0.6,0-1.2-0.4-1.4-1
			c-0.2-0.7,0.1-1.5,0.7-1.8c0.7-0.4,1.5-0.2,2,0.5c0.5,0.7,0.3,1.6-0.4,2.1c-0.1,0.1-0.2,0.1-0.4,0.2
			C70.6,87.8,70.5,87.9,70.3,87.9z M27.3,86.4c-0.3,0-0.6-0.1-0.8-0.3l0,0c-0.7-0.5-0.9-1.4-0.4-2.1c0.5-0.7,1.4-0.9,2.1-0.4
			c0.7,0.5,0.9,1.4,0.4,2.1C28.2,86.2,27.7,86.4,27.3,86.4z M73.7,85.7c-0.4,0-0.8-0.1-1.1-0.4c-0.6-0.6-0.6-1.5,0-2.1
			c0.1-0.1,0.2-0.1,0.2-0.2c0.7-0.5,1.6-0.3,2.1,0.4c0.4,0.7,0.3,1.5-0.3,2C74.4,85.6,74,85.7,73.7,85.7z M24,84.1
			c-0.3,0-0.6-0.1-0.8-0.3c-0.1-0.1-0.2-0.1-0.2-0.2c-0.6-0.6-0.6-1.5,0-2.1c0.5-0.5,1.4-0.6,2-0.1c0.6,0.5,0.8,1.4,0.3,2
			C25,83.8,24.5,84.1,24,84.1z M76.9,83.3c-0.3,0-0.6-0.1-0.8-0.3c-0.7-0.5-0.9-1.4-0.4-2.1c0.1-0.2,0.3-0.3,0.4-0.4
			c0.7-0.5,1.6-0.3,2.1,0.4c0.4,0.6,0.3,1.5-0.2,1.9C77.6,83.2,77.3,83.3,76.9,83.3z M21,81.4c-0.4,0-0.8-0.1-1.1-0.4l0,0
			c-0.6-0.6-0.6-1.5,0-2.1s1.5-0.6,2.1,0s0.6,1.5,0,2.1C21.8,81.3,21.4,81.4,21,81.4z M79.8,80.6c-0.4,0-0.8-0.1-1.1-0.4
			c-0.6-0.6-0.6-1.5,0-2.1c0.6-0.6,1.5-0.6,2.1,0c0.6,0.6,0.6,1.5,0,2.1l0,0C80.6,80.4,80.2,80.6,79.8,80.6z M18.3,78.5
			c-0.4,0-0.8-0.2-1.1-0.5c-0.5-0.5-0.5-1.3-0.1-1.8c0.5-0.7,1.4-0.9,2.1-0.4c0.2,0.1,0.3,0.3,0.4,0.4c0.5,0.7,0.3,1.6-0.4,2.1
			C18.8,78.4,18.6,78.5,18.3,78.5z M82.5,77.6c-0.4,0-0.8-0.1-1.1-0.4c-0.5-0.5-0.6-1.4-0.1-2c0.5-0.6,1.4-0.8,2-0.3
			c0.7,0.5,0.9,1.4,0.4,2.1c-0.1,0.1-0.1,0.2-0.2,0.2C83.3,77.4,82.9,77.6,82.5,77.6z M15.8,75.3c-0.5,0-0.9-0.2-1.2-0.6
			c-0.5-0.6-0.4-1.4,0.1-2c0.6-0.6,1.5-0.6,2.1,0c0.1,0.1,0.1,0.2,0.2,0.2c0.5,0.7,0.3,1.6-0.4,2.1C16.4,75.2,16.1,75.3,15.8,75.3z
			 M84.8,74.3c-0.3,0-0.6-0.1-0.8-0.3c-0.7-0.5-0.9-1.4-0.4-2.1s1.4-0.9,2.1-0.4c0.7,0.5,0.9,1.4,0.4,2.1l0,0
			C85.8,74.1,85.3,74.3,84.8,74.3z M13.7,71.9c-0.5,0-1-0.2-1.2-0.7c-0.1-0.1-0.1-0.2-0.2-0.4c-0.3-0.8,0.2-1.6,0.9-1.9
			c0.7-0.2,1.5,0.1,1.8,0.7c0.4,0.7,0.2,1.5-0.5,2C14.3,71.8,14,71.9,13.7,71.9z M86.9,70.9c-0.2,0-0.3,0-0.5-0.1
			c-0.8-0.3-1.2-1.1-0.9-1.9c0-0.1,0.1-0.3,0.2-0.4c0.5-0.7,1.4-0.9,2.1-0.4c0.7,0.4,0.9,1.3,0.5,2C87.9,70.6,87.4,70.9,86.9,70.9z
			 M11.9,68.3c-0.6,0-1.1-0.3-1.4-0.9c-0.3-0.7-0.1-1.5,0.5-1.9c0.7-0.5,1.6-0.3,2.1,0.4c0.1,0.1,0.1,0.2,0.2,0.4
			c0.3,0.8-0.2,1.6-0.9,1.9C12.2,68.3,12,68.3,11.9,68.3z M88.6,67.2c-0.2,0-0.5-0.1-0.7-0.2c-0.7-0.4-1-1.2-0.7-1.9
			c0.3-0.7,1.1-1.1,1.9-0.9c0.8,0.3,1.2,1.1,0.9,1.9c0,0.1-0.1,0.1-0.1,0.2C89.7,66.9,89.1,67.2,88.6,67.2z M10.4,64.6
			c-0.6,0-1.2-0.4-1.4-1c0,0,0-0.1,0-0.1c-0.2-0.8,0.3-1.6,1.1-1.8c0.8-0.2,1.6,0.3,1.8,1c0.2,0.8-0.2,1.6-1,1.9
			C10.8,64.6,10.6,64.6,10.4,64.6z M89.9,63.5c-0.1,0-0.2,0-0.4,0c-0.8-0.2-1.3-1-1.1-1.8c0,0,0-0.1,0-0.1c0.3-0.8,1.1-1.2,1.9-0.9
			c0.8,0.3,1.2,1.1,1,1.9C91.2,63,90.6,63.5,89.9,63.5z M9.4,60.7c-0.6,0-1.2-0.4-1.4-1c-0.1-0.2-0.1-0.3-0.1-0.5
			c0-0.8,0.7-1.5,1.5-1.5c0.7,0,1.3,0.5,1.5,1.2c0.1,0.7-0.3,1.5-1,1.7C9.7,60.7,9.5,60.7,9.4,60.7z M90.9,59.6
			c-0.8,0-1.5-0.7-1.5-1.5c0-0.2,0-0.3,0.1-0.5c0.3-0.8,1.1-1.2,1.9-0.9c0.7,0.2,1.1,1,1,1.7C92.2,59.1,91.6,59.6,90.9,59.6z
			 M8.7,56.8c-0.8,0-1.4-0.6-1.5-1.3c-0.1-0.7,0.4-1.4,1.1-1.6c0.8-0.2,1.6,0.3,1.8,1.1c0,0.1,0,0.3,0,0.4
			C10.2,56.1,9.5,56.8,8.7,56.8z M91.5,55.6c-0.1,0-0.2,0-0.4,0c-0.7-0.2-1.2-0.9-1.1-1.6c0.1-0.8,0.7-1.3,1.5-1.3l0,0
			c0.8,0,1.5,0.7,1.5,1.5c0,0.1,0,0.3,0,0.4C92.8,55.2,92.1,55.6,91.5,55.6z M8.4,52.8c-0.8,0-1.5-0.7-1.5-1.5v0
			c0-0.8,0.7-1.5,1.5-1.5s1.5,0.7,1.5,1.5S9.2,52.8,8.4,52.8z M91.7,51.6c-0.8,0-1.5-0.7-1.5-1.5s0.7-1.5,1.5-1.5s1.5,0.7,1.5,1.5v0
			C93.2,50.9,92.5,51.6,91.7,51.6z M8.4,48.8c-0.8,0-1.5-0.7-1.5-1.5c0-0.1,0-0.3,0-0.4c0.2-0.8,1-1.3,1.8-1.1
			c0.7,0.2,1.2,0.9,1.1,1.6C9.8,48.2,9.2,48.8,8.4,48.8z M91.5,47.6c-0.7,0-1.3-0.5-1.5-1.1c0-0.1,0-0.3,0-0.4
			c0-0.8,0.7-1.5,1.5-1.5c0.8,0,1.4,0.6,1.5,1.3c0.1,0.7-0.4,1.4-1.1,1.6C91.7,47.6,91.6,47.6,91.5,47.6z M8.9,44.8
			c-0.2,0-0.3,0-0.5-0.1c-0.7-0.2-1.1-1-1-1.7c0.1-0.7,0.7-1.2,1.5-1.2c0.8,0,1.5,0.7,1.5,1.5c0,0.2,0,0.3-0.1,0.5
			C10.1,44.4,9.5,44.8,8.9,44.8z M90.9,43.6c-0.7,0-1.3-0.5-1.5-1.2c-0.1-0.7,0.3-1.5,1-1.7c0.8-0.3,1.6,0.2,1.9,0.9
			c0.1,0.2,0.1,0.3,0.1,0.5C92.4,43,91.8,43.6,90.9,43.6z M9.7,40.9c-0.2,0-0.3,0-0.5-0.1c-0.8-0.3-1.2-1.1-1-1.9
			c0.2-0.8,1-1.2,1.8-1c0.8,0.2,1.3,1,1.1,1.8c0,0,0,0.1,0,0.1C10.9,40.5,10.3,40.9,9.7,40.9z M90,39.8c-0.7,0-1.2-0.4-1.4-1.1
			c-0.2-0.8,0.2-1.6,1-1.9c0.8-0.3,1.6,0.2,1.9,0.9c0,0,0,0.1,0,0.1c0.2,0.8-0.3,1.6-1.1,1.8C90.2,39.7,90.1,39.8,90,39.8z
			 M10.9,37.1c-0.2,0-0.3,0-0.5-0.1c-0.8-0.3-1.2-1.1-0.9-1.9c0-0.1,0.1-0.1,0.1-0.2c0.4-0.7,1.3-1,2-0.7c0.7,0.4,1,1.2,0.7,1.9
			C12.1,36.7,11.5,37.1,10.9,37.1z M88.7,36c-0.5,0-1-0.2-1.2-0.7c-0.1-0.1-0.1-0.2-0.2-0.4c-0.3-0.8,0.2-1.6,0.9-1.9
			c0.7-0.2,1.5,0.1,1.8,0.8c0.3,0.7,0.1,1.5-0.5,1.9C89.2,35.9,89,36,88.7,36z M12.5,33.4c-0.2,0-0.3,0-0.5-0.1
			c-0.8-0.3-1.2-1.1-0.9-1.9c0-0.1,0.1-0.3,0.2-0.4c0.5-0.7,1.4-0.9,2.1-0.4c0.6,0.4,0.8,1.2,0.5,1.9C13.6,33,13.1,33.4,12.5,33.4z
			 M87,32.3c-0.5,0-1.1-0.3-1.3-0.8c-0.4-0.7-0.2-1.5,0.5-2c0.7-0.5,1.6-0.3,2.1,0.4c0.1,0.1,0.1,0.2,0.2,0.4
			c0.3,0.8-0.2,1.6-0.9,1.9C87.3,32.3,87.1,32.3,87,32.3z M14.4,29.9c-0.3,0-0.6-0.1-0.8-0.3c-0.7-0.4-0.9-1.3-0.5-2
			c0.3-0.6,1.1-1,1.8-0.7c0.8,0.3,1.2,1.1,0.9,1.9c0,0.1-0.1,0.3-0.2,0.4C15.4,29.6,14.9,29.9,14.4,29.9z M85,28.9
			c-0.5,0-1-0.2-1.2-0.7c-0.5-0.7-0.3-1.6,0.4-2.1c0.7-0.5,1.6-0.3,2.1,0.4l0,0c0.5,0.7,0.3,1.6-0.4,2.1
			C85.5,28.8,85.3,28.9,85,28.9z M16.6,26.5c-0.3,0-0.6-0.1-0.8-0.3c-0.7-0.5-0.9-1.4-0.4-2.1c0.1-0.1,0.1-0.2,0.2-0.2
			c0.6-0.6,1.5-0.6,2.1,0c0.5,0.5,0.6,1.4,0.1,2C17.5,26.3,17.1,26.5,16.6,26.5z M82.6,25.6c-0.4,0-0.8-0.1-1.1-0.4
			c-0.1-0.1-0.1-0.2-0.2-0.2c-0.5-0.7-0.3-1.6,0.4-2.1c0.7-0.4,1.5-0.3,2,0.3c0.5,0.6,0.4,1.4-0.1,2C83.4,25.5,83,25.6,82.6,25.6z
			 M19.2,23.5c-0.3,0-0.6-0.1-0.8-0.3c-0.7-0.5-0.9-1.4-0.4-2.1c0.1-0.2,0.3-0.3,0.4-0.4c0.7-0.5,1.6-0.3,2.1,0.4
			c0.4,0.6,0.3,1.3-0.1,1.8C20,23.3,19.6,23.5,19.2,23.5z M80,22.6c-0.4,0-0.8-0.1-1.1-0.4c-0.6-0.6-0.6-1.5,0-2.1
			c0.6-0.6,1.5-0.6,2.1,0l0,0c0.6,0.6,0.6,1.5,0,2.1C80.8,22.5,80.4,22.6,80,22.6z M22,20.6c-0.5,0-1-0.2-1.2-0.7
			c-0.4-0.6-0.3-1.5,0.2-1.9c0.5-0.5,1.3-0.5,1.8-0.1c0.7,0.5,0.9,1.4,0.4,2.1c-0.1,0.2-0.3,0.3-0.4,0.4
			C22.6,20.5,22.3,20.6,22,20.6z M77.1,19.8c-0.4,0-0.7-0.1-1-0.4c-0.5-0.5-0.7-1.3-0.2-1.9c0.5-0.7,1.4-0.9,2.1-0.4
			c0.2,0.1,0.3,0.3,0.4,0.4c0.5,0.7,0.3,1.6-0.4,2.1C77.6,19.8,77.4,19.8,77.1,19.8z M25.1,18.1c-0.5,0-1-0.2-1.2-0.7
			c-0.4-0.7-0.3-1.5,0.3-2c0.6-0.5,1.4-0.4,2,0.1c0.6,0.6,0.6,1.5,0,2.1c-0.1,0.1-0.2,0.1-0.2,0.2C25.7,18,25.4,18.1,25.1,18.1z
			 M73.9,17.4c-0.3,0-0.6-0.1-0.9-0.3c-0.6-0.5-0.8-1.4-0.3-2c0.5-0.7,1.4-0.9,2.1-0.4c0.1,0.1,0.2,0.1,0.2,0.2
			c0.6,0.6,0.6,1.5,0,2.1C74.7,17.2,74.3,17.4,73.9,17.4z M28.5,15.8c-0.5,0-1-0.2-1.2-0.7c-0.5-0.7-0.3-1.6,0.4-2.1
			c0.1-0.1,0.2-0.1,0.4-0.2c0.8-0.3,1.6,0.2,1.9,0.9c0.2,0.7-0.1,1.5-0.7,1.8C28.9,15.8,28.7,15.8,28.5,15.8z M70.5,15.2
			c-0.2,0-0.3,0-0.5-0.1c-0.1,0-0.3-0.1-0.4-0.2c-0.7-0.5-0.9-1.4-0.4-2.1c0.4-0.7,1.3-0.9,2-0.5c0.6,0.3,1,1.1,0.7,1.8
			C71.7,14.8,71.1,15.2,70.5,15.2z M32,13.9c-0.6,0-1.2-0.4-1.4-1c-0.2-0.7,0.1-1.5,0.8-1.8c0.7-0.3,1.5-0.1,1.9,0.5
			c0.5,0.7,0.3,1.6-0.4,2.1c-0.1,0.1-0.2,0.1-0.4,0.2C32.3,13.9,32.1,13.9,32,13.9z M66.9,13.4c-0.2,0-0.4,0-0.6-0.1
			c-0.7-0.3-1-1.1-0.8-1.8c0.3-0.8,1.1-1.2,1.9-0.9c0.1,0,0.3,0.1,0.4,0.2c0.7,0.5,0.9,1.4,0.4,2.1C67.9,13.2,67.4,13.4,66.9,13.4z
			 M35.7,12.4c-0.6,0-1.2-0.4-1.4-1c-0.3-0.8,0.1-1.6,0.9-1.9c0.7-0.3,1.6,0,1.9,0.7c0.4,0.7,0.1,1.6-0.7,2c-0.1,0-0.1,0.1-0.2,0.1
			C36,12.3,35.8,12.4,35.7,12.4z M63.2,12c-0.1,0-0.2,0-0.4,0c0,0-0.1,0-0.1,0c-0.8-0.3-1.2-1.1-0.9-1.9c0.3-0.8,1.1-1.2,1.9-1
			c0.8,0.2,1.2,1,1,1.8C64.5,11.5,63.9,12,63.2,12z M39.5,11.2c-0.6,0-1.2-0.4-1.4-1c-0.3-0.8,0.2-1.6,0.9-1.9c0,0,0.1,0,0.1,0
			C39.9,8,40.8,8.5,41,9.3c0.2,0.8-0.3,1.6-1,1.8C39.8,11.2,39.6,11.2,39.5,11.2z M59.4,10.9c-0.2,0-0.3,0-0.5-0.1
			c-0.8-0.3-1.2-1.1-0.9-1.9c0.2-0.7,1-1.1,1.7-1c0.7,0.1,1.2,0.7,1.2,1.5C60.9,10.2,60.2,10.9,59.4,10.9z M43.4,10.4
			c-0.6,0-1.2-0.4-1.4-1c-0.3-0.8,0.2-1.6,0.9-1.9c0.2-0.1,0.3-0.1,0.5-0.1c0.8,0,1.5,0.7,1.5,1.5c0,0.7-0.5,1.3-1.2,1.5
			C43.6,10.3,43.5,10.4,43.4,10.4z M55.4,10.2c-0.1,0-0.1,0-0.2,0c-0.8-0.1-1.3-0.7-1.3-1.5c0-0.8,0.7-1.5,1.5-1.5
			c0.1,0,0.3,0,0.4,0c0.8,0.2,1.3,1,1.1,1.8C56.7,9.7,56.1,10.2,55.4,10.2z M47.4,9.9c-0.8,0-1.5-0.7-1.5-1.5c0-0.8,0.6-1.4,1.3-1.5
			C48,6.8,48.7,7.3,48.9,8c0.2,0.8-0.3,1.6-1.1,1.8C47.7,9.9,47.5,9.9,47.4,9.9z M51.4,9.9c-0.8,0-1.5-0.7-1.5-1.5s0.7-1.5,1.5-1.5
			h0c0.8,0,1.5,0.7,1.5,1.5S52.2,9.9,51.4,9.9z"/>
		<path d="M50,76.5L50,76.5c-0.8,0-1.5-0.7-1.5-1.5s0.7-1.5,1.5-1.5c0.1,0,0.2,0,0.3,0c0.1,0,0.2,0,0.4,0c0.8,0,1.5,0.7,1.5,1.5
			s-0.7,1.5-1.5,1.5h0c-0.1,0-0.2,0-0.3,0C50.3,76.5,50.1,76.5,50,76.5z M46,76.2c-0.1,0-0.2,0-0.3,0c-0.7-0.1-1.2-0.7-1.2-1.5
			c0-0.8,0.7-1.5,1.5-1.5c0.2,0,0.3,0,0.5,0.1c0.8,0.3,1.2,1.1,0.9,1.9C47.2,75.8,46.6,76.2,46,76.2z M54.7,76.1
			c-0.8,0-1.5-0.7-1.5-1.5c0-0.7,0.5-1.3,1.2-1.5c0.7-0.1,1.5,0.3,1.7,1c0.3,0.8-0.2,1.6-0.9,1.9C55,76,54.8,76.1,54.7,76.1z
			 M42.1,75.2c-0.1,0-0.3,0-0.4-0.1c-0.8-0.2-1.2-1-1-1.8c0.2-0.8,1-1.3,1.8-1.1c0,0,0.1,0,0.1,0c0.8,0.3,1.2,1.1,0.9,1.9
			C43.3,74.8,42.7,75.2,42.1,75.2z M58.5,75c-0.5,0-1.1-0.3-1.3-0.8c-0.4-0.7-0.1-1.6,0.7-2c0.1,0,0.1-0.1,0.2-0.1
			c0.8-0.3,1.6,0.2,1.9,0.9c0.3,0.8-0.1,1.6-0.9,1.9C58.9,75,58.7,75,58.5,75z M38.4,73.7c-0.2,0-0.5-0.1-0.7-0.2
			c-0.6-0.3-1-1.1-0.7-1.8c0.3-0.8,1.1-1.2,1.9-0.9c0.1,0,0.3,0.1,0.4,0.2c0.7,0.5,0.9,1.4,0.4,2.1C39.4,73.4,38.9,73.7,38.4,73.7z
			 M62.2,73.3c-0.6,0-1.2-0.4-1.4-1c-0.2-0.7,0.1-1.5,0.7-1.8c0.7-0.4,1.5-0.2,2,0.5c0.5,0.7,0.3,1.6-0.4,2.1
			c-0.1,0.1-0.2,0.1-0.4,0.2C62.5,73.3,62.3,73.3,62.2,73.3z M35,71.5c-0.3,0-0.6-0.1-0.8-0.3c-0.1-0.1-0.2-0.1-0.2-0.2
			c-0.6-0.6-0.6-1.5,0-2.1c0.5-0.5,1.4-0.6,2-0.1c0.6,0.5,0.8,1.4,0.3,2C36,71.3,35.5,71.5,35,71.5z M65.5,71.1
			c-0.4,0-0.8-0.1-1.1-0.4c-0.6-0.6-0.6-1.5,0-2.1c0.1-0.1,0.2-0.1,0.2-0.2c0.7-0.5,1.6-0.3,2.1,0.4c0.4,0.7,0.3,1.5-0.3,2
			C66.2,71,65.8,71.1,65.5,71.1z M32,68.9c-0.4,0-0.8-0.1-1.1-0.4l0,0c-0.6-0.6-0.6-1.5,0-2.1s1.5-0.6,2.1,0s0.6,1.5,0,2.1
			C32.8,68.7,32.4,68.9,32,68.9z M68.4,68.4c-0.5,0-1-0.2-1.2-0.7c-0.4-0.6-0.3-1.3,0.1-1.8c0.5-0.5,1.3-0.7,1.9-0.2
			c0.7,0.5,0.9,1.4,0.4,2.1c-0.1,0.2-0.3,0.3-0.4,0.4C69,68.3,68.7,68.4,68.4,68.4z M29.5,65.8c-0.5,0-0.9-0.2-1.2-0.6
			c-0.5-0.6-0.4-1.4,0.1-2c0.6-0.6,1.5-0.6,2.1,0c0.1,0.1,0.1,0.2,0.2,0.2c0.5,0.7,0.3,1.6-0.4,2.1C30.1,65.7,29.8,65.8,29.5,65.8z
			 M70.9,65.2c-0.3,0-0.6-0.1-0.8-0.3c-0.7-0.5-0.9-1.4-0.4-2.1c0.5-0.7,1.4-0.9,2.1-0.4c0.7,0.5,0.9,1.4,0.4,2.1l0,0
			C71.9,65,71.4,65.2,70.9,65.2z M27.5,62.3c-0.6,0-1.1-0.3-1.4-0.9c-0.3-0.7-0.1-1.5,0.5-1.9c0.7-0.5,1.6-0.3,2.1,0.4
			c0.1,0.1,0.1,0.2,0.2,0.4c0.3,0.8-0.2,1.6-0.9,1.9C27.8,62.3,27.6,62.3,27.5,62.3z M72.8,61.7c-0.3,0-0.6-0.1-0.8-0.3
			c-0.6-0.4-0.8-1.2-0.5-1.9c0.3-0.7,1.1-1.1,1.8-0.8c0.8,0.3,1.2,1.1,0.9,1.9c0,0.1-0.1,0.3-0.2,0.4C73.8,61.5,73.3,61.7,72.8,61.7
			z M26,58.6c-0.6,0-1.2-0.4-1.4-1c0,0,0-0.1,0-0.1c-0.2-0.8,0.3-1.6,1.1-1.8c0.8-0.2,1.6,0.3,1.8,1c0.2,0.8-0.2,1.6-1,1.9
			C26.3,58.6,26.2,58.6,26,58.6z M74.2,57.9c-0.1,0-0.2,0-0.4,0c-0.8-0.2-1.3-1-1.1-1.8c0,0,0-0.1,0-0.1c0.3-0.8,1.1-1.2,1.9-0.9
			c0.8,0.3,1.2,1.1,1,1.9C75.4,57.5,74.8,57.9,74.2,57.9z M25.2,54.7c-0.8,0-1.4-0.6-1.5-1.3c-0.1-0.7,0.4-1.4,1.1-1.6
			c0.8-0.2,1.6,0.3,1.8,1.1c0,0.1,0,0.3,0,0.4C26.7,54,26,54.7,25.2,54.7z M74.9,54c-0.1,0-0.2,0-0.4,0c-0.7-0.2-1.2-0.9-1.1-1.6
			c0.1-0.8,0.7-1.3,1.5-1.3l0,0c0.8,0,1.5,0.7,1.5,1.5c0,0.1,0,0.3,0,0.4C76.2,53.5,75.6,54,74.9,54z M25,50.7
			c-0.8,0-1.5-0.7-1.5-1.5v0c0-0.8,0.7-1.5,1.5-1.5s1.5,0.7,1.5,1.5S25.8,50.7,25,50.7z M75,50c-0.7,0-1.3-0.5-1.5-1.1
			c0-0.1,0-0.3,0-0.4c0-0.8,0.7-1.5,1.5-1.5c0.8,0,1.4,0.6,1.5,1.3c0.1,0.7-0.4,1.4-1.1,1.6C75.2,50,75.1,50,75,50z M25.5,46.7
			c-0.2,0-0.3,0-0.5-0.1c-0.7-0.2-1.1-1-1-1.7c0.1-0.7,0.7-1.2,1.5-1.2c0.8,0,1.5,0.7,1.5,1.5c0,0.2,0,0.3-0.1,0.5
			C26.7,46.3,26.1,46.7,25.5,46.7z M74.4,46c-0.7,0-1.3-0.5-1.5-1.2c-0.1-0.7,0.3-1.5,1-1.7c0.8-0.3,1.6,0.2,1.9,0.9
			c0.1,0.2,0.1,0.3,0.1,0.5C75.9,45.3,75.2,46,74.4,46z M26.5,42.8c-0.2,0-0.3,0-0.5-0.1c-0.8-0.3-1.2-1.1-0.9-1.9
			c0-0.1,0.1-0.1,0.1-0.2c0.4-0.7,1.3-1,2-0.7c0.7,0.4,1,1.2,0.7,1.9C27.7,42.5,27.1,42.8,26.5,42.8z M73.2,42.2
			c-0.5,0-1-0.2-1.2-0.7c-0.1-0.1-0.1-0.2-0.2-0.4c-0.3-0.8,0.2-1.6,0.9-1.9c0.7-0.2,1.5,0.1,1.8,0.8c0.3,0.7,0.1,1.5-0.5,1.9
			C73.8,42.1,73.5,42.2,73.2,42.2z M28.2,39.2c-0.3,0-0.6-0.1-0.8-0.3c-0.7-0.4-0.9-1.3-0.5-2c0.3-0.6,1.1-1,1.8-0.7
			c0.8,0.3,1.2,1.1,0.9,1.9c0,0.1-0.1,0.3-0.2,0.4C29.2,39,28.7,39.2,28.2,39.2z M71.4,38.6c-0.5,0-1.1-0.3-1.3-0.8
			c-0.4-0.7-0.2-1.5,0.5-2c0.7-0.5,1.6-0.3,2.1,0.4c0.1,0.1,0.1,0.2,0.2,0.4c0.3,0.8-0.2,1.6-0.9,1.9C71.7,38.6,71.6,38.6,71.4,38.6
			z M30.5,35.9c-0.3,0-0.6-0.1-0.8-0.3c-0.7-0.5-0.9-1.4-0.4-2.1c0.1-0.1,0.1-0.2,0.2-0.2c0.6-0.6,1.5-0.6,2.1,0
			c0.5,0.5,0.6,1.4,0.1,2C31.4,35.7,30.9,35.9,30.5,35.9z M69.1,35.4c-0.3,0-0.6-0.1-0.8-0.3c-0.2-0.1-0.3-0.3-0.4-0.4
			c-0.5-0.7-0.3-1.6,0.4-2.1c0.6-0.4,1.5-0.3,1.9,0.2c0.5,0.5,0.5,1.3,0.1,1.8C70,35.1,69.6,35.4,69.1,35.4z M33.2,33
			c-0.5,0-1-0.2-1.2-0.7c-0.4-0.6-0.3-1.5,0.2-1.9c0.5-0.5,1.3-0.5,1.8-0.1c0.7,0.5,0.9,1.4,0.4,2.1c-0.1,0.2-0.3,0.3-0.4,0.4
			C33.8,32.9,33.5,33,33.2,33z M66.2,32.5c-0.4,0-0.7-0.1-1-0.4c-0.5-0.5-0.7-1.3-0.2-1.9c0.5-0.7,1.4-0.9,2.1-0.4
			c0.2,0.1,0.3,0.3,0.4,0.4c0.5,0.7,0.3,1.6-0.4,2.1C66.8,32.4,66.5,32.5,66.2,32.5z M36.4,30.5c-0.5,0-1-0.2-1.2-0.7
			c-0.5-0.7-0.3-1.6,0.4-2.1l0,0c0.7-0.5,1.6-0.3,2.1,0.4c0.5,0.7,0.3,1.6-0.4,2.1C37,30.4,36.7,30.5,36.4,30.5z M63,30.2
			c-0.2,0-0.3,0-0.5-0.1c-0.1,0-0.3-0.1-0.4-0.2c-0.7-0.5-0.9-1.4-0.4-2.1c0.4-0.7,1.3-0.9,2-0.5c0.6,0.3,1,1.1,0.7,1.8
			C64.2,29.8,63.6,30.2,63,30.2z M39.9,28.6c-0.6,0-1.2-0.4-1.4-1c-0.2-0.7,0.1-1.5,0.8-1.8c0.7-0.3,1.5-0.1,1.9,0.5
			c0.5,0.7,0.3,1.6-0.4,2.1c-0.1,0.1-0.2,0.1-0.4,0.2C40.2,28.6,40.1,28.6,39.9,28.6z M59.4,28.3c-0.2,0-0.4,0-0.6-0.1
			c-0.7-0.3-1.1-1.1-0.9-1.9c0.3-0.8,1.1-1.2,1.9-0.9c0.1,0,0.1,0.1,0.2,0.1c0.7,0.4,1,1.3,0.7,2C60.5,28,60,28.3,59.4,28.3z
			 M43.7,27.3c-0.6,0-1.2-0.4-1.4-1c-0.3-0.8,0.2-1.6,0.9-1.9c0,0,0.1,0,0.1,0c0.8-0.2,1.6,0.3,1.8,1.1c0.2,0.8-0.3,1.6-1,1.8
			C44,27.3,43.8,27.3,43.7,27.3z M55.6,27.1c-0.2,0-0.3,0-0.5-0.1c-0.8-0.3-1.2-1.1-0.9-1.9c0.2-0.7,1-1.1,1.7-1
			c0.7,0.1,1.2,0.7,1.2,1.5C57.1,26.5,56.4,27.1,55.6,27.1z M47.6,26.6c-0.8,0-1.5-0.7-1.5-1.5c0-0.8,0.6-1.4,1.3-1.5
			c0.7-0.1,1.4,0.4,1.6,1.1c0.2,0.8-0.3,1.6-1.1,1.8C47.9,26.6,47.8,26.6,47.6,26.6z M51.7,26.6c-0.1,0-0.1,0-0.2,0
			c-0.8-0.1-1.3-0.7-1.3-1.5c0-0.8,0.7-1.5,1.5-1.5c0.1,0,0.3,0,0.4,0c0.8,0.2,1.3,1,1.1,1.8C52.9,26.1,52.3,26.6,51.7,26.6z"/>
		<path d="M50,59.8L50,59.8c-0.8,0-1.5-0.7-1.5-1.5c0-0.9,0.7-1.5,1.6-1.5c0,0,0.1,0,0.1,0c0.8,0,1.5,0.7,1.5,1.5s-0.7,1.5-1.5,1.5
			h0c0,0-0.1,0-0.1,0C50.1,59.8,50,59.8,50,59.8z M46.1,58.9c-0.2,0-0.5-0.1-0.7-0.2c-0.6-0.3-1-1.1-0.7-1.8
			c0.3-0.8,1.1-1.2,1.9-0.9c0.1,0,0.3,0.1,0.4,0.2c0.7,0.5,0.9,1.4,0.4,2.1C47.1,58.7,46.6,58.9,46.1,58.9z M54.1,58.8
			c-0.6,0-1.2-0.4-1.4-1c-0.2-0.7,0.1-1.5,0.7-1.8c0.7-0.4,1.5-0.2,2,0.5c0.5,0.7,0.3,1.6-0.4,2.1c-0.1,0.1-0.2,0.1-0.4,0.2
			C54.4,58.8,54.2,58.8,54.1,58.8z M43.2,56.3c-0.5,0-0.9-0.2-1.2-0.6c-0.5-0.6-0.4-1.4,0.1-2c0.6-0.6,1.5-0.6,2.1,0
			c0.1,0.1,0.1,0.2,0.2,0.2c0.5,0.7,0.3,1.6-0.4,2.1C43.7,56.2,43.5,56.3,43.2,56.3z M57,56.1c-0.3,0-0.6-0.1-0.8-0.3
			c-0.7-0.5-0.9-1.4-0.4-2.1c0.5-0.7,1.4-0.9,2.1-0.4c0.7,0.5,0.9,1.4,0.4,2.1l0,0C57.9,55.8,57.4,56.1,57,56.1z M41.7,52.6
			c-0.8,0-1.4-0.6-1.5-1.3c-0.1-0.7,0.4-1.4,1.1-1.6c0.8-0.2,1.6,0.3,1.8,1.1c0,0.1,0,0.3,0,0.4C43.2,51.9,42.6,52.6,41.7,52.6z
			 M58.3,52.3c-0.1,0-0.2,0-0.4,0c-0.7-0.2-1.2-0.9-1.1-1.6c0.1-0.8,0.7-1.3,1.5-1.3l0,0c0.8,0,1.5,0.7,1.5,1.5c0,0.1,0,0.3,0,0.4
			C59.6,51.9,59,52.3,58.3,52.3z M42.2,48.6c-0.2,0-0.3,0-0.5-0.1c-0.8-0.3-1.2-1.1-0.9-1.9c0-0.1,0.1-0.1,0.1-0.2
			c0.4-0.7,1.3-1,2-0.7c0.7,0.4,1,1.2,0.7,1.9C43.3,48.3,42.8,48.6,42.2,48.6z M57.7,48.4c-0.5,0-1-0.2-1.2-0.7
			c-0.1-0.1-0.1-0.2-0.2-0.4c-0.3-0.8,0.2-1.6,0.9-1.9c0.7-0.2,1.5,0.1,1.8,0.8c0.3,0.7,0.1,1.5-0.5,1.9
			C58.3,48.3,58,48.4,57.7,48.4z M44.4,45.3c-0.5,0-1-0.2-1.2-0.7c-0.4-0.6-0.3-1.5,0.2-1.9c0.5-0.5,1.3-0.5,1.8-0.1
			c0.7,0.5,0.9,1.4,0.4,2.1c-0.1,0.2-0.3,0.3-0.4,0.4C45,45.2,44.7,45.3,44.4,45.3z M55.4,45.2c-0.4,0-0.7-0.1-1-0.4
			c-0.5-0.5-0.7-1.3-0.2-1.9c0.5-0.7,1.4-0.9,2.1-0.4c0.2,0.1,0.3,0.3,0.4,0.4c0.5,0.7,0.3,1.6-0.4,2.1C56,45.1,55.7,45.2,55.4,45.2
			z M47.9,43.4c-0.6,0-1.2-0.4-1.4-1c-0.3-0.8,0.2-1.6,0.9-1.9c0,0,0.1,0,0.1,0c0.8-0.2,1.6,0.3,1.8,1.1c0.2,0.8-0.3,1.6-1,1.8
			C48.2,43.4,48,43.4,47.9,43.4z M51.9,43.4c-0.2,0-0.3,0-0.5-0.1c-0.8-0.3-1.2-1.1-0.9-1.9c0.2-0.7,1-1.1,1.7-1
			c0.7,0.1,1.2,0.7,1.2,1.5C53.4,42.7,52.7,43.4,51.9,43.4z"/>
	</g>
</g>
</svg>
