<?xml version="1.0" encoding="utf-8"?>
<!-- Generator: Adobe Illustrator 26.5.1, SVG Export Plug-In . SVG Version: 6.00 Build 0)  -->
<svg version="1.1" id="Ebene_1" xmlns="http://www.w3.org/2000/svg" xmlns:xlink="http://www.w3.org/1999/xlink" x="0px" y="0px"
	 viewBox="0 0 100 100" style="enable-background:new 0 0 100 100;" xml:space="preserve">
<g>
	<g>
		<path d="M50.8,102.5L50.8,102.5c-1.4,0-2.5-1.1-2.5-2.5s1.1-2.5,2.5-2.5s2.5,1.1,2.5,2.5S52.2,102.5,50.8,102.5z M44.8,102.2
			c-0.3,0-0.5,0-0.8-0.1c-1.3-0.4-2-1.9-1.6-3.2c0.4-1.2,1.5-1.8,2.7-1.7c1.2,0.1,2.2,1.2,2.2,2.5C47.3,101.1,46.2,102.2,44.8,102.2
			z M56.8,102c-1.1,0-2.1-0.8-2.4-1.9c-0.3-1.3,0.5-2.7,1.8-3c0.2,0,0.4-0.1,0.6-0.1c1.4,0,2.5,1.1,2.5,2.5c0,1.3-1,2.4-2.2,2.5
			C57,102,56.9,102,56.8,102z M38.9,101.3c-0.1,0-0.3,0-0.4,0c-1.2-0.2-2.1-1.2-2.1-2.5c0-1.4,1.1-2.5,2.5-2.5c0.2,0,0.5,0,0.7,0.1
			c1.3,0.4,2.1,1.8,1.7,3.1C41,100.6,40,101.3,38.9,101.3z M62.7,100.9c-1.1,0-2.1-0.8-2.4-1.9c-0.3-1.3,0.4-2.6,1.7-3
			c1.3-0.4,2.7,0.3,3.1,1.6c0.4,1.3-0.3,2.7-1.6,3.2c-0.1,0-0.1,0-0.2,0.1C63.1,100.8,62.9,100.9,62.7,100.9z M33.2,99.6
			c-0.3,0-0.5,0-0.8-0.1c-1.3-0.4-2-1.8-1.7-3.1c0.4-1.3,1.8-2.1,3.1-1.7c0,0,0.1,0,0.1,0c1.3,0.4,2,1.9,1.6,3.2
			C35.2,98.9,34.2,99.6,33.2,99.6z M68.4,99c-0.9,0-1.8-0.5-2.2-1.4c-0.6-1.2-0.1-2.7,1.1-3.4c0.1-0.1,0.2-0.1,0.3-0.1
			c1.3-0.4,2.7,0.3,3.2,1.6c0.4,1.3-0.2,2.6-1.4,3.1C69.1,98.9,68.7,99,68.4,99z M27.6,97.2c-0.4,0-0.8-0.1-1.2-0.3
			c-1.1-0.6-1.6-1.8-1.2-3c0.4-1.3,1.9-2,3.2-1.6c0.2,0.1,0.4,0.2,0.6,0.3c1.1,0.8,1.5,2.3,0.7,3.5C29.2,96.8,28.4,97.2,27.6,97.2z
			 M73.8,96.4c-1,0-2-0.7-2.4-1.7c-0.4-1.2,0.1-2.4,1.2-3c1.1-0.6,2.5-0.3,3.3,0.8c0.8,1.1,0.5,2.7-0.7,3.5
			c-0.2,0.1-0.4,0.2-0.6,0.3C74.4,96.4,74.1,96.4,73.8,96.4z M22.4,94.2c-0.5,0-1-0.1-1.4-0.4c-0.1,0-0.1-0.1-0.2-0.1
			c-1.1-0.9-1.3-2.4-0.4-3.5c0.8-1,2.3-1.2,3.4-0.5c1.1,0.8,1.4,2.3,0.6,3.4C24,93.8,23.2,94.2,22.4,94.2z M78.9,93.3
			c-0.6,0-1.3-0.2-1.8-0.7c-1-1-1-2.6,0-3.5c0.1-0.1,0.3-0.2,0.4-0.3c1.1-0.8,2.7-0.5,3.5,0.7c0.7,1.1,0.5,2.6-0.5,3.4
			C80,93.1,79.5,93.3,78.9,93.3z M17.6,90.6c-0.5,0-1.1-0.2-1.6-0.5c-0.1-0.1-0.1-0.1-0.2-0.2c-1-1-1-2.6,0-3.5
			c0.9-0.9,2.4-1,3.4-0.1c1,0.9,1.1,2.4,0.3,3.4C19.1,90.3,18.4,90.6,17.6,90.6z M83.6,89.5c-0.5,0-1-0.1-1.4-0.4
			c-1.1-0.8-1.5-2.3-0.7-3.5c0.2-0.3,0.4-0.5,0.7-0.7c1.1-0.8,2.7-0.5,3.5,0.7c0.7,1,0.5,2.4-0.4,3.2C84.8,89.3,84.2,89.5,83.6,89.5
			z M13.3,86.4c-0.7,0-1.4-0.3-1.9-0.8c-0.9-1-0.8-2.5,0.1-3.4c1-1,2.6-1,3.5,0c0.1,0.1,0.1,0.1,0.2,0.2c0.9,1.1,0.7,2.6-0.3,3.5
			C14.4,86.2,13.9,86.4,13.3,86.4z M87.8,85.2c-0.8,0-1.6-0.4-2.1-1.1c-0.7-1-0.5-2.3,0.2-3.1c0.8-0.9,2.2-1.1,3.2-0.4
			c1.1,0.8,1.5,2.3,0.7,3.5c-0.2,0.3-0.4,0.5-0.7,0.7C88.8,85.1,88.3,85.2,87.8,85.2z M9.5,81.8c-0.8,0-1.5-0.3-2-1
			c-0.8-1-0.7-2.4,0.2-3.3c1-1,2.6-1,3.5,0c0.1,0.1,0.2,0.3,0.3,0.4c0.8,1.1,0.5,2.7-0.7,3.5C10.5,81.7,10,81.8,9.5,81.8z
			 M91.5,80.4c-0.6,0-1.3-0.2-1.8-0.7c-0.9-0.9-1-2.3-0.2-3.3c0.8-1,2.3-1.3,3.4-0.6c1.1,0.8,1.5,2.3,0.7,3.5
			c-0.1,0.1-0.2,0.3-0.3,0.4C92.7,80.2,92.1,80.4,91.5,80.4z M6.3,76.7c-0.9,0-1.7-0.5-2.2-1.3c-0.6-1.1-0.3-2.6,0.8-3.3
			c1.1-0.8,2.7-0.5,3.5,0.7c0.1,0.1,0.1,0.2,0.2,0.3c0.6,1.2,0.1,2.7-1.1,3.4C7,76.6,6.6,76.7,6.3,76.7z M94.5,75.3
			c-0.3,0-0.5,0-0.8-0.1c-1.3-0.4-2-1.9-1.6-3.2c0.1-0.2,0.2-0.4,0.3-0.6c0.8-1.1,2.3-1.5,3.5-0.7c1.1,0.7,1.4,2.1,0.8,3.3
			C96.3,74.7,95.4,75.3,94.5,75.3z M3.7,71.3c-0.9,0-1.8-0.5-2.2-1.4c-0.1-0.1-0.1-0.2-0.1-0.3c-0.4-1.3,0.3-2.7,1.6-3.2
			C4.1,66,5.5,66.6,6,67.8c0.5,1.2,0,2.6-1.2,3.2C4.4,71.2,4.1,71.3,3.7,71.3z M96.9,69.8c-0.4,0-0.8-0.1-1.1-0.3
			c-1.2-0.6-1.7-2-1.2-3.2c0.5-1.2,1.8-1.9,3.1-1.4c1.3,0.4,2,1.9,1.6,3.2c0,0.1-0.1,0.2-0.1,0.3C98.7,69.2,97.8,69.8,96.9,69.8z
			 M1.7,65.6c-1,0-2-0.7-2.4-1.7c-0.1-0.2-0.1-0.3-0.1-0.5c-0.2-1.4,0.8-2.6,2.2-2.8c1.3-0.2,2.5,0.7,2.7,1.9c0.3,1.2-0.4,2.5-1.6,3
			C2.3,65.6,2,65.6,1.7,65.6z M98.7,64c-1.4,0-2.5-1.1-2.5-2.5c0-0.3,0-0.5,0.1-0.8c0.4-1.3,1.8-2,3.2-1.6c1.2,0.4,1.9,1.6,1.7,2.8
			C100.9,63.1,99.9,64,98.7,64z M0.5,59.8c-1.2,0-2.3-0.9-2.5-2.1c0,0,0-0.1,0-0.1c-0.2-1.4,0.8-2.6,2.2-2.8
			c1.4-0.2,2.6,0.8,2.8,2.2c0.2,1.4-0.7,2.6-2.1,2.8C0.8,59.8,0.7,59.8,0.5,59.8z M99.7,58.1c-0.2,0-0.4,0-0.6-0.1
			c-1.2-0.3-2-1.5-1.9-2.7c0.1-1.3,1.2-2.2,2.5-2.2l0,0c1.4,0,2.5,1.1,2.5,2.5c0,0.2,0,0.4-0.1,0.6C101.8,57.3,100.8,58.1,99.7,58.1
			z M0,53.8c-1.3,0-2.4-1-2.5-2.4c-0.1-1.3,0.9-2.5,2.2-2.6c1.4-0.2,2.6,0.8,2.8,2.2c0,0.1,0,0.2,0,0.3C2.5,52.7,1.4,53.8,0,53.8z
			 M100,52.1c-1.4,0-2.5-1.1-2.5-2.5s1.1-2.5,2.5-2.5s2.5,1.1,2.5,2.5v0C102.5,51,101.4,52.1,100,52.1z M99.6,46.1
			c-1.1,0-2.1-0.8-2.4-1.9c0-0.2-0.1-0.4-0.1-0.6c0-1.4,1.1-2.5,2.5-2.5c1.3,0,2.4,1,2.5,2.2c0.1,1.2-0.6,2.4-1.9,2.7
			C100,46.1,99.8,46.1,99.6,46.1z M98.5,40.2c-1.1,0-2.1-0.7-2.4-1.8c-0.4-1.3,0.3-2.7,1.6-3.1c1.3-0.4,2.7,0.3,3.2,1.6
			c0,0.1,0,0.1,0.1,0.2c0.3,1.3-0.5,2.7-1.8,3C98.9,40.2,98.7,40.2,98.5,40.2z M96.6,34.5c-0.9,0-1.8-0.5-2.2-1.4
			c-0.1-0.1-0.1-0.2-0.1-0.3c-0.4-1.3,0.3-2.7,1.6-3.2c1.3-0.4,2.6,0.2,3.1,1.4c0.5,1.2,0,2.6-1.2,3.2C97.4,34.4,97,34.5,96.6,34.5z
			 M94.1,29c-0.9,0-1.8-0.5-2.2-1.3c-0.6-1.1-0.3-2.5,0.8-3.3c1.1-0.8,2.7-0.5,3.5,0.7c0.1,0.2,0.2,0.4,0.3,0.6
			c0.4,1.3-0.3,2.7-1.6,3.2C94.7,29,94.4,29,94.1,29z M91,23.9c-0.6,0-1.3-0.2-1.8-0.7c-0.1-0.1-0.2-0.3-0.3-0.4
			c-0.8-1.1-0.5-2.7,0.7-3.5c1.1-0.7,2.6-0.5,3.4,0.5c0.8,1,0.7,2.4-0.2,3.3C92.3,23.7,91.6,23.9,91,23.9z M87.3,19.2
			c-0.5,0-1-0.1-1.4-0.4c-0.3-0.2-0.5-0.4-0.7-0.7c-0.8-1.1-0.5-2.7,0.7-3.5c1-0.7,2.4-0.5,3.2,0.4c0.8,0.8,0.9,2.1,0.2,3.1
			C88.9,18.8,88.1,19.2,87.3,19.2z M83,15c-0.6,0-1.2-0.2-1.7-0.7c-0.9-0.8-1.1-2.2-0.4-3.2c0.8-1.1,2.3-1.5,3.5-0.7
			c0.3,0.2,0.5,0.4,0.7,0.7c0.8,1.1,0.5,2.7-0.7,3.5C84,14.8,83.5,15,83,15z M78.3,11.3c-0.5,0-1.1-0.2-1.5-0.5
			c-1-0.8-1.3-2.3-0.5-3.4c0.8-1.1,2.3-1.5,3.5-0.7C79.8,6.8,79.9,6.9,80,7c1,1,1,2.6,0,3.5C79.5,11,78.9,11.3,78.3,11.3z M73.1,8.2
			c-0.3,0-0.5,0-0.8-0.1c-0.2-0.1-0.4-0.2-0.6-0.3C70.6,7,70.3,5.4,71,4.3c0.7-1.1,2.1-1.4,3.3-0.8c1.1,0.6,1.6,1.8,1.2,3
			C75.2,7.5,74.2,8.2,73.1,8.2z M67.6,5.7c-0.3,0-0.6-0.1-0.9-0.2c-1.2-0.5-1.9-1.8-1.4-3.1c0.4-1.3,1.8-2,3.2-1.6
			c0.1,0,0.2,0.1,0.3,0.1c1.2,0.6,1.7,2.1,1.1,3.4C69.4,5.2,68.6,5.7,67.6,5.7z M61.9,3.9c-0.3,0-0.5,0-0.8-0.1
			c-1.3-0.4-2-1.9-1.6-3.2c0.4-1.2,1.6-1.9,2.8-1.7c1.2,0.2,2,1.2,2,2.5C64.4,2.8,63.3,3.9,61.9,3.9z M56,2.9c-0.1,0-0.2,0-0.3,0
			c-1.3-0.1-2.2-1.2-2.2-2.5c0-1.4,1.1-2.5,2.5-2.5c0.2,0,0.4,0,0.6,0.1c1.3,0.3,2.2,1.7,1.8,3C58.1,2.1,57.1,2.9,56,2.9z M50,2.5
			c-1.4,0-2.5-1.1-2.5-2.5s1.1-2.5,2.5-2.5h0c1.4,0,2.5,1.1,2.5,2.5S51.4,2.5,50,2.5z"/>
		<path d="M48.7,94.1L48.7,94.1c-1.4,0-2.5-1.1-2.5-2.5s1.1-2.5,2.5-2.5s2.5,1.1,2.5,2.5S50.1,94.1,48.7,94.1z M54.7,93.9
			c-1.1,0-2.1-0.8-2.4-1.9c-0.3-1.3,0.5-2.7,1.8-3c0.2,0,0.4-0.1,0.6-0.1c1.4,0,2.5,1.1,2.5,2.5c0,1.3-1,2.4-2.2,2.5
			C54.9,93.9,54.8,93.9,54.7,93.9z M42.7,93.5c-0.1,0-0.3,0-0.4,0c-1.2-0.2-2.1-1.2-2.1-2.5c0-1.4,1.1-2.5,2.5-2.5
			c0.2,0,0.5,0,0.7,0.1c1.3,0.4,2.1,1.8,1.7,3.1C44.8,92.8,43.8,93.5,42.7,93.5z M60.6,92.8c-1.1,0-2.1-0.8-2.4-1.9
			c-0.3-1.3,0.4-2.6,1.7-3c1.3-0.4,2.7,0.3,3.1,1.6c0.4,1.3-0.3,2.7-1.6,3.2c-0.1,0-0.1,0-0.2,0.1C61,92.8,60.8,92.8,60.6,92.8z
			 M36.9,92.1c-0.2,0-0.5,0-0.7-0.1c0,0-0.1,0-0.1,0c-1.3-0.4-2-1.9-1.6-3.2c0.4-1.3,1.9-2,3.2-1.6c1.3,0.4,2,1.7,1.7,3.1
			C39.1,91.4,38,92.1,36.9,92.1z M66.3,90.9c-0.8,0-1.6-0.4-2.1-1.1c-0.8-1.1-0.5-2.7,0.7-3.5c0.2-0.1,0.4-0.2,0.6-0.3
			c1.3-0.4,2.7,0.3,3.2,1.6c0.4,1.2-0.2,2.5-1.3,3.1C67,90.8,66.6,90.9,66.3,90.9z M31.4,89.8c-0.4,0-0.8-0.1-1.2-0.3
			c-1.1-0.6-1.6-1.8-1.2-3c0.4-1.3,1.9-2,3.2-1.6c0.2,0.1,0.4,0.2,0.6,0.3c1.1,0.8,1.5,2.3,0.7,3.5C33,89.4,32.2,89.8,31.4,89.8z
			 M71.6,88.1c-1,0-2-0.7-2.4-1.7c-0.4-1.2,0.1-2.4,1.2-3c1.1-0.6,2.5-0.3,3.3,0.8c0.8,1.1,0.5,2.7-0.7,3.5
			c-0.2,0.1-0.4,0.2-0.6,0.3C72.1,88.1,71.9,88.1,71.6,88.1z M26.2,86.7c-0.5,0-1-0.1-1.4-0.4c-0.1,0-0.1-0.1-0.2-0.1
			c-1.1-0.9-1.3-2.4-0.4-3.5c0.8-1,2.3-1.2,3.4-0.5c1.1,0.8,1.4,2.3,0.6,3.4C27.8,86.3,27,86.7,26.2,86.7z M76.5,84.6
			c-0.5,0-1-0.1-1.4-0.4c-1.1-0.8-1.5-2.3-0.7-3.5c0.2-0.3,0.4-0.5,0.7-0.7c1.1-0.8,2.7-0.5,3.5,0.7c0.7,1,0.5,2.4-0.4,3.2
			C77.7,84.4,77.1,84.6,76.5,84.6z M21.5,82.9c-0.5,0-1.1-0.2-1.6-0.5c-0.1-0.1-0.3-0.2-0.4-0.4c-0.9-1.1-0.7-2.6,0.3-3.5
			c1-0.8,2.4-0.8,3.3,0.1c0.9,0.9,1.1,2.4,0.2,3.4C23,82.6,22.3,82.9,21.5,82.9z M80.8,80.5c-0.8,0-1.6-0.4-2.1-1.1
			c-0.7-1-0.5-2.3,0.2-3.1c0.8-0.9,2.2-1.1,3.2-0.4c1.1,0.8,1.5,2.3,0.7,3.5c-0.2,0.3-0.4,0.5-0.7,0.7
			C81.8,80.4,81.3,80.5,80.8,80.5z M17.5,78.5c-0.7,0-1.4-0.3-1.9-0.9c-0.8-0.9-0.8-2.2-0.1-3.2c0.9-1.1,2.4-1.3,3.5-0.4
			c0.2,0.2,0.4,0.4,0.5,0.6c0.8,1.1,0.5,2.7-0.7,3.5C18.4,78.4,17.9,78.5,17.5,78.5z M84.5,75.8c-0.6,0-1.3-0.2-1.8-0.7
			c-0.9-0.9-1-2.3-0.2-3.3c0.8-1,2.3-1.3,3.4-0.6c1.1,0.8,1.5,2.3,0.7,3.5c-0.1,0.1-0.2,0.3-0.3,0.4C85.8,75.5,85.2,75.8,84.5,75.8z
			 M14.1,73.6c-0.9,0-1.7-0.5-2.2-1.3c-0.6-1.1-0.3-2.6,0.8-3.3c1.1-0.8,2.7-0.5,3.5,0.7c0.1,0.1,0.1,0.2,0.2,0.3
			c0.6,1.2,0.1,2.7-1.1,3.4C14.8,73.5,14.4,73.6,14.1,73.6z M87.5,70.6c-0.5,0-1-0.1-1.4-0.4c-1-0.7-1.4-2-0.9-3.1
			c0.5-1.1,1.8-1.7,3.1-1.3c1.3,0.4,2,1.9,1.6,3.2c-0.1,0.2-0.2,0.4-0.3,0.6C89.1,70.2,88.4,70.6,87.5,70.6z M11.4,68.2
			c-0.9,0-1.8-0.5-2.2-1.4c-0.1-0.1-0.1-0.2-0.1-0.3c-0.4-1.3,0.3-2.7,1.6-3.2c1.2-0.4,2.6,0.2,3.1,1.4c0.5,1.2,0,2.6-1.2,3.2
			C12.2,68.1,11.8,68.2,11.4,68.2z M89.8,65c-0.2,0-0.4,0-0.6-0.1c-1.3-0.3-2.2-1.7-1.8-3c0-0.1,0-0.1,0.1-0.2
			c0.4-1.3,1.9-2,3.2-1.6c1.3,0.4,2,1.8,1.6,3.1C91.8,64.3,90.8,65,89.8,65z M9.5,62.5c-1,0-2-0.7-2.4-1.7c-0.1-0.2-0.1-0.3-0.1-0.5
			c-0.2-1.4,0.8-2.6,2.2-2.8c1.3-0.2,2.5,0.7,2.7,1.9c0.3,1.3-0.4,2.5-1.6,3C10.1,62.4,9.8,62.5,9.5,62.5z M91.1,59.1
			c-1.4,0-2.5-1.1-2.5-2.5c0-0.3,0-0.5,0.1-0.8c0.4-1.3,1.8-2,3.2-1.6c1.2,0.4,1.9,1.6,1.7,2.8C93.4,58.3,92.4,59.1,91.1,59.1z
			 M8.5,56.6c-1.2,0-2.3-0.9-2.5-2.1c0-0.1,0-0.3,0-0.4c0-1.4,1.1-2.5,2.5-2.5c1.3,0,2.4,1,2.5,2.3c0.1,1.3-0.8,2.5-2.1,2.7
			C8.8,56.5,8.7,56.6,8.5,56.6z M91.7,53.2c-1.4,0-2.5-1.1-2.5-2.5s1.1-2.5,2.5-2.5s2.5,1.1,2.5,2.5v0C94.2,52,93,53.2,91.7,53.2z
			 M91.3,47.2c-1.1,0-2.1-0.8-2.4-1.9c0-0.2-0.1-0.4-0.1-0.6c0-1.4,1.1-2.5,2.5-2.5c1.3,0,2.4,1,2.5,2.2c0.1,1.2-0.6,2.4-1.9,2.7
			C91.7,47.1,91.5,47.2,91.3,47.2z M90.1,41.3c-1.1,0-2.1-0.7-2.4-1.8c-0.4-1.3,0.3-2.7,1.6-3.1c1.3-0.4,2.7,0.3,3.2,1.6
			c0,0.1,0,0.1,0.1,0.2c0.3,1.3-0.5,2.7-1.8,3C90.5,41.3,90.3,41.3,90.1,41.3z M88.1,35.6c-0.8,0-1.6-0.4-2.1-1.1
			c-0.1-0.2-0.2-0.4-0.3-0.6c-0.4-1.3,0.3-2.7,1.6-3.2c1.2-0.4,2.5,0.2,3.1,1.3c0.5,1.1,0.2,2.4-0.9,3.1
			C89.1,35.5,88.6,35.6,88.1,35.6z M85.3,30.3c-0.9,0-1.8-0.5-2.2-1.3c-0.6-1.1-0.3-2.5,0.8-3.3c1.1-0.8,2.7-0.5,3.5,0.7
			c0.1,0.2,0.2,0.4,0.3,0.6c0.4,1.3-0.3,2.7-1.6,3.2C85.8,30.3,85.5,30.3,85.3,30.3z M81.7,25.5c-0.5,0-1-0.1-1.4-0.4
			c-0.3-0.2-0.5-0.4-0.7-0.7c-0.8-1.1-0.5-2.7,0.7-3.5c1-0.7,2.4-0.5,3.2,0.4c0.8,0.8,0.9,2.1,0.2,3.1
			C83.3,25.1,82.5,25.5,81.7,25.5z M77.5,21.2c-0.6,0-1.2-0.2-1.7-0.7c-0.9-0.8-1.1-2.2-0.4-3.2c0.8-1.1,2.3-1.5,3.5-0.7
			c0.3,0.2,0.5,0.4,0.7,0.7c0.8,1.1,0.5,2.7-0.7,3.5C78.5,21.1,78,21.2,77.5,21.2z M72.7,17.6c-0.5,0-1-0.1-1.4-0.4
			c-1.1-0.8-1.5-2.3-0.7-3.5c0.8-1.2,2.3-1.5,3.5-0.7l0,0c1.1,0.8,1.5,2.3,0.7,3.5C74.3,17.2,73.5,17.6,72.7,17.6z M67.5,14.7
			c-0.4,0-0.7-0.1-1.1-0.2c-1.1-0.5-1.7-1.8-1.3-3.1c0.4-1.3,1.8-2,3.2-1.6c0.2,0.1,0.4,0.2,0.6,0.3c1.1,0.8,1.5,2.3,0.7,3.5
			C69.1,14.3,68.3,14.7,67.5,14.7z M61.9,12.6c-0.2,0-0.4,0-0.6-0.1c-0.1,0-0.1,0-0.2-0.1c-1.3-0.4-2-1.9-1.6-3.2
			c0.4-1.3,1.8-2,3.1-1.6c1.3,0.4,2,1.7,1.7,3C64,11.8,63,12.6,61.9,12.6z M56,11.3c-0.1,0-0.2,0-0.3,0c-1.3-0.1-2.2-1.2-2.2-2.5
			c0-1.4,1.1-2.5,2.5-2.5c0.2,0,0.4,0,0.6,0.1c1.3,0.3,2.2,1.7,1.8,3C58.1,10.5,57.1,11.3,56,11.3z M50,10.8c-1.4,0-2.5-1.1-2.5-2.5
			s1.1-2.5,2.5-2.5h0c1.4,0,2.5,1.1,2.5,2.5S51.4,10.8,50,10.8z"/>
		<path d="M52.6,85.7c-1.1,0-2.1-0.8-2.4-1.9c-0.3-1.3,0.5-2.7,1.8-3c0.2,0,0.4-0.1,0.6-0.1c1.4,0,2.5,1.1,2.5,2.5
			c0,1.3-1,2.4-2.2,2.5C52.7,85.7,52.6,85.7,52.6,85.7z M46.6,85.7c-0.3,0-0.5,0-0.8-0.1c-1.3-0.4-2-1.9-1.6-3.2
			c0.4-1.2,1.5-1.8,2.7-1.7c1.2,0.1,2.2,1.2,2.2,2.5C49.1,84.5,47.9,85.7,46.6,85.7z M58.5,84.7c-1.1,0-2.1-0.8-2.4-1.9
			c-0.3-1.3,0.4-2.6,1.7-3c1.3-0.4,2.7,0.3,3.1,1.6c0.4,1.3-0.3,2.7-1.6,3.2c-0.1,0-0.1,0-0.2,0.1C58.9,84.7,58.7,84.7,58.5,84.7z
			 M40.7,84.5c-0.2,0-0.5,0-0.7-0.1c0,0-0.1,0-0.1,0c-1.3-0.4-2-1.9-1.6-3.2c0.4-1.3,1.9-2,3.2-1.6c1.3,0.4,2,1.7,1.7,3.1
			C42.8,83.8,41.8,84.5,40.7,84.5z M64.1,82.7c-0.8,0-1.6-0.4-2.1-1.1c-0.8-1.1-0.5-2.7,0.7-3.5c0.2-0.1,0.4-0.2,0.6-0.3
			c1.3-0.4,2.7,0.3,3.2,1.6c0.4,1.2-0.2,2.5-1.3,3.1C64.8,82.6,64.5,82.7,64.1,82.7z M35.1,82.3c-0.4,0-0.8-0.1-1.2-0.3
			c-1.1-0.6-1.6-1.8-1.2-3c0.4-1.3,1.9-2,3.2-1.6c0.2,0.1,0.4,0.2,0.6,0.3c1.1,0.8,1.5,2.3,0.7,3.5C36.7,81.9,35.9,82.3,35.1,82.3z
			 M69.3,79.7c-0.6,0-1.3-0.2-1.8-0.7c-1-1-1-2.6,0-3.5c0.1-0.1,0.3-0.2,0.4-0.3c1.1-0.8,2.7-0.5,3.5,0.7c0.7,1.1,0.5,2.6-0.6,3.4
			C70.4,79.5,69.8,79.7,69.3,79.7z M30,79.1c-0.5,0-1-0.2-1.5-0.5c-1.1-0.8-1.3-2.3-0.6-3.4c0.8-1.1,2.3-1.5,3.5-0.7
			c0.1,0,0.1,0.1,0.2,0.1c1.1,0.9,1.3,2.4,0.4,3.5C31.5,78.8,30.7,79.1,30,79.1z M73.8,75.8c-0.6,0-1.3-0.2-1.8-0.7
			c-1-1-1-2.6,0-3.5c1-1,2.6-1,3.5,0s1,2.6,0,3.5l0,0C75.1,75.5,74.5,75.8,73.8,75.8z M25.5,75.1c-0.7,0-1.4-0.3-1.9-0.8
			c-0.9-1-0.8-2.5,0.1-3.4c1-1,2.6-1,3.5,0c0.1,0.1,0.1,0.1,0.2,0.2c0.9,1.1,0.7,2.6-0.3,3.5C26.7,74.9,26.1,75.1,25.5,75.1z
			 M77.6,71.1c-0.6,0-1.3-0.2-1.8-0.7c-0.9-0.9-1-2.3-0.2-3.3c0.8-1,2.3-1.3,3.4-0.6c1.1,0.8,1.5,2.3,0.7,3.5
			c-0.1,0.1-0.2,0.3-0.3,0.4C78.9,70.9,78.3,71.1,77.6,71.1z M21.9,70.4c-0.8,0-1.6-0.4-2.1-1.1c-0.1-0.1-0.1-0.2-0.2-0.3
			c-0.6-1.2-0.1-2.7,1.1-3.4c1.2-0.6,2.6-0.2,3.3,1c0.7,1.1,0.4,2.6-0.8,3.4C22.8,70.2,22.4,70.4,21.9,70.4z M80.5,65.9
			c-0.5,0-1-0.1-1.4-0.4c-1-0.7-1.4-2-0.9-3.1c0.5-1.1,1.8-1.7,3.1-1.3c1.3,0.4,2,1.9,1.6,3.2c-0.1,0.2-0.2,0.4-0.3,0.6
			C82.1,65.5,81.3,65.9,80.5,65.9z M19.1,65c-0.9,0-1.8-0.5-2.2-1.4c-0.1-0.1-0.1-0.2-0.1-0.3c-0.4-1.3,0.3-2.7,1.6-3.2
			c1.2-0.4,2.6,0.2,3.1,1.4c0.5,1.2,0,2.6-1.2,3.2C19.9,65,19.5,65,19.1,65z M82.4,60.2c-1.4,0-2.5-1.1-2.5-2.5c0-0.3,0-0.5,0.1-0.8
			c0.4-1.3,1.8-2,3.2-1.6c1.2,0.4,1.9,1.6,1.7,2.8C84.7,59.3,83.7,60.2,82.4,60.2z M17.4,59.3c-1.2,0-2.2-0.8-2.4-2
			c-0.3-1.3,0.5-2.6,1.8-2.9c1.3-0.3,2.7,0.5,3,1.8c0,0.1,0,0.1,0,0.2c0.2,1.4-0.7,2.7-2.1,2.9C17.6,59.3,17.5,59.3,17.4,59.3z
			 M83.3,54.2c-0.2,0-0.4,0-0.6-0.1c-1.2-0.3-2-1.5-1.9-2.7c0.1-1.3,1.2-2.2,2.5-2.2c1.4,0,2.5,1.1,2.5,2.5c0,0.2,0,0.4-0.1,0.6
			C85.4,53.5,84.4,54.2,83.3,54.2z M16.7,53.3c-1.3,0-2.4-1-2.5-2.4c-0.1-1.3,0.9-2.5,2.2-2.6c1.4-0.2,2.6,0.8,2.8,2.2
			c0,0.1,0,0.2,0,0.3C19.2,52.2,18.1,53.3,16.7,53.3z M83.1,48.2c-1.1,0-2.1-0.8-2.4-1.9c0-0.2-0.1-0.4-0.1-0.6
			c0-1.4,1.1-2.5,2.5-2.5c1.3,0,2.4,1,2.5,2.2c0.1,1.2-0.6,2.4-1.9,2.7C83.5,48.2,83.3,48.2,83.1,48.2z M81.8,42.4
			c-1.1,0-2.1-0.7-2.4-1.8c-0.4-1.3,0.3-2.7,1.6-3.1c1.3-0.4,2.7,0.3,3.2,1.6c0,0.1,0,0.1,0.1,0.2c0.3,1.3-0.5,2.7-1.8,3
			C82.2,42.4,82,42.4,81.8,42.4z M79.4,36.9c-0.9,0-1.8-0.5-2.2-1.3C76.6,34.4,77,33,78,32.3c1.1-0.8,2.7-0.5,3.5,0.7
			c0.1,0.2,0.2,0.4,0.3,0.6c0.4,1.3-0.3,2.7-1.6,3.2C80,36.8,79.7,36.9,79.4,36.9z M76.1,31.8c-0.6,0-1.3-0.2-1.8-0.7
			c-0.1-0.1-0.2-0.3-0.3-0.4c-0.8-1.1-0.5-2.7,0.7-3.5c1.1-0.7,2.6-0.5,3.4,0.6c0.8,1,0.7,2.4-0.2,3.3
			C77.4,31.6,76.8,31.8,76.1,31.8z M72,27.5c-0.6,0-1.2-0.2-1.7-0.7c-0.9-0.8-1.1-2.2-0.4-3.2c0.8-1.1,2.3-1.5,3.5-0.7
			c0.3,0.2,0.5,0.4,0.7,0.7c0.8,1.1,0.5,2.7-0.7,3.5C73,27.3,72.5,27.5,72,27.5z M67.2,23.9c-0.3,0-0.5,0-0.8-0.1
			c-0.2-0.1-0.4-0.2-0.6-0.3c-1.1-0.8-1.5-2.3-0.7-3.5c0.7-1.1,2.1-1.4,3.3-0.8c1.1,0.6,1.6,1.8,1.2,3
			C69.2,23.3,68.2,23.9,67.2,23.9z M61.8,21.3c-0.3,0-0.6-0.1-0.9-0.2c-1.2-0.5-1.9-1.8-1.4-3.1c0.4-1.3,1.8-2,3.2-1.6
			c0.1,0,0.2,0.1,0.3,0.1c1.2,0.6,1.7,2.1,1.1,3.4C63.6,20.8,62.7,21.3,61.8,21.3z M56,19.7c-0.3,0-0.5,0-0.8-0.1
			c-1.3-0.4-2-1.9-1.6-3.2c0.4-1.2,1.6-1.9,2.8-1.7c1.2,0.2,2,1.2,2,2.5C58.5,18.6,57.4,19.7,56,19.7z M50,19.2
			c-1.4,0-2.5-1.1-2.5-2.5s1.1-2.5,2.5-2.5h0c1.4,0,2.5,1.1,2.5,2.5S51.4,19.2,50,19.2z"/>
		<path d="M50.4,77.5L50.4,77.5c-1.4,0-2.5-1.1-2.5-2.5s1.1-2.5,2.5-2.5c1.4,0,2.5,1.1,2.5,2.5S51.8,77.5,50.4,77.5z M44.5,76.9
			c-0.1,0-0.3,0-0.4,0c-1.2-0.2-2.1-1.2-2.1-2.5c0-1.4,1.1-2.5,2.5-2.5c0.2,0,0.5,0,0.7,0.1c1.3,0.4,2.1,1.8,1.7,3.1
			C46.6,76.2,45.6,76.9,44.5,76.9z M56.3,76.7c-1.1,0-2.1-0.8-2.4-1.9c-0.3-1.3,0.4-2.6,1.7-3c1.3-0.4,2.7,0.3,3.1,1.6
			c0.4,1.3-0.3,2.7-1.6,3.2c-0.1,0-0.1,0-0.2,0.1C56.8,76.7,56.5,76.7,56.3,76.7z M38.8,74.9c-0.4,0-0.8-0.1-1.2-0.3
			c-1.1-0.6-1.6-1.8-1.2-3c0.4-1.3,1.9-2,3.2-1.6c0.2,0.1,0.4,0.2,0.6,0.3c1.1,0.8,1.5,2.3,0.7,3.5C40.4,74.5,39.6,74.9,38.8,74.9z
			 M61.9,74.5c-1,0-2-0.7-2.4-1.7c-0.4-1.2,0.1-2.4,1.2-3c1.1-0.6,2.5-0.3,3.3,0.8c0.8,1.1,0.5,2.7-0.7,3.5
			c-0.2,0.1-0.4,0.2-0.6,0.3C62.4,74.4,62.2,74.5,61.9,74.5z M33.8,71.5c-0.5,0-1.1-0.2-1.6-0.5c-0.1-0.1-0.1-0.1-0.2-0.2
			c-1-1-1-2.6,0-3.5c0.9-0.9,2.4-1,3.4-0.1c1,0.9,1.1,2.4,0.3,3.4C35.3,71.2,34.6,71.5,33.8,71.5z M66.8,71c-0.5,0-1-0.1-1.4-0.4
			c-1.1-0.8-1.5-2.3-0.7-3.5c0.2-0.3,0.4-0.5,0.7-0.7c1.1-0.8,2.7-0.5,3.5,0.7c0.7,1,0.5,2.4-0.4,3.2C68,70.8,67.4,71,66.8,71z
			 M29.8,67.1c-0.8,0-1.5-0.3-2-1c-0.8-1-0.7-2.4,0.2-3.3c1-1,2.6-1,3.5,0c0.1,0.1,0.2,0.3,0.3,0.4c0.8,1.1,0.5,2.7-0.7,3.5
			C30.7,67,30.2,67.1,29.8,67.1z M70.7,66.5c-0.6,0-1.3-0.2-1.8-0.7c-0.9-0.9-1-2.3-0.2-3.3c0.8-1,2.3-1.3,3.4-0.6
			c1.1,0.8,1.5,2.3,0.7,3.5c-0.1,0.1-0.2,0.3-0.3,0.4C72,66.2,71.4,66.5,70.7,66.5z M26.8,61.9c-0.9,0-1.8-0.5-2.2-1.4
			c-0.1-0.1-0.1-0.2-0.1-0.3C24,58.9,24.7,57.5,26,57c1.2-0.4,2.6,0.2,3.1,1.4c0.5,1.2,0,2.6-1.2,3.2C27.6,61.8,27.2,61.9,26.8,61.9
			z M73.5,61.1c-0.4,0-0.8-0.1-1.1-0.3c-1.2-0.6-1.7-2-1.2-3.2c0.5-1.2,1.8-1.9,3.1-1.4c1.3,0.4,2,1.9,1.6,3.2
			c0,0.1-0.1,0.2-0.1,0.3C75.3,60.6,74.4,61.1,73.5,61.1z M25.3,56.2c-1.2,0-2.3-0.9-2.5-2.1c0,0,0-0.1,0-0.1
			c-0.2-1.4,0.8-2.6,2.2-2.8c1.4-0.2,2.6,0.8,2.8,2.2c0.2,1.4-0.7,2.6-2.1,2.8C25.5,56.2,25.4,56.2,25.3,56.2z M74.8,55.3
			c-0.2,0-0.4,0-0.6-0.1c-1.2-0.3-2-1.5-1.9-2.7c0.1-1.3,1.2-2.2,2.5-2.2c1.4,0,2.5,1.1,2.5,2.5c0,0.2,0,0.4-0.1,0.6
			C77,54.5,76,55.3,74.8,55.3z M74.8,49.3c-1.1,0-2.1-0.8-2.4-1.9c0-0.2-0.1-0.4-0.1-0.6c0-1.4,1.1-2.5,2.5-2.5c1.3,0,2.4,1,2.5,2.2
			c0.1,1.2-0.6,2.4-1.9,2.7C75.2,49.3,75,49.3,74.8,49.3z M73.3,43.5c-0.9,0-1.8-0.5-2.2-1.4C71,42,71,41.9,70.9,41.8
			c-0.4-1.3,0.3-2.7,1.6-3.2c1.3-0.4,2.6,0.2,3.1,1.4c0.5,1.2,0,2.6-1.2,3.2C74.1,43.4,73.7,43.5,73.3,43.5z M70.5,38.2
			c-0.6,0-1.3-0.2-1.8-0.7c-0.1-0.1-0.2-0.3-0.3-0.4c-0.8-1.1-0.5-2.7,0.7-3.5c1.1-0.7,2.6-0.5,3.4,0.6c0.8,1,0.7,2.4-0.2,3.3
			C71.8,38,71.1,38.2,70.5,38.2z M66.5,33.7c-0.6,0-1.2-0.2-1.7-0.7c-0.9-0.8-1.1-2.2-0.4-3.2c0.8-1.1,2.3-1.5,3.5-0.7
			c0.3,0.2,0.5,0.4,0.7,0.7c0.8,1.1,0.5,2.7-0.7,3.5C67.5,33.6,67,33.7,66.5,33.7z M61.6,30.3c-0.3,0-0.5,0-0.8-0.1
			c-0.2-0.1-0.4-0.2-0.6-0.3c-1.1-0.8-1.5-2.3-0.7-3.5c0.7-1.1,2.1-1.4,3.3-0.8c1.1,0.6,1.6,1.8,1.2,3
			C63.6,29.7,62.6,30.3,61.6,30.3z M56,28.2c-0.3,0-0.5,0-0.8-0.1c-1.3-0.4-2-1.9-1.6-3.2c0.4-1.2,1.6-1.9,2.8-1.7
			c1.2,0.2,2,1.2,2,2.5C58.5,27.1,57.3,28.2,56,28.2z M50,27.5c-1.4,0-2.5-1.1-2.5-2.5s1.1-2.5,2.5-2.5h0c1.4,0,2.5,1.1,2.5,2.5
			S51.4,27.5,50,27.5z"/>
		<path d="M48.3,69.1c-0.3,0-0.5,0-0.8-0.1c-1.3-0.4-2-1.9-1.6-3.2c0.4-1.2,1.5-1.8,2.7-1.7c1.2,0.1,2.2,1.2,2.2,2.5
			C50.8,68,49.7,69.1,48.3,69.1z M54.2,68.6c-1.1,0-2.1-0.8-2.4-1.9c-0.3-1.3,0.4-2.6,1.7-3c1.3-0.4,2.7,0.3,3.1,1.6
			c0.4,1.3-0.3,2.7-1.6,3.2c-0.1,0-0.1,0-0.2,0.1C54.6,68.6,54.4,68.6,54.2,68.6z M42.6,67.4c-0.4,0-0.8-0.1-1.2-0.3
			c-1.1-0.6-1.6-1.8-1.2-3c0.4-1.3,1.9-2,3.2-1.6c0.2,0.1,0.4,0.2,0.6,0.3c1.1,0.8,1.5,2.3,0.7,3.5C44.2,67,43.4,67.4,42.6,67.4z
			 M59.7,66.1c-0.6,0-1.3-0.2-1.8-0.7c-1-1-1-2.6,0-3.5c0.1-0.1,0.3-0.2,0.4-0.3c1.1-0.8,2.7-0.5,3.5,0.7c0.7,1.1,0.5,2.6-0.6,3.4
			C60.7,65.9,60.2,66.1,59.7,66.1z M37.8,63.8c-0.7,0-1.4-0.3-1.9-0.8c-0.9-1-0.8-2.5,0.1-3.4c1-1,2.6-1,3.5,0
			c0.1,0.1,0.1,0.1,0.2,0.2c0.9,1.1,0.7,2.6-0.3,3.5C38.9,63.6,38.3,63.8,37.8,63.8z M63.8,61.8c-0.5,0-1-0.1-1.4-0.4
			c-1.1-0.8-1.5-2.3-0.7-3.5c0.8-1.1,2.3-1.5,3.5-0.7c1.1,0.8,1.5,2.3,0.7,3.5l0,0C65.4,61.4,64.6,61.8,63.8,61.8z M34.6,58.8
			c-0.9,0-1.8-0.5-2.2-1.4c-0.1-0.1-0.1-0.2-0.1-0.3c-0.4-1.3,0.3-2.7,1.6-3.2c1.2-0.4,2.6,0.2,3.1,1.4c0.5,1.2,0,2.6-1.2,3.2
			C35.3,58.7,34.9,58.8,34.6,58.8z M66.2,56.3c-1.4,0-2.5-1.1-2.5-2.5c0-0.3,0-0.5,0.1-0.8c0.4-1.3,1.8-2,3.2-1.6
			c1.2,0.4,1.9,1.6,1.7,2.8C68.5,55.5,67.5,56.3,66.2,56.3z M33.3,52.9c-1.3,0-2.4-1-2.5-2.4c-0.1-1.3,0.9-2.5,2.2-2.6
			c1.4-0.2,2.6,0.8,2.8,2.2c0,0.1,0,0.2,0,0.3C35.8,51.8,34.7,52.9,33.3,52.9z M66.5,50.4c-1.1,0-2.1-0.8-2.4-1.9
			c0-0.2-0.1-0.4-0.1-0.6c0-1.4,1.1-2.5,2.5-2.5c1.3,0,2.4,1,2.5,2.2c0.1,1.2-0.6,2.4-1.9,2.7C66.9,50.3,66.7,50.4,66.5,50.4z
			 M64.7,44.7c-0.9,0-1.8-0.5-2.2-1.3c-0.6-1.1-0.3-2.5,0.8-3.3c1.1-0.8,2.7-0.5,3.5,0.7c0.1,0.2,0.2,0.4,0.3,0.6
			c0.4,1.3-0.3,2.7-1.6,3.2C65.2,44.6,65,44.7,64.7,44.7z M61,40c-0.6,0-1.2-0.2-1.7-0.7c-0.9-0.8-1.1-2.2-0.4-3.2
			c0.8-1.1,2.3-1.5,3.5-0.7c0.3,0.2,0.5,0.4,0.7,0.7c0.8,1.1,0.5,2.7-0.7,3.5C62,39.9,61.5,40,61,40z M55.9,36.9
			c-0.3,0-0.6-0.1-0.9-0.2c-1.2-0.5-1.9-1.8-1.4-3.1c0.4-1.3,1.8-2,3.2-1.6c0.1,0,0.2,0.1,0.3,0.1c1.2,0.6,1.7,2.1,1.1,3.4
			C57.7,36.4,56.8,36.9,55.9,36.9z M50,35.8c-1.4,0-2.5-1.1-2.5-2.5s1.1-2.5,2.5-2.5h0c1.4,0,2.5,1.1,2.5,2.5S51.4,35.8,50,35.8z"/>
		<path d="M52.1,60.6c-1.1,0-2.1-0.8-2.4-1.9c-0.3-1.3,0.4-2.6,1.7-3c1.3-0.4,2.7,0.3,3.1,1.6c0.4,1.3-0.3,2.7-1.6,3.2
			c-0.1,0-0.1,0-0.2,0.1C52.5,60.5,52.3,60.6,52.1,60.6z M46.3,60c-0.4,0-0.8-0.1-1.2-0.3c-1.1-0.6-1.6-1.8-1.2-3
			c0.4-1.3,1.9-2,3.2-1.6c0.2,0.1,0.4,0.2,0.6,0.3c1.1,0.8,1.5,2.3,0.7,3.5C47.9,59.6,47.1,60,46.3,60z M56.9,57.2
			c-0.6,0-1.3-0.2-1.8-0.7c-0.9-0.9-1-2.3-0.2-3.3c0.8-1,2.3-1.3,3.4-0.6c1.1,0.8,1.5,2.3,0.7,3.5c-0.1,0.1-0.2,0.3-0.3,0.4
			C58.2,56.9,57.5,57.2,56.9,57.2z M42.3,55.6c-0.9,0-1.8-0.5-2.2-1.4c-0.1-0.1-0.1-0.2-0.1-0.3c-0.4-1.3,0.3-2.7,1.6-3.2
			c1.2-0.4,2.6,0.2,3.1,1.4c0.5,1.2,0,2.6-1.2,3.2C43,55.6,42.7,55.6,42.3,55.6z M58.3,51.4c-1.1,0-2.1-0.8-2.4-1.9
			c0-0.2-0.1-0.4-0.1-0.6c0-1.4,1.1-2.5,2.5-2.5c1.3,0,2.4,1,2.5,2.2c0.1,1.2-0.6,2.4-1.9,2.7C58.7,51.4,58.5,51.4,58.3,51.4z
			 M55.5,46.2c-0.6,0-1.2-0.2-1.7-0.7c-0.9-0.8-1.1-2.2-0.4-3.2c0.8-1.1,2.3-1.5,3.5-0.7c0.3,0.2,0.5,0.4,0.7,0.7
			c0.8,1.1,0.5,2.7-0.7,3.5C56.5,46.1,56,46.2,55.5,46.2z M50,44.2c-1.4,0-2.5-1.1-2.5-2.5s1.1-2.5,2.5-2.5h0c1.4,0,2.5,1.1,2.5,2.5
			S51.4,44.2,50,44.2z"/>
	</g>
</g>
</svg>
