<?xml version="1.0" encoding="utf-8"?>
<!-- Generator: Adobe Illustrator 26.5.1, SVG Export Plug-In . SVG Version: 6.00 Build 0)  -->
<svg version="1.1" id="Ebene_1" xmlns="http://www.w3.org/2000/svg" xmlns:xlink="http://www.w3.org/1999/xlink" x="0px" y="0px"
	 viewBox="0 0 100 100" style="enable-background:new 0 0 100 100;" xml:space="preserve">
<g>
	<g>
		<g>
			<path d="M100,52.5c-0.2,0-0.3,0-0.5,0c-0.2,0-0.3-0.1-0.5-0.1c-0.2-0.1-0.3-0.1-0.4-0.2c-0.1-0.1-0.3-0.2-0.4-0.3
				c-0.1-0.1-0.2-0.2-0.3-0.4c-0.1-0.1-0.2-0.3-0.2-0.4c-0.1-0.2-0.1-0.3-0.1-0.5c0-0.2,0-0.3,0-0.5c0-0.7,0.3-1.3,0.7-1.8
				c0.1-0.1,0.2-0.2,0.4-0.3c0.1-0.1,0.3-0.2,0.4-0.2c0.1-0.1,0.3-0.1,0.5-0.1c0.3-0.1,0.7-0.1,1,0c0.2,0,0.3,0.1,0.5,0.1
				c0.1,0.1,0.3,0.1,0.4,0.2c0.1,0.1,0.3,0.2,0.4,0.3c0.1,0.1,0.2,0.2,0.3,0.4c0.1,0.1,0.2,0.3,0.2,0.4c0.1,0.1,0.1,0.3,0.1,0.5
				c0,0.2,0,0.3,0,0.5c0,0.7-0.3,1.3-0.7,1.8c-0.1,0.1-0.2,0.2-0.4,0.3c-0.1,0.1-0.3,0.2-0.4,0.2c-0.2,0.1-0.3,0.1-0.5,0.1
				C100.3,52.5,100.2,52.5,100,52.5z"/>
			<path d="M50.1,102.5L50.1,102.5c-1.4,0-2.5-1.1-2.5-2.5s1.1-2.5,2.5-2.5s2.5,1.1,2.5,2.5S51.4,102.5,50.1,102.5z M44,102.1
				c-0.2,0-0.4,0-0.6-0.1c-1.3-0.3-2.2-1.7-1.8-3c0.3-1.2,1.5-2,2.7-1.9c1.3,0.1,2.2,1.2,2.2,2.5C46.5,101,45.4,102.1,44,102.1z
				 M56.1,102.1c-1.1,0-2.1-0.8-2.4-1.9c-0.3-1.3,0.5-2.7,1.8-3c0.2,0,0.4-0.1,0.6-0.1c1.4,0,2.5,1.1,2.5,2.5c0,1.3-1,2.4-2.2,2.5
				C56.2,102.1,56.2,102.1,56.1,102.1z M38.1,101.1c-0.2,0-0.3,0-0.5,0c-1.2-0.2-2-1.2-2-2.5c0-1.4,1.1-2.5,2.5-2.5
				c0.3,0,0.5,0,0.8,0.1c1.3,0.4,2,1.9,1.6,3.2C40.1,100.4,39.1,101.1,38.1,101.1z M62,101c-1.4,0-2.5-1.1-2.5-2.5
				c0-1.2,0.9-2.2,2.1-2.5c1.2-0.2,2.4,0.5,2.8,1.7c0.4,1.3-0.3,2.7-1.6,3.2C62.5,101,62.3,101,62,101z M32.3,99.3
				c-0.3,0-0.5,0-0.8-0.1c-0.1,0-0.2-0.1-0.3-0.1c-1.2-0.6-1.7-2.1-1.1-3.4c0.6-1.2,2-1.7,3.2-1.2c1.2,0.5,1.9,1.8,1.4,3.1
				C34.4,98.6,33.4,99.3,32.3,99.3z M67.8,99.2c-0.9,0-1.8-0.5-2.2-1.4c-0.6-1.2-0.1-2.7,1.1-3.4c0.1-0.1,0.2-0.1,0.3-0.1
				c1.3-0.4,2.7,0.3,3.2,1.6c0.4,1.3-0.2,2.6-1.4,3.1C68.4,99.2,68.1,99.2,67.8,99.2z M26.8,96.8c-0.4,0-0.8-0.1-1.2-0.3
				c-1.1-0.6-1.6-1.8-1.2-3c0.4-1.3,1.8-2,3.2-1.6c0.2,0.1,0.4,0.2,0.6,0.3c1.1,0.8,1.5,2.3,0.7,3.5C28.4,96.4,27.6,96.8,26.8,96.8z
				 M73.2,96.8c-1,0-2-0.7-2.4-1.7c-0.4-1.2,0.1-2.4,1.2-3c1.1-0.6,2.5-0.3,3.3,0.8c0.8,1.1,0.5,2.7-0.7,3.5
				c-0.2,0.1-0.4,0.2-0.6,0.3C73.8,96.7,73.5,96.8,73.2,96.8z M21.7,93.7c-0.5,0-1-0.1-1.4-0.4c-0.1-0.1-0.3-0.2-0.4-0.3
				c-1-1-1-2.6,0-3.5c0.9-0.9,2.3-1,3.3-0.2c1,0.8,1.3,2.3,0.6,3.4C23.3,93.3,22.5,93.7,21.7,93.7z M78.4,93.6
				c-0.6,0-1.3-0.2-1.8-0.7c-1-1-1-2.6,0-3.5c0.1-0.1,0.3-0.2,0.4-0.3c1.1-0.8,2.7-0.5,3.5,0.7c0.7,1.1,0.5,2.6-0.6,3.4
				C79.5,93.5,78.9,93.6,78.4,93.6z M16.9,90c-0.5,0-1-0.1-1.4-0.4c-0.3-0.2-0.5-0.4-0.7-0.7c-0.8-1.1-0.5-2.7,0.7-3.5
				c1-0.7,2.3-0.5,3.1,0.2c0.9,0.8,1.1,2.2,0.4,3.2C18.5,89.6,17.7,90,16.9,90z M83.1,89.9c-0.5,0-1-0.1-1.4-0.4
				c-1.1-0.8-1.5-2.3-0.7-3.5c0.2-0.3,0.4-0.5,0.7-0.7c1.1-0.8,2.7-0.5,3.5,0.7c0.7,1,0.5,2.4-0.4,3.2
				C84.4,89.7,83.8,89.9,83.1,89.9z M12.6,85.7c-0.7,0-1.4-0.3-1.8-0.8c-0.8-0.8-0.9-2.1-0.2-3.1c0.8-1.1,2.3-1.5,3.5-0.7
				c0.3,0.2,0.5,0.4,0.7,0.7c0.8,1.1,0.5,2.7-0.7,3.5C13.6,85.6,13.1,85.7,12.6,85.7z M87.4,85.6c-0.8,0-1.6-0.4-2.1-1.1
				c-0.7-1-0.5-2.3,0.2-3.1c0.8-0.9,2.2-1.1,3.2-0.4c1.1,0.8,1.5,2.3,0.7,3.5c-0.2,0.3-0.4,0.5-0.7,0.7
				C88.4,85.5,87.9,85.6,87.4,85.6z M8.9,81c-0.8,0-1.5-0.3-2-1c-0.8-1-0.7-2.4,0.2-3.3c1-1,2.6-1,3.5,0c0.1,0.1,0.2,0.3,0.3,0.4
				c0.8,1.1,0.5,2.7-0.7,3.5C9.9,80.8,9.4,81,8.9,81z M91.1,80.9c-0.6,0-1.3-0.2-1.8-0.7c-0.9-0.9-1-2.3-0.2-3.3
				c0.8-1,2.3-1.3,3.4-0.6c1.1,0.8,1.5,2.3,0.7,3.5c-0.1,0.1-0.2,0.3-0.3,0.4C92.4,80.6,91.8,80.9,91.1,80.9z M5.8,75.8
				c-0.8,0-1.6-0.4-2.1-1.1c-0.1-0.2-0.2-0.4-0.3-0.6C3,72.8,3.7,71.4,5,70.9c1.2-0.4,2.4,0.1,3,1.2c0.6,1.1,0.3,2.5-0.8,3.3
				C6.7,75.7,6.2,75.8,5.8,75.8z M94.3,75.7c-0.3,0-0.5,0-0.8-0.1c-1.3-0.4-2-1.9-1.6-3.2c0.1-0.2,0.2-0.4,0.3-0.6
				c0.8-1.1,2.3-1.5,3.5-0.7c1.1,0.7,1.4,2.1,0.8,3.3C96,75.2,95.2,75.7,94.3,75.7z M3.3,70.3c-1,0-1.9-0.6-2.3-1.6
				c-0.5-1.2,0-2.6,1.2-3.2c1.2-0.6,2.7-0.1,3.4,1.1c0.1,0.1,0.1,0.2,0.1,0.3c0.4,1.3-0.3,2.7-1.6,3.2C3.8,70.3,3.5,70.3,3.3,70.3z
				 M96.8,70.2c-0.4,0-0.8-0.1-1.1-0.3c-1.2-0.6-1.7-2-1.2-3.2c0.5-1.2,1.8-1.9,3.1-1.4c1.3,0.4,2,1.9,1.6,3.2
				c0,0.1-0.1,0.2-0.1,0.3C98.6,69.7,97.7,70.2,96.8,70.2z M1.5,64.6c-1,0-2-0.7-2.4-1.7C-1,62.6-1,62.3-1,62c0-1.4,1.1-2.5,2.5-2.5
				c1.2,0,2.2,0.9,2.5,2c0.2,1.2-0.5,2.4-1.7,2.8C2,64.5,1.7,64.6,1.5,64.6z M98.6,64.5c-1.4,0-2.5-1.1-2.5-2.5c0-0.3,0-0.5,0.1-0.8
				c0.4-1.3,1.8-2,3.2-1.6c1.2,0.4,1.9,1.6,1.7,2.8C100.8,63.6,99.8,64.5,98.6,64.5z M0.4,58.6c-1.3,0-2.4-1-2.5-2.2
				c-0.1-1.2,0.7-2.4,1.9-2.7c1.3-0.3,2.7,0.5,3,1.8c0,0.2,0.1,0.4,0.1,0.6C2.9,57.5,1.8,58.6,0.4,58.6z M99.6,58.5
				c-0.2,0-0.4,0-0.6-0.1c-1.2-0.3-2-1.5-1.9-2.7c0.1-1.3,1.2-2.2,2.5-2.2c1.4,0,2.5,1.1,2.5,2.5c0,0.2,0,0.4-0.1,0.6
				C101.8,57.8,100.8,58.5,99.6,58.5z"/>
			<path d="M0,52.5c-0.2,0-0.3,0-0.5,0c-0.2,0-0.3-0.1-0.5-0.1c-0.2-0.1-0.3-0.1-0.4-0.2c-0.1-0.1-0.3-0.2-0.4-0.3
				c-0.5-0.5-0.7-1.1-0.7-1.8c0-0.2,0-0.3,0-0.5s0.1-0.3,0.1-0.5c0.1-0.2,0.1-0.3,0.2-0.4c0.1-0.1,0.2-0.3,0.3-0.4
				c0.1-0.1,0.2-0.2,0.4-0.3c0.1-0.1,0.3-0.2,0.4-0.2c0.1-0.1,0.3-0.1,0.5-0.1c0.3-0.1,0.7-0.1,1,0c0.2,0,0.3,0.1,0.5,0.1
				c0.2,0.1,0.3,0.1,0.4,0.2c0.1,0.1,0.3,0.2,0.4,0.3c0.1,0.1,0.2,0.2,0.3,0.4c0.1,0.1,0.2,0.3,0.2,0.4c0.1,0.1,0.1,0.3,0.1,0.5
				c0,0.2,0,0.3,0,0.5c0,0.7-0.3,1.3-0.7,1.8C1.3,52.2,0.7,52.5,0,52.5z"/>
		</g>
		<g>
			<path d="M91.7,52.5c-0.7,0-1.3-0.3-1.8-0.7c-0.5-0.5-0.7-1.1-0.7-1.8c0-0.2,0-0.3,0-0.5c0-0.2,0.1-0.3,0.1-0.5
				c0.1-0.2,0.1-0.3,0.2-0.4c0.1-0.1,0.2-0.3,0.3-0.4c0.1-0.1,0.2-0.2,0.4-0.3c0.1-0.1,0.3-0.2,0.4-0.2c0.1-0.1,0.3-0.1,0.5-0.1
				c0.3-0.1,0.7-0.1,1,0c0.2,0,0.3,0.1,0.5,0.1c0.1,0.1,0.3,0.1,0.4,0.2c0.1,0.1,0.3,0.2,0.4,0.3c0.1,0.1,0.2,0.2,0.3,0.4
				c0.1,0.1,0.2,0.3,0.2,0.4c0.1,0.1,0.1,0.3,0.1,0.5c0,0.2,0,0.3,0,0.5c0,0.7-0.3,1.3-0.7,1.8C93,52.2,92.3,52.5,91.7,52.5z"/>
			<path d="M50,94.2L50,94.2c-1.4,0-2.5-1.1-2.5-2.5s1.1-2.5,2.5-2.5s2.5,1.1,2.5,2.5S51.4,94.2,50,94.2z M44.1,93.8
				c-0.2,0-0.4,0-0.6-0.1c-1.3-0.3-2.2-1.7-1.8-3c0.3-1.2,1.5-2,2.7-1.9c1.3,0.1,2.2,1.2,2.2,2.5C46.6,92.6,45.5,93.8,44.1,93.8z
				 M56,93.7c-1.1,0-2.1-0.8-2.4-1.9c-0.3-1.3,0.5-2.7,1.8-3c0.2,0,0.4-0.1,0.6-0.1c1.4,0,2.5,1.1,2.5,2.5c0,1.3-1,2.4-2.2,2.5
				C56.1,93.7,56,93.7,56,93.7z M38.3,92.5c-0.2,0-0.5,0-0.7-0.1c-1.3-0.4-2-1.7-1.7-3c0.3-1.3,1.7-2.2,3-1.8c0.1,0,0.1,0,0.2,0.1
				c1.3,0.4,2,1.9,1.6,3.2C40.3,91.8,39.4,92.5,38.3,92.5z M61.8,92.5c-1.1,0-2.1-0.8-2.4-1.9c-0.3-1.3,0.4-2.6,1.7-3
				c1.3-0.4,2.7,0.3,3.1,1.6c0.4,1.3-0.3,2.7-1.6,3.2c-0.1,0-0.1,0-0.2,0.1C62.2,92.5,62,92.5,61.8,92.5z M32.7,90.4
				c-0.3,0-0.5,0-0.8-0.1c-0.2-0.1-0.4-0.2-0.6-0.3c-1.1-0.8-1.5-2.3-0.7-3.5c0.7-1,2-1.4,3.1-0.9c1.1,0.5,1.7,1.8,1.3,3.1
				C34.8,89.8,33.8,90.4,32.7,90.4z M67.3,90.4c-0.8,0-1.6-0.4-2.1-1.1c-0.8-1.1-0.5-2.7,0.7-3.5c0.2-0.1,0.4-0.2,0.6-0.3
				c1.3-0.4,2.7,0.3,3.2,1.6c0.4,1.2-0.2,2.5-1.3,3.1C68,90.3,67.7,90.4,67.3,90.4z M27.5,87.6c-0.4,0-0.8-0.1-1.2-0.3
				c-1.1-0.6-1.6-1.8-1.2-3c0.4-1.3,1.8-2,3.2-1.6c0.2,0.1,0.4,0.2,0.6,0.3c1.1,0.8,1.5,2.3,0.7,3.5C29.1,87.2,28.3,87.6,27.5,87.6z
				 M72.5,87.5c-0.9,0-1.8-0.5-2.2-1.4c-0.6-1.2-0.2-2.6,0.9-3.3c1.1-0.7,2.6-0.4,3.4,0.7c0.8,1.1,0.5,2.7-0.7,3.5
				c-0.1,0.1-0.2,0.1-0.3,0.2C73.3,87.5,72.9,87.5,72.5,87.5z M22.8,84c-0.5,0-1-0.1-1.4-0.4c-0.3-0.2-0.5-0.4-0.7-0.7
				c-0.8-1.1-0.5-2.7,0.7-3.5c1-0.7,2.3-0.5,3.1,0.2c0.9,0.8,1.1,2.2,0.4,3.2C24.4,83.6,23.6,84,22.8,84z M77.3,84
				c-0.5,0-1-0.1-1.4-0.4c-1.1-0.8-1.5-2.3-0.7-3.5c0.2-0.3,0.4-0.5,0.7-0.7c1.1-0.8,2.7-0.5,3.5,0.7c0.7,1,0.5,2.4-0.4,3.2
				C78.5,83.7,77.9,84,77.3,84z M18.6,79.8c-0.7,0-1.4-0.3-1.8-0.8c-0.8-0.8-0.9-2.1-0.2-3.1c0.8-1.1,2.3-1.5,3.5-0.7
				c0.3,0.2,0.5,0.4,0.7,0.7c0.8,1.1,0.5,2.7-0.7,3.5C19.5,79.7,19,79.8,18.6,79.8z M81.5,79.8c-0.8,0-1.6-0.4-2.1-1.1
				c-0.7-1-0.5-2.3,0.2-3.1c0.8-0.9,2.2-1.1,3.2-0.4c1.1,0.8,1.5,2.3,0.7,3.5c-0.2,0.3-0.4,0.5-0.7,0.7C82.4,79.6,82,79.8,81.5,79.8
				z M15,75.1c-0.8,0-1.6-0.4-2.1-1.1c-0.1-0.1-0.1-0.2-0.2-0.3c-0.6-1.2-0.1-2.7,1.1-3.4c1.2-0.6,2.6-0.2,3.3,0.9
				c0.7,1.1,0.4,2.6-0.7,3.4C16,74.9,15.5,75.1,15,75.1z M85,75c-0.3,0-0.5,0-0.8-0.1c-1.3-0.4-2-1.9-1.6-3.2
				c0.1-0.2,0.2-0.4,0.3-0.6c0.8-1.1,2.3-1.5,3.5-0.7c1.1,0.7,1.4,2.1,0.8,3.3C86.8,74.5,86,75,85,75z M12.1,69.9
				c-1,0-1.9-0.6-2.3-1.5c-0.5-1.1-0.2-2.4,0.9-3.1c1.1-0.8,2.7-0.5,3.5,0.7c0.1,0.2,0.2,0.4,0.3,0.6c0.4,1.3-0.3,2.7-1.6,3.2
				C12.7,69.8,12.4,69.9,12.1,69.9z M87.9,69.8c-0.5,0-1-0.1-1.4-0.4c-1-0.7-1.4-2-0.9-3.1c0.5-1.1,1.8-1.7,3.1-1.3
				c1.3,0.4,2,1.9,1.6,3.2c-0.1,0.2-0.2,0.4-0.3,0.6C89.5,69.4,88.7,69.8,87.9,69.8z M10,64.3c-1,0-2-0.7-2.4-1.7
				c0-0.1,0-0.1-0.1-0.2c-0.3-1.3,0.5-2.7,1.8-3c1.3-0.3,2.6,0.4,3,1.7c0.4,1.3-0.3,2.7-1.6,3.1C10.6,64.3,10.3,64.3,10,64.3z
				 M90,64.2c-0.2,0-0.4,0-0.6-0.1c-1.3-0.3-2.2-1.7-1.8-3c0-0.1,0-0.1,0.1-0.2c0.4-1.3,1.9-2,3.2-1.6c1.3,0.4,2,1.8,1.6,3.1
				C92.1,63.5,91.1,64.2,90,64.2z M8.8,58.5c-1.3,0-2.4-1-2.5-2.2c-0.1-1.2,0.6-2.4,1.9-2.7c1.3-0.3,2.7,0.5,3,1.8
				c0,0.2,0.1,0.4,0.1,0.6C11.3,57.4,10.1,58.5,8.8,58.5z M91.2,58.4c-0.2,0-0.4,0-0.6-0.1c-1.2-0.3-2-1.5-1.9-2.7
				c0.1-1.3,1.2-2.2,2.5-2.2c1.4,0,2.5,1.1,2.5,2.5c0,0.2,0,0.4-0.1,0.6C93.4,57.7,92.4,58.4,91.2,58.4z"/>
			<path d="M8.3,52.5c-0.2,0-0.3,0-0.5,0c-0.2,0-0.3-0.1-0.5-0.1c-0.2-0.1-0.3-0.1-0.4-0.2c-0.1-0.1-0.3-0.2-0.4-0.3
				c-0.5-0.5-0.7-1.1-0.7-1.8c0-0.2,0-0.3,0-0.5S6,49.2,6,49c0.1-0.2,0.1-0.3,0.2-0.4c0.1-0.1,0.2-0.3,0.3-0.4
				c0.1-0.1,0.2-0.2,0.4-0.3c0.1-0.1,0.3-0.2,0.4-0.2c0.2-0.1,0.3-0.1,0.5-0.1c0.3-0.1,0.7-0.1,1,0c0.2,0,0.3,0.1,0.5,0.1
				c0.1,0.1,0.3,0.1,0.4,0.2s0.3,0.2,0.4,0.3c0.1,0.1,0.2,0.2,0.3,0.4c0.1,0.1,0.2,0.3,0.2,0.4c0.1,0.1,0.1,0.3,0.1,0.5
				c0,0.2,0,0.3,0,0.5c0,0.7-0.3,1.3-0.7,1.8C10,51.9,9.9,52,9.7,52.1s-0.3,0.2-0.4,0.2c-0.2,0.1-0.3,0.1-0.5,0.1
				C8.7,52.5,8.5,52.5,8.3,52.5z"/>
		</g>
		<g>
			<path d="M83.3,52.5c-0.7,0-1.3-0.3-1.8-0.7c-0.5-0.5-0.7-1.1-0.7-1.8c0-0.2,0-0.3,0-0.5S81,49.2,81,49c0.1-0.2,0.1-0.3,0.2-0.4
				c0.1-0.1,0.2-0.3,0.3-0.4c0.1-0.1,0.2-0.2,0.4-0.3c0.1-0.1,0.3-0.2,0.4-0.2c0.2-0.1,0.3-0.1,0.5-0.1c0.3-0.1,0.7-0.1,1,0
				c0.2,0,0.3,0.1,0.5,0.1c0.1,0.1,0.3,0.1,0.4,0.2c0.1,0.1,0.3,0.2,0.4,0.3c0.5,0.5,0.7,1.1,0.7,1.8c0,0.2,0,0.3,0,0.5
				c0,0.2-0.1,0.3-0.2,0.5c-0.1,0.1-0.1,0.3-0.2,0.4c-0.1,0.1-0.2,0.3-0.3,0.4c-0.1,0.1-0.2,0.2-0.4,0.3c-0.1,0.1-0.3,0.2-0.4,0.2
				c-0.2,0.1-0.3,0.1-0.5,0.1C83.7,52.5,83.5,52.5,83.3,52.5z"/>
			<path d="M47,85.7c-0.2,0-0.4,0-0.6-0.1c-1.3-0.3-2.2-1.7-1.8-3c0.3-1.2,1.5-2,2.7-1.9c1.3,0.1,2.2,1.2,2.2,2.5
				C49.5,84.6,48.3,85.7,47,85.7z M53.1,85.7c-1.1,0-2.1-0.8-2.4-1.9c-0.3-1.3,0.5-2.7,1.8-3c0.2,0,0.4-0.1,0.6-0.1
				c1.4,0,2.5,1.1,2.5,2.5c0,1.3-1,2.4-2.2,2.5C53.3,85.7,53.2,85.7,53.1,85.7z M40.9,84.6c-0.2,0-0.5,0-0.7-0.1
				c-1.3-0.4-2-1.7-1.7-3c0.3-1.3,1.7-2.2,3-1.8c0.1,0,0.1,0,0.2,0.1c1.3,0.4,2,1.9,1.6,3.2C42.9,83.9,42,84.6,40.9,84.6z
				 M59.1,84.6c-1.1,0-2.1-0.8-2.4-1.9c-0.3-1.3,0.4-2.6,1.7-3c1.3-0.4,2.7,0.3,3.1,1.6c0.4,1.3-0.3,2.7-1.6,3.2
				c-0.1,0-0.1,0-0.2,0.1C59.5,84.5,59.3,84.6,59.1,84.6z M35.2,82.4c-0.4,0-0.8-0.1-1.2-0.3c-1.1-0.6-1.6-1.8-1.2-3
				c0.4-1.3,1.8-2,3.2-1.6c0.2,0.1,0.4,0.2,0.6,0.3c1.1,0.8,1.5,2.3,0.7,3.5C36.8,82,36,82.4,35.2,82.4z M64.9,82.3
				c-1,0-2-0.7-2.4-1.7c-0.4-1.2,0.1-2.4,1.2-3c1.1-0.6,2.5-0.3,3.3,0.8c0.8,1.1,0.5,2.7-0.7,3.5c-0.2,0.1-0.4,0.2-0.6,0.3
				C65.4,82.3,65.1,82.3,64.9,82.3z M30,79.1c-0.5,0-1-0.1-1.4-0.4c-0.1-0.1-0.3-0.2-0.4-0.3c-1-1-1-2.6,0-3.5
				c0.9-0.9,2.3-1,3.3-0.2c1,0.8,1.3,2.3,0.6,3.4C31.6,78.7,30.8,79.1,30,79.1z M70.1,79.1c-0.6,0-1.3-0.2-1.8-0.7c-1-1-1-2.6,0-3.5
				c0.1-0.1,0.3-0.2,0.4-0.3c1.1-0.8,2.7-0.5,3.5,0.7c0.7,1.1,0.5,2.6-0.6,3.4C71.2,78.9,70.6,79.1,70.1,79.1z M25.4,75
				c-0.7,0-1.4-0.3-1.8-0.8c-0.8-0.8-0.9-2.1-0.2-3.1c0.8-1.2,2.3-1.5,3.5-0.7c0.3,0.2,0.5,0.4,0.7,0.7c0.8,1.1,0.5,2.7-0.7,3.5
				C26.4,74.8,25.9,75,25.4,75z M74.6,74.9c-0.8,0-1.6-0.4-2.1-1.1c-0.7-1-0.5-2.3,0.2-3.1c0.8-0.9,2.2-1.1,3.2-0.4
				c1.1,0.8,1.5,2.3,0.7,3.5c-0.2,0.3-0.4,0.5-0.7,0.7C75.6,74.8,75.1,74.9,74.6,74.9z M21.7,70.1c-0.8,0-1.6-0.4-2.1-1.1l0,0
				c-0.8-1.1-0.5-2.7,0.7-3.5c1.1-0.8,2.7-0.5,3.5,0.7s0.5,2.7-0.7,3.5C22.6,69.9,22.2,70.1,21.7,70.1z M78.3,70
				c-0.5,0-1-0.1-1.4-0.4c-1.1-0.8-1.5-2.3-0.7-3.5s2.3-1.5,3.5-0.7c1.1,0.8,1.5,2.3,0.7,3.5l0,0C79.9,69.6,79.1,70,78.3,70z
				 M18.9,64.6c-1,0-1.9-0.6-2.3-1.6c-0.5-1.2,0-2.6,1.2-3.2c1.2-0.6,2.7-0.1,3.4,1.1c0.1,0.1,0.1,0.2,0.1,0.3
				c0.4,1.3-0.3,2.7-1.6,3.2C19.5,64.6,19.2,64.6,18.9,64.6z M81.1,64.5c-0.4,0-0.8-0.1-1.1-0.3c-1.2-0.6-1.7-2-1.2-3.2
				c0.5-1.2,1.8-1.9,3.1-1.4c1.3,0.4,2,1.9,1.6,3.2c0,0.1-0.1,0.2-0.1,0.3C82.9,64,82,64.5,81.1,64.5z M17.2,58.7
				c-1,0-2-0.7-2.4-1.7c-0.1-0.3-0.1-0.5-0.1-0.8c0-1.4,1.1-2.5,2.5-2.5c1.2,0,2.2,0.9,2.5,2c0.2,1.2-0.5,2.4-1.7,2.8
				C17.8,58.6,17.5,58.7,17.2,58.7z M82.8,58.6c-1.4,0-2.5-1.1-2.5-2.5c0-0.3,0-0.5,0.1-0.8c0.4-1.3,1.8-2,3.2-1.6
				c1.2,0.4,1.9,1.6,1.7,2.8C85,57.7,84,58.6,82.8,58.6z"/>
			<path d="M16.7,52.5c-0.2,0-0.3,0-0.5,0c-0.2,0-0.3-0.1-0.5-0.1c-0.2-0.1-0.3-0.1-0.4-0.2c-0.1-0.1-0.3-0.2-0.4-0.3
				c-0.5-0.5-0.7-1.1-0.7-1.8c0-0.2,0-0.3,0-0.5c0-0.2,0.1-0.3,0.1-0.5c0.1-0.2,0.1-0.3,0.2-0.4c0.1-0.1,0.2-0.3,0.3-0.4
				c0.1-0.1,0.2-0.2,0.4-0.3c0.1-0.1,0.3-0.2,0.4-0.2c0.1-0.1,0.3-0.1,0.5-0.1c0.3-0.1,0.7-0.1,1,0c0.2,0,0.3,0.1,0.5,0.1
				c0.1,0.1,0.3,0.1,0.4,0.2c0.1,0.1,0.3,0.2,0.4,0.3c0.1,0.1,0.2,0.2,0.3,0.4c0.1,0.1,0.2,0.3,0.2,0.4c0.1,0.1,0.1,0.3,0.2,0.5
				c0,0.2,0,0.3,0,0.5c0,0.7-0.3,1.3-0.7,1.8C18,52.2,17.3,52.5,16.7,52.5z"/>
		</g>
		<g>
			<path d="M75,52.5c-0.2,0-0.3,0-0.5,0c-0.2,0-0.3-0.1-0.5-0.1c-0.2-0.1-0.3-0.1-0.4-0.2c-0.1-0.1-0.3-0.2-0.4-0.3
				c-0.5-0.5-0.7-1.1-0.7-1.8c0-0.2,0-0.3,0-0.5s0.1-0.3,0.1-0.5c0.1-0.2,0.1-0.3,0.2-0.4c0.1-0.1,0.2-0.3,0.3-0.4
				c0.1-0.1,0.2-0.2,0.4-0.3c0.1-0.1,0.3-0.2,0.4-0.2c0.1-0.1,0.3-0.1,0.5-0.1c0.3-0.1,0.7-0.1,1,0c0.2,0,0.3,0.1,0.5,0.1
				c0.1,0.1,0.3,0.1,0.4,0.2c0.1,0.1,0.3,0.2,0.4,0.3c0.1,0.1,0.2,0.2,0.3,0.4c0.1,0.1,0.2,0.3,0.2,0.4c0.1,0.1,0.1,0.3,0.1,0.5
				c0,0.2,0,0.3,0,0.5c0,0.7-0.3,1.3-0.7,1.8c-0.1,0.1-0.2,0.2-0.4,0.3c-0.1,0.1-0.3,0.2-0.4,0.2c-0.2,0.1-0.3,0.1-0.5,0.1
				C75.3,52.5,75.2,52.5,75,52.5z"/>
			<path d="M47,77.3c-0.2,0-0.4,0-0.6-0.1c-1.3-0.3-2.2-1.7-1.8-3c0.3-1.2,1.5-2,2.7-1.9c1.3,0.1,2.2,1.2,2.2,2.5
				C49.5,76.2,48.4,77.3,47,77.3z M53,77.3c-1.1,0-2.1-0.8-2.4-1.9c-0.3-1.3,0.5-2.7,1.8-3c0.2,0,0.4-0.1,0.6-0.1
				c1.4,0,2.5,1.1,2.5,2.5c0,1.3-1,2.4-2.2,2.5C53.2,77.3,53.1,77.3,53,77.3z M41.2,75.9c-0.3,0-0.5,0-0.8-0.1
				c-0.1,0-0.2-0.1-0.3-0.1c-1.2-0.6-1.7-2.1-1.1-3.4c0.6-1.2,2-1.7,3.2-1.2c1.2,0.5,1.9,1.8,1.4,3.1C43.2,75.2,42.2,75.9,41.2,75.9
				z M58.9,75.9c-0.9,0-1.8-0.5-2.2-1.4c-0.6-1.2-0.1-2.7,1.1-3.4c0.1-0.1,0.2-0.1,0.3-0.1c1.3-0.4,2.7,0.3,3.2,1.6
				c0.4,1.3-0.2,2.6-1.4,3.1C59.5,75.8,59.2,75.9,58.9,75.9z M35.8,73.1c-0.5,0-1-0.1-1.4-0.4c-0.1-0.1-0.3-0.2-0.4-0.3
				c-1-1-1-2.6,0-3.5c0.9-0.9,2.3-1,3.3-0.2c1,0.8,1.3,2.3,0.6,3.4C37.4,72.7,36.6,73.1,35.8,73.1z M64.2,73.1
				c-0.6,0-1.3-0.2-1.8-0.7c-1-1-1-2.6,0-3.5c0.1-0.1,0.3-0.2,0.4-0.3c1.1-0.8,2.7-0.5,3.5,0.7c0.7,1.1,0.5,2.6-0.5,3.4
				C65.3,72.9,64.7,73.1,64.2,73.1z M31.3,69.1c-0.7,0-1.4-0.3-1.8-0.8c-0.8-0.8-0.9-2.1-0.2-3.1c0.8-1.2,2.3-1.5,3.5-0.7
				c0.3,0.2,0.5,0.4,0.7,0.7c0.8,1.1,0.5,2.7-0.7,3.5C32.3,69,31.8,69.1,31.3,69.1z M68.7,69.1c-0.8,0-1.6-0.4-2.1-1.1
				c-0.7-1-0.5-2.3,0.2-3.1c0.8-0.9,2.2-1.1,3.2-0.4c1.1,0.8,1.5,2.3,0.7,3.5c-0.2,0.3-0.4,0.5-0.7,0.7
				C69.7,68.9,69.2,69.1,68.7,69.1z M27.9,64.1c-0.8,0-1.6-0.4-2.1-1.1c-0.1-0.2-0.2-0.4-0.3-0.6c-0.4-1.3,0.3-2.7,1.6-3.2
				c1.2-0.4,2.4,0.1,3,1.2c0.6,1.1,0.3,2.5-0.8,3.3C28.8,64,28.4,64.1,27.9,64.1z M72.1,64.1c-0.3,0-0.5,0-0.8-0.1
				c-1.3-0.4-2-1.9-1.6-3.2c0.1-0.2,0.2-0.4,0.3-0.6c0.8-1.1,2.3-1.5,3.5-0.7c1.1,0.7,1.4,2.1,0.8,3.3
				C73.9,63.6,73.1,64.1,72.1,64.1z M25.7,58.5c-1,0-2-0.7-2.4-1.7c-0.1-0.3-0.1-0.5-0.1-0.8c0-1.4,1.1-2.5,2.5-2.5
				c1.2,0,2.2,0.9,2.5,2c0.2,1.2-0.5,2.4-1.7,2.8C26.3,58.5,26,58.5,25.7,58.5z M74.3,58.5c-1.4,0-2.5-1.1-2.5-2.5
				c0-0.3,0-0.5,0.1-0.8c0.4-1.3,1.8-2,3.2-1.6c1.2,0.4,1.9,1.6,1.7,2.8C76.5,57.6,75.5,58.5,74.3,58.5z"/>
			<path d="M25,52.5c-0.7,0-1.3-0.3-1.8-0.7c-0.5-0.5-0.7-1.1-0.7-1.8c0-0.2,0-0.3,0-0.5c0-0.2,0.1-0.3,0.1-0.5
				c0.1-0.2,0.1-0.3,0.2-0.4c0.1-0.1,0.2-0.3,0.3-0.4c0.1-0.1,0.2-0.2,0.4-0.3c0.1-0.1,0.3-0.2,0.4-0.2c0.1-0.1,0.3-0.1,0.5-0.1
				c0.3-0.1,0.7-0.1,1,0c0.2,0,0.3,0.1,0.5,0.1c0.2,0.1,0.3,0.1,0.4,0.2c0.1,0.1,0.3,0.2,0.4,0.3c0.1,0.1,0.2,0.2,0.3,0.4
				c0.1,0.1,0.2,0.3,0.2,0.4c0.1,0.1,0.1,0.3,0.1,0.5c0,0.2,0,0.3,0,0.5c0,0.7-0.3,1.3-0.7,1.8C26.3,52.2,25.7,52.5,25,52.5z"/>
		</g>
		<g>
			<path d="M66.7,52.5c-0.2,0-0.3,0-0.5,0c-0.2,0-0.3-0.1-0.5-0.1c-0.2-0.1-0.3-0.1-0.4-0.2c-0.1-0.1-0.3-0.2-0.4-0.3
				c-0.5-0.5-0.7-1.1-0.7-1.8c0-0.2,0-0.3,0-0.5c0-0.2,0.1-0.3,0.1-0.5c0.1-0.2,0.1-0.3,0.2-0.4c0.1-0.1,0.2-0.3,0.3-0.4
				c0.1-0.1,0.2-0.2,0.4-0.3c0.1-0.1,0.3-0.2,0.4-0.2c0.1-0.1,0.3-0.1,0.5-0.1c0.3-0.1,0.7-0.1,1,0c0.1,0,0.3,0.1,0.5,0.1
				c0.1,0.1,0.3,0.1,0.4,0.2c0.1,0.1,0.3,0.2,0.4,0.3c0.1,0.1,0.2,0.2,0.3,0.4c0.1,0.1,0.2,0.3,0.2,0.4c0.1,0.1,0.1,0.3,0.1,0.5
				c0,0.2,0,0.3,0,0.5c0,0.7-0.3,1.3-0.7,1.8c-0.1,0.1-0.2,0.2-0.4,0.3c-0.1,0.1-0.3,0.2-0.4,0.2c-0.2,0.1-0.3,0.1-0.5,0.1
				C67,52.5,66.8,52.5,66.7,52.5z"/>
			<path d="M47.1,68.9c-0.2,0-0.3,0-0.5,0c-1.2-0.2-2-1.2-2-2.5c0-1.4,1.1-2.5,2.5-2.5c0.3,0,0.5,0,0.8,0.1c1.3,0.4,2,1.9,1.6,3.2
				C49.1,68.3,48.2,68.9,47.1,68.9z M52.9,68.9c-1.4,0-2.5-1.1-2.5-2.5c0-1.2,0.9-2.2,2-2.5c1.2-0.2,2.4,0.5,2.8,1.7
				c0.4,1.3-0.3,2.7-1.6,3.2C53.4,68.9,53.2,68.9,52.9,68.9z M41.7,66.9c-0.4,0-0.8-0.1-1.2-0.3c-1.1-0.6-1.6-1.8-1.2-3
				c0.4-1.3,1.8-2,3.2-1.6c0.2,0.1,0.4,0.2,0.6,0.3c1.1,0.8,1.5,2.3,0.7,3.5C43.3,66.6,42.5,66.9,41.7,66.9z M58.3,66.9
				c-1,0-2-0.7-2.4-1.7c-0.4-1.2,0.1-2.4,1.2-3c1.1-0.6,2.5-0.3,3.3,0.8c0.8,1.1,0.5,2.7-0.7,3.5c-0.2,0.1-0.4,0.2-0.6,0.3
				C58.9,66.9,58.6,66.9,58.3,66.9z M37.3,63.2c-0.8,0-1.5-0.3-2-1c-0.8-1-0.7-2.4,0.2-3.3c1-1,2.6-1,3.5,0c0.1,0.1,0.2,0.3,0.3,0.4
				c0.8,1.1,0.5,2.7-0.7,3.5C38.2,63.1,37.7,63.2,37.3,63.2z M62.8,63.2c-0.6,0-1.3-0.2-1.8-0.7c-0.9-0.9-1-2.3-0.2-3.3
				c0.8-1,2.3-1.3,3.4-0.5c1.1,0.8,1.5,2.3,0.7,3.5c-0.1,0.1-0.2,0.3-0.3,0.4C64,63,63.4,63.2,62.8,63.2z M34.3,58.2
				c-1,0-2-0.7-2.4-1.7l0,0c-0.4-1.3,0.3-2.7,1.6-3.2c1.3-0.4,2.7,0.3,3.2,1.6c0.4,1.3-0.3,2.7-1.6,3.2
				C34.9,58.2,34.6,58.2,34.3,58.2z M65.7,58.2c-0.3,0-0.5,0-0.8-0.1c-1.3-0.4-2-1.9-1.6-3.2c0.4-1.3,1.8-2,3.2-1.6
				c1.3,0.4,2,1.8,1.6,3.2l0,0C67.7,57.5,66.7,58.2,65.7,58.2z"/>
			<path d="M33.3,52.5c-0.7,0-1.3-0.3-1.8-0.7c-0.5-0.5-0.7-1.1-0.7-1.8c0-0.2,0-0.3,0-0.5S31,49.2,31,49c0.1-0.2,0.1-0.3,0.2-0.4
				c0.1-0.1,0.2-0.3,0.3-0.4c0.1-0.1,0.2-0.2,0.4-0.3c0.1-0.1,0.3-0.2,0.4-0.2c0.2-0.1,0.3-0.1,0.5-0.1c0.3-0.1,0.7-0.1,1,0
				c0.2,0,0.3,0.1,0.5,0.1c0.1,0.1,0.3,0.1,0.4,0.2c0.1,0.1,0.3,0.2,0.4,0.3c0.1,0.1,0.2,0.2,0.3,0.4c0.1,0.1,0.2,0.3,0.2,0.4
				c0.1,0.1,0.1,0.3,0.1,0.5c0,0.2,0,0.3,0,0.5c0,0.7-0.3,1.3-0.7,1.8C34.6,52.2,34,52.5,33.3,52.5z"/>
		</g>
		<g>
			<path d="M58.3,52.5c-0.7,0-1.3-0.3-1.8-0.7c-0.5-0.5-0.7-1.1-0.7-1.8c0-0.2,0-0.3,0-0.5S56,49.2,56,49c0.1-0.2,0.1-0.3,0.2-0.4
				c0.1-0.1,0.2-0.3,0.3-0.4c0.1-0.1,0.2-0.2,0.4-0.3c0.1-0.1,0.3-0.2,0.4-0.2c0.2-0.1,0.3-0.1,0.5-0.1c0.8-0.2,1.7,0.1,2.2,0.7
				c0.1,0.1,0.2,0.2,0.3,0.4c0.1,0.1,0.2,0.3,0.2,0.4c0.1,0.1,0.1,0.3,0.1,0.5c0,0.2,0,0.3,0,0.5c0,0.7-0.3,1.3-0.7,1.8
				c-0.1,0.1-0.2,0.2-0.4,0.3c-0.1,0.1-0.3,0.2-0.4,0.2c-0.2,0.1-0.3,0.1-0.5,0.1C58.7,52.5,58.5,52.5,58.3,52.5z"/>
			<path d="M50,60.8L50,60.8c-1.4,0-2.5-1.1-2.5-2.5s1.1-2.5,2.5-2.5s2.5,1.1,2.5,2.5S51.4,60.8,50,60.8z M44.1,58.4
				c-0.6,0-1.3-0.2-1.8-0.7l0,0c-1-1-1-2.6,0-3.5s2.6-1,3.5,0s1,2.6,0,3.5C45.4,58.2,44.8,58.4,44.1,58.4z M55.9,58.4
				c-0.6,0-1.3-0.2-1.8-0.7c-1-1-1-2.6,0-3.5s2.6-1,3.5,0s1,2.6,0,3.5l0,0C57.2,58.1,56.5,58.4,55.9,58.4z"/>
			<path d="M41.7,52.5c-0.2,0-0.3,0-0.5,0c-0.2,0-0.3-0.1-0.5-0.1c-0.2-0.1-0.3-0.1-0.4-0.2c-0.1-0.1-0.3-0.2-0.4-0.3
				c-0.5-0.5-0.7-1.1-0.7-1.8c0-0.2,0-0.3,0-0.5c0-0.2,0.1-0.3,0.1-0.5c0.1-0.2,0.1-0.3,0.2-0.4c0.1-0.1,0.2-0.3,0.3-0.4
				c0.1-0.1,0.2-0.2,0.4-0.3c0.1-0.1,0.3-0.2,0.4-0.2c0.1-0.1,0.3-0.1,0.5-0.1c0.8-0.2,1.7,0.1,2.2,0.7c0.1,0.1,0.2,0.2,0.3,0.4
				c0.1,0.1,0.2,0.3,0.2,0.4c0.1,0.1,0.1,0.3,0.2,0.5c0,0.2,0,0.3,0,0.5c0,0.7-0.3,1.3-0.7,1.8c-0.1,0.1-0.2,0.2-0.4,0.3
				c-0.1,0.1-0.3,0.2-0.4,0.2c-0.2,0.1-0.3,0.1-0.5,0.1C42,52.5,41.8,52.5,41.7,52.5z"/>
		</g>
	</g>
</g>
</svg>
