<?xml version="1.0" encoding="utf-8"?>
<!-- Generator: Adobe Illustrator 26.5.1, SVG Export Plug-In . SVG Version: 6.00 Build 0)  -->
<svg version="1.1" id="Ebene_1" xmlns="http://www.w3.org/2000/svg" xmlns:xlink="http://www.w3.org/1999/xlink" x="0px" y="0px"
	 viewBox="0 0 100 100" style="enable-background:new 0 0 100 100;" xml:space="preserve">
<g>
	<g>
		<g>
			<path d="M50,102.5c-0.7,0-1.3-0.3-1.8-0.7c-0.5-0.5-0.7-1.1-0.7-1.8s0.3-1.3,0.7-1.8c0.1-0.1,0.2-0.2,0.4-0.3
				c0.1-0.1,0.3-0.2,0.4-0.2c0.1-0.1,0.3-0.1,0.5-0.1c0.3-0.1,0.7-0.1,1,0c0.2,0,0.3,0.1,0.5,0.1c0.1,0.1,0.3,0.1,0.4,0.2
				c0.1,0.1,0.3,0.2,0.4,0.3c0.5,0.5,0.7,1.1,0.7,1.8s-0.3,1.3-0.7,1.8c-0.1,0.1-0.2,0.2-0.4,0.3c-0.1,0.1-0.3,0.2-0.4,0.2
				c-0.2,0.1-0.3,0.1-0.5,0.1C50.3,102.5,50.2,102.5,50,102.5z"/>
			<path d="M44,102.1c-0.2,0-0.4,0-0.6-0.1c-1.3-0.3-2.2-1.7-1.8-3c0.3-1.2,1.5-2,2.7-1.9c1.3,0.1,2.2,1.2,2.2,2.5
				C46.5,101,45.4,102.1,44,102.1z M38,101.1c-0.2,0-0.3,0-0.5,0c-1.2-0.2-2-1.2-2-2.5c0-1.4,1.1-2.5,2.5-2.5c0.3,0,0.5,0,0.8,0.1
				c1.3,0.4,2,1.9,1.6,3.2C40.1,100.4,39.1,101.1,38,101.1z M32.3,99.3c-0.3,0-0.5,0-0.8-0.1c-0.1,0-0.2-0.1-0.3-0.1
				c-1.2-0.6-1.7-2.1-1.1-3.4c0.6-1.2,2-1.7,3.2-1.2c1.2,0.5,1.9,1.8,1.4,3.1C34.3,98.6,33.3,99.3,32.3,99.3z M26.8,96.8
				c-0.4,0-0.8-0.1-1.2-0.3c-1.1-0.6-1.6-1.8-1.2-3c0.4-1.3,1.8-2,3.2-1.6c0.2,0.1,0.4,0.2,0.6,0.3c1.1,0.8,1.5,2.3,0.7,3.5
				C28.4,96.4,27.6,96.8,26.8,96.8z M21.6,93.6c-0.5,0-1-0.1-1.4-0.4c-0.1-0.1-0.3-0.2-0.4-0.3c-1-1-1-2.6,0-3.5
				c0.9-0.9,2.3-1,3.3-0.2c1,0.8,1.3,2.3,0.6,3.4C23.2,93.3,22.4,93.6,21.6,93.6z M16.9,89.9c-0.5,0-1-0.1-1.4-0.4
				c-0.3-0.2-0.5-0.4-0.7-0.7c-0.8-1.1-0.5-2.7,0.7-3.5c1-0.7,2.3-0.5,3.1,0.2c0.9,0.8,1.1,2.2,0.4,3.2
				C18.5,89.5,17.7,89.9,16.9,89.9z M12.6,85.7c-0.7,0-1.4-0.3-1.8-0.8c-0.8-0.8-0.9-2.1-0.2-3.1c0.8-1.1,2.3-1.5,3.5-0.7
				c0.3,0.2,0.5,0.4,0.7,0.7c0.8,1.1,0.5,2.7-0.7,3.5C13.6,85.5,13.1,85.7,12.6,85.7z M8.9,80.9c-0.8,0-1.5-0.3-2-1
				c-0.8-1-0.7-2.4,0.2-3.3c1-1,2.6-1,3.5,0c0.1,0.1,0.2,0.3,0.3,0.4c0.8,1.1,0.5,2.7-0.7,3.5C9.8,80.8,9.4,80.9,8.9,80.9z
				 M5.7,75.8c-0.8,0-1.6-0.4-2.1-1.1c-0.1-0.2-0.2-0.4-0.3-0.6c-0.4-1.3,0.3-2.7,1.6-3.2c1.2-0.4,2.4,0.1,3,1.2
				c0.6,1.1,0.3,2.5-0.8,3.3C6.7,75.6,6.2,75.8,5.7,75.8z M3.3,70.3c-1,0-1.9-0.6-2.3-1.6c-0.5-1.2,0-2.6,1.2-3.2
				c1.2-0.6,2.7-0.1,3.4,1.1c0.1,0.1,0.1,0.2,0.1,0.3c0.4,1.3-0.3,2.7-1.6,3.2C3.8,70.2,3.5,70.3,3.3,70.3z M1.5,64.5
				c-1,0-2-0.7-2.4-1.7C-1,62.5-1,62.3-1,62c0-1.4,1.1-2.5,2.5-2.5c1.2,0,2.2,0.9,2.5,2.1c0.2,1.2-0.5,2.4-1.7,2.8
				C2,64.5,1.7,64.5,1.5,64.5z M0.4,58.6c-1.3,0-2.4-1-2.5-2.2c-0.1-1.2,0.7-2.4,1.9-2.7c1.3-0.3,2.7,0.5,3,1.8
				c0,0.2,0.1,0.4,0.1,0.6C2.9,57.5,1.7,58.6,0.4,58.6z M0,52.5c-1.4,0-2.5-1.1-2.5-2.5v0c0-1.4,1.1-2.5,2.5-2.5s2.5,1.1,2.5,2.5
				S1.4,52.5,0,52.5z M0.4,46.5c-1.4,0-2.5-1.1-2.5-2.5c0-0.2,0-0.4,0.1-0.6c0.3-1.3,1.7-2.2,3-1.8c1.2,0.3,2,1.5,1.9,2.7
				C2.7,45.6,1.6,46.5,0.4,46.5z M1.4,40.6c-0.3,0-0.5,0-0.8-0.1c-1.2-0.4-1.9-1.6-1.7-2.8c0.2-1.2,1.2-2.1,2.5-2.1
				c1.4,0,2.5,1.1,2.5,2.5c0,0.3,0,0.5-0.1,0.8C3.5,39.9,2.5,40.6,1.4,40.6z M3.2,34.8c-0.3,0-0.5,0-0.8-0.1c-1.3-0.4-2-1.9-1.6-3.2
				c0-0.1,0.1-0.2,0.1-0.3c0.6-1.2,2.1-1.7,3.4-1.1c1.2,0.6,1.7,2,1.2,3.2C5.2,34.2,4.2,34.8,3.2,34.8z M5.7,29.3
				c-0.5,0-1-0.1-1.4-0.4c-1.1-0.7-1.4-2.1-0.8-3.3c0.6-1.1,1.8-1.6,3-1.2c1.3,0.4,2,1.9,1.6,3.2C8,27.8,7.9,28,7.8,28.2
				C7.3,28.9,6.5,29.3,5.7,29.3z M8.8,24.2c-0.5,0-1-0.1-1.4-0.4C6.3,23,6,21.4,6.7,20.3c0.1-0.1,0.2-0.3,0.3-0.4c1-1,2.6-1,3.5,0
				c0.9,0.9,1,2.3,0.2,3.3C10.3,23.8,9.6,24.2,8.8,24.2z M12.5,19.4c-0.5,0-1-0.1-1.4-0.4c-1.1-0.8-1.5-2.3-0.7-3.5
				c0.2-0.3,0.4-0.5,0.7-0.7c1.1-0.8,2.7-0.5,3.5,0.7c0.7,1,0.5,2.3-0.2,3.1C13.9,19.1,13.2,19.4,12.5,19.4z M16.8,15.1
				c-0.8,0-1.6-0.4-2.1-1.1c-0.7-1-0.5-2.4,0.4-3.2c0.8-0.8,2.1-0.9,3.1-0.2c1.1,0.8,1.5,2.3,0.7,3.5c-0.2,0.3-0.4,0.5-0.7,0.7
				C17.8,15,17.3,15.1,16.8,15.1z M21.5,11.4c-0.8,0-1.6-0.4-2.1-1.1C18.7,9.2,19,7.7,20,6.9c1-0.8,2.4-0.7,3.3,0.2c1,1,1,2.6,0,3.5
				c-0.1,0.1-0.3,0.2-0.4,0.3C22.5,11.3,22,11.4,21.5,11.4z M26.7,8.3c-0.8,0-1.6-0.4-2.1-1.1c-0.8-1.1-0.5-2.7,0.7-3.5
				c0.2-0.1,0.4-0.2,0.6-0.3C27.2,3,28.6,3.7,29.1,5c0.4,1.2-0.1,2.4-1.2,3C27.5,8.2,27.1,8.3,26.7,8.3z M32.2,5.8
				c-1,0-2-0.7-2.4-1.7C29.4,2.8,30,1.4,31.3,1c1.2-0.5,2.6,0,3.2,1.2c0.6,1.2,0.1,2.7-1.1,3.4c-0.1,0.1-0.2,0.1-0.3,0.1
				C32.7,5.7,32.4,5.8,32.2,5.8z M37.9,4c-1,0-2-0.7-2.4-1.7c-0.4-1.3,0.3-2.7,1.6-3.2C37.4-1,37.7-1,38-1c1.4,0,2.5,1.1,2.5,2.5
				c0,1.2-0.9,2.2-2,2.5C38.2,4,38.1,4,37.9,4z M43.9,2.9c-1.4,0-2.5-1.1-2.5-2.5c0-1.3,1-2.4,2.2-2.5c1.2-0.1,2.4,0.6,2.7,1.9
				c0.3,1.3-0.5,2.7-1.8,3C44.3,2.8,44.1,2.9,43.9,2.9z"/>
			<path d="M50,2.5c-0.2,0-0.3,0-0.5,0c-0.2,0-0.3-0.1-0.5-0.1c-0.2-0.1-0.3-0.1-0.4-0.2c-0.1-0.1-0.3-0.2-0.4-0.3
				c-0.5-0.5-0.7-1.1-0.7-1.8c0-0.2,0-0.3,0-0.5s0.1-0.3,0.1-0.5c0.1-0.2,0.1-0.3,0.2-0.4c0.1-0.1,0.2-0.3,0.3-0.4
				c0.1-0.1,0.2-0.2,0.4-0.3c0.1-0.1,0.3-0.2,0.4-0.2c0.1-0.1,0.3-0.1,0.5-0.1c0.8-0.2,1.7,0.1,2.3,0.7c0.1,0.1,0.2,0.2,0.3,0.4
				c0.1,0.1,0.2,0.3,0.2,0.4c0.1,0.1,0.1,0.3,0.1,0.5c0,0.2,0,0.3,0,0.5c0,0.7-0.3,1.3-0.7,1.8c-0.1,0.1-0.2,0.2-0.4,0.3
				c-0.1,0.1-0.3,0.2-0.4,0.2c-0.2,0.1-0.3,0.1-0.5,0.1C50.3,2.5,50.2,2.5,50,2.5z"/>
		</g>
		<g>
			<path d="M50,94.2c-0.2,0-0.3,0-0.5,0c-0.2,0-0.3-0.1-0.5-0.1c-0.2-0.1-0.3-0.1-0.4-0.2c-0.1-0.1-0.3-0.2-0.4-0.3
				c-0.5-0.5-0.7-1.1-0.7-1.8s0.3-1.3,0.7-1.8c0.6-0.6,1.5-0.8,2.3-0.7c0.2,0,0.3,0.1,0.5,0.1c0.1,0.1,0.3,0.1,0.4,0.2
				c0.1,0.1,0.3,0.2,0.4,0.3c0.5,0.5,0.7,1.1,0.7,1.8s-0.3,1.3-0.7,1.8C51.3,93.9,50.7,94.2,50,94.2z"/>
			<path d="M44.1,93.7c-0.2,0-0.4,0-0.6-0.1c-1.3-0.3-2.2-1.7-1.8-3c0.3-1.2,1.5-2,2.7-1.9c1.3,0.1,2.2,1.2,2.2,2.5
				C46.6,92.6,45.5,93.7,44.1,93.7z M38.3,92.5c-0.2,0-0.5,0-0.7-0.1c-1.3-0.4-2-1.7-1.7-3c0.3-1.3,1.7-2.2,3-1.8
				c0.1,0,0.1,0,0.2,0.1c1.3,0.4,2,1.9,1.6,3.2C40.3,91.8,39.3,92.5,38.3,92.5z M32.7,90.4c-0.3,0-0.5,0-0.8-0.1
				c-0.2-0.1-0.4-0.2-0.6-0.3c-1.1-0.8-1.5-2.3-0.7-3.5c0.7-1,2-1.4,3.1-0.9c1.1,0.5,1.7,1.8,1.3,3.1C34.7,89.7,33.8,90.4,32.7,90.4
				z M27.5,87.6c-0.4,0-0.8-0.1-1.2-0.3c-1.1-0.6-1.6-1.8-1.2-3c0.4-1.3,1.8-2,3.2-1.6c0.2,0.1,0.4,0.2,0.6,0.3
				c1.1,0.8,1.5,2.3,0.7,3.5C29.1,87.2,28.3,87.6,27.5,87.6z M22.7,84c-0.5,0-1-0.1-1.4-0.4c-0.3-0.2-0.5-0.4-0.7-0.7
				c-0.8-1.1-0.5-2.7,0.7-3.5c1-0.7,2.3-0.5,3.1,0.2c0.9,0.8,1.1,2.2,0.4,3.2C24.3,83.6,23.5,84,22.7,84z M18.5,79.8
				c-0.7,0-1.4-0.3-1.8-0.8c-0.8-0.8-0.9-2.1-0.2-3.1c0.8-1.1,2.3-1.5,3.5-0.7c0.3,0.2,0.5,0.4,0.7,0.7c0.8,1.1,0.5,2.7-0.7,3.5
				C19.5,79.7,19,79.8,18.5,79.8z M15,75c-0.8,0-1.6-0.4-2.1-1.1c-0.1-0.1-0.1-0.2-0.2-0.3c-0.6-1.2-0.1-2.7,1.1-3.4
				c1.2-0.6,2.6-0.2,3.3,0.9c0.7,1.1,0.4,2.6-0.7,3.4C15.9,74.9,15.4,75,15,75z M12.1,69.8c-1,0-1.9-0.6-2.3-1.5
				c-0.5-1.1-0.2-2.4,0.9-3.1c1.1-0.8,2.7-0.5,3.5,0.7c0.1,0.2,0.2,0.4,0.3,0.6c0.4,1.3-0.3,2.7-1.6,3.2
				C12.6,69.8,12.4,69.8,12.1,69.8z M10,64.3c-1,0-2-0.7-2.4-1.7c0-0.1,0-0.1-0.1-0.2c-0.3-1.3,0.5-2.7,1.8-3c1.3-0.3,2.6,0.4,3,1.7
				c0.4,1.3-0.3,2.7-1.6,3.1C10.6,64.2,10.3,64.3,10,64.3z M8.8,58.5c-1.3,0-2.4-1-2.5-2.2c-0.1-1.2,0.6-2.4,1.9-2.7
				c1.3-0.3,2.7,0.5,3,1.8c0,0.2,0.1,0.4,0.1,0.6C11.3,57.3,10.1,58.5,8.8,58.5z M8.3,52.5c-1.4,0-2.5-1.1-2.5-2.5v0
				c0-1.4,1.1-2.5,2.5-2.5s2.5,1.1,2.5,2.5S9.7,52.5,8.3,52.5z M8.7,46.6L8.7,46.6c-1.4,0-2.5-1.1-2.5-2.5c0-0.2,0-0.4,0.1-0.6
				c0.3-1.3,1.7-2.2,3-1.8c1.2,0.3,2,1.5,1.9,2.7C11.1,45.6,10,46.6,8.7,46.6z M10,40.8c-0.3,0-0.5,0-0.8-0.1
				c-1.3-0.4-2-1.8-1.6-3.1c0.4-1.3,1.7-2,3-1.7c1.3,0.3,2.2,1.7,1.8,3c0,0.1,0,0.1-0.1,0.2C12,40.1,11,40.8,10,40.8z M12.1,35.2
				c-0.3,0-0.5,0-0.8-0.1c-1.3-0.4-2-1.9-1.6-3.2c0.1-0.2,0.2-0.4,0.3-0.6c0.8-1.1,2.3-1.5,3.5-0.7c1,0.7,1.4,2,0.9,3.1
				C13.9,34.7,13,35.2,12.1,35.2z M14.9,30c-0.5,0-1-0.1-1.4-0.4c-1.1-0.7-1.4-2.1-0.8-3.3c0.6-1.1,1.8-1.6,3-1.2
				c1.3,0.4,2,1.9,1.6,3.2c-0.1,0.2-0.2,0.4-0.3,0.6C16.5,29.6,15.7,30,14.9,30z M18.5,25.3c-0.5,0-1-0.1-1.4-0.4
				c-1.1-0.8-1.5-2.3-0.7-3.5c0.2-0.3,0.4-0.5,0.7-0.7c1.1-0.8,2.7-0.5,3.5,0.7c0.7,1,0.5,2.3-0.2,3.1C19.8,25,19.2,25.3,18.5,25.3z
				 M22.7,21.1c-0.8,0-1.6-0.4-2.1-1.1c-0.7-1-0.5-2.4,0.4-3.2c0.8-0.8,2.1-0.9,3.1-0.2c1.1,0.8,1.5,2.3,0.7,3.5
				c-0.2,0.3-0.4,0.5-0.7,0.7C23.6,20.9,23.2,21.1,22.7,21.1z M27.4,17.5c-0.8,0-1.6-0.4-2.1-1.1c-0.8-1.1-0.5-2.7,0.7-3.5
				c0.1-0.1,0.2-0.1,0.3-0.2c1.2-0.6,2.7-0.1,3.4,1.1c0.6,1.2,0.2,2.6-0.9,3.3C28.3,17.4,27.9,17.5,27.4,17.5z M32.6,14.6
				c-1,0-2-0.7-2.4-1.7c-0.4-1.2,0.2-2.5,1.3-3.1c1.1-0.5,2.4-0.2,3.1,0.9c0.8,1.1,0.5,2.7-0.7,3.5c-0.2,0.1-0.4,0.2-0.6,0.3
				C33.2,14.6,32.9,14.6,32.6,14.6z M38.2,12.5c-1,0-2-0.7-2.4-1.7c-0.4-1.3,0.3-2.7,1.6-3.2c0.1,0,0.1,0,0.2-0.1
				c1.3-0.3,2.7,0.5,3,1.8c0.3,1.3-0.4,2.6-1.7,3C38.7,12.5,38.4,12.5,38.2,12.5z M44,11.3c-1.4,0-2.5-1.1-2.5-2.5
				c0-1.3,1-2.4,2.2-2.5c1.2-0.1,2.4,0.7,2.7,1.9c0.3,1.3-0.5,2.7-1.8,3C44.4,11.2,44.2,11.3,44,11.3z"/>
			<path d="M50,10.8c-0.2,0-0.3,0-0.5,0c-0.2,0-0.3-0.1-0.5-0.1c-0.2-0.1-0.3-0.1-0.4-0.2c-0.1-0.1-0.3-0.2-0.4-0.3
				C48.1,10,48,9.9,47.9,9.7c-0.1-0.1-0.2-0.3-0.2-0.4c-0.1-0.2-0.1-0.3-0.1-0.5c0-0.2,0-0.3,0-0.5c0-0.2,0-0.3,0-0.5
				s0.1-0.3,0.1-0.5c0.1-0.2,0.1-0.3,0.2-0.4c0.1-0.1,0.2-0.3,0.3-0.4c0.1-0.1,0.2-0.2,0.4-0.3C48.8,6.2,48.9,6.1,49,6
				c0.1-0.1,0.3-0.1,0.5-0.1c0.8-0.2,1.7,0.1,2.3,0.7c0.1,0.1,0.2,0.2,0.3,0.4c0.1,0.1,0.2,0.3,0.2,0.4c0.1,0.2,0.1,0.3,0.1,0.5
				c0,0.2,0,0.3,0,0.5c0,0.2,0,0.3,0,0.5c0,0.2-0.1,0.3-0.1,0.5c-0.1,0.1-0.1,0.3-0.2,0.4c-0.1,0.1-0.2,0.3-0.3,0.4
				c-0.1,0.1-0.2,0.2-0.4,0.3c-0.1,0.1-0.3,0.2-0.4,0.2c-0.2,0.1-0.3,0.1-0.5,0.1C50.3,10.8,50.2,10.8,50,10.8z"/>
		</g>
		<g>
			<path d="M50,85.8c-0.2,0-0.3,0-0.5,0c-0.2,0-0.3-0.1-0.5-0.1c-0.2-0.1-0.3-0.1-0.4-0.2c-0.1-0.1-0.3-0.2-0.4-0.3
				c-0.1-0.1-0.2-0.2-0.3-0.4c-0.1-0.1-0.2-0.3-0.2-0.4c-0.1-0.2-0.1-0.3-0.1-0.5c0-0.2,0-0.3,0-0.5c0-0.2,0-0.3,0-0.5
				s0.1-0.3,0.1-0.5c0.1-0.2,0.1-0.3,0.2-0.4c0.1-0.1,0.2-0.3,0.3-0.4c0.1-0.1,0.2-0.2,0.4-0.3c0.1-0.1,0.3-0.2,0.4-0.2
				c0.1-0.1,0.3-0.1,0.5-0.1c0.8-0.2,1.7,0.1,2.3,0.7c0.1,0.1,0.2,0.2,0.3,0.4c0.1,0.1,0.2,0.3,0.2,0.4c0.1,0.2,0.1,0.3,0.1,0.5
				c0,0.2,0,0.3,0,0.5c0,0.2,0,0.3,0,0.5c0,0.2-0.1,0.3-0.1,0.5c-0.1,0.1-0.1,0.3-0.2,0.4c-0.1,0.1-0.2,0.3-0.3,0.4
				C51.3,85.6,50.7,85.8,50,85.8z"/>
			<path d="M43.9,85.3c-0.2,0-0.3,0-0.5,0c-1.2-0.2-2-1.2-2-2.5c0-1.4,1.1-2.5,2.5-2.5c0.3,0,0.5,0,0.8,0.1c1.3,0.4,2,1.9,1.6,3.2
				C45.9,84.6,44.9,85.3,43.9,85.3z M38,83.6c-0.3,0-0.5,0-0.8-0.1c-0.1,0-0.2-0.1-0.3-0.1c-1.2-0.6-1.7-2.1-1.1-3.4
				c0.6-1.2,2-1.7,3.2-1.2c1.2,0.5,1.9,1.8,1.4,3.1C40,82.9,39,83.6,38,83.6z M32.5,80.8c-0.5,0-1-0.1-1.4-0.4l0,0
				c-1.1-0.8-1.5-2.3-0.7-3.5c0.8-1.2,2.3-1.5,3.5-0.7c1.1,0.8,1.5,2.3,0.7,3.5C34.1,80.4,33.3,80.8,32.5,80.8z M27.6,77.1
				c-0.5,0-1-0.1-1.4-0.4c-0.3-0.2-0.5-0.4-0.7-0.7c-0.8-1.1-0.5-2.7,0.7-3.5c1-0.7,2.3-0.5,3.1,0.2c0.9,0.8,1.1,2.2,0.4,3.2
				C29.2,76.7,28.4,77.1,27.6,77.1z M23.4,72.6c-0.8,0-1.5-0.3-2-1c-0.8-1-0.7-2.4,0.2-3.3c1-1,2.6-1,3.5,0c0.1,0.1,0.2,0.3,0.3,0.4
				c0.8,1.1,0.5,2.7-0.7,3.5C24.4,72.5,23.9,72.6,23.4,72.6z M20.2,67.4c-0.8,0-1.6-0.4-2.1-1.1c-0.1-0.2-0.2-0.4-0.3-0.6
				c-0.4-1.3,0.3-2.7,1.6-3.2c1.2-0.4,2.4,0.1,3,1.2c0.6,1.1,0.3,2.5-0.8,3.3C21.1,67.2,20.7,67.4,20.2,67.4z M17.9,61.6
				c-1,0-2-0.7-2.4-1.7c0-0.1,0-0.1-0.1-0.2c-0.3-1.3,0.5-2.7,1.8-3c1.3-0.3,2.6,0.4,3,1.7c0.4,1.3-0.3,2.7-1.6,3.1
				C18.5,61.6,18.2,61.6,17.9,61.6z M16.8,55.6c-1.3,0-2.4-1-2.5-2.2c-0.1-1.2,0.6-2.4,1.9-2.7c1.3-0.3,2.7,0.5,3,1.8
				c0,0.2,0.1,0.4,0.1,0.6C19.3,54.5,18.2,55.6,16.8,55.6z M16.8,49.5L16.8,49.5c-1.4,0-2.5-1.1-2.5-2.5c0-0.2,0-0.4,0.1-0.6
				c0.3-1.3,1.7-2.2,3-1.8c1.2,0.3,2,1.5,1.9,2.7C19.2,48.5,18.1,49.5,16.8,49.5z M17.9,43.4c-0.3,0-0.5,0-0.8-0.1
				c-1.3-0.4-2-1.8-1.6-3.1c0.4-1.3,1.7-2,3-1.7c1.3,0.3,2.2,1.7,1.8,3c0,0.1,0,0.1-0.1,0.2C19.9,42.8,19,43.4,17.9,43.4z
				 M20.1,37.7c-0.5,0-1-0.1-1.4-0.4c-1.1-0.7-1.4-2.1-0.8-3.3c0.6-1.1,1.8-1.6,3-1.2c1.3,0.4,2,1.9,1.6,3.2
				c-0.1,0.2-0.2,0.4-0.3,0.6C21.7,37.3,20.9,37.7,20.1,37.7z M23.4,32.5c-0.5,0-1-0.1-1.4-0.4c-1.1-0.8-1.5-2.3-0.7-3.5
				c0.1-0.1,0.2-0.3,0.3-0.4c1-1,2.6-1,3.5,0c0.9,0.9,1,2.3,0.2,3.3C24.9,32.1,24.1,32.5,23.4,32.5z M27.5,27.9
				c-0.8,0-1.6-0.4-2.1-1.1c-0.7-1-0.5-2.4,0.4-3.2c0.8-0.8,2.1-0.9,3.1-0.2c1.1,0.8,1.5,2.3,0.7,3.5c-0.2,0.3-0.4,0.5-0.7,0.7
				C28.5,27.8,28,27.9,27.5,27.9z M32.4,24.2c-0.8,0-1.6-0.4-2.1-1.1c-0.8-1.1-0.5-2.7,0.7-3.5l0,0c1.1-0.8,2.7-0.5,3.5,0.7
				c0.8,1.1,0.5,2.7-0.7,3.5C33.4,24.1,32.9,24.2,32.4,24.2z M37.9,21.4c-1,0-2-0.7-2.4-1.7c-0.4-1.3,0.2-2.6,1.4-3.1
				c1.2-0.5,2.6,0,3.2,1.2c0.6,1.2,0.1,2.7-1.1,3.4c-0.1,0.1-0.2,0.1-0.3,0.1C38.4,21.4,38.2,21.4,37.9,21.4z M43.8,19.7
				c-1,0-2-0.7-2.4-1.7c-0.4-1.3,0.3-2.7,1.6-3.2c0.3-0.1,0.5-0.1,0.8-0.1c1.4,0,2.5,1.1,2.5,2.5c0,1.2-0.9,2.2-2.1,2.5
				C44.1,19.7,44,19.7,43.8,19.7z"/>
			<path d="M50,19.2c-0.2,0-0.3,0-0.5,0c-0.2,0-0.3-0.1-0.5-0.2c-0.2-0.1-0.3-0.1-0.4-0.2c-0.1-0.1-0.3-0.2-0.4-0.3
				c-0.1-0.1-0.2-0.2-0.3-0.4c-0.1-0.1-0.2-0.3-0.2-0.4c-0.1-0.2-0.1-0.3-0.1-0.5c0-0.2,0-0.3,0-0.5c0-0.2,0-0.3,0-0.5
				s0.1-0.3,0.1-0.5c0.1-0.2,0.1-0.3,0.2-0.4c0.1-0.1,0.2-0.3,0.3-0.4c0.1-0.1,0.2-0.2,0.4-0.3c0.1-0.1,0.3-0.2,0.4-0.2
				c0.1-0.1,0.3-0.1,0.5-0.1c0.8-0.2,1.7,0.1,2.3,0.7c0.1,0.1,0.2,0.2,0.3,0.4c0.1,0.1,0.2,0.3,0.2,0.4c0.1,0.1,0.1,0.3,0.1,0.5
				c0,0.2,0,0.3,0,0.5c0,0.2,0,0.3,0,0.5c0,0.2-0.1,0.3-0.1,0.5c-0.1,0.1-0.1,0.3-0.2,0.4c-0.1,0.1-0.2,0.3-0.3,0.4
				c-0.1,0.1-0.2,0.2-0.4,0.3c-0.1,0.1-0.3,0.2-0.4,0.2c-0.2,0.1-0.3,0.1-0.5,0.2C50.3,19.1,50.2,19.2,50,19.2z"/>
		</g>
		<g>
			<path d="M50,77.5c-0.7,0-1.3-0.3-1.8-0.7c-0.1-0.1-0.2-0.2-0.3-0.4c-0.1-0.1-0.2-0.3-0.2-0.4c-0.1-0.2-0.1-0.3-0.1-0.5
				c0-0.2,0-0.3,0-0.5s0-0.3,0-0.5s0.1-0.3,0.1-0.5c0.1-0.2,0.1-0.3,0.2-0.4c0.1-0.1,0.2-0.3,0.3-0.4c0.1-0.1,0.2-0.2,0.4-0.3
				c0.1-0.1,0.3-0.2,0.4-0.2c0.1-0.1,0.3-0.1,0.5-0.1c0.3-0.1,0.7-0.1,1,0c0.2,0,0.3,0.1,0.5,0.1c0.1,0.1,0.3,0.1,0.4,0.2
				c0.1,0.1,0.3,0.2,0.4,0.3c0.1,0.1,0.2,0.2,0.3,0.4c0.1,0.1,0.2,0.3,0.2,0.4c0.1,0.1,0.1,0.3,0.1,0.5c0,0.2,0,0.3,0,0.5
				s0,0.3,0,0.5c0,0.2-0.1,0.3-0.1,0.5c-0.1,0.1-0.1,0.3-0.2,0.4c-0.1,0.1-0.2,0.3-0.3,0.4C51.3,77.2,50.7,77.5,50,77.5z"/>
			<path d="M44,76.8c-0.2,0-0.3,0-0.5,0c-1.2-0.2-2-1.2-2-2.5c0-1.4,1.1-2.5,2.5-2.5c0.3,0,0.5,0,0.8,0.1c1.3,0.4,2,1.9,1.6,3.2
				C46,76.1,45.1,76.8,44,76.8z M38.4,74.6c-0.4,0-0.8-0.1-1.2-0.3c-1.1-0.6-1.6-1.8-1.2-3c0.4-1.3,1.8-2,3.2-1.6
				c0.2,0.1,0.4,0.2,0.6,0.3c1.1,0.8,1.5,2.3,0.7,3.5C40,74.2,39.2,74.6,38.4,74.6z M33.4,71.2c-0.5,0-1-0.1-1.4-0.4
				c-0.3-0.2-0.5-0.4-0.7-0.7c-0.8-1.1-0.5-2.7,0.7-3.5c1-0.7,2.3-0.5,3.1,0.2c0.9,0.8,1.1,2.2,0.4,3.2C35,70.8,34.2,71.2,33.4,71.2
				z M29.4,66.7c-0.8,0-1.5-0.3-2-1c-0.8-1-0.7-2.4,0.2-3.3c1-1,2.6-1,3.5,0c0.1,0.1,0.2,0.3,0.3,0.4c0.8,1.1,0.5,2.7-0.7,3.5
				C30.4,66.6,29.9,66.7,29.4,66.7z M26.6,61.4c-1,0-1.9-0.6-2.3-1.6c-0.5-1.2,0-2.6,1.2-3.2c1.2-0.6,2.7-0.1,3.4,1.1
				c0.1,0.1,0.1,0.2,0.1,0.3c0.4,1.3-0.3,2.7-1.6,3.2C27.2,61.3,26.9,61.4,26.6,61.4z M25.2,55.5c-1.3,0-2.4-1-2.5-2.2
				c-0.1-1.2,0.6-2.4,1.9-2.7c1.3-0.3,2.7,0.5,3,1.8c0,0.2,0.1,0.4,0.1,0.6C27.7,54.4,26.6,55.5,25.2,55.5z M25.2,49.5L25.2,49.5
				c-1.4,0-2.5-1.1-2.5-2.5c0-0.2,0-0.4,0.1-0.6c0.3-1.3,1.7-2.2,3-1.8c1.2,0.3,2,1.5,1.9,2.7C27.5,48.5,26.5,49.5,25.2,49.5z
				 M26.6,43.7c-0.3,0-0.5,0-0.8-0.1c-1.3-0.4-2-1.9-1.6-3.2c0-0.1,0.1-0.2,0.1-0.3c0.6-1.2,2.1-1.7,3.4-1.1c1.2,0.6,1.7,2,1.2,3.2
				C28.5,43.1,27.6,43.7,26.6,43.7z M29.4,38.3c-0.5,0-1-0.1-1.4-0.4c-1.1-0.8-1.5-2.3-0.7-3.5c0.1-0.1,0.2-0.3,0.3-0.4
				c1-1,2.6-1,3.5,0c0.9,0.9,1,2.3,0.2,3.3C30.9,38,30.2,38.3,29.4,38.3z M33.4,33.8c-0.8,0-1.6-0.4-2.1-1.1c-0.7-1-0.5-2.4,0.4-3.2
				c0.8-0.8,2.1-0.9,3.1-0.2c1.1,0.8,1.5,2.3,0.7,3.5c-0.2,0.3-0.4,0.5-0.7,0.7C34.4,33.7,33.9,33.8,33.4,33.8z M38.4,30.4
				c-0.8,0-1.6-0.4-2.1-1.1c-0.8-1.1-0.5-2.7,0.7-3.5c0.2-0.1,0.4-0.2,0.6-0.3c1.3-0.4,2.7,0.3,3.2,1.6c0.4,1.2-0.1,2.4-1.2,3
				C39.2,30.3,38.8,30.4,38.4,30.4z M44,28.2c-1,0-2-0.7-2.4-1.7c-0.4-1.3,0.3-2.7,1.6-3.2c0.3-0.1,0.5-0.1,0.8-0.1
				c1.4,0,2.5,1.1,2.5,2.5c0,1.2-0.9,2.2-2.1,2.5C44.3,28.2,44.1,28.2,44,28.2z"/>
			<path d="M50,27.5c-0.7,0-1.3-0.3-1.8-0.7c-0.1-0.1-0.2-0.2-0.3-0.4c-0.1-0.1-0.2-0.3-0.2-0.4c-0.1-0.2-0.1-0.3-0.1-0.5
				c0-0.2,0-0.3,0-0.5s0-0.3,0-0.5s0.1-0.3,0.1-0.5c0.1-0.2,0.1-0.3,0.2-0.4c0.1-0.1,0.2-0.3,0.3-0.4c0.1-0.1,0.2-0.2,0.4-0.3
				c0.1-0.1,0.3-0.2,0.4-0.2c0.1-0.1,0.3-0.1,0.5-0.1c0.8-0.2,1.7,0.1,2.3,0.7c0.1,0.1,0.2,0.2,0.3,0.4c0.1,0.1,0.2,0.3,0.2,0.4
				c0.1,0.1,0.1,0.3,0.1,0.5c0,0.2,0,0.3,0,0.5s0,0.3,0,0.5c0,0.2-0.1,0.3-0.1,0.5c-0.1,0.1-0.1,0.3-0.2,0.4
				c-0.1,0.1-0.2,0.3-0.3,0.4c-0.1,0.1-0.2,0.2-0.4,0.3c-0.1,0.1-0.3,0.2-0.4,0.2c-0.2,0.1-0.3,0.1-0.5,0.1
				C50.3,27.5,50.2,27.5,50,27.5z"/>
		</g>
		<g>
			<path d="M50,69.2c-0.2,0-0.3,0-0.5,0c-0.2,0-0.3-0.1-0.5-0.1c-0.2-0.1-0.3-0.1-0.4-0.2c-0.1-0.1-0.3-0.2-0.4-0.3
				c-0.1-0.1-0.2-0.2-0.3-0.4c-0.1-0.1-0.2-0.3-0.2-0.4c-0.1-0.2-0.1-0.3-0.1-0.5c0-0.2,0-0.3,0-0.5c0-0.2,0-0.3,0-0.5
				s0.1-0.3,0.1-0.5c0.1-0.2,0.1-0.3,0.2-0.4c0.1-0.1,0.2-0.3,0.3-0.4c0.1-0.1,0.2-0.2,0.4-0.3c0.1-0.1,0.3-0.2,0.4-0.2
				c0.1-0.1,0.3-0.1,0.5-0.1c0.8-0.2,1.7,0.1,2.3,0.7c0.1,0.1,0.2,0.2,0.3,0.4c0.1,0.1,0.2,0.3,0.2,0.4c0.1,0.1,0.1,0.3,0.1,0.5
				c0,0.2,0,0.3,0,0.5c0,0.6-0.3,1.3-0.7,1.8c-0.1,0.1-0.2,0.2-0.4,0.3c-0.1,0.1-0.3,0.2-0.4,0.2c-0.2,0.1-0.3,0.1-0.5,0.1
				C50.3,69.1,50.2,69.2,50,69.2z"/>
			<path d="M44.3,68.2c-0.3,0-0.5,0-0.8-0.1l0,0c-1.3-0.4-2-1.9-1.6-3.2c0.4-1.3,1.8-2,3.2-1.6c1.3,0.4,2,1.9,1.6,3.2
				C46.3,67.5,45.3,68.2,44.3,68.2z M39.3,65.3c-0.5,0-1-0.1-1.4-0.4c-0.1-0.1-0.3-0.2-0.4-0.3c-1-1-1-2.6,0-3.5
				c0.9-0.9,2.3-1,3.3-0.2c1,0.8,1.3,2.3,0.5,3.4C40.9,64.9,40.1,65.3,39.3,65.3z M35.6,60.8c-0.8,0-1.6-0.4-2.1-1.1
				c-0.1-0.2-0.2-0.4-0.3-0.6c-0.4-1.3,0.3-2.7,1.6-3.2c1.2-0.4,2.4,0.1,3,1.2c0.6,1.1,0.3,2.5-0.8,3.3C36.5,60.7,36,60.8,35.6,60.8
				z M33.6,55.4c-1,0-2-0.7-2.4-1.7c-0.1-0.3-0.1-0.5-0.1-0.8c0-1.4,1.1-2.5,2.5-2.5c1.2,0,2.2,0.9,2.5,2c0.2,1.2-0.5,2.4-1.7,2.8
				C34.1,55.4,33.8,55.4,33.6,55.4z M33.6,49.6c-0.3,0-0.5,0-0.8-0.1c-1.2-0.4-1.9-1.6-1.7-2.8c0.2-1.2,1.2-2,2.5-2
				c1.4,0,2.5,1.1,2.5,2.5c0,0.3,0,0.5-0.1,0.8C35.6,49,34.6,49.6,33.6,49.6z M35.5,44.2c-0.5,0-1-0.1-1.4-0.4
				c-1.1-0.7-1.4-2.1-0.8-3.3c0.6-1.1,1.8-1.6,3-1.2c1.3,0.4,2,1.9,1.6,3.2c-0.1,0.2-0.2,0.4-0.3,0.6C37.2,43.8,36.4,44.2,35.5,44.2
				z M39.3,39.8c-0.8,0-1.6-0.4-2.1-1.1c-0.7-1.1-0.5-2.6,0.5-3.4c1-0.8,2.4-0.7,3.3,0.2c1,1,1,2.6,0,3.5c-0.1,0.1-0.3,0.2-0.4,0.3
				C40.2,39.6,39.7,39.8,39.3,39.8z M44.3,36.8c-1,0-2-0.7-2.4-1.7c-0.4-1.3,0.3-2.7,1.6-3.2l0,0c1.3-0.4,2.7,0.3,3.2,1.6
				c0.4,1.3-0.3,2.7-1.6,3.2C44.8,36.8,44.5,36.8,44.3,36.8z"/>
			<path d="M50,35.8c-0.2,0-0.3,0-0.5,0c-0.2,0-0.3-0.1-0.5-0.1c-0.2-0.1-0.3-0.1-0.4-0.2c-0.1-0.1-0.3-0.2-0.4-0.3
				c-0.1-0.1-0.2-0.2-0.3-0.4c-0.1-0.1-0.2-0.3-0.2-0.4c-0.1-0.2-0.1-0.3-0.1-0.5c0-0.2,0-0.3,0-0.5c0-0.2,0-0.3,0-0.5
				c0-0.2,0.1-0.3,0.1-0.5c0.1-0.2,0.1-0.3,0.2-0.4c0.1-0.1,0.2-0.3,0.3-0.4c0.1-0.1,0.2-0.2,0.4-0.3c0.1-0.1,0.3-0.2,0.4-0.2
				c0.1-0.1,0.3-0.1,0.5-0.1c0.8-0.2,1.7,0.1,2.3,0.7c0.1,0.1,0.2,0.2,0.3,0.4c0.1,0.1,0.2,0.3,0.2,0.4c0.1,0.2,0.1,0.3,0.1,0.5
				c0,0.2,0,0.3,0,0.5c0,0.7-0.3,1.3-0.7,1.8c-0.1,0.1-0.2,0.2-0.4,0.3c-0.1,0.1-0.3,0.2-0.4,0.2c-0.2,0.1-0.3,0.1-0.5,0.1
				C50.3,35.8,50.2,35.8,50,35.8z"/>
		</g>
		<g>
			<path d="M50,60.8c-0.7,0-1.3-0.3-1.8-0.7c-0.1-0.1-0.2-0.2-0.3-0.4c-0.1-0.1-0.2-0.3-0.2-0.4c-0.1-0.2-0.1-0.3-0.1-0.5
				c0-0.2,0-0.3,0-0.5c0-0.7,0.3-1.3,0.7-1.8c0.9-0.9,2.6-0.9,3.5,0c0.5,0.5,0.7,1.1,0.7,1.8c0,0.2,0,0.3,0,0.5
				c0,0.2-0.1,0.3-0.1,0.5c-0.1,0.1-0.1,0.3-0.2,0.4c-0.1,0.1-0.2,0.3-0.3,0.4C51.3,60.6,50.7,60.8,50,60.8z"/>
			<path d="M44.1,58.4c-0.6,0-1.3-0.2-1.8-0.7l0,0c-1-1-1-2.6,0-3.5s2.6-1,3.5,0s1,2.6,0,3.5C45.4,58.2,44.8,58.4,44.1,58.4z
				 M41.7,52.5c-1.4,0-2.5-1.1-2.5-2.5v0c0-1.4,1.1-2.5,2.5-2.5s2.5,1.1,2.5,2.5S43,52.5,41.7,52.5z M44.1,46.6
				c-0.6,0-1.3-0.2-1.8-0.7c-1-1-1-2.6,0-3.5l0,0c1-1,2.6-1,3.5,0s1,2.6,0,3.5C45.4,46.4,44.7,46.6,44.1,46.6z"/>
			<path d="M50,44.2c-0.2,0-0.3,0-0.5,0c-0.2,0-0.3-0.1-0.5-0.2c-0.2-0.1-0.3-0.1-0.4-0.2c-0.1-0.1-0.3-0.2-0.4-0.3
				c-0.1-0.1-0.2-0.2-0.3-0.4c-0.1-0.1-0.2-0.3-0.2-0.4c-0.1-0.2-0.1-0.3-0.1-0.5c0-0.2,0-0.3,0-0.5c0-0.2,0-0.3,0-0.5
				s0.1-0.3,0.1-0.5c0.1-0.2,0.1-0.3,0.2-0.4c0.1-0.1,0.2-0.3,0.3-0.4c0.1-0.1,0.2-0.2,0.4-0.3c0.1-0.1,0.3-0.2,0.4-0.2
				c0.1-0.1,0.3-0.1,0.5-0.1c0.3-0.1,0.7-0.1,1,0c0.2,0,0.3,0.1,0.5,0.1c0.1,0.1,0.3,0.1,0.4,0.2c0.1,0.1,0.3,0.2,0.4,0.3
				c0.5,0.5,0.7,1.1,0.7,1.8c0,0.2,0,0.3,0,0.5c0,0.2-0.1,0.3-0.1,0.5c-0.1,0.1-0.1,0.3-0.2,0.4c-0.1,0.1-0.2,0.3-0.3,0.4
				c-0.1,0.1-0.2,0.2-0.4,0.3c-0.1,0.1-0.3,0.2-0.4,0.2c-0.2,0.1-0.3,0.1-0.5,0.2C50.3,44.1,50.2,44.2,50,44.2z"/>
		</g>
	</g>
</g>
</svg>
