<?xml version="1.0" encoding="utf-8"?>
<!-- Generator: Adobe Illustrator 26.5.1, SVG Export Plug-In . SVG Version: 6.00 Build 0)  -->
<svg version="1.1" id="Ebene_1" xmlns="http://www.w3.org/2000/svg" xmlns:xlink="http://www.w3.org/1999/xlink" x="0px" y="0px"
	 viewBox="0 0 100 100" style="enable-background:new 0 0 100 100;" xml:space="preserve">
<g>
	<g>
		<path d="M50,142.2c-50.8,0-92.2-41.3-92.2-92.2c0-0.3,0.2-0.5,0.5-0.5s0.5,0.2,0.5,0.5c0,50.3,40.9,91.2,91.2,91.2
			c0.3,0,0.5,0.2,0.5,0.5S50.3,142.2,50,142.2z"/>
		<path d="M50,133.8c-46.2,0-83.8-37.6-83.8-83.8c0-0.3,0.2-0.5,0.5-0.5s0.5,0.2,0.5,0.5c0,45.7,37.2,82.8,82.8,82.8
			c45.7,0,82.8-37.2,82.8-82.8c0-45.7-37.2-82.8-82.8-82.8c-0.3,0-0.5-0.2-0.5-0.5s0.2-0.5,0.5-0.5c46.2,0,83.8,37.6,83.8,83.8
			S96.2,133.8,50,133.8z"/>
		<path d="M50,129.7c-43.9,0-79.7-35.7-79.7-79.7c0-43.9,35.7-79.7,79.7-79.7c0.3,0,0.5,0.2,0.5,0.5s-0.2,0.5-0.5,0.5
			C6.6-28.7-28.7,6.6-28.7,50S6.6,128.7,50,128.7s78.7-35.3,78.7-78.7c0-0.3,0.2-0.5,0.5-0.5s0.5,0.2,0.5,0.5
			C129.7,93.9,93.9,129.7,50,129.7z"/>
		<path d="M50,125.5c-0.3,0-0.5-0.2-0.5-0.5s0.2-0.5,0.5-0.5c41.1,0,74.5-33.4,74.5-74.5c0-41.1-33.4-74.5-74.5-74.5
			C8.9-24.5-24.5,8.9-24.5,50c0,0.3-0.2,0.5-0.5,0.5s-0.5-0.2-0.5-0.5c0-41.6,33.9-75.5,75.5-75.5S125.5,8.4,125.5,50
			S91.6,125.5,50,125.5z"/>
		<path d="M50,121.3c-39.3,0-71.3-32-71.3-71.3s32-71.3,71.3-71.3c0.3,0,0.5,0.2,0.5,0.5s-0.2,0.5-0.5,0.5
			c-38.8,0-70.3,31.6-70.3,70.3c0,38.8,31.6,70.3,70.3,70.3c38.8,0,70.3-31.6,70.3-70.3c0-0.3,0.2-0.5,0.5-0.5s0.5,0.2,0.5,0.5
			C121.3,89.3,89.3,121.3,50,121.3z"/>
		<path d="M50,117.2C13,117.2-17.2,87-17.2,50c0-37,30.1-67.2,67.2-67.2c37,0,67.2,30.1,67.2,67.2C117.2,87,87,117.2,50,117.2z
			 M50-16.2c-36.5,0-66.2,29.7-66.2,66.2s29.7,66.2,66.2,66.2s66.2-29.7,66.2-66.2S86.5-16.2,50-16.2z"/>
		<path d="M50,113c-34.7,0-63-28.3-63-63s28.3-63,63-63c0.3,0,0.5,0.2,0.5,0.5S50.3-12,50-12c-34.2,0-62,27.8-62,62s27.8,62,62,62
			c0.3,0,0.5,0.2,0.5,0.5S50.3,113,50,113z"/>
		<path d="M50,108.8c-0.3,0-0.5-0.2-0.5-0.5s0.2-0.5,0.5-0.5c31.9,0,57.8-25.9,57.8-57.8c0-31.9-25.9-57.8-57.8-57.8
			C18.1-7.8-7.8,18.1-7.8,50c0,0.3-0.2,0.5-0.5,0.5s-0.5-0.2-0.5-0.5C-8.8,17.6,17.6-8.8,50-8.8c32.4,0,58.8,26.4,58.8,58.8
			C108.8,82.4,82.4,108.8,50,108.8z"/>
		<path d="M50,104.7C19.9,104.7-4.7,80.1-4.7,50S19.9-4.7,50-4.7s54.7,24.5,54.7,54.7S80.1,104.7,50,104.7z M50-3.7
			C20.4-3.7-3.7,20.4-3.7,50c0,29.6,24.1,53.7,53.7,53.7c29.6,0,53.7-24.1,53.7-53.7C103.7,20.4,79.6-3.7,50-3.7z"/>
		<path d="M50,100.5C22.2,100.5-0.5,77.8-0.5,50C-0.5,22.2,22.2-0.5,50-0.5c27.8,0,50.5,22.7,50.5,50.5
			C100.5,77.8,77.8,100.5,50,100.5z M50,0.5C22.7,0.5,0.5,22.7,0.5,50S22.7,99.5,50,99.5S99.5,77.3,99.5,50S77.3,0.5,50,0.5z"/>
		<path d="M50,96.3C24.5,96.3,3.7,75.5,3.7,50c0-0.3,0.2-0.5,0.5-0.5s0.5,0.2,0.5,0.5C4.7,75,25,95.3,50,95.3
			C75,95.3,95.3,75,95.3,50c0-0.3,0.2-0.5,0.5-0.5s0.5,0.2,0.5,0.5C96.3,75.5,75.5,96.3,50,96.3z"/>
		<path d="M50,92.2C26.7,92.2,7.8,73.3,7.8,50C7.8,26.7,26.7,7.8,50,7.8c23.3,0,42.2,18.9,42.2,42.2C92.2,73.3,73.3,92.2,50,92.2z
			 M50,8.8C27.3,8.8,8.8,27.3,8.8,50S27.3,91.2,50,91.2S91.2,72.7,91.2,50S72.7,8.8,50,8.8z"/>
		<path d="M50,88c-21,0-38-17-38-38c0-21,17-38,38-38c0.3,0,0.5,0.2,0.5,0.5S50.3,13,50,13c-20.4,0-37,16.6-37,37s16.6,37,37,37
			s37-16.6,37-37c0-0.3,0.2-0.5,0.5-0.5S88,49.7,88,50C88,71,71,88,50,88z"/>
		<path d="M50,83.8c-18.7,0-33.8-15.2-33.8-33.8S31.3,16.2,50,16.2S83.8,31.3,83.8,50S68.7,83.8,50,83.8z M50,17.2
			c-18.1,0-32.8,14.7-32.8,32.8S31.9,82.8,50,82.8S82.8,68.1,82.8,50S68.1,17.2,50,17.2z"/>
		<path d="M50,79.7c-16.4,0-29.7-13.3-29.7-29.7c0-0.3,0.2-0.5,0.5-0.5s0.5,0.2,0.5,0.5c0,15.8,12.9,28.7,28.7,28.7
			c15.8,0,28.7-12.9,28.7-28.7c0-15.8-12.9-28.7-28.7-28.7c-0.3,0-0.5-0.2-0.5-0.5s0.2-0.5,0.5-0.5c16.4,0,29.7,13.3,29.7,29.7
			C79.7,66.4,66.4,79.7,50,79.7z"/>
		<path d="M50,75.5c-14.1,0-25.5-11.4-25.5-25.5S35.9,24.5,50,24.5S75.5,35.9,75.5,50c0,0.3-0.2,0.5-0.5,0.5s-0.5-0.2-0.5-0.5
			c0-13.5-11-24.5-24.5-24.5S25.5,36.5,25.5,50s11,24.5,24.5,24.5c0.3,0,0.5,0.2,0.5,0.5S50.3,75.5,50,75.5z"/>
		<path d="M50,71.3c-11.8,0-21.3-9.6-21.3-21.3c0-0.3,0.2-0.5,0.5-0.5s0.5,0.2,0.5,0.5c0,11.2,9.1,20.3,20.3,20.3
			c11.2,0,20.3-9.1,20.3-20.3c0-11.2-9.1-20.3-20.3-20.3c-0.3,0-0.5-0.2-0.5-0.5s0.2-0.5,0.5-0.5c11.8,0,21.3,9.6,21.3,21.3
			C71.3,61.8,61.8,71.3,50,71.3z"/>
		<path d="M50,67.2c-9.5,0-17.2-7.7-17.2-17.2S40.5,32.8,50,32.8S67.2,40.5,67.2,50c0,0.3-0.2,0.5-0.5,0.5s-0.5-0.2-0.5-0.5
			c0-8.9-7.3-16.2-16.2-16.2S33.8,41.1,33.8,50S41.1,66.2,50,66.2c0.3,0,0.5,0.2,0.5,0.5S50.3,67.2,50,67.2z"/>
		<path d="M50,63c-7.2,0-13-5.8-13-13c0-0.3,0.2-0.5,0.5-0.5S38,49.7,38,50c0,6.6,5.4,12,12,12s12-5.4,12-12s-5.4-12-12-12
			c-0.3,0-0.5-0.2-0.5-0.5S49.7,37,50,37c7.2,0,13,5.8,13,13C63,57.2,57.2,63,50,63z"/>
		<path d="M50,58.8c-0.3,0-0.5-0.2-0.5-0.5s0.2-0.5,0.5-0.5c4.3,0,7.8-3.5,7.8-7.8c0-4.3-3.5-7.8-7.8-7.8c-0.3,0-0.5-0.2-0.5-0.5
			s0.2-0.5,0.5-0.5c4.9,0,8.8,4,8.8,8.8S54.9,58.8,50,58.8z"/>
		<path d="M50,54.7c-2.6,0-4.7-2.1-4.7-4.7c0-2.6,2.1-4.7,4.7-4.7c0.3,0,0.5,0.2,0.5,0.5s-0.2,0.5-0.5,0.5c-2,0-3.7,1.6-3.7,3.7
			s1.6,3.7,3.7,3.7c0.3,0,0.5,0.2,0.5,0.5S50.3,54.7,50,54.7z"/>
	</g>
</g>
</svg>
