<?xml version="1.0" encoding="utf-8"?>
<!-- Generator: Adobe Illustrator 26.5.1, SVG Export Plug-In . SVG Version: 6.00 Build 0)  -->
<svg version="1.1" id="Ebene_1" xmlns="http://www.w3.org/2000/svg" xmlns:xlink="http://www.w3.org/1999/xlink" x="0px" y="0px"
	 viewBox="0 0 100 100" style="enable-background:new 0 0 100 100;" xml:space="preserve">
<g>
	<g>
		<path d="M58.3,50.5c-0.3,0-0.5-0.2-0.5-0.5V0c0-0.3,0.2-0.5,0.5-0.5s0.5,0.2,0.5,0.5v50C58.8,50.3,58.6,50.5,58.3,50.5z"/>
		<path d="M75,50.5c-0.3,0-0.5-0.2-0.5-0.5V0c0-0.3,0.2-0.5,0.5-0.5s0.5,0.2,0.5,0.5v50C75.5,50.3,75.3,50.5,75,50.5z"/>
		<path d="M16.7,50.5c-0.3,0-0.5-0.2-0.5-0.5V0c0-0.3,0.2-0.5,0.5-0.5s0.5,0.2,0.5,0.5v50C17.2,50.3,16.9,50.5,16.7,50.5z"/>
		<path d="M33.3,50.5c-0.3,0-0.5-0.2-0.5-0.5V0c0-0.3,0.2-0.5,0.5-0.5s0.5,0.2,0.5,0.5v50C33.8,50.3,33.6,50.5,33.3,50.5z"/>
		<path d="M50,108.8C17.6,108.8-8.8,82.4-8.8,50C-8.8,17.6,17.6-8.8,50-8.8s58.8,26.4,58.8,58.8C108.8,82.4,82.4,108.8,50,108.8z
			 M50-7.8C18.1-7.8-7.8,18.1-7.8,50c0,31.9,25.9,57.8,57.8,57.8s57.8-25.9,57.8-57.8C107.8,18.1,81.9-7.8,50-7.8z"/>
		<path d="M50,100.5C22.2,100.5-0.5,77.8-0.5,50C-0.5,22.2,22.2-0.5,50-0.5s50.5,22.7,50.5,50.5C100.5,77.8,77.8,100.5,50,100.5z
			 M50,0.5C22.7,0.5,0.5,22.7,0.5,50S22.7,99.5,50,99.5S99.5,77.3,99.5,50S77.3,0.5,50,0.5z"/>
		<path d="M50,92.2C26.7,92.2,7.8,73.3,7.8,50C7.8,26.7,26.7,7.8,50,7.8S92.2,26.7,92.2,50C92.2,73.3,73.3,92.2,50,92.2z M50,8.8
			C27.3,8.8,8.8,27.3,8.8,50S27.3,91.2,50,91.2S91.2,72.7,91.2,50S72.7,8.8,50,8.8z"/>
		<path d="M50,83.8c-18.7,0-33.8-15.2-33.8-33.8S31.3,16.2,50,16.2S83.8,31.3,83.8,50S68.7,83.8,50,83.8z M50,17.2
			c-18.1,0-32.8,14.7-32.8,32.8S31.9,82.8,50,82.8S82.8,68.1,82.8,50S68.1,17.2,50,17.2z"/>
		<path d="M50,75.5c-14.1,0-25.5-11.4-25.5-25.5S35.9,24.5,50,24.5S75.5,35.9,75.5,50S64.1,75.5,50,75.5z M50,25.5
			c-13.5,0-24.5,11-24.5,24.5s11,24.5,24.5,24.5s24.5-11,24.5-24.5S63.5,25.5,50,25.5z"/>
		<path d="M50,67.2c-9.5,0-17.2-7.7-17.2-17.2c0-0.3,0.2-0.5,0.5-0.5s0.5,0.2,0.5,0.5c0,8.9,7.3,16.2,16.2,16.2S66.2,58.9,66.2,50
			c0-0.3,0.2-0.5,0.5-0.5s0.5,0.2,0.5,0.5C67.2,59.5,59.5,67.2,50,67.2z"/>
		<path d="M50,58.8c-4.9,0-8.8-4-8.8-8.8c0-0.3,0.2-0.5,0.5-0.5s0.5,0.2,0.5,0.5c0,4.3,3.5,7.8,7.8,7.8s7.8-3.5,7.8-7.8
			c0-0.3,0.2-0.5,0.5-0.5s0.5,0.2,0.5,0.5C58.8,54.9,54.9,58.8,50,58.8z"/>
	</g>
</g>
</svg>
