<?xml version="1.0" encoding="utf-8"?>
<!-- Generator: Adobe Illustrator 26.5.1, SVG Export Plug-In . SVG Version: 6.00 Build 0)  -->
<svg version="1.1" id="Ebene_1" xmlns="http://www.w3.org/2000/svg" xmlns:xlink="http://www.w3.org/1999/xlink" x="0px" y="0px"
	 viewBox="0 0 100 100" style="enable-background:new 0 0 100 100;" xml:space="preserve">
<g>
	<g>
		<path d="M100,33.8H0c-0.3,0-0.5-0.2-0.5-0.5s0.2-0.5,0.5-0.5h100c0.3,0,0.5,0.2,0.5,0.5S100.3,33.8,100,33.8z"/>
		<path d="M100,17.2H0c-0.3,0-0.5-0.2-0.5-0.5s0.2-0.5,0.5-0.5h100c0.3,0,0.5,0.2,0.5,0.5S100.3,17.2,100,17.2z"/>
		<path d="M100,25.5l-100,0c-0.3,0-0.5-0.2-0.5-0.5s0.2-0.5,0.5-0.5l100,0c0.3,0,0.5,0.2,0.5,0.5S100.3,25.5,100,25.5z"/>
		<path d="M100,8.8H0c-0.3,0-0.5-0.2-0.5-0.5S-0.3,7.8,0,7.8h100c0.3,0,0.5,0.2,0.5,0.5S100.3,8.8,100,8.8z"/>
		<path d="M100,0.5H0c-0.3,0-0.5-0.2-0.5-0.5S-0.3-0.5,0-0.5h100c0.3,0,0.5,0.2,0.5,0.5S100.3,0.5,100,0.5z"/>
		<path d="M100,100.5H0c-0.3,0-0.5-0.2-0.5-0.5s0.2-0.5,0.5-0.5h100c0.3,0,0.5,0.2,0.5,0.5S100.3,100.5,100,100.5z"/>
		<path d="M100,92.2H0c-0.3,0-0.5-0.2-0.5-0.5s0.2-0.5,0.5-0.5h100c0.3,0,0.5,0.2,0.5,0.5S100.3,92.2,100,92.2z"/>
		<path d="M100,75.5H0c-0.3,0-0.5-0.2-0.5-0.5s0.2-0.5,0.5-0.5h100c0.3,0,0.5,0.2,0.5,0.5S100.3,75.5,100,75.5z"/>
		<path d="M100,83.8l-100,0c-0.3,0-0.5-0.2-0.5-0.5s0.2-0.5,0.5-0.5l100,0c0.3,0,0.5,0.2,0.5,0.5S100.3,83.8,100,83.8z"/>
		<path d="M100,67.2H0c-0.3,0-0.5-0.2-0.5-0.5s0.2-0.5,0.5-0.5h100c0.3,0,0.5,0.2,0.5,0.5S100.3,67.2,100,67.2z"/>
	</g>
</g>
</svg>
