<?xml version="1.0" encoding="utf-8"?>
<!-- Generator: Adobe Illustrator 26.5.1, SVG Export Plug-In . SVG Version: 6.00 Build 0)  -->
<svg version="1.1" id="Ebene_1" xmlns="http://www.w3.org/2000/svg" xmlns:xlink="http://www.w3.org/1999/xlink" x="0px" y="0px"
	 viewBox="0 0 100 100" style="enable-background:new 0 0 100 100;" xml:space="preserve">
<g>
	<g>
		<path d="M91.7,100.5c-0.3,0-0.5-0.2-0.5-0.5V50C91.2,27.3,72.7,8.8,50,8.8H0c-0.3,0-0.5-0.2-0.5-0.5S-0.3,7.8,0,7.8h50
			c23.3,0,42.2,18.9,42.2,42.2v50C92.2,100.3,91.9,100.5,91.7,100.5z"/>
		<path d="M75,100.5c-0.3,0-0.5-0.2-0.5-0.5V50c0-13.5-11-24.5-24.5-24.5H0c-0.3,0-0.5-0.2-0.5-0.5s0.2-0.5,0.5-0.5h50
			c14.1,0,25.5,11.4,25.5,25.5v50C75.5,100.3,75.3,100.5,75,100.5z"/>
		<path d="M58.3,100.5c-0.3,0-0.5-0.2-0.5-0.5V50c0-4.3-3.5-7.8-7.8-7.8H0c-0.3,0-0.5-0.2-0.5-0.5s0.2-0.5,0.5-0.5h50
			c4.9,0,8.8,4,8.8,8.8v50C58.8,100.3,58.6,100.5,58.3,100.5z"/>
	</g>
</g>
</svg>
