<?xml version="1.0" encoding="utf-8"?>
<!-- Generator: Adobe Illustrator 26.5.1, SVG Export Plug-In . SVG Version: 6.00 Build 0)  -->
<svg version="1.1" id="Ebene_1" xmlns="http://www.w3.org/2000/svg" xmlns:xlink="http://www.w3.org/1999/xlink" x="0px" y="0px"
	 viewBox="0 0 100 100" style="enable-background:new 0 0 100 100;" xml:space="preserve">
<g>
	<g>
		<path d="M50,100.5C22.2,100.5-0.5,77.8-0.5,50V0c0-0.3,0.2-0.5,0.5-0.5S0.5-0.3,0.5,0v50c0,27.3,22.2,49.5,49.5,49.5
			c0.3,0,0.5,0.2,0.5,0.5S50.3,100.5,50,100.5z"/>
		<path d="M100,92.2H50C26.7,92.2,7.8,73.3,7.8,50c0-0.3,0.2-0.5,0.5-0.5s0.5,0.2,0.5,0.5c0,22.7,18.5,41.2,41.2,41.2h50
			c0.3,0,0.5,0.2,0.5,0.5S100.3,92.2,100,92.2z"/>
		<path d="M50,83.8c-18.7,0-33.8-15.2-33.8-33.8V0c0-0.3,0.2-0.5,0.5-0.5s0.5,0.2,0.5,0.5v50c0,18.1,14.7,32.8,32.8,32.8
			c0.3,0,0.5,0.2,0.5,0.5S50.3,83.8,50,83.8z"/>
		<path d="M100,75.5H50c-14.1,0-25.5-11.4-25.5-25.5c0-0.3,0.2-0.5,0.5-0.5s0.5,0.2,0.5,0.5c0,13.5,11,24.5,24.5,24.5h50
			c0.3,0,0.5,0.2,0.5,0.5S100.3,75.5,100,75.5z"/>
		<path d="M50,67.2c-9.5,0-17.2-7.7-17.2-17.2V0c0-0.3,0.2-0.5,0.5-0.5s0.5,0.2,0.5,0.5v50c0,8.9,7.3,16.2,16.2,16.2
			c0.3,0,0.5,0.2,0.5,0.5S50.3,67.2,50,67.2z"/>
		<path d="M100,58.8H50c-4.9,0-8.8-4-8.8-8.8c0-0.3,0.2-0.5,0.5-0.5s0.5,0.2,0.5,0.5c0,4.3,3.5,7.8,7.8,7.8h50
			c0.3,0,0.5,0.2,0.5,0.5S100.3,58.8,100,58.8z"/>
	</g>
</g>
</svg>
