<?xml version="1.0" encoding="utf-8"?>
<!-- Generator: Adobe Illustrator 26.5.1, SVG Export Plug-In . SVG Version: 6.00 Build 0)  -->
<svg version="1.1" id="Ebene_1" xmlns="http://www.w3.org/2000/svg" xmlns:xlink="http://www.w3.org/1999/xlink" x="0px" y="0px"
	 viewBox="0 0 100 100" style="enable-background:new 0 0 100 100;" xml:space="preserve">
<g>
	<g>
		<path d="M58.3,100.5c-0.3,0-0.5-0.2-0.5-0.5V0c0-0.3,0.2-0.5,0.5-0.5s0.5,0.2,0.5,0.5v100C58.8,100.3,58.6,100.5,58.3,100.5z"/>
		<path d="M50,100.5c-0.3,0-0.5-0.2-0.5-0.5V0c0-0.3,0.2-0.5,0.5-0.5s0.5,0.2,0.5,0.5v100C50.5,100.3,50.3,100.5,50,100.5z"/>
		<path d="M66.7,100.5c-0.3,0-0.5-0.2-0.5-0.5V0c0-0.3,0.2-0.5,0.5-0.5s0.5,0.2,0.5,0.5v100C67.2,100.3,66.9,100.5,66.7,100.5z"/>
		<path d="M83.3,100.5c-0.3,0-0.5-0.2-0.5-0.5V0c0-0.3,0.2-0.5,0.5-0.5s0.5,0.2,0.5,0.5v100C83.8,100.3,83.6,100.5,83.3,100.5z"/>
		<path d="M75,100.5c-0.3,0-0.5-0.2-0.5-0.5l0-100c0-0.3,0.2-0.5,0.5-0.5s0.5,0.2,0.5,0.5l0,100C75.5,100.3,75.3,100.5,75,100.5z"/>
		<path d="M25,100.5c-0.3,0-0.5-0.2-0.5-0.5V0c0-0.3,0.2-0.5,0.5-0.5s0.5,0.2,0.5,0.5v100C25.5,100.3,25.3,100.5,25,100.5z"/>
		<path d="M16.7,100.5c-0.3,0-0.5-0.2-0.5-0.5l0-100c0-0.3,0.2-0.5,0.5-0.5s0.5,0.2,0.5,0.5l0,100C17.2,100.3,16.9,100.5,16.7,100.5
			z"/>
		<path d="M33.3,100.5c-0.3,0-0.5-0.2-0.5-0.5V0c0-0.3,0.2-0.5,0.5-0.5s0.5,0.2,0.5,0.5v100C33.8,100.3,33.6,100.5,33.3,100.5z"/>
		<path d="M41.7,100.5c-0.3,0-0.5-0.2-0.5-0.5V0c0-0.3,0.2-0.5,0.5-0.5s0.5,0.2,0.5,0.5v100C42.2,100.3,41.9,100.5,41.7,100.5z"/>
	</g>
</g>
</svg>
