<?xml version="1.0" encoding="utf-8"?>
<!-- Generator: Adobe Illustrator 26.5.1, SVG Export Plug-In . SVG Version: 6.00 Build 0)  -->
<svg version="1.1" id="Ebene_1" xmlns="http://www.w3.org/2000/svg" xmlns:xlink="http://www.w3.org/1999/xlink" x="0px" y="0px"
	 viewBox="0 0 100 100" style="enable-background:new 0 0 100 100;" xml:space="preserve">
<g>
	<g>
		<path d="M50,100.5H33.3c-0.3,0-0.5-0.2-0.5-0.5s0.2-0.5,0.5-0.5H50c27.3,0,49.5-22.2,49.5-49.5V0c0-0.3,0.2-0.5,0.5-0.5
			s0.5,0.2,0.5,0.5v50C100.5,77.8,77.8,100.5,50,100.5z"/>
		<path d="M50,92.2H16.7c-0.3,0-0.5-0.2-0.5-0.5s0.2-0.5,0.5-0.5H50c22.7,0,41.2-18.5,41.2-41.2V0c0-0.3,0.2-0.5,0.5-0.5
			s0.5,0.2,0.5,0.5v50C92.2,73.3,73.3,92.2,50,92.2z"/>
		<path d="M50,83.8H0c-0.3,0-0.5-0.2-0.5-0.5s0.2-0.5,0.5-0.5h50c18.1,0,32.8-14.7,32.8-32.8c0-0.3,0.2-0.5,0.5-0.5s0.5,0.2,0.5,0.5
			C83.8,68.7,68.7,83.8,50,83.8z"/>
		<path d="M50,75.5H0c-0.3,0-0.5-0.2-0.5-0.5s0.2-0.5,0.5-0.5h50c13.5,0,24.5-11,24.5-24.5V33.3c0-0.3,0.2-0.5,0.5-0.5
			s0.5,0.2,0.5,0.5V50C75.5,64.1,64.1,75.5,50,75.5z"/>
		<path d="M50,67.2H0c-0.3,0-0.5-0.2-0.5-0.5s0.2-0.5,0.5-0.5h50c8.9,0,16.2-7.3,16.2-16.2V16.5c0-0.3,0.2-0.5,0.5-0.5
			s0.5,0.2,0.5,0.5V50C67.2,59.5,59.5,67.2,50,67.2z"/>
		<path d="M50,58.8H0c-0.3,0-0.5-0.2-0.5-0.5s0.2-0.5,0.5-0.5h50c4.3,0,7.8-3.5,7.8-7.8V0c0-0.3,0.2-0.5,0.5-0.5s0.5,0.2,0.5,0.5v50
			C58.8,54.9,54.9,58.8,50,58.8z"/>
	</g>
</g>
</svg>
