<?xml version="1.0" encoding="utf-8"?>
<!-- Generator: Adobe Illustrator 26.5.1, SVG Export Plug-In . SVG Version: 6.00 Build 0)  -->
<svg version="1.1" id="Ebene_1" xmlns="http://www.w3.org/2000/svg" xmlns:xlink="http://www.w3.org/1999/xlink" x="0px" y="0px"
	 viewBox="0 0 100 100" style="enable-background:new 0 0 100 100;" xml:space="preserve">
<g>
	<g>
		<g>
			<path d="M50,33.8H0c-0.3,0-0.5-0.2-0.5-0.5s0.2-0.5,0.5-0.5h50c0.3,0,0.5,0.2,0.5,0.5S50.3,33.8,50,33.8z"/>
			<path d="M50,17.2H0c-0.3,0-0.5-0.2-0.5-0.5s0.2-0.5,0.5-0.5h50c0.3,0,0.5,0.2,0.5,0.5S50.3,17.2,50,17.2z"/>
			<path d="M50,25.5l-50,0c-0.3,0-0.5-0.2-0.5-0.5s0.2-0.5,0.5-0.5l0,0l50,0c0.3,0,0.5,0.2,0.5,0.5S50.3,25.5,50,25.5z"/>
			<path d="M50,8.8H0c-0.3,0-0.5-0.2-0.5-0.5S-0.3,7.8,0,7.8h50c0.3,0,0.5,0.2,0.5,0.5S50.3,8.8,50,8.8z"/>
			<path d="M50,0.5H0c-0.3,0-0.5-0.2-0.5-0.5S-0.3-0.5,0-0.5h50c0.3,0,0.5,0.2,0.5,0.5S50.3,0.5,50,0.5z"/>
			<path d="M50,100.5H0c-0.3,0-0.5-0.2-0.5-0.5s0.2-0.5,0.5-0.5h50c0.3,0,0.5,0.2,0.5,0.5S50.3,100.5,50,100.5z"/>
			<path d="M50,92.2H0c-0.3,0-0.5-0.2-0.5-0.5s0.2-0.5,0.5-0.5h50c0.3,0,0.5,0.2,0.5,0.5S50.3,92.2,50,92.2z"/>
			<path d="M50,75.5H0c-0.3,0-0.5-0.2-0.5-0.5s0.2-0.5,0.5-0.5h50c0.3,0,0.5,0.2,0.5,0.5S50.3,75.5,50,75.5z"/>
			<path d="M50,83.8L50,83.8l-50,0c-0.3,0-0.5-0.2-0.5-0.5s0.2-0.5,0.5-0.5l50,0c0.3,0,0.5,0.2,0.5,0.5S50.3,83.8,50,83.8z"/>
			<path d="M50,67.2H0c-0.3,0-0.5-0.2-0.5-0.5s0.2-0.5,0.5-0.5h50c0.3,0,0.5,0.2,0.5,0.5S50.3,67.2,50,67.2z"/>
		</g>
		<g>
			<path d="M58.3,17.2c-0.3,0-0.5-0.2-0.5-0.5V0c0-0.3,0.2-0.5,0.5-0.5s0.5,0.2,0.5,0.5v16.7C58.8,16.9,58.6,17.2,58.3,17.2z"/>
			<path d="M50,17.2c-0.3,0-0.5-0.2-0.5-0.5V0c0-0.3,0.2-0.5,0.5-0.5s0.5,0.2,0.5,0.5v16.7C50.5,16.9,50.3,17.2,50,17.2z"/>
			<path d="M66.7,17.2c-0.3,0-0.5-0.2-0.5-0.5V0c0-0.3,0.2-0.5,0.5-0.5s0.5,0.2,0.5,0.5v16.7C67.2,16.9,66.9,17.2,66.7,17.2z"/>
			<path d="M83.3,17.2c-0.3,0-0.5-0.2-0.5-0.5V0c0-0.3,0.2-0.5,0.5-0.5s0.5,0.2,0.5,0.5v16.7C83.8,16.9,83.6,17.2,83.3,17.2z"/>
			<path d="M75,17.2c-0.3,0-0.5-0.2-0.5-0.5V0c0-0.3,0.2-0.5,0.5-0.5s0.5,0.2,0.5,0.5v16.7C75.5,16.9,75.3,17.2,75,17.2z"/>
			<path d="M25,17.2c-0.3,0-0.5-0.2-0.5-0.5V0c0-0.3,0.2-0.5,0.5-0.5s0.5,0.2,0.5,0.5v16.7C25.5,16.9,25.3,17.2,25,17.2z"/>
			<path d="M16.7,17.2c-0.3,0-0.5-0.2-0.5-0.5V0c0-0.3,0.2-0.5,0.5-0.5s0.5,0.2,0.5,0.5v16.7C17.2,16.9,16.9,17.2,16.7,17.2z"/>
			<path d="M33.3,17.2c-0.3,0-0.5-0.2-0.5-0.5V0c0-0.3,0.2-0.5,0.5-0.5s0.5,0.2,0.5,0.5v16.7C33.8,16.9,33.6,17.2,33.3,17.2z"/>
			<path d="M41.7,17.2c-0.3,0-0.5-0.2-0.5-0.5V0c0-0.3,0.2-0.5,0.5-0.5s0.5,0.2,0.5,0.5v16.7C42.2,16.9,41.9,17.2,41.7,17.2z"/>
		</g>
		<g>
			<path d="M58.3,50.5c-0.3,0-0.5-0.2-0.5-0.5V33.3c0-0.3,0.2-0.5,0.5-0.5s0.5,0.2,0.5,0.5V50C58.8,50.3,58.6,50.5,58.3,50.5z"/>
			<path d="M50,50.5c-0.3,0-0.5-0.2-0.5-0.5V33.3c0-0.3,0.2-0.5,0.5-0.5s0.5,0.2,0.5,0.5V50C50.5,50.3,50.3,50.5,50,50.5z"/>
			<path d="M66.7,50.5c-0.3,0-0.5-0.2-0.5-0.5V33.3c0-0.3,0.2-0.5,0.5-0.5s0.5,0.2,0.5,0.5V50C67.2,50.3,66.9,50.5,66.7,50.5z"/>
			<path d="M83.3,50.5c-0.3,0-0.5-0.2-0.5-0.5V33.3c0-0.3,0.2-0.5,0.5-0.5s0.5,0.2,0.5,0.5V50C83.8,50.3,83.6,50.5,83.3,50.5z"/>
			<path d="M75,50.5c-0.3,0-0.5-0.2-0.5-0.5V33.3c0-0.3,0.2-0.5,0.5-0.5s0.5,0.2,0.5,0.5V50C75.5,50.3,75.3,50.5,75,50.5z"/>
			<path d="M25,50.5c-0.3,0-0.5-0.2-0.5-0.5V33.3c0-0.3,0.2-0.5,0.5-0.5s0.5,0.2,0.5,0.5V50C25.5,50.3,25.3,50.5,25,50.5z"/>
			<path d="M16.7,50.5c-0.3,0-0.5-0.2-0.5-0.5V33.3c0-0.3,0.2-0.5,0.5-0.5s0.5,0.2,0.5,0.5V50C17.2,50.3,16.9,50.5,16.7,50.5z"/>
			<path d="M33.3,50.5c-0.3,0-0.5-0.2-0.5-0.5V33.3c0-0.3,0.2-0.5,0.5-0.5s0.5,0.2,0.5,0.5V50C33.8,50.3,33.6,50.5,33.3,50.5z"/>
			<path d="M41.7,50.5c-0.3,0-0.5-0.2-0.5-0.5V33.3c0-0.3,0.2-0.5,0.5-0.5s0.5,0.2,0.5,0.5V50C42.2,50.3,41.9,50.5,41.7,50.5z"/>
		</g>
		<g>
			<path d="M58.3,83.8c-0.3,0-0.5-0.2-0.5-0.5V66.7c0-0.3,0.2-0.5,0.5-0.5s0.5,0.2,0.5,0.5v16.7C58.8,83.6,58.6,83.8,58.3,83.8z"/>
			<path d="M50,83.8c-0.3,0-0.5-0.2-0.5-0.5V66.7c0-0.3,0.2-0.5,0.5-0.5s0.5,0.2,0.5,0.5v16.7C50.5,83.6,50.3,83.8,50,83.8z"/>
			<path d="M66.7,83.8c-0.3,0-0.5-0.2-0.5-0.5V66.7c0-0.3,0.2-0.5,0.5-0.5s0.5,0.2,0.5,0.5v16.7C67.2,83.6,66.9,83.8,66.7,83.8z"/>
			<path d="M83.3,83.8c-0.3,0-0.5-0.2-0.5-0.5V66.7c0-0.3,0.2-0.5,0.5-0.5s0.5,0.2,0.5,0.5v16.7C83.8,83.6,83.6,83.8,83.3,83.8z"/>
			<path d="M75,83.8c-0.3,0-0.5-0.2-0.5-0.5V66.7c0-0.3,0.2-0.5,0.5-0.5s0.5,0.2,0.5,0.5v16.7C75.5,83.6,75.3,83.8,75,83.8z"/>
			<path d="M25,83.8c-0.3,0-0.5-0.2-0.5-0.5V66.7c0-0.3,0.2-0.5,0.5-0.5s0.5,0.2,0.5,0.5v16.7C25.5,83.6,25.3,83.8,25,83.8z"/>
			<path d="M16.7,83.8c-0.3,0-0.5-0.2-0.5-0.5V66.7c0-0.3,0.2-0.5,0.5-0.5s0.5,0.2,0.5,0.5v16.7C17.2,83.6,16.9,83.8,16.7,83.8z"/>
			<path d="M33.3,83.8c-0.3,0-0.5-0.2-0.5-0.5V66.7c0-0.3,0.2-0.5,0.5-0.5s0.5,0.2,0.5,0.5v16.7C33.8,83.6,33.6,83.8,33.3,83.8z"/>
			<path d="M41.7,83.8c-0.3,0-0.5-0.2-0.5-0.5V66.7c0-0.3,0.2-0.5,0.5-0.5s0.5,0.2,0.5,0.5v16.7C42.2,83.6,41.9,83.8,41.7,83.8z"/>
		</g>
		<g>
			<path d="M62.5,100.5c-0.3,0-0.5-0.2-0.5-0.5V83.3c0-0.3,0.2-0.5,0.5-0.5S63,83,63,83.3V100C63,100.2,62.8,100.5,62.5,100.5z"/>
			<path d="M54.2,100.5c-0.3,0-0.5-0.2-0.5-0.5V83.3c0-0.3,0.2-0.5,0.5-0.5s0.5,0.2,0.5,0.5V100C54.7,100.2,54.4,100.5,54.2,100.5z"
				/>
			<path d="M70.8,100.5c-0.3,0-0.5-0.2-0.5-0.5V83.3c0-0.3,0.2-0.5,0.5-0.5s0.5,0.2,0.5,0.5V100C71.3,100.2,71.1,100.5,70.8,100.5z"
				/>
			<path d="M87.5,100.5c-0.3,0-0.5-0.2-0.5-0.5V83.3c0-0.3,0.2-0.5,0.5-0.5S88,83,88,83.3V100C88,100.2,87.8,100.5,87.5,100.5z"/>
			<path d="M79.2,100.5c-0.3,0-0.5-0.2-0.5-0.5V83.3c0-0.3,0.2-0.5,0.5-0.5s0.5,0.2,0.5,0.5V100C79.7,100.2,79.4,100.5,79.2,100.5z"
				/>
			<path d="M29.2,100.5c-0.3,0-0.5-0.2-0.5-0.5V83.3c0-0.3,0.2-0.5,0.5-0.5s0.5,0.2,0.5,0.5V100C29.7,100.2,29.4,100.5,29.2,100.5z"
				/>
			<path d="M20.8,100.5c-0.3,0-0.5-0.2-0.5-0.5V83.3c0-0.3,0.2-0.5,0.5-0.5s0.5,0.2,0.5,0.5V100C21.3,100.2,21.1,100.5,20.8,100.5z"
				/>
			<path d="M37.5,100.5c-0.3,0-0.5-0.2-0.5-0.5V83.3c0-0.3,0.2-0.5,0.5-0.5S38,83,38,83.3V100C38,100.2,37.8,100.5,37.5,100.5z"/>
			<path d="M45.8,100.5c-0.3,0-0.5-0.2-0.5-0.5V83.3c0-0.3,0.2-0.5,0.5-0.5s0.5,0.2,0.5,0.5V100C46.3,100.2,46.1,100.5,45.8,100.5z"
				/>
		</g>
		<g>
			<path d="M62.5,67.2c-0.3,0-0.5-0.2-0.5-0.5V50c0-0.3,0.2-0.5,0.5-0.5S63,49.7,63,50v16.7C63,66.9,62.8,67.2,62.5,67.2z"/>
			<path d="M54.2,67.2c-0.3,0-0.5-0.2-0.5-0.5V50c0-0.3,0.2-0.5,0.5-0.5s0.5,0.2,0.5,0.5v16.7C54.7,66.9,54.4,67.2,54.2,67.2z"/>
			<path d="M70.8,67.2c-0.3,0-0.5-0.2-0.5-0.5V50c0-0.3,0.2-0.5,0.5-0.5s0.5,0.2,0.5,0.5v16.7C71.3,66.9,71.1,67.2,70.8,67.2z"/>
			<path d="M87.5,67.2c-0.3,0-0.5-0.2-0.5-0.5V50c0-0.3,0.2-0.5,0.5-0.5S88,49.7,88,50v16.7C88,66.9,87.8,67.2,87.5,67.2z"/>
			<path d="M79.2,67.2c-0.3,0-0.5-0.2-0.5-0.5V50c0-0.3,0.2-0.5,0.5-0.5s0.5,0.2,0.5,0.5v16.7C79.7,66.9,79.4,67.2,79.2,67.2z"/>
			<path d="M29.2,67.2c-0.3,0-0.5-0.2-0.5-0.5V50c0-0.3,0.2-0.5,0.5-0.5s0.5,0.2,0.5,0.5v16.7C29.7,66.9,29.4,67.2,29.2,67.2z"/>
			<path d="M20.8,67.2c-0.3,0-0.5-0.2-0.5-0.5V50c0-0.3,0.2-0.5,0.5-0.5s0.5,0.2,0.5,0.5v16.7C21.3,66.9,21.1,67.2,20.8,67.2z"/>
			<path d="M37.5,67.2c-0.3,0-0.5-0.2-0.5-0.5V50c0-0.3,0.2-0.5,0.5-0.5S38,49.7,38,50v16.7C38,66.9,37.8,67.2,37.5,67.2z"/>
			<path d="M45.8,67.2c-0.3,0-0.5-0.2-0.5-0.5V50c0-0.3,0.2-0.5,0.5-0.5s0.5,0.2,0.5,0.5v16.7C46.3,66.9,46.1,67.2,45.8,67.2z"/>
		</g>
		<g>
			<path d="M62.5,33.8c-0.3,0-0.5-0.2-0.5-0.5V16.7c0-0.3,0.2-0.5,0.5-0.5s0.5,0.2,0.5,0.5v16.7C63,33.6,62.8,33.8,62.5,33.8z"/>
			<path d="M54.2,33.8c-0.3,0-0.5-0.2-0.5-0.5V16.7c0-0.3,0.2-0.5,0.5-0.5s0.5,0.2,0.5,0.5v16.7C54.7,33.6,54.4,33.8,54.2,33.8z"/>
			<path d="M70.8,33.8c-0.3,0-0.5-0.2-0.5-0.5V16.7c0-0.3,0.2-0.5,0.5-0.5s0.5,0.2,0.5,0.5v16.7C71.3,33.6,71.1,33.8,70.8,33.8z"/>
			<path d="M87.5,33.8c-0.3,0-0.5-0.2-0.5-0.5V16.7c0-0.3,0.2-0.5,0.5-0.5s0.5,0.2,0.5,0.5v16.7C88,33.6,87.8,33.8,87.5,33.8z"/>
			<path d="M79.2,33.8c-0.3,0-0.5-0.2-0.5-0.5V16.7c0-0.3,0.2-0.5,0.5-0.5s0.5,0.2,0.5,0.5v16.7C79.7,33.6,79.4,33.8,79.2,33.8z"/>
			<path d="M29.2,33.8c-0.3,0-0.5-0.2-0.5-0.5V16.7c0-0.3,0.2-0.5,0.5-0.5s0.5,0.2,0.5,0.5v16.7C29.7,33.6,29.4,33.8,29.2,33.8z"/>
			<path d="M20.8,33.8c-0.3,0-0.5-0.2-0.5-0.5V16.7c0-0.3,0.2-0.5,0.5-0.5s0.5,0.2,0.5,0.5v16.7C21.3,33.6,21.1,33.8,20.8,33.8z"/>
			<path d="M37.5,33.8c-0.3,0-0.5-0.2-0.5-0.5V16.7c0-0.3,0.2-0.5,0.5-0.5s0.5,0.2,0.5,0.5v16.7C38,33.6,37.8,33.8,37.5,33.8z"/>
			<path d="M45.8,33.8c-0.3,0-0.5-0.2-0.5-0.5V16.7c0-0.3,0.2-0.5,0.5-0.5s0.5,0.2,0.5,0.5v16.7C46.3,33.6,46.1,33.8,45.8,33.8z"/>
		</g>
		<path d="M50,100.5c-0.3,0-0.5-0.2-0.5-0.5s0.2-0.5,0.5-0.5c27.3,0,49.5-22.2,49.5-49.5S77.3,0.5,50,0.5c-0.3,0-0.5-0.2-0.5-0.5
			s0.2-0.5,0.5-0.5c27.8,0,50.5,22.7,50.5,50.5S77.8,100.5,50,100.5z"/>
		<path d="M50,92.2c-0.3,0-0.5-0.2-0.5-0.5s0.2-0.5,0.5-0.5c22.7,0,41.2-18.5,41.2-41.2S72.7,8.8,50,8.8c-0.3,0-0.5-0.2-0.5-0.5
			s0.2-0.5,0.5-0.5c23.3,0,42.2,18.9,42.2,42.2S73.3,92.2,50,92.2z"/>
		<path d="M50,83.8c-0.3,0-0.5-0.2-0.5-0.5s0.2-0.5,0.5-0.5c18.1,0,32.8-14.7,32.8-32.8S68.1,17.2,50,17.2c-0.3,0-0.5-0.2-0.5-0.5
			s0.2-0.5,0.5-0.5c18.7,0,33.8,15.2,33.8,33.8S68.7,83.8,50,83.8z"/>
		<path d="M50,75.5c-0.3,0-0.5-0.2-0.5-0.5s0.2-0.5,0.5-0.5c13.5,0,24.5-11,24.5-24.5S63.5,25.5,50,25.5c-0.3,0-0.5-0.2-0.5-0.5
			s0.2-0.5,0.5-0.5c14.1,0,25.5,11.4,25.5,25.5S64.1,75.5,50,75.5z"/>
		<path d="M50,67.2c-0.3,0-0.5-0.2-0.5-0.5s0.2-0.5,0.5-0.5c8.9,0,16.2-7.3,16.2-16.2S58.9,33.8,50,33.8c-0.3,0-0.5-0.2-0.5-0.5
			s0.2-0.5,0.5-0.5c9.5,0,17.2,7.7,17.2,17.2S59.5,67.2,50,67.2z"/>
		<path d="M50,58.8c-0.3,0-0.5-0.2-0.5-0.5s0.2-0.5,0.5-0.5c4.3,0,7.8-3.5,7.8-7.8s-3.5-7.8-7.8-7.8c-0.3,0-0.5-0.2-0.5-0.5
			s0.2-0.5,0.5-0.5c4.9,0,8.8,4,8.8,8.8S54.9,58.8,50,58.8z"/>
	</g>
</g>
</svg>
