<?xml version="1.0" encoding="utf-8"?>
<!-- Generator: Adobe Illustrator 26.5.1, SVG Export Plug-In . SVG Version: 6.00 Build 0)  -->
<svg version="1.1" id="Ebene_1" xmlns="http://www.w3.org/2000/svg" xmlns:xlink="http://www.w3.org/1999/xlink" x="0px" y="0px"
	 viewBox="0 0 100 100" style="enable-background:new 0 0 100 100;" xml:space="preserve">
<g>
	<g>
		<g>
			<path d="M100,33.8H50c-0.3,0-0.5-0.2-0.5-0.5s0.2-0.5,0.5-0.5h50c0.3,0,0.5,0.2,0.5,0.5S100.3,33.8,100,33.8z"/>
			<path d="M100,17.2H50c-0.3,0-0.5-0.2-0.5-0.5s0.2-0.5,0.5-0.5h50c0.3,0,0.5,0.2,0.5,0.5S100.3,17.2,100,17.2z"/>
			<path d="M100,25.5l-50,0c-0.3,0-0.5-0.2-0.5-0.5s0.2-0.5,0.5-0.5l0,0l50,0c0.3,0,0.5,0.2,0.5,0.5S100.3,25.5,100,25.5z"/>
			<path d="M100,8.8H50c-0.3,0-0.5-0.2-0.5-0.5s0.2-0.5,0.5-0.5h50c0.3,0,0.5,0.2,0.5,0.5S100.3,8.8,100,8.8z"/>
			<path d="M100,0.5H50c-0.3,0-0.5-0.2-0.5-0.5s0.2-0.5,0.5-0.5h50c0.3,0,0.5,0.2,0.5,0.5S100.3,0.5,100,0.5z"/>
			<path d="M100,100.5H50c-0.3,0-0.5-0.2-0.5-0.5s0.2-0.5,0.5-0.5h50c0.3,0,0.5,0.2,0.5,0.5S100.3,100.5,100,100.5z"/>
			<path d="M100,92.2H50c-0.3,0-0.5-0.2-0.5-0.5s0.2-0.5,0.5-0.5h50c0.3,0,0.5,0.2,0.5,0.5S100.3,92.2,100,92.2z"/>
			<path d="M100,75.5H50c-0.3,0-0.5-0.2-0.5-0.5s0.2-0.5,0.5-0.5h50c0.3,0,0.5,0.2,0.5,0.5S100.3,75.5,100,75.5z"/>
			<path d="M100,83.8L100,83.8l-50,0c-0.3,0-0.5-0.2-0.5-0.5s0.2-0.5,0.5-0.5l50,0c0.3,0,0.5,0.2,0.5,0.5S100.3,83.8,100,83.8z"/>
			<path d="M100,67.2H50c-0.3,0-0.5-0.2-0.5-0.5s0.2-0.5,0.5-0.5h50c0.3,0,0.5,0.2,0.5,0.5S100.3,67.2,100,67.2z"/>
		</g>
		<g>
			<path d="M50,33.8H0c-0.3,0-0.5-0.2-0.5-0.5s0.2-0.5,0.5-0.5h50c0.3,0,0.5,0.2,0.5,0.5S50.3,33.8,50,33.8z"/>
			<path d="M50,17.2H0c-0.3,0-0.5-0.2-0.5-0.5s0.2-0.5,0.5-0.5h50c0.3,0,0.5,0.2,0.5,0.5S50.3,17.2,50,17.2z"/>
			<path d="M50,25.5l-50,0c-0.3,0-0.5-0.2-0.5-0.5s0.2-0.5,0.5-0.5l0,0l50,0c0.3,0,0.5,0.2,0.5,0.5S50.3,25.5,50,25.5z"/>
			<path d="M50,8.8H0c-0.3,0-0.5-0.2-0.5-0.5S-0.3,7.8,0,7.8h50c0.3,0,0.5,0.2,0.5,0.5S50.3,8.8,50,8.8z"/>
			<path d="M50,0.5H0c-0.3,0-0.5-0.2-0.5-0.5S-0.3-0.5,0-0.5h50c0.3,0,0.5,0.2,0.5,0.5S50.3,0.5,50,0.5z"/>
			<path d="M50,100.5H0c-0.3,0-0.5-0.2-0.5-0.5s0.2-0.5,0.5-0.5h50c0.3,0,0.5,0.2,0.5,0.5S50.3,100.5,50,100.5z"/>
			<path d="M50,92.2H0c-0.3,0-0.5-0.2-0.5-0.5s0.2-0.5,0.5-0.5h50c0.3,0,0.5,0.2,0.5,0.5S50.3,92.2,50,92.2z"/>
			<path d="M50,75.5H0c-0.3,0-0.5-0.2-0.5-0.5s0.2-0.5,0.5-0.5h50c0.3,0,0.5,0.2,0.5,0.5S50.3,75.5,50,75.5z"/>
			<path d="M50,83.8L50,83.8l-50,0c-0.3,0-0.5-0.2-0.5-0.5s0.2-0.5,0.5-0.5l50,0c0.3,0,0.5,0.2,0.5,0.5S50.3,83.8,50,83.8z"/>
			<path d="M50,67.2H0c-0.3,0-0.5-0.2-0.5-0.5s0.2-0.5,0.5-0.5h50c0.3,0,0.5,0.2,0.5,0.5S50.3,67.2,50,67.2z"/>
		</g>
		<g>
			<path d="M58.3,100.5c-0.3,0-0.5-0.2-0.5-0.5V50c0-0.3,0.2-0.5,0.5-0.5s0.5,0.2,0.5,0.5v50C58.8,100.3,58.6,100.5,58.3,100.5z"/>
			<path d="M50,100.5c-0.3,0-0.5-0.2-0.5-0.5V50c0-0.3,0.2-0.5,0.5-0.5s0.5,0.2,0.5,0.5v50C50.5,100.3,50.3,100.5,50,100.5z"/>
			<path d="M66.7,100.5c-0.3,0-0.5-0.2-0.5-0.5V50c0-0.3,0.2-0.5,0.5-0.5s0.5,0.2,0.5,0.5v50C67.2,100.3,66.9,100.5,66.7,100.5z"/>
			<path d="M83.3,100.5c-0.3,0-0.5-0.2-0.5-0.5V50c0-0.3,0.2-0.5,0.5-0.5s0.5,0.2,0.5,0.5v50C83.8,100.3,83.6,100.5,83.3,100.5z"/>
			<path d="M75,100.5c-0.3,0-0.5-0.2-0.5-0.5V50c0-0.3,0.2-0.5,0.5-0.5s0.5,0.2,0.5,0.5v50C75.5,100.3,75.3,100.5,75,100.5z"/>
			<path d="M25,100.5c-0.3,0-0.5-0.2-0.5-0.5V50c0-0.3,0.2-0.5,0.5-0.5s0.5,0.2,0.5,0.5v50C25.5,100.3,25.3,100.5,25,100.5z"/>
			<path d="M16.7,100.5c-0.3,0-0.5-0.2-0.5-0.5V50c0-0.3,0.2-0.5,0.5-0.5s0.5,0.2,0.5,0.5v50C17.2,100.3,16.9,100.5,16.7,100.5z"/>
			<path d="M33.3,100.5c-0.3,0-0.5-0.2-0.5-0.5V50c0-0.3,0.2-0.5,0.5-0.5s0.5,0.2,0.5,0.5v50C33.8,100.3,33.6,100.5,33.3,100.5z"/>
			<path d="M41.7,100.5c-0.3,0-0.5-0.2-0.5-0.5V50c0-0.3,0.2-0.5,0.5-0.5s0.5,0.2,0.5,0.5v50C42.2,100.3,41.9,100.5,41.7,100.5z"/>
		</g>
		<g>
			<path d="M58.3,50.5c-0.3,0-0.5-0.2-0.5-0.5V0c0-0.3,0.2-0.5,0.5-0.5s0.5,0.2,0.5,0.5v50C58.8,50.3,58.6,50.5,58.3,50.5z"/>
			<path d="M50,50.5c-0.3,0-0.5-0.2-0.5-0.5V0c0-0.3,0.2-0.5,0.5-0.5s0.5,0.2,0.5,0.5v50C50.5,50.3,50.3,50.5,50,50.5z"/>
			<path d="M66.7,50.5c-0.3,0-0.5-0.2-0.5-0.5V0c0-0.3,0.2-0.5,0.5-0.5s0.5,0.2,0.5,0.5v50C67.2,50.3,66.9,50.5,66.7,50.5z"/>
			<path d="M83.3,50.5c-0.3,0-0.5-0.2-0.5-0.5V0c0-0.3,0.2-0.5,0.5-0.5s0.5,0.2,0.5,0.5v50C83.8,50.3,83.6,50.5,83.3,50.5z"/>
			<path d="M75,50.5c-0.3,0-0.5-0.2-0.5-0.5V0c0-0.3,0.2-0.5,0.5-0.5s0.5,0.2,0.5,0.5v50C75.5,50.3,75.3,50.5,75,50.5z"/>
			<path d="M25,50.5c-0.3,0-0.5-0.2-0.5-0.5V0c0-0.3,0.2-0.5,0.5-0.5s0.5,0.2,0.5,0.5v50C25.5,50.3,25.3,50.5,25,50.5z"/>
			<path d="M16.7,50.5c-0.3,0-0.5-0.2-0.5-0.5V0c0-0.3,0.2-0.5,0.5-0.5s0.5,0.2,0.5,0.5v50C17.2,50.3,16.9,50.5,16.7,50.5z"/>
			<path d="M33.3,50.5c-0.3,0-0.5-0.2-0.5-0.5V0c0-0.3,0.2-0.5,0.5-0.5s0.5,0.2,0.5,0.5v50C33.8,50.3,33.6,50.5,33.3,50.5z"/>
			<path d="M41.7,50.5c-0.3,0-0.5-0.2-0.5-0.5V0c0-0.3,0.2-0.5,0.5-0.5s0.5,0.2,0.5,0.5v50C42.2,50.3,41.9,50.5,41.7,50.5z"/>
		</g>
		<path d="M50,100.5C22.2,100.5-0.5,77.8-0.5,50S22.2-0.5,50-0.5s50.5,22.7,50.5,50.5S77.8,100.5,50,100.5z M50,0.5
			C22.7,0.5,0.5,22.7,0.5,50S22.7,99.5,50,99.5S99.5,77.3,99.5,50S77.3,0.5,50,0.5z"/>
		<path d="M50,96.3C24.5,96.3,3.7,75.5,3.7,50S24.5,3.7,50,3.7S96.3,24.5,96.3,50S75.5,96.3,50,96.3z M50,4.7C25,4.7,4.7,25,4.7,50
			S25,95.3,50,95.3S95.3,75,95.3,50S75,4.7,50,4.7z"/>
		<path d="M50,92.2C26.7,92.2,7.8,73.3,7.8,50S26.7,7.8,50,7.8S92.2,26.7,92.2,50S73.3,92.2,50,92.2z M50,8.8
			C27.3,8.8,8.8,27.3,8.8,50S27.3,91.2,50,91.2S91.2,72.7,91.2,50S72.7,8.8,50,8.8z"/>
		<path d="M50,88c-21,0-38-17-38-38s17-38,38-38s38,17,38,38S71,88,50,88z M50,13c-20.4,0-37,16.6-37,37s16.6,37,37,37
			s37-16.6,37-37S70.4,13,50,13z"/>
		<path d="M50,83.8c-18.7,0-33.8-15.2-33.8-33.8S31.3,16.2,50,16.2S83.8,31.3,83.8,50S68.7,83.8,50,83.8z M50,17.2
			c-18.1,0-32.8,14.7-32.8,32.8S31.9,82.8,50,82.8S82.8,68.1,82.8,50S68.1,17.2,50,17.2z"/>
		<path d="M50,79.7c-16.4,0-29.7-13.3-29.7-29.7c0-16.4,13.3-29.7,29.7-29.7c16.4,0,29.7,13.3,29.7,29.7
			C79.7,66.4,66.4,79.7,50,79.7z M50,21.3c-15.8,0-28.7,12.9-28.7,28.7c0,15.8,12.9,28.7,28.7,28.7c15.8,0,28.7-12.9,28.7-28.7
			C78.7,34.2,65.8,21.3,50,21.3z"/>
		<path d="M50,75.5c-14.1,0-25.5-11.4-25.5-25.5S35.9,24.5,50,24.5S75.5,35.9,75.5,50S64.1,75.5,50,75.5z M50,25.5
			c-13.5,0-24.5,11-24.5,24.5s11,24.5,24.5,24.5s24.5-11,24.5-24.5S63.5,25.5,50,25.5z"/>
		<path d="M50,71.3c-11.8,0-21.3-9.6-21.3-21.3S38.2,28.7,50,28.7S71.3,38.2,71.3,50S61.8,71.3,50,71.3z M50,29.7
			c-11.2,0-20.3,9.1-20.3,20.3S38.8,70.3,50,70.3S70.3,61.2,70.3,50S61.2,29.7,50,29.7z"/>
		<path d="M50,67.2c-9.5,0-17.2-7.7-17.2-17.2S40.5,32.8,50,32.8S67.2,40.5,67.2,50S59.5,67.2,50,67.2z M50,33.8
			c-8.9,0-16.2,7.3-16.2,16.2S41.1,66.2,50,66.2S66.2,58.9,66.2,50S58.9,33.8,50,33.8z"/>
		<path d="M50,63c-7.2,0-13-5.8-13-13s5.8-13,13-13s13,5.8,13,13S57.2,63,50,63z M50,38c-6.6,0-12,5.4-12,12s5.4,12,12,12
			s12-5.4,12-12S56.6,38,50,38z"/>
		<path d="M50,58.8c-4.9,0-8.8-4-8.8-8.8s4-8.8,8.8-8.8s8.8,4,8.8,8.8S54.9,58.8,50,58.8z M50,42.2c-4.3,0-7.8,3.5-7.8,7.8
			s3.5,7.8,7.8,7.8s7.8-3.5,7.8-7.8S54.3,42.2,50,42.2z"/>
		<path d="M50,54.7c-2.6,0-4.7-2.1-4.7-4.7s2.1-4.7,4.7-4.7s4.7,2.1,4.7,4.7S52.6,54.7,50,54.7z M50,46.3c-2,0-3.7,1.6-3.7,3.7
			s1.6,3.7,3.7,3.7s3.7-1.6,3.7-3.7S52,46.3,50,46.3z"/>
	</g>
</g>
</svg>
