<?xml version="1.0" encoding="utf-8"?>
<!-- Generator: Adobe Illustrator 26.5.1, SVG Export Plug-In . SVG Version: 6.00 Build 0)  -->
<svg version="1.1" id="Ebene_1" xmlns="http://www.w3.org/2000/svg" xmlns:xlink="http://www.w3.org/1999/xlink" x="0px" y="0px"
	 viewBox="0 0 100 100" style="enable-background:new 0 0 100 100;" xml:space="preserve">
<g>
	<g>
		<polygon points="50,100 66.7,75 50,50 33.3,75 		"/>
		<g>
			<polygon points="66.7,66.7 66.7,75 72.2,66.7 			"/>
			<polygon points="66.7,91.7 75,87.5 72.2,83.3 66.7,83.3 			"/>
			<polygon points="83.3,100 83.3,83.3 94.4,83.3 			"/>
			<polygon points="61.1,33.3 66.7,25 66.7,33.3 			"/>
		</g>
		<g>
			<polygon points="33.3,66.7 33.3,75 27.8,66.7 			"/>
			<polygon points="33.3,91.7 25,87.5 27.8,83.3 33.3,83.3 			"/>
			<polygon points="16.7,100 16.7,83.3 5.6,83.3 			"/>
			<polygon points="38.9,33.3 33.3,25 33.3,33.3 			"/>
		</g>
	</g>
</g>
</svg>
