<?xml version="1.0" encoding="utf-8"?>
<!-- Generator: Adobe Illustrator 26.5.1, SVG Export Plug-In . SVG Version: 6.00 Build 0)  -->
<svg version="1.1" id="Ebene_1" xmlns="http://www.w3.org/2000/svg" xmlns:xlink="http://www.w3.org/1999/xlink" x="0px" y="0px"
	 viewBox="0 0 100 100" style="enable-background:new 0 0 100 100;" xml:space="preserve">
<g>
	<g>
		<polygon points="16.7,50 5.6,33.3 0,33.3 0,66.7 5.6,66.7 		"/>
		<g>
			<polygon points="0,25 16.7,33.3 5.6,33.3 			"/>
			<polygon points="16.7,16.7 27.8,16.7 33.3,25 27.8,33.3 16.7,33.3 			"/>
			<polygon points="33.3,41.7 25,37.5 27.8,33.3 33.3,33.3 			"/>
			<polygon points="38.9,16.7 33.3,16.7 33.3,25 			"/>
			<polygon points="25,12.5 16.7,0 0,25 			"/>
		</g>
		<g>
			<polygon points="0,75 16.7,66.7 5.6,66.7 			"/>
			<polygon points="16.7,83.3 27.8,83.3 33.3,75 27.8,66.7 16.7,66.7 			"/>
			<polygon points="33.3,58.3 25,62.5 27.8,66.7 33.3,66.7 			"/>
			<polygon points="38.9,83.3 33.3,83.3 33.3,75 			"/>
			<polygon points="25,87.5 16.7,100 0,75 			"/>
		</g>
		<polygon points="50,50 33.3,41.7 33.3,58.3 		"/>
		<polygon points="66.7,33.3 61.1,33.3 50,50 66.7,41.7 		"/>
		<polygon points="66.7,66.7 61.1,66.7 50,50 66.7,58.3 		"/>
	</g>
</g>
</svg>
