<?xml version="1.0" encoding="utf-8"?>
<!-- Generator: Adobe Illustrator 26.5.1, SVG Export Plug-In . SVG Version: 6.00 Build 0)  -->
<svg version="1.1" id="Ebene_1" xmlns="http://www.w3.org/2000/svg" xmlns:xlink="http://www.w3.org/1999/xlink" x="0px" y="0px"
	 viewBox="0 0 100 100" style="enable-background:new 0 0 100 100;" xml:space="preserve">
<g>
	<g>
		<polygon points="50,0.1 66.7,25.1 50,50.1 33.3,25.1 		"/>
		<g>
			<polygon points="66.7,33.4 66.7,25.1 72.2,33.4 			"/>
			<polygon points="66.7,8.4 75,12.6 72.2,16.7 66.7,16.7 			"/>
			<polygon points="83.3,0.1 83.3,16.7 94.4,16.7 			"/>
			<polygon points="61.1,66.7 66.7,75.1 66.7,66.7 			"/>
		</g>
		<g>
			<polygon points="33.3,33.4 33.3,25.1 27.8,33.4 			"/>
			<polygon points="33.3,8.4 25,12.6 27.8,16.7 33.3,16.7 			"/>
			<polygon points="16.7,0.1 16.7,16.7 5.6,16.7 			"/>
			<polygon points="38.9,66.7 33.3,75.1 33.3,66.7 			"/>
		</g>
	</g>
</g>
</svg>
