<?xml version="1.0" encoding="utf-8"?>
<!-- Generator: Adobe Illustrator 26.5.1, SVG Export Plug-In . SVG Version: 6.00 Build 0)  -->
<svg version="1.1" id="Ebene_1" xmlns="http://www.w3.org/2000/svg" xmlns:xlink="http://www.w3.org/1999/xlink" x="0px" y="0px"
	 viewBox="0 0 100 100" style="enable-background:new 0 0 100 100;" xml:space="preserve">
<g>
	<g>
		<polygon points="0,100.3 16.7,100.3 5.6,83.7 0,83.7 		"/>
		<polygon points="25,87.8 16.7,100.3 33.3,100.3 33.3,92 		"/>
		<polygon points="50,100.3 66.7,92 66.7,100.3 		"/>
		<polygon points="0,75.3 5.6,67 0,67 		"/>
		<polygon points="16.7,67 16.7,83.7 27.8,83.7 33.3,75.3 27.8,67 		"/>
		<polygon points="0,50.3 16.7,50.3 0,25.3 		"/>
		<polygon points="25,62.8 16.7,67 16.7,50.3 		"/>
		<polygon points="5.6,83.7 16.7,83.7 0,75.3 		"/>
		<polygon points="38.9,83.7 50,100.3 50,83.7 		"/>
		<polygon points="50,50.3 38.9,67 50,67 		"/>
		<polygon points="33.3,58.7 50,50.3 33.3,50.3 		"/>
		<polygon points="33.3,67 33.3,75.3 38.9,67 		"/>
		<polygon points="33.3,83.7 38.9,83.7 33.3,75.3 		"/>
	</g>
</g>
</svg>
