<?xml version="1.0" encoding="utf-8"?>
<!-- Generator: Adobe Illustrator 26.5.1, SVG Export Plug-In . SVG Version: 6.00 Build 0)  -->
<svg version="1.1" id="Ebene_1" xmlns="http://www.w3.org/2000/svg" xmlns:xlink="http://www.w3.org/1999/xlink" x="0px" y="0px"
	 viewBox="0 0 100 100" style="enable-background:new 0 0 100 100;" xml:space="preserve">
<g>
	<g>
		<polygon points="0,25 16.7,0 16.7,16.7 		"/>
		<polygon points="25,12.5 33.3,8.3 33.3,0 16.7,0 		"/>
		<polygon points="27.8,16.7 33.3,16.7 33.3,25 		"/>
		<polygon points="0,33.3 5.6,33.3 16.7,50 0,50 		"/>
		<polygon points="100,25 83.3,0 83.3,16.7 		"/>
		<polygon points="75,12.5 66.7,8.3 66.7,0 83.3,0 		"/>
		<polygon points="72.2,16.7 66.7,16.7 66.7,25 		"/>
		<polygon points="100,33.3 94.4,33.3 83.3,50 100,50 		"/>
		<polygon points="0,75 16.7,100 16.7,83.3 		"/>
		<polygon points="25,87.5 33.3,91.7 33.3,100 16.7,100 		"/>
		<polygon points="27.8,83.3 33.3,83.3 33.3,75 		"/>
		<polygon points="0,66.7 5.6,66.7 16.7,50 0,50 		"/>
		<polygon points="100,75 83.3,100 83.3,83.3 		"/>
		<polygon points="75,87.5 66.7,91.7 66.7,100 83.3,100 		"/>
		<polygon points="72.2,83.3 66.7,83.3 66.7,75 		"/>
		<polygon points="100,66.7 94.4,66.7 83.3,50 100,50 		"/>
		<rect width="16.7" height="16.7"/>
		<rect x="83.3" width="16.7" height="16.7"/>
		<rect x="83.3" y="83.3" width="16.7" height="16.7"/>
		<rect x="0" y="83.3" width="16.7" height="16.7"/>
	</g>
</g>
</svg>
