<?xml version="1.0" encoding="utf-8"?>
<!-- Generator: Adobe Illustrator 26.5.1, SVG Export Plug-In . SVG Version: 6.00 Build 0)  -->
<svg version="1.1" id="Ebene_1" xmlns="http://www.w3.org/2000/svg" xmlns:xlink="http://www.w3.org/1999/xlink" x="0px" y="0px"
	 viewBox="0 0 100 100" style="enable-background:new 0 0 100 100;" xml:space="preserve">
<g>
	<g>
		<polygon points="100,100 83.3,100 94.4,83.3 100,83.3 		"/>
		<polygon points="75,87.5 83.3,100 66.7,100 66.7,91.7 		"/>
		<polygon points="50,100 33.3,91.7 33.3,100 		"/>
		<polygon points="100,75 94.4,66.7 100,66.7 		"/>
		<polygon points="83.3,66.7 83.3,83.3 72.2,83.3 66.7,75 72.2,66.7 		"/>
		<polygon points="100,50 83.3,50 100,25 		"/>
		<polygon points="75,62.5 83.3,66.7 83.3,50 		"/>
		<polygon points="94.4,83.3 83.3,83.3 100,75 		"/>
		<polygon points="61.1,83.3 50,100 50,83.3 		"/>
		<polygon points="50,50 61.1,66.7 50,66.7 		"/>
		<polygon points="66.7,58.3 50,50 66.7,50 		"/>
		<polygon points="66.7,66.7 66.7,75 61.1,66.7 		"/>
		<polygon points="66.7,83.3 61.1,83.3 66.7,75 		"/>
	</g>
</g>
</svg>
