<?xml version="1.0" encoding="utf-8"?>
<!-- Generator: Adobe Illustrator 26.5.1, SVG Export Plug-In . SVG Version: 6.00 Build 0)  -->
<svg version="1.1" id="Ebene_1" xmlns="http://www.w3.org/2000/svg" xmlns:xlink="http://www.w3.org/1999/xlink" x="0px" y="0px"
	 viewBox="0 0 100 100" style="enable-background:new 0 0 100 100;" xml:space="preserve">
<g>
	<g>
		<polygon points="100,25 83.3,0 83.3,16.7 		"/>
		<polygon points="75,12.5 66.7,8.3 66.7,0 83.3,0 		"/>
		<polygon points="72.2,16.7 66.7,16.7 66.7,25 		"/>
		<polygon points="100,33.3 94.4,33.3 83.3,50 100,50 		"/>
		<polygon points="100,75 83.3,100 83.3,83.3 		"/>
		<polygon points="75,87.5 66.7,91.7 66.7,100 83.3,100 		"/>
		<polygon points="72.2,83.3 66.7,83.3 66.7,75 		"/>
		<polygon points="100,66.7 94.4,66.7 83.3,50 100,50 		"/>
		<rect x="83.3" y="0" transform="matrix(-1 -4.496549e-11 4.496549e-11 -1 183.3333 16.6667)" width="16.7" height="16.7"/>
		<rect x="83.3" y="83.3" transform="matrix(-1 -4.441970e-11 4.441970e-11 -1 183.3333 183.3314)" width="16.7" height="16.7"/>
		<g>
			<polygon points="50,50 61.1,33.3 66.7,33.3 66.7,66.7 61.1,66.7 			"/>
			<g>
				<polygon points="50,16.7 38.9,16.7 33.3,25 38.9,33.3 50,33.3 				"/>
				<polygon points="27.8,16.7 33.3,16.7 33.3,25 				"/>
			</g>
			<g>
				<polygon points="50,83.3 38.9,83.3 33.3,75 38.9,66.7 50,66.7 				"/>
				<polygon points="27.8,83.3 33.3,83.3 33.3,75 				"/>
			</g>
			<polyline points="16.7,50 16.7,50 25,37.5 33.3,41.7 33.3,58.3 25,62.5 16.7,50 			"/>
			<polygon points="0,33.3 5.6,33.3 16.7,50 0,50 			"/>
			<polygon points="0,66.7 5.6,66.7 16.7,50 0,49.4 			"/>
		</g>
	</g>
</g>
</svg>
