<?xml version="1.0" encoding="utf-8"?>
<!-- Generator: Adobe Illustrator 26.5.1, SVG Export Plug-In . SVG Version: 6.00 Build 0)  -->
<svg version="1.1" id="Ebene_1" xmlns="http://www.w3.org/2000/svg" xmlns:xlink="http://www.w3.org/1999/xlink" x="0px" y="0px"
	 viewBox="0 0 100 100" style="enable-background:new 0 0 100 100;" xml:space="preserve">
<style type="text/css">
	.st0{fill:none;stroke:#000000;stroke-linecap:round;stroke-linejoin:round;stroke-miterlimit:10;}
</style>
<g>
	<ellipse transform="matrix(0.7071 -0.7071 0.7071 0.7071 -20.7106 49.9999)" class="st0" cx="50" cy="50" rx="145.8" ry="145.8"/>
	<circle class="st0" cx="50" cy="50" r="141.7"/>
	<ellipse transform="matrix(0.7071 -0.7071 0.7071 0.7071 -20.7106 49.9999)" class="st0" cx="50" cy="50" rx="137.5" ry="137.5"/>
	<circle class="st0" cx="50" cy="50" r="133.3"/>
	<ellipse transform="matrix(0.7071 -0.7071 0.7071 0.7071 -20.7106 49.9999)" class="st0" cx="50" cy="50" rx="129.2" ry="129.2"/>
	<circle class="st0" cx="50" cy="50" r="125"/>
	<ellipse transform="matrix(0.7071 -0.7071 0.7071 0.7071 -20.7106 49.9999)" class="st0" cx="50" cy="50" rx="120.8" ry="120.8"/>
	<circle class="st0" cx="50" cy="50" r="116.7"/>
	<ellipse transform="matrix(0.7071 -0.7071 0.7071 0.7071 -20.7106 49.9999)" class="st0" cx="50" cy="50" rx="112.5" ry="112.5"/>
	<circle class="st0" cx="50" cy="50" r="108.3"/>
	<ellipse transform="matrix(0.7071 -0.7071 0.7071 0.7071 -20.7106 49.9999)" class="st0" cx="50" cy="50" rx="104.2" ry="104.2"/>
	<circle class="st0" cx="50" cy="50" r="100"/>
	<ellipse transform="matrix(0.7071 -0.7071 0.7071 0.7071 -20.7106 49.9999)" class="st0" cx="50" cy="50" rx="95.8" ry="95.8"/>
	<circle class="st0" cx="50" cy="50" r="91.7"/>
	<ellipse transform="matrix(0.7071 -0.7071 0.7071 0.7071 -20.7106 49.9999)" class="st0" cx="50" cy="50" rx="87.5" ry="87.5"/>
	<circle class="st0" cx="50" cy="50" r="83.3"/>
	<ellipse transform="matrix(0.7071 -0.7071 0.7071 0.7071 -20.7106 49.9999)" class="st0" cx="50" cy="50" rx="79.2" ry="79.2"/>
	<circle class="st0" cx="50" cy="50" r="75"/>
	<ellipse transform="matrix(0.7071 -0.7071 0.7071 0.7071 -20.7106 49.9999)" class="st0" cx="50" cy="50" rx="70.8" ry="70.8"/>
	<circle class="st0" cx="50" cy="50" r="66.7"/>
	<ellipse transform="matrix(0.7071 -0.7071 0.7071 0.7071 -20.7106 49.9999)" class="st0" cx="50" cy="50" rx="62.5" ry="62.5"/>
	<circle class="st0" cx="50" cy="50" r="58.3"/>
	<ellipse transform="matrix(0.7071 -0.7071 0.7071 0.7071 -20.7106 49.9999)" class="st0" cx="50" cy="50" rx="54.2" ry="54.2"/>
	<circle class="st0" cx="50" cy="50" r="50"/>
	<ellipse transform="matrix(0.7071 -0.7071 0.7071 0.7071 -20.7106 49.9999)" class="st0" cx="50" cy="50" rx="45.8" ry="45.8"/>
	<circle class="st0" cx="50" cy="50" r="41.7"/>
	<ellipse transform="matrix(0.7071 -0.7071 0.7071 0.7071 -20.7106 49.9999)" class="st0" cx="50" cy="50" rx="37.5" ry="37.5"/>
	<circle class="st0" cx="50" cy="50" r="33.3"/>
	<path class="st0" d="M50,79.2c-16.1,0-29.2-13.1-29.2-29.2S33.9,20.8,50,20.8S79.2,33.9,79.2,50S66.1,79.2,50,79.2z"/>
	<circle class="st0" cx="50" cy="50" r="25"/>
	<circle class="st0" cx="50" cy="50" r="20.8"/>
	<circle class="st0" cx="50" cy="50" r="16.7"/>
	<path class="st0" d="M50,62.5c-6.9,0-12.5-5.6-12.5-12.5S43.1,37.5,50,37.5S62.5,43.1,62.5,50S56.9,62.5,50,62.5z"/>
	<circle class="st0" cx="50" cy="50" r="8.3"/>
	<path class="st0" d="M50,54.2c-2.3,0-4.2-1.9-4.2-4.2s1.9-4.2,4.2-4.2s4.2,1.9,4.2,4.2S52.3,54.2,50,54.2z"/>
</g>
</svg>
