<?xml version="1.0" encoding="UTF-8"?>
<svg id="Ebene_1" xmlns="http://www.w3.org/2000/svg" version="1.1" viewBox="0 0 100 100">
  <!-- Generator: Adobe Illustrator 29.0.1, SVG Export Plug-In . SVG Version: 2.1.0 Build 192)  -->
  <circle cx="50" cy="50" r="8.1"/>
  <circle cx="66.7" cy="33.3" r="8.1"/>
  <circle cx="66.7" cy="83.3" r="8.1"/>
  <circle cx="66.7" cy="66.7" r="8.1"/>
  <circle cx="75" cy="58.3" r="8.1"/>
  <circle cx="58.4" cy="58.3" r="8.1"/>
  <circle cx="50" cy="66.7" r="8.1"/>
  <circle cx="41.7" cy="75" r="8.1"/>
  <circle cx="25" cy="75" r="8.1"/>
  <circle cx="8.4" cy="75" r="8.1"/>
  <circle cx="75" cy="75" r="8.1"/>
  <circle cx="91.7" cy="75" r="8.1"/>
  <circle cx="58.1" cy="41.6" r="8.1"/>
  <circle cx="58.3" cy="91.7" r="8.1"/>
  <circle cx="33.3" cy="83.3" r="8.1"/>
  <circle cx="25" cy="91.7" r="8.1"/>
  <circle cx="50" cy="83.3" r="8.1"/>
  <circle cx="91.7" cy="50" r="8.1"/>
  <circle cx="8.3" cy="58.3" r="8.1"/>
  <circle cx="75" cy="41.6" r="8.1"/>
  <circle cx="41.7" cy="58.3" r="8.1"/>
  <circle cx="33.3" cy="33.3" r="8.1"/>
  <circle cx="25" cy="58.3" r="8.1"/>
  <circle cx="41.7" cy="41.6" r="8.1"/>
  <circle cx="25" cy="41.6" r="8.1"/>
  <circle cx="16.7" cy="66.7" r="8.1"/>
  <circle cx="58.3" cy="25" r="8.1"/>
  <circle cx="75" cy="25" r="8.1"/>
  <circle cx="83.3" cy="16.7" r="8.1"/>
  <circle cx="91.7" cy="25" r="8.1"/>
  <circle cx="83.3" cy="33.3" r="8.1"/>
  <circle cx="41.7" cy="25" r="8.1"/>
  <circle cx="25" cy="25" r="8.1"/>
  <circle cx="16.7" cy="33.3" r="8.1"/>
  <circle cx="8.3" cy="25" r="8.1"/>
  <circle cx="58.4" cy="8.3" r="8.1"/>
  <circle cx="75" cy="8.3" r="8.1"/>
  <circle cx="91.7" cy="8.3" r="8.1"/>
  <circle cx="41.7" cy="8.3" r="8.1"/>
  <circle cx="16.7" cy="16.7" r="8.1"/>
  <circle cx="50" cy="16.7" r="8.1"/>
  <circle cx="75" cy="91.7" r="8.1"/>
  <path d="M0,.2v16.2c4.5,0,8.1-3.6,8.1-8.1S4.5.2,0,.2Z"/>
  <path d="M0,33.5v16.2c4.5,0,8.1-3.6,8.1-8.1s-3.6-8.1-8.1-8.1Z"/>
  <path d="M0,50.2v16.2c4.5,0,8.1-3.6,8.1-8.1s-3.6-8.1-8.1-8.1Z"/>
  <path d="M0,83.6v16.2c4.5,0,8.1-3.6,8.1-8.1s-3.6-8.1-8.1-8.1Z"/>
  <path d="M100,.2c-4.5,0-8.1,3.6-8.1,8.1s3.6,8.1,8.1,8.1V.2Z"/>
  <path d="M100,33.5c-4.5,0-8.1,3.6-8.1,8.1s3.6,8.1,8.1,8.1c0,0,0-16.2,0-16.2Z"/>
  <path d="M100,50.2c-4.5,0-8.1,3.6-8.1,8.1s3.6,8.1,8.1,8.1v-16.2Z"/>
  <path d="M100,83.6c-4.5,0-8.1,3.6-8.1,8.1s3.6,8.1,8.1,8.1c0,0,0-16.2,0-16.2Z"/>
</svg>