<?xml version="1.0" encoding="utf-8"?>
<!-- Generator: Adobe Illustrator 26.5.1, SVG Export Plug-In . SVG Version: 6.00 Build 0)  -->
<svg version="1.1" id="Ebene_1" xmlns="http://www.w3.org/2000/svg" xmlns:xlink="http://www.w3.org/1999/xlink" x="0px" y="0px"
	 viewBox="0 0 100 100" style="enable-background:new 0 0 100 100;" xml:space="preserve">
<g>
	<path d="M33.6,59.5c-0.7-0.4-1.5-0.9-2.2-1.4c-4.9-2.8-9.6-6-13.6-10.4c-1.7-1.9-3.3-3.9-4.5-6.3c-2.5-5.3-5.1-10.5-7.7-15.7
		c-1.2-2.3-2.6-4.4-3.8-6.7c-1.1-2-1.6-4.3-1.7-6.6c-0.3-3.3,0.8-6,3-8c2.2-2,4.7-3,7.4-3.4c1.7-0.3,3.4-0.5,5.1-0.7
		c0.6-0.1,1.2,0.2,1.7,0.2c3.3,0.1,6.6,0.9,9.7,2.1c2.3,0.9,4.5,2.1,6.5,3.6c3.2,2.2,5.7,5.2,7.6,8.9c1.4,2.7,2.8,5.5,3.8,8.4
		c1.1,3,1.7,6.1,2.6,9.2c0.5,1.8,0.9,3.5,1.4,5.3c0.1,0.5,0.2,0.9,0.3,1.4c0.1,0.4,0.2,0.8,0.4,1.5c0.5-1.5,1.2-2.2,2.2-2.7
		c0.7-0.4,1.3-1.6,1.6-2.6c1.4-3.7,2.5-7.5,4.1-11c2.5-5.4,4.3-11.1,6.5-16.6c0.5-1.2,0.8-2.5,1.1-3.7c0.2-0.7,0.3-1.3,0.5-2
		c0.6-1.8,1.6-2.9,3.3-3.4c2.3-0.6,4.6-0.3,6.8,0.3c2.1,0.5,4.1,1.3,6.3,1.4c1.2,0.1,2.3,0.7,3.3,1.7c0.2,0.2,0.4,0.3,0.6,0.4
		c3.8,2.2,6.7,5.5,9.3,9.5c1.7,2.6,2.8,5.4,3.9,8.3c0.4,1,0.6,2.1,0.8,3.2c0.2,1.1-0.1,1.4-1,1.6c-3.8,1-7.5,2-11.3,3
		c-1.9,0.5-3.9,1.1-5.8,1.6C81.4,30,81,30,80.6,30c-2.1-7.5-6.7-11.5-13.5-12.7c0.5,3,0.9,5.8,1.3,8.7c-0.4,0-0.7-0.1-1.1-0.1
		c-0.3,1-0.9,1.6-1.7,2c-0.3,0.1-0.5,0.6-0.8,0.8c-0.8,0.7-1.7,1.3-2.5,2.1c-0.7,0.6-1.2,1.3-1.8,2c-0.4,0.4-0.7,1-1,1.4
		c-0.7,0.9-1.4,1.7-2.1,2.6c-0.8,1-1.8,1.4-2.8,0.9c-0.6-0.1-0.6,1.2-1.3,0.5c-0.1-0.1-0.4,0.1-0.5,0.2c-0.6,1.5-1.8,2.3-2.6,3.5
		c-0.2,0.3-0.3,0.6-0.6,1.3c0.7-0.1,1.3,0,1.6-0.3c1-1.3,2.3-0.9,3.5-1.3c0.9-0.2,1.8-0.4,2.5-1.1c0.9-0.9,1.8-1.8,3.1-1.9
		c0.3,0,0.5-0.4,1-0.4c0.3,0,0.6-0.8,1-1c1-0.6,2.1-1.1,3.2-1.6c0.5-0.2,1-0.3,0.7-1.1c0.5,0,0.8,0,1.2,0c0.3,0,0.5,0.5,0.8-0.1
		c0.1-0.2,0.6-0.3,0.9-0.4c0-0.1,0-0.4,0-0.6c0.6,4.6,0.5,9.2-0.3,13.8c0.1,0.1,0.2,0.1,0.2,0.2c0.4-0.5,0.9-1,1.3-1.5
		c0.2-0.2,0.2-0.5,0.4-0.6c1.2-0.5,2.3-1.2,3.4-1.8c0.6-0.3,1,0.4,1,1.3c0.5-0.1,0.9-0.2,1.3-0.3c1-0.3,1.8-0.2,2.6,0.9
		c0.4,0.6,1.3,0.8,2,1.2c1,0.5,2,1,3,1.4c0.2,0.1,0.5,0.1,0.8,0.2c0.4,0.1,0.8,0.2,1.1,0.4c0.5,0.2,1,0.3,1.5,0.5
		c0.3,0.1,0.6,0.2,0.8,0.4c1,0.6,2,1.2,3.2,0.8c0.5-0.2,0.8,0,1.2,0.5c0.3,0.4,0.9,0.8,1.4,0.9c0.7,0.2,1.3,0.4,1.6,1.2
		c0,0.1,0.1,0.2,0.2,0.2c1.1,0.6,1.2,1.4,0.5,2.5C96,55.6,96,55.8,96.1,56c0.3,0.9-0.1,1.8,0,2.6c0.1,1-0.2,1.5-1,1.7
		c0.3,1.9-1,2-2,2.6c0.1,1,0.1,1.9,0.2,3c-0.4-0.1-0.7-0.1-1-0.1c-0.7-0.1-1.4,0-2,0.7c-0.7,0.8-1.5,1-2.4,0.6
		c-0.3-0.1-0.7-0.1-1.1,0c-1,0.2-2.1,0.1-3.1-0.2c-0.8-0.3-1.7-0.5-2.6-0.3c-0.6,0.1-1.2-0.2-1.9-0.3c-0.6,0-1.1-0.7-1.7-0.1
		c-0.1,0.1-0.3,0-0.4-0.1c-1.5-0.6-3.1-1.3-4.8-1c-0.4,0.1-0.9-0.2-1.3-0.3c-1.4-0.4-2.8-0.7-4.2-1.1c-1.6-0.5-3.2-1-4.2-2.6
		c-1.3,1.1-2.5,2.1-3.7,3.1c-1.8,1.6-3.9,1.9-6,2.2c-0.7,0.1-1.4,0.1-2,0c-0.7-0.1-1.1,0.3-1.2,1.1c-0.3,1.4-0.4,2.9-0.8,4.3
		c-1.3,4.8-3.1,9.2-5.8,13.2c-2.5,3.8-5.5,7.1-9,9.6c-2.6,1.9-5.2,3.6-8.2,4.5c-0.7,0.2-1.3,0.5-2.1,0.9c-0.2-0.6-0.4-1.1-0.4-1.6
		c-0.6-5.6-1.1-11.2-1.7-16.8c-0.2-1.5-0.3-3-0.5-4.5c-0.1-0.7,0.1-1.1,0.7-1.3c1.6-0.4,3.1-1.1,4.5-2.2c1.5-1.2,2.8-2.6,3.9-4.3
		c1.8-2.7,2.7-5.8,3.4-9.1C33.6,60,33.6,59.8,33.6,59.5z M31.9,38.8c-0.7-0.5-1.2-0.8-1.7-1.3c-1.9-1.9-3.8-3.9-5.7-5.8
		c-1.2-1.2-2.6-2.3-3.8-3.5c-1.1-1.1-2-2.3-2.5-3.9c-0.4-1.1-0.4-1.2-1.4-1c-1.8,0.4-3.4,1.4-4.8,2.8c-0.6,0.7-1,1.6-1.4,2.5
		c-0.4,0.7-0.2,1.2,0.4,1.6c1.5,1.1,3,2.4,4.6,3.4c3.7,2.5,7.6,4.4,11.6,6.2c1.6,0.8,3.3,1.4,5,2.1c0.3,0.1,0.7,0.1,1.3,0.1
		C32.7,40.8,32.3,39.7,31.9,38.8z M27.3,28.3c-0.2,0.2-0.3,0.3-0.3,0.4c0,0.1,0.1,0.3,0.2,0.3c0.1,0,0.2-0.1,0.3-0.1
		C27.4,28.7,27.4,28.6,27.3,28.3z M24.6,26.3c0-0.1,0.1-0.2,0.1-0.3c-0.2-0.1-0.4-0.1-0.5-0.2c0,0.1-0.1,0.2,0,0.3
		C24.3,26.1,24.5,26.2,24.6,26.3z"/>
</g>
</svg>
