<?xml version="1.0" encoding="UTF-8"?>
<svg id="Ebene_1" xmlns="http://www.w3.org/2000/svg" version="1.1" viewBox="0 0 100 100">
  <!-- Generator: Adobe Illustrator 29.0.1, SVG Export Plug-In . SVG Version: 2.1.0 Build 192)  -->
  <circle cx="50" cy="50" r="8.1"/>
  <circle cx="66.7" cy="33.3" r="8.1"/>
  <circle cx="75" cy="58.3" r="8.1"/>
  <circle cx="66.7" cy="66.7" r="8.1"/>
  <circle cx="66.7" cy="50" r="8.1"/>
  <circle cx="58.3" cy="58.3" r="8.1"/>
  <circle cx="50" cy="66.7" r="8.1"/>
  <circle cx="41.7" cy="75" r="8.1"/>
  <circle cx="25" cy="75" r="8.1"/>
  <circle cx="8.3" cy="66.7" r="8.1"/>
  <circle cx="75" cy="75" r="8.1"/>
  <circle cx="58.1" cy="41.7" r="8.1"/>
  <circle cx="58.3" cy="91.6" r="8.1"/>
  <circle cx="33.3" cy="83.3" r="8.1"/>
  <circle cx="25" cy="91.6" r="8.1"/>
  <circle cx="8.3" cy="91.6" r="8.1"/>
  <circle cx="50" cy="83.3" r="8.1"/>
  <circle cx="91.7" cy="91.6" r="8.1"/>
  <circle cx="91.7" cy="50" r="8.1"/>
  <circle cx="50" cy="16.7" r="8.1"/>
  <circle cx="75" cy="41.7" r="8.1"/>
  <circle cx="41.7" cy="58.3" r="8.1"/>
  <circle cx="33.3" cy="33.3" r="8.1"/>
  <circle cx="25.5" cy="58.3" r="8.1"/>
  <circle cx="41.7" cy="41.7" r="8.1"/>
  <circle cx="25" cy="41.7" r="8.1"/>
  <circle cx="16.7" cy="50" r="8.1"/>
  <circle cx="58.3" cy="25" r="8.1"/>
  <circle cx="75" cy="25" r="8.1"/>
  <circle cx="83.3" cy="16.7" r="8.1"/>
  <circle cx="91.7" cy="25" r="8.1"/>
  <circle cx="8.3" cy="41.7" r="8.1"/>
  <circle cx="41.7" cy="25" r="8.1"/>
  <circle cx="33.3" cy="16.7" r="8.1"/>
  <circle cx="91.7" cy="75.2" r="8.1"/>
  <circle cx="8.3" cy="25" r="8.1"/>
  <circle cx="58.3" cy="8.4" r="8.1"/>
  <circle cx="75" cy="8.4" r="8.1"/>
  <circle cx="91.7" cy="8.4" r="8.1"/>
  <circle cx="16.7" cy="16.7" r="8.1"/>
  <circle cx="8.3" cy="8.4" r="8.1"/>
  <path d="M33.6,0s0,0,0,0c0,4.5,3.6,8.1,8.1,8.1S49.8,4.5,49.8,0s0,0,0,0h-16.2Z"/>
  <path d="M66.9,0s0,0,0,0c0,4.5,3.6,8.1,8.1,8.1S83.1,4.5,83.1,0s0,0,0,0h-16.2Z"/>
  <path d="M49.8,100c0-4.5-3.6-8.1-8.1-8.1s-8.1,3.6-8.1,8.1h16.2Z"/>
  <path d="M83.1,100c0-4.5-3.6-8.1-8.1-8.1s-8.1,3.6-8.1,8.1h16.2Z"/>
</svg>