<?xml version="1.0" encoding="utf-8"?>
<!-- Generator: Adobe Illustrator 26.5.1, SVG Export Plug-In . SVG Version: 6.00 Build 0)  -->
<svg version="1.1" id="Ebene_1" xmlns="http://www.w3.org/2000/svg" xmlns:xlink="http://www.w3.org/1999/xlink" x="0px" y="0px"
	 viewBox="0 0 100 100" style="enable-background:new 0 0 100 100;" xml:space="preserve">
<path d="M100,75.5c-0.1,0-0.2,0-0.2-0.1l-100-50c-0.2-0.1-0.3-0.4-0.2-0.7s0.4-0.3,0.7-0.2l100,50c0.2,0.1,0.3,0.4,0.2,0.7
	C100.3,75.4,100.2,75.5,100,75.5z"/>
<path d="M83.4,100.5c-0.2,0-0.3-0.1-0.4-0.2L16.2,0.3c-0.2-0.2-0.1-0.5,0.1-0.7s0.5-0.1,0.7,0.1l66.7,100c0.2,0.2,0.1,0.5-0.1,0.7
	C83.6,100.5,83.5,100.5,83.4,100.5z"/>
<path d="M0,75.5c-0.2,0-0.4-0.1-0.4-0.3c-0.1-0.2,0-0.5,0.2-0.7l100-50c0.2-0.1,0.5,0,0.7,0.2c0.1,0.2,0,0.5-0.2,0.7l-100,50
	C0.2,75.5,0.1,75.5,0,75.5z"/>
<path d="M16.6,100.5c-0.1,0-0.2,0-0.3-0.1c-0.2-0.2-0.3-0.5-0.1-0.7L83-0.3c0.2-0.2,0.5-0.3,0.7-0.1c0.2,0.2,0.3,0.5,0.1,0.7
	L17,100.3C16.9,100.4,16.8,100.5,16.6,100.5z"/>
<path d="M50,100.5c-0.3,0-0.5-0.2-0.5-0.5V0c0-0.3,0.2-0.5,0.5-0.5s0.5,0.2,0.5,0.5v100C50.5,100.3,50.3,100.5,50,100.5z"/>
<path d="M50,38c-0.3,0-0.5-0.2-0.5-0.5v-25c0-0.3,0.2-0.5,0.5-0.5s0.5,0.2,0.5,0.5v25C50.5,37.8,50.3,38,50,38z"/>
<path d="M50,38c-0.3,0-0.5-0.2-0.5-0.5v-25c0-0.3,0.2-0.5,0.5-0.5s0.5,0.2,0.5,0.5v25C50.5,37.8,50.3,38,50,38z"/>
<path d="M50,88c-0.3,0-0.5-0.2-0.5-0.5v-25c0-0.3,0.2-0.5,0.5-0.5s0.5,0.2,0.5,0.5v25C50.5,87.8,50.3,88,50,88z"/>
<path d="M50,88c-0.3,0-0.5-0.2-0.5-0.5v-25c0-0.3,0.2-0.5,0.5-0.5s0.5,0.2,0.5,0.5v25C50.5,87.8,50.3,88,50,88z"/>
<path d="M58.3,25.5c-0.2,0-0.3-0.1-0.4-0.2l-16.7-25c-0.2-0.2-0.1-0.5,0.1-0.7c0.2-0.2,0.5-0.1,0.7,0.1l16.7,25
	c0.2,0.2,0.1,0.5-0.1,0.7C58.5,25.5,58.4,25.5,58.3,25.5z"/>
<path d="M58.3,75.5c-0.2,0-0.3-0.1-0.4-0.2l-16.6-25c-0.2-0.2-0.1-0.5,0.1-0.7c0.2-0.2,0.5-0.1,0.7,0.1l16.6,25
	c0.2,0.2,0.1,0.5-0.1,0.7C58.5,75.5,58.4,75.5,58.3,75.5z"/>
<path d="M41.7,25.5c-0.1,0-0.2,0-0.3-0.1c-0.2-0.2-0.3-0.5-0.1-0.7l16.7-25c0.2-0.2,0.5-0.3,0.7-0.1c0.2,0.2,0.3,0.5,0.1,0.7
	l-16.7,25C42,25.4,41.8,25.5,41.7,25.5z"/>
<path d="M41.7,75.5c-0.1,0-0.2,0-0.3-0.1c-0.2-0.2-0.3-0.5-0.1-0.7l16.7-25c0.2-0.2,0.5-0.3,0.7-0.1c0.2,0.2,0.3,0.5,0.1,0.7
	l-16.7,25C42,75.4,41.8,75.5,41.7,75.5z"/>
<path d="M58.3,50.5c-0.2,0-0.3-0.1-0.4-0.2l-16.7-25c-0.2-0.2-0.1-0.5,0.1-0.7c0.2-0.2,0.5-0.1,0.7,0.1l16.7,25
	c0.2,0.2,0.1,0.5-0.1,0.7C58.5,50.5,58.4,50.5,58.3,50.5z"/>
<path d="M41.7,50.5c-0.1,0-0.2,0-0.3-0.1c-0.2-0.2-0.3-0.5-0.1-0.7l16.6-25c0.2-0.2,0.5-0.3,0.7-0.1c0.2,0.2,0.3,0.5,0.1,0.7
	l-16.6,25C42,50.4,41.8,50.5,41.7,50.5z"/>
<path d="M41.7,100.5c-0.1,0-0.2,0-0.3-0.1c-0.2-0.2-0.3-0.5-0.1-0.7l16.7-25c0.2-0.2,0.5-0.3,0.7-0.1c0.2,0.2,0.3,0.5,0.1,0.7
	l-16.7,25C42,100.4,41.8,100.5,41.7,100.5z"/>
<path d="M58.3,100.5c-0.2,0-0.3-0.1-0.4-0.2l-16.7-25c-0.2-0.2-0.1-0.5,0.1-0.7c0.2-0.2,0.5-0.1,0.7,0.1l16.7,25
	c0.2,0.2,0.1,0.5-0.1,0.7C58.5,100.5,58.4,100.5,58.3,100.5z"/>
<g>
	<path d="M83.4,100.5c-0.2,0-0.3-0.1-0.4-0.2L49.6,50.4L-0.2,25.5c-0.1-0.1-0.2-0.2-0.3-0.3c0-0.1,0-0.3,0.1-0.4l16.6-25
		c0.1-0.1,0.2-0.2,0.4-0.2h0c0.2,0,0.3,0.1,0.4,0.2l33.3,49.9l49.9,24.9c0.1,0.1,0.2,0.2,0.3,0.3s0,0.3-0.1,0.4l-16.6,25
		C83.7,100.4,83.5,100.5,83.4,100.5C83.4,100.5,83.4,100.5,83.4,100.5z M51.5,51.3l31.9,47.8l15.9-23.9L51.5,51.3z M0.7,24.8
		l47.8,23.9L16.6,0.9L0.7,24.8z"/>
	<path d="M0,75.5c-0.2,0-0.4-0.1-0.4-0.3c-0.1-0.2,0-0.5,0.2-0.7l100-50c0.2-0.1,0.5,0,0.7,0.2c0.1,0.2,0,0.5-0.2,0.7l-100,50
		C0.2,75.5,0.1,75.5,0,75.5z"/>
	<path d="M16.6,100.5c-0.1,0-0.2,0-0.3-0.1c-0.2-0.2-0.3-0.5-0.1-0.7l66.7-100c0.2-0.2,0.5-0.3,0.7-0.1c0.2,0.2,0.3,0.5,0.1,0.7
		L17,100.3C16.9,100.4,16.8,100.5,16.6,100.5z"/>
	<path d="M100,25.5c-0.1,0-0.2,0-0.2-0.1L50,0.6L0.2,25.5c-0.2,0.1-0.5,0-0.7-0.2c-0.1-0.2,0-0.5,0.2-0.7l50-25
		c0.1-0.1,0.3-0.1,0.4,0l50,25c0.2,0.1,0.3,0.4,0.2,0.7C100.3,25.4,100.2,25.5,100,25.5z"/>
	<path d="M50,100.5c-0.1,0-0.2,0-0.2-0.1l-50-25c-0.2-0.1-0.3-0.4-0.2-0.7c0.1-0.2,0.4-0.3,0.7-0.2L50,99.4l49.8-24.9
		c0.2-0.1,0.5,0,0.7,0.2c0.1,0.2,0,0.5-0.2,0.7l-50,25C50.1,100.5,50.1,100.5,50,100.5z"/>
	<path d="M100,25.5c-0.2,0-0.3-0.1-0.4-0.2l-16.6-25c-0.2-0.2-0.1-0.5,0.1-0.7c0.2-0.2,0.5-0.1,0.7,0.1l16.6,25
		c0.2,0.2,0.1,0.5-0.1,0.7C100.2,25.5,100.1,25.5,100,25.5z"/>
	<path d="M16.6,100.5c-0.2,0-0.3-0.1-0.4-0.2l-16.6-25c-0.2-0.2-0.1-0.5,0.1-0.7c0.2-0.2,0.5-0.1,0.7,0.1l16.6,25
		c0.2,0.2,0.1,0.5-0.1,0.7C16.8,100.5,16.7,100.5,16.6,100.5z"/>
	<path d="M50,100.5c-0.3,0-0.5-0.2-0.5-0.5V0c0-0.3,0.2-0.5,0.5-0.5s0.5,0.2,0.5,0.5v100C50.5,100.3,50.3,100.5,50,100.5z"/>
	<path d="M16.7,50.5H0c-0.3,0-0.5-0.2-0.5-0.5s0.2-0.5,0.5-0.5h16.7c0.3,0,0.5,0.2,0.5,0.5S16.9,50.5,16.7,50.5z"/>
	<path d="M100,50.5H83.3c-0.3,0-0.5-0.2-0.5-0.5s0.2-0.5,0.5-0.5H100c0.3,0,0.5,0.2,0.5,0.5S100.3,50.5,100,50.5z"/>
	<path d="M75,38c-0.3,0-0.5-0.2-0.5-0.5v-25c0-0.3,0.2-0.5,0.5-0.5s0.5,0.2,0.5,0.5v25C75.5,37.8,75.3,38,75,38z"/>
	<path d="M25,38c-0.3,0-0.5-0.2-0.5-0.5v-25c0-0.3,0.2-0.5,0.5-0.5s0.5,0.2,0.5,0.5v25C25.5,37.8,25.3,38,25,38z"/>
	<path d="M75,88c-0.3,0-0.5-0.2-0.5-0.5v-25c0-0.3,0.2-0.5,0.5-0.5s0.5,0.2,0.5,0.5v25C75.5,87.8,75.3,88,75,88z"/>
	<path d="M25,88c-0.3,0-0.5-0.2-0.5-0.5v-25c0-0.3,0.2-0.5,0.5-0.5s0.5,0.2,0.5,0.5v25C25.5,87.8,25.3,88,25,88z"/>
	<path d="M66.7,25.5c-0.2,0-0.3-0.1-0.4-0.2l-16.7-25c-0.2-0.2-0.1-0.5,0.1-0.7c0.2-0.2,0.5-0.1,0.7,0.1l16.7,25
		c0.2,0.2,0.1,0.5-0.1,0.7C66.9,25.5,66.8,25.5,66.7,25.5z"/>
	<path d="M100,75.5c-0.2,0-0.3-0.1-0.4-0.2l-16.6-25c-0.2-0.2-0.1-0.5,0.1-0.7c0.2-0.2,0.5-0.1,0.7,0.1l16.6,25
		c0.2,0.2,0.1,0.5-0.1,0.7C100.2,75.5,100.1,75.5,100,75.5z"/>
	<path d="M33.3,25.5c-0.1,0-0.2,0-0.3-0.1c-0.2-0.2-0.3-0.5-0.1-0.7l16.7-25c0.2-0.2,0.5-0.3,0.7-0.1c0.2,0.2,0.3,0.5,0.1,0.7
		l-16.7,25C33.6,25.4,33.5,25.5,33.3,25.5z"/>
	<path d="M0,75.5c-0.1,0-0.2,0-0.3-0.1c-0.2-0.2-0.3-0.5-0.1-0.7l16.7-25c0.2-0.2,0.5-0.3,0.7-0.1c0.2,0.2,0.3,0.5,0.1,0.7l-16.7,25
		C0.3,75.4,0.2,75.5,0,75.5z"/>
	<path d="M16.7,50.5c-0.2,0-0.3-0.1-0.4-0.2l-16.7-25c-0.2-0.2-0.1-0.5,0.1-0.7c0.2-0.2,0.5-0.1,0.7,0.1l16.7,25
		c0.2,0.2,0.1,0.5-0.1,0.7C16.9,50.5,16.8,50.5,16.7,50.5z"/>
	<path d="M83.3,50.5c-0.1,0-0.2,0-0.3-0.1c-0.2-0.2-0.3-0.5-0.1-0.7l16.6-25c0.2-0.2,0.5-0.3,0.7-0.1c0.2,0.2,0.3,0.5,0.1,0.7
		l-16.6,25C83.7,50.4,83.5,50.5,83.3,50.5z"/>
	<path d="M50,100.5c-0.1,0-0.2,0-0.3-0.1c-0.2-0.2-0.3-0.5-0.1-0.7l16.7-25c0.2-0.2,0.5-0.3,0.7-0.1c0.2,0.2,0.3,0.5,0.1,0.7
		l-16.7,25C50.3,100.4,50.1,100.5,50,100.5z"/>
	<path d="M50,100.5c-0.2,0-0.3-0.1-0.4-0.2l-16.7-25c-0.2-0.2-0.1-0.5,0.1-0.7c0.2-0.2,0.5-0.1,0.7,0.1l16.7,25
		c0.2,0.2,0.1,0.5-0.1,0.7C50.2,100.5,50.1,100.5,50,100.5z"/>
</g>
<g>
	<path d="M83.4,100.5c-0.2,0-0.3-0.1-0.4-0.2L49.7,50.4L-0.2,25.4c-0.1-0.1-0.2-0.2-0.3-0.3c0-0.1,0-0.3,0.1-0.4l16.6-25
		c0.1-0.1,0.2-0.2,0.4-0.2h0c0.2,0,0.3,0.1,0.4,0.2l33.3,49.9l49.9,24.9c0.1,0.1,0.2,0.2,0.3,0.3s0,0.3-0.1,0.4l-16.6,25
		C83.7,100.4,83.5,100.5,83.4,100.5L83.4,100.5z M51.5,51.3l31.9,47.8l15.9-23.9L51.5,51.3z M0.7,24.8l47.8,23.9L16.6,0.9L0.7,24.8z
		"/>
	<path d="M0,75.5c-0.2,0-0.4-0.1-0.4-0.3c-0.1-0.2,0-0.5,0.2-0.7l100-50c0.2-0.1,0.5,0,0.7,0.2c0.1,0.2,0,0.5-0.2,0.7l-100,50
		C0.2,75.5,0.1,75.5,0,75.5z"/>
	<path d="M16.6,100.5c-0.1,0-0.2,0-0.3-0.1c-0.2-0.2-0.3-0.5-0.1-0.7L83-0.3c0.2-0.2,0.5-0.3,0.7-0.1c0.2,0.2,0.3,0.5,0.1,0.7
		L17,100.3C16.9,100.4,16.8,100.5,16.6,100.5z"/>
	<path d="M50,100.5c-0.2,0-0.3-0.1-0.4-0.2l-50-75c-0.1-0.1-0.1-0.3-0.1-0.4c0-0.1,0.1-0.3,0.3-0.3l50-25c0.1-0.1,0.3-0.1,0.4,0
		l50,25c0.1,0.1,0.2,0.2,0.3,0.3s0,0.3-0.1,0.4l-50,75C50.3,100.4,50.2,100.5,50,100.5z M0.7,25.2L50,99.1l49.3-73.9L50,0.6
		L0.7,25.2z"/>
	<path d="M50,100.5c-0.1,0-0.2,0-0.2-0.1l-50-25c-0.1-0.1-0.2-0.2-0.3-0.3c0-0.1,0-0.3,0.1-0.4l50-75c0.2-0.3,0.6-0.3,0.8,0l50,75
		c0.1,0.1,0.1,0.3,0.1,0.4s-0.1,0.3-0.3,0.3l-50,25C50.2,100.5,50.1,100.5,50,100.5z M0.7,74.8L50,99.4l49.3-24.6L50,0.9L0.7,74.8z"
		/>
	<path d="M100,25.5c-0.2,0-0.3-0.1-0.4-0.2L83,0.3c-0.2-0.2-0.1-0.5,0.1-0.7c0.2-0.2,0.5-0.1,0.7,0.1l16.6,25
		c0.2,0.2,0.1,0.5-0.1,0.7C100.2,25.5,100.1,25.5,100,25.5z"/>
	<path d="M16.6,100.5c-0.2,0-0.3-0.1-0.4-0.2l-16.6-25c-0.2-0.2-0.1-0.5,0.1-0.7c0.2-0.2,0.5-0.1,0.7,0.1l16.6,25
		c0.2,0.2,0.1,0.5-0.1,0.7C16.8,100.5,16.7,100.5,16.6,100.5z"/>
</g>
<g>
	<path d="M83.4,100.5c-0.2,0-0.3-0.1-0.4-0.2L49.7,50.4L-0.2,25.4c-0.1-0.1-0.2-0.2-0.3-0.3c0-0.1,0-0.3,0.1-0.4l16.6-25
		c0.1-0.1,0.2-0.2,0.4-0.2h0c0.2,0,0.3,0.1,0.4,0.2l33.3,49.9l49.9,24.9c0.1,0.1,0.2,0.2,0.3,0.3s0,0.3-0.1,0.4l-16.6,25
		C83.7,100.4,83.5,100.5,83.4,100.5L83.4,100.5z M51.5,51.3l31.9,47.8l15.9-23.9L51.5,51.3z M0.7,24.8l47.8,23.9L16.6,0.9L0.7,24.8z
		"/>
	<path d="M0,75.5c-0.2,0-0.4-0.1-0.4-0.3c-0.1-0.2,0-0.5,0.2-0.7l100-50c0.2-0.1,0.5,0,0.7,0.2c0.1,0.2,0,0.5-0.2,0.7l-100,50
		C0.2,75.5,0.1,75.5,0,75.5z"/>
	<path d="M16.6,100.5c-0.1,0-0.2,0-0.3-0.1c-0.2-0.2-0.3-0.5-0.1-0.7L83-0.3c0.2-0.2,0.5-0.3,0.7-0.1c0.2,0.2,0.3,0.5,0.1,0.7
		L17,100.3C16.9,100.4,16.8,100.5,16.6,100.5z"/>
	<path d="M50,100.5c-0.2,0-0.3-0.1-0.4-0.2l-50-75c-0.1-0.1-0.1-0.3-0.1-0.4c0-0.1,0.1-0.3,0.3-0.3l50-25c0.1-0.1,0.3-0.1,0.4,0
		l50,25c0.1,0.1,0.2,0.2,0.3,0.3s0,0.3-0.1,0.4l-50,75C50.3,100.4,50.2,100.5,50,100.5z M0.7,25.2L50,99.1l49.3-73.9L50,0.6
		L0.7,25.2z"/>
	<path d="M50,100.5c-0.1,0-0.2,0-0.2-0.1l-50-25c-0.1-0.1-0.2-0.2-0.3-0.3c0-0.1,0-0.3,0.1-0.4l50-75c0.2-0.3,0.6-0.3,0.8,0l50,75
		c0.1,0.1,0.1,0.3,0.1,0.4s-0.1,0.3-0.3,0.3l-50,25C50.2,100.5,50.1,100.5,50,100.5z M0.7,74.8L50,99.4l49.3-24.6L50,0.9L0.7,74.8z"
		/>
	<path d="M100,25.5c-0.2,0-0.3-0.1-0.4-0.2L83,0.3c-0.2-0.2-0.1-0.5,0.1-0.7c0.2-0.2,0.5-0.1,0.7,0.1l16.6,25
		c0.2,0.2,0.1,0.5-0.1,0.7C100.2,25.5,100.1,25.5,100,25.5z"/>
	<path d="M16.6,100.5c-0.2,0-0.3-0.1-0.4-0.2l-16.6-25c-0.2-0.2-0.1-0.5,0.1-0.7c0.2-0.2,0.5-0.1,0.7,0.1l16.6,25
		c0.2,0.2,0.1,0.5-0.1,0.7C16.8,100.5,16.7,100.5,16.6,100.5z"/>
	<path d="M50,100.5c-0.3,0-0.5-0.2-0.5-0.5V0c0-0.3,0.2-0.5,0.5-0.5s0.5,0.2,0.5,0.5v100C50.5,100.3,50.3,100.5,50,100.5z"/>
	<path d="M83.3,50.5H16.7c-0.3,0-0.5-0.2-0.5-0.5s0.2-0.5,0.5-0.5h66.7c0.3,0,0.5,0.2,0.5,0.5S83.6,50.5,83.3,50.5z"/>
</g>
<g>
	<path d="M83.4,100.5c-0.2,0-0.3-0.1-0.4-0.2L49.7,50.4L-0.2,25.4c-0.1-0.1-0.2-0.2-0.3-0.3c0-0.1,0-0.3,0.1-0.4l16.6-25
		c0.1-0.1,0.2-0.2,0.4-0.2h0c0.2,0,0.3,0.1,0.4,0.2l33.3,49.9l49.9,24.9c0.1,0.1,0.2,0.2,0.3,0.3s0,0.3-0.1,0.4l-16.6,25
		C83.7,100.4,83.5,100.5,83.4,100.5L83.4,100.5z M51.5,51.3l31.9,47.8l15.9-23.9L51.5,51.3z M0.7,24.8l47.8,23.9L16.6,0.9L0.7,24.8z
		"/>
	<path d="M0,75.5c-0.2,0-0.4-0.1-0.4-0.3c-0.1-0.2,0-0.5,0.2-0.7l100-50c0.2-0.1,0.5,0,0.7,0.2c0.1,0.2,0,0.5-0.2,0.7l-100,50
		C0.2,75.5,0.1,75.5,0,75.5z"/>
	<path d="M16.6,100.5c-0.1,0-0.2,0-0.3-0.1c-0.2-0.2-0.3-0.5-0.1-0.7L83-0.3c0.2-0.2,0.5-0.3,0.7-0.1c0.2,0.2,0.3,0.5,0.1,0.7
		L17,100.3C16.9,100.4,16.8,100.5,16.6,100.5z"/>
	<path d="M50,100.5c-0.2,0-0.3-0.1-0.4-0.2l-50-75c-0.1-0.1-0.1-0.3-0.1-0.4c0-0.1,0.1-0.3,0.3-0.3l50-25c0.1-0.1,0.3-0.1,0.4,0
		l50,25c0.1,0.1,0.2,0.2,0.3,0.3s0,0.3-0.1,0.4l-50,75C50.3,100.4,50.2,100.5,50,100.5z M0.7,25.2L50,99.1l49.3-73.9L50,0.6
		L0.7,25.2z"/>
	<path d="M50,100.5c-0.1,0-0.2,0-0.2-0.1l-50-25c-0.1-0.1-0.2-0.2-0.3-0.3c0-0.1,0-0.3,0.1-0.4l50-75c0.2-0.3,0.6-0.3,0.8,0l50,75
		c0.1,0.1,0.1,0.3,0.1,0.4s-0.1,0.3-0.3,0.3l-50,25C50.2,100.5,50.1,100.5,50,100.5z M0.7,74.8L50,99.4l49.3-24.6L50,0.9L0.7,74.8z"
		/>
	<path d="M100,25.5c-0.2,0-0.3-0.1-0.4-0.2L83,0.3c-0.2-0.2-0.1-0.5,0.1-0.7c0.2-0.2,0.5-0.1,0.7,0.1l16.6,25
		c0.2,0.2,0.1,0.5-0.1,0.7C100.2,25.5,100.1,25.5,100,25.5z"/>
	<path d="M16.6,100.5c-0.2,0-0.3-0.1-0.4-0.2l-16.6-25c-0.2-0.2-0.1-0.5,0.1-0.7c0.2-0.2,0.5-0.1,0.7,0.1l16.6,25
		c0.2,0.2,0.1,0.5-0.1,0.7C16.8,100.5,16.7,100.5,16.6,100.5z"/>
	<path d="M50,100.5c-0.3,0-0.5-0.2-0.5-0.5V0c0-0.3,0.2-0.5,0.5-0.5s0.5,0.2,0.5,0.5v100C50.5,100.3,50.3,100.5,50,100.5z"/>
	<path d="M100,50.5H0c-0.3,0-0.5-0.2-0.5-0.5s0.2-0.5,0.5-0.5h100c0.3,0,0.5,0.2,0.5,0.5S100.3,50.5,100,50.5z"/>
</g>
<g>
	<path d="M75,38c-0.3,0-0.5-0.2-0.5-0.5v-25c0-0.3,0.2-0.5,0.5-0.5s0.5,0.2,0.5,0.5v25C75.5,37.8,75.3,38,75,38z"/>
	<path d="M25,38c-0.3,0-0.5-0.2-0.5-0.5v-25c0-0.3,0.2-0.5,0.5-0.5s0.5,0.2,0.5,0.5v25C25.5,37.8,25.3,38,25,38z"/>
	<path d="M50,63c-0.3,0-0.5-0.2-0.5-0.5v-25c0-0.3,0.2-0.5,0.5-0.5s0.5,0.2,0.5,0.5v25C50.5,62.8,50.3,63,50,63z"/>
	<path d="M75,88c-0.3,0-0.5-0.2-0.5-0.5v-25c0-0.3,0.2-0.5,0.5-0.5s0.5,0.2,0.5,0.5v25C75.5,87.8,75.3,88,75,88z"/>
	<path d="M25,88c-0.3,0-0.5-0.2-0.5-0.5v-25c0-0.3,0.2-0.5,0.5-0.5s0.5,0.2,0.5,0.5v25C25.5,87.8,25.3,88,25,88z"/>
	<path d="M66.7,25.5c-0.2,0-0.3-0.1-0.4-0.2l-16.7-25c-0.2-0.2-0.1-0.5,0.1-0.7c0.2-0.2,0.5-0.1,0.7,0.1l16.7,25
		c0.2,0.2,0.1,0.5-0.1,0.7C66.9,25.5,66.8,25.5,66.7,25.5z"/>
	<path d="M91.6,63c-0.2,0-0.3-0.1-0.4-0.2l-8.3-12.5c-0.2-0.2-0.1-0.5,0.1-0.7c0.2-0.2,0.5-0.1,0.7,0.1l8.3,12.5
		c0.2,0.2,0.1,0.5-0.1,0.7C91.8,63,91.7,63,91.6,63z"/>
	<path d="M33.3,25.5c-0.1,0-0.2,0-0.3-0.1c-0.2-0.2-0.3-0.5-0.1-0.7l16.7-25c0.2-0.2,0.5-0.3,0.7-0.1c0.2,0.2,0.3,0.5,0.1,0.7
		l-16.7,25C33.6,25.4,33.5,25.5,33.3,25.5z"/>
	<path d="M8.3,63c-0.1,0-0.2,0-0.3-0.1c-0.2-0.2-0.3-0.5-0.1-0.7l8.3-12.5c0.2-0.2,0.5-0.3,0.7-0.1s0.3,0.5,0.1,0.7L8.7,62.8
		C8.6,62.9,8.5,63,8.3,63z"/>
	<path d="M16.7,50.5c-0.2,0-0.3-0.1-0.4-0.2L7.9,37.8c-0.2-0.2-0.1-0.5,0.1-0.7c0.2-0.2,0.5-0.1,0.7,0.1l8.3,12.5
		c0.2,0.2,0.1,0.5-0.1,0.7C16.9,50.5,16.8,50.5,16.7,50.5z"/>
	<path d="M83.3,50.5c-0.1,0-0.2,0-0.3-0.1c-0.2-0.2-0.3-0.5-0.1-0.7l8.3-12.5c0.2-0.2,0.5-0.3,0.7-0.1c0.2,0.2,0.3,0.5,0.1,0.7
		l-8.3,12.5C83.7,50.4,83.5,50.5,83.3,50.5z"/>
	<path d="M50,100.5c-0.1,0-0.2,0-0.3-0.1c-0.2-0.2-0.3-0.5-0.1-0.7l16.7-25c0.2-0.2,0.5-0.3,0.7-0.1c0.2,0.2,0.3,0.5,0.1,0.7
		l-16.7,25C50.3,100.4,50.1,100.5,50,100.5z"/>
	<path d="M50,100.5c-0.2,0-0.3-0.1-0.4-0.2l-16.7-25c-0.2-0.2-0.1-0.5,0.1-0.7c0.2-0.2,0.5-0.1,0.7,0.1l16.7,25
		c0.2,0.2,0.1,0.5-0.1,0.7C50.2,100.5,50.1,100.5,50,100.5z"/>
	<path d="M0,25.5c-0.3,0-0.5-0.2-0.5-0.5V0c0-0.3,0.2-0.5,0.5-0.5S0.5-0.3,0.5,0v25C0.5,25.3,0.3,25.5,0,25.5z"/>
	<path d="M100,100.5c-0.3,0-0.5-0.2-0.5-0.5V75c0-0.3,0.2-0.5,0.5-0.5s0.5,0.2,0.5,0.5v25C100.5,100.3,100.3,100.5,100,100.5z"/>
</g>
<circle cx="91.7" cy="12.5" r="3"/>
<circle cx="87.5" cy="12.5" r="3"/>
<circle cx="66.7" cy="6.3" r="3"/>
<circle cx="62.5" cy="12.5" r="3"/>
<circle cx="83.4" cy="25" r="3"/>
<circle cx="87.5" cy="37.5" r="3"/>
<circle cx="91.7" cy="37.5" r="3"/>
<circle cx="66.7" cy="43.7" r="3"/>
<circle cx="62.5" cy="37.5" r="3"/>
<circle cx="58.3" cy="25" r="3"/>
<circle cx="8.3" cy="37.5" r="3"/>
<circle cx="12.5" cy="37.5" r="3"/>
<circle cx="33.3" cy="43.7" r="3"/>
<circle cx="37.5" cy="37.5" r="3"/>
<circle cx="16.6" cy="25" r="3"/>
<circle cx="12.5" cy="12.5" r="3"/>
<circle cx="8.3" cy="12.5" r="3"/>
<circle cx="33.3" cy="6.3" r="3"/>
<circle cx="37.5" cy="12.5" r="3"/>
<circle cx="41.7" cy="25" r="3"/>
<circle cx="91.7" cy="62.5" r="3"/>
<circle cx="87.5" cy="62.5" r="3"/>
<circle cx="66.7" cy="56.3" r="3"/>
<circle cx="62.5" cy="62.5" r="3"/>
<circle cx="83.4" cy="75" r="3"/>
<circle cx="87.5" cy="87.5" r="3"/>
<circle cx="91.7" cy="87.5" r="3"/>
<circle cx="66.7" cy="93.7" r="3"/>
<circle cx="62.5" cy="87.5" r="3"/>
<circle cx="58.3" cy="75" r="3"/>
<circle cx="8.3" cy="87.5" r="3"/>
<circle cx="12.5" cy="87.5" r="3"/>
<circle cx="33.3" cy="93.7" r="3"/>
<circle cx="37.5" cy="87.5" r="3"/>
<circle cx="16.6" cy="75" r="3"/>
<circle cx="12.5" cy="62.5" r="3"/>
<circle cx="8.3" cy="62.5" r="3"/>
<circle cx="33.3" cy="56.3" r="3"/>
<circle cx="37.5" cy="62.5" r="3"/>
<circle cx="41.7" cy="75" r="3"/>
</svg>
