<?xml version="1.0" encoding="utf-8"?>
<!-- Generator: Adobe Illustrator 26.5.1, SVG Export Plug-In . SVG Version: 6.00 Build 0)  -->
<svg version="1.1" id="Ebene_1" xmlns="http://www.w3.org/2000/svg" xmlns:xlink="http://www.w3.org/1999/xlink" x="0px" y="0px"
	 viewBox="0 0 100 100" style="enable-background:new 0 0 100 100;" xml:space="preserve">
<g>
	<circle cx="91.7" cy="12.5" r="6"/>
	<circle cx="87.5" cy="12.5" r="6"/>
	<circle cx="66.7" cy="6.3" r="6"/>
	<circle cx="62.5" cy="12.5" r="6"/>
	<circle cx="83.4" cy="25" r="6"/>
	<circle cx="87.5" cy="37.5" r="6"/>
	<circle cx="91.7" cy="37.5" r="6"/>
	<circle cx="66.7" cy="43.7" r="6"/>
	<circle cx="62.5" cy="37.5" r="6"/>
	<circle cx="58.3" cy="25" r="6"/>
	<circle cx="8.3" cy="37.5" r="6"/>
	<circle cx="12.5" cy="37.5" r="6"/>
	<circle cx="33.3" cy="43.7" r="6"/>
	<circle cx="37.5" cy="37.5" r="6"/>
	<circle cx="16.6" cy="25" r="6"/>
	<circle cx="12.5" cy="12.5" r="6"/>
	<circle cx="8.3" cy="12.5" r="6"/>
	<circle cx="33.3" cy="6.3" r="6"/>
	<circle cx="37.5" cy="12.5" r="6"/>
	<circle cx="41.7" cy="25" r="6"/>
	<circle cx="91.7" cy="62.5" r="6"/>
	<circle cx="87.5" cy="62.5" r="6"/>
	<circle cx="66.7" cy="56.3" r="6"/>
	<circle cx="62.5" cy="62.5" r="6"/>
	<circle cx="83.4" cy="75" r="6"/>
	<circle cx="87.5" cy="87.5" r="6"/>
	<circle cx="91.7" cy="87.5" r="6"/>
	<circle cx="66.7" cy="93.7" r="6"/>
	<circle cx="62.5" cy="87.5" r="6"/>
	<circle cx="58.3" cy="75" r="6"/>
	<circle cx="8.3" cy="87.5" r="6"/>
	<circle cx="12.5" cy="87.5" r="6"/>
	<circle cx="33.3" cy="93.7" r="6"/>
	<circle cx="37.5" cy="87.5" r="6"/>
	<circle cx="16.6" cy="75" r="6"/>
	<circle cx="12.5" cy="62.5" r="6"/>
	<circle cx="8.3" cy="62.5" r="6"/>
	<circle cx="33.3" cy="56.3" r="6"/>
	<circle cx="37.5" cy="62.5" r="6"/>
	<circle cx="41.7" cy="75" r="6"/>
</g>
</svg>
