<?xml version="1.0" encoding="utf-8"?>
<!-- Generator: Adobe Illustrator 26.5.1, SVG Export Plug-In . SVG Version: 6.00 Build 0)  -->
<svg version="1.1" id="Ebene_1" xmlns="http://www.w3.org/2000/svg" xmlns:xlink="http://www.w3.org/1999/xlink" x="0px" y="0px"
	 viewBox="0 0 100 100" style="enable-background:new 0 0 100 100;" xml:space="preserve">
<g>
	<g>
		<path d="M16.7,100.5c-0.1,0-0.2,0-0.3-0.1c-0.2-0.2-0.3-0.5-0.1-0.7l66.7-100c0.2-0.2,0.5-0.3,0.7-0.1c0.2,0.2,0.3,0.5,0.1,0.7
			l-66.7,100C17,100.4,16.8,100.5,16.7,100.5z"/>
		<path d="M100,75.5c-0.1,0-0.2,0-0.2-0.1l-100-50c-0.2-0.1-0.3-0.4-0.2-0.7s0.4-0.3,0.7-0.2l100,50c0.2,0.1,0.3,0.4,0.2,0.7
			C100.4,75.4,100.2,75.5,100,75.5z"/>
		<path d="M0,75.5c-0.2,0-0.4-0.1-0.4-0.3c-0.1-0.2,0-0.5,0.2-0.7l100-50c0.2-0.1,0.5,0,0.7,0.2c0.1,0.2,0,0.5-0.2,0.7l-100,50
			C0.2,75.5,0.1,75.5,0,75.5z"/>
		<g>
			<path d="M16.7,100.5c-0.1,0-0.2,0-0.3-0.1c-0.2-0.2-0.3-0.5-0.1-0.7l66.7-100c0.2-0.2,0.5-0.3,0.7-0.1c0.2,0.2,0.3,0.5,0.1,0.7
				l-66.7,100C17,100.4,16.8,100.5,16.7,100.5z"/>
			<path d="M0,75.5c-0.1,0-0.2,0-0.3-0.1c-0.2-0.2-0.3-0.5-0.1-0.7l50-75c0.2-0.2,0.5-0.3,0.7-0.1c0.2,0.2,0.3,0.5,0.1,0.7l-50,75
				C0.3,75.4,0.2,75.5,0,75.5z"/>
			<path d="M0,25.5c-0.1,0-0.2,0-0.3-0.1c-0.2-0.2-0.3-0.5-0.1-0.7l16.7-25c0.2-0.2,0.5-0.3,0.7-0.1c0.2,0.2,0.3,0.5,0.1,0.7
				l-16.7,25C0.3,25.4,0.2,25.5,0,25.5z"/>
			<path d="M50,100.5c-0.1,0-0.2,0-0.3-0.1c-0.2-0.2-0.3-0.5-0.1-0.7l50-75c0.2-0.2,0.5-0.3,0.7-0.1c0.2,0.2,0.3,0.5,0.1,0.7l-50,75
				C50.3,100.4,50.2,100.5,50,100.5z"/>
			<path d="M83.3,100.5c-0.1,0-0.2,0-0.3-0.1c-0.2-0.2-0.3-0.5-0.1-0.7l16.7-25c0.2-0.2,0.5-0.3,0.7-0.1c0.2,0.2,0.3,0.5,0.1,0.7
				l-16.7,25C83.7,100.4,83.5,100.5,83.3,100.5z"/>
		</g>
		<g>
			<path d="M83.3,100.5c-0.2,0-0.3-0.1-0.4-0.2L16.3,0.3c-0.2-0.2-0.1-0.5,0.1-0.7s0.5-0.1,0.7,0.1l66.7,100
				c0.2,0.2,0.1,0.5-0.1,0.7C83.5,100.5,83.4,100.5,83.3,100.5z"/>
			<path d="M100,75.5c-0.2,0-0.3-0.1-0.4-0.2l-50-75c-0.2-0.2-0.1-0.5,0.1-0.7s0.5-0.1,0.7,0.1l50,75c0.2,0.2,0.1,0.5-0.1,0.7
				C100.2,75.5,100.1,75.5,100,75.5z"/>
			<path d="M100,25.5c-0.2,0-0.3-0.1-0.4-0.2l-16.7-25c-0.2-0.2-0.1-0.5,0.1-0.7c0.2-0.2,0.5-0.1,0.7,0.1l16.7,25
				c0.2,0.2,0.1,0.5-0.1,0.7C100.2,25.5,100.1,25.5,100,25.5z"/>
			<path d="M50,100.5c-0.2,0-0.3-0.1-0.4-0.2l-50-75c-0.2-0.2-0.1-0.5,0.1-0.7s0.5-0.1,0.7,0.1l50,75c0.2,0.2,0.1,0.5-0.1,0.7
				C50.2,100.5,50.1,100.5,50,100.5z"/>
			<path d="M16.7,100.5c-0.2,0-0.3-0.1-0.4-0.2l-16.7-25c-0.2-0.2-0.1-0.5,0.1-0.7s0.5-0.1,0.7,0.1l16.7,25c0.2,0.2,0.1,0.5-0.1,0.7
				C16.9,100.5,16.8,100.5,16.7,100.5z"/>
		</g>
		<path d="M100,25.5c-0.1,0-0.2,0-0.2-0.1l-50-25c-0.2-0.1-0.3-0.4-0.2-0.7s0.4-0.3,0.7-0.2l50,25c0.2,0.1,0.3,0.4,0.2,0.7
			C100.4,25.4,100.2,25.5,100,25.5z"/>
		<path d="M50,100.5c-0.1,0-0.2,0-0.2-0.1l-50-25c-0.2-0.1-0.3-0.4-0.2-0.7c0.1-0.2,0.4-0.3,0.7-0.2l50,25c0.2,0.1,0.3,0.4,0.2,0.7
			C50.4,100.4,50.2,100.5,50,100.5z"/>
		<path d="M0,25.5c-0.2,0-0.4-0.1-0.4-0.3c-0.1-0.2,0-0.5,0.2-0.7l50-25c0.2-0.1,0.5,0,0.7,0.2c0.1,0.2,0,0.5-0.2,0.7l-50,25
			C0.2,25.5,0.1,25.5,0,25.5z"/>
		<path d="M50,100.5c-0.2,0-0.4-0.1-0.4-0.3c-0.1-0.2,0-0.5,0.2-0.7l50-25c0.2-0.1,0.5,0,0.7,0.2c0.1,0.2,0,0.5-0.2,0.7l-50,25
			C50.2,100.5,50.1,100.5,50,100.5z"/>
		<path d="M50,100.5c-0.3,0-0.5-0.2-0.5-0.5V0c0-0.3,0.2-0.5,0.5-0.5s0.5,0.2,0.5,0.5v100C50.5,100.3,50.3,100.5,50,100.5z"/>
		<path d="M100,50.5H0c-0.3,0-0.5-0.2-0.5-0.5s0.2-0.5,0.5-0.5h100c0.3,0,0.5,0.2,0.5,0.5S100.3,50.5,100,50.5z"/>
	</g>
	<polygon points="99.6,75 50,100 0,75 50,50 	"/>
	<polygon points="99.6,25 50,50 0,25 50,0 	"/>
	<polygon points="0,25 50,50 0,75 16.7,50 	"/>
</g>
</svg>
