<?xml version="1.0" encoding="utf-8"?>
<!-- Generator: Adobe Illustrator 26.5.1, SVG Export Plug-In . SVG Version: 6.00 Build 0)  -->
<svg version="1.1" id="Ebene_1" xmlns="http://www.w3.org/2000/svg" xmlns:xlink="http://www.w3.org/1999/xlink" x="0px" y="0px"
	 viewBox="0 0 100 100" style="enable-background:new 0 0 100 100;" xml:space="preserve">
<g>
	<g>
		<path d="M16.7,100.5c-0.1,0-0.2,0-0.3-0.1c-0.2-0.2-0.3-0.5-0.1-0.7l33.3-50c0.2-0.2,0.5-0.3,0.7-0.1c0.2,0.2,0.3,0.5,0.1,0.7
			l-33.3,50C17,100.4,16.8,100.5,16.7,100.5z"/>
		<path d="M49.9,50.5c-0.1,0-0.2,0-0.2-0.1l-49.9-25c-0.2-0.1-0.3-0.4-0.2-0.7c0.1-0.2,0.4-0.3,0.7-0.2l49.9,25
			c0.2,0.1,0.3,0.4,0.2,0.7C50.3,50.4,50.1,50.5,49.9,50.5z"/>
		<path d="M0,75.5c-0.2,0-0.4-0.1-0.4-0.3c-0.1-0.2,0-0.5,0.2-0.7l49.9-25c0.2-0.1,0.5,0,0.7,0.2c0.1,0.2,0,0.5-0.2,0.7l-49.9,25
			C0.2,75.5,0.1,75.5,0,75.5z"/>
		<g>
			<path d="M16.7,100.5c-0.1,0-0.2,0-0.3-0.1c-0.2-0.2-0.3-0.5-0.1-0.7l33.3-50c0.2-0.2,0.5-0.3,0.7-0.1c0.2,0.2,0.3,0.5,0.1,0.7
				l-33.3,50C17,100.4,16.8,100.5,16.7,100.5z"/>
			<path d="M0,75.5c-0.1,0-0.2,0-0.3-0.1c-0.2-0.2-0.3-0.5-0.1-0.7l50-75c0.2-0.2,0.5-0.3,0.7-0.1c0.2,0.2,0.3,0.5,0.1,0.7l-50,75
				C0.3,75.4,0.2,75.5,0,75.5z"/>
			<path d="M0,25.5c-0.1,0-0.2,0-0.3-0.1c-0.2-0.2-0.3-0.5-0.1-0.7l16.7-25c0.2-0.2,0.5-0.3,0.7-0.1c0.2,0.2,0.3,0.5,0.1,0.7
				l-16.7,25C0.3,25.4,0.2,25.5,0,25.5z"/>
			<path d="M50,100.5c-0.1,0-0.2,0-0.3-0.1c-0.2-0.2-0.3-0.5-0.1-0.7l33.3-50c0.2-0.2,0.5-0.3,0.7-0.1c0.2,0.2,0.3,0.5,0.1,0.7
				l-33.3,50C50.3,100.4,50.2,100.5,50,100.5z"/>
		</g>
		<g>
			<path d="M49.9,50.5c-0.2,0-0.3-0.1-0.4-0.2l-33.3-50c-0.2-0.2-0.1-0.5,0.1-0.7c0.2-0.2,0.5-0.1,0.7,0.1l33.3,50
				c0.2,0.2,0.1,0.5-0.1,0.7C50.1,50.5,50,50.5,49.9,50.5z"/>
			<path d="M83.3,50.5c-0.2,0-0.3-0.1-0.4-0.2l-33.3-50c-0.2-0.2-0.1-0.5,0.1-0.7c0.2-0.2,0.5-0.1,0.7,0.1l33.3,50
				c0.2,0.2,0.1,0.5-0.1,0.7C83.5,50.5,83.4,50.5,83.3,50.5z"/>
			<path d="M50,100.5c-0.2,0-0.3-0.1-0.4-0.2l-50-75c-0.2-0.2-0.1-0.5,0.1-0.7c0.2-0.2,0.5-0.1,0.7,0.1l50,75
				c0.2,0.2,0.1,0.5-0.1,0.7C50.2,100.5,50.1,100.5,50,100.5z"/>
			<path d="M16.7,100.5c-0.2,0-0.3-0.1-0.4-0.2l-16.7-25c-0.2-0.2-0.1-0.5,0.1-0.7c0.2-0.2,0.5-0.1,0.7,0.1l16.7,25
				c0.2,0.2,0.1,0.5-0.1,0.7C16.9,100.5,16.8,100.5,16.7,100.5z"/>
		</g>
		<path d="M50,100.5c-0.1,0-0.2,0-0.2-0.1l-50-25c-0.2-0.1-0.3-0.4-0.2-0.7c0.1-0.2,0.4-0.3,0.7-0.2l50,25c0.2,0.1,0.3,0.4,0.2,0.7
			C50.4,100.4,50.2,100.5,50,100.5z"/>
		<path d="M0,25.5c-0.2,0-0.4-0.1-0.4-0.3c-0.1-0.2,0-0.5,0.2-0.7l50-25c0.2-0.1,0.5,0,0.7,0.2c0.1,0.2,0,0.5-0.2,0.7l-50,25
			C0.2,25.5,0.1,25.5,0,25.5z"/>
		<path d="M49.9,50.5H0c-0.3,0-0.5-0.2-0.5-0.5s0.2-0.5,0.5-0.5h49.9c0.3,0,0.5,0.2,0.5,0.5S50.2,50.5,49.9,50.5z"/>
	</g>
	<polygon points="49.9,50 0,75 16.7,50 0,25 	"/>
</g>
</svg>
