<?xml version="1.0" encoding="utf-8"?>
<!-- Generator: Adobe Illustrator 26.5.1, SVG Export Plug-In . SVG Version: 6.00 Build 0)  -->
<svg version="1.1" id="Ebene_1" xmlns="http://www.w3.org/2000/svg" xmlns:xlink="http://www.w3.org/1999/xlink" x="0px" y="0px"
	 viewBox="0 0 100 100" style="enable-background:new 0 0 100 100;" xml:space="preserve">
<g>
	<g>
		<path d="M83.2,100.5c-0.2,0-0.3-0.1-0.4-0.2L16.1,0.3C16,0,16-0.3,16.3-0.4s0.5-0.1,0.7,0.1l66.7,100c0.2,0.2,0.1,0.5-0.1,0.7
			C83.4,100.5,83.3,100.5,83.2,100.5z"/>
		<path d="M-0.1,75.5c-0.2,0-0.4-0.1-0.4-0.3c-0.1-0.2,0-0.5,0.2-0.7l100-50c0.2-0.1,0.5,0,0.7,0.2c0.1,0.2,0,0.5-0.2,0.7l-100,50
			C0,75.5,0,75.5-0.1,75.5z"/>
		<path d="M99.9,75.5c-0.1,0-0.2,0-0.2-0.1l-100-50c-0.2-0.1-0.3-0.4-0.2-0.7c0.1-0.2,0.4-0.3,0.7-0.2l100,50
			c0.2,0.1,0.3,0.4,0.2,0.7C100.2,75.4,100.1,75.5,99.9,75.5z"/>
		<g>
			<path d="M83.2,100.5c-0.2,0-0.3-0.1-0.4-0.2L16.1,0.3C16,0,16-0.3,16.3-0.4s0.5-0.1,0.7,0.1l66.7,100c0.2,0.2,0.1,0.5-0.1,0.7
				C83.4,100.5,83.3,100.5,83.2,100.5z"/>
			<path d="M99.9,75.5c-0.2,0-0.3-0.1-0.4-0.2l-50-75c-0.2-0.2-0.1-0.5,0.1-0.7s0.5-0.1,0.7,0.1l50,75c0.2,0.2,0.1,0.5-0.1,0.7
				C100.1,75.5,100,75.5,99.9,75.5z"/>
			<path d="M99.9,25.5c-0.2,0-0.3-0.1-0.4-0.2l-16.7-25c-0.2-0.2-0.1-0.5,0.1-0.7c0.2-0.2,0.5-0.1,0.7,0.1l16.7,25
				c0.2,0.2,0.1,0.5-0.1,0.7C100.1,25.5,100,25.5,99.9,25.5z"/>
			<path d="M49.9,100.5c-0.2,0-0.3-0.1-0.4-0.2l-50-75c-0.2-0.2-0.1-0.5,0.1-0.7c0.2-0.2,0.5-0.1,0.7,0.1l50,75
				c0.2,0.2,0.1,0.5-0.1,0.7C50.1,100.5,50,100.5,49.9,100.5z"/>
			<path d="M16.6,100.5c-0.2,0-0.3-0.1-0.4-0.2l-16.7-25c-0.2-0.2-0.1-0.5,0.1-0.7c0.2-0.2,0.5-0.1,0.7,0.1l16.7,25
				c0.2,0.2,0.1,0.5-0.1,0.7C16.7,100.5,16.6,100.5,16.6,100.5z"/>
		</g>
		<g>
			<path d="M16.6,100.5c-0.1,0-0.2,0-0.3-0.1c-0.2-0.2-0.3-0.5-0.1-0.7l66.7-100c0.2-0.2,0.5-0.3,0.7-0.1c0.2,0.2,0.3,0.5,0.1,0.7
				L17,100.3C16.9,100.4,16.7,100.5,16.6,100.5z"/>
			<path d="M-0.1,75.5c-0.1,0-0.2,0-0.3-0.1c-0.2-0.2-0.3-0.5-0.1-0.7l50-75c0.2-0.2,0.5-0.3,0.7-0.1c0.2,0.2,0.3,0.5,0.1,0.7
				l-50,75C0.2,75.4,0,75.5-0.1,75.5z"/>
			<path d="M-0.1,25.5c-0.1,0-0.2,0-0.3-0.1c-0.2-0.2-0.3-0.5-0.1-0.7l16.7-25c0.2-0.2,0.5-0.3,0.7-0.1C17.1-0.3,17.1,0,17,0.3
				l-16.7,25C0.2,25.4,0,25.5-0.1,25.5z"/>
			<path d="M49.9,100.5c-0.1,0-0.2,0-0.3-0.1c-0.2-0.2-0.3-0.5-0.1-0.7l50-75c0.2-0.2,0.5-0.3,0.7-0.1c0.2,0.2,0.3,0.5,0.1,0.7
				l-50,75C50.2,100.4,50,100.5,49.9,100.5z"/>
			<path d="M83.2,100.5c-0.1,0-0.2,0-0.3-0.1c-0.2-0.2-0.3-0.5-0.1-0.7l16.7-25c0.2-0.2,0.5-0.3,0.7-0.1c0.2,0.2,0.3,0.5,0.1,0.7
				l-16.7,25C83.5,100.4,83.4,100.5,83.2,100.5z"/>
		</g>
		<path d="M-0.1,25.5c-0.2,0-0.4-0.1-0.4-0.3c-0.1-0.2,0-0.5,0.2-0.7l50-25c0.2-0.1,0.5,0,0.7,0.2c0.1,0.2,0,0.5-0.2,0.7l-50,25
			C0,25.5,0,25.5-0.1,25.5z"/>
		<path d="M49.9,100.5c-0.2,0-0.4-0.1-0.4-0.3c-0.1-0.2,0-0.5,0.2-0.7l50-25c0.2-0.1,0.5,0,0.7,0.2c0.1,0.2,0,0.5-0.2,0.7l-50,25
			C50,100.5,50,100.5,49.9,100.5z"/>
		<path d="M99.9,25.5c-0.1,0-0.2,0-0.2-0.1l-50-25c-0.2-0.1-0.3-0.4-0.2-0.7c0.1-0.2,0.4-0.3,0.7-0.2l50,25c0.2,0.1,0.3,0.4,0.2,0.7
			C100.2,25.4,100.1,25.5,99.9,25.5z"/>
		<path d="M49.9,100.5c-0.1,0-0.2,0-0.2-0.1l-50-25c-0.2-0.1-0.3-0.4-0.2-0.7c0.1-0.2,0.4-0.3,0.7-0.2l50,25
			c0.2,0.1,0.3,0.4,0.2,0.7C50.2,100.4,50.1,100.5,49.9,100.5z"/>
		<path d="M49.9,100.5c-0.3,0-0.5-0.2-0.5-0.5V0c0-0.3,0.2-0.5,0.5-0.5s0.5,0.2,0.5,0.5v100C50.4,100.3,50.2,100.5,49.9,100.5z"/>
		<path d="M99.9,50.5h-100c-0.3,0-0.5-0.2-0.5-0.5s0.2-0.5,0.5-0.5h100c0.3,0,0.5,0.2,0.5,0.5S100.2,50.5,99.9,50.5z"/>
	</g>
	<polygon points="75.1,0.2 50.1,49.8 75.1,99.8 50.1,83.1 25.1,99.8 50.1,49.8 25.1,0.2 50.1,16.4 	"/>
	<polygon points="25.1,0.2 0.1,49.8 25.1,99.8 50.1,49.8 	"/>
	<polygon points="75.1,0.2 50.1,49.8 75.1,99.8 100.1,49.8 	"/>
</g>
</svg>
