<?xml version="1.0" encoding="utf-8"?>
<!-- Generator: Adobe Illustrator 26.5.1, SVG Export Plug-In . SVG Version: 6.00 Build 0)  -->
<svg version="1.1" id="Layer_21" xmlns="http://www.w3.org/2000/svg" xmlns:xlink="http://www.w3.org/1999/xlink" x="0px" y="0px"
	 viewBox="0 0 100 100" style="enable-background:new 0 0 100 100;" xml:space="preserve">
<path d="M70.6,130.9c2.3-5.4,7.7-8.7,13.6-8.7h15.7c12.4,0,22.4-10,22.4-22.4c0-12.4-10-22.4-22.4-22.4s-22.4,10-22.4,22.4h-1
	c0-6.9,3-13.2,7.8-17.4c0.1-0.1,0.1-0.1,0.2-0.2c0.3-0.3,0.7-0.5,1-0.8c0.1-0.1,0.2-0.2,0.4-0.3c0.3-0.2,0.6-0.5,1-0.7
	c0.2-0.1,0.3-0.2,0.5-0.3c0.3-0.2,0.6-0.4,1-0.6c0.2-0.1,0.4-0.2,0.6-0.3c0.3-0.2,0.6-0.3,0.9-0.5l19.8-8.7l0,0
	c0.3-0.2,0.7-0.3,1-0.5c0.2-0.1,0.4-0.2,0.6-0.3c0.3-0.2,0.7-0.4,1-0.6c0.1-0.1,0.2-0.1,0.3-0.2c0.3-0.2,0.7-0.5,1-0.7l0.1-0.1
	c0.8-0.6,1.6-1.3,2.3-2l0,0c0.7-0.7,1.4-1.5,2-2.3l0.1-0.1c0.3-0.4,0.5-0.7,0.8-1.1c0-0.1,0.1-0.1,0.1-0.2c0.2-0.4,0.5-0.8,0.7-1.2
	c0.1-0.1,0.1-0.3,0.2-0.4c0.1-0.3,0.3-0.5,0.4-0.8c0.1-0.2,0.2-0.3,0.2-0.5c0.2-0.4,0.3-0.7,0.5-1.1c0.1-0.2,0.1-0.4,0.2-0.6
	c0.1-0.2,0.2-0.5,0.2-0.7c0.1-0.2,0.1-0.4,0.2-0.6c0.1-0.4,0.2-0.8,0.3-1.2c0-0.1,0.1-0.3,0.1-0.4c0.1-0.4,0.1-0.7,0.2-1
	c0-0.1,0-0.2,0.1-0.4c0.1-0.5,0.1-1,0.2-1.5l0,0c0-0.5,0.1-1.1,0.1-1.6c0-3.4-0.8-6.8-2.4-10C115,29.6,103,25,92.4,28.9l0.3-0.1
	l-2.5,1.1C82.9,33.6,77.8,41.2,77.8,50h-1c0-8.9,5-17,12.9-21l19-8.3c0.3-0.1,0.6-0.2,0.9-0.4l0.2-0.1l0,0c0,0,0.1,0,0.1-0.1
	c0.8-0.4,1.7-0.9,2.4-1.4l0,0c0.1,0,0.1-0.1,0.2-0.1c0.8-0.6,1.6-1.2,2.4-1.8c0.1-0.1,0.2-0.1,0.2-0.2c0.3-0.2,0.6-0.5,0.8-0.8
	c0.1-0.1,0.1-0.1,0.2-0.1l0,0c0,0,0,0,0.1-0.1c0.3-0.3,0.6-0.7,0.9-1c0-0.1,0.1-0.1,0.1-0.2c0.3-0.3,0.5-0.6,0.8-0.9l0.1-0.1
	l0.1-0.1c0,0,0,0,0.1-0.1c0.6-0.8,1.1-1.5,1.5-2.3l0,0l0.1-0.1c1.2-2.3,2.1-4.8,2.5-7.4c0-0.1,0-0.2,0-0.2s0,0,0-0.1
	c0.1-0.4,0.1-0.8,0.1-1.2c0-0.1,0-0.1,0-0.2l0,0l0,0c0-0.5,0.1-1,0.1-1.5c0-0.1,0-0.1,0-0.1l0,0c0-0.1,0-0.2,0-0.3
	c0-0.2,0-0.3,0-0.5c0-0.1,0-0.2,0-0.2c0-0.2,0-0.3,0-0.5s0-0.4-0.1-0.7c0-0.2,0-0.4-0.1-0.6c0-0.2-0.1-0.4-0.1-0.6s-0.1-0.5-0.1-0.7
	c0-0.1,0-0.2-0.1-0.2c-0.4-1.9-1-3.8-1.9-5.7c-4-8-12.1-12.6-20.5-12.4h-0.1H84.4c-5.8,0-11.3-3.3-13.6-8.7
	c-3.4-8-11.4-13.7-20.7-13.7S32.8-39,29.4-31c-2.3,5.4-7.7,8.7-13.6,8.7H-0.1c-12.4,0-22.4,10-22.4,22.4s10,22.4,22.4,22.4
	s22.4-10,22.4-22.4h1c0,6.6-2.7,12.5-7.1,16.7c-0.4,0.4-0.9,0.8-1.4,1.2c-0.1,0.1-0.1,0.1-0.2,0.2c-0.4,0.3-0.8,0.6-1.2,0.9
	c-0.1,0.1-0.2,0.2-0.3,0.2c-0.4,0.3-0.8,0.5-1.2,0.8c-0.1,0.1-0.2,0.2-0.4,0.2c-0.5,0.3-1.1,0.6-1.6,0.9L7,22.5L-10.1,30h-0.1
	c-0.5,0.2-1,0.5-1.4,0.8c0,0-0.1,0-0.1,0.1c-0.4,0.2-0.8,0.5-1.2,0.8c-0.2,0.2-0.5,0.4-0.7,0.6c-0.2,0.1-0.3,0.2-0.5,0.4
	c-0.3,0.2-0.6,0.5-0.9,0.8c-0.1,0.1-0.2,0.1-0.2,0.2c-0.3,0.3-0.6,0.6-0.9,0.9c-0.1,0.1-0.1,0.1-0.2,0.2c-0.3,0.3-0.5,0.6-0.8,0.9
	c-0.1,0.1-0.2,0.2-0.2,0.3c-0.2,0.3-0.4,0.6-0.7,0.8c-0.1,0.1-0.2,0.3-0.3,0.4c-0.2,0.2-0.3,0.5-0.5,0.7c-0.1,0.2-0.3,0.4-0.4,0.6
	c-0.1,0.2-0.2,0.4-0.3,0.6c-0.1,0.3-0.3,0.5-0.4,0.8c-0.1,0.1-0.1,0.3-0.2,0.4c-0.2,0.3-0.3,0.7-0.5,1c0,0.1-0.1,0.2-0.1,0.3
	c-0.2,0.4-0.3,0.8-0.4,1.1c0,0.1-0.1,0.1-0.1,0.2c-0.1,0.4-0.3,0.8-0.4,1.2c0,0.1,0,0.2-0.1,0.3c-0.1,0.4-0.2,0.8-0.3,1.2
	c0,0.2-0.1,0.3-0.1,0.5c-0.1,0.3-0.1,0.7-0.2,1c-0.1,0.4-0.1,0.7-0.1,1.1c0,0.1,0,0.3,0,0.4c0,0.5-0.1,1.1-0.1,1.6l0,0l0,0
	c0,3.4,0.8,6.8,2.4,10c5.2,10.3,17.2,14.9,27.8,11l-0.6,0.3l2.4-1.1c7.6-3.6,12.8-11.3,12.8-20.3h1c0,9.3-5.5,17.4-13.4,21.2
	l-17.9,7.8c-1.2,0.5-2.4,1-3.5,1.7h-0.1h-0.1c-0.8,0.5-1.6,1-2.4,1.6c0,0,0,0-0.1,0l-0.1,0.1c-0.3,0.2-0.6,0.5-0.9,0.8l-0.1,0.1
	c0,0,0,0-0.1,0c-0.7,0.6-1.4,1.4-2,2.1l-0.1,0.1c0,0,0,0.1-0.1,0.1c-2.6,3.1-4.3,6.9-4.9,11.1c0,0,0,0,0,0.1l0,0c-0.1,1-0.2,2-0.2,3
	v0.1l0,0l0,0c0,0.2,0,0.3,0,0.5c0,0.1,0,0.2,0,0.3s0,0.1,0,0.2c0,0.2,0,0.4,0,0.7c0,0.2,0,0.3,0,0.5s0.1,0.5,0.1,0.7
	c0,0.1,0,0.3,0.1,0.4c0,0.3,0.1,0.5,0.1,0.8c0,0.1,0,0.1,0,0.2c0.4,1.9,1,3.9,1.9,5.7c4,8,12.1,12.6,20.5,12.4h0.1h15.2
	c5.9,0,11.3,3.4,13.6,8.7c3.4,8.1,11.4,13.7,20.7,13.7S67.2,138.9,70.6,130.9L70.6,130.9z"/>
</svg>
