<?xml version="1.0" encoding="utf-8"?>
<!-- Generator: Adobe Illustrator 26.5.1, SVG Export Plug-In . SVG Version: 6.00 Build 0)  -->
<svg version="1.1" id="Layer_1" xmlns="http://www.w3.org/2000/svg" xmlns:xlink="http://www.w3.org/1999/xlink" x="0px" y="0px"
	 viewBox="0 0 100 100" style="enable-background:new 0 0 100 100;" xml:space="preserve">
<path d="M100,23.4L100,23.4c-6.6,0-12.5-2.7-16.7-7.1c-0.4-0.4-0.8-0.9-1.2-1.3c-0.1-0.1-0.1-0.1-0.2-0.2c-0.3-0.4-0.6-0.8-0.9-1.2
	c-0.1-0.1-0.2-0.2-0.2-0.3c-0.3-0.4-0.5-0.8-0.8-1.2c-0.1-0.1-0.2-0.2-0.2-0.4c-0.3-0.5-0.6-1.1-0.9-1.6l-1.3-2.9L70.1-9.9V-10
	c-0.2-0.5-0.5-1-0.8-1.4c0,0,0-0.1-0.1-0.1c-0.2-0.4-0.5-0.8-0.8-1.2c-0.2-0.2-0.4-0.5-0.6-0.7c-0.1-0.2-0.2-0.3-0.4-0.5
	c-0.2-0.3-0.5-0.6-0.8-0.9c-0.1-0.1-0.1-0.2-0.2-0.2c-0.3-0.3-0.6-0.6-0.9-0.9c-0.1-0.1-0.1-0.1-0.2-0.2c-0.3-0.3-0.6-0.5-0.9-0.8
	c-0.1-0.1-0.2-0.2-0.3-0.2c-0.3-0.2-0.6-0.4-0.8-0.7c-0.1-0.1-0.3-0.2-0.4-0.3c-0.2-0.2-0.5-0.3-0.7-0.5c-0.2-0.1-0.4-0.3-0.6-0.4
	c-0.2-0.1-0.4-0.2-0.6-0.3c-0.3-0.2-0.5-0.3-0.8-0.4c-0.1-0.1-0.3-0.1-0.4-0.2c-0.3-0.2-0.7-0.3-1-0.5c-0.1,0-0.2-0.1-0.3-0.1
	c-0.4-0.2-0.8-0.3-1.1-0.4c-0.1,0-0.1-0.1-0.2-0.1c-0.4-0.1-0.8-0.3-1.2-0.4c-0.1,0-0.2,0-0.3-0.1c-0.4-0.1-0.8-0.2-1.2-0.3
	c-0.2,0-0.3-0.1-0.5-0.1c-0.3-0.1-0.7-0.1-1-0.2c-0.4-0.1-0.7-0.1-1.1-0.1c-0.1,0-0.3,0-0.4,0c-0.5,0-1.1-0.1-1.6-0.1l0,0l0,0
	c-3.4,0-6.8,0.8-10,2.4C29.6-14.7,25-2.7,28.9,7.9l-0.3-0.6l1.1,2.4C33.3,17.3,41,22.5,50,22.5v1c-9.3,0-17.4-5.5-21.2-13.4L21-7.9
	c-0.5-1.2-1-2.4-1.7-3.5v-0.1v-0.1c-0.5-0.8-1-1.6-1.6-2.4c0,0,0,0,0-0.1l-0.1-0.1c-0.2-0.3-0.5-0.6-0.8-0.9l-0.1-0.1c0,0,0,0,0-0.1
	c-0.7-0.7-1.3-1.4-2.1-2l-0.1-0.1c0,0-0.1,0-0.1-0.1c-3.1-2.6-6.9-4.3-11.1-4.9c0,0,0,0-0.1,0l0,0c-1-0.1-2-0.2-3-0.2H0.1l0,0l0,0
	c-0.2,0-0.3,0-0.5,0c-0.1,0-0.2,0-0.3,0s-0.1,0-0.2,0c-0.2,0-0.4,0-0.7,0c-0.2,0-0.3,0-0.5,0s-0.5,0.1-0.7,0.1s-0.3,0-0.4,0.1
	c-0.3,0-0.5,0.1-0.8,0.1c-0.1,0-0.1,0-0.2,0c-1.9,0.4-3.9,1-5.7,1.9c-8,4-12.6,12.1-12.4,20.5v0.1v15.2c0,5.8-3.3,11.3-8.7,13.6
	c-8,3.4-13.7,11.4-13.7,20.7S-39,67-31,70.4c5.4,2.3,8.7,7.7,8.7,13.6v16c0,12.4,10,22.4,22.4,22.4s22.4-10,22.4-22.4
	s-10-22.4-22.4-22.4v-1c6.9,0,13.2,3,17.5,7.8c0.1,0.1,0.1,0.1,0.2,0.2c0.3,0.3,0.5,0.6,0.8,1c0.1,0.1,0.2,0.2,0.3,0.4
	c0.2,0.3,0.5,0.6,0.7,1c0.1,0.1,0.2,0.3,0.3,0.5c0.2,0.3,0.4,0.6,0.6,1c0.1,0.2,0.2,0.4,0.3,0.6c0.2,0.3,0.3,0.6,0.5,0.9l8.7,19.8
	l0,0c0.2,0.4,0.3,0.7,0.5,1c0.1,0.2,0.2,0.4,0.3,0.6c0.2,0.4,0.4,0.7,0.6,1c0.1,0.1,0.1,0.2,0.2,0.3c0.2,0.3,0.5,0.7,0.7,1l0.1,0.1
	c0.6,0.8,1.3,1.6,2,2.3l0,0c0.7,0.7,1.5,1.4,2.3,2l0.1,0.1c0.4,0.3,0.7,0.5,1.1,0.8c0.1,0,0.1,0.1,0.2,0.1c0.4,0.2,0.8,0.5,1.2,0.7
	c0.1,0.1,0.3,0.1,0.4,0.2c0.3,0.1,0.5,0.3,0.8,0.4c0.2,0.1,0.3,0.2,0.5,0.2c0.4,0.2,0.7,0.3,1.1,0.5c0.2,0.1,0.4,0.1,0.6,0.2
	c0.2,0.1,0.5,0.2,0.7,0.2c0.2,0.1,0.4,0.1,0.6,0.2c0.4,0.1,0.8,0.2,1.2,0.3c0.1,0,0.3,0.1,0.4,0.1c0.4,0.1,0.7,0.1,1,0.2
	c0.1,0,0.2,0,0.4,0.1c0.5,0.1,1,0.1,1.5,0.2l0,0c0.5,0,1.1,0.1,1.6,0.1c3.4,0,6.8-0.8,10-2.4c10.3-5.2,14.9-17.2,11-27.8l0.1,0.3
	l-1.1-2.5C66.4,82.9,58.8,77.9,50,77.9v-1c8.9,0,17,5,21,12.9l8.3,19c0.1,0.3,0.2,0.6,0.4,0.9l0.1,0.2l0,0c0,0,0,0.1,0.1,0.1
	c0.4,0.9,0.9,1.7,1.4,2.4l0,0c0,0.1,0.1,0.1,0.1,0.1c0.6,0.8,1.1,1.6,1.8,2.4c0.1,0.1,0.1,0.1,0.2,0.2c0.2,0.3,0.5,0.6,0.8,0.8
	c0.1,0.1,0.1,0.1,0.1,0.1l0,0c0,0,0,0,0.1,0.1c0.3,0.3,0.7,0.6,1,0.9c0.1,0,0.1,0.1,0.1,0.1c0.3,0.3,0.6,0.5,0.9,0.8l0.1,0.1
	l0.1,0.1c0,0,0,0,0.1,0.1c0.8,0.6,1.5,1.1,2.3,1.5l0,0l0.1,0.1c2.3,1.2,4.8,2.1,7.4,2.5c0.1,0,0.2,0,0.2,0s0,0,0.1,0
	c0.4,0.1,0.8,0.1,1.2,0.1c0.1,0,0.1,0,0.2,0l0,0l0,0c0.5,0,1,0.1,1.5,0.1c0.1,0,0.3,0,0.3,0V23.4z"/>
<path d="M100-22.4c-12.4,0-22.4,10-22.4,22.4s10,22.4,22.4,22.4V-22.4z"/>
</svg>
