<?xml version="1.0" encoding="utf-8"?>
<!-- Generator: Adobe Illustrator 26.5.1, SVG Export Plug-In . SVG Version: 6.00 Build 0)  -->
<svg version="1.1" id="Layer_1" xmlns="http://www.w3.org/2000/svg" xmlns:xlink="http://www.w3.org/1999/xlink" x="0px" y="0px"
	 viewBox="0 0 100 100" style="enable-background:new 0 0 100 100;" xml:space="preserve">
<g id="Layer_21">
	<path d="M77.6,100L77.6,100c0,0.2,0,0.4,0,0.5c0,0.2,0,0.4,0,0.5s0,0.1,0,0.2c0,0.3,0,0.6,0.1,0.9c0,0.1,0,0.1,0,0.2
		c0,0.3,0.1,0.6,0.1,0.9c0,0.1,0,0.2,0,0.3c0,0.2,0.1,0.5,0.1,0.8c0,0.1,0.1,0.3,0.1,0.4c0.1,0.2,0.1,0.4,0.1,0.6s0.1,0.3,0.1,0.5
		c0.1,0.2,0.1,0.3,0.1,0.5c0.1,0.2,0.1,0.4,0.2,0.6c0,0.1,0.1,0.2,0.1,0.4c0.1,0.2,0.2,0.5,0.3,0.7c0,0.1,0.1,0.2,0.1,0.3
		c0.1,0.3,0.2,0.5,0.3,0.8c0,0.1,0.1,0.1,0.1,0.2c0.1,0.3,0.3,0.6,0.4,0.8c0,0.1,0.1,0.1,0.1,0.2c0.1,0.2,0.2,0.3,0.2,0.5
		c0.1,0.1,0.1,0.2,0.2,0.4c0,0,0,0.1,0.1,0.1s0,0.1,0.1,0.1c0.1,0.1,0.1,0.2,0.2,0.4c0.1,0.1,0.2,0.3,0.3,0.4c0,0.1,0.1,0.1,0.1,0.2
		c0.2,0.3,0.3,0.5,0.5,0.8c0,0.1,0.1,0.1,0.1,0.2c0.2,0.2,0.3,0.5,0.5,0.7c0.1,0.1,0.1,0.1,0.2,0.2c0.2,0.2,0.3,0.4,0.5,0.6
		c0.1,0.1,0.2,0.2,0.3,0.3c0.1,0.2,0.3,0.3,0.4,0.5c0.1,0.1,0.2,0.2,0.4,0.4s0.2,0.2,0.4,0.4c0.2,0.1,0.3,0.3,0.5,0.4
		c0.1,0.1,0.2,0.2,0.3,0.3c0.2,0.2,0.4,0.3,0.6,0.5c0.1,0.1,0.1,0.1,0.2,0.2c0.2,0.2,0.4,0.4,0.7,0.5c0.1,0,0.1,0.1,0.2,0.1
		c0.2,0.2,0.5,0.4,0.8,0.5c0.1,0,0.1,0.1,0.2,0.1c0.1,0.1,0.3,0.2,0.4,0.3c0.1,0.1,0.2,0.1,0.4,0.2c0,0,0.1,0,0.1,0.1
		c0,0,0.1,0,0.1,0.1c0.1,0.1,0.2,0.1,0.4,0.2c0.2,0.1,0.3,0.2,0.5,0.2c0.1,0,0.1,0.1,0.2,0.1c0.3,0.1,0.6,0.3,0.8,0.4
		c0.1,0,0.1,0.1,0.2,0.1c0.3,0.1,0.5,0.2,0.8,0.3c0.1,0,0.2,0.1,0.3,0.1c0.2,0.1,0.5,0.2,0.7,0.3c0.1,0,0.2,0.1,0.4,0.1
		c0.2,0.1,0.4,0.1,0.6,0.2s0.3,0.1,0.5,0.1s0.3,0.1,0.5,0.1c0.2,0.1,0.4,0.1,0.6,0.1c0.1,0,0.3,0.1,0.4,0.1c0.2,0.1,0.5,0.1,0.8,0.1
		c0.1,0,0.2,0,0.3,0c0.3,0,0.6,0.1,0.9,0.1c0.1,0,0.1,0,0.2,0c0.3,0,0.6,0.1,0.9,0.1c0.1,0,0.1,0,0.2,0c0.2,0,0.4,0,0.5,0
		s0.3,0,0.4,0h0.1h0.1c0.1,0,0.3,0,0.4,0c0.2,0,0.4,0,0.5,0s0.1,0,0.2,0c0.3,0,0.6,0,0.9-0.1c0.1,0,0.1,0,0.2,0
		c0.3,0,0.6-0.1,0.8-0.1c0.1,0,0.2,0,0.3-0.1c0.2,0,0.5-0.1,0.7-0.1c0.1,0,0.3-0.1,0.4-0.1c0.2,0,0.4-0.1,0.6-0.1s0.3-0.1,0.5-0.1
		s0.3-0.1,0.5-0.1c0.2-0.1,0.4-0.1,0.6-0.2c0.1,0,0.2-0.1,0.4-0.1c0.2-0.1,0.5-0.2,0.7-0.3c0.1,0,0.2-0.1,0.3-0.1
		c0.3-0.1,0.5-0.2,0.8-0.3c0.1,0,0.1-0.1,0.2-0.1c0.3-0.1,0.6-0.3,0.9-0.4c0.1,0,0.1-0.1,0.2-0.1c0.2-0.1,0.3-0.2,0.5-0.2
		c0.1-0.1,0.2-0.1,0.4-0.2c0,0,0.1,0,0.1-0.1s0.1,0,0.1-0.1c0.1-0.1,0.2-0.1,0.4-0.2c0.1-0.1,0.3-0.2,0.5-0.3c0.1,0,0.1-0.1,0.1-0.1
		c0.3-0.2,0.5-0.4,0.8-0.5c0.1,0,0.1-0.1,0.2-0.1c0.2-0.2,0.5-0.4,0.7-0.5c0.1-0.1,0.1-0.1,0.2-0.2c0.2-0.2,0.4-0.3,0.6-0.5
		c0.1-0.1,0.2-0.2,0.3-0.3c0.2-0.1,0.3-0.3,0.5-0.4c0.1-0.1,0.2-0.2,0.4-0.4c0.1-0.1,0.2-0.2,0.4-0.4c0.1-0.1,0.3-0.3,0.4-0.5
		c0.1-0.1,0.2-0.2,0.3-0.3c0.2-0.2,0.3-0.4,0.5-0.6c0.1-0.1,0.1-0.2,0.2-0.2c0.2-0.2,0.4-0.4,0.5-0.7c0-0.1,0.1-0.1,0.1-0.2
		c0.1-0.2,0.2-0.3,0.4-0.5l0,0c0.1-0.1,0.1-0.2,0.2-0.2c0-0.1,0.1-0.1,0.1-0.2c0.1-0.1,0.2-0.3,0.3-0.4c0.1-0.1,0.1-0.2,0.2-0.4
		c0,0,0-0.1,0.1-0.1c0,0,0-0.1,0.1-0.1c0.1-0.1,0.1-0.2,0.2-0.4c0.1-0.2,0.2-0.3,0.2-0.5c0-0.1,0.1-0.1,0.1-0.2
		c0.1-0.3,0.3-0.6,0.4-0.8c0-0.1,0.1-0.1,0.1-0.2c0.1-0.3,0.2-0.5,0.3-0.8c0-0.1,0.1-0.2,0.1-0.3c0.1-0.2,0.2-0.5,0.3-0.7
		c0-0.1,0.1-0.2,0.1-0.4c0.1-0.2,0.1-0.4,0.2-0.6s0.1-0.3,0.1-0.5s0.1-0.3,0.1-0.5c0.1-0.2,0.1-0.4,0.1-0.6c0-0.1,0.1-0.3,0.1-0.4
		c0.1-0.2,0.1-0.5,0.1-0.8c0-0.1,0-0.2,0-0.3c0-0.3,0.1-0.6,0.1-0.9c0-0.1,0-0.1,0-0.2c0-0.3,0.1-0.6,0.1-0.9c0-0.1,0-0.1,0-0.2
		c0-0.2,0-0.4,0-0.5s0-0.3,0-0.4V100v-0.1c0-0.1,0-0.3,0-0.4c0-0.2,0-0.4,0-0.5s0-0.1,0-0.2c0-0.3,0-0.6-0.1-0.9c0-0.1,0-0.1,0-0.2
		c0-0.3-0.1-0.6-0.1-0.9c0-0.1,0-0.2,0-0.3c0-0.2-0.1-0.5-0.1-0.7c0-0.1-0.1-0.3-0.1-0.4c0-0.2-0.1-0.4-0.1-0.6s-0.1-0.3-0.1-0.5
		s-0.1-0.3-0.1-0.5c-0.1-0.2-0.1-0.4-0.2-0.6c0-0.1-0.1-0.2-0.1-0.4c-0.1-0.2-0.2-0.5-0.3-0.7c0-0.1-0.1-0.2-0.1-0.3
		c-0.1-0.3-0.2-0.5-0.3-0.8c0-0.1-0.1-0.1-0.1-0.2c-0.1-0.3-0.3-0.6-0.4-0.8c0-0.1-0.1-0.1-0.1-0.2c-0.1-0.2-0.2-0.3-0.2-0.5
		c-0.1-0.1-0.1-0.2-0.2-0.4c0,0,0-0.1-0.1-0.1s0-0.1-0.1-0.1c-0.1-0.1-0.1-0.2-0.2-0.4c-0.1-0.1-0.2-0.3-0.3-0.4
		c0-0.1-0.1-0.1-0.1-0.2c-0.2-0.3-0.3-0.5-0.5-0.8c0-0.1-0.1-0.1-0.1-0.2c-0.2-0.2-0.3-0.5-0.5-0.7c-0.1-0.1-0.1-0.1-0.2-0.2
		c-0.2-0.2-0.3-0.4-0.5-0.6c-0.1-0.1-0.2-0.2-0.3-0.3c-0.1-0.2-0.3-0.3-0.4-0.5c-0.1-0.1-0.2-0.2-0.4-0.4s-0.2-0.2-0.4-0.4
		c-0.2-0.1-0.3-0.3-0.5-0.4c-0.1-0.1-0.2-0.2-0.3-0.3c-0.2-0.2-0.4-0.3-0.6-0.5c-0.1-0.1-0.1-0.1-0.2-0.2c-0.2-0.2-0.5-0.4-0.7-0.5
		c-0.1,0-0.1-0.1-0.2-0.1c-0.2-0.2-0.5-0.4-0.8-0.5c-0.1,0-0.1-0.1-0.1-0.1c-0.1-0.1-0.3-0.2-0.5-0.3c-0.1-0.1-0.2-0.1-0.4-0.2
		c0,0-0.1,0-0.1-0.1c0,0-0.1,0-0.1-0.1c-0.1-0.1-0.2-0.1-0.4-0.2c-0.2-0.1-0.3-0.2-0.5-0.2c-0.1,0-0.1-0.1-0.2-0.1
		c-0.3-0.1-0.6-0.3-0.8-0.4c-0.1,0-0.1-0.1-0.2-0.1c-0.3-0.1-0.5-0.2-0.8-0.3c-0.1,0-0.2-0.1-0.3-0.1c-0.2-0.1-0.5-0.2-0.7-0.3
		c-0.1,0-0.2-0.1-0.4-0.1c-0.2-0.1-0.4-0.1-0.6-0.2s-0.3-0.1-0.5-0.1s-0.3-0.1-0.5-0.1c-0.2-0.1-0.4-0.1-0.6-0.1
		c-0.1,0-0.3-0.1-0.4-0.1c-0.2-0.1-0.5-0.1-0.8-0.1c-0.1,0-0.2,0-0.3,0c-0.3,0-0.6-0.1-0.9-0.1c-0.1,0-0.1,0-0.2,0
		c-0.3,0-0.6-0.1-0.9-0.1c-0.1,0-0.1,0-0.2,0c-0.2,0-0.4,0-0.5,0s-0.3,0-0.4,0h-0.1l0,0V22.5l0,0l0,0c12.4,0,22.4-10,22.4-22.4
		s-10-22.4-22.4-22.4s-22.4,10-22.4,22.4c0,8.3,4.6,15.6,11.3,19.5c-6.5-2.7-9.9-7.8-13.5-13.1C70.5-1,65.2-8.7,50.7-8.9
		c-0.2,0-0.3,0-0.5,0c-0.1,0-0.1,0-0.2,0l0,0c-3.8,0-7.7,1-11.2,3C28.1,0.3,24.4,14,30.6,24.7c4.2,7.2,11.8,11.2,19.6,11.2
		c-6.9,0.9-12.5-1.8-18.2-4.6c-8.1-4-16.5-8-29.2-1c-0.1,0.1-0.3,0.1-0.4,0.2c-0.1,0-0.1,0.1-0.2,0.1l0,0C-1.1,32.5-4,35.3-6,38.8
		c-6.2,10.7-2.5,24.4,8.2,30.6C8.5,73,15.7,73.3,22,70.7v0.4c-4.8,2.6-9.9,3-15.3,3.3c-9,0.6-18.3,1.3-25.8,13.7
		c-0.1,0.1-0.2,0.3-0.2,0.4s-0.1,0.1-0.1,0.2l0,0c-1.9,3.3-3,7.1-3,11.2c0,12.4,10,22.4,22.4,22.4s22.4-10,22.4-22.4L77.6,100
		L77.6,100z"/>
</g>
</svg>
