<?xml version="1.0" encoding="utf-8"?>
<!-- Generator: Adobe Illustrator 26.5.1, SVG Export Plug-In . SVG Version: 6.00 Build 0)  -->
<svg version="1.1" id="Layer_1" xmlns="http://www.w3.org/2000/svg" xmlns:xlink="http://www.w3.org/1999/xlink" x="0px" y="0px"
	 viewBox="0 0 100 100" style="enable-background:new 0 0 100 100;" xml:space="preserve">
<path d="M0,77.8c12.4,0,22.4,10,22.4,22.4s-10,22.4-22.4,22.4l0,0V77.8z"/>
<path d="M0-22.3c0,0,0.2,0,0.3,0c0.5,0,1,0.1,1.5,0.1l0,0l0,0c0.1,0,0.1,0,0.2,0c0.4,0,0.8,0,1.2,0.1c0.1,0,0.1,0,0.1,0s0.1,0,0.2,0
	c2.6,0.4,5.1,1.3,7.4,2.5l0.1,0.1l0,0c0.8,0.4,1.5,0.9,2.3,1.5c0.1,0.1,0.1,0.1,0.1,0.1l0.1,0.1l0.1,0.1c0.3,0.3,0.6,0.5,0.9,0.8
	c0.1,0,0.1,0.1,0.2,0.1c0.3,0.3,0.7,0.6,1,0.9c0.1,0.1,0.1,0.1,0.1,0.1l0,0c0,0,0,0,0.1,0.1c0.3,0.2,0.6,0.5,0.8,0.8
	c0.1,0.1,0.1,0.1,0.2,0.2c0.6,0.8,1.2,1.6,1.8,2.4c0,0,0.1,0,0.1,0.1l0,0c0.5,0.7,1,1.5,1.4,2.4c0.1,0,0.1,0.1,0.1,0.1l0,0l0.1,0.2
	c0.2,0.3,0.3,0.6,0.4,0.9l8.3,19c4,7.9,12.1,12.9,21,12.9v-1c-8.8,0-16.4-5-20.1-12.4l-1.1-2.5L29,7.7c-3.9-10.6,0.7-22.6,11-27.8
	c3.2-1.6,6.6-2.4,10-2.4c0.5,0,1.1,0.1,1.6,0.1l0,0c0.5,0.1,1,0.1,1.5,0.2c0.2,0.1,0.3,0.1,0.4,0.1c0.3,0.1,0.6,0.1,1,0.2
	c0.1,0,0.3,0.1,0.4,0.1c0.4,0.1,0.8,0.2,1.2,0.3c0.2,0.1,0.4,0.1,0.6,0.2c0.2,0,0.5,0.1,0.7,0.2c0.2,0.1,0.4,0.1,0.6,0.2
	c0.4,0.2,0.7,0.3,1.1,0.5c0.2,0,0.3,0.1,0.5,0.2c0.3,0.1,0.5,0.3,0.8,0.4c0.1,0.1,0.3,0.1,0.4,0.2c0.4,0.2,0.8,0.5,1.2,0.7
	c0.1,0,0.1,0.1,0.2,0.1c0.4,0.3,0.7,0.5,1.1,0.8l0.1,0.1c0.8,0.6,1.6,1.3,2.3,2l0,0c0.7,0.7,1.4,1.5,2,2.3l0.1,0.1
	c0.2,0.3,0.5,0.7,0.7,1c0.1,0.1,0.1,0.2,0.2,0.3c0.2,0.3,0.4,0.6,0.6,1c0.1,0.2,0.2,0.4,0.3,0.6c0.2,0.3,0.3,0.6,0.5,1l0,0l8.7,19.8
	c0.2,0.3,0.3,0.6,0.5,0.9c0.1,0.2,0.2,0.4,0.3,0.6c0.2,0.4,0.4,0.7,0.6,1c0.1,0.2,0.2,0.4,0.3,0.5c0.2,0.4,0.5,0.7,0.7,1
	c0.1,0.2,0.2,0.3,0.3,0.4c0.3,0.4,0.5,0.7,0.8,1c0.1,0.1,0.1,0.1,0.2,0.2c4.2,4.8,10.5,7.8,17.4,7.8v-1c-12.4,0-22.4-10-22.4-22.4
	s10-22.4,22.4-22.4s22.4,10,22.4,22.4v15.9c0,5.9,3.3,11.3,8.7,13.6c8.1,3.4,13.7,11.4,13.7,20.7s-5.6,17.3-13.7,20.7
	c-5.3,2.3-8.7,7.8-8.7,13.6v15.2v0.1c0.2,8.4-4.4,16.5-12.4,20.5c-1.8,0.9-3.8,1.5-5.7,1.9c-0.1,0-0.1,0-0.2,0
	c-0.3,0-0.5,0.1-0.8,0.1c-0.1,0.1-0.3,0.1-0.4,0.1c-0.2,0-0.5,0.1-0.7,0.1s-0.3,0-0.5,0c-0.3,0-0.5,0-0.7,0c-0.1,0-0.1,0-0.2,0
	s-0.2,0-0.3,0c-0.2,0-0.3,0-0.5,0l0,0l0,0h-0.1c-1,0-2-0.1-3-0.2l0,0c-0.1,0-0.1,0-0.1,0c-4.2-0.6-8-2.3-11.1-4.9
	c0-0.1-0.1-0.1-0.1-0.1l-0.1-0.1c-0.7-0.6-1.5-1.3-2.1-2c0-0.1,0-0.1,0-0.1l-0.1-0.1c-0.3-0.3-0.6-0.6-0.8-0.9l-0.1-0.1
	c0-0.1,0-0.1,0-0.1c-0.6-0.8-1.1-1.6-1.6-2.4v-0.1v-0.1c-0.7-1.1-1.2-2.3-1.7-3.5l-7.8-17.9C67.4,82.2,59.3,76.7,50,76.7v1
	c9,0,16.7,5.2,20.3,12.8l1.1,2.4l-0.3-0.6c3.9,10.6-0.7,22.6-11,27.8c-3.2,1.6-6.6,2.4-10,2.4l0,0l0,0c-0.5,0-1.1-0.1-1.6-0.1
	c-0.1,0-0.3,0-0.4,0c-0.4,0-0.7,0-1.1-0.1c-0.3-0.1-0.7-0.1-1-0.2c-0.2,0-0.3-0.1-0.5-0.1c-0.4-0.1-0.8-0.2-1.2-0.3
	c-0.1-0.1-0.2-0.1-0.3-0.1c-0.4-0.1-0.8-0.3-1.2-0.4c-0.1,0-0.1-0.1-0.2-0.1c-0.3-0.1-0.7-0.2-1.1-0.4c-0.1,0-0.2-0.1-0.3-0.1
	c-0.3-0.2-0.7-0.3-1-0.5c-0.1-0.1-0.3-0.1-0.4-0.2c-0.3-0.1-0.5-0.2-0.8-0.4c-0.2-0.1-0.4-0.2-0.6-0.3c-0.2-0.1-0.4-0.3-0.6-0.4
	c-0.2-0.2-0.5-0.3-0.7-0.5c-0.1-0.1-0.3-0.2-0.4-0.3c-0.2-0.3-0.5-0.5-0.8-0.7c-0.1,0-0.2-0.1-0.3-0.2c-0.3-0.3-0.6-0.5-0.9-0.8
	c-0.1-0.1-0.1-0.1-0.2-0.2c-0.3-0.3-0.6-0.6-0.9-0.9c-0.1,0-0.1-0.1-0.2-0.2c-0.3-0.3-0.6-0.6-0.8-0.9c-0.2-0.2-0.3-0.3-0.4-0.5
	c-0.2-0.2-0.4-0.5-0.6-0.7c-0.3-0.4-0.6-0.8-0.8-1.2c-0.1,0-0.1-0.1-0.1-0.1c-0.3-0.4-0.6-0.9-0.8-1.4v-0.1L22.4,93l-1.3-2.9
	c-0.3-0.5-0.6-1.1-0.9-1.6c0-0.2-0.1-0.3-0.2-0.4c-0.3-0.4-0.5-0.8-0.8-1.2c0-0.1-0.1-0.2-0.2-0.3c-0.3-0.4-0.6-0.8-0.9-1.2
	c-0.1-0.1-0.1-0.1-0.2-0.2c-0.4-0.4-0.8-0.9-1.2-1.3C12.5,79.5,6.6,76.8,0,76.8V-22.3z"/>
</svg>
