<?xml version="1.0" encoding="utf-8"?>
<!-- Generator: Adobe Illustrator 26.5.1, SVG Export Plug-In . SVG Version: 6.00 Build 0)  -->
<svg version="1.1" id="Layer_1" xmlns="http://www.w3.org/2000/svg" xmlns:xlink="http://www.w3.org/1999/xlink" x="0px" y="0px"
	 viewBox="0 0 100 100" style="enable-background:new 0 0 100 100;" xml:space="preserve">
<path d="M23.6,0c0,6.9-3,13.5-7.8,17.7c-0.1,0.1-0.1,0.1-0.2,0.2c-0.3,0.3-0.7,0.5-1,0.8c-0.1,0.1-0.2,0.2-0.4,0.3
	c-0.3,0.2-0.6,0.5-1,0.7c-0.2,0.1-0.3,0.2-0.5,0.3c-0.3,0.2-0.6,0.4-1,0.6c-0.2,0.1-0.4,0.2-0.6,0.3c-0.3,0.2-0.6,0.3-0.9,0.5
	l-19.8,8.7l0,0c-0.3,0.2-0.7,0.4-1,0.5c-0.2,0.1-0.4,0.2-0.6,0.3c-0.3,0.2-0.7,0.4-1,0.6c-0.1,0.1-0.2,0.1-0.3,0.2
	c-0.3,0.2-0.7,0.5-1,0.7l-0.1,0.1c-0.8,0.6-1.6,1.3-2.3,2l0,0c-0.7,0.7-1.4,1.5-2,2.3l-0.1,0.1c-0.3,0.4-0.5,0.7-0.8,1.1
	c0,0.1-0.1,0.1-0.1,0.2c-0.2,0.4-0.5,0.8-0.7,1.2c-0.1,0.1-0.1,0.3-0.2,0.4c-0.1,0.3-0.3,0.5-0.4,0.8c-0.1,0.2-0.2,0.3-0.2,0.5
	c-0.2,0.4-0.3,0.7-0.5,1.1c-0.1,0.2-0.1,0.4-0.2,0.6c-0.1,0.2-0.2,0.5-0.2,0.7c-0.1,0.2-0.1,0.4-0.2,0.6c-0.1,0.4-0.2,0.8-0.3,1.2
	c0,0.1-0.1,0.3-0.1,0.4c-0.1,0.4-0.1,0.7-0.2,1c0,0.1,0,0.2-0.1,0.4c-0.1,0.5-0.1,1-0.2,1.5l0,0c0,0.5-0.1,1.1-0.1,1.6
	c0,3.4,0.8,6.8,2.4,10c5.2,10.3,17.2,14.9,27.8,11l-0.3,0.1l2.5-1.1c7.3-3.7,12.4-11.3,12.4-20.1h1c0,8.9-5,17-12.9,21l-19,8.3
	c-0.3,0.1-0.6,0.2-0.9,0.4l-0.2,0.1l0,0c0,0-0.1,0-0.1,0.1c-0.8,0.4-1.7,0.9-2.4,1.4l0,0c-0.1,0-0.1,0.1-0.2,0.1
	c-0.8,0.6-1.6,1.1-2.4,1.8c-0.1,0.1-0.2,0.1-0.2,0.2c-0.3,0.2-0.6,0.5-0.8,0.8c-0.1,0.1-0.1,0.1-0.2,0.1l0,0c0,0,0,0-0.1,0.1
	c-0.3,0.3-0.6,0.7-0.9,1c0,0.1-0.1,0.1-0.1,0.1c-0.3,0.3-0.5,0.6-0.8,0.9l-0.1,0.1l-0.1,0.1c0,0,0,0-0.1,0.1
	c-0.6,0.8-1.1,1.5-1.5,2.3l0,0l-0.1,0.1c-1.2,2.3-2.1,4.8-2.5,7.4c0,0.1,0,0.2,0,0.2s0,0,0,0.1c-0.1,0.4-0.1,0.8-0.1,1.2
	c0,0.1,0,0.1,0,0.2l0,0l0,0c0,0.5-0.1,1-0.1,1.5c0,0.1,0,0.1,0,0.1v0.1h99c0-6.7,2.7-12.6,7.1-16.8c0.4-0.4,0.9-0.8,1.4-1.2
	c0.1-0.1,0.1-0.1,0.2-0.2c0.4-0.3,0.8-0.6,1.2-0.9c0.1-0.1,0.2-0.2,0.3-0.2c0.4-0.3,0.8-0.5,1.2-0.8c0.1-0.1,0.2-0.2,0.4-0.2
	c0.5-0.3,1.1-0.6,1.6-0.9l2.9-1.3l17.1-7.5h0.1c0.5-0.2,1-0.5,1.4-0.8c0,0,0.1,0,0.1-0.1c0.4-0.2,0.8-0.5,1.2-0.8
	c0.2-0.2,0.5-0.4,0.7-0.6c0.2-0.1,0.3-0.2,0.5-0.4c0.3-0.2,0.6-0.5,0.9-0.8c0.1-0.1,0.2-0.1,0.2-0.2c0.3-0.3,0.6-0.6,0.9-0.9
	c0.1-0.1,0.1-0.1,0.2-0.2c0.3-0.3,0.5-0.6,0.8-0.9c0.1-0.1,0.2-0.2,0.2-0.3c0.2-0.3,0.4-0.6,0.7-0.8c0.1-0.1,0.2-0.3,0.3-0.4
	c0.2-0.2,0.3-0.5,0.5-0.7c0.1-0.2,0.3-0.4,0.4-0.6c0.1-0.2,0.2-0.4,0.3-0.6c0.1-0.3,0.3-0.5,0.4-0.8c0.1-0.1,0.1-0.3,0.2-0.4
	c0.2-0.3,0.3-0.7,0.5-1c0-0.1,0.1-0.2,0.1-0.3c0.2-0.4,0.3-0.8,0.4-1.1c0-0.1,0.1-0.1,0.1-0.2c0.1-0.4,0.3-0.8,0.4-1.2
	c0-0.1,0-0.2,0.1-0.3c0.1-0.4,0.2-0.8,0.3-1.2c0-0.2,0.1-0.3,0.1-0.5c0.1-0.3,0.1-0.7,0.2-1c0.1-0.4,0.1-0.7,0.1-1.1
	c0-0.1,0-0.3,0-0.4c0-0.5,0.1-1.1,0.1-1.6l0,0l0,0c0-3.4-0.8-6.8-2.4-10c-5.2-10.3-17.2-14.9-27.8-11l0.6-0.3l-2.4,1.1
	c-7.6,3.6-12.8,11.3-12.8,20.3h-1c0-9.3,5.5-17.4,13.4-21.2l17.9-7.8c1.2-0.5,2.4-1,3.5-1.7h0.1h0.1c0.8-0.5,1.6-1,2.4-1.6
	c0,0,0,0,0.1,0l0.1-0.1c0.3-0.2,0.6-0.5,0.9-0.8l0.1-0.1c0,0,0,0,0.1,0c0.7-0.7,1.4-1.3,2-2.1l0.1-0.1c0,0,0-0.1,0.1-0.1
	c2.6-3.1,4.3-6.9,4.9-11.1c0,0,0,0,0-0.1l0,0c0.1-1,0.2-2,0.2-3V0H23.6L23.6,0z"/>
<path d="M-22.2,0c0,12.4,10,22.4,22.4,22.4S22.6,12.4,22.6,0H-22.2z"/>
<path d="M122.6,100c0-12.4-10-22.4-22.4-22.4s-22.4,10-22.4,22.4H122.6L122.6,100z"/>
</svg>
