<?xml version="1.0" encoding="utf-8"?>
<!-- Generator: Adobe Illustrator 26.5.1, SVG Export Plug-In . SVG Version: 6.00 Build 0)  -->
<svg version="1.1" id="Layer_1" xmlns="http://www.w3.org/2000/svg" xmlns:xlink="http://www.w3.org/1999/xlink" x="0px" y="0px"
	 viewBox="0 0 100 100" style="enable-background:new 0 0 100 100;" xml:space="preserve">
<g id="Layer_21">
	<path d="M-22.4,100.1c0-4.1,1.1-7.9,3-11.2l0,0c0-0.1,0.1-0.1,0.1-0.2c0.1-0.1,0.2-0.3,0.2-0.4C-13.5,78.9-6.8,76.2,0,75.2v-0.3
		c-6.8-1-13.5-3.7-19.1-13.1l0,0c-0.1-0.1-0.2-0.3-0.2-0.4l0,0c0-0.1-0.1-0.1-0.1-0.2l0,0l0,0c-1.6-2.8-2.7-6-2.9-9.4l0,0
		c0,0,0,0,0-0.1c0-0.6-0.1-1.1-0.1-1.7l0,0l0,0l0,0c0-0.6,0-1.1,0.1-1.7c0,0,0,0,0-0.1l0,0c0.3-3.4,1.3-6.6,2.9-9.4l0,0l0,0
		c0-0.1,0.1-0.1,0.1-0.2c0.1-0.1,0.2-0.3,0.2-0.4C-13.5,28.8-6.8,26.1,0,25.1v-0.3c-6.8-1-13.5-3.7-19.1-13.1
		c-0.1-0.1-0.2-0.3-0.2-0.4s-0.1-0.1-0.1-0.2l0,0c-1.9-3.3-3-7.1-3-11.2H100v100L-22.4,100.1L-22.4,100.1z"/>
</g>
</svg>
