<?xml version="1.0" encoding="utf-8"?>
<!-- Generator: Adobe Illustrator 26.5.1, SVG Export Plug-In . SVG Version: 6.00 Build 0)  -->
<svg version="1.1" id="Layer_1" xmlns="http://www.w3.org/2000/svg" xmlns:xlink="http://www.w3.org/1999/xlink" x="0px" y="0px"
	 viewBox="0 0 100 100" style="enable-background:new 0 0 100 100;" xml:space="preserve">
<g id="Layer_21">
	<path d="M0,0v100h100V0H0z M81.1,88C76.2,75.5,64.2,66.7,50,66.7S23.7,75.5,18.9,88c-1.8-2.8-4.1-5.1-6.9-6.9
		C24.5,76.3,33.3,64.2,33.3,50S24.5,23.8,12,18.9c2.8-1.8,5.1-4.1,6.9-6.9C23.7,24.5,35.8,33.3,50,33.3S76.2,24.5,81.1,12
		c1.8,2.8,4.1,5.1,6.9,6.9C75.5,23.8,66.6,35.8,66.6,50s8.8,26.2,21.3,31.1C85.2,82.8,82.8,85.2,81.1,88L81.1,88z"/>
</g>
</svg>
