<?xml version="1.0" encoding="utf-8"?>
<!-- Generator: Adobe Illustrator 26.5.1, SVG Export Plug-In . SVG Version: 6.00 Build 0)  -->
<svg version="1.1" id="Ebene_1" xmlns="http://www.w3.org/2000/svg" xmlns:xlink="http://www.w3.org/1999/xlink" x="0px" y="0px"
	 viewBox="0 0 100 100" style="enable-background:new 0 0 100 100;" xml:space="preserve">
<path d="M99.8,50.9c0.5-0.2,0.8-0.7,0.7-1.2c-0.2-0.5-0.7-0.8-1.2-0.7c-3.2,0.9-6,2-8.6,3.2c-0.1-10-2.1-20-6.8-26.9
	c-0.9-1.4-1.9-2.6-2.9-3.8c6.4,2.8,12.5,5.1,18.7,4.4c0.5-0.1,0.9-0.5,0.9-1.1c-0.1-0.5-0.5-0.9-1.1-0.9c-6.5,0.7-13.1-2.3-20.2-5.4
	c-0.6-0.3-1.2-0.5-1.9-0.8C63.7,4.7,44.4,3.4,29.8,8.7c-14.5,5.2-24.2,18.2-25.4,34C3.6,54.4,7.3,65.4,14.6,72.8
	c0.4,0.4,0.8,0.7,1.1,1.1c1.9,4.1,4.4,8.1,7.9,11.6c6.6,6.6,15.2,9.9,25.7,9.9c0,0,0.1,0,0.1,0c9.4,0,18.8-5.6,24-14.1
	c1.3-2.2,2.3-4.5,3-6.8c0.9,0,1.7,0.1,2.6,0.1c2.1,0.1,4.2,0.1,6.3,0.2c-1.1,3.4-2.5,6.2-4.1,8.1c-0.4,0.4-0.3,1.1,0.1,1.4
	c0.2,0.2,0.4,0.2,0.6,0.2c0.3,0,0.6-0.1,0.8-0.4c1.8-2.1,3.3-5.4,4.6-9.2c4.1,0.2,8.2,0.5,11.9,1c0.6,0.1,1.1-0.3,1.1-0.8
	c0.1-0.5-0.3-1.1-0.8-1.1c-3.7-0.5-7.6-0.8-11.6-1c1.5-5.4,2.5-11.9,2.6-18.5C93.3,53.1,96.3,51.9,99.8,50.9z M6.4,42.8
	c1.1-15,10.3-27.3,24.1-32.2c4.9-1.8,10.4-2.8,16-2.8c8.3,0,16.8,2.2,24.3,7.2c-6.4-2.4-13.4-4.2-21.4-3.5
	c-22.4,1.9-38.7,18-38.7,38.4c0,3.1,0.3,10.7,3,18.9C8.3,61.9,5.7,52.6,6.4,42.8z M85,55.1c-3.1,1.8-5.8,3.8-8.2,5.8
	c-0.6-2.7-1.6-5.4-3-8c-0.3-0.5-0.9-0.7-1.3-0.4c-0.5,0.3-0.7,0.9-0.4,1.3c1.5,2.8,2.5,5.7,3,8.5c-1.6,1.4-3.1,2.7-4.5,4
	c-2.1,1.9-4.1,3.7-6.2,5.4c-5.2-0.5-10.2-1.2-14.5-2.6c-15.2-4.9-23.1-19.1-21.7-29.4c1.7-13,9-20.8,21.6-23.1
	c2.5-0.5,4.9-0.7,7.2-0.7c11.2,0,20.1,5.3,24.9,15.1C86,39.8,86.6,48.2,85,55.1z M67.1,72c1.6-1.3,3.1-2.7,4.7-4.1
	c1.2-1,2.3-2.1,3.5-3.1c0.2,2.1,0.2,4.1-0.1,6.1c-0.7,0.5-1.4,1-2.1,1.5C71.1,72.2,69.1,72.1,67.1,72z M69.6,74.2
	c-2.9,1.3-6.1,2.4-9.6,3c1.7-1,3.3-2.1,4.9-3.3C66.4,74,68,74.1,69.6,74.2z M77.2,63.2c2.1-1.8,4.4-3.5,7-5.2
	c-1.5,4.5-3.9,8.2-6.8,11C77.5,67.1,77.5,65.1,77.2,63.2z M49.3,14.7C36,17.1,28,25.7,26.1,39.5c-1.7,12.8,8.7,26.9,23.1,31.6
	c3.9,1.3,8.2,2,12.7,2.5c-2.3,1.6-4.8,3.1-7.6,4.2c-7.3,0.3-15-1.4-21.4-6.4c-8.4-6.5-12.9-17-11-26.1c0.1-0.5-0.2-1.1-0.8-1.2
	c-0.5-0.1-1.1,0.2-1.2,0.8c-2,9.8,2.7,21.1,11.7,28.1c5.1,4,11,6,16.9,6.6c-2.3,0.5-4.9,0.9-7.8,1c-9,0.5-17.2-2.3-23.4-7.9
	c-4.2-9.5-4.7-19.2-4.7-22.8c0-19.3,15.5-34.6,36.9-36.4c3.9-0.3,7.6,0,11.1,0.7C57.2,13.8,53.3,13.9,49.3,14.7z M71.8,80.3
	C67,88.2,58.2,93.4,49.5,93.4c0,0-0.1,0-0.1,0c-10,0-18.1-3.1-24.3-9.3c-2.2-2.2-4-4.6-5.5-7.2C25.6,81,33,83,40.9,82.6
	c5.5-0.3,10-1.3,13.9-2.9c7.1-0.4,13.8-2.5,18.8-5.4c0.3,0,0.6,0,0.8,0C73.8,76.4,72.9,78.4,71.8,80.3z M86,72.8
	c-2.3-0.1-4.5-0.2-6.8-0.3c-0.7,0-1.5,0-2.2-0.1c0-0.2,0.1-0.3,0.1-0.5c0.2-0.2,0.4-0.3,0.6-0.5c4-3.5,7.4-8.7,9.1-15.1
	c0.6-0.3,1.2-0.7,1.8-1C88.3,61.7,87.4,67.8,86,72.8z M87.3,53.8c1.2-7,0.4-15.2-3.7-23.6c-2.8-5.7-6.8-9.9-11.8-12.7
	c1.5,0.6,3,1.3,4.5,1.9c2.1,2,4.1,4.4,5.9,7c4.6,6.7,6.4,16.8,6.4,26.7C88.1,53.4,87.7,53.6,87.3,53.8z"/>
</svg>
