<?xml version="1.0" encoding="utf-8"?>
<!-- Generator: Adobe Illustrator 26.5.1, SVG Export Plug-In . SVG Version: 6.00 Build 0)  -->
<svg version="1.1" id="Ebene_1" xmlns="http://www.w3.org/2000/svg" xmlns:xlink="http://www.w3.org/1999/xlink" x="0px" y="0px"
	 viewBox="0 0 100 100" style="enable-background:new 0 0 100 100;" xml:space="preserve">
<g>
	<path d="M79.5,63.9c-0.6-0.8-1.3-1.7-2-2.5c0.2-1.9,0-3.8-0.5-5.5c-0.6-1.7-1.5-3.3-2.8-4.7c1.3-1.3,2.6-2.7,3.7-4.3
		c2.7-4.1,3.5-8.9,2.3-12.9c-1.5-4.7-6.2-7.9-10.7-7.3c-2.4,0.3-4.5,1.7-6.1,3.9c-2.1,3-2.9,7.1-2.2,10.8c0.2,1.2,0.6,2.3,1,3.4
		c-1-0.3-2-0.5-3.1-0.7c-10.8-2.1-22.3-1.6-33.1-0.2c-0.2-4.1,0.1-8.1,0.8-11.7c0.6-3.1,1.5-6.1,2.8-8.9c4.7-0.8,9.4-2,14.6-3.7
		c2.7-0.9,5.8-2,7.8-4.3c2.1-2.4,2.9-6.5,0.5-9.1c-1.3-1.4-3.4-2.1-5.6-1.9c-2.1,0.2-3.9,1.2-5.2,2c-5.6,3.3-10.3,8.7-13.4,15.2
		C20,23,11.7,23.3,0.5,23.5c-0.6,0-1,0.5-1,1c0,0.5,0.5,1,1,1c0,0,0,0,0,0c10.7-0.1,18.8-0.5,26.6-1.7c-1.1,2.6-1.9,5.3-2.4,8.1
		c-0.7,3.9-1,8-0.8,12.4c-7,1-13.6,2.3-19.8,3.5c-1.3,0.3-2.6,0.5-3.8,0.8c-0.5,0.1-0.9,0.6-0.8,1.2c0.1,0.5,0.6,0.9,1.2,0.8
		c1.3-0.2,2.5-0.5,3.8-0.8c6.1-1.2,12.7-2.5,19.5-3.5c0.4,5,1.4,10.2,3,15.7c-3.1,0.8-5.7,3.3-7,6.6c-0.6,1.6-0.9,3.2-0.8,4.7
		C13.1,74,6.9,74.1,0.6,73.5c-0.6,0-1,0.4-1.1,0.9c0,0.5,0.4,1,0.9,1.1c6.4,0.6,12.8,0.5,19.1-0.2c0.3,1,0.6,1.9,1.2,2.7
		c1.6,2.5,4.3,4.2,7.8,5.2C24,85.9,19,89.8,16.3,99.2c-0.2,0.5,0.2,1.1,0.7,1.2c0.1,0,0.2,0,0.3,0c0.4,0,0.8-0.3,1-0.7
		c2.9-10.1,8.4-13.3,13.3-16c1.2,0.2,2.4,0.3,3.8,0.3c2.5,0.1,5.1-0.1,7.6-0.3c2.6,4,5,9.1,6.7,16c0.1,0.5,0.5,0.8,1,0.8
		c0.1,0,0.2,0,0.2,0c0.5-0.1,0.9-0.7,0.7-1.2c-1.6-6.7-4-11.7-6.5-15.8c6.2-0.9,12.3-2.7,18-5.4c5.1-2.5,8.6-5.1,11.1-8.4
		c1.3-1.7,2.3-3.7,2.8-5.6c0.3,0.4,0.6,0.7,0.9,1.1c6.5,8.8,8.2,20,5.1,34.2c-0.1,0.5,0.2,1.1,0.8,1.2c0.1,0,0.1,0,0.2,0
		c0.5,0,0.9-0.3,1-0.8C88.2,84.9,86.4,73.2,79.5,63.9z M42.5,8.1c1.8-1,3.1-1.6,4.4-1.7c0.2,0,0.4,0,0.6,0c1.3,0,2.6,0.5,3.3,1.3
		c1.6,1.7,1,4.7-0.6,6.4c-1.7,2-4.4,2.9-6.9,3.7c-4.5,1.4-8.7,2.5-12.9,3.3C33.5,15.6,37.6,11,42.5,8.1z M75.1,56.6
		c0.3,0.9,0.4,1.8,0.5,2.7c-0.7-0.8-1.5-1.6-2.2-2.4c-0.9-0.9-1.7-1.8-2.6-2.8c0.6-0.5,1.3-1,1.9-1.5C73.8,53.8,74.6,55.1,75.1,56.6
		z M69.5,52.6c-1.2-1.4-2.3-2.8-3.2-4.3c2,0.8,3.6,1.8,5,2.9C70.6,51.7,70,52.1,69.5,52.6z M63.1,41.1c-0.6-3.1,0.1-6.8,1.9-9.3
		c0.9-1.2,2.4-2.7,4.7-3.1c0.3,0,0.6-0.1,0.8-0.1c3.2,0,6.5,2.5,7.6,6c1.1,3.4,0.3,7.6-2.1,11.2c-1,1.5-2.2,2.8-3.4,4
		c-2-1.7-4.7-3.1-8-4.2C64,44.2,63.4,42.7,63.1,41.1z M58.7,46.1c1.7,0.3,3.2,0.7,4.6,1.1c1.2,2.3,2.8,4.5,4.6,6.5
		c-0.2,0.1-0.4,0.3-0.6,0.4C58.6,60.3,49.6,65,40.5,68.3c-0.5-1.4-1.5-2.7-2.7-3.7c-2.4-2.1-5.7-3.1-8.8-2.9
		c-1.6-5.5-2.6-10.7-3-15.6C36.8,44.6,48.1,44.1,58.7,46.1z M39.1,72.5c-0.1,0.9-0.3,1.7-0.6,2.4c-0.6-0.7-1.3-1.4-1.9-2
		c-0.3-0.3-0.6-0.6-0.9-1c1.1-0.3,2.2-0.7,3.4-1.1C39.1,71.5,39.1,72,39.1,72.5z M34.2,70.3c-1.9-2.1-3.5-4.2-4.5-6.7
		c0.1,0,0.1,0,0.2,0c2.4,0,4.8,0.9,6.6,2.5c1,0.8,1.7,1.8,2.1,2.9C37.1,69.5,35.7,69.9,34.2,70.3z M21.9,69.3
		c1.1-2.8,3.2-4.8,5.8-5.4c1,2.7,2.6,4.9,4.4,7c-3.6,0.9-7.2,1.6-10.8,2.1C21.2,71.8,21.4,70.6,21.9,69.3z M31.2,81.7
		C27,81,24,79.4,22.4,76.9c-0.4-0.6-0.6-1.2-0.8-1.8c4-0.5,8-1.4,12-2.4c0.5,0.6,1.1,1.1,1.6,1.7c0.8,0.8,1.6,1.7,2.4,2.6
		C36.1,79,33.8,80.2,31.2,81.7z M35.4,82.1c-0.3,0-0.5,0-0.8,0c1.6-1,3.1-2.1,4.3-3.6c0.9,1.1,1.8,2.2,2.7,3.4
		C39.5,82,37.5,82.1,35.4,82.1z M72.6,68.4c-2.3,3-5.5,5.5-10.4,7.8c-5.8,2.8-12,4.6-18.4,5.4c-1.3-1.9-2.6-3.5-3.9-5
		c0.5-1.1,0.9-2.4,1.1-3.9c0.1-0.9,0.1-1.7-0.1-2.5c9.3-3.3,18.5-8.1,27.4-14.4c0.2-0.2,0.5-0.3,0.7-0.5c0.9,1,1.8,2,2.7,2.9
		c1.2,1.3,2.4,2.5,3.5,3.8C75,64.3,74.1,66.5,72.6,68.4z"/>
</g>
</svg>
