<?xml version="1.0" encoding="utf-8"?>
<!-- Generator: Adobe Illustrator 26.5.1, SVG Export Plug-In . SVG Version: 6.00 Build 0)  -->
<svg version="1.1" id="Ebene_1" xmlns="http://www.w3.org/2000/svg" xmlns:xlink="http://www.w3.org/1999/xlink" x="0px" y="0px"
	 viewBox="0 0 100 100" style="enable-background:new 0 0 100 100;" xml:space="preserve">
<g>
	<path d="M55.8,57l-1.6-0.7c-0.6-0.3-1.2-0.5-1.8-0.8c4.7-6.6,7.9-13.7,7.9-21.5c0-2.1-0.1-4-0.2-5.7c2.4-1.4,4.5-2.6,6.2-3.8
		c7.6-5.4,15.1-12.1,18-24.3c0.1-0.5-0.2-1.1-0.7-1.2c-0.5-0.1-1.1,0.2-1.2,0.7c-2.7,11.5-9.8,17.9-17.2,23.1
		c-1.5,1-3.3,2.1-5.3,3.3c-0.7-5.4-2.3-8.9-4-12.9C54.3,9.7,52.6,5.8,51-0.3c-0.1-0.5-0.7-0.8-1.2-0.7c-0.5,0.1-0.8,0.7-0.7,1.2
		c1.7,6.2,3.5,10.2,5,13.8c1.9,4.3,3.4,7.7,4,13.2c-0.3,0.2-0.5,0.3-0.8,0.5c-7.4,4.2-16.4,9.4-22.5,16.6
		C20.4,32.3,14.1,16.7,17.6,0.2c0.1-0.5-0.2-1.1-0.8-1.2c-0.5-0.1-1.1,0.2-1.2,0.8C12,17.1,18.5,33.3,33.4,45.9
		c-3.2,4.2-5.4,9-5.8,14.7c-0.4,5.9,1.6,10.5,4.5,14.8c-7.2,7.7-13.9,15.6-16.4,24.3c-0.2,0.5,0.2,1.1,0.7,1.2c0.1,0,0.2,0,0.3,0
		c0.4,0,0.8-0.3,1-0.7c2.4-8.2,8.6-15.6,15.7-23.2c1.5,1.9,3.1,3.8,4.7,5.7c4.4,5.1,8.9,10.4,11,17.5c0.1,0.4,0.5,0.7,1,0.7
		c0.1,0,0.2,0,0.3,0c0.5-0.2,0.8-0.7,0.7-1.2c-2.2-7.5-6.9-12.9-11.4-18.2c-1.7-2-3.4-3.9-4.8-5.9c1-1,2-2.1,3-3.1
		c4.8-5,9.6-10,13.6-15.3c0.7,0.3,1.4,0.7,2.2,1l1.6,0.7c12.8,5.7,32.2,14.3,27.4,41c-0.1,0.5,0.3,1.1,0.8,1.2c0.1,0,0.1,0,0.2,0
		c0.5,0,0.9-0.3,1-0.8C89.4,72,69.2,63,55.8,57z M58.2,29.4C58.2,29.4,58.2,29.4,58.2,29.4c0.1,1.4,0.1,2.9,0.1,4.6
		c0,7.4-3.2,14.2-7.8,20.6c-5.4-2.7-10.2-5.7-14.3-9C42.2,38.6,51,33.6,58.2,29.4z M36.2,71.1c-0.9,0.9-1.8,1.9-2.7,2.8
		c-2.6-3.9-4.3-8.1-3.9-13.2C30,55.5,32,51.1,35,47.2c4.2,3.3,9,6.4,14.4,9.1C45.5,61.3,40.8,66.3,36.2,71.1z"/>
</g>
</svg>
