<?xml version="1.0" encoding="utf-8"?>
<!-- Generator: Adobe Illustrator 26.5.1, SVG Export Plug-In . SVG Version: 6.00 Build 0)  -->
<svg version="1.1" id="Ebene_1" xmlns="http://www.w3.org/2000/svg" xmlns:xlink="http://www.w3.org/1999/xlink" x="0px" y="0px"
	 viewBox="0 0 100 100" style="enable-background:new 0 0 100 100;" xml:space="preserve">
<g>
	<path d="M99.7,51c0.5-0.1,0.9-0.7,0.8-1.2c-0.1-0.5-0.7-0.9-1.2-0.8c-2.6,0.6-5,0.6-7.3,0.2c-1.3-5.6-5.9-10.4-11.8-12.5
		c-0.7-0.2-1.3-0.4-2-0.6c6-5.7,13.3-9.8,21.4-10.2c0.6,0,1-0.5,0.9-1c0-0.6-0.5-1-1-0.9c-9.1,0.5-17.2,5.3-23.7,11.8
		c-1.4-0.2-2.9-0.2-4.4,0c-5.1-3.9-11.1-6.3-17.3-6.9c3.3-3.4,7.4-6.1,11.3-8.7c7.4-4.9,15-9.9,18.4-19.8c0.2-0.5-0.1-1.1-0.6-1.3
		c-0.5-0.2-1.1,0.1-1.3,0.6c-3.2,9.2-10.2,13.8-17.6,18.7c-4.5,3-9.1,6.1-12.8,10.2c-0.1,0-0.2,0-0.4,0c0,0-0.1,0-0.1,0
		c-4,0-8,0.8-11.7,2.4c0,0-0.1-0.1-0.1-0.1c0.6-1.2,1.4-2.5,2.2-3.8c0.8-1.3,1.7-2.5,2.6-3.7c2-2.7,4-5.6,5.5-8.7
		c2.4-4.9,2.6-9.1,1-15c-0.1-0.5-0.7-0.8-1.2-0.7c-0.5,0.2-0.8,0.7-0.7,1.2c1.5,5.4,1.3,9.1-0.8,13.6c-1.4,3-3.4,5.7-5.3,8.4
		c-0.9,1.2-1.8,2.5-2.6,3.8c-0.7,1.1-1.5,2.3-2.2,3.7c-1.2-0.8-2.4-1.7-3.6-2.5c-3.7-2.5-7.5-5-10.6-8.2c-6.1-6.2-8.1-12.2-6.2-18.9
		C17.3-0.3,17-0.8,16.4-1c-0.5-0.1-1.1,0.2-1.2,0.7c-2,7.3,0.2,14.1,6.7,20.8c3.2,3.3,7.1,5.9,10.9,8.4c1.3,0.8,2.5,1.7,3.8,2.6
		c-0.1,0.3-0.3,0.6-0.4,0.9c-3.3,1.8-6.2,4.2-8.4,7.1c-5.7,7.2-7.2,17.1-4,25.3c1.2,3.2,3.1,6,5.3,8.6c-1.7,2-3.5,4-5,6.1
		c-4.4,5.9-6.7,11.2-8.8,20.1c-0.1,0.5,0.2,1.1,0.7,1.2c0.1,0,0.2,0,0.2,0c0.5,0,0.9-0.3,1-0.8c2-8.6,4.3-13.7,8.5-19.3
		c1.5-2,3.1-3.9,4.7-5.8c1.6,1.8,3.3,3.6,5,5.3c0.6,0.7,1.3,1.3,1.9,2c5.2,5.4,9.1,10.5,11.2,17.9c0.1,0.4,0.5,0.7,1,0.7
		c0.1,0,0.2,0,0.3,0c0.5-0.1,0.8-0.7,0.7-1.2c-2.2-7.8-6.3-13.2-11.7-18.8c-0.6-0.7-1.3-1.3-1.9-2c-1.7-1.8-3.5-3.6-5.1-5.4
		c0.7-0.7,1.3-1.5,2-2.2c2-2.3,4.1-4.6,6.1-7c1.6-2,3.2-4.1,4.7-6.1c3.4,2.8,7.1,5.2,11.1,7c3.6,3.8,7.6,6,13.6,7.7
		c3,0.9,6.2,1.2,9.5,1.4c0.4,0.7,0.8,1.5,1.2,2.2c3.1,6.3,3.8,14.7,1.9,23.2c-0.1,0.5,0.2,1.1,0.8,1.2c0.1,0,0.1,0,0.2,0
		c0.5,0,0.9-0.3,1-0.8c2-8.9,1.2-17.9-2-24.5c-0.2-0.4-0.4-0.8-0.7-1.2c0.9,0,1.8,0.1,2.7,0.1c4.9,0.2,10,0.3,15.5,1.4c0,0,0,0,0,0
		c0,0,0,0,0,0c0.1,0,0.1,0,0.2,0c0.1,0,0.2,0,0.3-0.1c0,0,0.1,0,0.1-0.1c0.1,0,0.1-0.1,0.2-0.1c0,0,0.1-0.1,0.1-0.1
		c0,0,0.1-0.1,0.1-0.1c0,0,0-0.1,0.1-0.1c0-0.1,0.1-0.1,0.1-0.2c0,0,0,0,0,0c0,0,0,0,0,0c0-0.1,0-0.1,0-0.2c0-0.1,0-0.1,0-0.2
		c0-0.1,0-0.1-0.1-0.1c0-0.1,0-0.1-0.1-0.2c0,0-0.1-0.1-0.1-0.1c-0.1-0.1-0.1-0.1-0.2-0.2c-0.1,0-0.1-0.1-0.2-0.1
		c-0.1,0-0.1-0.1-0.2-0.1c0,0,0,0,0,0c0,0,0,0,0,0c-3.7-0.7-5.9-1.7-8.1-2.7c-1.8-0.8-3.4-1.5-5.6-2c-0.9-0.2-1.7-0.4-2.6-0.5
		c0.4-0.3,0.9-0.6,1.3-1c5.3-4.3,8.2-10.7,7.6-16.6C94.6,51.6,97.1,51.5,99.7,51z M76.5,37.9c1.1,0.2,2.1,0.4,3.1,0.8
		c4.8,1.6,8.7,5.6,10.2,10.1c-7-2-12.2-7.3-14.4-9.4l-0.1-0.1C75.7,38.7,76.1,38.3,76.5,37.9z M65.3,57.9c3,3,6.1,6.2,8.8,9.7
		c-2.9-0.3-5.9-0.7-8.7-1.3c-0.4-0.6-0.8-1.2-1-1.8c-0.8-2.4-0.5-5,0.2-7.2C64.9,57.5,65.1,57.7,65.3,57.9z M76,70
		c-1,0.2-2,0.3-3,0.2c-1.7-0.1-3.3-0.6-4.7-1.4c2.2,0.4,4.4,0.6,6.6,0.9c0.3,0,0.6,0.1,0.9,0.1C75.9,69.9,75.9,69.9,76,70z
		 M62.6,65.1c0.1,0.2,0.1,0.3,0.2,0.5c-2-0.6-4.1-1.3-6-2.1c-1.4-1.5-2.7-3.3-4.1-5.4c-1.3-1.9-2.3-4.1-3.2-6.4
		c1.4-1.7,2.9-3.4,4.4-5c3,2.9,6.1,5.9,9.1,8.9C62.1,58.4,61.4,61.9,62.6,65.1z M36.6,40.2c0-2,0.4-4.1,1.3-6.3
		c0.4-0.2,0.8-0.4,1.2-0.6c2.4,1.9,4.8,3.9,7,6c-0.7,4.1-0.1,8.3,1.2,12.1c-1,1.3-2.1,2.6-3.1,4C40.8,52.1,36.5,46.7,36.6,40.2z
		 M47.9,41c1.1,1.1,2.3,2.1,3.4,3.2c0.4,0.4,0.8,0.8,1.2,1.2c-1.3,1.3-2.5,2.7-3.7,4.1C48,46.7,47.7,43.8,47.9,41z M55.4,45.4
		c2.3-2.1,4.8-3.9,7.6-5.3c2.5-1.2,5.1-2,7.7-2.3c0.6,0.5,1.2,1,1.8,1.5c-3.7,4.5-6.7,9.5-8.7,14.3C61,50.9,58.2,48.1,55.4,45.4z
		 M74,37.6c0,0-0.1,0.1-0.1,0.1c-0.1,0-0.1-0.1-0.2-0.1C73.8,37.6,73.9,37.6,74,37.6z M68.5,36.1c-2.2,0.4-4.3,1.2-6.4,2.2
		c-3.1,1.5-5.7,3.5-8.2,5.7c-0.4-0.4-0.9-0.8-1.3-1.3c-1.4-1.4-2.9-2.8-4.4-4.2c0.4-1.8,1-3.5,2-5c0.6-1,1.4-2,2.1-2.9
		C58.1,31,63.7,32.9,68.5,36.1z M48.6,32.5c-0.9,1.4-1.5,3-2,4.5c-1.8-1.6-3.5-3.1-5.4-4.6c2.8-1,5.7-1.6,8.7-1.8
		C49.4,31.3,49,31.9,48.6,32.5z M38.2,63.1c-1.9,2.4-4,4.7-6,6.9c-0.6,0.7-1.2,1.3-1.8,2c-1.9-2.4-3.6-5-4.7-7.8
		c-3-7.6-1.5-16.7,3.7-23.4c1.6-2.1,3.6-3.9,5.9-5.4c-0.4,1.5-0.7,3.1-0.7,4.7c0,7.4,4.7,13.3,8.4,16.8C41.4,59,39.8,61.1,38.2,63.1
		z M45.7,56.7C45.7,56.7,45.7,56.7,45.7,56.7c0.7-1.1,1.5-2.1,2.3-3.1c0.8,2.1,1.9,4,3,5.7c0.5,0.8,1,1.5,1.5,2.2
		C50.1,60.1,47.8,58.5,45.7,56.7z M63,67.8c0.4,0.1,0.8,0.2,1.3,0.3c0.5,0.6,1.2,1.2,1.9,1.7c-1.9-0.7-3.6-1.6-5.2-2.6
		C61.7,67.4,62.3,67.6,63,67.8z M75.6,72.1c0.5-0.1,1.1-0.2,1.6-0.3c0.1,0.2,0.2,0.3,0.3,0.5C76.9,72.2,76.2,72.2,75.6,72.1z
		 M85.5,71.3c1.6,0.4,3,0.9,4.3,1.5c-2-0.1-4-0.2-5.9-0.2c-1.3,0-2.6-0.1-3.9-0.1c-0.3-0.4-0.5-0.9-0.8-1.3c0.5-0.2,1-0.4,1.5-0.7
		C82.3,70.7,83.9,71,85.5,71.3z M83.4,66.3c-1,0.8-2,1.5-3.1,2.1c-1.1-0.2-2.3-0.3-3.4-0.4c-3.1-4.1-6.7-7.9-10.2-11.4
		c-0.5-0.5-0.9-0.9-1.4-1.4c0.1-0.1,0.1-0.3,0.2-0.4c1.9-4.7,4.8-9.6,8.4-14c2.4,2.4,8.3,8.3,16.3,10.2C91,56.3,88.4,62.3,83.4,66.3
		z"/>
</g>
</svg>
