<?xml version="1.0" encoding="utf-8"?>
<!-- Generator: Adobe Illustrator 26.5.1, SVG Export Plug-In . SVG Version: 6.00 Build 0)  -->
<svg version="1.1" id="Ebene_1" xmlns="http://www.w3.org/2000/svg" xmlns:xlink="http://www.w3.org/1999/xlink" x="0px" y="0px"
	 viewBox="0 0 100 100" style="enable-background:new 0 0 100 100;" xml:space="preserve">
<g>
	<path d="M91.5,31.6c-0.8-3.4-2.1-6.7-3.3-9.8c-0.7-1.7-1.4-3.4-2-5.2c-1.8-5.2-2.7-9.8-1.3-15.9c0.1-0.5-0.2-1.1-0.8-1.2
		c-0.5-0.1-1.1,0.2-1.2,0.8c-1.6,6.9-0.2,12.2,1.4,17c0.6,1.8,1.3,3.6,2,5.3c1.2,3.1,2.5,6.3,3.3,9.5c2.6,11.2-1.5,23.9-10,31.6
		C70.9,71.5,58.2,74.3,47,71c-2.8-0.8-5.4-2.1-7.9-3.6c6.1,1.4,13.1,0.8,20-1.9c4-1.6,6.8-3.4,8.7-5.8c2.5-3.1,3.1-7.3,1.6-10.5
		c-2.4-4.8-8.8-5.9-14.1-4.8c-7.4,1.5-11.6,6.2-15.9,11.2c-2,2.3-4,4.6-6.5,6.7c-4.2-4.1-7.4-9.2-9.1-14.8c1.6-0.6,3.3-1.3,4.9-2.2
		c1.3-0.7,2.5-1.5,3.6-2.4c1.2,0.1,2.4,0.2,3.5,0.3c1.6,0.1,3.4,0.3,5,0.5c10.2,1.4,21-1.2,29.5-6.9c3.1-2.1,5.2-4.2,6.5-6.5
		c1.8-3.1,2-6.6,0.8-9.4c-1.9-4-6.4-5.6-10-5.9c-7.2-0.4-14.7,3.4-22.3,11.4c-1.4,1.5-2.8,3.1-4.2,4.7c-3,3.4-6,6.8-9.4,9.6
		c-2.5-0.3-4.9-0.7-7.1-1.6c1.2-3.3,3.4-6.2,6.5-8.7c2.4-1.9,5.1-3.5,7.8-5C47,20.8,55.6,16,51.5,0.2c-0.1-0.5-0.7-0.8-1.2-0.7
		c-0.5,0.1-0.9,0.7-0.7,1.2C53.2,15,46,19.1,37.7,23.8c-2.7,1.6-5.6,3.2-8.1,5.2c-3.4,2.8-5.7,5.9-7.1,9.5c-0.1-0.1-0.3-0.1-0.4-0.2
		c-0.1-5,0.8-10,2.6-14.6c2.4-0.6,4.7-1.3,7.1-2.1c2.2-0.8,4.8-1.8,6.3-4c0.9-1.3,1.3-3.1,1-4.7c-0.3-1.3-1-2.3-2-2.9
		c-3-1.8-6.4,0.6-8.5,3.1c-2.2,2.7-4,5.7-5.4,8.9c-3.3,0.7-6.6,1.3-9.9,1.6C13.3,19.1,14.6,14.4,16,9c0.7-2.6,1.5-5.3,2.1-8.3
		c0.1-0.5-0.2-1.1-0.8-1.2c-0.5-0.1-1.1,0.2-1.2,0.8c-0.6,2.9-1.4,5.6-2.1,8.2c-1.5,5.5-2.9,10.5-2.7,15.3c-3.7,0.4-7.4,0.6-11,0.7
		c-0.6,0-1,0.5-1,1c0,0.6,0.5,1,1,1c3.6-0.1,7.3-0.4,11.1-0.7c0.3,2,0.9,4.1,1.9,6.1c1.8,3.6,4.1,5.9,6.7,7.6c0.1,2.3,0.5,4.6,1,6.9
		c-3.6,1-7.3,1.4-11.4,1.9c-3,0.3-6.2,0.7-9.5,1.3c-0.5,0.1-0.9,0.6-0.8,1.2c0.1,0.5,0.5,0.8,1,0.8c0.1,0,0.1,0,0.2,0
		c3.2-0.6,6.3-1,9.3-1.3c3.9-0.4,7.7-0.9,11.3-1.9c0,0.2,0,0.5,0.1,0.7c0.6,5.8,4.3,11.3,9.5,14.9c-6.1,4.8-17.4,11.8-30.3,10.6
		c-0.5,0-1,0.4-1.1,0.9c0,0.5,0.4,1,0.9,1.1c1.1,0.1,2.1,0.1,3.1,0.1c12.7,0,23.4-6.9,29.1-11.6c4,3.6,8.7,6.3,13.7,7.8
		c3.3,1,6.7,1.5,10.1,1.5c8.9,0,17.7-3.2,24.3-9.2C90.1,56.8,94.2,43.7,91.5,31.6z M40.7,57c4.3-4.9,8.1-9.2,14.8-10.6
		c4.6-0.9,10-0.1,11.9,3.7c1.4,2.8,0.3,6.2-1.4,8.3c-1.7,2.1-4.2,3.7-7.9,5.1c-7.6,2.9-15.3,3.3-21.6,1c-0.8-0.3-1.5-0.6-2.3-1
		C36.8,61.5,38.8,59.2,40.7,57z M42.5,32.6c1.4-1.5,2.7-3.1,4.2-4.6c7.1-7.5,14.1-11.2,20.7-10.8c3,0.2,6.8,1.5,8.3,4.7
		c1,2.2,0.7,5.1-0.7,7.6c-1.2,2.1-3,3.9-5.9,5.8c-8.1,5.5-18.4,7.9-28.1,6.6c-1.7-0.2-3.4-0.4-5.1-0.5c-0.5,0-1-0.1-1.5-0.1
		C37.2,38.5,39.9,35.5,42.5,32.6z M30.2,14.3c1-1.3,2.9-3,4.7-3c0.4,0,0.8,0.1,1.2,0.3c0.7,0.4,1,1.1,1.1,1.6c0.2,1,0,2.3-0.7,3.1
		c-1.2,1.7-3.4,2.6-5.4,3.3c-1.8,0.6-3.6,1.2-5.4,1.7C27,18.8,28.5,16.5,30.2,14.3z M29.2,42.6c-0.6,0.4-1.1,0.7-1.7,1.1
		c-1.4,0.8-2.8,1.5-4.3,2c0-1.5,0.2-3,0.6-4.4C25.5,41.9,27.4,42.3,29.2,42.6z M15.3,31c-0.9-1.8-1.4-3.6-1.7-5.4
		c2.9-0.3,5.9-0.8,8.8-1.4c-1.5,4.1-2.2,8.4-2.3,12.8C18.3,35.5,16.7,33.6,15.3,31z"/>
</g>
</svg>
