<?xml version="1.0" encoding="utf-8"?>
<!-- Generator: Adobe Illustrator 26.5.1, SVG Export Plug-In . SVG Version: 6.00 Build 0)  -->
<svg version="1.1" id="Ebene_1" xmlns="http://www.w3.org/2000/svg" xmlns:xlink="http://www.w3.org/1999/xlink" x="0px" y="0px"
	 viewBox="0 0 100 100" style="enable-background:new 0 0 100 100;" xml:space="preserve">
<g>
	<g>
		<path d="M50,196.3c-80.7,0-146.3-65.6-146.3-146.3C-96.3-30.7-30.7-96.3,50-96.3c80.7,0,146.3,65.6,146.3,146.3
			C196.3,130.7,130.7,196.3,50,196.3z M50-95.3C-30.1-95.3-95.3-30.1-95.3,50S-30.1,195.3,50,195.3S195.3,130.1,195.3,50
			S130.1-95.3,50-95.3z"/>
		<path d="M50,188c-76.1,0-138-61.9-138-138C-88-26.1-26.1-88,50-88c76.1,0,138,61.9,138,138C188,126.1,126.1,188,50,188z M50-87
			C-25.5-87-87-25.5-87,50c0,75.5,61.5,137,137,137c75.5,0,137-61.5,137-137C187-25.5,125.5-87,50-87z"/>
		<path d="M50,179.7c-71.5,0-129.7-58.2-129.7-129.7C-79.7-21.5-21.5-79.7,50-79.7c71.5,0,129.7,58.2,129.7,129.7
			C179.7,121.5,121.5,179.7,50,179.7z M50-78.7C-20.9-78.7-78.7-20.9-78.7,50c0,70.9,57.7,128.7,128.7,128.7
			c70.9,0,128.7-57.7,128.7-128.7C178.7-20.9,120.9-78.7,50-78.7z"/>
		<path d="M50,171.3c-66.9,0-121.3-54.4-121.3-121.3S-16.9-71.3,50-71.3S171.3-16.9,171.3,50S116.9,171.3,50,171.3z M50-70.3
			c-66.4,0-120.3,54-120.3,120.3c0,66.4,54,120.3,120.3,120.3c66.4,0,120.3-54,120.3-120.3C170.3-16.4,116.4-70.3,50-70.3z"/>
		<path d="M50,163c-62.3,0-113-50.7-113-113S-12.3-63,50-63S163-12.3,163,50S112.3,163,50,163z M50-62C-11.8-62-62-11.8-62,50
			c0,61.8,50.2,112,112,112c61.8,0,112-50.2,112-112C162-11.8,111.8-62,50-62z"/>
		<path d="M50,154.7c-57.7,0-104.7-47-104.7-104.7S-7.7-54.7,50-54.7S154.7-7.7,154.7,50S107.7,154.7,50,154.7z M50-53.7
			C-7.2-53.7-53.7-7.2-53.7,50c0,57.2,46.5,103.7,103.7,103.7c57.2,0,103.7-46.5,103.7-103.7C153.7-7.2,107.2-53.7,50-53.7z"/>
		<path d="M50,146.3c-53.1,0-96.3-43.2-96.3-96.3S-3.1-46.3,50-46.3S146.3-3.1,146.3,50S103.1,146.3,50,146.3z M50-45.3
			C-2.6-45.3-45.3-2.6-45.3,50s42.8,95.3,95.3,95.3s95.3-42.8,95.3-95.3S102.6-45.3,50-45.3z"/>
		<path d="M50,138c-48.5,0-88-39.5-88-88c0-48.5,39.5-88,88-88c48.5,0,88,39.5,88,88C138,98.5,98.5,138,50,138z M50-37
			C2-37-37,2-37,50s39,87,87,87s87-39,87-87S98-37,50-37z"/>
		<path d="M50,129.7c-43.9,0-79.7-35.7-79.7-79.7c0-43.9,35.7-79.7,79.7-79.7c43.9,0,79.7,35.7,79.7,79.7
			C129.7,93.9,93.9,129.7,50,129.7z M50-28.7C6.6-28.7-28.7,6.6-28.7,50S6.6,128.7,50,128.7s78.7-35.3,78.7-78.7S93.4-28.7,50-28.7z
			"/>
		<path d="M50,121.3c-39.3,0-71.3-32-71.3-71.3s32-71.3,71.3-71.3s71.3,32,71.3,71.3S89.3,121.3,50,121.3z M50-20.3
			c-38.8,0-70.3,31.6-70.3,70.3c0,38.8,31.6,70.3,70.3,70.3c38.8,0,70.3-31.6,70.3-70.3C120.3,11.2,88.8-20.3,50-20.3z"/>
		<path d="M50,113c-34.7,0-63-28.3-63-63s28.3-63,63-63s63,28.3,63,63S84.7,113,50,113z M50-12c-34.2,0-62,27.8-62,62s27.8,62,62,62
			s62-27.8,62-62S84.2-12,50-12z"/>
		<path d="M50,104.7C19.9,104.7-4.7,80.1-4.7,50S19.9-4.7,50-4.7s54.7,24.5,54.7,54.7S80.1,104.7,50,104.7z M50-3.7
			C20.4-3.7-3.7,20.4-3.7,50c0,29.6,24.1,53.7,53.7,53.7c29.6,0,53.7-24.1,53.7-53.7C103.7,20.4,79.6-3.7,50-3.7z"/>
		<path d="M50,96.3C24.5,96.3,3.7,75.5,3.7,50S24.5,3.7,50,3.7S96.3,24.5,96.3,50S75.5,96.3,50,96.3z M50,4.7C25,4.7,4.7,25,4.7,50
			C4.7,75,25,95.3,50,95.3C75,95.3,95.3,75,95.3,50C95.3,25,75,4.7,50,4.7z"/>
		<path d="M50,88c-21,0-38-17-38-38c0-21,17-38,38-38c21,0,38,17,38,38C88,71,71,88,50,88z M50,13c-20.4,0-37,16.6-37,37
			s16.6,37,37,37s37-16.6,37-37S70.4,13,50,13z"/>
		<path d="M50,79.7c-16.4,0-29.7-13.3-29.7-29.7c0-16.4,13.3-29.7,29.7-29.7c16.4,0,29.7,13.3,29.7,29.7
			C79.7,66.4,66.4,79.7,50,79.7z M50,21.3c-15.8,0-28.7,12.9-28.7,28.7c0,15.8,12.9,28.7,28.7,28.7c15.8,0,28.7-12.9,28.7-28.7
			C78.7,34.2,65.8,21.3,50,21.3z"/>
		<path d="M50,71.3c-11.8,0-21.3-9.6-21.3-21.3c0-11.8,9.6-21.3,21.3-21.3c11.8,0,21.3,9.6,21.3,21.3C71.3,61.8,61.8,71.3,50,71.3z
			 M50,29.7c-11.2,0-20.3,9.1-20.3,20.3c0,11.2,9.1,20.3,20.3,20.3c11.2,0,20.3-9.1,20.3-20.3C70.3,38.8,61.2,29.7,50,29.7z"/>
		<path d="M50,63c-7.2,0-13-5.8-13-13c0-7.2,5.8-13,13-13c7.2,0,13,5.8,13,13C63,57.2,57.2,63,50,63z M50,38c-6.6,0-12,5.4-12,12
			s5.4,12,12,12s12-5.4,12-12S56.6,38,50,38z"/>
		<path d="M50,54.7c-2.6,0-4.7-2.1-4.7-4.7c0-2.6,2.1-4.7,4.7-4.7c2.6,0,4.7,2.1,4.7,4.7C54.7,52.6,52.6,54.7,50,54.7z M50,46.3
			c-2,0-3.7,1.6-3.7,3.7s1.6,3.7,3.7,3.7s3.7-1.6,3.7-3.7S52,46.3,50,46.3z"/>
	</g>
</g>
</svg>
