<?xml version="1.0" encoding="utf-8"?>
<!-- Generator: Adobe Illustrator 26.5.1, SVG Export Plug-In . SVG Version: 6.00 Build 0)  -->
<svg version="1.1" id="Ebene_1" xmlns="http://www.w3.org/2000/svg" xmlns:xlink="http://www.w3.org/1999/xlink" x="0px" y="0px"
	 viewBox="0 0 100 100" style="enable-background:new 0 0 100 100;" xml:space="preserve">
<g>
	<g>
		<path d="M50,192.2c-78.4,0-142.2-63.8-142.2-142.2c0-0.3,0.2-0.5,0.5-0.5s0.5,0.2,0.5,0.5c0,77.8,63.3,141.2,141.2,141.2
			S191.2,127.8,191.2,50c0-77.8-63.3-141.2-141.2-141.2c-0.3,0-0.5-0.2-0.5-0.5s0.2-0.5,0.5-0.5c78.4,0,142.2,63.8,142.2,142.2
			S128.4,192.2,50,192.2z"/>
		<path d="M50,183.8c-73.8,0-133.8-60-133.8-133.8S-23.8-83.8,50-83.8c0.3,0,0.5,0.2,0.5,0.5s-0.2,0.5-0.5,0.5
			C-23.2-82.8-82.8-23.2-82.8,50S-23.2,182.8,50,182.8S182.8,123.2,182.8,50c0-0.3,0.2-0.5,0.5-0.5s0.5,0.2,0.5,0.5
			C183.8,123.8,123.8,183.8,50,183.8z"/>
		<path d="M50,175.5c-69.2,0-125.5-56.3-125.5-125.5S-19.2-75.5,50-75.5S175.5-19.2,175.5,50c0,0.3-0.2,0.5-0.5,0.5
			s-0.5-0.2-0.5-0.5c0-68.6-55.9-124.5-124.5-124.5S-74.5-18.6-74.5,50S-18.6,174.5,50,174.5c0.3,0,0.5,0.2,0.5,0.5
			S50.3,175.5,50,175.5z"/>
		<path d="M50,167.2c-0.3,0-0.5-0.2-0.5-0.5s0.2-0.5,0.5-0.5c64.1,0,116.2-52.1,116.2-116.2S114.1-66.2,50-66.2S-66.2-14.1-66.2,50
			c0,0.3-0.2,0.5-0.5,0.5s-0.5-0.2-0.5-0.5C-67.2-14.6-14.6-67.2,50-67.2S167.2-14.6,167.2,50C167.2,114.6,114.6,167.2,50,167.2z"/>
		<path d="M50,158.8C-10,158.8-58.8,110-58.8,50c0-0.3,0.2-0.5,0.5-0.5s0.5,0.2,0.5,0.5c0,59.5,48.4,107.8,107.8,107.8
			S157.8,109.5,157.8,50S109.5-57.8,50-57.8c-0.3,0-0.5-0.2-0.5-0.5s0.2-0.5,0.5-0.5C110-58.8,158.8-10,158.8,50
			C158.8,110,110,158.8,50,158.8z"/>
		<path d="M50,150.5C-5.4,150.5-50.5,105.4-50.5,50C-50.5-5.4-5.4-50.5,50-50.5c0.3,0,0.5,0.2,0.5,0.5s-0.2,0.5-0.5,0.5
			C-4.9-49.5-49.5-4.9-49.5,50s44.6,99.5,99.5,99.5s99.5-44.6,99.5-99.5c0-0.3,0.2-0.5,0.5-0.5s0.5,0.2,0.5,0.5
			C150.5,105.4,105.4,150.5,50,150.5z"/>
		<path d="M50,142.2c-50.8,0-92.2-41.3-92.2-92.2c0-50.8,41.3-92.2,92.2-92.2S142.2-0.8,142.2,50c0,0.3-0.2,0.5-0.5,0.5
			s-0.5-0.2-0.5-0.5c0-50.3-40.9-91.2-91.2-91.2S-41.2-0.3-41.2,50c0,50.3,40.9,91.2,91.2,91.2c0.3,0,0.5,0.2,0.5,0.5
			S50.3,142.2,50,142.2z"/>
		<path d="M50,133.8c-0.3,0-0.5-0.2-0.5-0.5s0.2-0.5,0.5-0.5c45.7,0,82.8-37.2,82.8-82.8c0-45.7-37.2-82.8-82.8-82.8
			S-32.8,4.3-32.8,50c0,0.3-0.2,0.5-0.5,0.5s-0.5-0.2-0.5-0.5c0-46.2,37.6-83.8,83.8-83.8S133.8,3.8,133.8,50S96.2,133.8,50,133.8z"
			/>
		<path d="M50,125.5c-41.6,0-75.5-33.9-75.5-75.5c0-0.3,0.2-0.5,0.5-0.5s0.5,0.2,0.5,0.5c0,41.1,33.4,74.5,74.5,74.5
			s74.5-33.4,74.5-74.5c0-41.1-33.4-74.5-74.5-74.5c-0.3,0-0.5-0.2-0.5-0.5s0.2-0.5,0.5-0.5c41.6,0,75.5,33.9,75.5,75.5
			S91.6,125.5,50,125.5z"/>
		<path d="M50,117.2C13,117.2-17.2,87-17.2,50c0-37,30.1-67.2,67.2-67.2c0.3,0,0.5,0.2,0.5,0.5s-0.2,0.5-0.5,0.5
			c-36.5,0-66.2,29.7-66.2,66.2s29.7,66.2,66.2,66.2s66.2-29.7,66.2-66.2c0-0.3,0.2-0.5,0.5-0.5s0.5,0.2,0.5,0.5
			C117.2,87,87,117.2,50,117.2z"/>
		<path d="M50,108.8C17.6,108.8-8.8,82.4-8.8,50C-8.8,17.6,17.6-8.8,50-8.8s58.8,26.4,58.8,58.8c0,0.3-0.2,0.5-0.5,0.5
			s-0.5-0.2-0.5-0.5c0-31.9-25.9-57.8-57.8-57.8S-7.8,18.1-7.8,50c0,31.9,25.9,57.8,57.8,57.8c0.3,0,0.5,0.2,0.5,0.5
			S50.3,108.8,50,108.8z"/>
		<path d="M50,100.5c-0.3,0-0.5-0.2-0.5-0.5s0.2-0.5,0.5-0.5c27.3,0,49.5-22.2,49.5-49.5S77.3,0.5,50,0.5S0.5,22.7,0.5,50
			c0,0.3-0.2,0.5-0.5,0.5s-0.5-0.2-0.5-0.5C-0.5,22.2,22.2-0.5,50-0.5s50.5,22.7,50.5,50.5C100.5,77.8,77.8,100.5,50,100.5z"/>
		<path d="M50,92.2C26.7,92.2,7.8,73.3,7.8,50c0-0.3,0.2-0.5,0.5-0.5s0.5,0.2,0.5,0.5c0,22.7,18.5,41.2,41.2,41.2S91.2,72.7,91.2,50
			S72.7,8.8,50,8.8c-0.3,0-0.5-0.2-0.5-0.5s0.2-0.5,0.5-0.5c23.3,0,42.2,18.9,42.2,42.2C92.2,73.3,73.3,92.2,50,92.2z"/>
		<path d="M50,83.8c-18.7,0-33.8-15.2-33.8-33.8S31.3,16.2,50,16.2c0.3,0,0.5,0.2,0.5,0.5s-0.2,0.5-0.5,0.5
			c-18.1,0-32.8,14.7-32.8,32.8S31.9,82.8,50,82.8S82.8,68.1,82.8,50c0-0.3,0.2-0.5,0.5-0.5s0.5,0.2,0.5,0.5
			C83.8,68.7,68.7,83.8,50,83.8z"/>
		<path d="M50,75.5c-14.1,0-25.5-11.4-25.5-25.5S35.9,24.5,50,24.5S75.5,35.9,75.5,50c0,0.3-0.2,0.5-0.5,0.5s-0.5-0.2-0.5-0.5
			c0-13.5-11-24.5-24.5-24.5S25.5,36.5,25.5,50s11,24.5,24.5,24.5c0.3,0,0.5,0.2,0.5,0.5S50.3,75.5,50,75.5z"/>
		<path d="M50,67.2c-0.3,0-0.5-0.2-0.5-0.5s0.2-0.5,0.5-0.5c8.9,0,16.2-7.3,16.2-16.2S58.9,33.8,50,33.8S33.8,41.1,33.8,50
			c0,0.3-0.2,0.5-0.5,0.5s-0.5-0.2-0.5-0.5c0-9.5,7.7-17.2,17.2-17.2S67.2,40.5,67.2,50S59.5,67.2,50,67.2z"/>
		<path d="M50,58.8c-4.9,0-8.8-4-8.8-8.8c0-0.3,0.2-0.5,0.5-0.5s0.5,0.2,0.5,0.5c0,4.3,3.5,7.8,7.8,7.8s7.8-3.5,7.8-7.8
			c0-4.3-3.5-7.8-7.8-7.8c-0.3,0-0.5-0.2-0.5-0.5s0.2-0.5,0.5-0.5c4.9,0,8.8,4,8.8,8.8S54.9,58.8,50,58.8z"/>
	</g>
</g>
</svg>
