<?xml version="1.0" encoding="utf-8"?>
<!-- Generator: Adobe Illustrator 26.5.1, SVG Export Plug-In . SVG Version: 6.00 Build 0)  -->
<svg version="1.1" id="Ebene_1" xmlns="http://www.w3.org/2000/svg" xmlns:xlink="http://www.w3.org/1999/xlink" x="0px" y="0px"
	 viewBox="0 0 100 100" style="enable-background:new 0 0 100 100;" xml:space="preserve">
<g>
	<g>
		<path d="M50,142.7L50,142.7c-0.6,0-1-0.4-1-1s0.4-1,1-1c0.6,0,1,0.4,1,1S50.6,142.7,50,142.7z M52.6,142.6L52.6,142.6
			c-0.6,0-1-0.4-1-1s0.4-1,1-1s1,0.4,1,1S53.2,142.6,52.6,142.6z M46,142.6L46,142.6c-0.6,0-1-0.4-1-1s0.4-1,1-1s1,0.4,1,1
			S46.5,142.6,46,142.6z M56.6,142.4c-0.4,0-0.9-0.3-1-0.8c-0.1-0.5,0.2-1.1,0.7-1.2c0.6-0.2,1.3,0.3,1.3,1c0,0.5-0.4,0.9-0.9,1
			C56.7,142.4,56.7,142.4,56.6,142.4z M42,142.3c-0.1,0-0.2,0-0.3,0c-0.5-0.1-0.9-0.7-0.7-1.2c0.1-0.5,0.6-0.8,1.1-0.8
			c0.5,0,0.9,0.5,0.9,1C43,141.9,42.5,142.3,42,142.3z M60.6,142.1c-0.4,0-0.9-0.3-1-0.8c-0.1-0.5,0.2-1.1,0.7-1.2
			c0.6-0.2,1.3,0.3,1.3,1c0,0.5-0.4,0.9-0.9,1C60.7,142.1,60.6,142.1,60.6,142.1z M38,141.9c-0.1,0-0.2,0-0.3,0
			c-0.5-0.1-0.9-0.7-0.7-1.2c0.1-0.5,0.6-0.8,1.1-0.8c0.5,0.1,0.9,0.5,0.9,1C39,141.4,38.6,141.9,38,141.9z M64.6,141.5
			c-0.6,0-1-0.4-1-1c0-0.5,0.4-0.9,0.8-1c0.5-0.1,1,0.2,1.1,0.7c0.2,0.5-0.1,1.1-0.6,1.3C64.8,141.5,64.7,141.5,64.6,141.5z
			 M34,141.3c-0.1,0-0.1,0-0.2,0c-0.5-0.1-0.8-0.5-0.8-1c0-0.7,0.7-1.2,1.3-0.9c0.5,0.2,0.8,0.7,0.6,1.3
			C34.9,141,34.5,141.3,34,141.3z M68.5,140.8c-0.6,0-1-0.4-1-1c0-0.5,0.4-0.9,0.8-1c0.5-0.1,1,0.2,1.1,0.7c0.2,0.5-0.1,1.1-0.6,1.3
			C68.7,140.8,68.6,140.8,68.5,140.8z M30.1,140.5c-0.1,0-0.1,0-0.2,0c-0.5-0.1-0.8-0.5-0.8-1c0-0.7,0.7-1.2,1.3-0.9
			c0.5,0.2,0.8,0.7,0.6,1.3C30.9,140.2,30.5,140.5,30.1,140.5z M72.4,139.9c-0.4,0-0.9-0.3-1-0.8c-0.1-0.5,0.2-1.1,0.7-1.2
			c0.5-0.1,1.1,0.2,1.2,0.7c0.2,0.5-0.1,1.1-0.6,1.2c0,0-0.1,0-0.1,0C72.6,139.9,72.5,139.9,72.4,139.9z M26,139.5
			c-0.5-0.1-0.9-0.7-0.7-1.2c0.1-0.5,0.7-0.9,1.2-0.7L26,139.5z M76.3,138.8c-0.4,0-0.9-0.3-1-0.8c-0.1-0.5,0.2-1.1,0.7-1.2
			c0.5-0.1,1.1,0.2,1.2,0.7c0.2,0.5-0.1,1.1-0.6,1.2c0,0-0.1,0-0.1,0C76.5,138.8,76.4,138.8,76.3,138.8z M22.1,138.4
			c-0.5-0.1-0.9-0.7-0.7-1.2c0.1-0.5,0.7-0.9,1.2-0.7L22.1,138.4z M80.1,137.6c-0.4,0-0.9-0.3-1-0.8c-0.1-0.5,0.2-1.1,0.7-1.2
			c0.5-0.1,1.1,0.2,1.2,0.7s-0.1,1.1-0.6,1.2c0,0-0.1,0-0.1,0C80.3,137.6,80.2,137.6,80.1,137.6z M18.6,137.1c-0.1,0-0.2,0-0.3-0.1
			c0,0-0.1,0-0.1-0.1c-0.5-0.2-0.7-0.8-0.4-1.3c0.2-0.5,0.8-0.7,1.3-0.5c0.5,0.2,0.7,0.7,0.6,1.2C19.4,136.9,19,137.1,18.6,137.1z
			 M83.9,136.2c-0.4,0-0.7-0.2-0.9-0.6c-0.2-0.5,0-1.1,0.4-1.3c0,0,0.1,0,0.1-0.1c0.5-0.2,1.1,0.1,1.3,0.6c0.2,0.5-0.1,1.1-0.6,1.2
			C84.1,136.2,84,136.2,83.9,136.2z M14.8,135.7c-0.1,0-0.2,0-0.3-0.1c-0.1,0-0.2-0.1-0.2-0.1c-0.5-0.3-0.6-0.9-0.3-1.4
			c0.3-0.4,0.8-0.6,1.3-0.4c0.5,0.2,0.7,0.7,0.5,1.2C15.6,135.4,15.2,135.7,14.8,135.7z M87.5,134.6c-0.3,0-0.6-0.2-0.8-0.4
			c-0.3-0.5-0.2-1.1,0.3-1.4c0.1,0,0.2-0.1,0.2-0.1c0.5-0.2,1.1,0.1,1.3,0.6c0.2,0.5-0.1,1-0.5,1.2
			C87.8,134.6,87.7,134.6,87.5,134.6z M11.2,134c-0.1,0-0.2,0-0.3-0.1c-0.1,0-0.2-0.1-0.2-0.1c-0.5-0.3-0.6-0.9-0.3-1.4
			c0.3-0.4,0.8-0.6,1.3-0.4c0.5,0.2,0.7,0.7,0.5,1.2C12,133.8,11.6,134,11.2,134z M91.2,132.9c-0.4,0-0.8-0.3-0.9-0.7
			c-0.2-0.5,0.1-1,0.5-1.2c0.5-0.2,1-0.1,1.3,0.3c0.3,0.5,0.2,1.1-0.3,1.4c-0.1,0-0.2,0.1-0.2,0.1C91.4,132.9,91.3,132.9,91.2,132.9
			z M7.6,132.2c-0.2,0-0.3,0-0.5-0.1c-0.4-0.2-0.6-0.7-0.5-1.2c0.2-0.5,0.7-0.8,1.3-0.6c0.1,0,0.2,0.1,0.2,0.1
			c0.5,0.3,0.6,0.9,0.3,1.4C8.2,132.1,7.9,132.2,7.6,132.2z M94.7,131c-0.4,0-0.8-0.3-0.9-0.7c-0.2-0.5,0.1-1,0.5-1.2
			c0.4-0.2,1-0.1,1.3,0.3c0.3,0.5,0.2,1.1-0.3,1.4c-0.1,0-0.2,0.1-0.2,0.1C94.9,131,94.8,131,94.7,131z M4,130.3
			c-0.2,0-0.3,0-0.5-0.1c-0.4-0.2-0.6-0.7-0.5-1.2c0.2-0.5,0.7-0.8,1.3-0.6c0.1,0,0.2,0.1,0.2,0.1c0.5,0.3,0.6,0.9,0.3,1.4
			C4.7,130.1,4.4,130.3,4,130.3z M98.1,129c-0.4,0-0.8-0.3-0.9-0.7c-0.2-0.5,0.1-1,0.5-1.2c0.5-0.2,1-0.1,1.3,0.3
			c0.3,0.5,0.2,1.1-0.3,1.4c-0.1,0-0.2,0.1-0.2,0.1C98.3,129,98.2,129,98.1,129z M0.6,128.2c-0.2,0-0.4-0.1-0.5-0.2l0,0
			c-0.5-0.3-0.6-0.9-0.3-1.4c0.3-0.5,0.9-0.6,1.4-0.3c0.5,0.3,0.6,0.9,0.3,1.4C1.3,128,0.9,128.2,0.6,128.2z M101.5,126.8
			c-0.3,0-0.5-0.1-0.7-0.3c-0.4-0.4-0.4-1,0-1.4c0,0,0.1-0.1,0.2-0.1c0.5-0.3,1.1-0.2,1.4,0.3c0.3,0.4,0.2,1-0.2,1.4
			C101.9,126.7,101.7,126.8,101.5,126.8z M-2.7,126c-0.2,0-0.4-0.1-0.6-0.2c-0.1,0-0.1-0.1-0.2-0.1c-0.4-0.4-0.4-1,0-1.4
			c0.4-0.4,0.9-0.4,1.3-0.1c0.4,0.3,0.5,0.9,0.2,1.4C-2.1,125.8-2.4,126-2.7,126z M104.8,124.5c-0.3,0-0.5-0.1-0.7-0.3
			c-0.4-0.4-0.4-1,0-1.4c0,0,0.1-0.1,0.2-0.1c0.5-0.3,1.1-0.2,1.4,0.3c0.3,0.4,0.2,1-0.2,1.4C105.2,124.4,105,124.5,104.8,124.5z
			 M-5.9,123.6c-0.2,0-0.4-0.1-0.6-0.2c-0.1,0-0.1-0.1-0.2-0.1c-0.4-0.4-0.4-1,0-1.4c0.4-0.4,0.9-0.4,1.3-0.1
			c0.4,0.3,0.5,0.9,0.2,1.4C-5.3,123.4-5.6,123.6-5.9,123.6z M107.9,122c-0.3,0-0.5-0.1-0.7-0.3c-0.4-0.4-0.4-1,0-1.4
			c0,0,0.1-0.1,0.2-0.1c0.5-0.3,1.1-0.2,1.4,0.3c0.3,0.4,0.2,1-0.2,1.4C108.3,121.9,108.1,122,107.9,122z M-9.1,121.1
			c-0.2,0-0.4-0.1-0.6-0.2c-0.1-0.1-0.2-0.2-0.3-0.3c-0.3-0.5-0.2-1.1,0.3-1.4c0.4-0.3,0.9-0.2,1.2,0.1c0.4,0.3,0.4,0.9,0.2,1.3
			C-8.4,120.9-8.7,121.1-9.1,121.1z M111,119.4c-0.2,0-0.4-0.1-0.6-0.2c-0.5-0.3-0.6-0.9-0.3-1.4c0.1-0.1,0.2-0.2,0.3-0.3
			c0.5-0.3,1.1-0.2,1.4,0.3c0.3,0.4,0.2,1-0.2,1.3C111.4,119.3,111.2,119.4,111,119.4z M-12.1,118.4c-0.2,0-0.4-0.1-0.6-0.2
			c-0.1-0.1-0.2-0.2-0.3-0.3c-0.3-0.5-0.2-1.1,0.3-1.4c0.4-0.3,0.9-0.2,1.2,0.1c0.4,0.3,0.4,0.9,0.2,1.3
			C-11.4,118.3-11.7,118.4-12.1,118.4z M113.9,116.7c-0.3,0-0.5-0.1-0.7-0.3c-0.4-0.4-0.4-1,0-1.4c0.4-0.4,1-0.4,1.4,0
			c0.4,0.4,0.4,1,0,1.4l0,0C114.4,116.6,114.1,116.7,113.9,116.7z M-15,115.6c-0.3,0-0.5-0.1-0.7-0.3l0,0c-0.4-0.4-0.4-1,0-1.4
			s1-0.4,1.4,0s0.4,1,0,1.4C-14.4,115.5-14.7,115.6-15,115.6z M116.7,113.8c-0.3,0-0.5-0.1-0.7-0.3c-0.4-0.4-0.4-1,0-1.4
			c0.4-0.4,1-0.4,1.4,0c0.4,0.4,0.4,1,0,1.4l0,0C117.2,113.7,117,113.8,116.7,113.8z M-17.7,112.7c-0.3,0-0.6-0.1-0.7-0.3
			c-0.3-0.3-0.4-0.8-0.1-1.2c0.3-0.5,0.9-0.6,1.4-0.3c0.1,0.1,0.2,0.2,0.3,0.3c0.3,0.5,0.2,1.1-0.3,1.4
			C-17.3,112.7-17.5,112.7-17.7,112.7z M119.4,110.8c-0.3,0-0.6-0.2-0.8-0.4c-0.3-0.4-0.2-0.9,0.1-1.2c0.3-0.4,0.9-0.4,1.3-0.2
			c0.5,0.3,0.6,0.9,0.3,1.4c-0.1,0.1-0.2,0.2-0.3,0.3C119.8,110.8,119.6,110.8,119.4,110.8z M-20.3,109.7c-0.3,0-0.6-0.1-0.7-0.3
			c-0.3-0.3-0.4-0.8-0.1-1.2c0.3-0.5,0.9-0.6,1.4-0.3c0.1,0.1,0.2,0.2,0.3,0.3c0.3,0.5,0.2,1.1-0.3,1.4
			C-20,109.7-20.2,109.7-20.3,109.7z M121.9,107.8c-0.3,0-0.5-0.1-0.7-0.3c-0.4-0.4-0.4-0.9-0.1-1.3c0.3-0.4,0.9-0.5,1.4-0.2
			c0.5,0.3,0.6,0.9,0.3,1.4c0,0.1-0.1,0.1-0.1,0.2C122.5,107.7,122.2,107.8,121.9,107.8z M-22.9,106.6c-0.3,0-0.6-0.1-0.8-0.4
			c-0.3-0.4-0.3-1,0.1-1.3c0.4-0.4,1-0.4,1.4,0c0,0,0.1,0.1,0.1,0.2c0.3,0.5,0.2,1.1-0.3,1.4C-22.5,106.5-22.7,106.6-22.9,106.6z
			 M124.4,104.6c-0.3,0-0.5-0.1-0.7-0.3c-0.4-0.4-0.4-0.9-0.1-1.3c0.3-0.4,0.9-0.5,1.4-0.2c0.5,0.3,0.6,0.9,0.3,1.4
			c0,0.1-0.1,0.1-0.1,0.2C124.9,104.5,124.6,104.6,124.4,104.6z M-25.2,103.3c-0.3,0-0.6-0.1-0.8-0.4c-0.3-0.4-0.3-1,0.1-1.3
			c0.4-0.4,1-0.4,1.4,0c0,0,0.1,0.1,0.1,0.2c0.3,0.5,0.2,1.1-0.3,1.4C-24.8,103.3-25,103.3-25.2,103.3z M126.6,101.3
			c-0.2,0-0.4-0.1-0.6-0.2c-0.5-0.3-0.6-0.9-0.3-1.4c0.3-0.5,0.9-0.6,1.4-0.3c0.5,0.3,0.6,0.9,0.3,1.4l0,0
			C127.3,101.1,127,101.3,126.6,101.3z M-27.4,100c-0.3,0-0.6-0.2-0.8-0.4c0-0.1-0.1-0.2-0.1-0.2c-0.2-0.5,0.1-1.1,0.6-1.3
			c0.5-0.2,1,0.1,1.2,0.5c0.2,0.5,0.1,1-0.3,1.3C-27.1,100-27.2,100-27.4,100z M128.8,97.9c-0.1,0-0.2,0-0.3-0.1
			c-0.5-0.2-0.8-0.7-0.6-1.3c0-0.1,0.1-0.2,0.1-0.2c0.3-0.5,0.9-0.6,1.4-0.3c0.4,0.3,0.6,0.9,0.3,1.3
			C129.5,97.7,129.1,97.9,128.8,97.9z M-29.5,96.6c-0.3,0-0.6-0.2-0.8-0.4c0-0.1-0.1-0.2-0.1-0.2c-0.2-0.5,0.1-1.1,0.6-1.3
			c0.5-0.2,1,0.1,1.2,0.5c0.2,0.5,0.1,1-0.3,1.3C-29.1,96.5-29.3,96.6-29.5,96.6z M130.7,94.4c-0.1,0-0.2,0-0.3-0.1
			c-0.5-0.2-0.8-0.7-0.6-1.3c0-0.1,0.1-0.2,0.1-0.2c0.3-0.5,0.9-0.6,1.4-0.3c0.4,0.3,0.6,0.9,0.3,1.3
			C131.5,94.2,131.1,94.4,130.7,94.4z M-31.4,93.1c-0.3,0-0.6-0.2-0.8-0.4c0-0.1-0.1-0.2-0.1-0.2c-0.2-0.5,0.1-1.1,0.6-1.3
			c0.5-0.2,1,0.1,1.2,0.5c0.2,0.5,0.1,1-0.3,1.3C-31,93-31.2,93.1-31.4,93.1z M132.6,90.8c-0.2,0-0.4-0.1-0.6-0.2
			c-0.4-0.3-0.6-0.8-0.4-1.3c0.2-0.5,0.7-0.7,1.2-0.5c0.5,0.2,0.8,0.7,0.6,1.3c0,0.1-0.1,0.2-0.1,0.2
			C133.2,90.6,132.9,90.8,132.6,90.8z M-33.2,89.5c-0.4,0-0.7-0.2-0.9-0.6c-0.2-0.4-0.1-1,0.4-1.3c0.5-0.3,1.1-0.2,1.4,0.3
			c0,0.1,0.1,0.2,0.1,0.2c0.2,0.5-0.1,1.1-0.6,1.3C-33,89.5-33.1,89.5-33.2,89.5z M134.2,87.1c-0.2,0-0.4-0.1-0.6-0.2
			c-0.4-0.3-0.6-0.8-0.4-1.3c0.2-0.5,0.7-0.7,1.2-0.5c0.5,0.2,0.8,0.7,0.6,1.3c0,0.1-0.1,0.2-0.1,0.2
			C134.9,87,134.6,87.1,134.2,87.1z M-34.8,85.8c-0.4,0-0.7-0.2-0.9-0.6c-0.2-0.4-0.1-1,0.4-1.2c0.5-0.3,1.1-0.2,1.4,0.3
			c0,0.1,0.1,0.2,0.1,0.2c0.2,0.5-0.1,1.1-0.6,1.3C-34.6,85.8-34.7,85.8-34.8,85.8z M135.8,83.4c-0.2,0-0.3,0-0.4-0.1
			c-0.5-0.2-0.7-0.8-0.5-1.3c0.2-0.5,0.7-0.7,1.2-0.6c0.5,0.2,0.8,0.7,0.6,1.3c0,0,0,0.1-0.1,0.1C136.5,83.2,136.1,83.4,135.8,83.4z
			 M-36.2,82.1c-0.4,0-0.8-0.3-0.9-0.7c0,0,0-0.1,0-0.1c-0.1-0.5,0.2-1.1,0.7-1.2c0.5-0.1,1.1,0.2,1.2,0.7c0.1,0.5-0.2,1.1-0.7,1.2
			C-36.1,82.1-36.2,82.1-36.2,82.1z M137.1,79.6c-0.1,0-0.2,0-0.2,0c-0.5-0.1-0.9-0.7-0.7-1.2l1.9,0.5
			C138,79.3,137.5,79.6,137.1,79.6z M138,78.9L138,78.9L138,78.9z M-37.5,78.3c-0.4,0-0.8-0.3-0.9-0.7c0,0,0-0.1,0-0.1
			c-0.1-0.5,0.2-1.1,0.7-1.2c0.5-0.1,1.1,0.2,1.2,0.7c0.1,0.5-0.2,1.1-0.7,1.2C-37.3,78.3-37.4,78.3-37.5,78.3z M138.3,75.8
			c-0.1,0-0.2,0-0.2,0c-0.5-0.1-0.9-0.7-0.7-1.2l1.9,0.5C139.1,75.5,138.7,75.8,138.3,75.8z M139.2,75.1L139.2,75.1L139.2,75.1z
			 M-38.6,74.4c-0.4,0-0.8-0.3-0.9-0.7c0,0,0-0.1,0-0.1c-0.1-0.5,0.2-1.1,0.7-1.2c0.5-0.1,1.1,0.2,1.2,0.7c0.1,0.5-0.2,1.1-0.7,1.2
			C-38.4,74.4-38.5,74.4-38.6,74.4z M139.3,71.9c-0.6,0-1-0.4-1-1c0-0.1,0-0.2,0.1-0.3c0.2-0.5,0.7-0.8,1.3-0.6
			c0.5,0.2,0.8,0.7,0.7,1.1C140.2,71.6,139.8,71.9,139.3,71.9z M-39.6,70.5c-0.4,0-0.8-0.3-0.9-0.7c0-0.1-0.1-0.2-0.1-0.3
			c0-0.6,0.4-1,1-1c0.5,0,0.9,0.4,1,0.8c0.1,0.5-0.2,1-0.7,1.1C-39.4,70.5-39.5,70.5-39.6,70.5z M140.1,68c-0.6,0-1-0.4-1-1
			c0-0.1,0-0.2,0.1-0.3c0.2-0.5,0.7-0.8,1.3-0.6c0.5,0.2,0.8,0.7,0.7,1.1C141,67.6,140.6,68,140.1,68z M-40.3,66.6
			c-0.4,0-0.8-0.3-0.9-0.7c0-0.1-0.1-0.2-0.1-0.3c0-0.6,0.4-1,1-1c0.5,0,0.9,0.4,1,0.8c0.1,0.5-0.2,1-0.7,1.1
			C-40.1,66.6-40.2,66.6-40.3,66.6z M140.7,64c-0.1,0-0.2,0-0.2,0c-0.5-0.1-0.8-0.6-0.8-1.1c0.1-0.5,0.5-0.9,1-0.9c0.6,0,1,0.4,1,1
			c0,0.1,0,0.2,0,0.3C141.6,63.7,141.2,64,140.7,64z M-40.9,62.6c-0.5,0-0.9-0.4-1-0.9c-0.1-0.5,0.3-1,0.8-1.1
			c0.5-0.1,1.1,0.2,1.2,0.7c0,0.1,0,0.2,0,0.3C-39.9,62.2-40.4,62.6-40.9,62.6z M141.2,60c-0.1,0-0.2,0-0.2,0
			c-0.5-0.1-0.8-0.6-0.8-1.1c0.1-0.5,0.5-0.9,1-0.9l0,0c0.6,0,1,0.4,1,1c0,0.1,0,0.2,0,0.3C142.1,59.7,141.7,60,141.2,60z
			 M-41.3,58.7c-0.5,0-0.9-0.4-1-0.9c-0.1-0.5,0.3-1,0.8-1.1c0.5-0.1,1.1,0.2,1.2,0.7c0,0.1,0,0.2,0,0.3
			C-40.3,58.2-40.8,58.7-41.3,58.7z M141.5,56.1c-0.1,0-0.2,0-0.2,0c-0.5-0.1-0.8-0.6-0.8-1.1c0.1-0.5,0.5-0.9,1-0.9l0,0
			c0.6,0,1,0.4,1,1c0,0.1,0,0.2,0,0.3C142.4,55.7,142,56.1,141.5,56.1z M-41.6,54.7c-0.6,0-1-0.4-1-1v0c0-0.6,0.4-1,1-1s1,0.4,1,1
			S-41,54.7-41.6,54.7z M141.7,52c-0.6,0-1-0.4-1-1s0.4-1,1-1s1,0.4,1,1v0C142.7,51.6,142.2,52,141.7,52z M-41.7,50.6
			c-0.6,0-1-0.4-1-1v0c0-0.6,0.4-1,1-1s1,0.4,1,1S-41.1,50.6-41.7,50.6z M141.6,48c-0.6,0-1-0.4-1-1s0.4-1,1-1s1,0.4,1,1v0
			C142.6,47.6,142.2,48,141.6,48z M-41.6,46.6c-0.6,0-1-0.4-1-1v0c0-0.6,0.4-1,1-1s1,0.4,1,1S-41,46.6-41.6,46.6z M141.4,44
			c-0.4,0-0.9-0.3-1-0.8c0-0.1,0-0.2,0-0.3c0-0.6,0.4-1,1-1c0.5,0,0.9,0.4,1,0.9c0.1,0.5-0.3,1-0.8,1.1C141.6,44,141.5,44,141.4,44z
			 M-41.3,42.6L-41.3,42.6c-0.6,0-1-0.4-1-1c0-0.1,0-0.2,0-0.3c0.1-0.5,0.7-0.9,1.2-0.7c0.5,0.1,0.8,0.6,0.8,1.1
			C-40.3,42.3-40.8,42.6-41.3,42.6z M141,40c-0.4,0-0.9-0.3-1-0.8c0-0.1,0-0.2,0-0.3c0-0.6,0.4-1,1-1c0.5,0,0.9,0.4,1,0.9
			c0.1,0.5-0.3,1-0.8,1.1C141.2,40,141.1,40,141,40z M-40.8,38.7L-40.8,38.7c-0.6,0-1-0.4-1-1c0-0.1,0-0.2,0-0.3
			c0.1-0.5,0.7-0.9,1.2-0.7c0.5,0.1,0.8,0.6,0.8,1.1C-39.9,38.3-40.3,38.7-40.8,38.7z M140.5,36.1c-0.5,0-0.9-0.4-1-0.8
			c-0.1-0.5,0.2-1,0.7-1.1c0.5-0.2,1.1,0.1,1.3,0.6c0,0.1,0.1,0.2,0.1,0.3C141.5,35.6,141,36.1,140.5,36.1z M-40.2,34.7
			c-0.1,0-0.2,0-0.3-0.1c-0.5-0.2-0.8-0.7-0.7-1.1c0.1-0.5,0.5-0.8,1-0.8c0.6,0,1,0.4,1,1c0,0.1,0,0.2-0.1,0.3
			C-39.4,34.4-39.8,34.7-40.2,34.7z M139.7,32.1c-0.5,0-0.9-0.4-1-0.8c-0.1-0.5,0.2-1,0.7-1.1c0.5-0.2,1.1,0.1,1.3,0.6
			c0,0.1,0.1,0.2,0.1,0.3C140.7,31.7,140.3,32.1,139.7,32.1z M-39.4,30.8c-0.1,0-0.2,0-0.3-0.1c-0.5-0.2-0.8-0.7-0.7-1.1
			c0.1-0.5,0.5-0.8,1-0.8c0.6,0,1,0.4,1,1c0,0.1,0,0.2-0.1,0.3C-38.6,30.5-39,30.8-39.4,30.8z M138.8,28.2c-0.4,0-0.9-0.3-1-0.8
			c-0.1-0.5,0.2-1.1,0.7-1.2s1.1,0.1,1.2,0.6c0,0,0,0.1,0,0.1c0.1,0.5-0.2,1.1-0.7,1.2C139,28.2,138.9,28.2,138.8,28.2z M-37.5,26.1
			l-1.9-0.5c0.1-0.5,0.7-0.9,1.2-0.7C-37.7,25-37.3,25.6-37.5,26.1z M137.7,24.4c-0.4,0-0.9-0.3-1-0.8c-0.1-0.5,0.2-1.1,0.7-1.2
			s1.1,0.1,1.2,0.6c0,0,0,0.1,0,0.1c0.1,0.5-0.2,1.1-0.7,1.2C137.9,24.4,137.8,24.4,137.7,24.4z M-36.3,22.3l-1.9-0.5
			c0.1-0.5,0.7-0.9,1.2-0.7C-36.5,21.2-36.2,21.7-36.3,22.3z M136.5,20.6c-0.4,0-0.9-0.3-1-0.8c-0.1-0.5,0.2-1.1,0.7-1.2
			c0.5-0.2,1.1,0.1,1.2,0.6c0,0,0,0.1,0,0.1c0.1,0.5-0.2,1.1-0.7,1.2C136.6,20.6,136.6,20.6,136.5,20.6z M-36,19.2
			c-0.1,0-0.2,0-0.3-0.1c-0.5-0.2-0.8-0.7-0.6-1.3c0,0,0-0.1,0.1-0.1c0.2-0.5,0.8-0.7,1.3-0.4c0.5,0.2,0.7,0.8,0.5,1.3
			C-35.2,19-35.6,19.2-36,19.2z M135.1,16.8c-0.3,0-0.6-0.2-0.8-0.4c0-0.1-0.1-0.2-0.1-0.2c-0.2-0.5,0.1-1.1,0.6-1.3
			c0.5-0.2,1,0.1,1.2,0.5c0.2,0.4,0.1,1-0.4,1.3C135.4,16.8,135.3,16.8,135.1,16.8z M-34.5,15.5c-0.1,0-0.2,0-0.3-0.1
			c-0.5-0.2-0.8-0.7-0.6-1.3c0-0.1,0.1-0.2,0.1-0.2c0.3-0.5,0.9-0.6,1.4-0.3c0.4,0.3,0.6,0.8,0.4,1.3
			C-33.8,15.3-34.1,15.5-34.5,15.5z M133.5,13.1c-0.3,0-0.6-0.2-0.8-0.4c0-0.1-0.1-0.2-0.1-0.2c-0.2-0.5,0.1-1.1,0.6-1.3
			c0.5-0.2,1,0.1,1.2,0.5c0.2,0.4,0.1,1-0.4,1.3C133.9,13.1,133.7,13.1,133.5,13.1z M-32.9,11.8c-0.1,0-0.2,0-0.3-0.1
			c-0.5-0.2-0.8-0.7-0.6-1.3c0-0.1,0.1-0.2,0.1-0.2c0.3-0.5,0.9-0.6,1.4-0.3c0.4,0.3,0.6,0.8,0.4,1.3
			C-32.1,11.6-32.5,11.8-32.9,11.8z M131.7,9.5c-0.4,0-0.7-0.2-0.9-0.5c-0.2-0.5-0.1-1,0.3-1.3c0.5-0.3,1.1-0.2,1.4,0.3
			c0,0.1,0.1,0.2,0.1,0.2c0.2,0.5-0.1,1.1-0.6,1.3C132,9.5,131.9,9.5,131.7,9.5z M-31.1,8.3c-0.2,0-0.4-0.1-0.6-0.2
			c-0.4-0.3-0.6-0.9-0.3-1.3c0.2-0.4,0.7-0.6,1.2-0.5c0.5,0.2,0.8,0.7,0.6,1.3c0,0.1-0.1,0.2-0.1,0.2C-30.4,8.1-30.8,8.3-31.1,8.3z
			 M129.9,6c-0.4,0-0.7-0.2-0.9-0.5c-0.2-0.5-0.1-1,0.3-1.3c0.5-0.3,1.1-0.2,1.4,0.3c0,0.1,0.1,0.2,0.1,0.2c0.2,0.5-0.1,1.1-0.6,1.3
			C130.1,6,130,6,129.9,6z M-29.1,4.8c-0.2,0-0.4-0.1-0.6-0.2c-0.4-0.3-0.6-0.9-0.3-1.3c0.2-0.4,0.7-0.6,1.2-0.5
			c0.5,0.2,0.8,0.7,0.6,1.3c0,0.1-0.1,0.2-0.1,0.2C-28.5,4.6-28.8,4.8-29.1,4.8z M127.8,2.6c-0.4,0-0.7-0.2-0.9-0.5
			c-0.2-0.5-0.1-1,0.3-1.3c0.5-0.3,1.1-0.2,1.4,0.3c0,0.1,0.1,0.2,0.1,0.2c0.2,0.5-0.1,1.1-0.6,1.3C128,2.6,127.9,2.6,127.8,2.6z
			 M-27,1.3c-0.2,0-0.4-0.1-0.6-0.2c-0.5-0.3-0.6-0.9-0.3-1.4l0,0c0.3-0.5,0.9-0.6,1.4-0.3c0.5,0.3,0.6,0.9,0.3,1.4
			C-26.4,1.2-26.7,1.3-27,1.3z M125.6-0.8c-0.3,0-0.5-0.1-0.7-0.3c0,0-0.1-0.1-0.1-0.2c-0.3-0.5-0.2-1.1,0.3-1.4
			c0.4-0.3,1-0.2,1.4,0.2c0.3,0.4,0.3,1-0.1,1.3C126.1-0.9,125.9-0.8,125.6-0.8z M-24.8-2C-25-2-25.1-2-25.3-2.2
			c-0.5-0.3-0.6-0.9-0.3-1.4c0-0.1,0.1-0.1,0.1-0.2c0.4-0.4,1-0.4,1.4,0c0.4,0.4,0.4,0.9,0.1,1.3C-24.2-2.1-24.5-2-24.8-2z M123.3-4
			c-0.3,0-0.5-0.1-0.7-0.3c0,0-0.1-0.1-0.1-0.2c-0.3-0.5-0.2-1.1,0.3-1.4c0.4-0.3,1-0.2,1.4,0.2c0.3,0.4,0.3,1-0.1,1.3
			C123.8-4.1,123.5-4,123.3-4z M-22.4-5.2c-0.2,0-0.4-0.1-0.6-0.2c-0.5-0.3-0.6-0.9-0.3-1.4c0-0.1,0.1-0.1,0.1-0.2
			c0.4-0.4,1-0.4,1.4,0c0.4,0.4,0.4,0.9,0.1,1.3C-21.8-5.3-22.1-5.2-22.4-5.2z M120.8-7.2c-0.2,0-0.4-0.1-0.6-0.2
			c-0.1-0.1-0.2-0.2-0.3-0.3c-0.3-0.5-0.2-1.1,0.3-1.4c0.4-0.3,1-0.2,1.3,0.2c0.3,0.3,0.4,0.8,0.1,1.2
			C121.4-7.3,121.1-7.2,120.8-7.2z M-19.8-8.3c-0.2,0-0.4-0.1-0.6-0.2c-0.5-0.3-0.6-0.9-0.3-1.4c0.1-0.1,0.2-0.2,0.3-0.3
			c0.5-0.3,1.1-0.2,1.4,0.3c0.3,0.4,0.2,0.9-0.1,1.2C-19.3-8.4-19.6-8.3-19.8-8.3z M118.2-10.2c-0.2,0-0.4-0.1-0.6-0.2
			c-0.1-0.1-0.2-0.2-0.3-0.3c-0.3-0.5-0.2-1.1,0.3-1.4c0.4-0.3,1-0.2,1.3,0.2c0.3,0.3,0.4,0.8,0.1,1.2
			C118.8-10.4,118.5-10.2,118.2-10.2z M-17.2-11.3c-0.2,0-0.4-0.1-0.6-0.2c-0.5-0.3-0.6-0.9-0.3-1.4c0.1-0.1,0.2-0.2,0.3-0.3
			c0.5-0.3,1.1-0.2,1.4,0.3c0.3,0.4,0.2,0.9-0.1,1.2C-16.6-11.4-16.9-11.3-17.2-11.3z M115.4-13.1c-0.3,0-0.5-0.1-0.7-0.3
			c-0.4-0.4-0.4-1,0-1.4c0.4-0.4,1-0.4,1.4,0l0,0c0.4,0.4,0.4,1,0,1.4C116-13.2,115.7-13.1,115.4-13.1z M-14.4-14.2
			c-0.3,0-0.5-0.1-0.7-0.3c-0.4-0.4-0.4-1,0-1.4l0,0c0.4-0.4,1-0.4,1.4,0s0.4,1,0,1.4C-13.9-14.3-14.1-14.2-14.4-14.2z M112.6-15.9
			c-0.3,0-0.5-0.1-0.7-0.3c-0.4-0.4-0.4-1,0-1.4c0.4-0.4,1-0.4,1.4,0l0,0c0.4,0.4,0.4,1,0,1.4C113.1-16,112.8-15.9,112.6-15.9z
			 M-11.5-16.9c-0.3,0-0.6-0.2-0.8-0.4c-0.3-0.4-0.2-1,0.2-1.3c0.3-0.3,0.8-0.3,1.2-0.1c0.5,0.3,0.6,0.9,0.3,1.4
			c-0.1,0.1-0.2,0.2-0.3,0.3C-11.1-17-11.3-16.9-11.5-16.9z M109.6-18.6c-0.2,0-0.5-0.1-0.7-0.3c-0.4-0.3-0.4-0.9-0.2-1.3
			c0.3-0.5,0.9-0.6,1.4-0.3c0.1,0.1,0.2,0.2,0.3,0.3c0.3,0.5,0.2,1.1-0.3,1.4C110-18.7,109.8-18.6,109.6-18.6z M-8.4-19.6
			c-0.3,0-0.6-0.2-0.8-0.4c-0.3-0.4-0.2-1,0.2-1.3c0.3-0.3,0.8-0.4,1.2-0.1c0.5,0.3,0.6,0.9,0.3,1.4c-0.1,0.1-0.2,0.2-0.3,0.3
			C-8.1-19.6-8.3-19.6-8.4-19.6z M106.5-21.2c-0.2,0-0.4-0.1-0.6-0.2c-0.4-0.3-0.5-0.9-0.2-1.4c0.3-0.5,0.9-0.6,1.4-0.3
			c0.1,0,0.1,0.1,0.2,0.1c0.4,0.4,0.4,1,0,1.4C107-21.2,106.7-21.2,106.5-21.2z M-5.3-22.1c-0.3,0-0.6-0.2-0.8-0.4
			c-0.3-0.4-0.2-1,0.2-1.4c0.4-0.3,1-0.3,1.3,0.1c0.4,0.4,0.4,1,0,1.4c0,0-0.1,0.1-0.2,0.1C-4.9-22.1-5.1-22.1-5.3-22.1z
			 M103.3-23.6c-0.2,0-0.4-0.1-0.6-0.2c-0.4-0.3-0.5-0.9-0.2-1.4c0.3-0.5,0.9-0.6,1.4-0.3c0.1,0,0.1,0.1,0.2,0.1
			c0.4,0.4,0.4,1,0,1.4C103.8-23.7,103.5-23.6,103.3-23.6z M-2.1-24.4c-0.3,0-0.6-0.2-0.8-0.4c-0.3-0.4-0.2-1,0.2-1.4
			c0.4-0.3,1-0.3,1.3,0.1c0.4,0.4,0.4,1,0,1.4c0,0-0.1,0.1-0.2,0.1C-1.7-24.5-1.9-24.4-2.1-24.4z M100-25.8c-0.2,0-0.4-0.1-0.6-0.2
			c-0.5-0.3-0.6-0.9-0.3-1.4c0.3-0.5,0.9-0.6,1.4-0.3l0,0c0.5,0.3,0.6,0.9,0.3,1.4C100.6-26,100.3-25.8,100-25.8z M1.3-26.6
			c-0.3,0-0.6-0.2-0.8-0.4c-0.3-0.5-0.2-1.1,0.3-1.4c0.1,0,0.2-0.1,0.2-0.1c0.5-0.2,1.1,0.1,1.3,0.6c0.2,0.5-0.1,1-0.5,1.2
			C1.6-26.7,1.4-26.6,1.3-26.6z M96.6-27.9c-0.1,0-0.2,0-0.3-0.1c-0.1,0-0.2-0.1-0.2-0.1c-0.5-0.3-0.6-0.9-0.3-1.4
			c0.3-0.4,0.9-0.6,1.3-0.3c0.4,0.2,0.6,0.7,0.5,1.2C97.4-28.2,97-27.9,96.6-27.9z M4.7-28.7c-0.3,0-0.6-0.2-0.8-0.4
			c-0.3-0.5-0.2-1.1,0.3-1.4c0.1,0,0.2-0.1,0.2-0.1c0.5-0.2,1.1,0.1,1.3,0.6c0.2,0.5-0.1,1-0.5,1.2C5-28.7,4.9-28.7,4.7-28.7z
			 M93.1-29.9c-0.1,0-0.2,0-0.3-0.1c-0.1,0-0.2-0.1-0.2-0.1c-0.5-0.3-0.6-0.9-0.3-1.4c0.3-0.4,0.9-0.6,1.3-0.3
			c0.4,0.2,0.6,0.7,0.5,1.2C93.9-30.2,93.5-29.9,93.1-29.9z M8.2-30.6c-0.3,0-0.6-0.2-0.8-0.4c-0.3-0.5-0.2-1.1,0.3-1.4
			c0.1,0,0.2-0.1,0.2-0.1c0.5-0.2,1.1,0.1,1.3,0.6c0.2,0.5-0.1,1-0.5,1.2C8.6-30.6,8.4-30.6,8.2-30.6z M89.5-31.7
			c-0.1,0-0.3,0-0.4-0.1c-0.5-0.2-0.7-0.7-0.5-1.2c0.2-0.5,0.7-0.8,1.3-0.6c0.1,0,0.2,0.1,0.2,0.1c0.5,0.3,0.6,0.9,0.3,1.4
			C90.1-31.9,89.8-31.7,89.5-31.7z M11.8-32.3c-0.4,0-0.8-0.3-0.9-0.7c-0.2-0.5,0.1-1,0.5-1.2c0.4-0.2,1-0.1,1.2,0.4
			c0.3,0.5,0.2,1.1-0.3,1.4c-0.1,0-0.2,0.1-0.2,0.1C12-32.4,11.9-32.3,11.8-32.3z M85.8-33.4c-0.1,0-0.3,0-0.4-0.1
			c-0.5-0.2-0.7-0.7-0.5-1.2c0.2-0.5,0.7-0.8,1.3-0.6c0.1,0,0.2,0.1,0.2,0.1c0.5,0.3,0.6,0.9,0.3,1.4C86.5-33.5,86.1-33.4,85.8-33.4
			z M15.5-33.9c-0.4,0-0.8-0.3-0.9-0.7c-0.2-0.5,0.1-1,0.5-1.2c0.4-0.2,1-0.1,1.2,0.4c0.3,0.5,0.2,1.1-0.3,1.4
			c-0.1,0-0.2,0.1-0.2,0.1C15.7-33.9,15.6-33.9,15.5-33.9z M82.1-34.9c-0.1,0-0.3,0-0.4-0.1c-0.5-0.2-0.7-0.7-0.6-1.2
			c0.2-0.5,0.7-0.8,1.3-0.6c0,0,0.1,0,0.1,0.1c0.5,0.2,0.7,0.8,0.4,1.3C82.8-35.1,82.5-34.9,82.1-34.9z M19.2-35.4
			c-0.4,0-0.8-0.3-1-0.7c-0.2-0.5,0.1-1.1,0.6-1.2c0,0,0.1,0,0.1,0c0.5-0.1,1.1,0.2,1.2,0.7c0.1,0.5-0.2,1.1-0.7,1.2
			C19.4-35.4,19.3-35.4,19.2-35.4z M78.3-36.2c-0.1,0-0.2,0-0.2,0l0.5-1.9c0.5,0.1,0.9,0.7,0.7,1.2C79.2-36.5,78.7-36.2,78.3-36.2z
			 M23-36.6c-0.4,0-0.8-0.3-1-0.7c-0.2-0.5,0.1-1.1,0.6-1.2c0,0,0.1,0,0.1,0c0.5-0.1,1.1,0.2,1.2,0.7c0.1,0.5-0.2,1.1-0.7,1.2
			C23.2-36.6,23.1-36.6,23-36.6z M74.5-37.4c-0.1,0-0.2,0-0.2,0l0.5-1.9c0.5,0.1,0.9,0.7,0.7,1.2C75.3-37.7,74.9-37.4,74.5-37.4z
			 M26.9-37.7c-0.4,0-0.8-0.3-1-0.7c-0.2-0.5,0.1-1.1,0.6-1.2c0,0,0.1,0,0.1,0c0.5-0.1,1.1,0.2,1.2,0.7c0.1,0.5-0.2,1.1-0.7,1.2
			C27.1-37.7,27-37.7,26.9-37.7z M70.6-38.3c-0.1,0-0.2,0-0.3-0.1c-0.5-0.2-0.8-0.7-0.6-1.3c0.2-0.5,0.7-0.8,1.1-0.7
			c0.5,0.1,0.8,0.5,0.8,1C71.6-38.8,71.1-38.3,70.6-38.3z M30.8-38.6c-0.4,0-0.8-0.3-0.9-0.7c-0.2-0.5,0.1-1.1,0.6-1.3
			c0.6-0.2,1.3,0.3,1.3,0.9c0,0.5-0.4,0.9-0.8,1C30.9-38.6,30.9-38.6,30.8-38.6z M66.6-39.2c-0.1,0-0.2,0-0.3-0.1
			c-0.5-0.2-0.8-0.7-0.6-1.3c0.2-0.5,0.7-0.8,1.1-0.7c0.5,0.1,0.8,0.5,0.8,1C67.6-39.6,67.2-39.2,66.6-39.2z M34.7-39.4
			c-0.4,0-0.8-0.3-0.9-0.7c-0.2-0.5,0.1-1.1,0.6-1.3c0.6-0.2,1.3,0.3,1.3,0.9c0,0.5-0.4,0.9-0.8,1C34.9-39.4,34.8-39.4,34.7-39.4z
			 M62.7-39.8c0,0-0.1,0-0.1,0c-0.5-0.1-0.9-0.5-0.9-1c0-0.6,0.6-1.1,1.3-1c0.5,0.1,0.9,0.7,0.7,1.2C63.5-40.1,63.1-39.8,62.7-39.8z
			 M38.7-40c-0.6,0-1-0.4-1-1c0-0.5,0.4-0.9,0.9-1c0.5,0,1,0.3,1.1,0.8c0.1,0.5-0.2,1.1-0.7,1.2C38.9-40,38.8-40,38.7-40z
			 M58.7-40.3c0,0-0.1,0-0.1,0c-0.5-0.1-0.9-0.5-0.9-1c0-0.6,0.6-1.1,1.3-1c0.5,0.1,0.9,0.7,0.7,1.2C59.6-40.6,59.2-40.3,58.7-40.3z
			 M42.7-40.4c-0.6,0-1-0.4-1-1c0-0.5,0.4-0.9,0.9-1c0.5-0.1,1,0.3,1.1,0.8c0.1,0.5-0.2,1.1-0.7,1.2C42.9-40.4,42.8-40.4,42.7-40.4z
			 M54.7-40.5c0,0-0.1,0-0.1,0c-0.5-0.1-0.9-0.5-0.9-1c0-0.6,0.6-1.1,1.3-1c0.5,0.1,0.9,0.7,0.7,1.2C55.6-40.9,55.2-40.5,54.7-40.5z
			 M46.7-40.6c-0.6,0-1-0.4-1-1s0.4-1,1-1h0c0.6,0,1,0.4,1,1S47.2-40.6,46.7-40.6z M50.7-40.7c-0.6,0-1-0.4-1-1s0.4-1,1-1h0
			c0.6,0,1,0.4,1,1S51.3-40.7,50.7-40.7z"/>
		<path d="M50,126L50,126c-0.6,0-1-0.4-1-1s0.4-1,1-1c0.6,0,1,0.4,1,1S50.6,126,50,126z M52.2,126L52.2,126c-0.6,0-1-0.4-1-1
			s0.4-1,1-1s1,0.4,1,1S52.7,126,52.2,126z M46,125.9c-0.1,0-0.2,0-0.3,0c-0.5-0.1-0.9-0.7-0.7-1.2c0.1-0.5,0.6-0.8,1.1-0.8
			c0.5,0.1,0.9,0.5,0.9,1C47,125.4,46.5,125.9,46,125.9z M56.2,125.8c-0.4,0-0.9-0.3-1-0.8c-0.1-0.5,0.2-1.1,0.7-1.2
			c0.6-0.2,1.3,0.3,1.3,1c0,0.5-0.4,0.9-0.9,1C56.2,125.8,56.2,125.8,56.2,125.8z M42,125.6c-0.1,0-0.2,0-0.3,0
			c-0.5-0.1-0.9-0.7-0.7-1.2c0.1-0.5,0.6-0.8,1.1-0.8c0.5,0,0.9,0.5,0.9,1C43,125.1,42.6,125.6,42,125.6z M60.1,125.3
			c-0.4,0-0.9-0.3-1-0.8c-0.1-0.5,0.2-1.1,0.7-1.2c0.6-0.2,1.3,0.3,1.3,1c0,0.5-0.4,0.9-0.9,1C60.2,125.3,60.2,125.3,60.1,125.3z
			 M38,125c-0.1,0-0.1,0-0.2,0c-0.5-0.1-0.8-0.5-0.8-1c0-0.7,0.7-1.2,1.3-0.9c0.5,0.2,0.8,0.7,0.6,1.3C38.8,124.8,38.4,125,38,125z
			 M64.1,124.7c-0.6,0-1-0.4-1-1c0-0.5,0.4-0.9,0.8-1c0.5-0.1,1,0.2,1.1,0.7c0.2,0.5-0.1,1.1-0.6,1.3
			C64.3,124.7,64.2,124.7,64.1,124.7z M34.1,124.3c-0.1,0-0.1,0-0.2,0c-0.5-0.1-0.8-0.5-0.8-1c0-0.7,0.7-1.2,1.3-0.9
			c0.5,0.2,0.8,0.7,0.6,1.3C34.9,124,34.5,124.3,34.1,124.3z M68,123.8c-0.6,0-1-0.4-1-1c0-0.5,0.4-0.9,0.8-1c0.5-0.1,1,0.2,1.1,0.7
			c0.2,0.5-0.1,1.1-0.6,1.3C68.2,123.8,68.1,123.8,68,123.8z M29.9,123.3c-0.5-0.1-0.9-0.7-0.7-1.2c0.1-0.5,0.7-0.9,1.2-0.7
			L29.9,123.3z M71.9,122.8c-0.4,0-0.9-0.3-1-0.8c-0.1-0.5,0.2-1.1,0.7-1.2c0.5-0.1,1.1,0.2,1.2,0.7c0.2,0.5-0.1,1.1-0.6,1.2
			c0,0-0.1,0-0.1,0C72,122.7,72,122.8,71.9,122.8z M26.1,122.2c-0.5-0.1-0.9-0.7-0.7-1.2c0.1-0.5,0.7-0.9,1.2-0.7L26.1,122.2z
			 M75.7,121.5c-0.4,0-0.7-0.2-0.9-0.6c-0.2-0.5,0-1.1,0.4-1.3c0,0,0.1,0,0.1-0.1c0.5-0.2,1.1,0.1,1.3,0.6c0.2,0.5-0.1,1.1-0.6,1.2
			C75.9,121.5,75.8,121.5,75.7,121.5z M22.6,120.8c-0.1,0-0.2,0-0.3-0.1c0,0-0.1,0-0.1-0.1c-0.5-0.2-0.7-0.8-0.4-1.3
			c0.2-0.5,0.8-0.7,1.3-0.5c0.5,0.2,0.7,0.7,0.6,1.2C23.4,120.5,23,120.8,22.6,120.8z M79.4,120c-0.3,0-0.6-0.2-0.8-0.4
			c-0.3-0.5-0.2-1.1,0.3-1.4c0.1,0,0.2-0.1,0.2-0.1c0.5-0.2,1.1,0.1,1.3,0.6c0.2,0.5-0.1,1-0.5,1.2C79.7,120,79.5,120,79.4,120z
			 M18.9,119.2c-0.1,0-0.2,0-0.3-0.1c-0.1,0-0.2-0.1-0.2-0.1c-0.5-0.3-0.6-0.9-0.3-1.4c0.3-0.4,0.8-0.6,1.2-0.4
			c0.5,0.2,0.7,0.7,0.5,1.2C19.7,119,19.3,119.2,18.9,119.2z M83,118.3c-0.4,0-0.8-0.3-0.9-0.7c-0.2-0.5,0.1-1,0.5-1.2
			c0.5-0.2,1-0.1,1.3,0.3c0.3,0.5,0.2,1.1-0.3,1.4c-0.1,0-0.2,0.1-0.2,0.1C83.2,118.3,83.1,118.3,83,118.3z M15.3,117.5
			c-0.2,0-0.3,0-0.5-0.1c-0.4-0.2-0.6-0.7-0.5-1.2c0.2-0.5,0.7-0.8,1.3-0.6c0.1,0,0.2,0.1,0.2,0.1c0.5,0.3,0.6,0.9,0.3,1.4
			C15.9,117.3,15.6,117.5,15.3,117.5z M86.6,116.5c-0.4,0-0.8-0.3-0.9-0.7c-0.2-0.5,0.1-1,0.5-1.2c0.5-0.2,1-0.1,1.3,0.3
			c0.3,0.5,0.2,1.1-0.3,1.4c-0.1,0-0.2,0.1-0.2,0.1C86.8,116.5,86.7,116.5,86.6,116.5z M11.8,115.5c-0.2,0-0.3,0-0.5-0.1
			c-0.4-0.2-0.6-0.7-0.5-1.2c0.2-0.5,0.7-0.8,1.3-0.6c0.1,0,0.2,0.1,0.2,0.1c0.5,0.3,0.6,0.9,0.3,1.4
			C12.4,115.4,12.1,115.5,11.8,115.5z M90,114.4c-0.4,0-0.8-0.3-0.9-0.7c-0.2-0.5,0.1-1,0.5-1.2c0.5-0.2,1-0.1,1.3,0.3
			c0.3,0.5,0.2,1.1-0.3,1.4c-0.1,0-0.2,0.1-0.2,0.1C90.2,114.4,90.1,114.4,90,114.4z M8.4,113.4c-0.2,0-0.4-0.1-0.5-0.2l0,0
			c-0.5-0.3-0.6-0.9-0.3-1.4c0.3-0.5,0.9-0.6,1.4-0.3c0.5,0.3,0.6,0.9,0.3,1.4C9,113.2,8.7,113.4,8.4,113.4z M93.3,112.2
			c-0.3,0-0.5-0.1-0.7-0.3c-0.4-0.4-0.4-1,0-1.4c0,0,0.1-0.1,0.2-0.1c0.5-0.3,1.1-0.2,1.4,0.3c0.3,0.4,0.2,1-0.2,1.4
			C93.8,112.1,93.6,112.2,93.3,112.2z M5.1,111.1c-0.2,0-0.4-0.1-0.6-0.2c-0.1,0-0.1-0.1-0.2-0.1c-0.4-0.4-0.4-1,0-1.4
			c0.4-0.4,0.9-0.4,1.3-0.1c0.4,0.3,0.5,0.9,0.2,1.4C5.8,110.9,5.4,111.1,5.1,111.1z M96.5,109.8c-0.3,0-0.5-0.1-0.7-0.3
			c-0.4-0.4-0.4-1,0-1.4c0,0,0.1-0.1,0.2-0.1c0.5-0.3,1.1-0.2,1.4,0.3c0.3,0.4,0.2,1-0.2,1.4C97,109.7,96.8,109.8,96.5,109.8z
			 M2,108.6c-0.2,0-0.4-0.1-0.6-0.2c-0.1-0.1-0.2-0.2-0.3-0.3c-0.3-0.5-0.2-1.1,0.3-1.4c0.4-0.3,0.9-0.2,1.2,0.1
			c0.4,0.3,0.4,0.9,0.2,1.3C2.6,108.4,2.3,108.6,2,108.6z M99.6,107.2c-0.2,0-0.4-0.1-0.6-0.2c-0.5-0.3-0.6-0.9-0.3-1.4
			c0.1-0.1,0.2-0.2,0.3-0.3c0.5-0.3,1.1-0.2,1.4,0.3c0.3,0.4,0.2,1-0.2,1.3C100.1,107.1,99.9,107.2,99.6,107.2z M-1,105.9
			c-0.3,0-0.5-0.1-0.7-0.3l0,0c-0.4-0.4-0.4-1,0-1.4s1-0.4,1.4,0s0.4,1,0,1.4C-0.5,105.8-0.8,105.9-1,105.9z M102.5,104.5
			c-0.3,0-0.5-0.1-0.7-0.3c-0.4-0.4-0.4-1,0-1.4c0.4-0.4,1-0.4,1.4,0c0.4,0.4,0.4,1,0,1.4l0,0C103.1,104.4,102.8,104.5,102.5,104.5z
			 M-3.9,103.1c-0.3,0-0.5-0.1-0.7-0.3l0,0c-0.4-0.4-0.4-1,0-1.4s1-0.4,1.4,0s0.4,1,0,1.4C-3.4,103-3.6,103.1-3.9,103.1z
			 M105.3,101.6c-0.3,0-0.6-0.2-0.8-0.4c-0.3-0.4-0.2-0.9,0.1-1.2c0.3-0.4,0.9-0.4,1.3-0.2c0.5,0.3,0.6,0.9,0.3,1.4
			c-0.1,0.1-0.2,0.2-0.3,0.3C105.7,101.5,105.5,101.6,105.3,101.6z M-6.6,100.2c-0.3,0-0.6-0.1-0.7-0.3c-0.3-0.3-0.4-0.8-0.1-1.2
			c0.3-0.5,0.9-0.6,1.4-0.3c0.1,0.1,0.2,0.2,0.3,0.3c0.3,0.5,0.2,1.1-0.3,1.4C-6.2,100.1-6.4,100.2-6.6,100.2z M108,98.6
			c-0.3,0-0.6-0.2-0.8-0.4c-0.3-0.4-0.2-0.9,0.1-1.2c0.3-0.4,0.9-0.4,1.3-0.2c0.5,0.3,0.6,0.9,0.3,1.4c-0.1,0.1-0.2,0.2-0.3,0.3
			C108.3,98.5,108.1,98.6,108,98.6z M-9.2,97.1c-0.3,0-0.6-0.1-0.8-0.4c-0.3-0.4-0.3-1,0.1-1.3c0.4-0.4,1-0.4,1.4,0
			c0,0,0.1,0.1,0.1,0.2c0.3,0.5,0.2,1.1-0.3,1.4C-8.8,97-9,97.1-9.2,97.1z M110.4,95.4c-0.3,0-0.5-0.1-0.7-0.3
			c-0.4-0.4-0.4-0.9-0.1-1.3c0.3-0.4,0.9-0.5,1.4-0.2c0.5,0.3,0.6,0.9,0.3,1.4c0,0.1-0.1,0.1-0.1,0.2
			C110.9,95.3,110.7,95.4,110.4,95.4z M-11.5,93.8c-0.3,0-0.6-0.1-0.8-0.4c-0.3-0.4-0.3-1,0.1-1.3c0.4-0.4,1-0.4,1.4,0
			c0,0,0.1,0.1,0.1,0.2c0.3,0.5,0.2,1.1-0.3,1.4C-11.2,93.8-11.3,93.8-11.5,93.8z M112.7,92.1c-0.2,0-0.4-0.1-0.6-0.2
			c-0.5-0.3-0.6-0.9-0.3-1.4c0.3-0.5,0.9-0.6,1.4-0.3c0.5,0.3,0.6,0.9,0.3,1.4l0,0C113.3,91.9,113,92.1,112.7,92.1z M-13.7,90.5
			c-0.3,0-0.6-0.2-0.8-0.4c0-0.1-0.1-0.2-0.1-0.2c-0.2-0.5,0.1-1.1,0.6-1.3c0.5-0.2,1,0.1,1.2,0.5c0.2,0.5,0.1,1-0.3,1.3
			C-13.4,90.4-13.5,90.5-13.7,90.5z M114.8,88.7c-0.1,0-0.2,0-0.3-0.1c-0.5-0.2-0.8-0.7-0.6-1.3c0-0.1,0.1-0.2,0.1-0.2
			c0.3-0.5,0.9-0.6,1.4-0.3c0.4,0.3,0.6,0.9,0.3,1.3C115.5,88.5,115.2,88.7,114.8,88.7z M-15.8,87c-0.3,0-0.6-0.2-0.8-0.4
			c0-0.1-0.1-0.2-0.1-0.2c-0.2-0.5,0.1-1.1,0.6-1.3c0.5-0.2,1,0.1,1.2,0.5c0.2,0.5,0.1,1-0.3,1.3C-15.4,87-15.6,87-15.8,87z
			 M116.8,85.2c-0.1,0-0.2,0-0.3-0.1c-0.5-0.2-0.8-0.7-0.6-1.3c0-0.1,0.1-0.2,0.1-0.2c0.3-0.5,0.9-0.6,1.4-0.3
			c0.4,0.3,0.6,0.9,0.3,1.3C117.5,85,117.1,85.2,116.8,85.2z M-17.6,83.5c-0.4,0-0.7-0.2-0.9-0.6c-0.2-0.4-0.1-1,0.4-1.2
			c0.5-0.3,1.1-0.2,1.4,0.3c0,0.1,0.1,0.2,0.1,0.2c0.2,0.5-0.1,1.1-0.6,1.3C-17.4,83.5-17.5,83.5-17.6,83.5z M118.5,81.6
			c-0.2,0-0.4-0.1-0.6-0.2c-0.4-0.3-0.6-0.8-0.4-1.3c0.2-0.5,0.7-0.7,1.2-0.5c0.5,0.2,0.8,0.7,0.6,1.3c0,0.1-0.1,0.2-0.1,0.2
			C119.1,81.4,118.8,81.6,118.5,81.6z M-19.2,79.8c-0.4,0-0.7-0.2-0.9-0.6c-0.2-0.4-0.1-1,0.4-1.2c0.5-0.3,1.1-0.2,1.4,0.3
			c0,0.1,0.1,0.2,0.1,0.2c0.2,0.5-0.1,1.1-0.6,1.3C-19,79.8-19.1,79.8-19.2,79.8z M120,77.8c-0.2,0-0.3,0-0.4-0.1
			c-0.5-0.2-0.7-0.8-0.5-1.3c0.2-0.5,0.7-0.7,1.2-0.6c0.5,0.2,0.8,0.7,0.6,1.3c0,0,0,0.1-0.1,0.1C120.8,77.6,120.4,77.8,120,77.8z
			 M-20.7,76.1c-0.4,0-0.8-0.3-0.9-0.7c0,0,0-0.1,0-0.1c-0.1-0.5,0.2-1.1,0.7-1.2c0.5-0.1,1.1,0.2,1.2,0.7c0.1,0.5-0.2,1.1-0.7,1.2
			C-20.5,76.1-20.6,76.1-20.7,76.1z M121.4,74.1c-0.1,0-0.2,0-0.2,0c-0.5-0.1-0.9-0.7-0.7-1.2l1.9,0.5
			C122.2,73.8,121.8,74.1,121.4,74.1z M122.3,73.4L122.3,73.4L122.3,73.4z M-21.9,72.3c-0.4,0-0.8-0.3-0.9-0.7c0,0,0-0.1,0-0.1
			c-0.1-0.5,0.2-1.1,0.7-1.2c0.5-0.1,1.1,0.2,1.2,0.7c0.1,0.5-0.2,1.1-0.7,1.2C-21.7,72.3-21.8,72.3-21.9,72.3z M122.5,70.2
			c-0.1,0-0.2,0-0.2,0c-0.5-0.1-0.9-0.7-0.7-1.2l1.9,0.5C123.4,69.9,123,70.2,122.5,70.2z M123.5,69.5L123.5,69.5L123.5,69.5z
			 M-23,68.4c-0.4,0-0.8-0.3-0.9-0.7c0-0.1-0.1-0.2-0.1-0.3c0-0.6,0.4-1,1-1c0.5,0,0.9,0.4,1,0.8c0.1,0.5-0.2,1-0.7,1.1
			C-22.7,68.4-22.9,68.4-23,68.4z M123.4,66.3c-0.6,0-1-0.4-1-1c0-0.1,0-0.2,0.1-0.3c0.2-0.5,0.7-0.8,1.3-0.6
			c0.5,0.2,0.8,0.7,0.7,1.1C124.3,66,123.9,66.3,123.4,66.3z M-23.8,64.5c-0.4,0-0.8-0.3-0.9-0.7c0-0.1-0.1-0.2-0.1-0.3
			c0-0.6,0.4-1,1-1c0.5,0,0.9,0.4,1,0.8c0.1,0.5-0.2,1-0.7,1.1C-23.6,64.5-23.7,64.5-23.8,64.5z M124.1,62.4c-0.6,0-1-0.4-1-1
			c0-0.1,0-0.2,0.1-0.3c0.2-0.5,0.7-0.8,1.3-0.6c0.5,0.2,0.8,0.7,0.7,1.1C125,62,124.6,62.4,124.1,62.4z M-24.4,60.5
			c-0.5,0-0.9-0.4-1-0.9c-0.1-0.5,0.3-1,0.8-1.1c0.5-0.1,1.1,0.2,1.2,0.7c0,0.1,0,0.2,0,0.3C-23.4,60.1-23.8,60.5-24.4,60.5z
			 M124.6,58.4c-0.1,0-0.2,0-0.2,0c-0.5-0.1-0.8-0.6-0.8-1.1c0.1-0.5,0.5-0.9,1-0.9l0,0c0.6,0,1,0.4,1,1c0,0.1,0,0.2,0,0.3
			C125.5,58.1,125.1,58.4,124.6,58.4z M-24.8,56.5c-0.5,0-0.9-0.4-1-0.9c-0.1-0.5,0.3-1,0.8-1.1c0.5-0.1,1.1,0.2,1.2,0.7
			c0,0.1,0,0.2,0,0.3C-23.8,56.1-24.2,56.5-24.8,56.5z M124.9,54.4c-0.6,0-1-0.4-1-1s0.4-1,1-1s1,0.4,1,1v0
			C125.9,53.9,125.5,54.4,124.9,54.4z M-25,52.5c-0.6,0-1-0.4-1-1v0c0-0.6,0.4-1,1-1s1,0.4,1,1S-24.4,52.5-25,52.5z M125,50.4
			c-0.6,0-1-0.4-1-1s0.4-1,1-1s1,0.4,1,1v0C126,49.9,125.6,50.4,125,50.4z M-25,48.5c-0.6,0-1-0.4-1-1v0c0-0.6,0.4-1,1-1s1,0.4,1,1
			S-24.4,48.5-25,48.5z M124.9,46.4c-0.4,0-0.9-0.3-1-0.8c0-0.1,0-0.2,0-0.3c0-0.6,0.4-1,1-1c0.5,0,0.9,0.4,1,0.9
			c0.1,0.5-0.3,1-0.8,1.1C125,46.4,124.9,46.4,124.9,46.4z M-24.7,44.5L-24.7,44.5c-0.6,0-1-0.4-1-1c0-0.1,0-0.2,0-0.3
			c0.1-0.5,0.7-0.9,1.2-0.7c0.5,0.1,0.8,0.6,0.8,1.1C-23.8,44.1-24.2,44.5-24.7,44.5z M124.5,42.4c-0.4,0-0.9-0.3-1-0.8
			c0-0.1,0-0.2,0-0.3c0-0.6,0.4-1,1-1c0.5,0,0.9,0.4,1,0.9c0.1,0.5-0.3,1-0.8,1.1C124.7,42.4,124.6,42.4,124.5,42.4z M-24.3,40.6
			L-24.3,40.6c-0.6,0-1-0.4-1-1c0-0.1,0-0.2,0-0.3c0.1-0.5,0.7-0.9,1.2-0.7c0.5,0.1,0.8,0.6,0.8,1.1C-23.3,40.2-23.8,40.6-24.3,40.6
			z M123.9,38.4c-0.5,0-0.9-0.4-1-0.8c-0.1-0.5,0.2-1,0.7-1.1c0.5-0.2,1.1,0.1,1.3,0.6c0,0.1,0.1,0.2,0.1,0.3
			C124.9,38,124.5,38.4,123.9,38.4z M-23.6,36.6c-0.1,0-0.2,0-0.3-0.1c-0.5-0.2-0.8-0.7-0.7-1.1c0.1-0.5,0.5-0.8,1-0.8
			c0.6,0,1,0.4,1,1c0,0.1,0,0.2-0.1,0.3C-22.8,36.3-23.2,36.6-23.6,36.6z M123.2,34.5c-0.5,0-0.9-0.4-1-0.8c-0.1-0.5,0.2-1,0.7-1.1
			c0.5-0.2,1.1,0.1,1.3,0.6c0,0.1,0.1,0.2,0.1,0.3C124.2,34,123.7,34.5,123.2,34.5z M-22.7,32.7c-0.1,0-0.2,0-0.3-0.1
			c-0.5-0.2-0.8-0.7-0.7-1.1c0.1-0.5,0.5-0.8,1-0.8c0.6,0,1,0.4,1,1c0,0.1,0,0.2-0.1,0.3C-21.9,32.4-22.3,32.7-22.7,32.7z
			 M122.2,30.6c-0.4,0-0.9-0.3-1-0.8c-0.1-0.5,0.2-1.1,0.7-1.2c0.5-0.2,1.1,0.1,1.2,0.6c0,0,0,0.1,0,0.1c0.1,0.5-0.2,1.1-0.7,1.2
			C122.3,30.6,122.3,30.6,122.2,30.6z M-20.7,28.1l-1.9-0.5c0.1-0.5,0.7-0.9,1.2-0.7C-20.9,27-20.5,27.5-20.7,28.1z M121,26.8
			c-0.4,0-0.9-0.3-1-0.8c-0.1-0.5,0.2-1.1,0.7-1.2c0.5-0.2,1.1,0.1,1.2,0.6c0,0,0,0.1,0,0.1c0.1,0.5-0.2,1.1-0.7,1.2
			C121.2,26.8,121.1,26.8,121,26.8z M-20.4,25c-0.1,0-0.2,0-0.3-0.1c-0.5-0.2-0.8-0.7-0.6-1.3c0,0,0-0.1,0.1-0.1
			c0.2-0.5,0.8-0.7,1.3-0.4c0.5,0.2,0.7,0.8,0.5,1.3C-19.6,24.8-20,25-20.4,25z M119.6,23c-0.3,0-0.6-0.2-0.8-0.4
			c0-0.1-0.1-0.2-0.1-0.2c-0.2-0.5,0.1-1.1,0.6-1.3c0.5-0.2,1,0.1,1.2,0.5c0.2,0.4,0.1,1-0.4,1.3C120,23,119.8,23,119.6,23z
			 M-18.9,21.3c-0.1,0-0.2,0-0.3-0.1c-0.5-0.2-0.8-0.7-0.6-1.3c0-0.1,0.1-0.2,0.1-0.2c0.3-0.5,0.9-0.6,1.4-0.3
			c0.4,0.3,0.6,0.8,0.4,1.3C-18.1,21.1-18.5,21.3-18.9,21.3z M118,19.4c-0.3,0-0.6-0.2-0.8-0.4c0-0.1-0.1-0.2-0.1-0.2
			c-0.2-0.5,0.1-1.1,0.6-1.3c0.5-0.2,1,0.1,1.2,0.5c0.2,0.4,0.1,1-0.4,1.2C118.4,19.3,118.2,19.4,118,19.4z M-17.2,17.7
			c-0.2,0-0.4-0.1-0.6-0.2c-0.4-0.3-0.6-0.9-0.3-1.3c0.2-0.4,0.7-0.6,1.2-0.5c0.5,0.2,0.8,0.7,0.6,1.3c0,0.1-0.1,0.2-0.1,0.2
			C-16.5,17.5-16.9,17.7-17.2,17.7z M116.2,15.8c-0.4,0-0.7-0.2-0.9-0.5c-0.2-0.4-0.1-1,0.3-1.3c0.5-0.3,1.1-0.2,1.4,0.3
			c0,0.1,0.1,0.2,0.1,0.2c0.2,0.5-0.1,1.1-0.6,1.3C116.4,15.8,116.3,15.8,116.2,15.8z M-15.3,14.1c-0.2,0-0.4-0.1-0.6-0.2
			c-0.4-0.3-0.6-0.9-0.3-1.3c0.2-0.4,0.7-0.6,1.2-0.5c0.5,0.2,0.8,0.7,0.6,1.3c0,0.1-0.1,0.2-0.1,0.2C-14.7,14-15,14.1-15.3,14.1z
			 M114.2,12.3c-0.4,0-0.7-0.2-0.9-0.5c-0.2-0.5-0.1-1,0.3-1.3c0.5-0.3,1.1-0.2,1.4,0.3c0,0.1,0.1,0.2,0.1,0.2
			c0.2,0.5-0.1,1.1-0.6,1.3C114.4,12.3,114.3,12.3,114.2,12.3z M-13.2,10.7c-0.2,0-0.4-0.1-0.6-0.2c-0.5-0.3-0.6-0.9-0.3-1.4l0,0
			c0.3-0.5,0.9-0.6,1.4-0.3c0.5,0.3,0.6,0.9,0.3,1.4C-12.6,10.5-12.9,10.7-13.2,10.7z M112.1,8.9c-0.3,0-0.5-0.1-0.7-0.3
			c0,0-0.1-0.1-0.1-0.2c-0.3-0.5-0.2-1.1,0.3-1.4c0.4-0.3,1-0.2,1.4,0.2c0.3,0.4,0.3,1-0.1,1.3C112.6,8.8,112.3,8.9,112.1,8.9z
			 M-11,7.4c-0.2,0-0.4-0.1-0.6-0.2c-0.5-0.3-0.6-0.9-0.3-1.4c0-0.1,0.1-0.1,0.1-0.2c0.4-0.4,1-0.4,1.4,0C-9.9,6-9.9,6.6-10.2,7
			C-10.4,7.2-10.7,7.4-11,7.4z M109.7,5.7c-0.3,0-0.5-0.1-0.7-0.3c0,0-0.1-0.1-0.1-0.2c-0.3-0.5-0.2-1.1,0.3-1.4
			c0.4-0.3,1-0.2,1.4,0.2c0.3,0.4,0.3,1-0.1,1.3C110.2,5.6,110,5.7,109.7,5.7z M-8.5,4.2c-0.2,0-0.4-0.1-0.6-0.2
			c-0.5-0.3-0.6-0.9-0.3-1.4c0-0.1,0.1-0.1,0.1-0.2c0.4-0.4,1-0.4,1.4,0c0.4,0.4,0.4,0.9,0.1,1.3C-7.9,4-8.2,4.2-8.5,4.2z
			 M107.2,2.6c-0.2,0-0.4-0.1-0.6-0.2c-0.1-0.1-0.2-0.2-0.3-0.3c-0.3-0.5-0.2-1.1,0.3-1.4c0.4-0.3,1-0.2,1.3,0.2
			c0.3,0.3,0.4,0.8,0.1,1.2C107.9,2.4,107.5,2.6,107.2,2.6z M-6,1.1c-0.2,0-0.4-0.1-0.6-0.2C-7,0.6-7.1,0-6.8-0.5
			c0.1-0.1,0.2-0.2,0.3-0.3C-6-1-5.4-0.9-5.1-0.5c0.3,0.4,0.2,0.9-0.1,1.2C-5.4,1-5.7,1.1-6,1.1z M104.5-0.4c-0.3,0-0.5-0.1-0.7-0.3
			c-0.4-0.4-0.4-1,0-1.4c0.4-0.4,1-0.4,1.4,0l0,0c0.4,0.4,0.4,1,0,1.4C105.1-0.5,104.8-0.4,104.5-0.4z M-3.2-1.8
			c-0.3,0-0.5-0.1-0.7-0.3c-0.4-0.4-0.4-1,0-1.4l0,0c0.4-0.4,1-0.4,1.4,0s0.4,1,0,1.4C-2.7-1.9-2.9-1.8-3.2-1.8z M101.7-3.3
			c-0.3,0-0.5-0.1-0.7-0.3c-0.4-0.4-0.4-1,0-1.4c0.4-0.4,1-0.4,1.4,0l0,0c0.4,0.4,0.4,1,0,1.4C102.2-3.4,102-3.3,101.7-3.3z
			 M-0.3-4.6c-0.3,0-0.6-0.2-0.8-0.4C-1.4-5.5-1.3-6-1-6.3c0.3-0.3,0.8-0.4,1.2-0.1C0.7-6.1,0.8-5.5,0.5-5C0.5-4.9,0.4-4.8,0.2-4.8
			C0.1-4.6-0.1-4.6-0.3-4.6z M98.7-6c-0.2,0-0.5-0.1-0.7-0.3c-0.4-0.3-0.4-0.9-0.2-1.3c0.3-0.5,0.9-0.6,1.4-0.3
			c0.1,0.1,0.2,0.2,0.3,0.3c0.3,0.5,0.2,1.1-0.3,1.4C99.1-6,98.9-6,98.7-6z M2.7-7.2c-0.3,0-0.6-0.2-0.8-0.4C1.6-8.1,1.7-8.7,2.1-9
			c0.4-0.3,1-0.3,1.3,0.1c0.4,0.4,0.4,1,0,1.4c0,0-0.1,0.1-0.2,0.1C3.1-7.2,2.9-7.2,2.7-7.2z M95.6-8.5c-0.2,0-0.4-0.1-0.6-0.2
			C94.6-9,94.5-9.6,94.8-10c0.3-0.5,0.9-0.6,1.4-0.3c0.1,0,0.1,0.1,0.2,0.1c0.4,0.4,0.4,1,0,1.4C96.1-8.6,95.9-8.5,95.6-8.5z
			 M5.9-9.6c-0.3,0-0.6-0.2-0.8-0.4c-0.3-0.4-0.2-1,0.2-1.4c0.4-0.3,1-0.3,1.3,0.1c0.4,0.4,0.4,1,0,1.4c0,0-0.1,0.1-0.2,0.1
			C6.3-9.7,6.1-9.6,5.9-9.6z M92.4-10.8c-0.2,0-0.4-0.1-0.6-0.2c-0.4-0.3-0.5-0.9-0.2-1.4c0.3-0.5,0.9-0.6,1.4-0.3
			c0.1,0,0.1,0.1,0.2,0.1c0.4,0.4,0.4,1,0,1.4C92.9-10.9,92.6-10.8,92.4-10.8z M9.2-11.9c-0.3,0-0.6-0.2-0.8-0.4
			c-0.3-0.5-0.2-1.1,0.3-1.4l0,0c0.5-0.3,1.1-0.2,1.4,0.3s0.2,1.1-0.3,1.4C9.6-12,9.4-11.9,9.2-11.9z M89-13c-0.1,0-0.2,0-0.3-0.1
			c-0.1,0-0.2-0.1-0.2-0.1c-0.5-0.3-0.6-0.9-0.3-1.4c0.3-0.4,0.9-0.6,1.3-0.3c0.4,0.2,0.6,0.7,0.5,1.2C89.8-13.3,89.4-13,89-13z
			 M12.6-14c-0.3,0-0.6-0.2-0.8-0.4c-0.3-0.5-0.2-1.1,0.3-1.4c0.1,0,0.2-0.1,0.2-0.1c0.5-0.2,1.1,0.1,1.3,0.6c0.2,0.5-0.1,1-0.5,1.2
			C12.9-14,12.8-14,12.6-14z M85.5-15c-0.1,0-0.2,0-0.3-0.1c-0.1,0-0.2-0.1-0.2-0.1c-0.5-0.3-0.6-0.9-0.3-1.4
			c0.3-0.4,0.9-0.6,1.3-0.3c0.4,0.2,0.6,0.7,0.5,1.2C86.4-15.3,86-15,85.5-15z M16.1-15.9c-0.3,0-0.6-0.2-0.8-0.4
			c-0.3-0.5-0.2-1.1,0.3-1.4c0.1,0,0.2-0.1,0.2-0.1c0.5-0.2,1.1,0.1,1.3,0.6c0.2,0.5-0.1,1-0.5,1.2C16.5-16,16.3-15.9,16.1-15.9z
			 M82-16.8c-0.1,0-0.3,0-0.4-0.1c-0.5-0.2-0.7-0.7-0.5-1.2c0.2-0.5,0.7-0.8,1.3-0.6c0.1,0,0.2,0.1,0.2,0.1c0.5,0.3,0.6,0.9,0.3,1.4
			C82.6-17,82.3-16.8,82-16.8z M19.8-17.6c-0.4,0-0.8-0.3-0.9-0.7c-0.2-0.5,0.1-1,0.5-1.2c0.4-0.2,1-0.1,1.3,0.4
			c0.3,0.5,0.2,1.1-0.3,1.4c-0.1,0-0.2,0.1-0.2,0.1C20-17.6,19.9-17.6,19.8-17.6z M78.3-18.5c-0.1,0-0.3,0-0.4-0.1
			c-0.5-0.2-0.7-0.7-0.6-1.2c0.2-0.5,0.7-0.8,1.3-0.6c0,0,0.1,0,0.1,0.1c0.5,0.2,0.7,0.8,0.4,1.3C79-18.7,78.7-18.5,78.3-18.5z
			 M23.5-19.2c-0.4,0-0.8-0.3-0.9-0.7c-0.2-0.5,0.1-1.1,0.6-1.2c0.5-0.2,1,0,1.3,0.5c0.2,0.5,0,1.1-0.4,1.3c0,0-0.1,0-0.1,0.1
			C23.7-19.2,23.6-19.2,23.5-19.2z M74.5-19.9c-0.1,0-0.2,0-0.2,0l0.5-1.9c0.5,0.1,0.9,0.7,0.7,1.2C75.4-20.2,75-19.9,74.5-19.9z
			 M27.2-20.5c-0.4,0-0.8-0.3-1-0.7c-0.2-0.5,0.1-1.1,0.6-1.2c0,0,0.1,0,0.1,0c0.5-0.1,1.1,0.2,1.2,0.7c0.1,0.5-0.2,1.1-0.7,1.2
			C27.4-20.5,27.3-20.5,27.2-20.5z M70.7-21.1c-0.1,0-0.2,0-0.2,0l0.5-1.9c0.5,0.1,0.9,0.7,0.7,1.2C71.6-21.4,71.2-21.1,70.7-21.1z
			 M31.1-21.6c-0.4,0-0.8-0.3-1-0.7c-0.2-0.5,0.1-1.1,0.6-1.2c0,0,0.1,0,0.1,0c0.5-0.1,1.1,0.2,1.2,0.7c0.1,0.5-0.2,1.1-0.7,1.2
			C31.3-21.6,31.2-21.6,31.1-21.6z M66.8-22.1c-0.1,0-0.2,0-0.3-0.1c-0.5-0.2-0.8-0.7-0.6-1.3c0.2-0.5,0.7-0.8,1.1-0.7
			c0.5,0.1,0.8,0.5,0.8,1C67.8-22.5,67.4-22.1,66.8-22.1z M35-22.5c-0.4,0-0.8-0.3-0.9-0.7c-0.2-0.5,0.1-1.1,0.6-1.3
			c0.6-0.2,1.3,0.3,1.3,0.9c0,0.5-0.4,0.9-0.8,1C35.1-22.5,35.1-22.5,35-22.5z M62.9-22.9c-0.1,0-0.2,0-0.3-0.1
			c-0.5-0.2-0.8-0.7-0.6-1.3c0.2-0.5,0.7-0.8,1.1-0.7c0.5,0.1,0.8,0.5,0.8,1C63.9-23.3,63.5-22.9,62.9-22.9z M38.9-23.2
			c-0.4,0-0.8-0.3-0.9-0.7c-0.2-0.5,0.1-1.1,0.6-1.3c0.6-0.2,1.3,0.3,1.3,0.9c0,0.5-0.4,0.9-0.8,1C39.1-23.2,39-23.2,38.9-23.2z
			 M58.9-23.5c0,0-0.1,0-0.1,0c-0.5-0.1-0.9-0.5-0.9-1c0-0.6,0.6-1.1,1.3-1c0.5,0.1,0.9,0.7,0.7,1.2C59.8-23.8,59.4-23.5,58.9-23.5z
			 M42.9-23.7c-0.6,0-1-0.4-1-1c0-0.5,0.4-0.9,0.9-1c0.5-0.1,1,0.3,1.1,0.8c0.1,0.5-0.2,1.1-0.7,1.2C43.1-23.7,43-23.7,42.9-23.7z
			 M54.9-23.8c0,0-0.1,0-0.1,0c-0.5-0.1-0.9-0.5-0.9-1c0-0.6,0.6-1.1,1.3-1c0.5,0.1,0.9,0.7,0.7,1.2C55.8-24.1,55.4-23.8,54.9-23.8z
			 M46.9-23.9c-0.6,0-1-0.4-1-1s0.4-1,1-1h0c0.6,0,1,0.4,1,1S47.5-23.9,46.9-23.9z M50.9-24c-0.6,0-1-0.4-1-1s0.4-1,1-1h0
			c0.6,0,1,0.4,1,1S51.5-24,50.9-24z"/>
		<path d="M50,109.3L50,109.3c-0.6,0-1-0.4-1-1s0.4-1,1-1c0.3,0,0.7,0.2,0.8,0.4c0.2-0.3,0.5-0.5,0.8-0.5c0.6,0,1,0.4,1,1
			s-0.4,1-1,1h0c-0.3,0-0.6-0.2-0.8-0.4C50.7,109.1,50.4,109.3,50,109.3z M46,109.2c-0.1,0-0.2,0-0.3,0c-0.5-0.1-0.9-0.7-0.7-1.2
			c0.1-0.5,0.6-0.8,1.1-0.8c0.5,0.1,0.9,0.5,0.9,1C47,108.8,46.5,109.2,46,109.2z M55.7,109.1c-0.4,0-0.9-0.3-1-0.8
			c-0.1-0.5,0.2-1.1,0.7-1.2c0.6-0.2,1.3,0.3,1.3,1c0,0.5-0.4,0.9-0.9,1C55.7,109.1,55.7,109.1,55.7,109.1z M42,108.8
			c-0.1,0-0.2,0-0.3,0c-0.5-0.1-0.9-0.7-0.7-1.2c0.1-0.5,0.6-0.8,1.1-0.8c0.5,0.1,0.9,0.5,0.9,1C43,108.3,42.6,108.8,42,108.8z
			 M59.6,108.5c-0.6,0-1-0.4-1-1c0-0.5,0.4-0.9,0.8-1c0.5-0.1,1,0.2,1.1,0.7c0.2,0.5-0.1,1.1-0.6,1.3
			C59.9,108.5,59.8,108.5,59.6,108.5z M38.1,108.1c-0.1,0-0.1,0-0.2,0c-0.5-0.1-0.8-0.5-0.8-1c0-0.7,0.7-1.2,1.3-0.9
			c0.5,0.2,0.8,0.7,0.6,1.3C38.9,107.8,38.5,108.1,38.1,108.1z M63.6,107.7c-0.6,0-1-0.4-1-1c0-0.5,0.4-0.9,0.8-1
			c0.5-0.1,1,0.2,1.1,0.7c0.2,0.5-0.1,1.1-0.6,1.3C63.8,107.7,63.7,107.7,63.6,107.7z M33.9,107.1c-0.5-0.1-0.9-0.7-0.7-1.2
			c0.1-0.5,0.7-0.9,1.2-0.7L33.9,107.1z M67.4,106.7c-0.4,0-0.9-0.3-1-0.8c-0.1-0.5,0.2-1.1,0.7-1.2c0.5-0.1,1.1,0.2,1.2,0.7
			c0.2,0.5-0.1,1.1-0.6,1.2c0,0-0.1,0-0.1,0C67.6,106.7,67.5,106.7,67.4,106.7z M30.1,105.9c-0.5-0.1-0.9-0.7-0.7-1.2
			c0.1-0.5,0.7-0.9,1.2-0.7L30.1,105.9z M71.2,105.3c-0.4,0-0.7-0.2-0.9-0.6c-0.2-0.5,0-1.1,0.4-1.3c0,0,0.1,0,0.1-0.1
			c0.5-0.2,1.1,0.1,1.3,0.6c0.2,0.5-0.1,1.1-0.6,1.2C71.5,105.3,71.3,105.3,71.2,105.3z M26.6,104.4c-0.1,0-0.2,0-0.3-0.1
			c-0.1,0-0.2-0.1-0.2-0.1c-0.5-0.3-0.6-0.9-0.3-1.4c0.3-0.4,0.8-0.6,1.3-0.4c0.5,0.2,0.7,0.7,0.5,1.2
			C27.4,104.2,27,104.4,26.6,104.4z M74.9,103.8c-0.3,0-0.6-0.2-0.8-0.4c-0.3-0.5-0.2-1.1,0.3-1.4c0.1,0,0.2-0.1,0.2-0.1
			c0.5-0.2,1.1,0.1,1.3,0.6c0.2,0.5-0.1,1-0.5,1.2C75.2,103.7,75,103.8,74.9,103.8z M23,102.7c-0.2,0-0.3,0-0.5-0.1
			c-0.4-0.2-0.6-0.7-0.5-1.2c0.2-0.5,0.7-0.8,1.3-0.6c0.1,0,0.2,0.1,0.2,0.1c0.5,0.3,0.6,0.9,0.3,1.4
			C23.6,102.5,23.3,102.7,23,102.7z M78.4,101.9c-0.4,0-0.8-0.3-0.9-0.7c-0.2-0.5,0.1-1,0.5-1.2c0.4-0.2,1-0.1,1.3,0.3
			c0.3,0.5,0.2,1.1-0.3,1.4c-0.1,0-0.2,0.1-0.2,0.1C78.7,101.9,78.6,101.9,78.4,101.9z M19.5,100.7c-0.2,0-0.3,0-0.5-0.1
			c-0.4-0.2-0.6-0.7-0.5-1.2c0.2-0.5,0.7-0.8,1.3-0.6c0.1,0,0.2,0.1,0.2,0.1c0.5,0.3,0.6,0.9,0.3,1.4
			C20.2,100.6,19.8,100.7,19.5,100.7z M81.9,99.8c-0.3,0-0.6-0.2-0.8-0.4c-0.3-0.5-0.2-1.1,0.3-1.4c0.5-0.3,1.1-0.2,1.4,0.3
			c0.3,0.5,0.2,1.1-0.3,1.4l0,0C82.3,99.8,82.1,99.8,81.9,99.8z M16.2,98.5c-0.2,0-0.4-0.1-0.6-0.2c-0.1,0-0.1-0.1-0.2-0.1
			c-0.4-0.4-0.4-1,0-1.4c0.4-0.4,0.9-0.4,1.3-0.1c0.4,0.3,0.5,0.9,0.2,1.4C16.8,98.3,16.5,98.5,16.2,98.5z M85.1,97.5
			c-0.3,0-0.5-0.1-0.7-0.3c-0.4-0.4-0.4-1,0-1.4c0,0,0.1-0.1,0.2-0.1c0.5-0.3,1.1-0.2,1.4,0.3c0.3,0.4,0.2,1-0.2,1.4
			C85.6,97.5,85.4,97.5,85.1,97.5z M13,96.1c-0.2,0-0.4-0.1-0.6-0.2c-0.1-0.1-0.2-0.2-0.3-0.3c-0.3-0.5-0.2-1.1,0.3-1.4
			c0.4-0.3,0.9-0.2,1.2,0.1c0.4,0.3,0.4,0.9,0.2,1.3C13.6,95.9,13.3,96.1,13,96.1z M88.3,95c-0.2,0-0.4-0.1-0.6-0.2
			c-0.5-0.3-0.6-0.9-0.3-1.4c0.1-0.1,0.2-0.2,0.3-0.3c0.5-0.3,1.1-0.2,1.4,0.3c0.3,0.4,0.2,1-0.2,1.3C88.7,94.9,88.5,95,88.3,95z
			 M10,93.4c-0.3,0-0.5-0.1-0.7-0.3l0,0c-0.4-0.4-0.4-1,0-1.4s1-0.4,1.4,0s0.4,1,0,1.4C10.5,93.3,10.2,93.4,10,93.4z M91.2,92.3
			c-0.3,0-0.5-0.1-0.7-0.3c-0.4-0.4-0.4-1,0-1.4c0.4-0.4,1-0.4,1.4,0c0.4,0.4,0.4,1,0,1.4l0,0C91.7,92.2,91.4,92.3,91.2,92.3z
			 M7.2,90.6c-0.3,0-0.6-0.1-0.7-0.3c-0.3-0.3-0.4-0.8-0.1-1.2c0.3-0.5,0.9-0.6,1.4-0.3C7.8,88.8,7.9,88.9,8,89
			c0.3,0.5,0.2,1.1-0.3,1.4C7.6,90.5,7.4,90.6,7.2,90.6z M93.9,89.3c-0.3,0-0.6-0.2-0.8-0.4c-0.3-0.4-0.2-0.9,0.1-1.2
			c0.3-0.4,0.9-0.4,1.3-0.2c0.5,0.3,0.6,0.9,0.3,1.4c-0.1,0.1-0.2,0.2-0.3,0.3C94.3,89.3,94.1,89.3,93.9,89.3z M4.6,87.5
			c-0.3,0-0.6-0.1-0.8-0.4c-0.3-0.4-0.3-1,0.1-1.3c0.4-0.4,1-0.4,1.4,0c0,0,0.1,0.1,0.1,0.2c0.3,0.5,0.2,1.1-0.3,1.4
			C4.9,87.5,4.7,87.5,4.6,87.5z M96.5,86.2c-0.3,0-0.5-0.1-0.7-0.3c-0.4-0.4-0.4-0.9-0.1-1.3c0.3-0.4,0.9-0.5,1.4-0.2
			c0.5,0.3,0.6,0.9,0.3,1.4c0,0.1-0.1,0.1-0.1,0.2C97,86.1,96.7,86.2,96.5,86.2z M2.1,84.3c-0.3,0-0.6-0.1-0.8-0.4
			c-0.3-0.4-0.3-1,0.1-1.3c0.4-0.4,1-0.4,1.4,0c0,0,0.1,0.1,0.1,0.2c0.3,0.5,0.2,1.1-0.3,1.4C2.5,84.3,2.3,84.3,2.1,84.3z M98.8,83
			c-0.2,0-0.4-0.1-0.6-0.2c-0.5-0.3-0.6-0.9-0.3-1.4c0.3-0.5,0.9-0.6,1.4-0.3c0.5,0.3,0.6,0.9,0.3,1.4l0,0
			C99.4,82.8,99.1,83,98.8,83z M0,81c-0.3,0-0.6-0.2-0.8-0.4c0-0.1-0.1-0.2-0.1-0.2c-0.2-0.5,0.1-1.1,0.6-1.3c0.5-0.2,1,0.1,1.2,0.5
			c0.2,0.5,0.1,1-0.3,1.3C0.3,80.9,0.2,81,0,81z M100.9,79.5c-0.1,0-0.2,0-0.3-0.1c-0.5-0.2-0.8-0.7-0.6-1.3c0-0.1,0.1-0.2,0.1-0.2
			c0.3-0.5,0.9-0.6,1.4-0.3c0.4,0.3,0.6,0.9,0.3,1.3C101.6,79.3,101.2,79.5,100.9,79.5z M-2,77.5c-0.3,0-0.6-0.2-0.8-0.4
			c0-0.1-0.1-0.2-0.1-0.2c-0.2-0.5,0.1-1.1,0.6-1.3c0.5-0.2,1,0.1,1.2,0.5c0.2,0.5,0.1,1-0.3,1.3C-1.6,77.4-1.8,77.5-2,77.5z
			 M102.7,76c-0.2,0-0.4-0.1-0.6-0.2c-0.4-0.3-0.6-0.8-0.4-1.2c0.2-0.5,0.7-0.7,1.2-0.5c0.5,0.2,0.8,0.7,0.6,1.3
			c0,0.1-0.1,0.2-0.1,0.2C103.4,75.8,103,76,102.7,76z M-3.7,73.8c-0.4,0-0.7-0.2-0.9-0.6c-0.2-0.4-0.1-1,0.4-1.2
			c0.5-0.3,1.1-0.2,1.4,0.3c0,0.1,0.1,0.2,0.1,0.2c0.2,0.5-0.1,1.1-0.6,1.3C-3.5,73.8-3.6,73.8-3.7,73.8z M104.3,72.3
			c-0.2,0-0.3,0-0.4-0.1c-0.5-0.2-0.7-0.8-0.5-1.3c0.2-0.5,0.7-0.7,1.2-0.6c0.5,0.2,0.8,0.7,0.6,1.3c0,0,0,0.1-0.1,0.1
			C105,72.1,104.7,72.3,104.3,72.3z M-5.1,70.1c-0.4,0-0.8-0.3-0.9-0.7c0,0,0-0.1,0-0.1c-0.1-0.5,0.2-1.1,0.7-1.2
			c0.5-0.1,1.1,0.2,1.2,0.7c0.1,0.5-0.2,1.1-0.7,1.2C-4.9,70.1-5,70.1-5.1,70.1z M105.7,68.5c-0.1,0-0.2,0-0.2,0
			c-0.5-0.1-0.9-0.7-0.7-1.2l1.9,0.5C106.5,68.2,106.1,68.5,105.7,68.5z M106.6,67.8L106.6,67.8L106.6,67.8z M-6.3,66.3
			c-0.4,0-0.8-0.3-0.9-0.7c0,0,0-0.1,0-0.1c-0.1-0.5,0.2-1.1,0.7-1.2c0.5-0.1,1.1,0.2,1.2,0.7c0.1,0.5-0.2,1.1-0.7,1.2
			C-6.1,66.3-6.2,66.3-6.3,66.3z M106.7,64.7c-0.6,0-1-0.4-1-1c0-0.1,0-0.2,0.1-0.3c0.2-0.5,0.7-0.8,1.3-0.6
			c0.5,0.2,0.8,0.7,0.7,1.1C107.6,64.3,107.2,64.7,106.7,64.7z M-7.2,62.4c-0.4,0-0.8-0.3-0.9-0.7c0-0.1-0.1-0.2-0.1-0.3
			c0-0.6,0.4-1,1-1c0.5,0,0.9,0.4,1,0.8c0.1,0.5-0.2,1-0.7,1.1C-7,62.4-7.1,62.4-7.2,62.4z M107.5,60.7c-0.6,0-1-0.4-1-1
			c0-0.1,0-0.2,0.1-0.3c0.2-0.5,0.7-0.8,1.3-0.6c0.5,0.2,0.8,0.7,0.7,1.1C108.4,60.4,108,60.7,107.5,60.7z M-7.9,58.4
			c-0.5,0-0.9-0.4-1-0.9c-0.1-0.5,0.3-1,0.8-1.1c0.5-0.1,1.1,0.2,1.2,0.7c0,0.1,0,0.2,0,0.3C-6.9,58-7.3,58.4-7.9,58.4z M108.1,56.8
			c-0.1,0-0.2,0-0.2,0c-0.5-0.1-0.8-0.6-0.8-1.1c0.1-0.5,0.5-0.9,1-0.9l0,0c0.6,0,1,0.4,1,1c0,0.1,0,0.2,0,0.3
			C108.9,56.4,108.5,56.8,108.1,56.8z M-8.2,54.4c-0.5,0-0.9-0.4-1-0.9c-0.1-0.5,0.3-1,0.8-1.1c0.5-0.1,1.1,0.2,1.2,0.7
			c0,0.1,0,0.2,0,0.3C-7.2,54-7.7,54.4-8.2,54.4z M108.3,52.8c-0.6,0-1-0.4-1-1s0.4-1,1-1s1,0.4,1,1v0
			C109.3,52.3,108.9,52.8,108.3,52.8z M-8.3,50.4c-0.6,0-1-0.4-1-1v0c0-0.6,0.4-1,1-1s1,0.4,1,1S-7.8,50.4-8.3,50.4z M108.3,48.7
			c-0.6,0-1-0.4-1-1s0.4-1,1-1s1,0.4,1,1v0C109.3,48.3,108.8,48.7,108.3,48.7z M-8.2,46.4L-8.2,46.4c-0.6,0-1-0.4-1-1
			c0-0.1,0-0.2,0-0.3c0.1-0.5,0.7-0.9,1.2-0.7c0.5,0.1,0.8,0.6,0.8,1.1C-7.2,46-7.6,46.4-8.2,46.4z M108,44.7c-0.4,0-0.9-0.3-1-0.8
			c0-0.1,0-0.2,0-0.3c0-0.6,0.4-1,1-1c0.5,0,0.9,0.4,1,0.9c0.1,0.5-0.3,1-0.8,1.1C108.2,44.7,108.1,44.7,108,44.7z M-7.7,42.4
			L-7.7,42.4c-0.6,0-1-0.4-1-1c0-0.1,0-0.2,0-0.3c0.1-0.5,0.7-0.9,1.2-0.7c0.5,0.1,0.8,0.6,0.8,1.1C-6.8,42-7.2,42.4-7.7,42.4z
			 M107.4,40.8c-0.5,0-0.9-0.4-1-0.8c-0.1-0.5,0.2-1,0.7-1.1c0.5-0.2,1.1,0.1,1.3,0.6c0,0.1,0.1,0.2,0.1,0.3
			C108.4,40.3,108,40.8,107.4,40.8z M-7,38.5c-0.1,0-0.2,0-0.3-0.1c-0.5-0.2-0.8-0.7-0.7-1.1c0.1-0.5,0.5-0.8,1-0.8c0.6,0,1,0.4,1,1
			c0,0.1,0,0.2-0.1,0.3C-6.2,38.2-6.6,38.5-7,38.5z M106.6,36.9c-0.5,0-0.9-0.4-1-0.8c-0.1-0.5,0.2-1,0.7-1.1
			c0.5-0.2,1.1,0.1,1.3,0.6c0,0.1,0.1,0.2,0.1,0.3C107.6,36.4,107.2,36.9,106.6,36.9z M-5,33.8L-7,33.4c0.1-0.5,0.7-0.9,1.2-0.7
			C-5.2,32.8-4.9,33.3-5,33.8z M105.5,33c-0.4,0-0.9-0.3-1-0.8c-0.1-0.5,0.2-1.1,0.7-1.2c0.5-0.2,1.1,0.1,1.2,0.6c0,0,0,0.1,0,0.1
			c0.1,0.5-0.2,1.1-0.7,1.2C105.7,33,105.6,33,105.5,33z M-4.7,30.8c-0.1,0-0.2,0-0.3-0.1c-0.5-0.2-0.8-0.7-0.6-1.3
			c0,0,0-0.1,0.1-0.1c0.2-0.5,0.8-0.7,1.3-0.4c0.5,0.2,0.7,0.8,0.5,1.3C-4,30.6-4.3,30.8-4.7,30.8z M104.1,29.2
			c-0.3,0-0.6-0.2-0.8-0.4c0-0.1-0.1-0.2-0.1-0.2c-0.2-0.5,0.1-1.1,0.6-1.3c0.5-0.2,1,0.1,1.2,0.5c0.2,0.4,0.1,1-0.4,1.2
			C104.5,29.2,104.3,29.2,104.1,29.2z M-3.2,27.1c-0.1,0-0.2,0-0.3-0.1c-0.5-0.2-0.8-0.7-0.6-1.3c0-0.1,0.1-0.2,0.1-0.2
			c0.3-0.5,0.9-0.6,1.4-0.3c0.4,0.3,0.6,0.8,0.4,1.2C-2.5,26.9-2.8,27.1-3.2,27.1z M102.5,25.6c-0.3,0-0.6-0.2-0.8-0.4
			c0-0.1-0.1-0.2-0.1-0.2c-0.2-0.5,0.1-1.1,0.6-1.3c0.5-0.2,1,0.1,1.2,0.5c0.2,0.4,0.1,1-0.4,1.2C102.9,25.5,102.7,25.6,102.5,25.6z
			 M-1.4,23.5c-0.2,0-0.4-0.1-0.6-0.2C-2.4,23-2.6,22.5-2.3,22c0.2-0.4,0.7-0.6,1.2-0.5c0.5,0.2,0.8,0.7,0.6,1.3
			c0,0.1-0.1,0.2-0.1,0.2C-0.8,23.3-1.1,23.5-1.4,23.5z M100.6,22c-0.4,0-0.7-0.2-0.9-0.5c-0.2-0.5-0.1-1,0.3-1.3
			c0.5-0.3,1.1-0.2,1.4,0.3c0,0.1,0.1,0.2,0.1,0.2c0.2,0.5-0.1,1.1-0.6,1.3C100.8,22,100.7,22,100.6,22z M0.6,20
			C0.4,20,0.2,20,0,19.9c-0.4-0.3-0.6-0.9-0.3-1.3c0.2-0.4,0.7-0.6,1.2-0.5c0.5,0.2,0.8,0.7,0.6,1.3c0,0.1-0.1,0.2-0.1,0.2
			C1.2,19.9,0.9,20,0.6,20z M98.5,18.6c-0.3,0-0.5-0.1-0.7-0.3c0,0-0.1-0.1-0.1-0.2c-0.3-0.5-0.2-1.1,0.3-1.4c0.4-0.3,1-0.2,1.4,0.2
			c0.3,0.4,0.3,1-0.1,1.3C99,18.5,98.8,18.6,98.5,18.6z M2.8,16.7c-0.2,0-0.4-0.1-0.6-0.2c-0.5-0.3-0.6-0.9-0.3-1.4
			C2,15.1,2.1,15,2.1,15c0.4-0.4,1-0.4,1.4,0c0.4,0.4,0.4,0.9,0.1,1.3C3.4,16.6,3.1,16.7,2.8,16.7z M96.2,15.4
			c-0.3,0-0.5-0.1-0.7-0.3c0,0-0.1-0.1-0.1-0.2c-0.3-0.5-0.2-1.1,0.3-1.4c0.4-0.3,1-0.2,1.4,0.2c0.3,0.4,0.3,1-0.1,1.3
			C96.7,15.3,96.4,15.4,96.2,15.4z M5.3,13.5c-0.2,0-0.4-0.1-0.6-0.2c-0.5-0.3-0.6-0.9-0.3-1.4c0.1-0.1,0.2-0.2,0.3-0.3
			c0.5-0.3,1.1-0.2,1.4,0.3c0.3,0.4,0.2,0.9-0.1,1.2C5.9,13.4,5.6,13.5,5.3,13.5z M93.6,12.3c-0.2,0-0.4-0.1-0.6-0.2
			c-0.1-0.1-0.2-0.2-0.3-0.3c-0.3-0.5-0.2-1.1,0.3-1.4c0.4-0.3,1-0.2,1.3,0.2c0.3,0.3,0.4,0.8,0.1,1.2
			C94.3,12.2,93.9,12.3,93.6,12.3z M8,10.6c-0.3,0-0.5-0.1-0.7-0.3c-0.4-0.4-0.4-1,0-1.4l0,0c0.4-0.4,1-0.4,1.4,0
			c0.4,0.4,0.4,1,0,1.4C8.5,10.5,8.2,10.6,8,10.6z M90.9,9.4c-0.3,0-0.5-0.1-0.7-0.3c-0.4-0.4-0.4-1,0-1.4c0.4-0.4,1-0.4,1.4,0l0,0
			c0.4,0.4,0.4,1,0,1.4C91.4,9.3,91.1,9.4,90.9,9.4z M10.9,7.8c-0.3,0-0.6-0.2-0.8-0.4c-0.3-0.4-0.2-1,0.2-1.3
			c0.3-0.3,0.8-0.4,1.2-0.1c0.5,0.3,0.6,0.9,0.3,1.4c-0.1,0.1-0.2,0.2-0.3,0.3C11.2,7.7,11.1,7.8,10.9,7.8z M87.9,6.7
			c-0.2,0-0.5-0.1-0.7-0.3c-0.4-0.3-0.4-0.9-0.2-1.3c0.3-0.5,0.9-0.6,1.4-0.3c0.1,0.1,0.2,0.2,0.3,0.3c0.3,0.5,0.2,1.1-0.3,1.4
			C88.3,6.6,88.1,6.7,87.9,6.7z M13.9,5.2c-0.3,0-0.6-0.2-0.8-0.4c-0.3-0.4-0.2-1,0.2-1.4c0.4-0.3,1-0.3,1.3,0.1
			c0.4,0.4,0.4,1,0,1.4c0,0-0.1,0.1-0.2,0.1C14.3,5.1,14.1,5.2,13.9,5.2z M84.8,4.2c-0.2,0-0.4-0.1-0.6-0.2
			c-0.4-0.3-0.5-0.9-0.2-1.4c0.3-0.5,0.9-0.6,1.4-0.3c0.1,0,0.1,0.1,0.2,0.1c0.4,0.4,0.4,1,0,1.4C85.3,4.1,85,4.2,84.8,4.2z
			 M17.2,2.8c-0.3,0-0.6-0.2-0.8-0.4c-0.3-0.4-0.2-1,0.2-1.4c0.4-0.3,1-0.3,1.3,0.1c0.4,0.4,0.4,1,0,1.4c0,0-0.1,0.1-0.2,0.1
			C17.5,2.8,17.3,2.8,17.2,2.8z M81.5,1.9c-0.2,0-0.4-0.1-0.6-0.2c-0.5-0.3-0.6-0.9-0.3-1.4c0.3-0.5,0.9-0.6,1.4-0.3l0,0
			c0.5,0.3,0.6,0.9,0.3,1.4C82.1,1.7,81.8,1.9,81.5,1.9z M20.5,0.7c-0.3,0-0.6-0.2-0.8-0.4c-0.3-0.5-0.2-1.1,0.3-1.4
			c0.1,0,0.2-0.1,0.2-0.1c0.5-0.2,1.1,0.1,1.3,0.6c0.2,0.5-0.1,1-0.5,1.2C20.9,0.6,20.7,0.7,20.5,0.7z M78-0.1c-0.1,0-0.2,0-0.3-0.1
			c-0.1,0-0.2-0.1-0.2-0.1c-0.5-0.3-0.6-0.9-0.3-1.4c0.3-0.4,0.9-0.6,1.3-0.3c0.4,0.2,0.6,0.7,0.5,1.2C78.8-0.4,78.5-0.1,78-0.1z
			 M24.1-1.2c-0.3,0-0.6-0.2-0.8-0.4c-0.3-0.5-0.2-1.1,0.3-1.4c0.1,0,0.2-0.1,0.2-0.1c0.5-0.2,1.1,0.1,1.3,0.6
			c0.2,0.5-0.1,1-0.5,1.2C24.4-1.3,24.2-1.2,24.1-1.2z M74.5-2c-0.1,0-0.3,0-0.4-0.1c-0.5-0.2-0.7-0.7-0.5-1.2
			c0.2-0.5,0.7-0.8,1.3-0.6c0.1,0,0.2,0.1,0.2,0.1c0.5,0.3,0.6,0.9,0.3,1.4C75.1-2.1,74.8-2,74.5-2z M27.7-2.9
			c-0.4,0-0.8-0.3-0.9-0.7c-0.2-0.5,0.1-1,0.5-1.2c0.4-0.2,1-0.1,1.2,0.4c0.3,0.5,0.2,1.1-0.3,1.4C28.2-3,28.1-3,28-3
			C27.9-2.9,27.8-2.9,27.7-2.9z M70.8-3.5c-0.1,0-0.3,0-0.4-0.1c-0.5-0.2-0.7-0.7-0.6-1.2c0.2-0.5,0.7-0.8,1.3-0.6
			c0,0,0.1,0,0.1,0.1c0.5,0.2,0.7,0.8,0.4,1.3C71.5-3.7,71.1-3.5,70.8-3.5z M31.5-4.3c-0.4,0-0.8-0.3-1-0.7
			c-0.2-0.5,0.1-1.1,0.6-1.2c0,0,0.1,0,0.1,0c0.5-0.1,1.1,0.2,1.2,0.7c0.1,0.5-0.2,1.1-0.7,1.2C31.6-4.3,31.5-4.3,31.5-4.3z M67-4.8
			c-0.1,0-0.2,0-0.2,0l0.5-1.9c0.5,0.1,0.9,0.7,0.7,1.2C67.8-5.1,67.4-4.8,67-4.8z M35.3-5.5c-0.4,0-0.8-0.3-1-0.7
			c-0.2-0.5,0.1-1.1,0.6-1.2c0,0,0.1,0,0.1,0c0.5-0.1,1.1,0.2,1.2,0.7c0.1,0.5-0.2,1.1-0.7,1.2C35.5-5.5,35.4-5.5,35.3-5.5z
			 M63.1-5.9c-0.1,0-0.2,0-0.3-0.1c-0.5-0.2-0.8-0.7-0.6-1.3c0.2-0.5,0.7-0.8,1.1-0.7c0.5,0.1,0.8,0.5,0.8,1
			C64.1-6.3,63.6-5.9,63.1-5.9z M39.2-6.3c-0.4,0-0.8-0.3-0.9-0.7c-0.2-0.5,0.1-1.1,0.6-1.3c0.6-0.2,1.3,0.3,1.3,0.9
			c0,0.5-0.4,0.9-0.8,1C39.3-6.3,39.3-6.3,39.2-6.3z M59.2-6.6c-0.1,0-0.2,0-0.3-0.1c-0.5-0.2-0.8-0.7-0.6-1.3
			c0.2-0.5,0.6-0.8,1.1-0.7c0.5,0.1,0.8,0.5,0.8,1C60.2-7.1,59.7-6.6,59.2-6.6z M43.2-6.9c-0.6,0-1-0.4-1-1c0-0.5,0.4-0.9,0.9-1
			c0.5,0,1,0.3,1.1,0.8c0.1,0.5-0.2,1.1-0.7,1.2C43.3-6.9,43.2-6.9,43.2-6.9z M55.2-7.1c0,0-0.1,0-0.1,0c-0.5-0.1-0.9-0.5-0.9-1
			c0-0.6,0.6-1.1,1.3-1c0.5,0.1,0.9,0.7,0.7,1.2C56-7.4,55.6-7.1,55.2-7.1z M47.2-7.3c-0.6,0-1-0.4-1-1s0.4-1,1-1h0c0.6,0,1,0.4,1,1
			S47.7-7.3,47.2-7.3z M51.2-7.3c-0.6,0-1-0.4-1-1s0.4-1,1-1h0c0.6,0,1,0.4,1,1S51.7-7.3,51.2-7.3z"/>
		<path d="M50,92.7L50,92.7c-0.6,0-1-0.4-1-1s0.4-1,1-1c0.2,0,0.4,0.1,0.6,0.2c0.2-0.1,0.4-0.2,0.6-0.2c0.6,0,1,0.4,1,1s-0.4,1-1,1
			h0c-0.2,0-0.4-0.1-0.6-0.2C50.4,92.6,50.2,92.7,50,92.7z M46,92.5c-0.1,0-0.2,0-0.3,0c-0.5-0.1-0.9-0.7-0.7-1.2
			c0.1-0.5,0.6-0.8,1.1-0.8c0.5,0.1,0.9,0.5,0.9,1C47,92,46.5,92.5,46,92.5z M55.2,92.3c-0.4,0-0.9-0.3-1-0.8
			c-0.1-0.5,0.2-1.1,0.7-1.2c0.6-0.2,1.3,0.3,1.3,1c0,0.5-0.4,0.9-0.9,1C55.3,92.3,55.2,92.3,55.2,92.3z M42,91.9
			c-0.1,0-0.1,0-0.2,0c-0.5-0.1-0.8-0.5-0.8-1c0-0.7,0.7-1.2,1.3-0.9c0.5,0.2,0.8,0.7,0.6,1.3C42.8,91.6,42.5,91.9,42,91.9z
			 M59.1,91.7c-0.6,0-1-0.4-1-1c0-0.5,0.4-0.9,0.8-1c0.5-0.1,1,0.2,1.1,0.7c0.2,0.5-0.1,1.1-0.6,1.3C59.4,91.6,59.2,91.7,59.1,91.7z
			 M37.9,90.9c-0.5-0.1-0.9-0.7-0.7-1.2c0.1-0.5,0.7-0.9,1.2-0.7L37.9,90.9z M63,90.6c-0.4,0-0.9-0.3-1-0.8
			c-0.1-0.5,0.2-1.1,0.7-1.2c0.5-0.1,1.1,0.2,1.2,0.7c0.2,0.5-0.1,1.1-0.6,1.2c0,0-0.1,0-0.1,0C63.2,90.6,63.1,90.6,63,90.6z
			 M34.4,89.6c-0.1,0-0.2,0-0.3-0.1c0,0-0.1,0-0.1-0.1c-0.5-0.2-0.7-0.8-0.4-1.3c0.2-0.5,0.8-0.7,1.3-0.5c0.5,0.2,0.7,0.7,0.6,1.2
			C35.2,89.4,34.8,89.6,34.4,89.6z M66.7,89.2c-0.3,0-0.6-0.2-0.8-0.4c-0.3-0.5-0.2-1.1,0.3-1.4c0.1,0,0.2-0.1,0.2-0.1
			c0.5-0.2,1.1,0.1,1.3,0.6c0.2,0.5-0.1,1-0.5,1.2C67,89.1,66.9,89.2,66.7,89.2z M30.7,87.9c-0.2,0-0.3,0-0.5-0.1
			c-0.4-0.2-0.6-0.7-0.5-1.2c0.2-0.5,0.7-0.8,1.3-0.6c0.1,0,0.2,0.1,0.2,0.1c0.5,0.3,0.6,0.9,0.3,1.4C31.4,87.8,31,87.9,30.7,87.9z
			 M70.3,87.4c-0.4,0-0.8-0.3-0.9-0.7c-0.2-0.5,0.1-1,0.5-1.2c0.4-0.2,1-0.1,1.3,0.3c0.3,0.5,0.2,1.1-0.3,1.4
			c-0.1,0-0.2,0.1-0.2,0.1C70.5,87.4,70.4,87.4,70.3,87.4z M27.3,85.9c-0.2,0-0.4-0.1-0.5-0.2l0,0c-0.5-0.3-0.6-0.9-0.3-1.4
			c0.3-0.5,0.9-0.6,1.4-0.3c0.5,0.3,0.6,0.9,0.3,1.4C27.9,85.7,27.6,85.9,27.3,85.9z M73.7,85.2c-0.3,0-0.5-0.1-0.7-0.3
			c-0.4-0.4-0.4-1,0-1.4c0,0,0.1-0.1,0.2-0.1c0.5-0.3,1.1-0.2,1.4,0.3c0.3,0.4,0.2,1-0.2,1.4C74.1,85.2,73.9,85.2,73.7,85.2z
			 M24,83.6c-0.2,0-0.4-0.1-0.6-0.2c-0.1,0-0.1-0.1-0.2-0.1c-0.4-0.4-0.4-1,0-1.4c0.4-0.4,0.9-0.4,1.3-0.1c0.4,0.3,0.5,0.9,0.2,1.4
			C24.7,83.4,24.3,83.6,24,83.6z M76.9,82.8c-0.2,0-0.4-0.1-0.6-0.2c-0.5-0.3-0.6-0.9-0.3-1.4c0.1-0.1,0.2-0.2,0.3-0.3
			c0.5-0.3,1.1-0.2,1.4,0.3c0.3,0.4,0.2,1-0.2,1.3C77.4,82.7,77.1,82.8,76.9,82.8z M21,80.9c-0.3,0-0.5-0.1-0.7-0.3l0,0
			c-0.4-0.4-0.4-1,0-1.4s1-0.4,1.4,0s0.4,1,0,1.4C21.5,80.8,21.3,80.9,21,80.9z M79.8,80.1c-0.3,0-0.5-0.1-0.7-0.3
			c-0.4-0.4-0.4-1,0-1.4s1-0.4,1.4,0c0.4,0.4,0.4,1,0,1.4l0,0C80.3,80,80.1,80.1,79.8,80.1z M18.3,78c-0.3,0-0.6-0.1-0.7-0.3
			c-0.3-0.3-0.4-0.8-0.1-1.2c0.3-0.5,0.9-0.6,1.4-0.3c0.1,0.1,0.2,0.2,0.3,0.3c0.3,0.5,0.2,1.1-0.3,1.4C18.7,77.9,18.5,78,18.3,78z
			 M82.5,77.1c-0.3,0-0.5-0.1-0.7-0.3c-0.4-0.4-0.4-0.9-0.1-1.3c0.3-0.4,0.9-0.5,1.4-0.2c0.5,0.3,0.6,0.9,0.3,1.4
			c0,0.1-0.1,0.1-0.1,0.2C83,77,82.7,77.1,82.5,77.1z M15.8,74.8c-0.3,0-0.6-0.1-0.8-0.4c-0.3-0.4-0.3-1,0.1-1.3
			c0.4-0.4,1-0.4,1.4,0c0,0,0.1,0.1,0.1,0.2c0.3,0.5,0.2,1.1-0.3,1.4C16.2,74.8,16,74.8,15.8,74.8z M84.8,73.8
			c-0.2,0-0.4-0.1-0.6-0.2c-0.5-0.3-0.6-0.9-0.3-1.4c0.3-0.5,0.9-0.6,1.4-0.3c0.5,0.3,0.6,0.9,0.3,1.4l0,0
			C85.5,73.7,85.2,73.8,84.8,73.8z M13.7,71.4c-0.3,0-0.6-0.2-0.8-0.4c0-0.1-0.1-0.2-0.1-0.2c-0.2-0.5,0.1-1.1,0.6-1.3
			c0.5-0.2,1,0.1,1.2,0.5c0.2,0.4,0.1,1-0.3,1.3C14.1,71.4,13.9,71.4,13.7,71.4z M86.9,70.4c-0.1,0-0.2,0-0.3-0.1
			c-0.5-0.2-0.8-0.7-0.6-1.3c0-0.1,0.1-0.2,0.1-0.2c0.3-0.5,0.9-0.6,1.4-0.3c0.4,0.3,0.6,0.9,0.3,1.3C87.6,70.2,87.2,70.4,86.9,70.4
			z M11.9,67.8c-0.4,0-0.7-0.2-0.9-0.6c-0.2-0.4-0.1-1,0.4-1.2c0.5-0.3,1.1-0.2,1.4,0.3c0,0.1,0.1,0.2,0.1,0.2
			c0.2,0.5-0.1,1.1-0.6,1.3C12.1,67.8,12,67.8,11.9,67.8z M88.6,66.7c-0.2,0-0.3,0-0.4-0.1c-0.5-0.2-0.7-0.8-0.5-1.3
			c0.2-0.5,0.7-0.8,1.2-0.6c0.5,0.2,0.8,0.7,0.6,1.3c0,0,0,0.1-0.1,0.1C89.3,66.5,88.9,66.7,88.6,66.7z M10.4,64.1
			c-0.4,0-0.8-0.3-0.9-0.7c0,0,0-0.1,0-0.1c-0.1-0.5,0.2-1.1,0.7-1.2c0.5-0.1,1.1,0.2,1.2,0.7c0.1,0.5-0.2,1.1-0.7,1.2
			C10.6,64.1,10.5,64.1,10.4,64.1z M89.9,63c-0.1,0-0.2,0-0.2,0c-0.5-0.1-0.9-0.7-0.7-1.2l1.9,0.5C90.8,62.7,90.4,63,89.9,63z
			 M90.9,62.3L90.9,62.3L90.9,62.3z M9.4,60.2c-0.4,0-0.8-0.3-0.9-0.7c0-0.1-0.1-0.2-0.1-0.3c0-0.6,0.4-1,1-1c0.5,0,0.9,0.4,1,0.8
			c0.1,0.5-0.2,1-0.7,1.1C9.6,60.2,9.5,60.2,9.4,60.2z M90.9,59.1c-0.6,0-1-0.4-1-1c0-0.1,0-0.2,0.1-0.3c0.2-0.5,0.7-0.8,1.3-0.6
			c0.5,0.2,0.8,0.7,0.7,1.1C91.8,58.7,91.4,59.1,90.9,59.1z M8.7,56.3c-0.5,0-0.9-0.4-1-0.9c-0.1-0.5,0.3-1,0.8-1.1
			C9,54.2,9.5,54.5,9.6,55c0,0.1,0,0.2,0,0.3C9.7,55.8,9.2,56.3,8.7,56.3z M91.5,55.1c-0.1,0-0.2,0-0.2,0c-0.5-0.1-0.8-0.6-0.8-1.1
			c0-0.5,0.5-0.9,1-0.9l0,0c0.6,0,1,0.4,1,1c0,0.1,0,0.2,0,0.3C92.3,54.8,91.9,55.1,91.5,55.1z M8.4,52.3c-0.6,0-1-0.4-1-1v0
			c0-0.6,0.4-1,1-1s1,0.4,1,1S8.9,52.3,8.4,52.3z M91.7,51.1c-0.6,0-1-0.4-1-1s0.4-1,1-1s1,0.4,1,1v0C92.7,50.7,92.2,51.1,91.7,51.1
			z M8.4,48.3L8.4,48.3c-0.6,0-1-0.4-1-1c0-0.1,0-0.2,0-0.3c0.1-0.5,0.7-0.9,1.2-0.7c0.5,0.1,0.8,0.6,0.8,1.1
			C9.4,47.9,8.9,48.3,8.4,48.3z M91.5,47.1c-0.4,0-0.9-0.3-1-0.8c0-0.1,0-0.2,0-0.3c0-0.6,0.4-1,1-1c0.5,0,0.9,0.4,1,0.9
			c0.1,0.5-0.3,1-0.8,1.1C91.6,47.1,91.6,47.1,91.5,47.1z M8.9,44.3c-0.1,0-0.2,0-0.3-0.1c-0.5-0.2-0.8-0.7-0.7-1.1
			c0.1-0.5,0.5-0.8,1-0.8c0.6,0,1,0.4,1,1c0,0.1,0,0.2-0.1,0.3C9.7,44,9.3,44.3,8.9,44.3z M90.9,43.1c-0.5,0-0.9-0.4-1-0.8
			c-0.1-0.5,0.2-1,0.7-1.1c0.5-0.2,1.1,0.1,1.3,0.6c0,0.1,0.1,0.2,0.1,0.3C91.9,42.7,91.5,43.1,90.9,43.1z M10.7,39.6l-1.9-0.5
			c0.1-0.5,0.7-0.9,1.2-0.7C10.5,38.5,10.8,39.1,10.7,39.6z M90,39.3c-0.4,0-0.9-0.3-1-0.8c-0.1-0.5,0.2-1.1,0.7-1.2
			c0.5-0.2,1.1,0.1,1.2,0.6c0,0,0,0.1,0,0.1c0.1,0.5-0.2,1.1-0.7,1.2C90.1,39.2,90.1,39.3,90,39.3z M10.9,36.6c-0.1,0-0.2,0-0.3-0.1
			c-0.5-0.2-0.8-0.7-0.6-1.3c0,0,0-0.1,0.1-0.1c0.2-0.5,0.8-0.7,1.3-0.4c0.5,0.2,0.7,0.8,0.5,1.3C11.7,36.3,11.3,36.6,10.9,36.6z
			 M88.7,35.5c-0.3,0-0.6-0.2-0.8-0.4c0-0.1-0.1-0.2-0.1-0.2c-0.2-0.5,0.1-1.1,0.6-1.3c0.5-0.2,1,0.1,1.2,0.5c0.2,0.4,0.1,1-0.4,1.2
			C89,35.4,88.9,35.5,88.7,35.5z M12.5,32.9c-0.1,0-0.2,0-0.3-0.1c-0.5-0.2-0.8-0.7-0.6-1.3c0-0.1,0.1-0.2,0.1-0.2
			c0.3-0.5,0.9-0.6,1.4-0.3c0.4,0.3,0.6,0.8,0.4,1.2C13.2,32.7,12.9,32.9,12.5,32.9z M87,31.8c-0.4,0-0.7-0.2-0.9-0.5
			c-0.2-0.4-0.1-1,0.3-1.3c0.5-0.3,1.1-0.2,1.4,0.3c0,0.1,0.1,0.2,0.1,0.2c0.2,0.5-0.1,1.1-0.6,1.3C87.2,31.8,87.1,31.8,87,31.8z
			 M14.4,29.4c-0.2,0-0.4-0.1-0.6-0.2c-0.4-0.3-0.6-0.9-0.3-1.3c0.2-0.4,0.7-0.6,1.2-0.5c0.5,0.2,0.8,0.7,0.6,1.3
			c0,0.1-0.1,0.2-0.1,0.2C15,29.2,14.7,29.4,14.4,29.4z M85,28.4c-0.3,0-0.6-0.2-0.8-0.4c-0.3-0.5-0.2-1.1,0.3-1.4
			c0.5-0.3,1.1-0.2,1.4,0.3l0,0c0.3,0.5,0.2,1.1-0.3,1.4C85.4,28.3,85.2,28.4,85,28.4z M16.6,26c-0.2,0-0.4-0.1-0.6-0.2
			c-0.5-0.3-0.6-0.9-0.3-1.4c0-0.1,0.1-0.1,0.1-0.2c0.4-0.4,1-0.4,1.4,0c0.4,0.4,0.4,0.9,0.1,1.3C17.2,25.9,17,26,16.6,26z
			 M82.6,25.1c-0.3,0-0.5-0.1-0.7-0.3c0,0-0.1-0.1-0.1-0.2c-0.3-0.5-0.2-1.1,0.3-1.4c0.4-0.3,1-0.2,1.4,0.2c0.3,0.4,0.3,1-0.1,1.3
			C83.1,25,82.9,25.1,82.6,25.1z M19.2,23c-0.2,0-0.4-0.1-0.6-0.2c-0.5-0.3-0.6-0.9-0.3-1.4c0.1-0.1,0.2-0.2,0.3-0.3
			c0.5-0.3,1.1-0.2,1.4,0.3c0.3,0.4,0.2,0.9-0.1,1.2C19.8,22.8,19.5,23,19.2,23z M80,22.1c-0.3,0-0.5-0.1-0.7-0.3
			c-0.4-0.4-0.4-1,0-1.4c0.4-0.4,1-0.4,1.4,0l0,0c0.4,0.4,0.4,1,0,1.4C80.5,22,80.2,22.1,80,22.1z M22,20.1c-0.3,0-0.6-0.2-0.8-0.4
			c-0.3-0.4-0.2-1,0.2-1.3c0.3-0.3,0.8-0.4,1.2-0.1c0.5,0.3,0.6,0.9,0.3,1.4c-0.1,0.1-0.2,0.2-0.3,0.3C22.4,20.1,22.2,20.1,22,20.1z
			 M77.1,19.3c-0.2,0-0.5-0.1-0.7-0.3c-0.4-0.3-0.4-0.9-0.2-1.3c0.3-0.5,0.9-0.6,1.4-0.3c0.1,0.1,0.2,0.2,0.3,0.3
			c0.3,0.5,0.2,1.1-0.3,1.4C77.5,19.3,77.3,19.3,77.1,19.3z M25.1,17.6c-0.3,0-0.6-0.2-0.8-0.4c-0.3-0.4-0.2-1,0.2-1.4
			c0.4-0.3,1-0.3,1.3,0.1c0.4,0.4,0.4,1,0,1.4c0,0-0.1,0.1-0.2,0.1C25.5,17.5,25.3,17.6,25.1,17.6z M73.9,16.9
			c-0.2,0-0.4-0.1-0.6-0.2c-0.4-0.3-0.5-0.9-0.2-1.4c0.3-0.5,0.9-0.6,1.4-0.3c0.1,0,0.1,0.1,0.2,0.1c0.4,0.4,0.4,1,0,1.4
			C74.4,16.8,74.2,16.9,73.9,16.9z M28.5,15.3c-0.3,0-0.6-0.2-0.8-0.4c-0.3-0.5-0.2-1.1,0.3-1.4c0.1,0,0.2-0.1,0.2-0.1
			c0.5-0.2,1.1,0.1,1.3,0.6c0.2,0.5-0.1,1-0.5,1.2C28.8,15.3,28.6,15.3,28.5,15.3z M70.5,14.7c-0.1,0-0.2,0-0.3-0.1
			c-0.1,0-0.2-0.1-0.2-0.1c-0.5-0.3-0.6-0.9-0.3-1.4c0.3-0.4,0.9-0.6,1.3-0.3c0.4,0.2,0.6,0.7,0.5,1.2
			C71.3,14.5,70.9,14.7,70.5,14.7z M32,13.4c-0.4,0-0.8-0.3-0.9-0.7c-0.2-0.5,0.1-1,0.5-1.2c0.4-0.2,1-0.1,1.3,0.4
			c0.3,0.5,0.2,1.1-0.3,1.4c-0.1,0-0.2,0.1-0.2,0.1C32.2,13.4,32.1,13.4,32,13.4z M66.9,12.9c-0.1,0-0.3,0-0.4-0.1
			c-0.5-0.2-0.7-0.7-0.5-1.2c0.2-0.5,0.7-0.8,1.3-0.6c0.1,0,0.2,0.1,0.2,0.1c0.5,0.3,0.6,0.9,0.3,1.4C67.6,12.8,67.3,12.9,66.9,12.9
			z M35.7,11.9c-0.4,0-0.8-0.3-0.9-0.7c-0.2-0.5,0.1-1.1,0.6-1.2c0.5-0.2,1,0,1.3,0.5c0.2,0.5,0,1.1-0.4,1.3c0,0-0.1,0-0.1,0.1
			C35.9,11.9,35.8,11.9,35.7,11.9z M63.2,11.5c-0.1,0-0.2,0-0.2,0l0.5-1.9c0.5,0.1,0.9,0.7,0.7,1.2C64.1,11.2,63.7,11.5,63.2,11.5z
			 M39.5,10.7c-0.4,0-0.8-0.3-1-0.7c-0.2-0.5,0.1-1.1,0.6-1.2c0,0,0.1,0,0.1,0c0.5-0.1,1.1,0.2,1.2,0.7c0.1,0.5-0.2,1.1-0.7,1.2
			C39.7,10.7,39.6,10.7,39.5,10.7z M59.4,10.4c-0.1,0-0.2,0-0.3-0.1c-0.5-0.2-0.8-0.7-0.6-1.3c0.2-0.5,0.7-0.8,1.1-0.7
			c0.5,0.1,0.8,0.5,0.8,1C60.4,9.9,59.9,10.4,59.4,10.4z M43.4,9.9c-0.4,0-0.8-0.3-0.9-0.7c-0.2-0.5,0.1-1.1,0.6-1.3
			c0.6-0.2,1.3,0.3,1.3,0.9c0,0.5-0.4,0.9-0.8,1C43.5,9.8,43.5,9.9,43.4,9.9z M55.4,9.7c0,0-0.1,0-0.1,0c-0.5,0-0.9-0.5-0.9-1
			c0-0.6,0.6-1.1,1.3-1c0.5,0.1,0.9,0.7,0.7,1.2C56.3,9.4,55.9,9.7,55.4,9.7z M47.4,9.4c-0.6,0-1-0.4-1-1c0-0.5,0.4-0.9,0.9-1
			c0.5,0,1,0.3,1.1,0.8c0.1,0.5-0.2,1.1-0.7,1.2C47.6,9.4,47.5,9.4,47.4,9.4z M51.4,9.4c-0.6,0-1-0.4-1-1s0.4-1,1-1h0
			c0.6,0,1,0.4,1,1S52,9.4,51.4,9.4z"/>
		<path d="M50,76L50,76c-0.6,0-1-0.4-1-1s0.4-1,1-1c0.1,0,0.2,0,0.3,0.1c0.1,0,0.2-0.1,0.4-0.1c0.6,0,1,0.4,1,1s-0.4,1-1,1h0
			c-0.1,0-0.2,0-0.3-0.1C50.3,76,50.1,76,50,76z M46,75.7c-0.1,0-0.1,0-0.2,0c-0.5-0.1-0.8-0.5-0.8-1c0-0.7,0.7-1.2,1.3-0.9
			c0.5,0.2,0.8,0.7,0.6,1.3C46.8,75.4,46.4,75.7,46,75.7z M54.7,75.6c-0.6,0-1-0.4-1-1c0-0.5,0.4-0.9,0.8-1c0.5-0.1,1,0.2,1.1,0.7
			c0.2,0.5-0.1,1.1-0.6,1.3C54.9,75.5,54.8,75.6,54.7,75.6z M41.9,74.7c-0.5-0.1-0.9-0.7-0.7-1.2c0.1-0.5,0.7-0.9,1.2-0.7L41.9,74.7
			z M58.5,74.5c-0.4,0-0.7-0.2-0.9-0.6c-0.2-0.5,0-1.1,0.4-1.3c0,0,0.1,0,0.1-0.1c0.5-0.2,1.1,0.1,1.3,0.6c0.2,0.5-0.1,1.1-0.6,1.2
			C58.8,74.5,58.7,74.5,58.5,74.5z M38.4,73.2c-0.2,0-0.3,0-0.5-0.1c-0.4-0.2-0.6-0.7-0.5-1.2c0.2-0.5,0.7-0.8,1.3-0.6
			c0.1,0,0.2,0.1,0.2,0.1c0.5,0.3,0.6,0.9,0.3,1.4C39.1,73,38.8,73.2,38.4,73.2z M62.2,72.8c-0.4,0-0.8-0.3-0.9-0.7
			c-0.2-0.5,0.1-1,0.5-1.2c0.5-0.2,1-0.1,1.3,0.3c0.3,0.5,0.2,1.1-0.3,1.4c-0.1,0-0.2,0.1-0.2,0.1C62.4,72.8,62.3,72.8,62.2,72.8z
			 M35,71c-0.2,0-0.4-0.1-0.6-0.2c-0.1,0-0.1-0.1-0.2-0.1c-0.4-0.4-0.4-1,0-1.4c0.4-0.4,0.9-0.4,1.3-0.1c0.4,0.3,0.5,0.9,0.2,1.4
			C35.7,70.9,35.4,71,35,71z M65.5,70.6c-0.3,0-0.5-0.1-0.7-0.3c-0.4-0.4-0.4-1,0-1.4c0,0,0.1-0.1,0.2-0.1c0.5-0.3,1.1-0.2,1.4,0.3
			c0.3,0.4,0.2,1-0.2,1.4C65.9,70.5,65.7,70.6,65.5,70.6z M32,68.4c-0.3,0-0.5-0.1-0.7-0.3l0,0c-0.4-0.4-0.4-1,0-1.4s1-0.4,1.4,0
			s0.4,1,0,1.4C32.5,68.3,32.3,68.4,32,68.4z M68.4,67.9c-0.3,0-0.6-0.2-0.8-0.4c-0.3-0.4-0.2-0.9,0.1-1.2c0.3-0.4,0.9-0.4,1.3-0.2
			c0.5,0.3,0.6,0.9,0.3,1.4c-0.1,0.1-0.2,0.2-0.3,0.3C68.8,67.8,68.6,67.9,68.4,67.9z M29.5,65.3c-0.3,0-0.6-0.1-0.8-0.4
			c-0.3-0.4-0.3-1,0.1-1.3c0.4-0.4,1-0.4,1.4,0c0,0,0.1,0.1,0.1,0.2c0.3,0.5,0.2,1.1-0.3,1.4C29.9,65.2,29.7,65.3,29.5,65.3z
			 M70.9,64.7c-0.2,0-0.4-0.1-0.6-0.2c-0.5-0.3-0.6-0.9-0.3-1.4c0.3-0.5,0.9-0.6,1.4-0.3c0.5,0.3,0.6,0.9,0.3,1.4l0,0
			C71.5,64.5,71.2,64.7,70.9,64.7z M27.5,61.8c-0.4,0-0.7-0.2-0.9-0.6c-0.2-0.4-0.1-1,0.4-1.2c0.5-0.3,1.1-0.2,1.4,0.3
			c0,0.1,0.1,0.2,0.1,0.2c0.2,0.5-0.1,1.1-0.6,1.3C27.7,61.8,27.6,61.8,27.5,61.8z M72.8,61.2c-0.2,0-0.4-0.1-0.6-0.2
			c-0.4-0.3-0.6-0.8-0.4-1.3c0.2-0.5,0.7-0.7,1.2-0.5c0.5,0.2,0.8,0.7,0.6,1.3c0,0.1-0.1,0.2-0.1,0.2C73.5,61,73.2,61.2,72.8,61.2z
			 M26,58.1c-0.4,0-0.8-0.3-0.9-0.7c0,0,0-0.1,0-0.1c-0.1-0.5,0.2-1.1,0.7-1.2c0.5-0.1,1.1,0.2,1.2,0.7c0.1,0.5-0.2,1.1-0.7,1.2
			C26.2,58.1,26.1,58.1,26,58.1z M74.2,57.4c-0.1,0-0.2,0-0.2,0c-0.5-0.1-0.9-0.7-0.7-1.2l1.9,0.5C75,57.1,74.6,57.4,74.2,57.4z
			 M75.1,56.7L75.1,56.7L75.1,56.7z M25.2,54.2c-0.5,0-0.9-0.4-1-0.9c-0.1-0.5,0.3-1,0.8-1.1c0.5-0.1,1.1,0.2,1.2,0.7
			c0,0.1,0,0.2,0,0.3C26.2,53.7,25.8,54.2,25.2,54.2z M74.9,53.5c-0.1,0-0.2,0-0.2,0c-0.5-0.1-0.8-0.6-0.8-1.1
			c0.1-0.5,0.5-0.9,1-0.9l0,0c0.6,0,1,0.4,1,1c0,0.1,0,0.2,0,0.3C75.7,53.2,75.3,53.5,74.9,53.5z M25,50.2c-0.6,0-1-0.4-1-1v0
			c0-0.6,0.4-1,1-1s1,0.4,1,1S25.6,50.2,25,50.2z M75,49.5c-0.4,0-0.9-0.3-1-0.8c0-0.1,0-0.2,0-0.3c0-0.6,0.4-1,1-1
			c0.5,0,0.9,0.4,1,0.9c0.1,0.5-0.3,1-0.8,1.1C75.1,49.5,75,49.5,75,49.5z M25.5,46.2c-0.1,0-0.2,0-0.3-0.1
			c-0.5-0.2-0.8-0.7-0.7-1.1c0.1-0.5,0.5-0.8,1-0.8c0.6,0,1,0.4,1,1c0,0.1,0,0.2-0.1,0.3C26.3,45.9,25.9,46.2,25.5,46.2z M74.4,45.5
			c-0.5,0-0.9-0.4-1-0.8c-0.1-0.5,0.2-1,0.7-1.1c0.5-0.2,1.1,0.1,1.3,0.6c0,0.1,0.1,0.2,0.1,0.3C75.4,45.1,74.9,45.5,74.4,45.5z
			 M26.5,42.3c-0.1,0-0.2,0-0.3-0.1c-0.5-0.2-0.8-0.7-0.6-1.3c0,0,0-0.1,0.1-0.1c0.2-0.5,0.8-0.7,1.3-0.4c0.5,0.2,0.7,0.8,0.5,1.3
			C27.3,42.1,26.9,42.3,26.5,42.3z M73.2,41.7c-0.3,0-0.6-0.2-0.8-0.4c0-0.1-0.1-0.2-0.1-0.2c-0.2-0.5,0.1-1.1,0.6-1.3
			c0.5-0.2,1,0.1,1.2,0.5c0.2,0.4,0.1,1-0.4,1.2C73.6,41.6,73.4,41.7,73.2,41.7z M28.2,38.7c-0.2,0-0.4-0.1-0.6-0.2
			c-0.4-0.3-0.6-0.9-0.3-1.3c0.2-0.4,0.7-0.6,1.2-0.5c0.5,0.2,0.8,0.7,0.6,1.3c0,0.1-0.1,0.2-0.1,0.2C28.9,38.6,28.6,38.7,28.2,38.7
			z M71.4,38.1c-0.4,0-0.7-0.2-0.9-0.5c-0.2-0.5-0.1-1,0.3-1.3c0.5-0.3,1.1-0.2,1.4,0.3c0,0.1,0.1,0.2,0.1,0.2
			c0.2,0.5-0.1,1.1-0.6,1.3C71.6,38.1,71.5,38.1,71.4,38.1z M30.5,35.4c-0.2,0-0.4-0.1-0.6-0.2c-0.5-0.3-0.6-0.9-0.3-1.4
			c0-0.1,0.1-0.1,0.1-0.2c0.4-0.4,1-0.4,1.4,0c0.4,0.4,0.4,0.9,0.1,1.3C31.1,35.3,30.8,35.4,30.5,35.4z M69.1,34.9
			c-0.2,0-0.4-0.1-0.6-0.2c-0.1-0.1-0.2-0.2-0.3-0.3c-0.3-0.5-0.2-1.1,0.3-1.4c0.4-0.3,1-0.2,1.3,0.2c0.3,0.3,0.4,0.8,0.1,1.2
			C69.7,34.7,69.4,34.9,69.1,34.9z M33.2,32.5c-0.3,0-0.6-0.2-0.8-0.4c-0.3-0.4-0.2-1,0.2-1.3c0.3-0.3,0.8-0.4,1.2-0.1
			c0.5,0.3,0.6,0.9,0.3,1.4c-0.1,0.1-0.2,0.2-0.3,0.3C33.6,32.4,33.4,32.5,33.2,32.5z M66.2,32c-0.2,0-0.5-0.1-0.7-0.3
			c-0.4-0.3-0.4-0.9-0.2-1.3c0.3-0.5,0.9-0.6,1.4-0.3c0.1,0.1,0.2,0.2,0.3,0.3c0.3,0.5,0.2,1.1-0.3,1.4C66.6,32,66.4,32,66.2,32z
			 M36.4,30c-0.3,0-0.6-0.2-0.8-0.4c-0.3-0.5-0.2-1.1,0.3-1.4l0,0c0.5-0.3,1.1-0.2,1.4,0.3c0.3,0.5,0.2,1.1-0.3,1.4
			C36.8,30,36.6,30,36.4,30z M63,29.7c-0.1,0-0.2,0-0.3-0.1c-0.1,0-0.2-0.1-0.2-0.1c-0.5-0.3-0.6-0.9-0.3-1.4
			c0.3-0.4,0.9-0.6,1.3-0.3c0.4,0.2,0.6,0.7,0.5,1.2C63.8,29.4,63.4,29.7,63,29.7z M39.9,28.1c-0.4,0-0.8-0.3-0.9-0.7
			c-0.2-0.5,0.1-1,0.5-1.2c0.4-0.2,1-0.1,1.2,0.4c0.3,0.5,0.2,1.1-0.3,1.4c-0.1,0-0.2,0.1-0.2,0.1C40.1,28.1,40,28.1,39.9,28.1z
			 M59.4,27.8c-0.1,0-0.3,0-0.4-0.1c-0.5-0.2-0.7-0.7-0.6-1.2c0.2-0.5,0.7-0.8,1.3-0.6c0,0,0.1,0,0.1,0.1c0.5,0.2,0.7,0.8,0.4,1.3
			C60.2,27.6,59.8,27.8,59.4,27.8z M43.7,26.8c-0.4,0-0.8-0.3-1-0.7c-0.2-0.5,0.1-1.1,0.6-1.2c0,0,0.1,0,0.1,0
			c0.5-0.1,1.1,0.2,1.2,0.7c0.1,0.5-0.2,1.1-0.7,1.2C43.9,26.8,43.8,26.8,43.7,26.8z M55.6,26.6c-0.1,0-0.2,0-0.3-0.1
			c-0.5-0.2-0.8-0.7-0.6-1.3c0.2-0.5,0.7-0.8,1.1-0.7c0.5,0.1,0.8,0.5,0.8,1C56.6,26.2,56.2,26.6,55.6,26.6z M47.6,26.1
			c-0.6,0-1-0.4-1-1c0-0.5,0.4-0.9,0.9-1c0.5-0.1,1,0.3,1.1,0.8c0.1,0.5-0.2,1.1-0.7,1.2C47.8,26.1,47.7,26.1,47.6,26.1z M51.7,26.1
			c0,0-0.1,0-0.1,0c-0.5-0.1-0.9-0.5-0.9-1c0-0.6,0.6-1.1,1.3-1c0.5,0.1,0.9,0.7,0.7,1.2C52.5,25.8,52.1,26.1,51.7,26.1z"/>
		<path d="M50,59.3L50,59.3c-0.6,0-1-0.4-1-1c0-0.6,0.5-1.1,1.1-1c0.6-0.1,1.1,0.4,1.1,1c0,0.6-0.4,1-1,1h0c0,0-0.1,0-0.1,0
			C50.1,59.3,50,59.3,50,59.3z M46.1,58.4c-0.2,0-0.3,0-0.5-0.1c-0.4-0.2-0.6-0.7-0.5-1.2c0.2-0.5,0.7-0.8,1.3-0.6
			c0.1,0,0.2,0.1,0.2,0.1c0.5,0.3,0.6,0.9,0.3,1.4C46.8,58.2,46.5,58.4,46.1,58.4z M54.1,58.3c-0.4,0-0.8-0.3-0.9-0.7
			c-0.2-0.5,0.1-1,0.5-1.2c0.5-0.2,1-0.1,1.3,0.3c0.3,0.5,0.2,1.1-0.3,1.4c-0.1,0-0.2,0.1-0.2,0.1C54.3,58.3,54.2,58.3,54.1,58.3z
			 M43.2,55.8c-0.3,0-0.6-0.1-0.8-0.4c-0.3-0.4-0.3-1,0.1-1.3c0.4-0.4,1-0.4,1.4,0c0,0,0.1,0.1,0.1,0.2c0.3,0.5,0.2,1.1-0.3,1.4
			C43.5,55.7,43.4,55.8,43.2,55.8z M57,55.6c-0.2,0-0.4-0.1-0.6-0.2c-0.5-0.3-0.6-0.9-0.3-1.4c0.3-0.5,0.9-0.6,1.4-0.3
			c0.5,0.3,0.6,0.9,0.3,1.4l0,0C57.6,55.4,57.3,55.6,57,55.6z M41.7,52.1c-0.5,0-0.9-0.4-1-0.9c-0.1-0.5,0.3-1,0.8-1.1
			c0.5-0.1,1.1,0.2,1.2,0.7c0,0.1,0,0.2,0,0.3C42.7,51.6,42.3,52.1,41.7,52.1z M58.3,51.8c-0.1,0-0.2,0-0.2,0
			c-0.5-0.1-0.8-0.6-0.8-1.1c0.1-0.5,0.5-0.9,1-0.9l0,0c0.6,0,1,0.4,1,1c0,0.1,0,0.2,0,0.3C59.1,51.5,58.7,51.8,58.3,51.8z
			 M42.2,48.1c-0.1,0-0.2,0-0.3-0.1c-0.5-0.2-0.8-0.7-0.6-1.3c0,0,0-0.1,0.1-0.1c0.2-0.5,0.8-0.7,1.3-0.4c0.5,0.2,0.7,0.8,0.5,1.3
			C43,47.9,42.6,48.1,42.2,48.1z M57.7,47.9c-0.3,0-0.6-0.2-0.8-0.4c0-0.1-0.1-0.2-0.1-0.2c-0.2-0.5,0.1-1.1,0.6-1.3
			c0.5-0.2,1,0.1,1.2,0.5c0.2,0.4,0.1,1-0.4,1.2C58.1,47.8,57.9,47.9,57.7,47.9z M44.4,44.8c-0.3,0-0.6-0.2-0.8-0.4
			c-0.3-0.4-0.2-1,0.2-1.3c0.3-0.3,0.8-0.4,1.2-0.1c0.5,0.3,0.6,0.9,0.3,1.4c-0.1,0.1-0.2,0.2-0.3,0.3
			C44.8,44.8,44.6,44.8,44.4,44.8z M55.4,44.7c-0.2,0-0.5-0.1-0.7-0.3c-0.4-0.3-0.4-0.9-0.2-1.3c0.3-0.5,0.9-0.6,1.4-0.3
			c0.1,0.1,0.2,0.2,0.3,0.3c0.3,0.5,0.2,1.1-0.3,1.4C55.8,44.6,55.6,44.7,55.4,44.7z M47.9,42.9c-0.4,0-0.8-0.3-1-0.7
			c-0.2-0.5,0.1-1.1,0.6-1.2c0,0,0.1,0,0.1,0c0.5-0.1,1.1,0.2,1.2,0.7c0.1,0.5-0.2,1.1-0.7,1.2C48.1,42.9,48,42.9,47.9,42.9z
			 M51.9,42.9c-0.1,0-0.2,0-0.3-0.1c-0.5-0.2-0.8-0.7-0.6-1.3c0.2-0.5,0.7-0.8,1.1-0.7c0.5,0.1,0.8,0.5,0.8,1
			C52.9,42.4,52.4,42.9,51.9,42.9z"/>
	</g>
</g>
</svg>
