<?xml version="1.0" encoding="utf-8"?>
<!-- Generator: Adobe Illustrator 26.5.1, SVG Export Plug-In . SVG Version: 6.00 Build 0)  -->
<svg version="1.1" id="Ebene_1" xmlns="http://www.w3.org/2000/svg" xmlns:xlink="http://www.w3.org/1999/xlink" x="0px" y="0px"
	 viewBox="0 0 100 100" style="enable-background:new 0 0 100 100;" xml:space="preserve">
<g>
	<g>
		<path d="M50,142.7L50,142.7c-0.6,0-1-0.4-1-1s0.4-1,1-1s1,0.4,1,1S50.6,142.7,50,142.7z M52.6,142.6L52.6,142.6c-0.6,0-1-0.4-1-1
			s0.4-1,1-1s1,0.4,1,1S53.2,142.6,52.6,142.6z M46,142.6L46,142.6c-0.6,0-1-0.4-1-1s0.4-1,1-1s1,0.4,1,1S46.5,142.6,46,142.6z
			 M56.6,142.4c-0.4,0-0.9-0.3-1-0.8c-0.1-0.5,0.2-1.1,0.7-1.2c0.6-0.2,1.3,0.3,1.3,1c0,0.5-0.4,0.9-0.9,1
			C56.7,142.4,56.7,142.4,56.6,142.4z M42,142.3c-0.1,0-0.2,0-0.3,0c-0.5-0.1-0.9-0.7-0.7-1.2c0.1-0.5,0.6-0.8,1.1-0.8
			c0.5,0,0.9,0.5,0.9,1C43,141.9,42.5,142.3,42,142.3z M60.6,142.1c-0.4,0-0.9-0.3-1-0.8c-0.1-0.5,0.2-1.1,0.7-1.2
			c0.6-0.2,1.3,0.3,1.3,1c0,0.5-0.4,0.9-0.9,1C60.7,142.1,60.6,142.1,60.6,142.1z M38,141.9c-0.1,0-0.2,0-0.3,0
			c-0.5-0.1-0.9-0.7-0.7-1.2c0.1-0.5,0.6-0.8,1.1-0.8c0.5,0.1,0.9,0.5,0.9,1C39,141.4,38.6,141.9,38,141.9z M64.6,141.5
			c-0.6,0-1-0.4-1-1c0-0.5,0.4-0.9,0.8-1c0.5-0.1,1,0.2,1.1,0.7c0.2,0.5-0.1,1.1-0.6,1.3C64.8,141.5,64.7,141.5,64.6,141.5z
			 M34,141.3c-0.1,0-0.1,0-0.2,0c-0.5-0.1-0.8-0.5-0.8-1c0-0.7,0.7-1.2,1.3-0.9c0.5,0.2,0.8,0.7,0.6,1.3
			C34.9,141,34.5,141.3,34,141.3z M68.5,140.8c-0.6,0-1-0.4-1-1c0-0.5,0.4-0.9,0.8-1c0.5-0.1,1,0.2,1.1,0.7c0.2,0.5-0.1,1.1-0.6,1.3
			C68.7,140.8,68.6,140.8,68.5,140.8z M30.1,140.5c-0.1,0-0.1,0-0.2,0c-0.5-0.1-0.8-0.5-0.8-1c0-0.7,0.7-1.2,1.3-0.9
			c0.5,0.2,0.8,0.7,0.6,1.3C30.9,140.2,30.5,140.5,30.1,140.5z M72.4,139.9c-0.4,0-0.9-0.3-1-0.8c-0.1-0.5,0.2-1.1,0.7-1.2
			c0.5-0.1,1.1,0.2,1.2,0.7c0.2,0.5-0.1,1.1-0.6,1.2c0,0-0.1,0-0.1,0C72.6,139.9,72.5,139.9,72.4,139.9z M26,139.5
			c-0.5-0.1-0.9-0.7-0.7-1.2c0.1-0.5,0.7-0.9,1.2-0.7L26,139.5z M76.3,138.8c-0.4,0-0.9-0.3-1-0.8c-0.1-0.5,0.2-1.1,0.7-1.2
			c0.5-0.1,1.1,0.2,1.2,0.7c0.2,0.5-0.1,1.1-0.6,1.2c0,0-0.1,0-0.1,0C76.5,138.8,76.4,138.8,76.3,138.8z M22.1,138.4
			c-0.5-0.1-0.9-0.7-0.7-1.2c0.1-0.5,0.7-0.9,1.2-0.7L22.1,138.4z M80.1,137.6c-0.4,0-0.9-0.3-1-0.8c-0.1-0.5,0.2-1.1,0.7-1.2
			c0.5-0.1,1.1,0.2,1.2,0.7s-0.1,1.1-0.6,1.2c0,0-0.1,0-0.1,0C80.3,137.6,80.2,137.6,80.1,137.6z M18.6,137.1c-0.1,0-0.2,0-0.3-0.1
			c0,0-0.1,0-0.1-0.1c-0.5-0.2-0.7-0.8-0.4-1.3c0.2-0.5,0.8-0.7,1.3-0.5c0.5,0.2,0.7,0.7,0.6,1.2C19.4,136.9,19,137.1,18.6,137.1z
			 M83.9,136.2c-0.4,0-0.7-0.2-0.9-0.6c-0.2-0.5,0-1.1,0.4-1.3c0,0,0.1,0,0.1-0.1c0.5-0.2,1.1,0.1,1.3,0.6c0.2,0.5-0.1,1.1-0.6,1.2
			C84.1,136.2,84,136.2,83.9,136.2z M14.8,135.7c-0.1,0-0.2,0-0.3-0.1c-0.1,0-0.2-0.1-0.2-0.1c-0.5-0.3-0.6-0.9-0.3-1.4
			c0.3-0.4,0.8-0.6,1.3-0.4c0.5,0.2,0.7,0.7,0.5,1.2C15.6,135.4,15.2,135.7,14.8,135.7z M87.5,134.6c-0.3,0-0.6-0.2-0.8-0.4
			c-0.3-0.5-0.2-1.1,0.3-1.4c0.1,0,0.2-0.1,0.2-0.1c0.5-0.2,1.1,0.1,1.3,0.6c0.2,0.5-0.1,1-0.5,1.2
			C87.8,134.6,87.7,134.6,87.5,134.6z M11.2,134c-0.1,0-0.2,0-0.3-0.1c-0.1,0-0.2-0.1-0.2-0.1c-0.5-0.3-0.6-0.9-0.3-1.4
			c0.3-0.4,0.8-0.6,1.3-0.4c0.5,0.2,0.7,0.7,0.5,1.2C12,133.8,11.6,134,11.2,134z M91.2,132.9c-0.4,0-0.8-0.3-0.9-0.7
			c-0.2-0.5,0.1-1,0.5-1.2c0.5-0.2,1-0.1,1.3,0.3c0.3,0.5,0.2,1.1-0.3,1.4c-0.1,0-0.2,0.1-0.2,0.1C91.4,132.9,91.3,132.9,91.2,132.9
			z M7.6,132.2c-0.2,0-0.3,0-0.5-0.1c-0.4-0.2-0.6-0.7-0.5-1.2c0.2-0.5,0.7-0.8,1.3-0.6c0.1,0,0.2,0.1,0.2,0.1
			c0.5,0.3,0.6,0.9,0.3,1.4C8.2,132.1,7.9,132.2,7.6,132.2z M94.7,131c-0.4,0-0.8-0.3-0.9-0.7c-0.2-0.5,0.1-1,0.5-1.2
			c0.4-0.2,1-0.1,1.3,0.3c0.3,0.5,0.2,1.1-0.3,1.4c-0.1,0-0.2,0.1-0.2,0.1C94.9,131,94.8,131,94.7,131z M4,130.3
			c-0.2,0-0.3,0-0.5-0.1c-0.4-0.2-0.6-0.7-0.5-1.2c0.2-0.5,0.7-0.8,1.3-0.6c0.1,0,0.2,0.1,0.2,0.1c0.5,0.3,0.6,0.9,0.3,1.4
			C4.7,130.1,4.4,130.3,4,130.3z M98.1,129c-0.4,0-0.8-0.3-0.9-0.7c-0.2-0.5,0.1-1,0.5-1.2c0.5-0.2,1-0.1,1.3,0.3
			c0.3,0.5,0.2,1.1-0.3,1.4c-0.1,0-0.2,0.1-0.2,0.1C98.3,129,98.2,129,98.1,129z M0.6,128.2c-0.2,0-0.4-0.1-0.5-0.2l0,0
			c-0.5-0.3-0.6-0.9-0.3-1.4c0.3-0.5,0.9-0.6,1.4-0.3c0.5,0.3,0.6,0.9,0.3,1.4C1.3,128,0.9,128.2,0.6,128.2z M101.5,126.8
			c-0.3,0-0.5-0.1-0.7-0.3c-0.4-0.4-0.4-1,0-1.4c0,0,0.1-0.1,0.2-0.1c0.5-0.3,1.1-0.2,1.4,0.3c0.3,0.4,0.2,1-0.2,1.4
			C101.9,126.7,101.7,126.8,101.5,126.8z M-2.7,126c-0.2,0-0.4-0.1-0.6-0.2c-0.1,0-0.1-0.1-0.2-0.1c-0.4-0.4-0.4-1,0-1.4
			c0.4-0.4,0.9-0.4,1.3-0.1c0.4,0.3,0.5,0.9,0.2,1.4C-2.1,125.8-2.4,126-2.7,126z M104.8,124.5c-0.3,0-0.5-0.1-0.7-0.3
			c-0.4-0.4-0.4-1,0-1.4c0,0,0.1-0.1,0.2-0.1c0.5-0.3,1.1-0.2,1.4,0.3c0.3,0.4,0.2,1-0.2,1.4C105.2,124.4,105,124.5,104.8,124.5z
			 M-5.9,123.6c-0.2,0-0.4-0.1-0.6-0.2c-0.1,0-0.1-0.1-0.2-0.1c-0.4-0.4-0.4-1,0-1.4c0.4-0.4,0.9-0.4,1.3-0.1
			c0.4,0.3,0.5,0.9,0.2,1.4C-5.3,123.4-5.6,123.6-5.9,123.6z M107.9,122c-0.3,0-0.5-0.1-0.7-0.3c-0.4-0.4-0.4-1,0-1.4
			c0,0,0.1-0.1,0.2-0.1c0.5-0.3,1.1-0.2,1.4,0.3c0.3,0.4,0.2,1-0.2,1.4C108.3,121.9,108.1,122,107.9,122z M-9.1,121.1
			c-0.2,0-0.4-0.1-0.6-0.2c-0.1-0.1-0.2-0.2-0.3-0.3c-0.3-0.5-0.2-1.1,0.3-1.4c0.4-0.3,0.9-0.2,1.2,0.1c0.4,0.3,0.4,0.9,0.2,1.3
			C-8.4,120.9-8.7,121.1-9.1,121.1z M111,119.4c-0.2,0-0.4-0.1-0.6-0.2c-0.5-0.3-0.6-0.9-0.3-1.4c0.1-0.1,0.2-0.2,0.3-0.3
			c0.5-0.3,1.1-0.2,1.4,0.3c0.3,0.4,0.2,1-0.2,1.3C111.4,119.3,111.2,119.4,111,119.4z M-12.1,118.4c-0.2,0-0.4-0.1-0.6-0.2
			c-0.1-0.1-0.2-0.2-0.3-0.3c-0.3-0.5-0.2-1.1,0.3-1.4c0.4-0.3,0.9-0.2,1.2,0.1c0.4,0.3,0.4,0.9,0.2,1.3
			C-11.4,118.3-11.7,118.4-12.1,118.4z M113.9,116.7c-0.3,0-0.5-0.1-0.7-0.3c-0.4-0.4-0.4-1,0-1.4c0.4-0.4,1-0.4,1.4,0
			c0.4,0.4,0.4,1,0,1.4l0,0C114.4,116.6,114.1,116.7,113.9,116.7z M-15,115.6c-0.3,0-0.5-0.1-0.7-0.3l0,0c-0.4-0.4-0.4-1,0-1.4
			s1-0.4,1.4,0s0.4,1,0,1.4C-14.4,115.5-14.7,115.6-15,115.6z M116.7,113.8c-0.3,0-0.5-0.1-0.7-0.3c-0.4-0.4-0.4-1,0-1.4
			c0.4-0.4,1-0.4,1.4,0c0.4,0.4,0.4,1,0,1.4l0,0C117.2,113.7,117,113.8,116.7,113.8z M-17.7,112.7c-0.3,0-0.6-0.1-0.7-0.3
			c-0.3-0.3-0.4-0.8-0.1-1.2c0.3-0.5,0.9-0.6,1.4-0.3c0.1,0.1,0.2,0.2,0.3,0.3c0.3,0.5,0.2,1.1-0.3,1.4
			C-17.3,112.7-17.5,112.7-17.7,112.7z M119.4,110.8c-0.3,0-0.6-0.2-0.8-0.4c-0.3-0.4-0.2-0.9,0.1-1.2c0.3-0.4,0.9-0.4,1.3-0.2
			c0.5,0.3,0.6,0.9,0.3,1.4c-0.1,0.1-0.2,0.2-0.3,0.3C119.8,110.8,119.6,110.8,119.4,110.8z M-20.3,109.7c-0.3,0-0.6-0.1-0.7-0.3
			c-0.3-0.3-0.4-0.8-0.1-1.2c0.3-0.5,0.9-0.6,1.4-0.3c0.1,0.1,0.2,0.2,0.3,0.3c0.3,0.5,0.2,1.1-0.3,1.4
			C-20,109.7-20.2,109.7-20.3,109.7z M121.9,107.8c-0.3,0-0.5-0.1-0.7-0.3c-0.4-0.4-0.4-0.9-0.1-1.3c0.3-0.4,0.9-0.5,1.4-0.2
			c0.5,0.3,0.6,0.9,0.3,1.4c0,0.1-0.1,0.1-0.1,0.2C122.5,107.7,122.2,107.8,121.9,107.8z M-22.9,106.6c-0.3,0-0.6-0.1-0.8-0.4
			c-0.3-0.4-0.3-1,0.1-1.3c0.4-0.4,1-0.4,1.4,0c0,0,0.1,0.1,0.1,0.2c0.3,0.5,0.2,1.1-0.3,1.4C-22.5,106.5-22.7,106.6-22.9,106.6z
			 M124.4,104.6c-0.3,0-0.5-0.1-0.7-0.3c-0.4-0.4-0.4-0.9-0.1-1.3c0.3-0.4,0.9-0.5,1.4-0.2c0.5,0.3,0.6,0.9,0.3,1.4
			c0,0.1-0.1,0.1-0.1,0.2C124.9,104.5,124.6,104.6,124.4,104.6z M-25.2,103.3c-0.3,0-0.6-0.1-0.8-0.4c-0.3-0.4-0.3-1,0.1-1.3
			c0.4-0.4,1-0.4,1.4,0c0,0,0.1,0.1,0.1,0.2c0.3,0.5,0.2,1.1-0.3,1.4C-24.8,103.3-25,103.3-25.2,103.3z M126.6,101.3
			c-0.2,0-0.4-0.1-0.6-0.2c-0.5-0.3-0.6-0.9-0.3-1.4c0.3-0.5,0.9-0.6,1.4-0.3c0.5,0.3,0.6,0.9,0.3,1.4l0,0
			C127.3,101.1,127,101.3,126.6,101.3z M-27.4,100c-0.3,0-0.6-0.2-0.8-0.4c0-0.1-0.1-0.2-0.1-0.2c-0.2-0.5,0.1-1.1,0.6-1.3
			c0.5-0.2,1,0.1,1.2,0.5c0.2,0.5,0.1,1-0.3,1.3C-27.1,100-27.2,100-27.4,100z M128.8,97.9c-0.1,0-0.2,0-0.3-0.1
			c-0.5-0.2-0.8-0.7-0.6-1.3c0-0.1,0.1-0.2,0.1-0.2c0.3-0.5,0.9-0.6,1.4-0.3c0.4,0.3,0.6,0.9,0.3,1.3
			C129.5,97.7,129.1,97.9,128.8,97.9z M-29.5,96.6c-0.3,0-0.6-0.2-0.8-0.4c0-0.1-0.1-0.2-0.1-0.2c-0.2-0.5,0.1-1.1,0.6-1.3
			c0.5-0.2,1,0.1,1.2,0.5c0.2,0.5,0.1,1-0.3,1.3C-29.1,96.5-29.3,96.6-29.5,96.6z M130.7,94.4c-0.1,0-0.2,0-0.3-0.1
			c-0.5-0.2-0.8-0.7-0.6-1.3c0-0.1,0.1-0.2,0.1-0.2c0.3-0.5,0.9-0.6,1.4-0.3c0.4,0.3,0.6,0.9,0.3,1.3
			C131.5,94.2,131.1,94.4,130.7,94.4z M-31.4,93.1c-0.3,0-0.6-0.2-0.8-0.4c0-0.1-0.1-0.2-0.1-0.2c-0.2-0.5,0.1-1.1,0.6-1.3
			c0.5-0.2,1,0.1,1.2,0.5c0.2,0.5,0.1,1-0.3,1.3C-31,93-31.2,93.1-31.4,93.1z M132.6,90.8c-0.2,0-0.4-0.1-0.6-0.2
			c-0.4-0.3-0.6-0.8-0.4-1.3c0.2-0.5,0.7-0.7,1.2-0.5c0.5,0.2,0.8,0.7,0.6,1.3c0,0.1-0.1,0.2-0.1,0.2
			C133.2,90.6,132.9,90.8,132.6,90.8z M-33.2,89.5c-0.4,0-0.7-0.2-0.9-0.6c-0.2-0.4-0.1-1,0.4-1.3c0.5-0.3,1.1-0.2,1.4,0.3
			c0,0.1,0.1,0.2,0.1,0.2c0.2,0.5-0.1,1.1-0.6,1.3C-33,89.5-33.1,89.5-33.2,89.5z M134.2,87.1c-0.2,0-0.4-0.1-0.6-0.2
			c-0.4-0.3-0.6-0.8-0.4-1.3c0.2-0.5,0.7-0.7,1.2-0.5c0.5,0.2,0.8,0.7,0.6,1.3c0,0.1-0.1,0.2-0.1,0.2
			C134.9,87,134.6,87.1,134.2,87.1z M-34.8,85.8c-0.4,0-0.7-0.2-0.9-0.6c-0.2-0.4-0.1-1,0.4-1.2c0.5-0.3,1.1-0.2,1.4,0.3
			c0,0.1,0.1,0.2,0.1,0.2c0.2,0.5-0.1,1.1-0.6,1.3C-34.6,85.8-34.7,85.8-34.8,85.8z M135.8,83.4c-0.2,0-0.3,0-0.4-0.1
			c-0.5-0.2-0.7-0.8-0.5-1.3c0.2-0.5,0.7-0.7,1.2-0.6c0.5,0.2,0.8,0.7,0.6,1.3c0,0,0,0.1-0.1,0.1C136.5,83.2,136.1,83.4,135.8,83.4z
			 M-36.2,82.1c-0.4,0-0.8-0.3-0.9-0.7c0,0,0-0.1,0-0.1c-0.1-0.5,0.2-1.1,0.7-1.2c0.5-0.1,1.1,0.2,1.2,0.7c0.1,0.5-0.2,1.1-0.7,1.2
			C-36.1,82.1-36.2,82.1-36.2,82.1z M137.1,79.6c-0.1,0-0.2,0-0.2,0c-0.5-0.1-0.9-0.7-0.7-1.2l1.9,0.5
			C138,79.3,137.5,79.6,137.1,79.6z M138,78.9L138,78.9L138,78.9z M-37.5,78.3c-0.4,0-0.8-0.3-0.9-0.7c0,0,0-0.1,0-0.1
			c-0.1-0.5,0.2-1.1,0.7-1.2c0.5-0.1,1.1,0.2,1.2,0.7c0.1,0.5-0.2,1.1-0.7,1.2C-37.3,78.3-37.4,78.3-37.5,78.3z M138.3,75.8
			c-0.1,0-0.2,0-0.2,0c-0.5-0.1-0.9-0.7-0.7-1.2l1.9,0.5C139.1,75.5,138.7,75.8,138.3,75.8z M139.2,75.1L139.2,75.1L139.2,75.1z
			 M-38.6,74.4c-0.4,0-0.8-0.3-0.9-0.7c0,0,0-0.1,0-0.1c-0.1-0.5,0.2-1.1,0.7-1.2c0.5-0.1,1.1,0.2,1.2,0.7c0.1,0.5-0.2,1.1-0.7,1.2
			C-38.4,74.4-38.5,74.4-38.6,74.4z M139.3,71.9c-0.6,0-1-0.4-1-1c0-0.1,0-0.2,0.1-0.3c0.2-0.5,0.7-0.8,1.3-0.6
			c0.5,0.2,0.8,0.7,0.7,1.1C140.2,71.6,139.8,71.9,139.3,71.9z M-39.6,70.5c-0.4,0-0.8-0.3-0.9-0.7c0-0.1-0.1-0.2-0.1-0.3
			c0-0.6,0.4-1,1-1c0.5,0,0.9,0.4,1,0.8c0.1,0.5-0.2,1-0.7,1.1C-39.4,70.5-39.5,70.5-39.6,70.5z M140.1,68c-0.6,0-1-0.4-1-1
			c0-0.1,0-0.2,0.1-0.3c0.2-0.5,0.7-0.8,1.3-0.6c0.5,0.2,0.8,0.7,0.7,1.1C141,67.6,140.6,68,140.1,68z M-40.3,66.6
			c-0.4,0-0.8-0.3-0.9-0.7c0-0.1-0.1-0.2-0.1-0.3c0-0.6,0.4-1,1-1c0.5,0,0.9,0.4,1,0.8c0.1,0.5-0.2,1-0.7,1.1
			C-40.1,66.6-40.2,66.6-40.3,66.6z M140.7,64c-0.1,0-0.2,0-0.2,0c-0.5-0.1-0.8-0.6-0.8-1.1c0.1-0.5,0.5-0.9,1-0.9c0.6,0,1,0.4,1,1
			c0,0.1,0,0.2,0,0.3C141.6,63.7,141.2,64,140.7,64z M-40.9,62.6c-0.5,0-0.9-0.4-1-0.9c-0.1-0.5,0.3-1,0.8-1.1
			c0.5-0.1,1.1,0.2,1.2,0.7c0,0.1,0,0.2,0,0.3C-39.9,62.2-40.4,62.6-40.9,62.6z M141.2,60c-0.1,0-0.2,0-0.2,0
			c-0.5-0.1-0.8-0.6-0.8-1.1c0.1-0.5,0.5-0.9,1-0.9l0,0c0.6,0,1,0.4,1,1c0,0.1,0,0.2,0,0.3C142.1,59.7,141.7,60,141.2,60z
			 M-41.3,58.7c-0.5,0-0.9-0.4-1-0.9c-0.1-0.5,0.3-1,0.8-1.1c0.5-0.1,1.1,0.2,1.2,0.7c0,0.1,0,0.2,0,0.3
			C-40.3,58.2-40.8,58.7-41.3,58.7z M141.5,56.1c-0.1,0-0.2,0-0.2,0c-0.5-0.1-0.8-0.6-0.8-1.1c0.1-0.5,0.5-0.9,1-0.9l0,0
			c0.6,0,1,0.4,1,1c0,0.1,0,0.2,0,0.3C142.4,55.7,142,56.1,141.5,56.1z M-41.6,54.7c-0.6,0-1-0.4-1-1v0c0-0.6,0.4-1,1-1s1,0.4,1,1
			S-41,54.7-41.6,54.7z M141.7,52c-0.6,0-1-0.4-1-1s0.4-1,1-1s1,0.4,1,1v0C142.7,51.6,142.2,52,141.7,52z M-41.7,50.6
			c-0.6,0-1-0.4-1-1v0c0-0.6,0.4-1,1-1s1,0.4,1,1S-41.1,50.6-41.7,50.6z M141.6,48c-0.6,0-1-0.4-1-1s0.4-1,1-1s1,0.4,1,1v0
			C142.6,47.6,142.2,48,141.6,48z M-41.6,46.6c-0.6,0-1-0.4-1-1v0c0-0.6,0.4-1,1-1s1,0.4,1,1S-41,46.6-41.6,46.6z M141.4,44
			c-0.4,0-0.9-0.3-1-0.8c0-0.1,0-0.2,0-0.3c0-0.6,0.4-1,1-1c0.5,0,0.9,0.4,1,0.9c0.1,0.5-0.3,1-0.8,1.1C141.6,44,141.5,44,141.4,44z
			 M-41.3,42.6L-41.3,42.6c-0.6,0-1-0.4-1-1c0-0.1,0-0.2,0-0.3c0.1-0.5,0.7-0.9,1.2-0.7c0.5,0.1,0.8,0.6,0.8,1.1
			C-40.3,42.3-40.8,42.6-41.3,42.6z M141,40c-0.4,0-0.9-0.3-1-0.8c0-0.1,0-0.2,0-0.3c0-0.6,0.4-1,1-1c0.5,0,0.9,0.4,1,0.9
			c0.1,0.5-0.3,1-0.8,1.1C141.2,40,141.1,40,141,40z M-40.8,38.7L-40.8,38.7c-0.6,0-1-0.4-1-1c0-0.1,0-0.2,0-0.3
			c0.1-0.5,0.7-0.9,1.2-0.7c0.5,0.1,0.8,0.6,0.8,1.1C-39.9,38.3-40.3,38.7-40.8,38.7z M140.5,36.1c-0.5,0-0.9-0.4-1-0.8
			c-0.1-0.5,0.2-1,0.7-1.1c0.5-0.2,1.1,0.1,1.3,0.6c0,0.1,0.1,0.2,0.1,0.3C141.5,35.6,141,36.1,140.5,36.1z M-40.2,34.7
			c-0.1,0-0.2,0-0.3-0.1c-0.5-0.2-0.8-0.7-0.7-1.1c0.1-0.5,0.5-0.8,1-0.8c0.6,0,1,0.4,1,1c0,0.1,0,0.2-0.1,0.3
			C-39.4,34.4-39.8,34.7-40.2,34.7z M139.7,32.1c-0.5,0-0.9-0.4-1-0.8c-0.1-0.5,0.2-1,0.7-1.1c0.5-0.2,1.1,0.1,1.3,0.6
			c0,0.1,0.1,0.2,0.1,0.3C140.7,31.7,140.3,32.1,139.7,32.1z M-39.4,30.8c-0.1,0-0.2,0-0.3-0.1c-0.5-0.2-0.8-0.7-0.7-1.1
			c0.1-0.5,0.5-0.8,1-0.8c0.6,0,1,0.4,1,1c0,0.1,0,0.2-0.1,0.3C-38.6,30.5-39,30.8-39.4,30.8z M138.8,28.2c-0.4,0-0.9-0.3-1-0.8
			c-0.1-0.5,0.2-1.1,0.7-1.2s1.1,0.1,1.2,0.6c0,0,0,0.1,0,0.1c0.1,0.5-0.2,1.1-0.7,1.2C139,28.2,138.9,28.2,138.8,28.2z M-37.5,26.1
			l-1.9-0.5c0.1-0.5,0.7-0.9,1.2-0.7C-37.7,25-37.3,25.6-37.5,26.1z M137.7,24.4c-0.4,0-0.9-0.3-1-0.8c-0.1-0.5,0.2-1.1,0.7-1.2
			s1.1,0.1,1.2,0.6c0,0,0,0.1,0,0.1c0.1,0.5-0.2,1.1-0.7,1.2C137.9,24.4,137.8,24.4,137.7,24.4z M-36.3,22.3l-1.9-0.5
			c0.1-0.5,0.7-0.9,1.2-0.7C-36.5,21.2-36.2,21.7-36.3,22.3z M136.5,20.6c-0.4,0-0.9-0.3-1-0.8c-0.1-0.5,0.2-1.1,0.7-1.2
			c0.5-0.2,1.1,0.1,1.2,0.6c0,0,0,0.1,0,0.1c0.1,0.5-0.2,1.1-0.7,1.2C136.6,20.6,136.6,20.6,136.5,20.6z M-36,19.2
			c-0.1,0-0.2,0-0.3-0.1c-0.5-0.2-0.8-0.7-0.6-1.3c0,0,0-0.1,0.1-0.1c0.2-0.5,0.8-0.7,1.3-0.4c0.5,0.2,0.7,0.8,0.5,1.3
			C-35.2,19-35.6,19.2-36,19.2z M135.1,16.8c-0.3,0-0.6-0.2-0.8-0.4c0-0.1-0.1-0.2-0.1-0.2c-0.2-0.5,0.1-1.1,0.6-1.3
			c0.5-0.2,1,0.1,1.2,0.5c0.2,0.4,0.1,1-0.4,1.3C135.4,16.8,135.3,16.8,135.1,16.8z M-34.5,15.5c-0.1,0-0.2,0-0.3-0.1
			c-0.5-0.2-0.8-0.7-0.6-1.3c0-0.1,0.1-0.2,0.1-0.2c0.3-0.5,0.9-0.6,1.4-0.3c0.4,0.3,0.6,0.8,0.4,1.3
			C-33.8,15.3-34.1,15.5-34.5,15.5z M133.5,13.1c-0.3,0-0.6-0.2-0.8-0.4c0-0.1-0.1-0.2-0.1-0.2c-0.2-0.5,0.1-1.1,0.6-1.3
			c0.5-0.2,1,0.1,1.2,0.5c0.2,0.4,0.1,1-0.4,1.3C133.9,13.1,133.7,13.1,133.5,13.1z M-32.9,11.8c-0.1,0-0.2,0-0.3-0.1
			c-0.5-0.2-0.8-0.7-0.6-1.3c0-0.1,0.1-0.2,0.1-0.2c0.3-0.5,0.9-0.6,1.4-0.3c0.4,0.3,0.6,0.8,0.4,1.3
			C-32.1,11.6-32.5,11.8-32.9,11.8z M131.7,9.5c-0.4,0-0.7-0.2-0.9-0.5c-0.2-0.5-0.1-1,0.3-1.3c0.5-0.3,1.1-0.2,1.4,0.3
			c0,0.1,0.1,0.2,0.1,0.2c0.2,0.5-0.1,1.1-0.6,1.3C132,9.5,131.9,9.5,131.7,9.5z M-31.1,8.3c-0.2,0-0.4-0.1-0.6-0.2
			c-0.4-0.3-0.6-0.9-0.3-1.3c0.2-0.4,0.7-0.6,1.2-0.5c0.5,0.2,0.8,0.7,0.6,1.3c0,0.1-0.1,0.2-0.1,0.2C-30.4,8.1-30.8,8.3-31.1,8.3z
			 M129.9,6c-0.4,0-0.7-0.2-0.9-0.5c-0.2-0.5-0.1-1,0.3-1.3c0.5-0.3,1.1-0.2,1.4,0.3c0,0.1,0.1,0.2,0.1,0.2c0.2,0.5-0.1,1.1-0.6,1.3
			C130.1,6,130,6,129.9,6z M-29.1,4.8c-0.2,0-0.4-0.1-0.6-0.2c-0.4-0.3-0.6-0.9-0.3-1.3c0.2-0.4,0.7-0.6,1.2-0.5
			c0.5,0.2,0.8,0.7,0.6,1.3c0,0.1-0.1,0.2-0.1,0.2C-28.5,4.6-28.8,4.8-29.1,4.8z M127.8,2.6c-0.4,0-0.7-0.2-0.9-0.5
			c-0.2-0.5-0.1-1,0.3-1.3c0.5-0.3,1.1-0.2,1.4,0.3c0,0.1,0.1,0.2,0.1,0.2c0.2,0.5-0.1,1.1-0.6,1.3C128,2.6,127.9,2.6,127.8,2.6z
			 M-27,1.3c-0.2,0-0.4-0.1-0.6-0.2c-0.5-0.3-0.6-0.9-0.3-1.4l0,0c0.3-0.5,0.9-0.6,1.4-0.3c0.5,0.3,0.6,0.9,0.3,1.4
			C-26.4,1.2-26.7,1.3-27,1.3z M125.6-0.8c-0.3,0-0.5-0.1-0.7-0.3c0,0-0.1-0.1-0.1-0.2c-0.3-0.5-0.2-1.1,0.3-1.4
			c0.4-0.3,1-0.2,1.4,0.2c0.3,0.4,0.3,1-0.1,1.3C126.1-0.9,125.9-0.8,125.6-0.8z M-24.8-2C-25-2-25.1-2-25.3-2.2
			c-0.5-0.3-0.6-0.9-0.3-1.4c0-0.1,0.1-0.1,0.1-0.2c0.4-0.4,1-0.4,1.4,0c0.4,0.4,0.4,0.9,0.1,1.3C-24.2-2.1-24.5-2-24.8-2z M123.3-4
			c-0.3,0-0.5-0.1-0.7-0.3c0,0-0.1-0.1-0.1-0.2c-0.3-0.5-0.2-1.1,0.3-1.4c0.4-0.3,1-0.2,1.4,0.2c0.3,0.4,0.3,1-0.1,1.3
			C123.8-4.1,123.5-4,123.3-4z M-22.4-5.2c-0.2,0-0.4-0.1-0.6-0.2c-0.5-0.3-0.6-0.9-0.3-1.4c0-0.1,0.1-0.1,0.1-0.2
			c0.4-0.4,1-0.4,1.4,0c0.4,0.4,0.4,0.9,0.1,1.3C-21.8-5.3-22.1-5.2-22.4-5.2z M120.8-7.2c-0.2,0-0.4-0.1-0.6-0.2
			c-0.1-0.1-0.2-0.2-0.3-0.3c-0.3-0.5-0.2-1.1,0.3-1.4c0.4-0.3,1-0.2,1.3,0.2c0.3,0.3,0.4,0.8,0.1,1.2
			C121.4-7.3,121.1-7.2,120.8-7.2z M-19.8-8.3c-0.2,0-0.4-0.1-0.6-0.2c-0.5-0.3-0.6-0.9-0.3-1.4c0.1-0.1,0.2-0.2,0.3-0.3
			c0.5-0.3,1.1-0.2,1.4,0.3c0.3,0.4,0.2,0.9-0.1,1.2C-19.3-8.4-19.6-8.3-19.8-8.3z M118.2-10.2c-0.2,0-0.4-0.1-0.6-0.2
			c-0.1-0.1-0.2-0.2-0.3-0.3c-0.3-0.5-0.2-1.1,0.3-1.4c0.4-0.3,1-0.2,1.3,0.2c0.3,0.3,0.4,0.8,0.1,1.2
			C118.8-10.4,118.5-10.2,118.2-10.2z M-17.2-11.3c-0.2,0-0.4-0.1-0.6-0.2c-0.5-0.3-0.6-0.9-0.3-1.4c0.1-0.1,0.2-0.2,0.3-0.3
			c0.5-0.3,1.1-0.2,1.4,0.3c0.3,0.4,0.2,0.9-0.1,1.2C-16.6-11.4-16.9-11.3-17.2-11.3z M115.4-13.1c-0.3,0-0.5-0.1-0.7-0.3
			c-0.4-0.4-0.4-1,0-1.4c0.4-0.4,1-0.4,1.4,0l0,0c0.4,0.4,0.4,1,0,1.4C116-13.2,115.7-13.1,115.4-13.1z M-14.4-14.2
			c-0.3,0-0.5-0.1-0.7-0.3c-0.4-0.4-0.4-1,0-1.4l0,0c0.4-0.4,1-0.4,1.4,0s0.4,1,0,1.4C-13.9-14.3-14.1-14.2-14.4-14.2z M112.6-15.9
			c-0.3,0-0.5-0.1-0.7-0.3c-0.4-0.4-0.4-1,0-1.4c0.4-0.4,1-0.4,1.4,0l0,0c0.4,0.4,0.4,1,0,1.4C113.1-16,112.8-15.9,112.6-15.9z
			 M-11.5-16.9c-0.3,0-0.6-0.2-0.8-0.4c-0.3-0.4-0.2-1,0.2-1.3c0.3-0.3,0.8-0.3,1.2-0.1c0.5,0.3,0.6,0.9,0.3,1.4
			c-0.1,0.1-0.2,0.2-0.3,0.3C-11.1-17-11.3-16.9-11.5-16.9z M109.6-18.6c-0.2,0-0.5-0.1-0.7-0.3c-0.4-0.3-0.4-0.9-0.2-1.3
			c0.3-0.5,0.9-0.6,1.4-0.3c0.1,0.1,0.2,0.2,0.3,0.3c0.3,0.5,0.2,1.1-0.3,1.4C110-18.7,109.8-18.6,109.6-18.6z M-8.4-19.6
			c-0.3,0-0.6-0.2-0.8-0.4c-0.3-0.4-0.2-1,0.2-1.3c0.3-0.3,0.8-0.4,1.2-0.1c0.5,0.3,0.6,0.9,0.3,1.4c-0.1,0.1-0.2,0.2-0.3,0.3
			C-8.1-19.6-8.3-19.6-8.4-19.6z M106.5-21.2c-0.2,0-0.4-0.1-0.6-0.2c-0.4-0.3-0.5-0.9-0.2-1.4c0.3-0.5,0.9-0.6,1.4-0.3
			c0.1,0,0.1,0.1,0.2,0.1c0.4,0.4,0.4,1,0,1.4C107-21.2,106.7-21.2,106.5-21.2z M-5.3-22.1c-0.3,0-0.6-0.2-0.8-0.4
			c-0.3-0.4-0.2-1,0.2-1.4c0.4-0.3,1-0.3,1.3,0.1c0.4,0.4,0.4,1,0,1.4c0,0-0.1,0.1-0.2,0.1C-4.9-22.1-5.1-22.1-5.3-22.1z
			 M103.3-23.6c-0.2,0-0.4-0.1-0.6-0.2c-0.4-0.3-0.5-0.9-0.2-1.4c0.3-0.5,0.9-0.6,1.4-0.3c0.1,0,0.1,0.1,0.2,0.1
			c0.4,0.4,0.4,1,0,1.4C103.8-23.7,103.5-23.6,103.3-23.6z M-2.1-24.4c-0.3,0-0.6-0.2-0.8-0.4c-0.3-0.4-0.2-1,0.2-1.4
			c0.4-0.3,1-0.3,1.3,0.1c0.4,0.4,0.4,1,0,1.4c0,0-0.1,0.1-0.2,0.1C-1.7-24.5-1.9-24.4-2.1-24.4z M100-25.8c-0.2,0-0.4-0.1-0.6-0.2
			c-0.5-0.3-0.6-0.9-0.3-1.4c0.3-0.5,0.9-0.6,1.4-0.3l0,0c0.5,0.3,0.6,0.9,0.3,1.4C100.6-26,100.3-25.8,100-25.8z M1.3-26.6
			c-0.3,0-0.6-0.2-0.8-0.4c-0.3-0.5-0.2-1.1,0.3-1.4c0.1,0,0.2-0.1,0.2-0.1c0.5-0.2,1.1,0.1,1.3,0.6c0.2,0.5-0.1,1-0.5,1.2
			C1.6-26.7,1.4-26.6,1.3-26.6z M96.6-27.9c-0.1,0-0.2,0-0.3-0.1c-0.1,0-0.2-0.1-0.2-0.1c-0.5-0.3-0.6-0.9-0.3-1.4
			c0.3-0.4,0.9-0.6,1.3-0.3c0.4,0.2,0.6,0.7,0.5,1.2C97.4-28.2,97-27.9,96.6-27.9z M4.7-28.7c-0.3,0-0.6-0.2-0.8-0.4
			c-0.3-0.5-0.2-1.1,0.3-1.4c0.1,0,0.2-0.1,0.2-0.1c0.5-0.2,1.1,0.1,1.3,0.6c0.2,0.5-0.1,1-0.5,1.2C5-28.7,4.9-28.7,4.7-28.7z
			 M93.1-29.9c-0.1,0-0.2,0-0.3-0.1c-0.1,0-0.2-0.1-0.2-0.1c-0.5-0.3-0.6-0.9-0.3-1.4c0.3-0.4,0.9-0.6,1.3-0.3
			c0.4,0.2,0.6,0.7,0.5,1.2C93.9-30.2,93.5-29.9,93.1-29.9z M8.2-30.6c-0.3,0-0.6-0.2-0.8-0.4c-0.3-0.5-0.2-1.1,0.3-1.4
			c0.1,0,0.2-0.1,0.2-0.1c0.5-0.2,1.1,0.1,1.3,0.6c0.2,0.5-0.1,1-0.5,1.2C8.6-30.6,8.4-30.6,8.2-30.6z M89.5-31.7
			c-0.1,0-0.3,0-0.4-0.1c-0.5-0.2-0.7-0.7-0.5-1.2c0.2-0.5,0.7-0.8,1.3-0.6c0.1,0,0.2,0.1,0.2,0.1c0.5,0.3,0.6,0.9,0.3,1.4
			C90.1-31.9,89.8-31.7,89.5-31.7z M11.8-32.3c-0.4,0-0.8-0.3-0.9-0.7c-0.2-0.5,0.1-1,0.5-1.2c0.4-0.2,1-0.1,1.2,0.4
			c0.3,0.5,0.2,1.1-0.3,1.4c-0.1,0-0.2,0.1-0.2,0.1C12-32.4,11.9-32.3,11.8-32.3z M85.8-33.4c-0.1,0-0.3,0-0.4-0.1
			c-0.5-0.2-0.7-0.7-0.5-1.2c0.2-0.5,0.7-0.8,1.3-0.6c0.1,0,0.2,0.1,0.2,0.1c0.5,0.3,0.6,0.9,0.3,1.4C86.5-33.5,86.1-33.4,85.8-33.4
			z M15.5-33.9c-0.4,0-0.8-0.3-0.9-0.7c-0.2-0.5,0.1-1,0.5-1.2c0.4-0.2,1-0.1,1.2,0.4c0.3,0.5,0.2,1.1-0.3,1.4
			c-0.1,0-0.2,0.1-0.2,0.1C15.7-33.9,15.6-33.9,15.5-33.9z M82.1-34.9c-0.1,0-0.3,0-0.4-0.1c-0.5-0.2-0.7-0.7-0.6-1.2
			c0.2-0.5,0.7-0.8,1.3-0.6c0,0,0.1,0,0.1,0.1c0.5,0.2,0.7,0.8,0.4,1.3C82.8-35.1,82.5-34.9,82.1-34.9z M19.2-35.4
			c-0.4,0-0.8-0.3-1-0.7c-0.2-0.5,0.1-1.1,0.6-1.2c0,0,0.1,0,0.1,0c0.5-0.1,1.1,0.2,1.2,0.7c0.1,0.5-0.2,1.1-0.7,1.2
			C19.4-35.4,19.3-35.4,19.2-35.4z M78.3-36.2c-0.1,0-0.2,0-0.2,0l0.5-1.9c0.5,0.1,0.9,0.7,0.7,1.2C79.2-36.5,78.7-36.2,78.3-36.2z
			 M23-36.6c-0.4,0-0.8-0.3-1-0.7c-0.2-0.5,0.1-1.1,0.6-1.2c0,0,0.1,0,0.1,0c0.5-0.1,1.1,0.2,1.2,0.7c0.1,0.5-0.2,1.1-0.7,1.2
			C23.2-36.6,23.1-36.6,23-36.6z M74.5-37.4c-0.1,0-0.2,0-0.2,0l0.5-1.9c0.5,0.1,0.9,0.7,0.7,1.2C75.3-37.7,74.9-37.4,74.5-37.4z
			 M26.9-37.7c-0.4,0-0.8-0.3-1-0.7c-0.2-0.5,0.1-1.1,0.6-1.2c0,0,0.1,0,0.1,0c0.5-0.1,1.1,0.2,1.2,0.7c0.1,0.5-0.2,1.1-0.7,1.2
			C27.1-37.7,27-37.7,26.9-37.7z M70.6-38.3c-0.1,0-0.2,0-0.3-0.1c-0.5-0.2-0.8-0.7-0.6-1.3c0.2-0.5,0.7-0.8,1.1-0.7
			c0.5,0.1,0.8,0.5,0.8,1C71.6-38.8,71.1-38.3,70.6-38.3z M30.8-38.6c-0.4,0-0.8-0.3-0.9-0.7c-0.2-0.5,0.1-1.1,0.6-1.3
			c0.6-0.2,1.3,0.3,1.3,0.9c0,0.5-0.4,0.9-0.8,1C30.9-38.6,30.9-38.6,30.8-38.6z M66.6-39.2c-0.1,0-0.2,0-0.3-0.1
			c-0.5-0.2-0.8-0.7-0.6-1.3c0.2-0.5,0.7-0.8,1.1-0.7c0.5,0.1,0.8,0.5,0.8,1C67.6-39.6,67.2-39.2,66.6-39.2z M34.7-39.4
			c-0.4,0-0.8-0.3-0.9-0.7c-0.2-0.5,0.1-1.1,0.6-1.3c0.6-0.2,1.3,0.3,1.3,0.9c0,0.5-0.4,0.9-0.8,1C34.9-39.4,34.8-39.4,34.7-39.4z
			 M62.7-39.8c0,0-0.1,0-0.1,0c-0.5-0.1-0.9-0.5-0.9-1c0-0.6,0.6-1.1,1.3-1c0.5,0.1,0.9,0.7,0.7,1.2C63.5-40.1,63.1-39.8,62.7-39.8z
			 M38.7-40c-0.6,0-1-0.4-1-1c0-0.5,0.4-0.9,0.9-1c0.5,0,1,0.3,1.1,0.8c0.1,0.5-0.2,1.1-0.7,1.2C38.9-40,38.8-40,38.7-40z
			 M58.7-40.3c0,0-0.1,0-0.1,0c-0.5-0.1-0.9-0.5-0.9-1c0-0.6,0.6-1.1,1.3-1c0.5,0.1,0.9,0.7,0.7,1.2C59.6-40.6,59.2-40.3,58.7-40.3z
			 M42.7-40.4c-0.6,0-1-0.4-1-1c0-0.5,0.4-0.9,0.9-1c0.5-0.1,1,0.3,1.1,0.8c0.1,0.5-0.2,1.1-0.7,1.2C42.9-40.4,42.8-40.4,42.7-40.4z
			 M54.7-40.5c0,0-0.1,0-0.1,0c-0.5-0.1-0.9-0.5-0.9-1c0-0.6,0.6-1.1,1.3-1c0.5,0.1,0.9,0.7,0.7,1.2C55.6-40.9,55.2-40.5,54.7-40.5z
			 M46.7-40.6c-0.6,0-1-0.4-1-1s0.4-1,1-1h0c0.6,0,1,0.4,1,1S47.2-40.6,46.7-40.6z M50.7-40.7c-0.6,0-1-0.4-1-1s0.4-1,1-1h0
			c0.6,0,1,0.4,1,1S51.3-40.7,50.7-40.7z"/>
		<path d="M50,109.3L50,109.3c-0.6,0-1-0.4-1-1s0.4-1,1-1c0.3,0,0.7,0.2,0.8,0.4c0.2-0.3,0.5-0.5,0.8-0.5c0.6,0,1,0.4,1,1
			s-0.4,1-1,1h0c-0.3,0-0.6-0.2-0.8-0.4C50.7,109.1,50.4,109.3,50,109.3z M46,109.2c-0.1,0-0.2,0-0.3,0c-0.5-0.1-0.9-0.7-0.7-1.2
			c0.1-0.5,0.6-0.8,1.1-0.8c0.5,0.1,0.9,0.5,0.9,1C47,108.8,46.5,109.2,46,109.2z M55.7,109.1c-0.4,0-0.9-0.3-1-0.8
			c-0.1-0.5,0.2-1.1,0.7-1.2c0.6-0.2,1.3,0.3,1.3,1c0,0.5-0.4,0.9-0.9,1C55.7,109.1,55.7,109.1,55.7,109.1z M42,108.8
			c-0.1,0-0.2,0-0.3,0c-0.5-0.1-0.9-0.7-0.7-1.2c0.1-0.5,0.6-0.8,1.1-0.8c0.5,0.1,0.9,0.5,0.9,1C43,108.3,42.6,108.8,42,108.8z
			 M59.6,108.5c-0.6,0-1-0.4-1-1c0-0.5,0.4-0.9,0.8-1c0.5-0.1,1,0.2,1.1,0.7c0.2,0.5-0.1,1.1-0.6,1.3
			C59.9,108.5,59.8,108.5,59.6,108.5z M38.1,108.1c-0.1,0-0.1,0-0.2,0c-0.5-0.1-0.8-0.5-0.8-1c0-0.7,0.7-1.2,1.3-0.9
			c0.5,0.2,0.8,0.7,0.6,1.3C38.9,107.8,38.5,108.1,38.1,108.1z M63.6,107.7c-0.6,0-1-0.4-1-1c0-0.5,0.4-0.9,0.8-1
			c0.5-0.1,1,0.2,1.1,0.7c0.2,0.5-0.1,1.1-0.6,1.3C63.8,107.7,63.7,107.7,63.6,107.7z M33.9,107.1c-0.5-0.1-0.9-0.7-0.7-1.2
			c0.1-0.5,0.7-0.9,1.2-0.7L33.9,107.1z M67.4,106.7c-0.4,0-0.9-0.3-1-0.8c-0.1-0.5,0.2-1.1,0.7-1.2c0.5-0.1,1.1,0.2,1.2,0.7
			c0.2,0.5-0.1,1.1-0.6,1.2c0,0-0.1,0-0.1,0C67.6,106.7,67.5,106.7,67.4,106.7z M30.1,105.9c-0.5-0.1-0.9-0.7-0.7-1.2
			c0.1-0.5,0.7-0.9,1.2-0.7L30.1,105.9z M71.2,105.3c-0.4,0-0.7-0.2-0.9-0.6c-0.2-0.5,0-1.1,0.4-1.3c0,0,0.1,0,0.1-0.1
			c0.5-0.2,1.1,0.1,1.3,0.6c0.2,0.5-0.1,1.1-0.6,1.2C71.5,105.3,71.3,105.3,71.2,105.3z M26.6,104.4c-0.1,0-0.2,0-0.3-0.1
			c-0.1,0-0.2-0.1-0.2-0.1c-0.5-0.3-0.6-0.9-0.3-1.4c0.3-0.4,0.8-0.6,1.3-0.4c0.5,0.2,0.7,0.7,0.5,1.2
			C27.4,104.2,27,104.4,26.6,104.4z M74.9,103.8c-0.3,0-0.6-0.2-0.8-0.4c-0.3-0.5-0.2-1.1,0.3-1.4c0.1,0,0.2-0.1,0.2-0.1
			c0.5-0.2,1.1,0.1,1.3,0.6c0.2,0.5-0.1,1-0.5,1.2C75.2,103.7,75,103.8,74.9,103.8z M23,102.7c-0.2,0-0.3,0-0.5-0.1
			c-0.4-0.2-0.6-0.7-0.5-1.2c0.2-0.5,0.7-0.8,1.3-0.6c0.1,0,0.2,0.1,0.2,0.1c0.5,0.3,0.6,0.9,0.3,1.4
			C23.6,102.5,23.3,102.7,23,102.7z M78.4,101.9c-0.4,0-0.8-0.3-0.9-0.7c-0.2-0.5,0.1-1,0.5-1.2c0.4-0.2,1-0.1,1.3,0.3
			c0.3,0.5,0.2,1.1-0.3,1.4c-0.1,0-0.2,0.1-0.2,0.1C78.7,101.9,78.6,101.9,78.4,101.9z M19.5,100.7c-0.2,0-0.3,0-0.5-0.1
			c-0.4-0.2-0.6-0.7-0.5-1.2c0.2-0.5,0.7-0.8,1.3-0.6c0.1,0,0.2,0.1,0.2,0.1c0.5,0.3,0.6,0.9,0.3,1.4
			C20.2,100.6,19.8,100.7,19.5,100.7z M81.9,99.8c-0.3,0-0.6-0.2-0.8-0.4c-0.3-0.5-0.2-1.1,0.3-1.4c0.5-0.3,1.1-0.2,1.4,0.3
			c0.3,0.5,0.2,1.1-0.3,1.4l0,0C82.3,99.8,82.1,99.8,81.9,99.8z M16.2,98.5c-0.2,0-0.4-0.1-0.6-0.2c-0.1,0-0.1-0.1-0.2-0.1
			c-0.4-0.4-0.4-1,0-1.4c0.4-0.4,0.9-0.4,1.3-0.1c0.4,0.3,0.5,0.9,0.2,1.4C16.8,98.3,16.5,98.5,16.2,98.5z M85.1,97.5
			c-0.3,0-0.5-0.1-0.7-0.3c-0.4-0.4-0.4-1,0-1.4c0,0,0.1-0.1,0.2-0.1c0.5-0.3,1.1-0.2,1.4,0.3c0.3,0.4,0.2,1-0.2,1.4
			C85.6,97.5,85.4,97.5,85.1,97.5z M13,96.1c-0.2,0-0.4-0.1-0.6-0.2c-0.1-0.1-0.2-0.2-0.3-0.3c-0.3-0.5-0.2-1.1,0.3-1.4
			c0.4-0.3,0.9-0.2,1.2,0.1c0.4,0.3,0.4,0.9,0.2,1.3C13.6,95.9,13.3,96.1,13,96.1z M88.3,95c-0.2,0-0.4-0.1-0.6-0.2
			c-0.5-0.3-0.6-0.9-0.3-1.4c0.1-0.1,0.2-0.2,0.3-0.3c0.5-0.3,1.1-0.2,1.4,0.3c0.3,0.4,0.2,1-0.2,1.3C88.7,94.9,88.5,95,88.3,95z
			 M10,93.4c-0.3,0-0.5-0.1-0.7-0.3l0,0c-0.4-0.4-0.4-1,0-1.4s1-0.4,1.4,0s0.4,1,0,1.4C10.5,93.3,10.2,93.4,10,93.4z M91.2,92.3
			c-0.3,0-0.5-0.1-0.7-0.3c-0.4-0.4-0.4-1,0-1.4c0.4-0.4,1-0.4,1.4,0c0.4,0.4,0.4,1,0,1.4l0,0C91.7,92.2,91.4,92.3,91.2,92.3z
			 M7.2,90.6c-0.3,0-0.6-0.1-0.7-0.3c-0.3-0.3-0.4-0.8-0.1-1.2c0.3-0.5,0.9-0.6,1.4-0.3C7.8,88.8,7.9,88.9,8,89
			c0.3,0.5,0.2,1.1-0.3,1.4C7.6,90.5,7.4,90.6,7.2,90.6z M93.9,89.3c-0.3,0-0.6-0.2-0.8-0.4c-0.3-0.4-0.2-0.9,0.1-1.2
			c0.3-0.4,0.9-0.4,1.3-0.2c0.5,0.3,0.6,0.9,0.3,1.4c-0.1,0.1-0.2,0.2-0.3,0.3C94.3,89.3,94.1,89.3,93.9,89.3z M4.6,87.5
			c-0.3,0-0.6-0.1-0.8-0.4c-0.3-0.4-0.3-1,0.1-1.3c0.4-0.4,1-0.4,1.4,0c0,0,0.1,0.1,0.1,0.2c0.3,0.5,0.2,1.1-0.3,1.4
			C4.9,87.5,4.7,87.5,4.6,87.5z M96.5,86.2c-0.3,0-0.5-0.1-0.7-0.3c-0.4-0.4-0.4-0.9-0.1-1.3c0.3-0.4,0.9-0.5,1.4-0.2
			c0.5,0.3,0.6,0.9,0.3,1.4c0,0.1-0.1,0.1-0.1,0.2C97,86.1,96.7,86.2,96.5,86.2z M2.1,84.3c-0.3,0-0.6-0.1-0.8-0.4
			c-0.3-0.4-0.3-1,0.1-1.3c0.4-0.4,1-0.4,1.4,0c0,0,0.1,0.1,0.1,0.2c0.3,0.5,0.2,1.1-0.3,1.4C2.5,84.3,2.3,84.3,2.1,84.3z M98.8,83
			c-0.2,0-0.4-0.1-0.6-0.2c-0.5-0.3-0.6-0.9-0.3-1.4c0.3-0.5,0.9-0.6,1.4-0.3c0.5,0.3,0.6,0.9,0.3,1.4l0,0
			C99.4,82.8,99.1,83,98.8,83z M0,81c-0.3,0-0.6-0.2-0.8-0.4c0-0.1-0.1-0.2-0.1-0.2c-0.2-0.5,0.1-1.1,0.6-1.3c0.5-0.2,1,0.1,1.2,0.5
			c0.2,0.5,0.1,1-0.3,1.3C0.3,80.9,0.2,81,0,81z M100.9,79.5c-0.1,0-0.2,0-0.3-0.1c-0.5-0.2-0.8-0.7-0.6-1.3c0-0.1,0.1-0.2,0.1-0.2
			c0.3-0.5,0.9-0.6,1.4-0.3c0.4,0.3,0.6,0.9,0.3,1.3C101.6,79.3,101.2,79.5,100.9,79.5z M-2,77.5c-0.3,0-0.6-0.2-0.8-0.4
			c0-0.1-0.1-0.2-0.1-0.2c-0.2-0.5,0.1-1.1,0.6-1.3c0.5-0.2,1,0.1,1.2,0.5c0.2,0.5,0.1,1-0.3,1.3C-1.6,77.4-1.8,77.5-2,77.5z
			 M102.7,76c-0.2,0-0.4-0.1-0.6-0.2c-0.4-0.3-0.6-0.8-0.4-1.2c0.2-0.5,0.7-0.7,1.2-0.5c0.5,0.2,0.8,0.7,0.6,1.3
			c0,0.1-0.1,0.2-0.1,0.2C103.4,75.8,103,76,102.7,76z M-3.7,73.8c-0.4,0-0.7-0.2-0.9-0.6c-0.2-0.4-0.1-1,0.4-1.2
			c0.5-0.3,1.1-0.2,1.4,0.3c0,0.1,0.1,0.2,0.1,0.2c0.2,0.5-0.1,1.1-0.6,1.3C-3.5,73.8-3.6,73.8-3.7,73.8z M104.3,72.3
			c-0.2,0-0.3,0-0.4-0.1c-0.5-0.2-0.7-0.8-0.5-1.3c0.2-0.5,0.7-0.7,1.2-0.6c0.5,0.2,0.8,0.7,0.6,1.3c0,0,0,0.1-0.1,0.1
			C105,72.1,104.7,72.3,104.3,72.3z M-5.1,70.1c-0.4,0-0.8-0.3-0.9-0.7c0,0,0-0.1,0-0.1c-0.1-0.5,0.2-1.1,0.7-1.2
			c0.5-0.1,1.1,0.2,1.2,0.7c0.1,0.5-0.2,1.1-0.7,1.2C-4.9,70.1-5,70.1-5.1,70.1z M105.7,68.5c-0.1,0-0.2,0-0.2,0
			c-0.5-0.1-0.9-0.7-0.7-1.2l1.9,0.5C106.5,68.2,106.1,68.5,105.7,68.5z M106.6,67.8L106.6,67.8L106.6,67.8z M-6.3,66.3
			c-0.4,0-0.8-0.3-0.9-0.7c0,0,0-0.1,0-0.1c-0.1-0.5,0.2-1.1,0.7-1.2c0.5-0.1,1.1,0.2,1.2,0.7c0.1,0.5-0.2,1.1-0.7,1.2
			C-6.1,66.3-6.2,66.3-6.3,66.3z M106.7,64.7c-0.6,0-1-0.4-1-1c0-0.1,0-0.2,0.1-0.3c0.2-0.5,0.7-0.8,1.3-0.6
			c0.5,0.2,0.8,0.7,0.7,1.1C107.6,64.3,107.2,64.7,106.7,64.7z M-7.2,62.4c-0.4,0-0.8-0.3-0.9-0.7c0-0.1-0.1-0.2-0.1-0.3
			c0-0.6,0.4-1,1-1c0.5,0,0.9,0.4,1,0.8c0.1,0.5-0.2,1-0.7,1.1C-7,62.4-7.1,62.4-7.2,62.4z M107.5,60.7c-0.6,0-1-0.4-1-1
			c0-0.1,0-0.2,0.1-0.3c0.2-0.5,0.7-0.8,1.3-0.6c0.5,0.2,0.8,0.7,0.7,1.1C108.4,60.4,108,60.7,107.5,60.7z M-7.9,58.4
			c-0.5,0-0.9-0.4-1-0.9c-0.1-0.5,0.3-1,0.8-1.1c0.5-0.1,1.1,0.2,1.2,0.7c0,0.1,0,0.2,0,0.3C-6.9,58-7.3,58.4-7.9,58.4z M108.1,56.8
			c-0.1,0-0.2,0-0.2,0c-0.5-0.1-0.8-0.6-0.8-1.1c0.1-0.5,0.5-0.9,1-0.9l0,0c0.6,0,1,0.4,1,1c0,0.1,0,0.2,0,0.3
			C108.9,56.4,108.5,56.8,108.1,56.8z M-8.2,54.4c-0.5,0-0.9-0.4-1-0.9c-0.1-0.5,0.3-1,0.8-1.1c0.5-0.1,1.1,0.2,1.2,0.7
			c0,0.1,0,0.2,0,0.3C-7.2,54-7.7,54.4-8.2,54.4z M108.3,52.8c-0.6,0-1-0.4-1-1s0.4-1,1-1s1,0.4,1,1v0
			C109.3,52.3,108.9,52.8,108.3,52.8z M-8.3,50.4c-0.6,0-1-0.4-1-1v0c0-0.6,0.4-1,1-1s1,0.4,1,1S-7.8,50.4-8.3,50.4z M108.3,48.7
			c-0.6,0-1-0.4-1-1s0.4-1,1-1s1,0.4,1,1v0C109.3,48.3,108.8,48.7,108.3,48.7z M-8.2,46.4L-8.2,46.4c-0.6,0-1-0.4-1-1
			c0-0.1,0-0.2,0-0.3c0.1-0.5,0.7-0.9,1.2-0.7c0.5,0.1,0.8,0.6,0.8,1.1C-7.2,46-7.6,46.4-8.2,46.4z M108,44.7c-0.4,0-0.9-0.3-1-0.8
			c0-0.1,0-0.2,0-0.3c0-0.6,0.4-1,1-1c0.5,0,0.9,0.4,1,0.9c0.1,0.5-0.3,1-0.8,1.1C108.2,44.7,108.1,44.7,108,44.7z M-7.7,42.4
			L-7.7,42.4c-0.6,0-1-0.4-1-1c0-0.1,0-0.2,0-0.3c0.1-0.5,0.7-0.9,1.2-0.7c0.5,0.1,0.8,0.6,0.8,1.1C-6.8,42-7.2,42.4-7.7,42.4z
			 M107.4,40.8c-0.5,0-0.9-0.4-1-0.8c-0.1-0.5,0.2-1,0.7-1.1c0.5-0.2,1.1,0.1,1.3,0.6c0,0.1,0.1,0.2,0.1,0.3
			C108.4,40.3,108,40.8,107.4,40.8z M-7,38.5c-0.1,0-0.2,0-0.3-0.1c-0.5-0.2-0.8-0.7-0.7-1.1c0.1-0.5,0.5-0.8,1-0.8c0.6,0,1,0.4,1,1
			c0,0.1,0,0.2-0.1,0.3C-6.2,38.2-6.6,38.5-7,38.5z M106.6,36.9c-0.5,0-0.9-0.4-1-0.8c-0.1-0.5,0.2-1,0.7-1.1
			c0.5-0.2,1.1,0.1,1.3,0.6c0,0.1,0.1,0.2,0.1,0.3C107.6,36.4,107.2,36.9,106.6,36.9z M-5,33.8L-7,33.4c0.1-0.5,0.7-0.9,1.2-0.7
			C-5.2,32.8-4.9,33.3-5,33.8z M105.5,33c-0.4,0-0.9-0.3-1-0.8c-0.1-0.5,0.2-1.1,0.7-1.2c0.5-0.2,1.1,0.1,1.2,0.6c0,0,0,0.1,0,0.1
			c0.1,0.5-0.2,1.1-0.7,1.2C105.7,33,105.6,33,105.5,33z M-4.7,30.8c-0.1,0-0.2,0-0.3-0.1c-0.5-0.2-0.8-0.7-0.6-1.3
			c0,0,0-0.1,0.1-0.1c0.2-0.5,0.8-0.7,1.3-0.4c0.5,0.2,0.7,0.8,0.5,1.3C-4,30.6-4.3,30.8-4.7,30.8z M104.1,29.2
			c-0.3,0-0.6-0.2-0.8-0.4c0-0.1-0.1-0.2-0.1-0.2c-0.2-0.5,0.1-1.1,0.6-1.3c0.5-0.2,1,0.1,1.2,0.5c0.2,0.4,0.1,1-0.4,1.2
			C104.5,29.2,104.3,29.2,104.1,29.2z M-3.2,27.1c-0.1,0-0.2,0-0.3-0.1c-0.5-0.2-0.8-0.7-0.6-1.3c0-0.1,0.1-0.2,0.1-0.2
			c0.3-0.5,0.9-0.6,1.4-0.3c0.4,0.3,0.6,0.8,0.4,1.2C-2.5,26.9-2.8,27.1-3.2,27.1z M102.5,25.6c-0.3,0-0.6-0.2-0.8-0.4
			c0-0.1-0.1-0.2-0.1-0.2c-0.2-0.5,0.1-1.1,0.6-1.3c0.5-0.2,1,0.1,1.2,0.5c0.2,0.4,0.1,1-0.4,1.2C102.9,25.5,102.7,25.6,102.5,25.6z
			 M-1.4,23.5c-0.2,0-0.4-0.1-0.6-0.2C-2.4,23-2.6,22.5-2.3,22c0.2-0.4,0.7-0.6,1.2-0.5c0.5,0.2,0.8,0.7,0.6,1.3
			c0,0.1-0.1,0.2-0.1,0.2C-0.8,23.3-1.1,23.5-1.4,23.5z M100.6,22c-0.4,0-0.7-0.2-0.9-0.5c-0.2-0.5-0.1-1,0.3-1.3
			c0.5-0.3,1.1-0.2,1.4,0.3c0,0.1,0.1,0.2,0.1,0.2c0.2,0.5-0.1,1.1-0.6,1.3C100.8,22,100.7,22,100.6,22z M0.6,20
			C0.4,20,0.2,20,0,19.9c-0.4-0.3-0.6-0.9-0.3-1.3c0.2-0.4,0.7-0.6,1.2-0.5c0.5,0.2,0.8,0.7,0.6,1.3c0,0.1-0.1,0.2-0.1,0.2
			C1.2,19.9,0.9,20,0.6,20z M98.5,18.6c-0.3,0-0.5-0.1-0.7-0.3c0,0-0.1-0.1-0.1-0.2c-0.3-0.5-0.2-1.1,0.3-1.4c0.4-0.3,1-0.2,1.4,0.2
			c0.3,0.4,0.3,1-0.1,1.3C99,18.5,98.8,18.6,98.5,18.6z M2.8,16.7c-0.2,0-0.4-0.1-0.6-0.2c-0.5-0.3-0.6-0.9-0.3-1.4
			C2,15.1,2.1,15,2.1,15c0.4-0.4,1-0.4,1.4,0c0.4,0.4,0.4,0.9,0.1,1.3C3.4,16.6,3.1,16.7,2.8,16.7z M96.2,15.4
			c-0.3,0-0.5-0.1-0.7-0.3c0,0-0.1-0.1-0.1-0.2c-0.3-0.5-0.2-1.1,0.3-1.4c0.4-0.3,1-0.2,1.4,0.2c0.3,0.4,0.3,1-0.1,1.3
			C96.7,15.3,96.4,15.4,96.2,15.4z M5.3,13.5c-0.2,0-0.4-0.1-0.6-0.2c-0.5-0.3-0.6-0.9-0.3-1.4c0.1-0.1,0.2-0.2,0.3-0.3
			c0.5-0.3,1.1-0.2,1.4,0.3c0.3,0.4,0.2,0.9-0.1,1.2C5.9,13.4,5.6,13.5,5.3,13.5z M93.6,12.3c-0.2,0-0.4-0.1-0.6-0.2
			c-0.1-0.1-0.2-0.2-0.3-0.3c-0.3-0.5-0.2-1.1,0.3-1.4c0.4-0.3,1-0.2,1.3,0.2c0.3,0.3,0.4,0.8,0.1,1.2
			C94.3,12.2,93.9,12.3,93.6,12.3z M8,10.6c-0.3,0-0.5-0.1-0.7-0.3c-0.4-0.4-0.4-1,0-1.4l0,0c0.4-0.4,1-0.4,1.4,0s0.4,1,0,1.4
			C8.5,10.5,8.2,10.6,8,10.6z M90.9,9.4c-0.3,0-0.5-0.1-0.7-0.3c-0.4-0.4-0.4-1,0-1.4c0.4-0.4,1-0.4,1.4,0l0,0c0.4,0.4,0.4,1,0,1.4
			C91.4,9.3,91.1,9.4,90.9,9.4z M10.9,7.8c-0.3,0-0.6-0.2-0.8-0.4c-0.3-0.4-0.2-1,0.2-1.3c0.3-0.3,0.8-0.4,1.2-0.1
			c0.5,0.3,0.6,0.9,0.3,1.4c-0.1,0.1-0.2,0.2-0.3,0.3C11.2,7.7,11.1,7.8,10.9,7.8z M87.9,6.7c-0.2,0-0.5-0.1-0.7-0.3
			c-0.4-0.3-0.4-0.9-0.2-1.3c0.3-0.5,0.9-0.6,1.4-0.3c0.1,0.1,0.2,0.2,0.3,0.3c0.3,0.5,0.2,1.1-0.3,1.4C88.3,6.6,88.1,6.7,87.9,6.7z
			 M13.9,5.2c-0.3,0-0.6-0.2-0.8-0.4c-0.3-0.4-0.2-1,0.2-1.4c0.4-0.3,1-0.3,1.3,0.1c0.4,0.4,0.4,1,0,1.4c0,0-0.1,0.1-0.2,0.1
			C14.3,5.1,14.1,5.2,13.9,5.2z M84.8,4.2c-0.2,0-0.4-0.1-0.6-0.2c-0.4-0.3-0.5-0.9-0.2-1.4c0.3-0.5,0.9-0.6,1.4-0.3
			c0.1,0,0.1,0.1,0.2,0.1c0.4,0.4,0.4,1,0,1.4C85.3,4.1,85,4.2,84.8,4.2z M17.2,2.8c-0.3,0-0.6-0.2-0.8-0.4c-0.3-0.4-0.2-1,0.2-1.4
			c0.4-0.3,1-0.3,1.3,0.1c0.4,0.4,0.4,1,0,1.4c0,0-0.1,0.1-0.2,0.1C17.5,2.8,17.3,2.8,17.2,2.8z M81.5,1.9c-0.2,0-0.4-0.1-0.6-0.2
			c-0.5-0.3-0.6-0.9-0.3-1.4c0.3-0.5,0.9-0.6,1.4-0.3l0,0c0.5,0.3,0.6,0.9,0.3,1.4C82.1,1.7,81.8,1.9,81.5,1.9z M20.5,0.7
			c-0.3,0-0.6-0.2-0.8-0.4c-0.3-0.5-0.2-1.1,0.3-1.4c0.1,0,0.2-0.1,0.2-0.1c0.5-0.2,1.1,0.1,1.3,0.6c0.2,0.5-0.1,1-0.5,1.2
			C20.9,0.6,20.7,0.7,20.5,0.7z M78-0.1c-0.1,0-0.2,0-0.3-0.1c-0.1,0-0.2-0.1-0.2-0.1c-0.5-0.3-0.6-0.9-0.3-1.4
			c0.3-0.4,0.9-0.6,1.3-0.3c0.4,0.2,0.6,0.7,0.5,1.2C78.8-0.4,78.5-0.1,78-0.1z M24.1-1.2c-0.3,0-0.6-0.2-0.8-0.4
			c-0.3-0.5-0.2-1.1,0.3-1.4c0.1,0,0.2-0.1,0.2-0.1c0.5-0.2,1.1,0.1,1.3,0.6c0.2,0.5-0.1,1-0.5,1.2C24.4-1.3,24.2-1.2,24.1-1.2z
			 M74.5-2c-0.1,0-0.3,0-0.4-0.1c-0.5-0.2-0.7-0.7-0.5-1.2c0.2-0.5,0.7-0.8,1.3-0.6c0.1,0,0.2,0.1,0.2,0.1c0.5,0.3,0.6,0.9,0.3,1.4
			C75.1-2.1,74.8-2,74.5-2z M27.7-2.9c-0.4,0-0.8-0.3-0.9-0.7c-0.2-0.5,0.1-1,0.5-1.2c0.4-0.2,1-0.1,1.2,0.4
			c0.3,0.5,0.2,1.1-0.3,1.4C28.2-3,28.1-3,28-3C27.9-2.9,27.8-2.9,27.7-2.9z M70.8-3.5c-0.1,0-0.3,0-0.4-0.1
			c-0.5-0.2-0.7-0.7-0.6-1.2c0.2-0.5,0.7-0.8,1.3-0.6c0,0,0.1,0,0.1,0.1c0.5,0.2,0.7,0.8,0.4,1.3C71.5-3.7,71.1-3.5,70.8-3.5z
			 M31.5-4.3c-0.4,0-0.8-0.3-1-0.7c-0.2-0.5,0.1-1.1,0.6-1.2c0,0,0.1,0,0.1,0c0.5-0.1,1.1,0.2,1.2,0.7c0.1,0.5-0.2,1.1-0.7,1.2
			C31.6-4.3,31.5-4.3,31.5-4.3z M67-4.8c-0.1,0-0.2,0-0.2,0l0.5-1.9c0.5,0.1,0.9,0.7,0.7,1.2C67.8-5.1,67.4-4.8,67-4.8z M35.3-5.5
			c-0.4,0-0.8-0.3-1-0.7c-0.2-0.5,0.1-1.1,0.6-1.2c0,0,0.1,0,0.1,0c0.5-0.1,1.1,0.2,1.2,0.7c0.1,0.5-0.2,1.1-0.7,1.2
			C35.5-5.5,35.4-5.5,35.3-5.5z M63.1-5.9c-0.1,0-0.2,0-0.3-0.1c-0.5-0.2-0.8-0.7-0.6-1.3c0.2-0.5,0.7-0.8,1.1-0.7
			c0.5,0.1,0.8,0.5,0.8,1C64.1-6.3,63.6-5.9,63.1-5.9z M39.2-6.3c-0.4,0-0.8-0.3-0.9-0.7c-0.2-0.5,0.1-1.1,0.6-1.3
			c0.6-0.2,1.3,0.3,1.3,0.9c0,0.5-0.4,0.9-0.8,1C39.3-6.3,39.3-6.3,39.2-6.3z M59.2-6.6c-0.1,0-0.2,0-0.3-0.1
			c-0.5-0.2-0.8-0.7-0.6-1.3c0.2-0.5,0.7-0.8,1.1-0.7c0.5,0.1,0.8,0.5,0.8,1C60.2-7.1,59.7-6.6,59.2-6.6z M43.2-6.9
			c-0.6,0-1-0.4-1-1c0-0.5,0.4-0.9,0.9-1c0.5,0,1,0.3,1.1,0.8c0.1,0.5-0.2,1.1-0.7,1.2C43.3-6.9,43.2-6.9,43.2-6.9z M55.2-7.1
			c0,0-0.1,0-0.1,0c-0.5-0.1-0.9-0.5-0.9-1c0-0.6,0.6-1.1,1.3-1c0.5,0.1,0.9,0.7,0.7,1.2C56-7.4,55.6-7.1,55.2-7.1z M47.2-7.3
			c-0.6,0-1-0.4-1-1s0.4-1,1-1h0c0.6,0,1,0.4,1,1S47.7-7.3,47.2-7.3z M51.2-7.3c-0.6,0-1-0.4-1-1s0.4-1,1-1h0c0.6,0,1,0.4,1,1
			S51.7-7.3,51.2-7.3z"/>
		<path d="M50,76L50,76c-0.6,0-1-0.4-1-1s0.4-1,1-1c0.1,0,0.2,0,0.3,0.1c0.1,0,0.2-0.1,0.4-0.1c0.6,0,1,0.4,1,1s-0.4,1-1,1h0
			c-0.1,0-0.2,0-0.3-0.1C50.3,76,50.1,76,50,76z M46,75.7c-0.1,0-0.1,0-0.2,0c-0.5-0.1-0.8-0.5-0.8-1c0-0.7,0.7-1.2,1.3-0.9
			c0.5,0.2,0.8,0.7,0.6,1.3C46.8,75.4,46.4,75.7,46,75.7z M54.7,75.6c-0.6,0-1-0.4-1-1c0-0.5,0.4-0.9,0.8-1c0.5-0.1,1,0.2,1.1,0.7
			c0.2,0.5-0.1,1.1-0.6,1.3C54.9,75.5,54.8,75.6,54.7,75.6z M41.9,74.7c-0.5-0.1-0.9-0.7-0.7-1.2c0.1-0.5,0.7-0.9,1.2-0.7L41.9,74.7
			z M58.5,74.5c-0.4,0-0.7-0.2-0.9-0.6c-0.2-0.5,0-1.1,0.4-1.3c0,0,0.1,0,0.1-0.1c0.5-0.2,1.1,0.1,1.3,0.6c0.2,0.5-0.1,1.1-0.6,1.2
			C58.8,74.5,58.7,74.5,58.5,74.5z M38.4,73.2c-0.2,0-0.3,0-0.5-0.1c-0.4-0.2-0.6-0.7-0.5-1.2c0.2-0.5,0.7-0.8,1.3-0.6
			c0.1,0,0.2,0.1,0.2,0.1c0.5,0.3,0.6,0.9,0.3,1.4C39.1,73,38.8,73.2,38.4,73.2z M62.2,72.8c-0.4,0-0.8-0.3-0.9-0.7
			c-0.2-0.5,0.1-1,0.5-1.2c0.5-0.2,1-0.1,1.3,0.3c0.3,0.5,0.2,1.1-0.3,1.4c-0.1,0-0.2,0.1-0.2,0.1C62.4,72.8,62.3,72.8,62.2,72.8z
			 M35,71c-0.2,0-0.4-0.1-0.6-0.2c-0.1,0-0.1-0.1-0.2-0.1c-0.4-0.4-0.4-1,0-1.4c0.4-0.4,0.9-0.4,1.3-0.1c0.4,0.3,0.5,0.9,0.2,1.4
			C35.7,70.9,35.4,71,35,71z M65.5,70.6c-0.3,0-0.5-0.1-0.7-0.3c-0.4-0.4-0.4-1,0-1.4c0,0,0.1-0.1,0.2-0.1c0.5-0.3,1.1-0.2,1.4,0.3
			c0.3,0.4,0.2,1-0.2,1.4C65.9,70.5,65.7,70.6,65.5,70.6z M32,68.4c-0.3,0-0.5-0.1-0.7-0.3l0,0c-0.4-0.4-0.4-1,0-1.4s1-0.4,1.4,0
			s0.4,1,0,1.4C32.5,68.3,32.3,68.4,32,68.4z M68.4,67.9c-0.3,0-0.6-0.2-0.8-0.4c-0.3-0.4-0.2-0.9,0.1-1.2c0.3-0.4,0.9-0.4,1.3-0.2
			c0.5,0.3,0.6,0.9,0.3,1.4c-0.1,0.1-0.2,0.2-0.3,0.3C68.8,67.8,68.6,67.9,68.4,67.9z M29.5,65.3c-0.3,0-0.6-0.1-0.8-0.4
			c-0.3-0.4-0.3-1,0.1-1.3c0.4-0.4,1-0.4,1.4,0c0,0,0.1,0.1,0.1,0.2c0.3,0.5,0.2,1.1-0.3,1.4C29.9,65.2,29.7,65.3,29.5,65.3z
			 M70.9,64.7c-0.2,0-0.4-0.1-0.6-0.2c-0.5-0.3-0.6-0.9-0.3-1.4c0.3-0.5,0.9-0.6,1.4-0.3c0.5,0.3,0.6,0.9,0.3,1.4l0,0
			C71.5,64.5,71.2,64.7,70.9,64.7z M27.5,61.8c-0.4,0-0.7-0.2-0.9-0.6c-0.2-0.4-0.1-1,0.4-1.2c0.5-0.3,1.1-0.2,1.4,0.3
			c0,0.1,0.1,0.2,0.1,0.2c0.2,0.5-0.1,1.1-0.6,1.3C27.7,61.8,27.6,61.8,27.5,61.8z M72.8,61.2c-0.2,0-0.4-0.1-0.6-0.2
			c-0.4-0.3-0.6-0.8-0.4-1.3c0.2-0.5,0.7-0.7,1.2-0.5c0.5,0.2,0.8,0.7,0.6,1.3c0,0.1-0.1,0.2-0.1,0.2C73.5,61,73.2,61.2,72.8,61.2z
			 M26,58.1c-0.4,0-0.8-0.3-0.9-0.7c0,0,0-0.1,0-0.1c-0.1-0.5,0.2-1.1,0.7-1.2c0.5-0.1,1.1,0.2,1.2,0.7c0.1,0.5-0.2,1.1-0.7,1.2
			C26.2,58.1,26.1,58.1,26,58.1z M74.2,57.4c-0.1,0-0.2,0-0.2,0c-0.5-0.1-0.9-0.7-0.7-1.2l1.9,0.5C75,57.1,74.6,57.4,74.2,57.4z
			 M75.1,56.7L75.1,56.7L75.1,56.7z M25.2,54.2c-0.5,0-0.9-0.4-1-0.9c-0.1-0.5,0.3-1,0.8-1.1c0.5-0.1,1.1,0.2,1.2,0.7
			c0,0.1,0,0.2,0,0.3C26.2,53.7,25.8,54.2,25.2,54.2z M74.9,53.5c-0.1,0-0.2,0-0.2,0c-0.5-0.1-0.8-0.6-0.8-1.1
			c0.1-0.5,0.5-0.9,1-0.9l0,0c0.6,0,1,0.4,1,1c0,0.1,0,0.2,0,0.3C75.7,53.2,75.3,53.5,74.9,53.5z M25,50.2c-0.6,0-1-0.4-1-1v0
			c0-0.6,0.4-1,1-1s1,0.4,1,1S25.6,50.2,25,50.2z M75,49.5c-0.4,0-0.9-0.3-1-0.8c0-0.1,0-0.2,0-0.3c0-0.6,0.4-1,1-1
			c0.5,0,0.9,0.4,1,0.9c0.1,0.5-0.3,1-0.8,1.1C75.1,49.5,75,49.5,75,49.5z M25.5,46.2c-0.1,0-0.2,0-0.3-0.1
			c-0.5-0.2-0.8-0.7-0.7-1.1c0.1-0.5,0.5-0.8,1-0.8c0.6,0,1,0.4,1,1c0,0.1,0,0.2-0.1,0.3C26.3,45.9,25.9,46.2,25.5,46.2z M74.4,45.5
			c-0.5,0-0.9-0.4-1-0.8c-0.1-0.5,0.2-1,0.7-1.1c0.5-0.2,1.1,0.1,1.3,0.6c0,0.1,0.1,0.2,0.1,0.3C75.4,45.1,74.9,45.5,74.4,45.5z
			 M26.5,42.3c-0.1,0-0.2,0-0.3-0.1c-0.5-0.2-0.8-0.7-0.6-1.3c0,0,0-0.1,0.1-0.1c0.2-0.5,0.8-0.7,1.3-0.4c0.5,0.2,0.7,0.8,0.5,1.3
			C27.3,42.1,26.9,42.3,26.5,42.3z M73.2,41.7c-0.3,0-0.6-0.2-0.8-0.4c0-0.1-0.1-0.2-0.1-0.2c-0.2-0.5,0.1-1.1,0.6-1.3
			c0.5-0.2,1,0.1,1.2,0.5c0.2,0.4,0.1,1-0.4,1.2C73.6,41.6,73.4,41.7,73.2,41.7z M28.2,38.7c-0.2,0-0.4-0.1-0.6-0.2
			c-0.4-0.3-0.6-0.9-0.3-1.3c0.2-0.4,0.7-0.6,1.2-0.5c0.5,0.2,0.8,0.7,0.6,1.3c0,0.1-0.1,0.2-0.1,0.2C28.9,38.6,28.6,38.7,28.2,38.7
			z M71.4,38.1c-0.4,0-0.7-0.2-0.9-0.5c-0.2-0.5-0.1-1,0.3-1.3c0.5-0.3,1.1-0.2,1.4,0.3c0,0.1,0.1,0.2,0.1,0.2
			c0.2,0.5-0.1,1.1-0.6,1.3C71.6,38.1,71.5,38.1,71.4,38.1z M30.5,35.4c-0.2,0-0.4-0.1-0.6-0.2c-0.5-0.3-0.6-0.9-0.3-1.4
			c0-0.1,0.1-0.1,0.1-0.2c0.4-0.4,1-0.4,1.4,0c0.4,0.4,0.4,0.9,0.1,1.3C31.1,35.3,30.8,35.4,30.5,35.4z M69.1,34.9
			c-0.2,0-0.4-0.1-0.6-0.2c-0.1-0.1-0.2-0.2-0.3-0.3c-0.3-0.5-0.2-1.1,0.3-1.4c0.4-0.3,1-0.2,1.3,0.2c0.3,0.3,0.4,0.8,0.1,1.2
			C69.7,34.7,69.4,34.9,69.1,34.9z M33.2,32.5c-0.3,0-0.6-0.2-0.8-0.4c-0.3-0.4-0.2-1,0.2-1.3c0.3-0.3,0.8-0.4,1.2-0.1
			c0.5,0.3,0.6,0.9,0.3,1.4c-0.1,0.1-0.2,0.2-0.3,0.3C33.6,32.4,33.4,32.5,33.2,32.5z M66.2,32c-0.2,0-0.5-0.1-0.7-0.3
			c-0.4-0.3-0.4-0.9-0.2-1.3c0.3-0.5,0.9-0.6,1.4-0.3c0.1,0.1,0.2,0.2,0.3,0.3c0.3,0.5,0.2,1.1-0.3,1.4C66.6,32,66.4,32,66.2,32z
			 M36.4,30c-0.3,0-0.6-0.2-0.8-0.4c-0.3-0.5-0.2-1.1,0.3-1.4l0,0c0.5-0.3,1.1-0.2,1.4,0.3c0.3,0.5,0.2,1.1-0.3,1.4
			C36.8,30,36.6,30,36.4,30z M63,29.7c-0.1,0-0.2,0-0.3-0.1c-0.1,0-0.2-0.1-0.2-0.1c-0.5-0.3-0.6-0.9-0.3-1.4
			c0.3-0.4,0.9-0.6,1.3-0.3c0.4,0.2,0.6,0.7,0.5,1.2C63.8,29.4,63.4,29.7,63,29.7z M39.9,28.1c-0.4,0-0.8-0.3-0.9-0.7
			c-0.2-0.5,0.1-1,0.5-1.2c0.4-0.2,1-0.1,1.2,0.4c0.3,0.5,0.2,1.1-0.3,1.4c-0.1,0-0.2,0.1-0.2,0.1C40.1,28.1,40,28.1,39.9,28.1z
			 M59.4,27.8c-0.1,0-0.3,0-0.4-0.1c-0.5-0.2-0.7-0.7-0.6-1.2c0.2-0.5,0.7-0.8,1.3-0.6c0,0,0.1,0,0.1,0.1c0.5,0.2,0.7,0.8,0.4,1.3
			C60.2,27.6,59.8,27.8,59.4,27.8z M43.7,26.8c-0.4,0-0.8-0.3-1-0.7c-0.2-0.5,0.1-1.1,0.6-1.2c0,0,0.1,0,0.1,0
			c0.5-0.1,1.1,0.2,1.2,0.7c0.1,0.5-0.2,1.1-0.7,1.2C43.9,26.8,43.8,26.8,43.7,26.8z M55.6,26.6c-0.1,0-0.2,0-0.3-0.1
			c-0.5-0.2-0.8-0.7-0.6-1.3c0.2-0.5,0.7-0.8,1.1-0.7c0.5,0.1,0.8,0.5,0.8,1C56.6,26.2,56.2,26.6,55.6,26.6z M47.6,26.1
			c-0.6,0-1-0.4-1-1c0-0.5,0.4-0.9,0.9-1c0.5-0.1,1,0.3,1.1,0.8c0.1,0.5-0.2,1.1-0.7,1.2C47.8,26.1,47.7,26.1,47.6,26.1z M51.7,26.1
			c0,0-0.1,0-0.1,0c-0.5-0.1-0.9-0.5-0.9-1c0-0.6,0.6-1.1,1.3-1c0.5,0.1,0.9,0.7,0.7,1.2C52.5,25.8,52.1,26.1,51.7,26.1z"/>
	</g>
</g>
</svg>
