<?xml version="1.0" encoding="utf-8"?>
<!-- Generator: Adobe Illustrator 26.5.1, SVG Export Plug-In . SVG Version: 6.00 Build 0)  -->
<svg version="1.1" id="Ebene_1" xmlns="http://www.w3.org/2000/svg" xmlns:xlink="http://www.w3.org/1999/xlink" x="0px" y="0px"
	 viewBox="0 0 100 100" style="enable-background:new 0 0 100 100;" xml:space="preserve">
<g>
	<g>
		<path d="M50,101.5L50,101.5c-0.8,0-1.5-0.7-1.5-1.5s0.7-1.5,1.5-1.5c0.3,0,0.5,0.1,0.7,0.2c0.2-0.1,0.5-0.2,0.7-0.2
			c0.8,0,1.5,0.7,1.5,1.5s-0.7,1.5-1.5,1.5h0c-0.3,0-0.5-0.1-0.7-0.2C50.5,101.4,50.3,101.5,50,101.5z M46,101.3c-0.1,0-0.3,0-0.4,0
			c-0.8-0.2-1.3-1-1.1-1.8c0.2-0.7,0.9-1.2,1.6-1.1c0.8,0.1,1.3,0.7,1.3,1.5C47.5,100.7,46.8,101.3,46,101.3z M55.4,101.2
			c-0.7,0-1.3-0.5-1.5-1.1c-0.2-0.8,0.3-1.6,1.1-1.8c0.9-0.2,1.9,0.5,1.9,1.5c0,0.8-0.6,1.4-1.3,1.5
			C55.5,101.2,55.5,101.2,55.4,101.2z M42,100.9c-0.1,0-0.2,0-0.3,0c-0.7-0.1-1.2-0.7-1.2-1.5c0-0.8,0.7-1.5,1.5-1.5
			c0.2,0,0.3,0,0.5,0.1c0.8,0.3,1.2,1.1,0.9,1.9C43.2,100.5,42.6,100.9,42,100.9z M59.4,100.6c-0.8,0-1.5-0.7-1.5-1.5
			c0-0.7,0.5-1.3,1.2-1.5c0.7-0.1,1.5,0.3,1.7,1c0.3,0.8-0.2,1.6-0.9,1.9C59.7,100.6,59.6,100.6,59.4,100.6z M38.1,100.1
			c-0.1,0-0.2,0-0.3,0c-0.7-0.1-1.2-0.7-1.2-1.5c0-0.8,0.7-1.5,1.5-1.5c0.2,0,0.3,0,0.5,0.1c0.8,0.3,1.2,1.1,0.9,1.9
			C39.3,99.7,38.7,100.1,38.1,100.1z M63.3,99.7c-0.7,0-1.3-0.5-1.5-1.1c-0.2-0.8,0.3-1.6,1-1.8c0.8-0.2,1.6,0.2,1.9,1
			c0.3,0.8-0.2,1.6-0.9,1.9c0,0-0.1,0-0.1,0C63.5,99.7,63.4,99.7,63.3,99.7z M34.2,99c-0.1,0-0.3,0-0.4-0.1c-0.8-0.2-1.2-1-1-1.8
			c0.2-0.8,1-1.3,1.8-1.1c0,0,0.1,0,0.1,0c0.8,0.3,1.2,1.1,0.9,1.9C35.5,98.6,34.9,99,34.2,99z M67.1,98.5c-0.5,0-1.1-0.3-1.3-0.8
			c-0.4-0.7-0.1-1.6,0.7-2c0.1,0,0.1-0.1,0.2-0.1c0.8-0.3,1.6,0.2,1.9,0.9c0.3,0.8-0.1,1.6-0.9,1.9C67.5,98.5,67.3,98.5,67.1,98.5z
			 M30.5,97.5c-0.2,0-0.3,0-0.5-0.1c-0.1,0-0.3-0.1-0.4-0.2c-0.7-0.5-0.9-1.4-0.4-2.1c0.4-0.6,1.2-0.8,1.9-0.5
			c0.7,0.3,1,1.1,0.8,1.8C31.7,97.1,31.1,97.5,30.5,97.5z M70.8,97c-0.5,0-1-0.2-1.2-0.7c-0.5-0.7-0.3-1.6,0.4-2.1
			c0.1-0.1,0.2-0.1,0.4-0.2c0.8-0.3,1.6,0.2,1.9,0.9c0.2,0.7-0.1,1.5-0.8,1.8C71.2,96.9,71,97,70.8,97z M26.9,95.8
			c-0.2,0-0.5-0.1-0.7-0.2c-0.6-0.3-1-1.1-0.7-1.8c0.3-0.8,1.1-1.2,1.9-0.9c0.1,0,0.3,0.1,0.4,0.2c0.7,0.5,0.9,1.4,0.4,2.1
			C27.8,95.6,27.3,95.8,26.9,95.8z M74.4,95.1c-0.6,0-1.2-0.4-1.4-1c-0.2-0.7,0.1-1.5,0.7-1.8c0.7-0.4,1.5-0.2,2,0.5
			c0.5,0.7,0.3,1.6-0.4,2.1C75.1,95,75,95,74.9,95.1C74.7,95.1,74.5,95.1,74.4,95.1z M23.4,93.8c-0.2,0-0.5-0.1-0.7-0.2
			c-0.6-0.3-1-1.1-0.7-1.8c0.3-0.8,1.1-1.2,1.9-0.9c0.1,0,0.3,0.1,0.4,0.2c0.7,0.5,0.9,1.4,0.4,2.1C24.3,93.6,23.9,93.8,23.4,93.8z
			 M77.8,93c-0.4,0-0.8-0.1-1.1-0.4c-0.6-0.6-0.6-1.5,0-2.1c0.1-0.1,0.2-0.1,0.2-0.2c0.7-0.5,1.6-0.3,2.1,0.4c0.4,0.7,0.3,1.5-0.3,2
			C78.4,92.9,78.1,93,77.8,93z M20.1,91.5c-0.3,0-0.6-0.1-0.8-0.3c-0.1-0.1-0.2-0.1-0.2-0.2c-0.6-0.6-0.6-1.5,0-2.1
			c0.5-0.5,1.4-0.6,2-0.1c0.6,0.5,0.8,1.4,0.3,2C21,91.3,20.6,91.5,20.1,91.5z M81,90.7c-0.4,0-0.8-0.1-1.1-0.4
			c-0.6-0.6-0.6-1.5,0-2.1c0.1-0.1,0.2-0.1,0.2-0.2c0.7-0.5,1.6-0.3,2.1,0.4c0.4,0.7,0.3,1.5-0.3,2C81.7,90.6,81.4,90.7,81,90.7z
			 M17,89c-0.3,0-0.6-0.1-0.8-0.3c-0.2-0.1-0.3-0.3-0.4-0.4c-0.5-0.7-0.3-1.6,0.4-2.1c0.6-0.4,1.3-0.3,1.8,0.1
			c0.5,0.5,0.7,1.3,0.2,1.9C17.9,88.8,17.5,89,17,89z M84.1,88.1c-0.4,0-0.8-0.1-1.1-0.4c-0.6-0.6-0.6-1.5,0-2.1
			c0.6-0.6,1.5-0.6,2.1,0s0.6,1.5,0,2.1l0,0C84.8,87.9,84.5,88.1,84.1,88.1z M14.1,86.2c-0.4,0-0.8-0.1-1.1-0.4l0,0
			c-0.6-0.6-0.6-1.5,0-2.1s1.5-0.6,2.1,0s0.6,1.5,0,2.1C14.8,86.1,14.5,86.2,14.1,86.2z M86.9,85.2c-0.5,0-1-0.2-1.2-0.7
			c-0.4-0.6-0.3-1.3,0.1-1.8c0.5-0.5,1.3-0.7,1.9-0.2c0.7,0.5,0.9,1.4,0.4,2.1c-0.1,0.2-0.3,0.3-0.4,0.4
			C87.5,85.1,87.2,85.2,86.9,85.2z M11.4,83.3c-0.4,0-0.8-0.2-1.1-0.5c-0.5-0.5-0.5-1.3-0.1-1.8c0.5-0.7,1.4-0.9,2.1-0.4
			c0.2,0.1,0.3,0.3,0.4,0.4c0.5,0.7,0.3,1.6-0.4,2.1C12,83.2,11.7,83.3,11.4,83.3z M89.5,82.2c-0.4,0-0.8-0.1-1.1-0.4
			c-0.5-0.5-0.6-1.4-0.1-2c0.5-0.6,1.4-0.8,2-0.3c0.7,0.5,0.9,1.4,0.4,2.1c-0.1,0.1-0.1,0.2-0.2,0.2C90.2,82,89.9,82.2,89.5,82.2z
			 M9,80.1c-0.5,0-0.9-0.2-1.2-0.6c-0.5-0.6-0.4-1.4,0.1-2c0.6-0.6,1.5-0.6,2.1,0c0.1,0.1,0.1,0.2,0.2,0.2c0.5,0.7,0.3,1.6-0.4,2.1
			C9.6,80,9.3,80.1,9,80.1z M91.8,78.9c-0.3,0-0.6-0.1-0.8-0.3c-0.7-0.5-0.9-1.4-0.4-2.1c0.5-0.7,1.4-0.9,2.1-0.4
			c0.7,0.5,0.9,1.4,0.4,2.1l0,0C92.8,78.7,92.3,78.9,91.8,78.9z M6.8,76.7c-0.5,0-1-0.2-1.2-0.7c-0.1-0.1-0.1-0.2-0.2-0.4
			c-0.3-0.8,0.2-1.6,0.9-1.9c0.7-0.2,1.5,0.1,1.8,0.7c0.4,0.7,0.2,1.5-0.5,2C7.4,76.6,7.1,76.7,6.8,76.7z M93.9,75.5
			c-0.2,0-0.3,0-0.5-0.1c-0.8-0.3-1.2-1.1-0.9-1.9c0-0.1,0.1-0.3,0.2-0.4c0.5-0.7,1.4-0.9,2.1-0.4c0.7,0.4,0.9,1.3,0.5,2
			C94.9,75.2,94.4,75.5,93.9,75.5z M4.9,73.2c-0.6,0-1.1-0.3-1.4-0.9c-0.3-0.7-0.1-1.5,0.5-1.9c0.7-0.5,1.6-0.3,2.1,0.4
			c0.1,0.1,0.1,0.2,0.2,0.4c0.3,0.8-0.2,1.6-0.9,1.9C5.3,73.1,5.1,73.2,4.9,73.2z M95.7,71.9c-0.3,0-0.6-0.1-0.8-0.3
			c-0.6-0.4-0.8-1.2-0.5-1.9c0.3-0.7,1.1-1.1,1.8-0.8c0.8,0.3,1.2,1.1,0.9,1.9c0,0.1-0.1,0.3-0.2,0.4C96.6,71.6,96.1,71.9,95.7,71.9
			z M3.3,69.5c-0.6,0-1.2-0.4-1.4-0.9c-0.3-0.7,0-1.6,0.7-1.9c0.7-0.4,1.6-0.1,2,0.7c0,0.1,0.1,0.1,0.1,0.2c0.3,0.8-0.2,1.6-0.9,1.9
			C3.7,69.5,3.5,69.5,3.3,69.5z M97.2,68.1c-0.1,0-0.2,0-0.4,0c-0.8-0.2-1.3-1-1.1-1.8c0,0,0-0.1,0-0.1c0.3-0.8,1.1-1.2,1.9-0.9
			c0.8,0.3,1.2,1.1,1,1.9C98.4,67.7,97.8,68.1,97.2,68.1z M2,65.7c-0.6,0-1.2-0.4-1.4-1c0,0,0-0.1,0-0.1c-0.2-0.8,0.3-1.6,1.1-1.8
			c0.8-0.2,1.6,0.3,1.8,1c0.2,0.8-0.2,1.6-1,1.9C2.4,65.7,2.2,65.7,2,65.7z M98.3,64.3c-0.1,0-0.2,0-0.4,0c-0.8-0.2-1.3-1-1.1-1.8
			c0,0,0-0.1,0-0.1c0.3-0.8,1.1-1.2,1.9-0.9c0.8,0.3,1.2,1.1,1,1.9C99.6,63.9,99,64.3,98.3,64.3z M1.1,61.8c-0.6,0-1.2-0.4-1.4-1
			c-0.1-0.2-0.1-0.3-0.1-0.5c0-0.8,0.7-1.5,1.5-1.5c0.7,0,1.3,0.5,1.5,1.2c0.1,0.7-0.3,1.5-1,1.7C1.4,61.8,1.2,61.8,1.1,61.8z
			 M99.2,60.4c-0.8,0-1.5-0.7-1.5-1.5c0-0.2,0-0.3,0.1-0.5c0.3-0.8,1.1-1.2,1.9-0.9c0.7,0.2,1.1,1,1,1.7
			C100.6,59.9,99.9,60.4,99.2,60.4z M0.4,57.9c-0.8,0-1.4-0.6-1.5-1.3c-0.1-0.7,0.4-1.4,1.1-1.6c0.8-0.2,1.6,0.3,1.8,1.1
			c0,0.1,0,0.3,0,0.4C1.9,57.2,1.2,57.9,0.4,57.9z M99.8,56.4c-0.1,0-0.2,0-0.4,0c-0.7-0.2-1.2-0.9-1.1-1.6c0.1-0.8,0.7-1.3,1.5-1.3
			l0,0c0.8,0,1.5,0.7,1.5,1.5c0,0.1,0,0.3,0,0.4C101,56,100.4,56.4,99.8,56.4z M0.1,53.9c-0.8,0-1.5-0.7-1.5-1.5v0
			c0-0.8,0.7-1.5,1.5-1.5s1.5,0.7,1.5,1.5S0.9,53.9,0.1,53.9z M100,52.4c-0.8,0-1.5-0.7-1.5-1.5s0.7-1.5,1.5-1.5s1.5,0.7,1.5,1.5v0
			C101.5,51.8,100.8,52.4,100,52.4z M0,49.8c-0.8,0-1.5-0.7-1.5-1.5v0c0-0.8,0.7-1.5,1.5-1.5s1.5,0.7,1.5,1.5S0.9,49.8,0,49.8z
			 M99.9,48.4c-0.7,0-1.3-0.5-1.5-1.1c0-0.1,0-0.3,0-0.4c0-0.8,0.7-1.5,1.5-1.5c0.8,0,1.4,0.6,1.5,1.3c0.1,0.7-0.4,1.4-1.1,1.6
			C100.1,48.4,100,48.4,99.9,48.4z M0.3,45.9c-0.8,0-1.5-0.7-1.5-1.5c0-0.1,0-0.3,0-0.4c0.2-0.8,1-1.3,1.8-1.1
			c0.7,0.2,1.2,0.9,1.1,1.6C1.7,45.3,1.1,45.9,0.3,45.9z M99.5,44.4c-0.7,0-1.3-0.5-1.5-1.1c0-0.1,0-0.3,0-0.4
			c0-0.8,0.7-1.5,1.5-1.5c0.8,0,1.4,0.6,1.5,1.3c0.1,0.7-0.4,1.4-1.1,1.6C99.7,44.4,99.6,44.4,99.5,44.4z M0.9,41.9
			c-0.2,0-0.3,0-0.5-0.1c-0.7-0.2-1.1-1-1-1.7c0.1-0.7,0.7-1.2,1.5-1.2c0.8,0,1.5,0.7,1.5,1.5c0,0.2,0,0.3-0.1,0.5
			C2.1,41.5,1.6,41.9,0.9,41.9z M98.8,40.5c-0.7,0-1.3-0.5-1.5-1.2c-0.1-0.7,0.3-1.5,1-1.7c0.8-0.3,1.6,0.2,1.9,0.9
			c0.1,0.2,0.1,0.3,0.1,0.5C100.3,39.8,99.6,40.5,98.8,40.5z M1.9,38c-0.2,0-0.3,0-0.5-0.1c-0.8-0.3-1.2-1.1-1-1.9
			c0.2-0.8,1-1.2,1.8-1c0.8,0.2,1.3,1,1.1,1.8c0,0,0,0.1,0,0.1C3.1,37.6,2.5,38,1.9,38z M97.7,36.6c-0.7,0-1.2-0.4-1.4-1.1
			c-0.2-0.8,0.2-1.6,1-1.9c0.8-0.3,1.6,0.2,1.9,0.9c0,0,0,0.1,0,0.1c0.2,0.8-0.3,1.6-1.1,1.8C98,36.6,97.9,36.6,97.7,36.6z
			 M3.1,34.2c-0.2,0-0.3,0-0.5-0.1c-0.8-0.3-1.2-1.1-0.9-1.9c0-0.1,0.1-0.1,0.1-0.2c0.4-0.7,1.3-1,2-0.7c0.7,0.4,1,1.2,0.7,1.9
			C4.3,33.8,3.7,34.2,3.1,34.2z M96.4,32.9c-0.5,0-1-0.2-1.2-0.7c-0.1-0.1-0.1-0.2-0.2-0.4c-0.3-0.8,0.2-1.6,0.9-1.9
			c0.7-0.2,1.5,0.1,1.8,0.8c0.3,0.7,0.1,1.5-0.5,1.9C97,32.8,96.7,32.9,96.4,32.9z M4.6,30.5c-0.2,0-0.3,0-0.5-0.1
			c-0.8-0.3-1.2-1.1-0.9-1.9c0-0.1,0.1-0.3,0.2-0.4c0.5-0.7,1.4-0.9,2.1-0.4c0.6,0.4,0.8,1.2,0.5,1.9C5.8,30.1,5.2,30.5,4.6,30.5z
			 M94.8,29.2c-0.5,0-1.1-0.3-1.3-0.8c-0.4-0.7-0.2-1.5,0.5-2c0.7-0.5,1.6-0.3,2.1,0.4c0.1,0.1,0.1,0.2,0.2,0.4
			c0.3,0.8-0.2,1.6-0.9,1.9C95.1,29.2,94.9,29.2,94.8,29.2z M6.5,26.9c-0.3,0-0.6-0.1-0.8-0.3c-0.7-0.4-0.9-1.3-0.5-2
			c0.3-0.6,1.1-1,1.8-0.7c0.8,0.3,1.2,1.1,0.9,1.9c0,0.1-0.1,0.3-0.2,0.4C7.4,26.7,7,26.9,6.5,26.9z M92.8,25.7
			c-0.5,0-1.1-0.3-1.3-0.8c-0.4-0.7-0.2-1.5,0.5-2c0.7-0.5,1.6-0.3,2.1,0.4c0.1,0.1,0.1,0.2,0.2,0.4c0.3,0.8-0.2,1.6-0.9,1.9
			C93.1,25.7,93,25.7,92.8,25.7z M8.6,23.5c-0.3,0-0.6-0.1-0.8-0.3c-0.7-0.5-0.9-1.4-0.4-2.1c0.1-0.1,0.1-0.2,0.2-0.2
			c0.6-0.6,1.5-0.6,2.1,0c0.5,0.5,0.6,1.4,0.1,2C9.5,23.3,9,23.5,8.6,23.5z M90.6,22.4c-0.4,0-0.8-0.1-1.1-0.4
			c-0.1-0.1-0.1-0.2-0.2-0.2c-0.5-0.7-0.3-1.6,0.4-2.1c0.7-0.4,1.5-0.3,2,0.3c0.5,0.6,0.4,1.4-0.1,2C91.4,22.2,91,22.4,90.6,22.4z
			 M11,20.3c-0.3,0-0.6-0.1-0.8-0.3c-0.7-0.5-0.9-1.4-0.4-2.1c0.1-0.1,0.1-0.2,0.2-0.2c0.6-0.6,1.5-0.6,2.1,0c0.5,0.5,0.6,1.4,0.1,2
			C11.9,20.1,11.4,20.3,11,20.3z M88.1,19.2c-0.3,0-0.6-0.1-0.8-0.3c-0.2-0.1-0.3-0.3-0.4-0.4c-0.5-0.7-0.3-1.6,0.4-2.1
			c0.6-0.4,1.5-0.3,1.9,0.2c0.5,0.5,0.5,1.3,0.1,1.8C89.1,19,88.6,19.2,88.1,19.2z M13.6,17.3c-0.4,0-0.8-0.1-1.1-0.4
			c-0.6-0.6-0.6-1.5,0-2.1l0,0c0.6-0.6,1.5-0.6,2.1,0s0.6,1.5,0,2.1C14.4,17.1,14,17.3,13.6,17.3z M85.4,16.2
			c-0.4,0-0.8-0.1-1.1-0.4c-0.6-0.6-0.6-1.5,0-2.1c0.6-0.6,1.5-0.6,2.1,0l0,0c0.6,0.6,0.6,1.5,0,2.1C86.2,16.1,85.8,16.2,85.4,16.2z
			 M16.5,14.5c-0.5,0-1-0.2-1.2-0.7c-0.4-0.6-0.3-1.5,0.2-1.9c0.5-0.5,1.3-0.5,1.8-0.1c0.7,0.5,0.9,1.4,0.4,2.1
			c-0.1,0.2-0.3,0.3-0.4,0.4C17,14.4,16.7,14.5,16.5,14.5z M82.5,13.5c-0.4,0-0.7-0.1-1-0.4c-0.5-0.5-0.7-1.3-0.2-1.9
			c0.5-0.7,1.4-0.9,2.1-0.4c0.2,0.1,0.3,0.3,0.4,0.4c0.5,0.7,0.3,1.6-0.4,2.1C83.1,13.4,82.8,13.5,82.5,13.5z M19.5,11.9
			c-0.5,0-1-0.2-1.2-0.7c-0.4-0.7-0.3-1.5,0.3-2c0.6-0.5,1.4-0.4,2,0.1c0.6,0.6,0.6,1.5,0,2.1c-0.1,0.1-0.2,0.1-0.2,0.2
			C20.1,11.8,19.8,11.9,19.5,11.9z M79.3,11c-0.3,0-0.6-0.1-0.9-0.3c-0.6-0.5-0.8-1.4-0.3-2c0.5-0.7,1.4-0.9,2.1-0.4
			c0.1,0.1,0.2,0.1,0.2,0.2c0.6,0.6,0.6,1.5,0,2.1C80.1,10.9,79.7,11,79.3,11z M22.8,9.6c-0.5,0-1-0.2-1.2-0.7
			c-0.5-0.7-0.3-1.6,0.4-2.1l0,0c0.7-0.5,1.6-0.3,2.1,0.4s0.3,1.6-0.4,2.1C23.4,9.5,23.1,9.6,22.8,9.6z M76,8.8
			c-0.2,0-0.3,0-0.5-0.1c-0.1,0-0.3-0.1-0.4-0.2c-0.7-0.5-0.9-1.4-0.4-2.1c0.4-0.7,1.3-0.9,2-0.5c0.6,0.3,1,1.1,0.7,1.8
			C77.2,8.4,76.6,8.8,76,8.8z M26.2,7.5c-0.5,0-1-0.2-1.2-0.7c-0.5-0.7-0.3-1.6,0.4-2.1c0.1-0.1,0.2-0.1,0.4-0.2
			c0.8-0.3,1.6,0.2,1.9,0.9C27.9,6.2,27.6,7,27,7.3C26.7,7.5,26.5,7.5,26.2,7.5z M72.5,6.9c-0.2,0-0.3,0-0.5-0.1
			c-0.1,0-0.3-0.1-0.4-0.2c-0.7-0.5-0.9-1.4-0.4-2.1c0.4-0.7,1.3-0.9,2-0.5c0.6,0.3,1,1.1,0.7,1.8C73.7,6.5,73.1,6.9,72.5,6.9z
			 M29.8,5.7c-0.6,0-1.2-0.4-1.4-1c-0.2-0.7,0.1-1.5,0.8-1.8c0.7-0.3,1.5-0.1,1.9,0.5c0.5,0.7,0.3,1.6-0.4,2.1
			c-0.1,0.1-0.2,0.1-0.4,0.2C30.2,5.7,30,5.7,29.8,5.7z M68.9,5.2c-0.2,0-0.4,0-0.6-0.1c-0.7-0.3-1.1-1.1-0.9-1.9
			c0.3-0.8,1.1-1.2,1.9-0.9c0.1,0,0.1,0.1,0.2,0.1c0.7,0.4,1,1.3,0.7,2C69.9,4.9,69.4,5.2,68.9,5.2z M33.6,4.3c-0.6,0-1.2-0.4-1.4-1
			c-0.3-0.8,0.2-1.6,0.9-1.9c0,0,0.1,0,0.1,0C34,1.1,34.8,1.6,35,2.4c0.2,0.8-0.3,1.6-1,1.8C33.8,4.3,33.7,4.3,33.6,4.3z M65.1,3.8
			c-0.1,0-0.2,0-0.4,0c0,0-0.1,0-0.1,0c-0.8-0.3-1.2-1.1-0.9-1.9c0.3-0.8,1.1-1.2,1.9-1c0.8,0.2,1.2,1,1,1.8
			C66.4,3.4,65.8,3.8,65.1,3.8z M37.4,3.1c-0.6,0-1.2-0.4-1.4-1c-0.3-0.8,0.2-1.6,0.9-1.9c0,0,0.1,0,0.1,0c0.8-0.2,1.6,0.3,1.8,1.1
			c0.2,0.8-0.3,1.6-1,1.8C37.7,3.1,37.5,3.1,37.4,3.1z M61.2,2.8c-0.2,0-0.3,0-0.5-0.1c-0.8-0.3-1.2-1.1-0.9-1.9
			c0.2-0.7,1-1.1,1.7-1c0.7,0.1,1.2,0.7,1.2,1.5C62.7,2.1,62,2.8,61.2,2.8z M41.3,2.3c-0.6,0-1.2-0.4-1.4-1
			c-0.3-0.8,0.2-1.6,0.9-1.9c0.2-0.1,0.3-0.1,0.5-0.1c0.8,0,1.5,0.7,1.5,1.5c0,0.7-0.5,1.3-1.2,1.5C41.5,2.2,41.4,2.3,41.3,2.3z
			 M57.3,2c-0.1,0-0.1,0-0.2,0c-0.8-0.1-1.3-0.7-1.3-1.5c0-0.8,0.7-1.5,1.5-1.5c0.1,0,0.3,0,0.4,0c0.8,0.2,1.3,1,1.1,1.8
			C58.6,1.6,58,2,57.3,2z M45.3,1.7c-0.8,0-1.5-0.7-1.5-1.5c0-0.8,0.6-1.4,1.3-1.5c0.7-0.1,1.4,0.4,1.6,1.1c0.2,0.8-0.3,1.6-1.1,1.8
			C45.5,1.7,45.4,1.7,45.3,1.7z M53.3,1.6c-0.1,0-0.1,0-0.2,0c-0.8-0.1-1.3-0.7-1.3-1.5c0-0.8,0.7-1.5,1.5-1.5c0.1,0,0.3,0,0.4,0
			c0.8,0.2,1.3,1,1.1,1.8C54.6,1.2,54,1.6,53.3,1.6z M49.3,1.5c-0.8,0-1.5-0.7-1.5-1.5s0.7-1.5,1.5-1.5h0c0.8,0,1.5,0.7,1.5,1.5
			S50.1,1.5,49.3,1.5z"/>
		<path d="M50,93.2L50,93.2c-0.8,0-1.5-0.7-1.5-1.5s0.7-1.5,1.5-1.5c0.2,0,0.4,0,0.6,0.1c0.2-0.1,0.4-0.1,0.6-0.1
			c0.8,0,1.5,0.7,1.5,1.5s-0.7,1.5-1.5,1.5h0c-0.2,0-0.4,0-0.6-0.1C50.4,93.1,50.2,93.2,50,93.2z M46,93c-0.1,0-0.3,0-0.4,0
			c-0.8-0.2-1.3-1-1.1-1.8c0.2-0.7,0.9-1.2,1.6-1.1c0.8,0.1,1.3,0.7,1.3,1.5C47.5,92.3,46.8,93,46,93z M55.2,92.8
			c-0.7,0-1.3-0.5-1.5-1.1c-0.2-0.8,0.3-1.6,1.1-1.8c0.9-0.2,1.9,0.5,1.9,1.5c0,0.8-0.6,1.4-1.3,1.5C55.3,92.8,55.2,92.8,55.2,92.8z
			 M42,92.4c-0.1,0-0.2,0-0.3,0c-0.7-0.1-1.2-0.7-1.2-1.5c0-0.8,0.7-1.5,1.5-1.5c0.2,0,0.3,0,0.5,0.1c0.8,0.3,1.2,1.1,0.9,1.9
			C43.2,92,42.7,92.4,42,92.4z M59.1,92.2c-0.8,0-1.5-0.7-1.5-1.5c0-0.7,0.5-1.3,1.2-1.5c0.7-0.1,1.5,0.3,1.7,1
			c0.3,0.8-0.2,1.6-0.9,1.9C59.5,92.1,59.3,92.2,59.1,92.2z M38.1,91.4c-0.1,0-0.3,0-0.4-0.1c-0.8-0.2-1.2-1-1-1.8
			c0.2-0.8,1-1.3,1.8-1.1c0,0,0.1,0,0.1,0c0.8,0.3,1.2,1.1,0.9,1.9C39.4,91.1,38.8,91.4,38.1,91.4z M63,91.1c-0.7,0-1.3-0.5-1.5-1.1
			c-0.2-0.8,0.3-1.6,1-1.8c0.8-0.2,1.6,0.2,1.9,1c0.3,0.8-0.2,1.6-0.9,1.9c0,0-0.1,0-0.1,0C63.2,91.1,63.1,91.1,63,91.1z M34.4,90.1
			c-0.2,0-0.3,0-0.5-0.1c-0.1,0-0.1-0.1-0.2-0.1c-0.7-0.4-1-1.3-0.7-2c0.4-0.7,1.2-1,1.9-0.7c0.7,0.3,1.1,1.1,0.9,1.9
			C35.6,89.7,35,90.1,34.4,90.1z M66.7,89.7c-0.5,0-1-0.2-1.2-0.7c-0.5-0.7-0.3-1.6,0.4-2.1c0.1-0.1,0.2-0.1,0.4-0.2
			c0.8-0.3,1.6,0.2,1.9,0.9c0.2,0.7-0.1,1.5-0.8,1.8C67.2,89.6,66.9,89.7,66.7,89.7z M30.7,88.4c-0.2,0-0.5-0.1-0.7-0.2
			c-0.6-0.3-1-1.1-0.7-1.8c0.3-0.8,1.1-1.2,1.9-0.9c0.1,0,0.3,0.1,0.4,0.2c0.7,0.5,0.9,1.4,0.4,2.1C31.7,88.2,31.2,88.4,30.7,88.4z
			 M70.3,87.9c-0.6,0-1.2-0.4-1.4-1c-0.2-0.7,0.1-1.5,0.7-1.8c0.7-0.4,1.5-0.2,2,0.5c0.5,0.7,0.3,1.6-0.4,2.1
			c-0.1,0.1-0.2,0.1-0.4,0.2C70.6,87.8,70.5,87.9,70.3,87.9z M27.3,86.4c-0.3,0-0.6-0.1-0.8-0.3l0,0c-0.7-0.5-0.9-1.4-0.4-2.1
			c0.5-0.7,1.4-0.9,2.1-0.4c0.7,0.5,0.9,1.4,0.4,2.1C28.2,86.2,27.7,86.4,27.3,86.4z M73.7,85.7c-0.4,0-0.8-0.1-1.1-0.4
			c-0.6-0.6-0.6-1.5,0-2.1c0.1-0.1,0.2-0.1,0.2-0.2c0.7-0.5,1.6-0.3,2.1,0.4c0.4,0.7,0.3,1.5-0.3,2C74.4,85.6,74,85.7,73.7,85.7z
			 M24,84.1c-0.3,0-0.6-0.1-0.8-0.3c-0.1-0.1-0.2-0.1-0.2-0.2c-0.6-0.6-0.6-1.5,0-2.1c0.5-0.5,1.4-0.6,2-0.1c0.6,0.5,0.8,1.4,0.3,2
			C25,83.8,24.5,84.1,24,84.1z M76.9,83.3c-0.3,0-0.6-0.1-0.8-0.3c-0.7-0.5-0.9-1.4-0.4-2.1c0.1-0.2,0.3-0.3,0.4-0.4
			c0.7-0.5,1.6-0.3,2.1,0.4c0.4,0.6,0.3,1.5-0.2,1.9C77.6,83.2,77.3,83.3,76.9,83.3z M21,81.4c-0.4,0-0.8-0.1-1.1-0.4l0,0
			c-0.6-0.6-0.6-1.5,0-2.1s1.5-0.6,2.1,0s0.6,1.5,0,2.1C21.8,81.3,21.4,81.4,21,81.4z M79.8,80.6c-0.4,0-0.8-0.1-1.1-0.4
			c-0.6-0.6-0.6-1.5,0-2.1c0.6-0.6,1.5-0.6,2.1,0c0.6,0.6,0.6,1.5,0,2.1l0,0C80.6,80.4,80.2,80.6,79.8,80.6z M18.3,78.5
			c-0.4,0-0.8-0.2-1.1-0.5c-0.5-0.5-0.5-1.3-0.1-1.8c0.5-0.7,1.4-0.9,2.1-0.4c0.2,0.1,0.3,0.3,0.4,0.4c0.5,0.7,0.3,1.6-0.4,2.1
			C18.8,78.4,18.6,78.5,18.3,78.5z M82.5,77.6c-0.4,0-0.8-0.1-1.1-0.4c-0.5-0.5-0.6-1.4-0.1-2c0.5-0.6,1.4-0.8,2-0.3
			c0.7,0.5,0.9,1.4,0.4,2.1c-0.1,0.1-0.1,0.2-0.2,0.2C83.3,77.4,82.9,77.6,82.5,77.6z M15.8,75.3c-0.5,0-0.9-0.2-1.2-0.6
			c-0.5-0.6-0.4-1.4,0.1-2c0.6-0.6,1.5-0.6,2.1,0c0.1,0.1,0.1,0.2,0.2,0.2c0.5,0.7,0.3,1.6-0.4,2.1C16.4,75.2,16.1,75.3,15.8,75.3z
			 M84.8,74.3c-0.3,0-0.6-0.1-0.8-0.3c-0.7-0.5-0.9-1.4-0.4-2.1c0.5-0.7,1.4-0.9,2.1-0.4c0.7,0.5,0.9,1.4,0.4,2.1l0,0
			C85.8,74.1,85.3,74.3,84.8,74.3z M13.7,71.9c-0.5,0-1-0.2-1.2-0.7c-0.1-0.1-0.1-0.2-0.2-0.4c-0.3-0.8,0.2-1.6,0.9-1.9
			c0.7-0.2,1.5,0.1,1.8,0.7c0.4,0.7,0.2,1.5-0.5,2C14.3,71.8,14,71.9,13.7,71.9z M86.9,70.9c-0.2,0-0.3,0-0.5-0.1
			c-0.8-0.3-1.2-1.1-0.9-1.9c0-0.1,0.1-0.3,0.2-0.4c0.5-0.7,1.4-0.9,2.1-0.4c0.7,0.4,0.9,1.3,0.5,2C87.9,70.6,87.4,70.9,86.9,70.9z
			 M11.9,68.3c-0.6,0-1.1-0.3-1.4-0.9c-0.3-0.7-0.1-1.5,0.5-1.9c0.7-0.5,1.6-0.3,2.1,0.4c0.1,0.1,0.1,0.2,0.2,0.4
			c0.3,0.8-0.2,1.6-0.9,1.9C12.2,68.3,12,68.3,11.9,68.3z M88.6,67.2c-0.2,0-0.5-0.1-0.7-0.2c-0.7-0.4-1-1.2-0.7-1.9
			c0.3-0.7,1.1-1.1,1.9-0.9c0.8,0.3,1.2,1.1,0.9,1.9c0,0.1-0.1,0.1-0.1,0.2C89.7,66.9,89.1,67.2,88.6,67.2z M10.4,64.6
			c-0.6,0-1.2-0.4-1.4-1c0,0,0-0.1,0-0.1c-0.2-0.8,0.3-1.6,1.1-1.8c0.8-0.2,1.6,0.3,1.8,1c0.2,0.8-0.2,1.6-1,1.9
			C10.8,64.6,10.6,64.6,10.4,64.6z M89.9,63.5c-0.1,0-0.2,0-0.4,0c-0.8-0.2-1.3-1-1.1-1.8c0,0,0-0.1,0-0.1c0.3-0.8,1.1-1.2,1.9-0.9
			c0.8,0.3,1.2,1.1,1,1.9C91.2,63,90.6,63.5,89.9,63.5z M9.4,60.7c-0.6,0-1.2-0.4-1.4-1c-0.1-0.2-0.1-0.3-0.1-0.5
			c0-0.8,0.7-1.5,1.5-1.5c0.7,0,1.3,0.5,1.5,1.2c0.1,0.7-0.3,1.5-1,1.7C9.7,60.7,9.5,60.7,9.4,60.7z M90.9,59.6
			c-0.8,0-1.5-0.7-1.5-1.5c0-0.2,0-0.3,0.1-0.5c0.3-0.8,1.1-1.2,1.9-0.9c0.7,0.2,1.1,1,1,1.7C92.2,59.1,91.6,59.6,90.9,59.6z
			 M8.7,56.8c-0.8,0-1.4-0.6-1.5-1.3c-0.1-0.7,0.4-1.4,1.1-1.6c0.8-0.2,1.6,0.3,1.8,1.1c0,0.1,0,0.3,0,0.4
			C10.2,56.1,9.5,56.8,8.7,56.8z M91.5,55.6c-0.1,0-0.2,0-0.4,0c-0.7-0.2-1.2-0.9-1.1-1.6c0.1-0.8,0.7-1.3,1.5-1.3l0,0
			c0.8,0,1.5,0.7,1.5,1.5c0,0.1,0,0.3,0,0.4C92.8,55.2,92.1,55.6,91.5,55.6z M8.4,52.8c-0.8,0-1.5-0.7-1.5-1.5v0
			c0-0.8,0.7-1.5,1.5-1.5s1.5,0.7,1.5,1.5S9.2,52.8,8.4,52.8z M91.7,51.6c-0.8,0-1.5-0.7-1.5-1.5s0.7-1.5,1.5-1.5s1.5,0.7,1.5,1.5v0
			C93.2,50.9,92.5,51.6,91.7,51.6z M8.4,48.8c-0.8,0-1.5-0.7-1.5-1.5c0-0.1,0-0.3,0-0.4c0.2-0.8,1-1.3,1.8-1.1
			c0.7,0.2,1.2,0.9,1.1,1.6C9.8,48.2,9.2,48.8,8.4,48.8z M91.5,47.6c-0.7,0-1.3-0.5-1.5-1.1c0-0.1,0-0.3,0-0.4
			c0-0.8,0.7-1.5,1.5-1.5c0.8,0,1.4,0.6,1.5,1.3c0.1,0.7-0.4,1.4-1.1,1.6C91.7,47.6,91.6,47.6,91.5,47.6z M8.9,44.8
			c-0.2,0-0.3,0-0.5-0.1c-0.7-0.2-1.1-1-1-1.7c0.1-0.7,0.7-1.2,1.5-1.2c0.8,0,1.5,0.7,1.5,1.5c0,0.2,0,0.3-0.1,0.5
			C10.1,44.4,9.5,44.8,8.9,44.8z M90.9,43.6c-0.7,0-1.3-0.5-1.5-1.2c-0.1-0.7,0.3-1.5,1-1.7c0.8-0.3,1.6,0.2,1.9,0.9
			c0.1,0.2,0.1,0.3,0.1,0.5C92.4,43,91.8,43.6,90.9,43.6z M9.7,40.9c-0.2,0-0.3,0-0.5-0.1c-0.8-0.3-1.2-1.1-1-1.9
			c0.2-0.8,1-1.2,1.8-1c0.8,0.2,1.3,1,1.1,1.8c0,0,0,0.1,0,0.1C10.9,40.5,10.3,40.9,9.7,40.9z M90,39.8c-0.7,0-1.2-0.4-1.4-1.1
			c-0.2-0.8,0.2-1.6,1-1.9c0.8-0.3,1.6,0.2,1.9,0.9c0,0,0,0.1,0,0.1c0.2,0.8-0.3,1.6-1.1,1.8C90.2,39.7,90.1,39.8,90,39.8z
			 M10.9,37.1c-0.2,0-0.3,0-0.5-0.1c-0.8-0.3-1.2-1.1-0.9-1.9c0-0.1,0.1-0.1,0.1-0.2c0.4-0.7,1.3-1,2-0.7c0.7,0.4,1,1.2,0.7,1.9
			C12.1,36.7,11.5,37.1,10.9,37.1z M88.7,36c-0.5,0-1-0.2-1.2-0.7c-0.1-0.1-0.1-0.2-0.2-0.4c-0.3-0.8,0.2-1.6,0.9-1.9
			c0.7-0.2,1.5,0.1,1.8,0.8c0.3,0.7,0.1,1.5-0.5,1.9C89.2,35.9,89,36,88.7,36z M12.5,33.4c-0.2,0-0.3,0-0.5-0.1
			c-0.8-0.3-1.2-1.1-0.9-1.9c0-0.1,0.1-0.3,0.2-0.4c0.5-0.7,1.4-0.9,2.1-0.4c0.6,0.4,0.8,1.2,0.5,1.9C13.6,33,13.1,33.4,12.5,33.4z
			 M87,32.3c-0.5,0-1.1-0.3-1.3-0.8c-0.4-0.7-0.2-1.5,0.5-2c0.7-0.5,1.6-0.3,2.1,0.4c0.1,0.1,0.1,0.2,0.2,0.4
			c0.3,0.8-0.2,1.6-0.9,1.9C87.3,32.3,87.1,32.3,87,32.3z M14.4,29.9c-0.3,0-0.6-0.1-0.8-0.3c-0.7-0.4-0.9-1.3-0.5-2
			c0.3-0.6,1.1-1,1.8-0.7c0.8,0.3,1.2,1.1,0.9,1.9c0,0.1-0.1,0.3-0.2,0.4C15.4,29.6,14.9,29.9,14.4,29.9z M85,28.9
			c-0.5,0-1-0.2-1.2-0.7c-0.5-0.7-0.3-1.6,0.4-2.1c0.7-0.5,1.6-0.3,2.1,0.4l0,0c0.5,0.7,0.3,1.6-0.4,2.1
			C85.5,28.8,85.3,28.9,85,28.9z M16.6,26.5c-0.3,0-0.6-0.1-0.8-0.3c-0.7-0.5-0.9-1.4-0.4-2.1c0.1-0.1,0.1-0.2,0.2-0.2
			c0.6-0.6,1.5-0.6,2.1,0c0.5,0.5,0.6,1.4,0.1,2C17.5,26.3,17.1,26.5,16.6,26.5z M82.6,25.6c-0.4,0-0.8-0.1-1.1-0.4
			c-0.1-0.1-0.1-0.2-0.2-0.2c-0.5-0.7-0.3-1.6,0.4-2.1c0.7-0.4,1.5-0.3,2,0.3c0.5,0.6,0.4,1.4-0.1,2C83.4,25.5,83,25.6,82.6,25.6z
			 M19.2,23.5c-0.3,0-0.6-0.1-0.8-0.3c-0.7-0.5-0.9-1.4-0.4-2.1c0.1-0.2,0.3-0.3,0.4-0.4c0.7-0.5,1.6-0.3,2.1,0.4
			c0.4,0.6,0.3,1.3-0.1,1.8C20,23.3,19.6,23.5,19.2,23.5z M80,22.6c-0.4,0-0.8-0.1-1.1-0.4c-0.6-0.6-0.6-1.5,0-2.1
			c0.6-0.6,1.5-0.6,2.1,0l0,0c0.6,0.6,0.6,1.5,0,2.1C80.8,22.5,80.4,22.6,80,22.6z M22,20.6c-0.5,0-1-0.2-1.2-0.7
			c-0.4-0.6-0.3-1.5,0.2-1.9c0.5-0.5,1.3-0.5,1.8-0.1c0.7,0.5,0.9,1.4,0.4,2.1c-0.1,0.2-0.3,0.3-0.4,0.4
			C22.6,20.5,22.3,20.6,22,20.6z M77.1,19.8c-0.4,0-0.7-0.1-1-0.4c-0.5-0.5-0.7-1.3-0.2-1.9c0.5-0.7,1.4-0.9,2.1-0.4
			c0.2,0.1,0.3,0.3,0.4,0.4c0.5,0.7,0.3,1.6-0.4,2.1C77.6,19.8,77.4,19.8,77.1,19.8z M25.1,18.1c-0.5,0-1-0.2-1.2-0.7
			c-0.4-0.7-0.3-1.5,0.3-2c0.6-0.5,1.4-0.4,2,0.1c0.6,0.6,0.6,1.5,0,2.1c-0.1,0.1-0.2,0.1-0.2,0.2C25.7,18,25.4,18.1,25.1,18.1z
			 M73.9,17.4c-0.3,0-0.6-0.1-0.9-0.3c-0.6-0.5-0.8-1.4-0.3-2c0.5-0.7,1.4-0.9,2.1-0.4c0.1,0.1,0.2,0.1,0.2,0.2
			c0.6,0.6,0.6,1.5,0,2.1C74.7,17.2,74.3,17.4,73.9,17.4z M28.5,15.8c-0.5,0-1-0.2-1.2-0.7c-0.5-0.7-0.3-1.6,0.4-2.1
			c0.1-0.1,0.2-0.1,0.4-0.2c0.8-0.3,1.6,0.2,1.9,0.9c0.2,0.7-0.1,1.5-0.7,1.8C28.9,15.8,28.7,15.8,28.5,15.8z M70.5,15.2
			c-0.2,0-0.3,0-0.5-0.1c-0.1,0-0.3-0.1-0.4-0.2c-0.7-0.5-0.9-1.4-0.4-2.1c0.4-0.7,1.3-0.9,2-0.5c0.6,0.3,1,1.1,0.7,1.8
			C71.7,14.8,71.1,15.2,70.5,15.2z M32,13.9c-0.6,0-1.2-0.4-1.4-1c-0.2-0.7,0.1-1.5,0.8-1.8c0.7-0.3,1.5-0.1,1.9,0.5
			c0.5,0.7,0.3,1.6-0.4,2.1c-0.1,0.1-0.2,0.1-0.4,0.2C32.3,13.9,32.1,13.9,32,13.9z M66.9,13.4c-0.2,0-0.4,0-0.6-0.1
			c-0.7-0.3-1-1.1-0.8-1.8c0.3-0.8,1.1-1.2,1.9-0.9c0.1,0,0.3,0.1,0.4,0.2c0.7,0.5,0.9,1.4,0.4,2.1C67.9,13.2,67.4,13.4,66.9,13.4z
			 M35.7,12.4c-0.6,0-1.2-0.4-1.4-1c-0.3-0.8,0.1-1.6,0.9-1.9c0.7-0.3,1.6,0,1.9,0.7c0.4,0.7,0.1,1.6-0.7,2c-0.1,0-0.1,0.1-0.2,0.1
			C36,12.3,35.8,12.4,35.7,12.4z M63.2,12c-0.1,0-0.2,0-0.4,0c0,0-0.1,0-0.1,0c-0.8-0.3-1.2-1.1-0.9-1.9c0.3-0.8,1.1-1.2,1.9-1
			c0.8,0.2,1.2,1,1,1.8C64.5,11.5,63.9,12,63.2,12z M39.5,11.2c-0.6,0-1.2-0.4-1.4-1c-0.3-0.8,0.2-1.6,0.9-1.9c0,0,0.1,0,0.1,0
			C39.9,8,40.8,8.5,41,9.3c0.2,0.8-0.3,1.6-1,1.8C39.8,11.2,39.6,11.2,39.5,11.2z M59.4,10.9c-0.2,0-0.3,0-0.5-0.1
			c-0.8-0.3-1.2-1.1-0.9-1.9c0.2-0.7,1-1.1,1.7-1c0.7,0.1,1.2,0.7,1.2,1.5C60.9,10.2,60.2,10.9,59.4,10.9z M43.4,10.4
			c-0.6,0-1.2-0.4-1.4-1c-0.3-0.8,0.2-1.6,0.9-1.9c0.2-0.1,0.3-0.1,0.5-0.1c0.8,0,1.5,0.7,1.5,1.5c0,0.7-0.5,1.3-1.2,1.5
			C43.6,10.3,43.5,10.4,43.4,10.4z M55.4,10.2c-0.1,0-0.1,0-0.2,0c-0.8-0.1-1.3-0.7-1.3-1.5c0-0.8,0.7-1.5,1.5-1.5
			c0.1,0,0.3,0,0.4,0c0.8,0.2,1.3,1,1.1,1.8C56.7,9.7,56.1,10.2,55.4,10.2z M47.4,9.9c-0.8,0-1.5-0.7-1.5-1.5c0-0.8,0.6-1.4,1.3-1.5
			C48,6.8,48.7,7.3,48.9,8c0.2,0.8-0.3,1.6-1.1,1.8C47.7,9.9,47.5,9.9,47.4,9.9z M51.4,9.9c-0.8,0-1.5-0.7-1.5-1.5s0.7-1.5,1.5-1.5
			h0c0.8,0,1.5,0.7,1.5,1.5S52.2,9.9,51.4,9.9z"/>
		<path d="M50,84.8L50,84.8c-0.8,0-1.5-0.7-1.5-1.5s0.7-1.5,1.5-1.5c0.2,0,0.3,0,0.5,0.1c0.2-0.1,0.3-0.1,0.5-0.1
			c0.8,0,1.5,0.7,1.5,1.5s-0.7,1.5-1.5,1.5h0c-0.2,0-0.3,0-0.5-0.1C50.3,84.8,50.2,84.8,50,84.8z M46,84.6c-0.1,0-0.3,0-0.4,0
			c-0.8-0.2-1.3-1-1.1-1.8c0.2-0.7,0.9-1.2,1.6-1.1c0.8,0.1,1.3,0.7,1.3,1.5C47.5,83.9,46.8,84.6,46,84.6z M54.9,84.5
			c-0.8,0-1.5-0.7-1.5-1.5c0-0.7,0.5-1.3,1.2-1.5c0.7-0.1,1.5,0.3,1.7,1c0.3,0.8-0.2,1.6-0.9,1.9C55.3,84.4,55.1,84.5,54.9,84.5z
			 M42.1,83.9c-0.1,0-0.2,0-0.3,0c-0.7-0.1-1.2-0.7-1.2-1.5c0-0.8,0.7-1.5,1.5-1.5c0.2,0,0.3,0,0.5,0.1c0.8,0.3,1.2,1.1,0.9,1.9
			C43.3,83.5,42.7,83.9,42.1,83.9z M58.9,83.6c-0.7,0-1.3-0.5-1.5-1.1c-0.2-0.8,0.3-1.6,1-1.8c0.8-0.2,1.6,0.2,1.9,1
			c0.3,0.8-0.2,1.6-0.9,1.9c0,0-0.1,0-0.1,0C59.1,83.6,59,83.6,58.9,83.6z M38.2,82.7c-0.2,0-0.3,0-0.5-0.1c-0.1,0-0.1-0.1-0.2-0.1
			c-0.7-0.4-1-1.3-0.7-2c0.4-0.7,1.2-1,1.9-0.7c0.7,0.3,1.1,1.1,0.9,1.9C39.4,82.3,38.9,82.7,38.2,82.7z M62.6,82.3
			c-0.5,0-1-0.2-1.2-0.7c-0.5-0.7-0.3-1.6,0.4-2.1c0.1-0.1,0.2-0.1,0.4-0.2c0.8-0.3,1.6,0.2,1.9,0.9c0.2,0.7-0.1,1.5-0.8,1.8
			C63.1,82.3,62.9,82.3,62.6,82.3z M34.6,81c-0.2,0-0.5-0.1-0.7-0.2c-0.6-0.3-1-1.1-0.7-1.8c0.3-0.8,1.1-1.2,1.9-0.9
			c0.1,0,0.3,0.1,0.4,0.2c0.7,0.5,0.9,1.4,0.4,2.1C35.5,80.8,35.1,81,34.6,81z M66.2,80.6c-0.6,0-1.2-0.4-1.4-1
			c-0.2-0.7,0.1-1.5,0.7-1.8c0.7-0.4,1.5-0.2,2,0.5c0.5,0.7,0.3,1.6-0.4,2.1c-0.1,0.1-0.2,0.1-0.4,0.2
			C66.6,80.6,66.4,80.6,66.2,80.6z M31.1,79c-0.3,0-0.6-0.1-0.8-0.3c-0.1-0.1-0.2-0.1-0.2-0.2c-0.6-0.6-0.6-1.5,0-2.1
			c0.5-0.5,1.4-0.6,2-0.1c0.6,0.5,0.8,1.4,0.3,2C32.1,78.7,31.6,79,31.1,79z M69.6,78.4c-0.4,0-0.8-0.1-1.1-0.4
			c-0.6-0.6-0.6-1.5,0-2.1c0.1-0.1,0.2-0.1,0.2-0.2c0.7-0.5,1.6-0.3,2.1,0.4c0.4,0.7,0.3,1.5-0.3,2C70.3,78.3,69.9,78.4,69.6,78.4z
			 M28,76.5c-0.3,0-0.6-0.1-0.8-0.3c-0.2-0.1-0.3-0.3-0.4-0.4c-0.5-0.7-0.3-1.6,0.4-2.1c0.6-0.4,1.3-0.3,1.8,0.1
			c0.5,0.5,0.7,1.3,0.2,1.9C28.9,76.3,28.5,76.5,28,76.5z M72.7,75.9c-0.4,0-0.8-0.1-1.1-0.4c-0.6-0.6-0.6-1.5,0-2.1
			c0.6-0.6,1.5-0.6,2.1,0c0.6,0.6,0.6,1.5,0,2.1l0,0C73.5,75.7,73.1,75.9,72.7,75.9z M25.1,73.7c-0.4,0-0.8-0.2-1.1-0.5
			c-0.5-0.5-0.5-1.3-0.1-1.8c0.5-0.7,1.4-0.9,2.1-0.4c0.2,0.1,0.3,0.3,0.4,0.4c0.5,0.7,0.3,1.6-0.4,2.1
			C25.7,73.6,25.4,73.7,25.1,73.7z M75.5,73c-0.5,0-1-0.2-1.2-0.7c-0.4-0.6-0.3-1.3,0.1-1.8c0.5-0.5,1.3-0.7,1.9-0.2
			c0.7,0.5,0.9,1.4,0.4,2.1c-0.1,0.2-0.3,0.3-0.4,0.4C76,72.9,75.8,73,75.5,73z M22.7,70.5c-0.5,0-0.9-0.2-1.2-0.6
			c-0.5-0.6-0.4-1.4,0.1-2c0.6-0.6,1.5-0.6,2.1,0c0.1,0.1,0.1,0.2,0.2,0.2c0.5,0.7,0.3,1.6-0.4,2.1C23.2,70.5,22.9,70.5,22.7,70.5z
			 M77.9,69.8c-0.3,0-0.6-0.1-0.8-0.3c-0.7-0.5-0.9-1.4-0.4-2.1c0.5-0.7,1.4-0.9,2.1-0.4c0.7,0.5,0.9,1.4,0.4,2.1l0,0
			C78.8,69.5,78.4,69.8,77.9,69.8z M20.6,67.1c-0.5,0-1-0.2-1.2-0.7c-0.1-0.1-0.1-0.2-0.2-0.4c-0.3-0.8,0.2-1.6,0.9-1.9
			c0.7-0.2,1.5,0.1,1.8,0.7c0.4,0.7,0.2,1.5-0.5,2C21.1,67,20.8,67.1,20.6,67.1z M79.9,66.3c-0.2,0-0.3,0-0.5-0.1
			c-0.8-0.3-1.2-1.1-0.9-1.9c0-0.1,0.1-0.3,0.2-0.4c0.5-0.7,1.4-0.9,2.1-0.4c0.7,0.4,0.9,1.3,0.5,2C80.9,66,80.4,66.3,79.9,66.3z
			 M18.9,63.5c-0.6,0-1.2-0.4-1.4-0.9c-0.3-0.7,0-1.6,0.7-1.9c0.7-0.4,1.6-0.1,2,0.7c0,0.1,0.1,0.1,0.1,0.2c0.3,0.8-0.2,1.6-0.9,1.9
			C19.2,63.5,19.1,63.5,18.9,63.5z M81.4,62.6c-0.1,0-0.2,0-0.4,0c-0.8-0.2-1.3-1-1.1-1.8c0,0,0-0.1,0-0.1c0.3-0.8,1.1-1.2,1.9-0.9
			c0.8,0.3,1.2,1.1,1,1.9C82.7,62.2,82.1,62.6,81.4,62.6z M17.7,59.7c-0.6,0-1.2-0.4-1.4-1c0,0,0-0.1,0-0.1
			c-0.2-0.8,0.3-1.6,1.1-1.8c0.8-0.2,1.6,0.3,1.8,1c0.2,0.8-0.2,1.6-1,1.9C18,59.6,17.8,59.7,17.7,59.7z M82.5,58.8
			c-0.8,0-1.5-0.7-1.5-1.5c0-0.2,0-0.3,0.1-0.5c0.3-0.8,1.1-1.2,1.9-0.9c0.7,0.2,1.1,1,1,1.7C83.9,58.2,83.3,58.8,82.5,58.8z
			 M16.9,55.7c-0.8,0-1.4-0.6-1.5-1.3c-0.1-0.7,0.4-1.4,1.1-1.6c0.8-0.2,1.6,0.3,1.8,1.1c0,0.1,0,0.3,0,0.4
			C18.4,55.1,17.8,55.7,16.9,55.7z M83.2,54.8c-0.1,0-0.2,0-0.4,0c-0.7-0.2-1.2-0.9-1.1-1.6c0.1-0.8,0.7-1.3,1.5-1.3l0,0
			c0.8,0,1.5,0.7,1.5,1.5c0,0.1,0,0.3,0,0.4C84.5,54.3,83.8,54.8,83.2,54.8z M16.7,51.7c-0.8,0-1.5-0.7-1.5-1.5v0
			c0-0.8,0.7-1.5,1.5-1.5s1.5,0.7,1.5,1.5S17.5,51.7,16.7,51.7z M83.3,50.8c-0.8,0-1.5-0.7-1.5-1.5s0.7-1.5,1.5-1.5s1.5,0.7,1.5,1.5
			v0C84.8,50.1,84.2,50.8,83.3,50.8z M16.9,47.7L16.9,47.7c-0.8,0-1.5-0.7-1.5-1.5c0-0.1,0-0.3,0-0.4c0.2-0.8,1-1.3,1.8-1.1
			c0.7,0.2,1.2,0.9,1.1,1.6C18.3,47.1,17.7,47.7,16.9,47.7z M83,46.8c-0.7,0-1.3-0.5-1.5-1.1c0-0.1,0-0.3,0-0.4
			c0-0.8,0.7-1.5,1.5-1.5c0.8,0,1.4,0.6,1.5,1.3c0.1,0.7-0.4,1.4-1.1,1.6C83.2,46.8,83.1,46.8,83,46.8z M17.6,43.8
			c-0.2,0-0.3,0-0.5-0.1c-0.7-0.2-1.1-1-1-1.7c0.1-0.7,0.7-1.2,1.5-1.2c0.8,0,1.5,0.7,1.5,1.5c0,0.2,0,0.3-0.1,0.5
			C18.8,43.4,18.2,43.8,17.6,43.8z M82.2,42.9c-0.7,0-1.2-0.4-1.4-1.1c-0.2-0.8,0.2-1.6,1-1.9c0.8-0.3,1.6,0.2,1.9,0.9
			c0,0,0,0.1,0,0.1c0.2,0.8-0.3,1.6-1.1,1.8C82.4,42.9,82.3,42.9,82.2,42.9z M18.7,40c-0.2,0-0.3,0-0.5-0.1
			c-0.8-0.3-1.2-1.1-0.9-1.9c0-0.1,0.1-0.1,0.1-0.2c0.4-0.7,1.3-1,2-0.7c0.7,0.4,1,1.2,0.7,1.9C19.9,39.6,19.3,40,18.7,40z
			 M80.9,39.1c-0.5,0-1-0.2-1.2-0.7c-0.1-0.1-0.1-0.2-0.2-0.4c-0.3-0.8,0.2-1.6,0.9-1.9c0.7-0.2,1.5,0.1,1.8,0.8
			c0.3,0.7,0.1,1.5-0.5,1.9C81.5,39,81.2,39.1,80.9,39.1z M20.3,36.3c-0.3,0-0.6-0.1-0.8-0.3c-0.7-0.4-0.9-1.3-0.5-2
			c0.3-0.6,1.1-1,1.8-0.7c0.8,0.3,1.2,1.1,0.9,1.9c0,0.1-0.1,0.3-0.2,0.4C21.3,36.1,20.8,36.3,20.3,36.3z M79.2,35.5
			c-0.5,0-1.1-0.3-1.3-0.8c-0.4-0.7-0.2-1.5,0.5-2c0.7-0.5,1.6-0.3,2.1,0.4c0.1,0.1,0.1,0.2,0.2,0.4c0.3,0.8-0.2,1.6-0.9,1.9
			C79.5,35.4,79.4,35.5,79.2,35.5z M22.4,32.8c-0.3,0-0.6-0.1-0.8-0.3c-0.7-0.5-0.9-1.4-0.4-2.1c0.1-0.1,0.1-0.2,0.2-0.2
			c0.6-0.6,1.5-0.6,2.1,0c0.5,0.5,0.6,1.4,0.1,2C23.3,32.6,22.8,32.8,22.4,32.8z M77.1,32.1c-0.4,0-0.8-0.1-1.1-0.4
			c-0.1-0.1-0.1-0.2-0.2-0.2c-0.5-0.7-0.3-1.6,0.4-2.1c0.7-0.4,1.5-0.3,2,0.3c0.5,0.6,0.4,1.4-0.1,2C77.8,31.9,77.5,32.1,77.1,32.1z
			 M24.8,29.7c-0.3,0-0.6-0.1-0.8-0.3c-0.7-0.5-0.9-1.4-0.4-2.1c0.1-0.2,0.3-0.3,0.4-0.4c0.7-0.5,1.6-0.3,2.1,0.4
			c0.4,0.6,0.3,1.3-0.1,1.8C25.7,29.5,25.2,29.7,24.8,29.7z M74.5,29c-0.3,0-0.6-0.1-0.8-0.3c-0.2-0.1-0.3-0.3-0.4-0.4
			c-0.5-0.7-0.3-1.6,0.4-2.1c0.6-0.4,1.5-0.3,1.9,0.2c0.5,0.5,0.5,1.3,0.1,1.8C75.5,28.7,75,29,74.5,29z M27.6,26.8
			c-0.5,0-1-0.2-1.2-0.7c-0.4-0.6-0.3-1.5,0.2-1.9c0.5-0.5,1.3-0.5,1.8-0.1c0.7,0.5,0.9,1.4,0.4,2.1c-0.1,0.2-0.3,0.3-0.4,0.4
			C28.2,26.7,27.9,26.8,27.6,26.8z M71.7,26.2c-0.4,0-0.7-0.1-1-0.4c-0.5-0.5-0.7-1.3-0.2-1.9c0.5-0.7,1.4-0.9,2.1-0.4
			c0.2,0.1,0.3,0.3,0.4,0.4c0.5,0.7,0.3,1.6-0.4,2.1C72.2,26.1,71.9,26.2,71.7,26.2z M30.8,24.3c-0.5,0-1-0.2-1.2-0.7
			c-0.4-0.7-0.3-1.5,0.3-2c0.6-0.5,1.4-0.4,2,0.1c0.6,0.6,0.6,1.5,0,2.1c-0.1,0.1-0.2,0.1-0.2,0.2C31.3,24.2,31,24.3,30.8,24.3z
			 M68.5,23.8c-0.3,0-0.6-0.1-0.8-0.3c-0.7-0.5-0.9-1.4-0.4-2.1c0.5-0.7,1.4-0.9,2.1-0.4l0,0c0.7,0.5,0.9,1.4,0.4,2.1
			C69.4,23.5,69,23.8,68.5,23.8z M34.2,22.2c-0.5,0-1-0.2-1.2-0.7c-0.5-0.7-0.3-1.6,0.4-2.1c0.1-0.1,0.2-0.1,0.4-0.2
			c0.8-0.3,1.6,0.2,1.9,0.9c0.2,0.7-0.1,1.5-0.7,1.8C34.6,22.1,34.4,22.2,34.2,22.2z M65,21.7c-0.2,0-0.3,0-0.5-0.1
			c-0.1,0-0.3-0.1-0.4-0.2c-0.7-0.5-0.9-1.4-0.4-2.1c0.4-0.7,1.3-0.9,2-0.5c0.6,0.3,1,1.1,0.7,1.8C66.2,21.3,65.6,21.7,65,21.7z
			 M37.8,20.5c-0.6,0-1.2-0.4-1.4-1c-0.3-0.8,0.1-1.6,0.9-1.9c0.7-0.3,1.6,0,1.9,0.7c0.4,0.7,0.1,1.6-0.7,2c-0.1,0-0.1,0.1-0.2,0.1
			C38.1,20.5,37.9,20.5,37.8,20.5z M61.3,20.1c-0.2,0-0.4,0-0.6-0.1c-0.7-0.3-1.1-1.1-0.9-1.9c0.3-0.8,1.1-1.2,1.9-0.9
			c0.1,0,0.1,0.1,0.2,0.1c0.7,0.4,1,1.3,0.7,2C62.4,19.8,61.9,20.1,61.3,20.1z M41.6,19.2c-0.6,0-1.2-0.4-1.4-1
			c-0.3-0.8,0.2-1.6,0.9-1.9c0,0,0.1,0,0.1,0c0.8-0.2,1.6,0.3,1.8,1.1c0.2,0.8-0.3,1.6-1,1.8C41.9,19.2,41.7,19.2,41.6,19.2z
			 M57.5,19c-0.2,0-0.3,0-0.5-0.1c-0.8-0.3-1.2-1.1-0.9-1.9c0.2-0.7,1-1.1,1.7-1c0.7,0.1,1.2,0.7,1.2,1.5C59,18.3,58.3,19,57.5,19z
			 M45.5,18.5c-0.8,0-1.5-0.7-1.5-1.5c0-0.8,0.6-1.4,1.3-1.5c0.7-0.1,1.4,0.4,1.6,1.1c0.2,0.8-0.3,1.6-1.1,1.8
			C45.8,18.4,45.7,18.5,45.5,18.5z M53.5,18.4c-0.1,0-0.1,0-0.2,0c-0.8-0.1-1.3-0.7-1.3-1.5c0-0.8,0.7-1.5,1.5-1.5
			c0.1,0,0.3,0,0.4,0c0.8,0.2,1.3,1,1.1,1.8C54.8,17.9,54.2,18.4,53.5,18.4z M49.5,18.2c-0.8,0-1.5-0.7-1.5-1.5s0.7-1.5,1.5-1.5h0
			c0.8,0,1.5,0.7,1.5,1.5S50.4,18.2,49.5,18.2z"/>
		<path d="M50,76.5L50,76.5c-0.8,0-1.5-0.7-1.5-1.5s0.7-1.5,1.5-1.5c0.1,0,0.2,0,0.3,0c0.1,0,0.2,0,0.4,0c0.8,0,1.5,0.7,1.5,1.5
			s-0.7,1.5-1.5,1.5h0c-0.1,0-0.2,0-0.3,0C50.3,76.5,50.1,76.5,50,76.5z M46,76.2c-0.1,0-0.2,0-0.3,0c-0.7-0.1-1.2-0.7-1.2-1.5
			c0-0.8,0.7-1.5,1.5-1.5c0.2,0,0.3,0,0.5,0.1c0.8,0.3,1.2,1.1,0.9,1.9C47.2,75.8,46.6,76.2,46,76.2z M54.7,76.1
			c-0.8,0-1.5-0.7-1.5-1.5c0-0.7,0.5-1.3,1.2-1.5c0.7-0.1,1.5,0.3,1.7,1c0.3,0.8-0.2,1.6-0.9,1.9C55,76,54.8,76.1,54.7,76.1z
			 M42.1,75.2c-0.1,0-0.3,0-0.4-0.1c-0.8-0.2-1.2-1-1-1.8c0.2-0.8,1-1.3,1.8-1.1c0,0,0.1,0,0.1,0c0.8,0.3,1.2,1.1,0.9,1.9
			C43.3,74.8,42.7,75.2,42.1,75.2z M58.5,75c-0.5,0-1.1-0.3-1.3-0.8c-0.4-0.7-0.1-1.6,0.7-2c0.1,0,0.1-0.1,0.2-0.1
			c0.8-0.3,1.6,0.2,1.9,0.9c0.3,0.8-0.1,1.6-0.9,1.9C58.9,75,58.7,75,58.5,75z M38.4,73.7c-0.2,0-0.5-0.1-0.7-0.2
			c-0.6-0.3-1-1.1-0.7-1.8c0.3-0.8,1.1-1.2,1.9-0.9c0.1,0,0.3,0.1,0.4,0.2c0.7,0.5,0.9,1.4,0.4,2.1C39.4,73.4,38.9,73.7,38.4,73.7z
			 M62.2,73.3c-0.6,0-1.2-0.4-1.4-1c-0.2-0.7,0.1-1.5,0.7-1.8c0.7-0.4,1.5-0.2,2,0.5c0.5,0.7,0.3,1.6-0.4,2.1
			c-0.1,0.1-0.2,0.1-0.4,0.2C62.5,73.3,62.3,73.3,62.2,73.3z M35,71.5c-0.3,0-0.6-0.1-0.8-0.3c-0.1-0.1-0.2-0.1-0.2-0.2
			c-0.6-0.6-0.6-1.5,0-2.1c0.5-0.5,1.4-0.6,2-0.1c0.6,0.5,0.8,1.4,0.3,2C36,71.3,35.5,71.5,35,71.5z M65.5,71.1
			c-0.4,0-0.8-0.1-1.1-0.4c-0.6-0.6-0.6-1.5,0-2.1c0.1-0.1,0.2-0.1,0.2-0.2c0.7-0.5,1.6-0.3,2.1,0.4c0.4,0.7,0.3,1.5-0.3,2
			C66.2,71,65.8,71.1,65.5,71.1z M32,68.9c-0.4,0-0.8-0.1-1.1-0.4l0,0c-0.6-0.6-0.6-1.5,0-2.1s1.5-0.6,2.1,0s0.6,1.5,0,2.1
			C32.8,68.7,32.4,68.9,32,68.9z M68.4,68.4c-0.5,0-1-0.2-1.2-0.7c-0.4-0.6-0.3-1.3,0.1-1.8c0.5-0.5,1.3-0.7,1.9-0.2
			c0.7,0.5,0.9,1.4,0.4,2.1c-0.1,0.2-0.3,0.3-0.4,0.4C69,68.3,68.7,68.4,68.4,68.4z M29.5,65.8c-0.5,0-0.9-0.2-1.2-0.6
			c-0.5-0.6-0.4-1.4,0.1-2c0.6-0.6,1.5-0.6,2.1,0c0.1,0.1,0.1,0.2,0.2,0.2c0.5,0.7,0.3,1.6-0.4,2.1C30.1,65.7,29.8,65.8,29.5,65.8z
			 M70.9,65.2c-0.3,0-0.6-0.1-0.8-0.3c-0.7-0.5-0.9-1.4-0.4-2.1c0.5-0.7,1.4-0.9,2.1-0.4c0.7,0.5,0.9,1.4,0.4,2.1l0,0
			C71.9,65,71.4,65.2,70.9,65.2z M27.5,62.3c-0.6,0-1.1-0.3-1.4-0.9c-0.3-0.7-0.1-1.5,0.5-1.9c0.7-0.5,1.6-0.3,2.1,0.4
			c0.1,0.1,0.1,0.2,0.2,0.4c0.3,0.8-0.2,1.6-0.9,1.9C27.8,62.3,27.6,62.3,27.5,62.3z M72.8,61.7c-0.3,0-0.6-0.1-0.8-0.3
			c-0.6-0.4-0.8-1.2-0.5-1.9c0.3-0.7,1.1-1.1,1.8-0.8c0.8,0.3,1.2,1.1,0.9,1.9c0,0.1-0.1,0.3-0.2,0.4C73.8,61.5,73.3,61.7,72.8,61.7
			z M26,58.6c-0.6,0-1.2-0.4-1.4-1c0,0,0-0.1,0-0.1c-0.2-0.8,0.3-1.6,1.1-1.8c0.8-0.2,1.6,0.3,1.8,1c0.2,0.8-0.2,1.6-1,1.9
			C26.3,58.6,26.2,58.6,26,58.6z M74.2,57.9c-0.1,0-0.2,0-0.4,0c-0.8-0.2-1.3-1-1.1-1.8c0,0,0-0.1,0-0.1c0.3-0.8,1.1-1.2,1.9-0.9
			c0.8,0.3,1.2,1.1,1,1.9C75.4,57.5,74.8,57.9,74.2,57.9z M25.2,54.7c-0.8,0-1.4-0.6-1.5-1.3c-0.1-0.7,0.4-1.4,1.1-1.6
			c0.8-0.2,1.6,0.3,1.8,1.1c0,0.1,0,0.3,0,0.4C26.7,54,26,54.7,25.2,54.7z M74.9,54c-0.1,0-0.2,0-0.4,0c-0.7-0.2-1.2-0.9-1.1-1.6
			c0.1-0.8,0.7-1.3,1.5-1.3l0,0c0.8,0,1.5,0.7,1.5,1.5c0,0.1,0,0.3,0,0.4C76.2,53.5,75.6,54,74.9,54z M25,50.7
			c-0.8,0-1.5-0.7-1.5-1.5v0c0-0.8,0.7-1.5,1.5-1.5s1.5,0.7,1.5,1.5S25.8,50.7,25,50.7z M75,50c-0.7,0-1.3-0.5-1.5-1.1
			c0-0.1,0-0.3,0-0.4c0-0.8,0.7-1.5,1.5-1.5c0.8,0,1.4,0.6,1.5,1.3c0.1,0.7-0.4,1.4-1.1,1.6C75.2,50,75.1,50,75,50z M25.5,46.7
			c-0.2,0-0.3,0-0.5-0.1c-0.7-0.2-1.1-1-1-1.7c0.1-0.7,0.7-1.2,1.5-1.2c0.8,0,1.5,0.7,1.5,1.5c0,0.2,0,0.3-0.1,0.5
			C26.7,46.3,26.1,46.7,25.5,46.7z M74.4,46c-0.7,0-1.3-0.5-1.5-1.2c-0.1-0.7,0.3-1.5,1-1.7c0.8-0.3,1.6,0.2,1.9,0.9
			c0.1,0.2,0.1,0.3,0.1,0.5C75.9,45.3,75.2,46,74.4,46z M26.5,42.8c-0.2,0-0.3,0-0.5-0.1c-0.8-0.3-1.2-1.1-0.9-1.9
			c0-0.1,0.1-0.1,0.1-0.2c0.4-0.7,1.3-1,2-0.7c0.7,0.4,1,1.2,0.7,1.9C27.7,42.5,27.1,42.8,26.5,42.8z M73.2,42.2
			c-0.5,0-1-0.2-1.2-0.7c-0.1-0.1-0.1-0.2-0.2-0.4c-0.3-0.8,0.2-1.6,0.9-1.9c0.7-0.2,1.5,0.1,1.8,0.8c0.3,0.7,0.1,1.5-0.5,1.9
			C73.8,42.1,73.5,42.2,73.2,42.2z M28.2,39.2c-0.3,0-0.6-0.1-0.8-0.3c-0.7-0.4-0.9-1.3-0.5-2c0.3-0.6,1.1-1,1.8-0.7
			c0.8,0.3,1.2,1.1,0.9,1.9c0,0.1-0.1,0.3-0.2,0.4C29.2,39,28.7,39.2,28.2,39.2z M71.4,38.6c-0.5,0-1.1-0.3-1.3-0.8
			c-0.4-0.7-0.2-1.5,0.5-2c0.7-0.5,1.6-0.3,2.1,0.4c0.1,0.1,0.1,0.2,0.2,0.4c0.3,0.8-0.2,1.6-0.9,1.9C71.7,38.6,71.6,38.6,71.4,38.6
			z M30.5,35.9c-0.3,0-0.6-0.1-0.8-0.3c-0.7-0.5-0.9-1.4-0.4-2.1c0.1-0.1,0.1-0.2,0.2-0.2c0.6-0.6,1.5-0.6,2.1,0
			c0.5,0.5,0.6,1.4,0.1,2C31.4,35.7,30.9,35.9,30.5,35.9z M69.1,35.4c-0.3,0-0.6-0.1-0.8-0.3c-0.2-0.1-0.3-0.3-0.4-0.4
			c-0.5-0.7-0.3-1.6,0.4-2.1c0.6-0.4,1.5-0.3,1.9,0.2c0.5,0.5,0.5,1.3,0.1,1.8C70,35.1,69.6,35.4,69.1,35.4z M33.2,33
			c-0.5,0-1-0.2-1.2-0.7c-0.4-0.6-0.3-1.5,0.2-1.9c0.5-0.5,1.3-0.5,1.8-0.1c0.7,0.5,0.9,1.4,0.4,2.1c-0.1,0.2-0.3,0.3-0.4,0.4
			C33.8,32.9,33.5,33,33.2,33z M66.2,32.5c-0.4,0-0.7-0.1-1-0.4c-0.5-0.5-0.7-1.3-0.2-1.9c0.5-0.7,1.4-0.9,2.1-0.4
			c0.2,0.1,0.3,0.3,0.4,0.4c0.5,0.7,0.3,1.6-0.4,2.1C66.8,32.4,66.5,32.5,66.2,32.5z M36.4,30.5c-0.5,0-1-0.2-1.2-0.7
			c-0.5-0.7-0.3-1.6,0.4-2.1l0,0c0.7-0.5,1.6-0.3,2.1,0.4c0.5,0.7,0.3,1.6-0.4,2.1C37,30.4,36.7,30.5,36.4,30.5z M63,30.2
			c-0.2,0-0.3,0-0.5-0.1c-0.1,0-0.3-0.1-0.4-0.2c-0.7-0.5-0.9-1.4-0.4-2.1c0.4-0.7,1.3-0.9,2-0.5c0.6,0.3,1,1.1,0.7,1.8
			C64.2,29.8,63.6,30.2,63,30.2z M39.9,28.6c-0.6,0-1.2-0.4-1.4-1c-0.2-0.7,0.1-1.5,0.8-1.8c0.7-0.3,1.5-0.1,1.9,0.5
			c0.5,0.7,0.3,1.6-0.4,2.1c-0.1,0.1-0.2,0.1-0.4,0.2C40.2,28.6,40.1,28.6,39.9,28.6z M59.4,28.3c-0.2,0-0.4,0-0.6-0.1
			c-0.7-0.3-1.1-1.1-0.9-1.9c0.3-0.8,1.1-1.2,1.9-0.9c0.1,0,0.1,0.1,0.2,0.1c0.7,0.4,1,1.3,0.7,2C60.5,28,60,28.3,59.4,28.3z
			 M43.7,27.3c-0.6,0-1.2-0.4-1.4-1c-0.3-0.8,0.2-1.6,0.9-1.9c0,0,0.1,0,0.1,0c0.8-0.2,1.6,0.3,1.8,1.1c0.2,0.8-0.3,1.6-1,1.8
			C44,27.3,43.8,27.3,43.7,27.3z M55.6,27.1c-0.2,0-0.3,0-0.5-0.1c-0.8-0.3-1.2-1.1-0.9-1.9c0.2-0.7,1-1.1,1.7-1
			c0.7,0.1,1.2,0.7,1.2,1.5C57.1,26.5,56.4,27.1,55.6,27.1z M47.6,26.6c-0.8,0-1.5-0.7-1.5-1.5c0-0.8,0.6-1.4,1.3-1.5
			c0.7-0.1,1.4,0.4,1.6,1.1c0.2,0.8-0.3,1.6-1.1,1.8C47.9,26.6,47.8,26.6,47.6,26.6z M51.7,26.6c-0.1,0-0.1,0-0.2,0
			c-0.8-0.1-1.3-0.7-1.3-1.5c0-0.8,0.7-1.5,1.5-1.5c0.1,0,0.3,0,0.4,0c0.8,0.2,1.3,1,1.1,1.8C52.9,26.1,52.3,26.6,51.7,26.6z"/>
		<path d="M48.1,68.1c-0.1,0-0.3,0-0.4,0c-0.8-0.2-1.3-1-1.1-1.8c0.2-0.7,0.9-1.2,1.6-1.1c0.8,0.1,1.3,0.7,1.3,1.5
			C49.6,67.4,49,68.1,48.1,68.1z M52.1,68c-0.7,0-1.3-0.5-1.5-1.1c-0.2-0.8,0.3-1.6,1.1-1.8c0.9-0.2,1.9,0.5,1.9,1.5
			c0,0.8-0.6,1.4-1.3,1.5C52.2,68,52.2,68,52.1,68z M44.2,67.1c-0.2,0-0.3,0-0.5-0.1c-0.1,0-0.1-0.1-0.2-0.1c-0.7-0.4-1-1.3-0.7-2
			c0.4-0.7,1.2-1,1.9-0.7c0.7,0.3,1.1,1.1,0.9,1.9C45.4,66.7,44.9,67.1,44.2,67.1z M56,67.1c-0.5,0-1.1-0.3-1.3-0.8
			c-0.4-0.7-0.1-1.6,0.7-2c0.1,0,0.1-0.1,0.2-0.1c0.8-0.3,1.6,0.2,1.9,0.9c0.3,0.8-0.1,1.6-0.9,1.9C56.4,67,56.2,67.1,56,67.1z
			 M40.7,65.3c-0.3,0-0.6-0.1-0.8-0.3c-0.1-0.1-0.2-0.1-0.2-0.2c-0.6-0.6-0.6-1.5,0-2.1c0.5-0.5,1.4-0.6,2-0.1
			c0.6,0.5,0.8,1.4,0.3,2C41.6,65.1,41.2,65.3,40.7,65.3z M59.5,65.2c-0.4,0-0.8-0.1-1.1-0.4c-0.6-0.6-0.6-1.5,0-2.1
			c0.1-0.1,0.2-0.1,0.2-0.2c0.7-0.5,1.6-0.3,2.1,0.4c0.4,0.7,0.3,1.5-0.3,2C60.2,65.1,59.8,65.2,59.5,65.2z M37.7,62.7
			c-0.4,0-0.8-0.2-1.1-0.5c-0.5-0.5-0.5-1.3-0.1-1.8c0.5-0.7,1.4-0.9,2.1-0.4c0.2,0.1,0.3,0.3,0.4,0.4c0.5,0.7,0.3,1.6-0.4,2.1
			C38.2,62.6,37.9,62.7,37.7,62.7z M62.5,62.5c-0.5,0-1-0.2-1.2-0.7c-0.4-0.6-0.3-1.3,0.1-1.8c0.5-0.5,1.3-0.7,1.9-0.2
			c0.7,0.5,0.9,1.4,0.4,2.1c-0.1,0.2-0.3,0.3-0.4,0.4C63.1,62.4,62.8,62.5,62.5,62.5z M35.3,59.4c-0.5,0-1-0.2-1.2-0.7
			c-0.1-0.1-0.1-0.2-0.2-0.4c-0.3-0.8,0.2-1.6,0.9-1.9c0.7-0.2,1.5,0.1,1.8,0.7c0.4,0.7,0.2,1.5-0.5,2
			C35.9,59.4,35.6,59.4,35.3,59.4z M64.8,59.2c-0.2,0-0.3,0-0.5-0.1c-0.8-0.3-1.2-1.1-0.9-1.9c0-0.1,0.1-0.3,0.2-0.4
			c0.5-0.7,1.4-0.9,2.1-0.4c0.7,0.4,0.9,1.3,0.5,2C65.8,58.9,65.3,59.2,64.8,59.2z M33.9,55.7c-0.6,0-1.2-0.4-1.4-1c0,0,0-0.1,0-0.1
			c-0.2-0.8,0.3-1.6,1.1-1.8c0.8-0.2,1.6,0.3,1.8,1c0.2,0.8-0.2,1.6-1,1.9C34.2,55.7,34,55.7,33.9,55.7z M66.2,55.5
			c-0.8,0-1.5-0.7-1.5-1.5c0-0.2,0-0.3,0.1-0.5c0.3-0.8,1.1-1.2,1.9-0.9c0.7,0.2,1.1,1,1,1.7C67.5,55,66.9,55.5,66.2,55.5z
			 M33.3,51.7c-0.8,0-1.5-0.7-1.5-1.5v0c0-0.8,0.7-1.5,1.5-1.5s1.5,0.7,1.5,1.5S34.2,51.7,33.3,51.7z M66.7,51.5
			c-0.8,0-1.5-0.7-1.5-1.5c0-0.1,0-0.2,0-0.2c0-0.1,0-0.2,0-0.3c0-0.8,0.7-1.5,1.5-1.5s1.5,0.7,1.5,1.5v0c0,0.1,0,0.1,0,0.2
			c0,0.1,0,0.2,0,0.3v0C68.2,50.8,67.5,51.5,66.7,51.5z M33.8,47.8c-0.2,0-0.3,0-0.5-0.1c-0.7-0.2-1.1-1-1-1.7
			c0.1-0.7,0.7-1.2,1.5-1.2c0.8,0,1.5,0.7,1.5,1.5c0,0.2,0,0.3-0.1,0.5C35,47.4,34.4,47.8,33.8,47.8z M66.1,47.1
			c-0.7,0-1.2-0.4-1.4-1.1c-0.2-0.8,0.2-1.6,1-1.9c0.8-0.3,1.6,0.2,1.9,0.9c0,0,0,0.1,0,0.1c0.2,0.8-0.3,1.6-1.1,1.8
			C66.3,47,66.2,47.1,66.1,47.1z M35.1,44c-0.3,0-0.6-0.1-0.8-0.3c-0.7-0.4-0.9-1.3-0.5-2c0.3-0.6,1.1-1,1.8-0.7
			c0.8,0.3,1.2,1.1,0.9,1.9c0,0.1-0.1,0.3-0.2,0.4C36.1,43.8,35.6,44,35.1,44z M64.5,43.4c-0.5,0-1.1-0.3-1.3-0.8
			c-0.4-0.7-0.2-1.5,0.5-2c0.7-0.5,1.6-0.3,2.1,0.4c0.1,0.1,0.1,0.2,0.2,0.4c0.3,0.8-0.2,1.6-0.9,1.9C64.9,43.3,64.7,43.4,64.5,43.4
			z M37.3,40.7c-0.3,0-0.6-0.1-0.8-0.3c-0.7-0.5-0.9-1.4-0.4-2.1c0.1-0.2,0.3-0.3,0.4-0.4c0.7-0.5,1.6-0.3,2.1,0.4
			c0.4,0.6,0.3,1.3-0.1,1.8C38.1,40.5,37.7,40.7,37.3,40.7z M62.2,40.1c-0.4,0-0.8-0.1-1.1-0.4c-0.6-0.6-0.6-1.5,0-2.1
			c0.6-0.6,1.5-0.6,2.1,0l0,0c0.6,0.6,0.6,1.5,0,2.1C63,40,62.6,40.1,62.2,40.1z M40.3,38c-0.5,0-1-0.2-1.2-0.7
			c-0.4-0.7-0.3-1.5,0.3-2c0.6-0.5,1.4-0.4,2,0.1c0.6,0.6,0.6,1.5,0,2.1c-0.1,0.1-0.2,0.1-0.2,0.2C40.8,37.9,40.6,38,40.3,38z
			 M59.1,37.6c-0.3,0-0.6-0.1-0.8-0.3c-0.7-0.5-0.9-1.4-0.4-2.1c0.5-0.7,1.4-0.9,2.1-0.4l0,0c0.7,0.5,0.9,1.4,0.4,2.1
			C60.1,37.3,59.6,37.6,59.1,37.6z M43.8,36c-0.6,0-1.2-0.4-1.4-1c-0.2-0.7,0.1-1.5,0.8-1.8c0.7-0.3,1.5-0.1,1.9,0.5
			c0.5,0.7,0.3,1.6-0.4,2.1c-0.1,0.1-0.2,0.1-0.4,0.2C44.1,36,43.9,36,43.8,36z M55.5,35.8c-0.1,0-0.2,0-0.4,0c0,0-0.1,0-0.1,0
			c-0.8-0.3-1.2-1.1-0.9-1.9c0.3-0.8,1.1-1.2,1.9-1c0.8,0.2,1.2,1,1,1.8C56.8,35.3,56.2,35.8,55.5,35.8z M47.6,35
			c-0.8,0-1.5-0.7-1.5-1.5c0-0.8,0.6-1.4,1.3-1.5c0.7-0.1,1.4,0.4,1.6,1.1c0.2,0.8-0.3,1.6-1.1,1.8C47.9,35,47.7,35,47.6,35z
			 M51.6,34.9c-0.1,0-0.1,0-0.2,0c-0.8-0.1-1.3-0.7-1.3-1.5c0-0.8,0.7-1.5,1.5-1.5c0.1,0,0.3,0,0.4,0c0.8,0.2,1.3,1,1.1,1.8
			C52.9,34.5,52.3,34.9,51.6,34.9z"/>
		<path d="M50,59.8L50,59.8c-0.8,0-1.5-0.7-1.5-1.5c0-0.9,0.7-1.5,1.6-1.5c0.8-0.1,1.6,0.6,1.6,1.5c0,0.8-0.7,1.5-1.5,1.5h0
			c0,0-0.1,0-0.1,0C50.1,59.8,50,59.8,50,59.8z M46.1,58.9c-0.2,0-0.5-0.1-0.7-0.2c-0.6-0.3-1-1.1-0.7-1.8c0.3-0.8,1.1-1.2,1.9-0.9
			c0.1,0,0.3,0.1,0.4,0.2c0.7,0.5,0.9,1.4,0.4,2.1C47.1,58.7,46.6,58.9,46.1,58.9z M54.1,58.8c-0.6,0-1.2-0.4-1.4-1
			c-0.2-0.7,0.1-1.5,0.7-1.8c0.7-0.4,1.5-0.2,2,0.5c0.5,0.7,0.3,1.6-0.4,2.1c-0.1,0.1-0.2,0.1-0.4,0.2
			C54.4,58.8,54.2,58.8,54.1,58.8z M43.2,56.3c-0.5,0-0.9-0.2-1.2-0.6c-0.5-0.6-0.4-1.4,0.1-2c0.6-0.6,1.5-0.6,2.1,0
			c0.1,0.1,0.1,0.2,0.2,0.2c0.5,0.7,0.3,1.6-0.4,2.1C43.7,56.2,43.5,56.3,43.2,56.3z M57,56.1c-0.3,0-0.6-0.1-0.8-0.3
			c-0.7-0.5-0.9-1.4-0.4-2.1c0.5-0.7,1.4-0.9,2.1-0.4c0.7,0.5,0.9,1.4,0.4,2.1l0,0C57.9,55.8,57.4,56.1,57,56.1z M41.7,52.6
			c-0.8,0-1.4-0.6-1.5-1.3c-0.1-0.7,0.4-1.4,1.1-1.6c0.8-0.2,1.6,0.3,1.8,1.1c0,0.1,0,0.3,0,0.4C43.2,51.9,42.6,52.6,41.7,52.6z
			 M58.3,52.3c-0.1,0-0.2,0-0.4,0c-0.7-0.2-1.2-0.9-1.1-1.6c0.1-0.8,0.7-1.3,1.5-1.3l0,0c0.8,0,1.5,0.7,1.5,1.5c0,0.1,0,0.3,0,0.4
			C59.6,51.9,59,52.3,58.3,52.3z M42.2,48.6c-0.2,0-0.3,0-0.5-0.1c-0.8-0.3-1.2-1.1-0.9-1.9c0-0.1,0.1-0.1,0.1-0.2
			c0.4-0.7,1.3-1,2-0.7c0.7,0.4,1,1.2,0.7,1.9C43.3,48.3,42.8,48.6,42.2,48.6z M57.7,48.4c-0.5,0-1-0.2-1.2-0.7
			c-0.1-0.1-0.1-0.2-0.2-0.4c-0.3-0.8,0.2-1.6,0.9-1.9c0.7-0.2,1.5,0.1,1.8,0.8c0.3,0.7,0.1,1.5-0.5,1.9
			C58.3,48.3,58,48.4,57.7,48.4z M44.4,45.3c-0.5,0-1-0.2-1.2-0.7c-0.4-0.6-0.3-1.5,0.2-1.9c0.5-0.5,1.3-0.5,1.8-0.1
			c0.7,0.5,0.9,1.4,0.4,2.1c-0.1,0.2-0.3,0.3-0.4,0.4C45,45.2,44.7,45.3,44.4,45.3z M55.4,45.2c-0.4,0-0.7-0.1-1-0.4
			c-0.5-0.5-0.7-1.3-0.2-1.9c0.5-0.7,1.4-0.9,2.1-0.4c0.2,0.1,0.3,0.3,0.4,0.4c0.5,0.7,0.3,1.6-0.4,2.1C56,45.1,55.7,45.2,55.4,45.2
			z M47.9,43.4c-0.6,0-1.2-0.4-1.4-1c-0.3-0.8,0.2-1.6,0.9-1.9c0,0,0.1,0,0.1,0c0.8-0.2,1.6,0.3,1.8,1.1c0.2,0.8-0.3,1.6-1,1.8
			C48.2,43.4,48,43.4,47.9,43.4z M51.9,43.4c-0.2,0-0.3,0-0.5-0.1c-0.8-0.3-1.2-1.1-0.9-1.9c0.2-0.7,1-1.1,1.7-1
			c0.7,0.1,1.2,0.7,1.2,1.5C53.4,42.7,52.7,43.4,51.9,43.4z"/>
	</g>
</g>
</svg>
