<?xml version="1.0" encoding="utf-8"?>
<!-- Generator: Adobe Illustrator 26.5.1, SVG Export Plug-In . SVG Version: 6.00 Build 0)  -->
<svg version="1.1" id="Ebene_1" xmlns="http://www.w3.org/2000/svg" xmlns:xlink="http://www.w3.org/1999/xlink" x="0px" y="0px"
	 viewBox="0 0 100 100" style="enable-background:new 0 0 100 100;" xml:space="preserve">
<g>
	<g>
		<path d="M50,76.5L50,76.5c-0.8,0-1.5-0.7-1.5-1.5s0.7-1.5,1.5-1.5c0.1,0,0.2,0,0.3,0c0.1,0,0.2,0,0.4,0c0.8,0,1.5,0.7,1.5,1.5
			s-0.7,1.5-1.5,1.5h0c-0.1,0-0.2,0-0.3,0C50.3,76.5,50.1,76.5,50,76.5z M46,76.2c-0.1,0-0.2,0-0.3,0c-0.7-0.1-1.2-0.7-1.2-1.5
			c0-0.8,0.7-1.5,1.5-1.5c0.2,0,0.3,0,0.5,0.1c0.8,0.3,1.2,1.1,0.9,1.9C47.2,75.8,46.6,76.2,46,76.2z M54.7,76.1
			c-0.8,0-1.5-0.7-1.5-1.5c0-0.7,0.5-1.3,1.2-1.5c0.7-0.1,1.5,0.3,1.7,1c0.3,0.8-0.2,1.6-0.9,1.9C55,76,54.8,76.1,54.7,76.1z
			 M42.1,75.2c-0.1,0-0.3,0-0.4-0.1c-0.8-0.2-1.2-1-1-1.8c0.2-0.8,1-1.3,1.8-1.1c0,0,0.1,0,0.1,0c0.8,0.3,1.2,1.1,0.9,1.9
			C43.3,74.8,42.7,75.2,42.1,75.2z M58.5,75c-0.5,0-1.1-0.3-1.3-0.8c-0.4-0.7-0.1-1.6,0.7-2c0.1,0,0.1-0.1,0.2-0.1
			c0.8-0.3,1.6,0.2,1.9,0.9c0.3,0.8-0.1,1.6-0.9,1.9C58.9,75,58.7,75,58.5,75z M38.4,73.7c-0.2,0-0.5-0.1-0.7-0.2
			c-0.6-0.3-1-1.1-0.7-1.8c0.3-0.8,1.1-1.2,1.9-0.9c0.1,0,0.3,0.1,0.4,0.2c0.7,0.5,0.9,1.4,0.4,2.1C39.4,73.4,38.9,73.7,38.4,73.7z
			 M62.2,73.3c-0.6,0-1.2-0.4-1.4-1c-0.2-0.7,0.1-1.5,0.7-1.8c0.7-0.4,1.5-0.2,2,0.5c0.5,0.7,0.3,1.6-0.4,2.1
			c-0.1,0.1-0.2,0.1-0.4,0.2C62.5,73.3,62.3,73.3,62.2,73.3z M35,71.5c-0.3,0-0.6-0.1-0.8-0.3c-0.1-0.1-0.2-0.1-0.2-0.2
			c-0.6-0.6-0.6-1.5,0-2.1c0.5-0.5,1.4-0.6,2-0.1c0.6,0.5,0.8,1.4,0.3,2C36,71.3,35.5,71.5,35,71.5z M65.5,71.1
			c-0.4,0-0.8-0.1-1.1-0.4c-0.6-0.6-0.6-1.5,0-2.1c0.1-0.1,0.2-0.1,0.2-0.2c0.7-0.5,1.6-0.3,2.1,0.4c0.4,0.7,0.3,1.5-0.3,2
			C66.2,71,65.8,71.1,65.5,71.1z M32,68.9c-0.4,0-0.8-0.1-1.1-0.4l0,0c-0.6-0.6-0.6-1.5,0-2.1s1.5-0.6,2.1,0s0.6,1.5,0,2.1
			C32.8,68.7,32.4,68.9,32,68.9z M68.4,68.4c-0.5,0-1-0.2-1.2-0.7c-0.4-0.6-0.3-1.3,0.1-1.8c0.5-0.5,1.3-0.7,1.9-0.2
			c0.7,0.5,0.9,1.4,0.4,2.1c-0.1,0.2-0.3,0.3-0.4,0.4C69,68.3,68.7,68.4,68.4,68.4z M29.5,65.8c-0.5,0-0.9-0.2-1.2-0.6
			c-0.5-0.6-0.4-1.4,0.1-2c0.6-0.6,1.5-0.6,2.1,0c0.1,0.1,0.1,0.2,0.2,0.2c0.5,0.7,0.3,1.6-0.4,2.1C30.1,65.7,29.8,65.8,29.5,65.8z
			 M70.9,65.2c-0.3,0-0.6-0.1-0.8-0.3c-0.7-0.5-0.9-1.4-0.4-2.1s1.4-0.9,2.1-0.4c0.7,0.5,0.9,1.4,0.4,2.1l0,0
			C71.9,65,71.4,65.2,70.9,65.2z M27.5,62.3c-0.6,0-1.1-0.3-1.4-0.9c-0.3-0.7-0.1-1.5,0.5-1.9c0.7-0.5,1.6-0.3,2.1,0.4
			c0.1,0.1,0.1,0.2,0.2,0.4c0.3,0.8-0.2,1.6-0.9,1.9C27.8,62.3,27.6,62.3,27.5,62.3z M72.8,61.7c-0.3,0-0.6-0.1-0.8-0.3
			c-0.6-0.4-0.8-1.2-0.5-1.9c0.3-0.7,1.1-1.1,1.8-0.8c0.8,0.3,1.2,1.1,0.9,1.9c0,0.1-0.1,0.3-0.2,0.4C73.8,61.5,73.3,61.7,72.8,61.7
			z M26,58.6c-0.6,0-1.2-0.4-1.4-1c0,0,0-0.1,0-0.1c-0.2-0.8,0.3-1.6,1.1-1.8c0.8-0.2,1.6,0.3,1.8,1c0.2,0.8-0.2,1.6-1,1.9
			C26.3,58.6,26.2,58.6,26,58.6z M74.2,57.9c-0.1,0-0.2,0-0.4,0c-0.8-0.2-1.3-1-1.1-1.8c0,0,0-0.1,0-0.1c0.3-0.8,1.1-1.2,1.9-0.9
			c0.8,0.3,1.2,1.1,1,1.9C75.4,57.5,74.8,57.9,74.2,57.9z M25.2,54.7c-0.8,0-1.4-0.6-1.5-1.3c-0.1-0.7,0.4-1.4,1.1-1.6
			c0.8-0.2,1.6,0.3,1.8,1.1c0,0.1,0,0.3,0,0.4C26.7,54,26,54.7,25.2,54.7z M74.9,54c-0.1,0-0.2,0-0.4,0c-0.7-0.2-1.2-0.9-1.1-1.6
			c0.1-0.8,0.7-1.3,1.5-1.3l0,0c0.8,0,1.5,0.7,1.5,1.5c0,0.1,0,0.3,0,0.4C76.2,53.5,75.6,54,74.9,54z M25,50.7
			c-0.8,0-1.5-0.7-1.5-1.5v0c0-0.8,0.7-1.5,1.5-1.5s1.5,0.7,1.5,1.5S25.8,50.7,25,50.7z M75,50c-0.7,0-1.3-0.5-1.5-1.1
			c0-0.1,0-0.3,0-0.4c0-0.8,0.7-1.5,1.5-1.5c0.8,0,1.4,0.6,1.5,1.3c0.1,0.7-0.4,1.4-1.1,1.6C75.2,50,75.1,50,75,50z M25.5,46.7
			c-0.2,0-0.3,0-0.5-0.1c-0.7-0.2-1.1-1-1-1.7c0.1-0.7,0.7-1.2,1.5-1.2c0.8,0,1.5,0.7,1.5,1.5c0,0.2,0,0.3-0.1,0.5
			C26.7,46.3,26.1,46.7,25.5,46.7z M74.4,46c-0.7,0-1.3-0.5-1.5-1.2c-0.1-0.7,0.3-1.5,1-1.7c0.8-0.3,1.6,0.2,1.9,0.9
			c0.1,0.2,0.1,0.3,0.1,0.5C75.9,45.3,75.2,46,74.4,46z M26.5,42.8c-0.2,0-0.3,0-0.5-0.1c-0.8-0.3-1.2-1.1-0.9-1.9
			c0-0.1,0.1-0.1,0.1-0.2c0.4-0.7,1.3-1,2-0.7c0.7,0.4,1,1.2,0.7,1.9C27.7,42.5,27.1,42.8,26.5,42.8z M73.2,42.2
			c-0.5,0-1-0.2-1.2-0.7c-0.1-0.1-0.1-0.2-0.2-0.4c-0.3-0.8,0.2-1.6,0.9-1.9c0.7-0.2,1.5,0.1,1.8,0.8c0.3,0.7,0.1,1.5-0.5,1.9
			C73.8,42.1,73.5,42.2,73.2,42.2z M28.2,39.2c-0.3,0-0.6-0.1-0.8-0.3c-0.7-0.4-0.9-1.3-0.5-2c0.3-0.6,1.1-1,1.8-0.7
			c0.8,0.3,1.2,1.1,0.9,1.9c0,0.1-0.1,0.3-0.2,0.4C29.2,39,28.7,39.2,28.2,39.2z M71.4,38.6c-0.5,0-1.1-0.3-1.3-0.8
			c-0.4-0.7-0.2-1.5,0.5-2c0.7-0.5,1.6-0.3,2.1,0.4c0.1,0.1,0.1,0.2,0.2,0.4c0.3,0.8-0.2,1.6-0.9,1.9C71.7,38.6,71.6,38.6,71.4,38.6
			z M30.5,35.9c-0.3,0-0.6-0.1-0.8-0.3c-0.7-0.5-0.9-1.4-0.4-2.1c0.1-0.1,0.1-0.2,0.2-0.2c0.6-0.6,1.5-0.6,2.1,0
			c0.5,0.5,0.6,1.4,0.1,2C31.4,35.7,30.9,35.9,30.5,35.9z M69.1,35.4c-0.3,0-0.6-0.1-0.8-0.3c-0.2-0.1-0.3-0.3-0.4-0.4
			c-0.5-0.7-0.3-1.6,0.4-2.1c0.6-0.4,1.5-0.3,1.9,0.2c0.5,0.5,0.5,1.3,0.1,1.8C70,35.1,69.6,35.4,69.1,35.4z M33.2,33
			c-0.5,0-1-0.2-1.2-0.7c-0.4-0.6-0.3-1.5,0.2-1.9c0.5-0.5,1.3-0.5,1.8-0.1c0.7,0.5,0.9,1.4,0.4,2.1c-0.1,0.2-0.3,0.3-0.4,0.4
			C33.8,32.9,33.5,33,33.2,33z M66.2,32.5c-0.4,0-0.7-0.1-1-0.4c-0.5-0.5-0.7-1.3-0.2-1.9c0.5-0.7,1.4-0.9,2.1-0.4
			c0.2,0.1,0.3,0.3,0.4,0.4c0.5,0.7,0.3,1.6-0.4,2.1C66.8,32.4,66.5,32.5,66.2,32.5z M36.4,30.5c-0.5,0-1-0.2-1.2-0.7
			c-0.5-0.7-0.3-1.6,0.4-2.1l0,0c0.7-0.5,1.6-0.3,2.1,0.4c0.5,0.7,0.3,1.6-0.4,2.1C37,30.4,36.7,30.5,36.4,30.5z M63,30.2
			c-0.2,0-0.3,0-0.5-0.1c-0.1,0-0.3-0.1-0.4-0.2c-0.7-0.5-0.9-1.4-0.4-2.1c0.4-0.7,1.3-0.9,2-0.5c0.6,0.3,1,1.1,0.7,1.8
			C64.2,29.8,63.6,30.2,63,30.2z M39.9,28.6c-0.6,0-1.2-0.4-1.4-1c-0.2-0.7,0.1-1.5,0.8-1.8c0.7-0.3,1.5-0.1,1.9,0.5
			c0.5,0.7,0.3,1.6-0.4,2.1c-0.1,0.1-0.2,0.1-0.4,0.2C40.2,28.6,40.1,28.6,39.9,28.6z M59.4,28.3c-0.2,0-0.4,0-0.6-0.1
			c-0.7-0.3-1.1-1.1-0.9-1.9c0.3-0.8,1.1-1.2,1.9-0.9c0.1,0,0.1,0.1,0.2,0.1c0.7,0.4,1,1.3,0.7,2C60.5,28,60,28.3,59.4,28.3z
			 M43.7,27.3c-0.6,0-1.2-0.4-1.4-1c-0.3-0.8,0.2-1.6,0.9-1.9c0,0,0.1,0,0.1,0c0.8-0.2,1.6,0.3,1.8,1.1c0.2,0.8-0.3,1.6-1,1.8
			C44,27.3,43.8,27.3,43.7,27.3z M55.6,27.1c-0.2,0-0.3,0-0.5-0.1c-0.8-0.3-1.2-1.1-0.9-1.9c0.2-0.7,1-1.1,1.7-1
			c0.7,0.1,1.2,0.7,1.2,1.5C57.1,26.5,56.4,27.1,55.6,27.1z M47.6,26.6c-0.8,0-1.5-0.7-1.5-1.5c0-0.8,0.6-1.4,1.3-1.5
			c0.7-0.1,1.4,0.4,1.6,1.1c0.2,0.8-0.3,1.6-1.1,1.8C47.9,26.6,47.8,26.6,47.6,26.6z M51.7,26.6c-0.1,0-0.1,0-0.2,0
			c-0.8-0.1-1.3-0.7-1.3-1.5c0-0.8,0.7-1.5,1.5-1.5c0.1,0,0.3,0,0.4,0c0.8,0.2,1.3,1,1.1,1.8C52.9,26.1,52.3,26.6,51.7,26.6z"/>
	</g>
</g>
</svg>
