<?xml version="1.0" encoding="utf-8"?>
<!-- Generator: Adobe Illustrator 26.5.1, SVG Export Plug-In . SVG Version: 6.00 Build 0)  -->
<svg version="1.1" id="Ebene_1" xmlns="http://www.w3.org/2000/svg" xmlns:xlink="http://www.w3.org/1999/xlink" x="0px" y="0px"
	 viewBox="0 0 100 100" style="enable-background:new 0 0 100 100;" xml:space="preserve">
<g>
	<g>
		<g>
			<path d="M100,52.5c-0.7,0-1.3-0.3-1.8-0.7c-0.5-0.5-0.7-1.1-0.7-1.8c0-0.2,0-0.3,0-0.5s0.1-0.3,0.1-0.5c0.1-0.2,0.1-0.3,0.2-0.4
				c0.1-0.1,0.2-0.3,0.3-0.4c0.1-0.1,0.2-0.2,0.4-0.3c0.1-0.1,0.3-0.2,0.4-0.2c0.1-0.1,0.3-0.1,0.5-0.1c0.3-0.1,0.7-0.1,1,0
				c0.2,0,0.3,0.1,0.5,0.1c0.1,0.1,0.3,0.1,0.4,0.2c0.1,0.1,0.3,0.2,0.4,0.3c0.5,0.5,0.7,1.1,0.7,1.8c0,0.2,0,0.3,0,0.5
				c0,0.2-0.1,0.3-0.1,0.5c-0.1,0.1-0.1,0.3-0.2,0.4c-0.1,0.1-0.2,0.3-0.3,0.4c-0.1,0.1-0.2,0.2-0.4,0.3c-0.1,0.1-0.3,0.2-0.4,0.2
				c-0.2,0.1-0.3,0.1-0.5,0.1C100.3,52.5,100.2,52.5,100,52.5z"/>
			<path d="M56.1,102.1c-1.1,0-2.1-0.8-2.4-1.9c-0.3-1.3,0.5-2.7,1.8-3c0.2,0,0.4-0.1,0.6-0.1c1.4,0,2.5,1.1,2.5,2.5
				c0,1.3-1,2.4-2.2,2.5C56.2,102.1,56.2,102.1,56.1,102.1z M62,101c-1.4,0-2.5-1.1-2.5-2.5c0-1.2,0.9-2.2,2-2.5
				c1.2-0.2,2.4,0.5,2.8,1.7c0.4,1.3-0.3,2.7-1.6,3.2C62.5,101,62.3,101,62,101z M67.8,99.2c-0.9,0-1.8-0.5-2.2-1.4
				c-0.6-1.2-0.1-2.7,1.1-3.4c0.1-0.1,0.2-0.1,0.3-0.1c1.3-0.4,2.7,0.3,3.2,1.6c0.4,1.3-0.2,2.6-1.4,3.1
				C68.4,99.2,68.1,99.2,67.8,99.2z M73.2,96.8c-1,0-2-0.7-2.4-1.7c-0.4-1.2,0.1-2.4,1.2-3c1.1-0.6,2.5-0.3,3.3,0.8
				c0.8,1.1,0.5,2.7-0.7,3.5c-0.2,0.1-0.4,0.2-0.6,0.3C73.8,96.7,73.5,96.8,73.2,96.8z M78.4,93.6c-0.6,0-1.3-0.2-1.8-0.7
				c-1-1-1-2.6,0-3.5c0.1-0.1,0.3-0.2,0.4-0.3c1.1-0.8,2.7-0.5,3.5,0.7c0.7,1.1,0.5,2.6-0.6,3.4C79.5,93.5,79,93.6,78.4,93.6z
				 M83.1,89.9c-0.5,0-1-0.1-1.4-0.4c-1.1-0.8-1.5-2.3-0.7-3.5c0.2-0.3,0.4-0.5,0.7-0.7c1.1-0.8,2.7-0.5,3.5,0.7
				c0.7,1,0.5,2.4-0.4,3.2C84.4,89.7,83.8,89.9,83.1,89.9z M87.4,85.6c-0.8,0-1.6-0.4-2.1-1.1c-0.7-1-0.5-2.3,0.2-3.1
				c0.8-0.9,2.2-1.1,3.2-0.4c1.1,0.8,1.5,2.3,0.7,3.5c-0.2,0.3-0.4,0.5-0.7,0.7C88.4,85.5,87.9,85.6,87.4,85.6z M91.1,80.9
				c-0.6,0-1.3-0.2-1.8-0.7c-0.9-0.9-1-2.3-0.2-3.3c0.8-1,2.3-1.3,3.4-0.6c1.1,0.8,1.5,2.3,0.7,3.5c-0.1,0.1-0.2,0.3-0.3,0.4
				C92.4,80.6,91.8,80.9,91.1,80.9z M94.3,75.7c-0.3,0-0.5,0-0.8-0.1c-1.3-0.4-2-1.9-1.6-3.2c0.1-0.2,0.2-0.4,0.3-0.6
				c0.8-1.1,2.3-1.5,3.5-0.7c1.1,0.7,1.4,2.1,0.8,3.3C96,75.2,95.2,75.7,94.3,75.7z M96.8,70.2c-0.4,0-0.8-0.1-1.1-0.3
				c-1.2-0.6-1.7-2-1.2-3.2c0.5-1.2,1.8-1.9,3.1-1.4c1.3,0.4,2,1.9,1.6,3.2c0,0.1-0.1,0.2-0.1,0.3C98.6,69.7,97.7,70.2,96.8,70.2z
				 M98.6,64.5c-1.4,0-2.5-1.1-2.5-2.5c0-0.3,0-0.5,0.1-0.8c0.4-1.3,1.8-2,3.2-1.6c1.2,0.4,1.9,1.6,1.7,2.8
				C100.8,63.6,99.8,64.5,98.6,64.5z M99.6,58.5c-0.2,0-0.4,0-0.6-0.1c-1.2-0.3-2-1.5-1.9-2.7c0.1-1.3,1.2-2.2,2.5-2.2l0,0
				c1.4,0,2.5,1.1,2.5,2.5c0,0.2,0,0.4-0.1,0.6C101.8,57.8,100.8,58.5,99.6,58.5z"/>
			<path d="M50,102.5c-0.7,0-1.3-0.3-1.8-0.7c-0.5-0.5-0.7-1.1-0.7-1.8s0.3-1.3,0.7-1.8c0.6-0.6,1.5-0.8,2.3-0.7
				c0.2,0,0.3,0.1,0.5,0.1c0.1,0.1,0.3,0.1,0.4,0.2c0.1,0.1,0.3,0.2,0.4,0.3c0.5,0.5,0.7,1.1,0.7,1.8s-0.3,1.3-0.7,1.8
				c-0.1,0.1-0.2,0.2-0.4,0.3c-0.1,0.1-0.3,0.2-0.4,0.2c-0.2,0.1-0.3,0.1-0.5,0.1C50.3,102.5,50.2,102.5,50,102.5z"/>
		</g>
		<g>
			<path d="M91.7,52.5c-0.2,0-0.3,0-0.5,0c-0.2,0-0.3-0.1-0.5-0.1c-0.2-0.1-0.3-0.1-0.4-0.2c-0.1-0.1-0.3-0.2-0.4-0.3
				c-0.5-0.5-0.7-1.1-0.7-1.8c0-0.2,0-0.3,0-0.5c0-0.2,0.1-0.3,0.1-0.5c0.1-0.2,0.1-0.3,0.2-0.4c0.1-0.1,0.2-0.3,0.3-0.4
				c0.1-0.1,0.2-0.2,0.4-0.3c0.1-0.1,0.3-0.2,0.4-0.2c0.1-0.1,0.3-0.1,0.5-0.1c0.3-0.1,0.7-0.1,1,0c0.2,0,0.3,0.1,0.5,0.1
				c0.2,0.1,0.3,0.1,0.4,0.2c0.1,0.1,0.3,0.2,0.4,0.3c0.1,0.1,0.2,0.2,0.3,0.4c0.1,0.1,0.2,0.3,0.2,0.4c0.1,0.1,0.1,0.3,0.1,0.5
				c0,0.2,0,0.3,0,0.5c0,0.7-0.3,1.3-0.7,1.8c-0.1,0.1-0.2,0.2-0.4,0.3c-0.1,0.1-0.3,0.2-0.4,0.2c-0.2,0.1-0.3,0.1-0.5,0.1
				C92,52.5,91.8,52.5,91.7,52.5z"/>
			<path d="M56,93.7c-1.1,0-2.1-0.8-2.4-1.9c-0.3-1.3,0.5-2.7,1.8-3c0.2,0,0.4-0.1,0.6-0.1c1.4,0,2.5,1.1,2.5,2.5
				c0,1.3-1,2.4-2.2,2.5C56.1,93.7,56.1,93.7,56,93.7z M61.8,92.5c-1.1,0-2.1-0.8-2.4-1.9c-0.3-1.3,0.4-2.6,1.7-3
				c1.3-0.4,2.7,0.3,3.1,1.6c0.4,1.3-0.3,2.7-1.6,3.2c-0.1,0-0.1,0-0.2,0.1C62.2,92.5,62,92.5,61.8,92.5z M67.3,90.4
				c-0.8,0-1.6-0.4-2.1-1.1c-0.8-1.1-0.5-2.7,0.7-3.5c0.2-0.1,0.4-0.2,0.6-0.3c1.3-0.4,2.7,0.3,3.2,1.6c0.4,1.2-0.2,2.5-1.3,3.1
				C68,90.3,67.7,90.4,67.3,90.4z M72.5,87.5c-0.9,0-1.8-0.5-2.2-1.4c-0.6-1.2-0.2-2.6,0.9-3.3c1.1-0.7,2.6-0.4,3.4,0.7
				c0.8,1.1,0.5,2.7-0.7,3.5c-0.1,0.1-0.2,0.1-0.3,0.2C73.3,87.5,72.9,87.5,72.5,87.5z M77.3,84c-0.5,0-1-0.1-1.4-0.4
				c-1.1-0.8-1.5-2.3-0.7-3.5c0.2-0.3,0.4-0.5,0.7-0.7c1.1-0.8,2.7-0.5,3.5,0.7c0.7,1,0.5,2.4-0.4,3.2C78.5,83.7,77.9,84,77.3,84z
				 M81.5,79.8c-0.8,0-1.6-0.4-2.1-1.1c-0.7-1-0.5-2.3,0.2-3.1c0.8-0.9,2.2-1.1,3.2-0.4c1.1,0.8,1.5,2.3,0.7,3.5
				c-0.2,0.3-0.4,0.5-0.7,0.7C82.4,79.6,82,79.8,81.5,79.8z M85,75c-0.3,0-0.5,0-0.8-0.1c-1.3-0.4-2-1.9-1.6-3.2
				c0.1-0.2,0.2-0.4,0.3-0.6c0.8-1.1,2.3-1.5,3.5-0.7c1.1,0.7,1.4,2.1,0.8,3.3C86.8,74.5,86,75,85,75z M87.9,69.8
				c-0.5,0-1-0.1-1.4-0.4c-1-0.7-1.4-2-0.9-3.1c0.5-1.1,1.8-1.7,3.1-1.3c1.3,0.4,2,1.9,1.6,3.2c-0.1,0.2-0.2,0.4-0.3,0.6
				C89.5,69.4,88.7,69.8,87.9,69.8z M90,64.2c-0.2,0-0.4,0-0.6-0.1c-1.3-0.3-2.2-1.7-1.8-3c0-0.1,0-0.1,0.1-0.2
				c0.4-1.3,1.9-2,3.2-1.6c1.3,0.4,2,1.8,1.6,3.1C92.1,63.5,91.1,64.2,90,64.2z M91.2,58.4c-0.2,0-0.4,0-0.6-0.1
				c-1.2-0.3-2-1.5-1.9-2.7c0.1-1.3,1.2-2.2,2.5-2.2l0,0c1.4,0,2.5,1.1,2.5,2.5c0,0.2,0,0.4-0.1,0.6C93.4,57.7,92.4,58.4,91.2,58.4z
				"/>
			<path d="M50,94.2c-0.7,0-1.3-0.3-1.8-0.7c-0.5-0.5-0.7-1.1-0.7-1.8c0-0.7,0.3-1.3,0.7-1.8c0.1-0.1,0.2-0.2,0.4-0.3
				c0.1-0.1,0.3-0.2,0.4-0.2c0.1-0.1,0.3-0.1,0.5-0.1c0.8-0.2,1.7,0.1,2.3,0.7c0.5,0.5,0.7,1.1,0.7,1.8s-0.3,1.3-0.7,1.8
				c-0.1,0.1-0.2,0.2-0.4,0.3c-0.1,0.1-0.3,0.2-0.4,0.2c-0.2,0.1-0.3,0.1-0.5,0.1C50.3,94.1,50.2,94.2,50,94.2z"/>
		</g>
		<g>
			<path d="M83.3,52.5c-0.2,0-0.3,0-0.5,0c-0.2,0-0.3-0.1-0.5-0.1c-0.2-0.1-0.3-0.1-0.4-0.2c-0.1-0.1-0.3-0.2-0.4-0.3
				c-0.5-0.5-0.7-1.1-0.7-1.8c0-0.2,0-0.3,0-0.5S81,49.2,81,49c0.1-0.2,0.1-0.3,0.2-0.4c0.1-0.1,0.2-0.3,0.3-0.4
				c0.1-0.1,0.2-0.2,0.4-0.3c0.1-0.1,0.3-0.2,0.4-0.2c0.2-0.1,0.3-0.1,0.5-0.1c0.3-0.1,0.7-0.1,1,0c0.2,0,0.3,0.1,0.5,0.1
				c0.1,0.1,0.3,0.1,0.4,0.2c0.1,0.1,0.3,0.2,0.4,0.3c0.1,0.1,0.2,0.2,0.3,0.4c0.1,0.1,0.2,0.3,0.2,0.4c0.1,0.1,0.1,0.3,0.1,0.5
				c0,0.2,0,0.3,0,0.5c0,0.7-0.3,1.3-0.7,1.8C84.6,52.2,84,52.5,83.3,52.5z"/>
			<path d="M55.8,85.3c-1.4,0-2.5-1.1-2.5-2.5c0-1.2,0.9-2.2,2.1-2.5c1.2-0.2,2.4,0.5,2.8,1.7c0.4,1.3-0.3,2.7-1.6,3.2
				C56.4,85.3,56.1,85.3,55.8,85.3z M61.4,83.8c-1,0-2-0.7-2.4-1.7c-0.4-1.3,0.3-2.7,1.6-3.2c1.3-0.4,2.7,0.3,3.2,1.6
				c0.4,1.3-0.3,2.7-1.6,3.2l0,0C61.9,83.8,61.7,83.8,61.4,83.8z M66.7,81.4c-1,0-2-0.7-2.4-1.7c-0.4-1.2,0.1-2.4,1.2-3
				c1.1-0.6,2.5-0.3,3.3,0.8c0.8,1.1,0.5,2.7-0.7,3.5c-0.2,0.1-0.4,0.2-0.6,0.3C67.2,81.3,66.9,81.4,66.7,81.4z M71.4,78
				c-0.6,0-1.3-0.2-1.8-0.7c-1-1-1-2.6,0-3.5c0.1-0.1,0.3-0.2,0.4-0.3c1.1-0.8,2.7-0.5,3.5,0.7c0.7,1.1,0.5,2.6-0.5,3.4
				C72.5,77.8,72,78,71.4,78z M75.5,73.9c-0.6,0-1.3-0.2-1.8-0.7c-0.9-0.9-1-2.3-0.2-3.3c0.8-1,2.3-1.3,3.4-0.5
				c1.1,0.8,1.5,2.3,0.7,3.5c-0.1,0.1-0.2,0.3-0.3,0.4C76.8,73.7,76.2,73.9,75.5,73.9z M78.9,69.2c-0.3,0-0.5,0-0.8-0.1
				c-1.3-0.4-2-1.9-1.6-3.2c0.1-0.2,0.2-0.4,0.3-0.6c0.8-1.1,2.3-1.5,3.5-0.7c1.1,0.7,1.4,2.1,0.8,3.3
				C80.6,68.7,79.8,69.2,78.9,69.2z M81.3,63.9c-0.3,0-0.5,0-0.8-0.1c-1.3-0.4-2-1.9-1.6-3.2c0.4-1.3,1.9-2,3.2-1.6
				c1.3,0.4,2,1.8,1.6,3.2l0,0C83.3,63.2,82.4,63.9,81.3,63.9z M82.8,58.3c-1.4,0-2.5-1.1-2.5-2.5c0-0.3,0-0.5,0.1-0.8
				c0.4-1.3,1.8-2,3.2-1.6c1.2,0.4,1.9,1.6,1.7,2.8C85.1,57.4,84.1,58.3,82.8,58.3z"/>
			<path d="M50,85.8c-0.7,0-1.3-0.3-1.8-0.7c-0.1-0.1-0.2-0.2-0.3-0.4c-0.1-0.1-0.2-0.3-0.2-0.4c-0.1-0.2-0.1-0.3-0.1-0.5
				c0-0.2,0-0.3,0-0.5c0-0.2,0-0.3,0-0.5s0.1-0.3,0.1-0.5c0.1-0.2,0.1-0.3,0.2-0.4c0.1-0.1,0.2-0.3,0.3-0.4c0.6-0.6,1.5-0.8,2.3-0.7
				c0.2,0,0.3,0.1,0.5,0.1c0.1,0.1,0.3,0.1,0.4,0.2c0.1,0.1,0.3,0.2,0.4,0.3c0.1,0.1,0.2,0.2,0.3,0.4c0.1,0.1,0.2,0.3,0.2,0.4
				c0.1,0.2,0.1,0.3,0.1,0.5c0,0.2,0,0.3,0,0.5c0,0.2,0,0.3,0,0.5c0,0.2-0.1,0.3-0.1,0.5c-0.1,0.1-0.1,0.3-0.2,0.4
				c-0.1,0.1-0.2,0.3-0.3,0.4c-0.1,0.1-0.2,0.2-0.4,0.3c-0.1,0.1-0.3,0.2-0.4,0.2c-0.2,0.1-0.3,0.1-0.5,0.1
				C50.3,85.8,50.2,85.8,50,85.8z"/>
		</g>
		<g>
			<path d="M75,52.5c-0.7,0-1.3-0.3-1.8-0.7c-0.5-0.5-0.7-1.1-0.7-1.8c0-0.2,0-0.3,0-0.5s0.1-0.3,0.1-0.5c0.1-0.2,0.1-0.3,0.2-0.4
				c0.1-0.1,0.2-0.3,0.3-0.4c0.1-0.1,0.2-0.2,0.4-0.3c0.1-0.1,0.3-0.2,0.4-0.2c0.1-0.1,0.3-0.1,0.5-0.1c0.8-0.2,1.7,0.1,2.3,0.7
				c0.1,0.1,0.2,0.2,0.3,0.4c0.1,0.1,0.2,0.3,0.2,0.4c0.1,0.1,0.1,0.3,0.1,0.5c0,0.2,0,0.3,0,0.5c0,0.7-0.3,1.3-0.7,1.8
				c-0.1,0.1-0.2,0.2-0.4,0.3c-0.1,0.1-0.3,0.2-0.4,0.2c-0.2,0.1-0.3,0.1-0.5,0.1C75.3,52.5,75.2,52.5,75,52.5z"/>
			<path d="M55.6,76.9c-1.4,0-2.5-1.1-2.5-2.5c0-1.2,0.9-2.2,2-2.5c1.2-0.2,2.5,0.5,2.9,1.7c0.4,1.3-0.3,2.7-1.6,3.2
				C56.1,76.8,55.8,76.9,55.6,76.9z M60.9,75c-0.8,0-1.6-0.4-2.1-1.1c-0.8-1.1-0.5-2.7,0.7-3.5c0.2-0.1,0.4-0.2,0.6-0.3
				c1.3-0.4,2.7,0.3,3.2,1.6c0.4,1.2-0.2,2.5-1.3,3.1C61.6,74.9,61.2,75,60.9,75z M65.6,72c-0.8,0-1.6-0.4-2.1-1.1
				c-0.7-1.1-0.5-2.5,0.5-3.3c1-0.8,2.5-0.8,3.4,0.1c1,1,1,2.6,0,3.5c-0.1,0.1-0.3,0.2-0.4,0.3C66.5,71.9,66.1,72,65.6,72z
				 M69.5,68.1c-0.5,0-1-0.1-1.4-0.4c-1.1-0.8-1.5-2.3-0.7-3.5c0.1-0.1,0.2-0.3,0.3-0.4c1-1,2.6-1,3.5,0c0.9,0.9,1,2.4,0.1,3.4
				C71,67.8,70.3,68.1,69.5,68.1z M72.5,63.3c-0.5,0-1-0.1-1.4-0.4c-1-0.7-1.4-2-0.9-3.1c0.5-1.1,1.8-1.7,3.1-1.3
				c1.3,0.4,2,1.9,1.6,3.2c-0.1,0.2-0.2,0.4-0.3,0.6C74.1,63,73.3,63.3,72.5,63.3z M74.4,58.1c-1.4,0-2.5-1.1-2.5-2.5
				c0-0.3,0-0.5,0.1-0.8c0.4-1.3,1.8-2,3.2-1.6c1.2,0.4,1.9,1.6,1.7,2.9C76.6,57.2,75.6,58.1,74.4,58.1z"/>
			<path d="M50,77.5c-0.7,0-1.3-0.3-1.8-0.7c-0.1-0.1-0.2-0.2-0.3-0.4c-0.1-0.1-0.2-0.3-0.2-0.4c-0.1-0.2-0.1-0.3-0.1-0.5
				c0-0.2,0-0.3,0-0.5s0-0.3,0-0.5s0.1-0.3,0.1-0.5c0.1-0.2,0.1-0.3,0.2-0.4c0.1-0.1,0.2-0.3,0.3-0.4c0.1-0.1,0.2-0.2,0.4-0.3
				c0.1-0.1,0.3-0.2,0.4-0.2c0.1-0.1,0.3-0.1,0.5-0.1c0.8-0.2,1.7,0.1,2.3,0.7c0.1,0.1,0.2,0.2,0.3,0.4c0.1,0.1,0.2,0.3,0.2,0.4
				c0.1,0.1,0.1,0.3,0.1,0.5c0,0.2,0,0.3,0,0.5s0,0.3,0,0.5c0,0.2-0.1,0.3-0.1,0.5c-0.1,0.1-0.1,0.3-0.2,0.4
				c-0.1,0.1-0.2,0.3-0.3,0.4C51.3,77.2,50.7,77.5,50,77.5z"/>
		</g>
		<g>
			<path d="M66.7,52.5c-0.2,0-0.3,0-0.5,0c-0.2,0-0.3-0.1-0.5-0.1c-0.2-0.1-0.3-0.1-0.4-0.2c-0.1-0.1-0.3-0.2-0.4-0.3
				c-0.5-0.5-0.7-1.1-0.7-1.8c0-0.2,0-0.3,0-0.5c0-0.2,0.1-0.3,0.1-0.5c0.1-0.2,0.1-0.3,0.2-0.4c0.1-0.1,0.2-0.3,0.3-0.4
				c0.1-0.1,0.2-0.2,0.4-0.3c0.1-0.1,0.3-0.2,0.4-0.2c0.1-0.1,0.3-0.1,0.5-0.1c0.3-0.1,0.7-0.1,1,0c0.2,0,0.3,0.1,0.5,0.1
				c0.1,0.1,0.3,0.1,0.4,0.2c0.1,0.1,0.3,0.2,0.4,0.3c0.1,0.1,0.2,0.2,0.3,0.4c0.1,0.1,0.2,0.3,0.2,0.4c0.1,0.1,0.1,0.3,0.1,0.5
				c0,0.2,0,0.3,0,0.5c0,0.7-0.3,1.3-0.7,1.8c-0.1,0.1-0.2,0.2-0.4,0.3c-0.1,0.1-0.3,0.2-0.4,0.2c-0.2,0.1-0.3,0.1-0.5,0.1
				C67,52.5,66.8,52.5,66.7,52.5z"/>
			<path d="M56.4,67.9c-0.9,0-1.8-0.5-2.2-1.4c-0.6-1.2-0.1-2.7,1.1-3.4c0.1-0.1,0.2-0.1,0.3-0.1c1.3-0.4,2.7,0.3,3.2,1.6
				c0.4,1.3-0.2,2.6-1.4,3.1C57,67.8,56.7,67.9,56.4,67.9z M61.8,64.3c-0.6,0-1.3-0.2-1.8-0.7c-1-1-1-2.6,0-3.5c1-1,2.6-1,3.5,0
				c1,1,1,2.6,0,3.5l0,0C63.1,64,62.4,64.3,61.8,64.3z M65.4,58.9c-0.4,0-0.8-0.1-1.1-0.3c-1.2-0.6-1.7-2-1.2-3.2
				c0.5-1.2,1.8-1.9,3.1-1.4c1.3,0.4,2,1.9,1.6,3.2c0,0.1-0.1,0.2-0.1,0.3C67.2,58.4,66.3,58.9,65.4,58.9z"/>
			<path d="M50,69.2c-0.7,0-1.3-0.3-1.8-0.7c-0.5-0.5-0.7-1.1-0.7-1.8c0-0.2,0-0.3,0-0.5s0.1-0.3,0.1-0.5c0.1-0.2,0.1-0.3,0.2-0.4
				c0.1-0.1,0.2-0.3,0.3-0.4c0.6-0.6,1.4-0.8,2.3-0.7c0.2,0,0.3,0.1,0.5,0.1c0.1,0.1,0.3,0.1,0.4,0.2c0.1,0.1,0.3,0.2,0.4,0.3
				c0.1,0.1,0.2,0.2,0.3,0.4c0.1,0.1,0.2,0.3,0.2,0.4c0.1,0.1,0.1,0.3,0.1,0.5c0,0.2,0,0.3,0,0.5c0,0.6-0.3,1.3-0.7,1.8
				C51.3,68.9,50.7,69.2,50,69.2z"/>
		</g>
		<g>
			<path d="M58.3,52.5c-0.7,0-1.3-0.3-1.8-0.7c-0.5-0.5-0.7-1.1-0.7-1.8c0-0.2,0-0.3,0-0.5S56,49.2,56,49c0.1-0.2,0.1-0.3,0.2-0.4
				c0.1-0.1,0.2-0.3,0.3-0.4c0.1-0.1,0.2-0.2,0.4-0.3c0.1-0.1,0.3-0.2,0.4-0.2c0.2-0.1,0.3-0.1,0.5-0.1c0.3-0.1,0.7-0.1,1,0
				c0.2,0,0.3,0.1,0.5,0.1c0.1,0.1,0.3,0.1,0.4,0.2c0.1,0.1,0.3,0.2,0.4,0.3c0.1,0.1,0.2,0.2,0.3,0.4c0.1,0.1,0.2,0.3,0.2,0.4
				c0.1,0.1,0.1,0.3,0.1,0.5c0,0.2,0,0.3,0,0.5c0,0.7-0.3,1.3-0.7,1.8C59.6,52.2,59,52.5,58.3,52.5z"/>
			<path d="M55.9,58.4c-0.6,0-1.3-0.2-1.8-0.7c-1-1-1-2.6,0-3.5c1-1,2.6-1,3.5,0c1,1,1,2.6,0,3.5l0,0C57.2,58.1,56.5,58.4,55.9,58.4
				z"/>
			<path d="M50,60.8c-0.7,0-1.3-0.3-1.8-0.7c-0.1-0.1-0.2-0.2-0.3-0.4c-0.1-0.1-0.2-0.3-0.2-0.4c-0.1-0.2-0.1-0.3-0.1-0.5
				c0-0.2,0-0.3,0-0.5c0-0.7,0.3-1.3,0.7-1.8c0.9-0.9,2.6-0.9,3.5,0c0.5,0.5,0.7,1.1,0.7,1.8c0,0.2,0,0.3,0,0.5
				c0,0.2-0.1,0.3-0.1,0.5c-0.1,0.1-0.1,0.3-0.2,0.4c-0.1,0.1-0.2,0.3-0.3,0.4C51.3,60.6,50.7,60.8,50,60.8z"/>
		</g>
	</g>
</g>
</svg>
