<?xml version="1.0" encoding="utf-8"?>
<!-- Generator: Adobe Illustrator 26.5.1, SVG Export Plug-In . SVG Version: 6.00 Build 0)  -->
<svg version="1.1" id="Ebene_1" xmlns="http://www.w3.org/2000/svg" xmlns:xlink="http://www.w3.org/1999/xlink" x="0px" y="0px"
	 viewBox="0 0 100 100" style="enable-background:new 0 0 100 100;" xml:space="preserve">
<g>
	<g>
		<g>
			<path d="M16.7,33.8H0c-0.3,0-0.5-0.2-0.5-0.5s0.2-0.5,0.5-0.5h16.7c0.3,0,0.5,0.2,0.5,0.5S16.9,33.8,16.7,33.8z"/>
			<path d="M16.7,17.2H0c-0.3,0-0.5-0.2-0.5-0.5s0.2-0.5,0.5-0.5h16.7c0.3,0,0.5,0.2,0.5,0.5S16.9,17.2,16.7,17.2z"/>
			<path d="M16.7,25.5H0c-0.3,0-0.5-0.2-0.5-0.5s0.2-0.5,0.5-0.5h16.7c0.3,0,0.5,0.2,0.5,0.5S16.9,25.5,16.7,25.5z"/>
			<path d="M16.7,8.8H0c-0.3,0-0.5-0.2-0.5-0.5S-0.3,7.8,0,7.8h16.7c0.3,0,0.5,0.2,0.5,0.5S16.9,8.8,16.7,8.8z"/>
			<path d="M16.7,0.5H0c-0.3,0-0.5-0.2-0.5-0.5S-0.3-0.5,0-0.5h16.7c0.3,0,0.5,0.2,0.5,0.5S16.9,0.5,16.7,0.5z"/>
			<path d="M16.7,100.5H0c-0.3,0-0.5-0.2-0.5-0.5s0.2-0.5,0.5-0.5h16.7c0.3,0,0.5,0.2,0.5,0.5S16.9,100.5,16.7,100.5z"/>
			<path d="M16.7,92.2H0c-0.3,0-0.5-0.2-0.5-0.5s0.2-0.5,0.5-0.5h16.7c0.3,0,0.5,0.2,0.5,0.5S16.9,92.2,16.7,92.2z"/>
			<path d="M16.7,75.5H0c-0.3,0-0.5-0.2-0.5-0.5s0.2-0.5,0.5-0.5h16.7c0.3,0,0.5,0.2,0.5,0.5S16.9,75.5,16.7,75.5z"/>
			<path d="M16.7,83.8L16.7,83.8L0,83.8c-0.3,0-0.5-0.2-0.5-0.5s0.2-0.5,0.5-0.5l0,0l16.7,0c0.3,0,0.5,0.2,0.5,0.5
				S16.9,83.8,16.7,83.8z"/>
			<path d="M16.7,67.2H0c-0.3,0-0.5-0.2-0.5-0.5s0.2-0.5,0.5-0.5h16.7c0.3,0,0.5,0.2,0.5,0.5S16.9,67.2,16.7,67.2z"/>
		</g>
		<g>
			<path d="M33.3,37.8H16.7c-0.3,0-0.5-0.2-0.5-0.5s0.2-0.5,0.5-0.5h16.7c0.3,0,0.5,0.2,0.5,0.5S33.6,37.8,33.3,37.8z"/>
			<path d="M33.3,21.2H16.7c-0.3,0-0.5-0.2-0.5-0.5s0.2-0.5,0.5-0.5h16.7c0.3,0,0.5,0.2,0.5,0.5S33.6,21.2,33.3,21.2z"/>
			<path d="M33.3,29.5H16.7c-0.3,0-0.5-0.2-0.5-0.5s0.2-0.5,0.5-0.5h16.7c0.3,0,0.5,0.2,0.5,0.5S33.6,29.5,33.3,29.5z"/>
			<path d="M33.3,12.8H16.7c-0.3,0-0.5-0.2-0.5-0.5s0.2-0.5,0.5-0.5h16.7c0.3,0,0.5,0.2,0.5,0.5S33.6,12.8,33.3,12.8z"/>
			<path d="M33.3,4.5H16.7c-0.3,0-0.5-0.2-0.5-0.5s0.2-0.5,0.5-0.5h16.7c0.3,0,0.5,0.2,0.5,0.5S33.6,4.5,33.3,4.5z"/>
			<path d="M33.3,104.5L33.3,104.5l-16.7,0c-0.3,0-0.5-0.2-0.5-0.5s0.2-0.5,0.5-0.5l0,0l16.7,0c0.3,0,0.5,0.2,0.5,0.5
				S33.6,104.5,33.3,104.5z"/>
			<path d="M33.3,96.2L33.3,96.2l-16.7,0c-0.3,0-0.5-0.2-0.5-0.5s0.2-0.5,0.5-0.5l0,0l16.7,0c0.3,0,0.5,0.2,0.5,0.5
				S33.6,96.2,33.3,96.2z"/>
			<path d="M33.3,79.5H16.7c-0.3,0-0.5-0.2-0.5-0.5s0.2-0.5,0.5-0.5h16.7c0.3,0,0.5,0.2,0.5,0.5S33.6,79.5,33.3,79.5z"/>
			<path d="M33.3,87.8H16.7c-0.3,0-0.5-0.2-0.5-0.5s0.2-0.5,0.5-0.5h16.7c0.3,0,0.5,0.2,0.5,0.5S33.6,87.8,33.3,87.8z"/>
			<path d="M33.3,71.2H16.7c-0.3,0-0.5-0.2-0.5-0.5s0.2-0.5,0.5-0.5h16.7c0.3,0,0.5,0.2,0.5,0.5S33.6,71.2,33.3,71.2z"/>
		</g>
		<g>
			<path d="M50,33.8H33.3c-0.3,0-0.5-0.2-0.5-0.5s0.2-0.5,0.5-0.5H50c0.3,0,0.5,0.2,0.5,0.5S50.3,33.8,50,33.8z"/>
			<path d="M50,17.2H33.3c-0.3,0-0.5-0.2-0.5-0.5s0.2-0.5,0.5-0.5H50c0.3,0,0.5,0.2,0.5,0.5S50.3,17.2,50,17.2z"/>
			<path d="M50,25.5H33.3c-0.3,0-0.5-0.2-0.5-0.5s0.2-0.5,0.5-0.5H50c0.3,0,0.5,0.2,0.5,0.5S50.3,25.5,50,25.5z"/>
			<path d="M50,8.8H33.3c-0.3,0-0.5-0.2-0.5-0.5s0.2-0.5,0.5-0.5H50c0.3,0,0.5,0.2,0.5,0.5S50.3,8.8,50,8.8z"/>
			<path d="M50,0.5H33.3c-0.3,0-0.5-0.2-0.5-0.5s0.2-0.5,0.5-0.5H50c0.3,0,0.5,0.2,0.5,0.5S50.3,0.5,50,0.5z"/>
			<path d="M50,100.5H33.3c-0.3,0-0.5-0.2-0.5-0.5s0.2-0.5,0.5-0.5H50c0.3,0,0.5,0.2,0.5,0.5S50.3,100.5,50,100.5z"/>
			<path d="M50,92.2H33.3c-0.3,0-0.5-0.2-0.5-0.5s0.2-0.5,0.5-0.5H50c0.3,0,0.5,0.2,0.5,0.5S50.3,92.2,50,92.2z"/>
			<path d="M50,75.5H33.3c-0.3,0-0.5-0.2-0.5-0.5s0.2-0.5,0.5-0.5H50c0.3,0,0.5,0.2,0.5,0.5S50.3,75.5,50,75.5z"/>
			<path d="M50,83.8L50,83.8l-16.7,0c-0.3,0-0.5-0.2-0.5-0.5s0.2-0.5,0.5-0.5l0,0l16.7,0c0.3,0,0.5,0.2,0.5,0.5S50.3,83.8,50,83.8z"
				/>
			<path d="M50,67.2H33.3c-0.3,0-0.5-0.2-0.5-0.5s0.2-0.5,0.5-0.5H50c0.3,0,0.5,0.2,0.5,0.5S50.3,67.2,50,67.2z"/>
		</g>
		<g>
			<path d="M66.7,37.8H50c-0.3,0-0.5-0.2-0.5-0.5s0.2-0.5,0.5-0.5h16.7c0.3,0,0.5,0.2,0.5,0.5S66.9,37.8,66.7,37.8z"/>
			<path d="M66.7,21.2H50c-0.3,0-0.5-0.2-0.5-0.5s0.2-0.5,0.5-0.5h16.7c0.3,0,0.5,0.2,0.5,0.5S66.9,21.2,66.7,21.2z"/>
			<path d="M66.7,29.5H50c-0.3,0-0.5-0.2-0.5-0.5s0.2-0.5,0.5-0.5h16.7c0.3,0,0.5,0.2,0.5,0.5S66.9,29.5,66.7,29.5z"/>
			<path d="M66.7,12.8H50c-0.3,0-0.5-0.2-0.5-0.5s0.2-0.5,0.5-0.5h16.7c0.3,0,0.5,0.2,0.5,0.5S66.9,12.8,66.7,12.8z"/>
			<path d="M66.7,4.5H50c-0.3,0-0.5-0.2-0.5-0.5s0.2-0.5,0.5-0.5h16.7c0.3,0,0.5,0.2,0.5,0.5S66.9,4.5,66.7,4.5z"/>
			<path d="M66.7,104.5L66.7,104.5l-16.7,0c-0.3,0-0.5-0.2-0.5-0.5s0.2-0.5,0.5-0.5l0,0l16.7,0c0.3,0,0.5,0.2,0.5,0.5
				S66.9,104.5,66.7,104.5z"/>
			<path d="M66.7,96.2L66.7,96.2l-16.7,0c-0.3,0-0.5-0.2-0.5-0.5s0.2-0.5,0.5-0.5l0,0l16.7,0c0.3,0,0.5,0.2,0.5,0.5
				S66.9,96.2,66.7,96.2z"/>
			<path d="M66.7,79.5H50c-0.3,0-0.5-0.2-0.5-0.5s0.2-0.5,0.5-0.5h16.7c0.3,0,0.5,0.2,0.5,0.5S66.9,79.5,66.7,79.5z"/>
			<path d="M66.7,87.8H50c-0.3,0-0.5-0.2-0.5-0.5s0.2-0.5,0.5-0.5h16.7c0.3,0,0.5,0.2,0.5,0.5S66.9,87.8,66.7,87.8z"/>
			<path d="M66.7,71.2H50c-0.3,0-0.5-0.2-0.5-0.5s0.2-0.5,0.5-0.5h16.7c0.3,0,0.5,0.2,0.5,0.5S66.9,71.2,66.7,71.2z"/>
		</g>
		<g>
			<path d="M83.3,33.8H66.7c-0.3,0-0.5-0.2-0.5-0.5s0.2-0.5,0.5-0.5h16.7c0.3,0,0.5,0.2,0.5,0.5S83.6,33.8,83.3,33.8z"/>
			<path d="M83.3,17.2H66.7c-0.3,0-0.5-0.2-0.5-0.5s0.2-0.5,0.5-0.5h16.7c0.3,0,0.5,0.2,0.5,0.5S83.6,17.2,83.3,17.2z"/>
			<path d="M83.3,25.5H66.7c-0.3,0-0.5-0.2-0.5-0.5s0.2-0.5,0.5-0.5h16.7c0.3,0,0.5,0.2,0.5,0.5S83.6,25.5,83.3,25.5z"/>
			<path d="M83.3,8.8H66.7c-0.3,0-0.5-0.2-0.5-0.5s0.2-0.5,0.5-0.5h16.7c0.3,0,0.5,0.2,0.5,0.5S83.6,8.8,83.3,8.8z"/>
			<path d="M83.3,0.5H66.7c-0.3,0-0.5-0.2-0.5-0.5s0.2-0.5,0.5-0.5h16.7c0.3,0,0.5,0.2,0.5,0.5S83.6,0.5,83.3,0.5z"/>
			<path d="M83.3,100.5H66.7c-0.3,0-0.5-0.2-0.5-0.5s0.2-0.5,0.5-0.5h16.7c0.3,0,0.5,0.2,0.5,0.5S83.6,100.5,83.3,100.5z"/>
			<path d="M83.3,92.2H66.7c-0.3,0-0.5-0.2-0.5-0.5s0.2-0.5,0.5-0.5h16.7c0.3,0,0.5,0.2,0.5,0.5S83.6,92.2,83.3,92.2z"/>
			<path d="M83.3,75.5H66.7c-0.3,0-0.5-0.2-0.5-0.5s0.2-0.5,0.5-0.5h16.7c0.3,0,0.5,0.2,0.5,0.5S83.6,75.5,83.3,75.5z"/>
			<path d="M83.3,83.8L83.3,83.8l-16.7,0c-0.3,0-0.5-0.2-0.5-0.5s0.2-0.5,0.5-0.5l0,0l16.7,0c0.3,0,0.5,0.2,0.5,0.5
				S83.6,83.8,83.3,83.8z"/>
			<path d="M83.3,67.2H66.7c-0.3,0-0.5-0.2-0.5-0.5s0.2-0.5,0.5-0.5h16.7c0.3,0,0.5,0.2,0.5,0.5S83.6,67.2,83.3,67.2z"/>
		</g>
	</g>
</g>
</svg>
