<?xml version="1.0" encoding="utf-8"?>
<!-- Generator: Adobe Illustrator 26.5.1, SVG Export Plug-In . SVG Version: 6.00 Build 0)  -->
<svg version="1.1" id="Ebene_1" xmlns="http://www.w3.org/2000/svg" xmlns:xlink="http://www.w3.org/1999/xlink" x="0px" y="0px"
	 viewBox="0 0 100 100" style="enable-background:new 0 0 100 100;" xml:space="preserve">
<g>
	<g>
		<path d="M0,100.5c-0.3,0-0.5-0.2-0.5-0.5V50C-0.5,22.2,22.2-0.5,50-0.5h50c0.3,0,0.5,0.2,0.5,0.5s-0.2,0.5-0.5,0.5H50
			C22.7,0.5,0.5,22.7,0.5,50v50C0.5,100.3,0.3,100.5,0,100.5z"/>
		<path d="M8.3,100.5c-0.3,0-0.5-0.2-0.5-0.5V50C7.8,26.7,26.7,7.8,50,7.8h50c0.3,0,0.5,0.2,0.5,0.5s-0.2,0.5-0.5,0.5H50
			C27.3,8.8,8.8,27.3,8.8,50v50C8.8,100.3,8.6,100.5,8.3,100.5z"/>
		<path d="M16.7,100.5c-0.3,0-0.5-0.2-0.5-0.5V50c0-18.7,15.2-33.8,33.8-33.8h50c0.3,0,0.5,0.2,0.5,0.5s-0.2,0.5-0.5,0.5H50
			c-18.1,0-32.8,14.7-32.8,32.8v50C17.2,100.3,16.9,100.5,16.7,100.5z"/>
		<path d="M25,100.5c-0.3,0-0.5-0.2-0.5-0.5V50c0-14.1,11.4-25.5,25.5-25.5h50c0.3,0,0.5,0.2,0.5,0.5s-0.2,0.5-0.5,0.5H50
			c-13.5,0-24.5,11-24.5,24.5v50C25.5,100.3,25.3,100.5,25,100.5z"/>
		<path d="M33.3,100.5c-0.3,0-0.5-0.2-0.5-0.5V50c0-9.5,7.7-17.2,17.2-17.2h50c0.3,0,0.5,0.2,0.5,0.5s-0.2,0.5-0.5,0.5H50
			c-8.9,0-16.2,7.3-16.2,16.2v50C33.8,100.3,33.6,100.5,33.3,100.5z"/>
		<path d="M41.7,100.5c-0.3,0-0.5-0.2-0.5-0.5V50c0-4.9,4-8.8,8.8-8.8h50c0.3,0,0.5,0.2,0.5,0.5s-0.2,0.5-0.5,0.5H50
			c-4.3,0-7.8,3.5-7.8,7.8v50C42.2,100.3,41.9,100.5,41.7,100.5z"/>
	</g>
</g>
</svg>
