<?xml version="1.0" encoding="utf-8"?>
<!-- Generator: Adobe Illustrator 26.5.1, SVG Export Plug-In . SVG Version: 6.00 Build 0)  -->
<svg version="1.1" id="Ebene_1" xmlns="http://www.w3.org/2000/svg" xmlns:xlink="http://www.w3.org/1999/xlink" x="0px" y="0px"
	 viewBox="0 0 100 100" style="enable-background:new 0 0 100 100;" xml:space="preserve">
<g>
	<g>
		<g>
			<path d="M100,33.8H66.7c-0.3,0-0.5-0.2-0.5-0.5s0.2-0.5,0.5-0.5H100c0.3,0,0.5,0.2,0.5,0.5S100.3,33.8,100,33.8z"/>
			<path d="M100,17.2H66.7c-0.3,0-0.5-0.2-0.5-0.5s0.2-0.5,0.5-0.5H100c0.3,0,0.5,0.2,0.5,0.5S100.3,17.2,100,17.2z"/>
			<path d="M100,25.5l-33.3,0c-0.3,0-0.5-0.2-0.5-0.5s0.2-0.5,0.5-0.5l0,0l33.3,0c0.3,0,0.5,0.2,0.5,0.5S100.3,25.5,100,25.5z"/>
			<path d="M100,8.8H66.7c-0.3,0-0.5-0.2-0.5-0.5s0.2-0.5,0.5-0.5H100c0.3,0,0.5,0.2,0.5,0.5S100.3,8.8,100,8.8z"/>
			<path d="M100,0.5H66.7c-0.3,0-0.5-0.2-0.5-0.5s0.2-0.5,0.5-0.5H100c0.3,0,0.5,0.2,0.5,0.5S100.3,0.5,100,0.5z"/>
			<path d="M100,100.5H66.7c-0.3,0-0.5-0.2-0.5-0.5s0.2-0.5,0.5-0.5H100c0.3,0,0.5,0.2,0.5,0.5S100.3,100.5,100,100.5z"/>
			<path d="M100,92.2H66.7c-0.3,0-0.5-0.2-0.5-0.5s0.2-0.5,0.5-0.5H100c0.3,0,0.5,0.2,0.5,0.5S100.3,92.2,100,92.2z"/>
			<path d="M100,75.5H66.7c-0.3,0-0.5-0.2-0.5-0.5s0.2-0.5,0.5-0.5H100c0.3,0,0.5,0.2,0.5,0.5S100.3,75.5,100,75.5z"/>
			<path d="M100,83.8L100,83.8l-33.3,0c-0.3,0-0.5-0.2-0.5-0.5s0.2-0.5,0.5-0.5l33.3,0c0.3,0,0.5,0.2,0.5,0.5S100.3,83.8,100,83.8z"
				/>
			<path d="M100,67.2H66.7c-0.3,0-0.5-0.2-0.5-0.5s0.2-0.5,0.5-0.5H100c0.3,0,0.5,0.2,0.5,0.5S100.3,67.2,100,67.2z"/>
		</g>
		<g>
			<path d="M33.3,33.8H16.7c-0.3,0-0.5-0.2-0.5-0.5s0.2-0.5,0.5-0.5h16.7c0.3,0,0.5,0.2,0.5,0.5S33.6,33.8,33.3,33.8z"/>
			<path d="M33.3,17.2H16.7c-0.3,0-0.5-0.2-0.5-0.5s0.2-0.5,0.5-0.5h16.7c0.3,0,0.5,0.2,0.5,0.5S33.6,17.2,33.3,17.2z"/>
			<path d="M33.3,25.5L33.3,25.5l-16.7,0c-0.3,0-0.5-0.2-0.5-0.5s0.2-0.5,0.5-0.5l0,0l16.7,0c0.3,0,0.5,0.2,0.5,0.5
				S33.6,25.5,33.3,25.5z"/>
			<path d="M33.3,8.8H16.7c-0.3,0-0.5-0.2-0.5-0.5s0.2-0.5,0.5-0.5h16.7c0.3,0,0.5,0.2,0.5,0.5S33.6,8.8,33.3,8.8z"/>
			<path d="M33.3,0.5H16.7c-0.3,0-0.5-0.2-0.5-0.5s0.2-0.5,0.5-0.5h16.7c0.3,0,0.5,0.2,0.5,0.5S33.6,0.5,33.3,0.5z"/>
			<path d="M33.3,100.5H16.7c-0.3,0-0.5-0.2-0.5-0.5s0.2-0.5,0.5-0.5h16.7c0.3,0,0.5,0.2,0.5,0.5S33.6,100.5,33.3,100.5z"/>
			<path d="M33.3,92.2H16.7c-0.3,0-0.5-0.2-0.5-0.5s0.2-0.5,0.5-0.5h16.7c0.3,0,0.5,0.2,0.5,0.5S33.6,92.2,33.3,92.2z"/>
			<path d="M33.3,75.5H16.7c-0.3,0-0.5-0.2-0.5-0.5s0.2-0.5,0.5-0.5h16.7c0.3,0,0.5,0.2,0.5,0.5S33.6,75.5,33.3,75.5z"/>
			<path d="M33.3,83.8L33.3,83.8l-16.7,0c-0.3,0-0.5-0.2-0.5-0.5s0.2-0.5,0.5-0.5l0,0l16.7,0c0.3,0,0.5,0.2,0.5,0.5
				S33.6,83.8,33.3,83.8z"/>
			<path d="M33.3,67.2H16.7c-0.3,0-0.5-0.2-0.5-0.5s0.2-0.5,0.5-0.5h16.7c0.3,0,0.5,0.2,0.5,0.5S33.6,67.2,33.3,67.2z"/>
		</g>
		<path d="M50,100.5C22.2,100.5-0.5,77.8-0.5,50S22.2-0.5,50-0.5c0.3,0,0.5,0.2,0.5,0.5S50.3,0.5,50,0.5C22.7,0.5,0.5,22.7,0.5,50
			S22.7,99.5,50,99.5c0.3,0,0.5,0.2,0.5,0.5S50.3,100.5,50,100.5z"/>
		<path d="M50,92.2C26.7,92.2,7.8,73.3,7.8,50S26.7,7.8,50,7.8c0.3,0,0.5,0.2,0.5,0.5S50.3,8.8,50,8.8C27.3,8.8,8.8,27.3,8.8,50
			S27.3,91.2,50,91.2c0.3,0,0.5,0.2,0.5,0.5S50.3,92.2,50,92.2z"/>
		<path d="M50,83.8c-18.7,0-33.8-15.2-33.8-33.8S31.3,16.2,50,16.2c0.3,0,0.5,0.2,0.5,0.5s-0.2,0.5-0.5,0.5
			c-18.1,0-32.8,14.7-32.8,32.8S31.9,82.8,50,82.8c0.3,0,0.5,0.2,0.5,0.5S50.3,83.8,50,83.8z"/>
		<path d="M50,75.5c-14.1,0-25.5-11.4-25.5-25.5S35.9,24.5,50,24.5c0.3,0,0.5,0.2,0.5,0.5s-0.2,0.5-0.5,0.5
			c-13.5,0-24.5,11-24.5,24.5s11,24.5,24.5,24.5c0.3,0,0.5,0.2,0.5,0.5S50.3,75.5,50,75.5z"/>
		<path d="M50,67.2c-9.5,0-17.2-7.7-17.2-17.2S40.5,32.8,50,32.8c0.3,0,0.5,0.2,0.5,0.5s-0.2,0.5-0.5,0.5c-8.9,0-16.2,7.3-16.2,16.2
			S41.1,66.2,50,66.2c0.3,0,0.5,0.2,0.5,0.5S50.3,67.2,50,67.2z"/>
		<path d="M50,58.8c-4.9,0-8.8-4-8.8-8.8s4-8.8,8.8-8.8c0.3,0,0.5,0.2,0.5,0.5s-0.2,0.5-0.5,0.5c-4.3,0-7.8,3.5-7.8,7.8
			s3.5,7.8,7.8,7.8c0.3,0,0.5,0.2,0.5,0.5S50.3,58.8,50,58.8z"/>
	</g>
</g>
</svg>
