<?xml version="1.0" encoding="utf-8"?>
<!-- Generator: Adobe Illustrator 26.5.1, SVG Export Plug-In . SVG Version: 6.00 Build 0)  -->
<svg version="1.1" id="Ebene_1" xmlns="http://www.w3.org/2000/svg" xmlns:xlink="http://www.w3.org/1999/xlink" x="0px" y="0px"
	 viewBox="0 0 100 100" style="enable-background:new 0 0 100 100;" xml:space="preserve">
<g>
	<g>
		<path d="M100,33.8H0c-0.3,0-0.5-0.2-0.5-0.5s0.2-0.5,0.5-0.5h100c0.3,0,0.5,0.2,0.5,0.5S100.3,33.8,100,33.8z"/>
		<path d="M100,17.2H0c-0.3,0-0.5-0.2-0.5-0.5s0.2-0.5,0.5-0.5h100c0.3,0,0.5,0.2,0.5,0.5S100.3,17.2,100,17.2z"/>
		<path d="M100,25.5l-100,0c-0.3,0-0.5-0.2-0.5-0.5s0.2-0.5,0.5-0.5l100,0c0.3,0,0.5,0.2,0.5,0.5S100.3,25.5,100,25.5z"/>
		<path d="M100,8.8H0c-0.3,0-0.5-0.2-0.5-0.5S-0.3,7.8,0,7.8h100c0.3,0,0.5,0.2,0.5,0.5S100.3,8.8,100,8.8z"/>
		<path d="M100,0.5H0c-0.3,0-0.5-0.2-0.5-0.5S-0.3-0.5,0-0.5h100c0.3,0,0.5,0.2,0.5,0.5S100.3,0.5,100,0.5z"/>
		<g>
			<path d="M100,100.5h-8.4c-0.3,0-0.5-0.2-0.5-0.5s0.2-0.5,0.5-0.5h8.4c0.3,0,0.5,0.2,0.5,0.5S100.3,100.5,100,100.5z"/>
			<path d="M100,92.2h-8.4c-0.3,0-0.5-0.2-0.5-0.5s0.2-0.5,0.5-0.5h8.4c0.3,0,0.5,0.2,0.5,0.5S100.3,92.2,100,92.2z"/>
			<path d="M100,75.5h-8.4c-0.3,0-0.5-0.2-0.5-0.5s0.2-0.5,0.5-0.5h8.4c0.3,0,0.5,0.2,0.5,0.5S100.3,75.5,100,75.5z"/>
			<path d="M91.7,83.8c-0.3,0-0.5-0.2-0.5-0.5s0.2-0.5,0.5-0.5l8.4,0c0.3,0,0.5,0.2,0.5,0.5s-0.2,0.5-0.5,0.5L91.7,83.8z"/>
			<path d="M100,67.2h-8.4c-0.3,0-0.5-0.2-0.5-0.5s0.2-0.5,0.5-0.5h8.4c0.3,0,0.5,0.2,0.5,0.5S100.3,67.2,100,67.2z"/>
		</g>
		<g>
			<path d="M8.4,100.5H0c-0.3,0-0.5-0.2-0.5-0.5s0.2-0.5,0.5-0.5h8.4c0.3,0,0.5,0.2,0.5,0.5S8.6,100.5,8.4,100.5z"/>
			<path d="M8.4,92.2H0c-0.3,0-0.5-0.2-0.5-0.5s0.2-0.5,0.5-0.5h8.4c0.3,0,0.5,0.2,0.5,0.5S8.6,92.2,8.4,92.2z"/>
			<path d="M8.4,75.5H0c-0.3,0-0.5-0.2-0.5-0.5s0.2-0.5,0.5-0.5h8.4c0.3,0,0.5,0.2,0.5,0.5S8.6,75.5,8.4,75.5z"/>
			<path d="M0,83.8c-0.3,0-0.5-0.2-0.5-0.5s0.2-0.5,0.5-0.5l8.4,0c0.3,0,0.5,0.2,0.5,0.5s-0.2,0.5-0.5,0.5L0,83.8z"/>
			<path d="M8.4,67.2H0c-0.3,0-0.5-0.2-0.5-0.5s0.2-0.5,0.5-0.5h8.4c0.3,0,0.5,0.2,0.5,0.5S8.6,67.2,8.4,67.2z"/>
		</g>
		<g>
			<path d="M25,100.5h-8.4c-0.3,0-0.5-0.2-0.5-0.5s0.2-0.5,0.5-0.5H25c0.3,0,0.5,0.2,0.5,0.5S25.3,100.5,25,100.5z"/>
			<path d="M25,92.2h-8.4c-0.3,0-0.5-0.2-0.5-0.5s0.2-0.5,0.5-0.5H25c0.3,0,0.5,0.2,0.5,0.5S25.3,92.2,25,92.2z"/>
			<path d="M25,75.5h-8.4c-0.3,0-0.5-0.2-0.5-0.5s0.2-0.5,0.5-0.5H25c0.3,0,0.5,0.2,0.5,0.5S25.3,75.5,25,75.5z"/>
			<path d="M16.7,83.8c-0.3,0-0.5-0.2-0.5-0.5s0.2-0.5,0.5-0.5l8.4,0c0.3,0,0.5,0.2,0.5,0.5s-0.2,0.5-0.5,0.5L16.7,83.8z"/>
			<path d="M25,67.2h-8.4c-0.3,0-0.5-0.2-0.5-0.5s0.2-0.5,0.5-0.5H25c0.3,0,0.5,0.2,0.5,0.5S25.3,67.2,25,67.2z"/>
		</g>
		<g>
			<path d="M41.7,100.5h-8.4c-0.3,0-0.5-0.2-0.5-0.5s0.2-0.5,0.5-0.5h8.4c0.3,0,0.5,0.2,0.5,0.5S42,100.5,41.7,100.5z"/>
			<path d="M41.7,92.2h-8.4c-0.3,0-0.5-0.2-0.5-0.5s0.2-0.5,0.5-0.5h8.4c0.3,0,0.5,0.2,0.5,0.5S42,92.2,41.7,92.2z"/>
			<path d="M41.7,75.5h-8.4c-0.3,0-0.5-0.2-0.5-0.5s0.2-0.5,0.5-0.5h8.4c0.3,0,0.5,0.2,0.5,0.5S42,75.5,41.7,75.5z"/>
			<path d="M33.3,83.8c-0.3,0-0.5-0.2-0.5-0.5s0.2-0.5,0.5-0.5l8.4,0c0.3,0,0.5,0.2,0.5,0.5s-0.2,0.5-0.5,0.5L33.3,83.8z"/>
			<path d="M41.7,67.2h-8.4c-0.3,0-0.5-0.2-0.5-0.5s0.2-0.5,0.5-0.5h8.4c0.3,0,0.5,0.2,0.5,0.5S42,67.2,41.7,67.2z"/>
		</g>
		<g>
			<path d="M66.7,100.5h-8.4c-0.3,0-0.5-0.2-0.5-0.5s0.2-0.5,0.5-0.5h8.4c0.3,0,0.5,0.2,0.5,0.5S67,100.5,66.7,100.5z"/>
			<path d="M66.7,92.2h-8.4c-0.3,0-0.5-0.2-0.5-0.5s0.2-0.5,0.5-0.5h8.4c0.3,0,0.5,0.2,0.5,0.5S67,92.2,66.7,92.2z"/>
			<path d="M66.7,75.5h-8.4c-0.3,0-0.5-0.2-0.5-0.5s0.2-0.5,0.5-0.5h8.4c0.3,0,0.5,0.2,0.5,0.5S67,75.5,66.7,75.5z"/>
			<path d="M58.3,83.8c-0.3,0-0.5-0.2-0.5-0.5s0.2-0.5,0.5-0.5l8.4,0c0.3,0,0.5,0.2,0.5,0.5s-0.2,0.5-0.5,0.5L58.3,83.8z"/>
			<path d="M66.7,67.2h-8.4c-0.3,0-0.5-0.2-0.5-0.5s0.2-0.5,0.5-0.5h8.4c0.3,0,0.5,0.2,0.5,0.5S67,67.2,66.7,67.2z"/>
		</g>
		<path d="M83.3,100.5H75c-0.3,0-0.5-0.2-0.5-0.5s0.2-0.5,0.5-0.5h8.4c0.3,0,0.5,0.2,0.5,0.5S83.6,100.5,83.3,100.5z"/>
		<path d="M83.3,92.2H75c-0.3,0-0.5-0.2-0.5-0.5s0.2-0.5,0.5-0.5h8.4c0.3,0,0.5,0.2,0.5,0.5S83.6,92.2,83.3,92.2z"/>
		<path d="M83.3,75.5H75c-0.3,0-0.5-0.2-0.5-0.5s0.2-0.5,0.5-0.5h8.4c0.3,0,0.5,0.2,0.5,0.5S83.6,75.5,83.3,75.5z"/>
		<path d="M75,83.8c-0.3,0-0.5-0.2-0.5-0.5s0.2-0.5,0.5-0.5l8.4,0c0.3,0,0.5,0.2,0.5,0.5s-0.2,0.5-0.5,0.5L75,83.8z"/>
		<path d="M83.3,67.2H75c-0.3,0-0.5-0.2-0.5-0.5s0.2-0.5,0.5-0.5h8.4c0.3,0,0.5,0.2,0.5,0.5S83.6,67.2,83.3,67.2z"/>
		<g>
			<path d="M58.3,100.5c-0.3,0-0.5-0.2-0.5-0.5V83.3c0-0.3,0.2-0.5,0.5-0.5s0.5,0.2,0.5,0.5V100C58.8,100.3,58.6,100.5,58.3,100.5z"
				/>
			<path d="M50,100.5c-0.3,0-0.5-0.2-0.5-0.5V83.3c0-0.3,0.2-0.5,0.5-0.5s0.5,0.2,0.5,0.5V100C50.5,100.3,50.3,100.5,50,100.5z"/>
			<path d="M66.7,100.5c-0.3,0-0.5-0.2-0.5-0.5V83.3c0-0.3,0.2-0.5,0.5-0.5s0.5,0.2,0.5,0.5V100C67.2,100.3,66.9,100.5,66.7,100.5z"
				/>
			<path d="M83.3,100.5c-0.3,0-0.5-0.2-0.5-0.5V83.3c0-0.3,0.2-0.5,0.5-0.5s0.5,0.2,0.5,0.5V100C83.8,100.3,83.6,100.5,83.3,100.5z"
				/>
			<path d="M75,100.5c-0.3,0-0.5-0.2-0.5-0.5V83.3c0-0.3,0.2-0.5,0.5-0.5s0.5,0.2,0.5,0.5V100C75.5,100.3,75.3,100.5,75,100.5z"/>
			<path d="M25,100.5c-0.3,0-0.5-0.2-0.5-0.5V83.3c0-0.3,0.2-0.5,0.5-0.5s0.5,0.2,0.5,0.5V100C25.5,100.3,25.3,100.5,25,100.5z"/>
			<path d="M16.7,100.5c-0.3,0-0.5-0.2-0.5-0.5V83.3c0-0.3,0.2-0.5,0.5-0.5s0.5,0.2,0.5,0.5V100C17.2,100.3,16.9,100.5,16.7,100.5z"
				/>
			<path d="M33.3,100.5c-0.3,0-0.5-0.2-0.5-0.5V83.3c0-0.3,0.2-0.5,0.5-0.5s0.5,0.2,0.5,0.5V100C33.8,100.3,33.6,100.5,33.3,100.5z"
				/>
			<path d="M41.7,100.5c-0.3,0-0.5-0.2-0.5-0.5V83.3c0-0.3,0.2-0.5,0.5-0.5s0.5,0.2,0.5,0.5V100C42.2,100.3,41.9,100.5,41.7,100.5z"
				/>
		</g>
		<g>
			<path d="M58.3,67.2c-0.3,0-0.5-0.2-0.5-0.5V50c0-0.3,0.2-0.5,0.5-0.5s0.5,0.2,0.5,0.5v16.7C58.8,66.9,58.6,67.2,58.3,67.2z"/>
			<path d="M50,67.2c-0.3,0-0.5-0.2-0.5-0.5V50c0-0.3,0.2-0.5,0.5-0.5s0.5,0.2,0.5,0.5v16.7C50.5,66.9,50.3,67.2,50,67.2z"/>
			<path d="M66.7,67.2c-0.3,0-0.5-0.2-0.5-0.5V50c0-0.3,0.2-0.5,0.5-0.5s0.5,0.2,0.5,0.5v16.7C67.2,66.9,66.9,67.2,66.7,67.2z"/>
			<path d="M83.3,67.2c-0.3,0-0.5-0.2-0.5-0.5V50c0-0.3,0.2-0.5,0.5-0.5s0.5,0.2,0.5,0.5v16.7C83.8,66.9,83.6,67.2,83.3,67.2z"/>
			<path d="M75,67.2c-0.3,0-0.5-0.2-0.5-0.5V50c0-0.3,0.2-0.5,0.5-0.5s0.5,0.2,0.5,0.5v16.7C75.5,66.9,75.3,67.2,75,67.2z"/>
			<path d="M25,67.2c-0.3,0-0.5-0.2-0.5-0.5V50c0-0.3,0.2-0.5,0.5-0.5s0.5,0.2,0.5,0.5v16.7C25.5,66.9,25.3,67.2,25,67.2z"/>
			<path d="M16.7,67.2c-0.3,0-0.5-0.2-0.5-0.5V50c0-0.3,0.2-0.5,0.5-0.5s0.5,0.2,0.5,0.5v16.7C17.2,66.9,16.9,67.2,16.7,67.2z"/>
			<path d="M33.3,67.2c-0.3,0-0.5-0.2-0.5-0.5V50c0-0.3,0.2-0.5,0.5-0.5s0.5,0.2,0.5,0.5v16.7C33.8,66.9,33.6,67.2,33.3,67.2z"/>
			<path d="M41.7,67.2c-0.3,0-0.5-0.2-0.5-0.5V50c0-0.3,0.2-0.5,0.5-0.5s0.5,0.2,0.5,0.5v16.7C42.2,66.9,41.9,67.2,41.7,67.2z"/>
		</g>
		<path d="M50,100.5C22.2,100.5-0.5,77.8-0.5,50c0-0.3,0.2-0.5,0.5-0.5s0.5,0.2,0.5,0.5c0,27.3,22.2,49.5,49.5,49.5
			S99.5,77.3,99.5,50c0-0.3,0.2-0.5,0.5-0.5s0.5,0.2,0.5,0.5C100.5,77.8,77.8,100.5,50,100.5z"/>
		<path d="M50,92.2C26.7,92.2,7.8,73.3,7.8,50c0-0.3,0.2-0.5,0.5-0.5s0.5,0.2,0.5,0.5c0,22.7,18.5,41.2,41.2,41.2S91.2,72.7,91.2,50
			c0-0.3,0.2-0.5,0.5-0.5s0.5,0.2,0.5,0.5C92.2,73.3,73.3,92.2,50,92.2z"/>
		<path d="M50,83.8c-18.7,0-33.8-15.2-33.8-33.8c0-0.3,0.2-0.5,0.5-0.5s0.5,0.2,0.5,0.5c0,18.1,14.7,32.8,32.8,32.8
			S82.8,68.1,82.8,50c0-0.3,0.2-0.5,0.5-0.5s0.5,0.2,0.5,0.5C83.8,68.7,68.7,83.8,50,83.8z"/>
		<path d="M50,75.5c-14.1,0-25.5-11.4-25.5-25.5c0-0.3,0.2-0.5,0.5-0.5s0.5,0.2,0.5,0.5c0,13.5,11,24.5,24.5,24.5s24.5-11,24.5-24.5
			c0-0.3,0.2-0.5,0.5-0.5s0.5,0.2,0.5,0.5C75.5,64.1,64.1,75.5,50,75.5z"/>
		<path d="M50,67.2c-9.5,0-17.2-7.7-17.2-17.2S40.5,32.8,50,32.8S67.2,40.5,67.2,50S59.5,67.2,50,67.2z M50,33.8
			c-8.9,0-16.2,7.3-16.2,16.2S41.1,66.2,50,66.2S66.2,58.9,66.2,50S58.9,33.8,50,33.8z"/>
		<path d="M50,58.8c-4.9,0-8.8-4-8.8-8.8s4-8.8,8.8-8.8s8.8,4,8.8,8.8S54.9,58.8,50,58.8z M50,42.2c-4.3,0-7.8,3.5-7.8,7.8
			s3.5,7.8,7.8,7.8s7.8-3.5,7.8-7.8S54.3,42.2,50,42.2z"/>
	</g>
</g>
</svg>
