<?xml version="1.0" encoding="utf-8"?>
<!-- Generator: Adobe Illustrator 26.5.1, SVG Export Plug-In . SVG Version: 6.00 Build 0)  -->
<svg version="1.1" id="Ebene_1" xmlns="http://www.w3.org/2000/svg" xmlns:xlink="http://www.w3.org/1999/xlink" x="0px" y="0px"
	 viewBox="0 0 100 100" style="enable-background:new 0 0 100 100;" xml:space="preserve">
<g>
	<g>
		<path d="M100,33.8H83.3c-0.3,0-0.5-0.2-0.5-0.5s0.2-0.5,0.5-0.5H100c0.3,0,0.5,0.2,0.5,0.5S100.3,33.8,100,33.8z"/>
		<path d="M100,17.2H83.3c-0.3,0-0.5-0.2-0.5-0.5s0.2-0.5,0.5-0.5H100c0.3,0,0.5,0.2,0.5,0.5S100.3,17.2,100,17.2z"/>
		<path d="M100,25.5L100,25.5l-25,0c-0.3,0-0.5-0.2-0.5-0.5s0.2-0.5,0.5-0.5l0,0l25,0c0.3,0,0.5,0.2,0.5,0.5S100.3,25.5,100,25.5z"
			/>
		<path d="M100,8.8H83.3c-0.3,0-0.5-0.2-0.5-0.5s0.2-0.5,0.5-0.5H100c0.3,0,0.5,0.2,0.5,0.5S100.3,8.8,100,8.8z"/>
		<path d="M100,0.5H83.3c-0.3,0-0.5-0.2-0.5-0.5s0.2-0.5,0.5-0.5H100c0.3,0,0.5,0.2,0.5,0.5S100.3,0.5,100,0.5z"/>
		<path d="M99.5,100.5H83.3c-0.3,0-0.5-0.2-0.5-0.5s0.2-0.5,0.5-0.5h16.1c0.3,0,0.5,0.2,0.5,0.5S99.7,100.5,99.5,100.5z"/>
		<path d="M99.5,92.2H78c-0.3,0-0.5-0.2-0.5-0.5s0.2-0.5,0.5-0.5h21.5c0.3,0,0.5,0.2,0.5,0.5S99.7,92.2,99.5,92.2z"/>
		<path d="M99.5,75.5h-6c-0.3,0-0.5-0.2-0.5-0.5s0.2-0.5,0.5-0.5h6c0.3,0,0.5,0.2,0.5,0.5S99.7,75.5,99.5,75.5z"/>
		<path d="M99.5,83.8L99.5,83.8l-12,0c-0.3,0-0.5-0.2-0.5-0.5s0.2-0.5,0.5-0.5l0,0l12,0c0.3,0,0.5,0.2,0.5,0.5S99.7,83.8,99.5,83.8z
			"/>
		<path d="M99.5,67.2h-2.4c-0.3,0-0.5-0.2-0.5-0.5s0.2-0.5,0.5-0.5h2.4c0.3,0,0.5,0.2,0.5,0.5S99.7,67.2,99.5,67.2z"/>
		<path d="M58.3,100.5c-0.3,0-0.5-0.2-0.5-0.5v-0.4c0-0.3,0.2-0.5,0.5-0.5s0.5,0.2,0.5,0.5v0.4C58.8,100.3,58.6,100.5,58.3,100.5z"
			/>
		<path d="M66.7,100.5c-0.3,0-0.5-0.2-0.5-0.5v-2.8c0-0.3,0.2-0.5,0.5-0.5s0.5,0.2,0.5,0.5v2.8C67.2,100.3,66.9,100.5,66.7,100.5z"
			/>
		<path d="M83.3,100.5c-0.1,0-0.1,0-0.2,0c-0.1,0-0.1-0.1-0.2-0.1c-0.1-0.1-0.1-0.2-0.1-0.3c0-0.1,0-0.1,0-0.2
			c0-0.1,0.1-0.1,0.1-0.2c0,0,0.1-0.1,0.2-0.1c0.1,0,0.3,0,0.4,0c0.1,0,0.1,0.1,0.2,0.1c0,0,0.1,0.1,0.1,0.2c0,0.1,0,0.1,0,0.2
			c0,0.1,0,0.3-0.1,0.3c0,0-0.1,0.1-0.2,0.1C83.5,100.5,83.4,100.5,83.3,100.5z"/>
		<path d="M75,100.5L75,100.5c-0.3,0-0.5-0.2-0.5-0.5l0-6.6c0-0.3,0.2-0.5,0.5-0.5l0,0c0.3,0,0.5,0.2,0.5,0.5l0,6.6
			C75.5,100.3,75.3,100.5,75,100.5z"/>
		<path d="M25,100.5c-0.3,0-0.5-0.2-0.5-0.5V50c0-0.3,0.2-0.5,0.5-0.5s0.5,0.2,0.5,0.5v50C25.5,100.3,25.3,100.5,25,100.5z"/>
		<path d="M16.7,100.5c-0.3,0-0.5-0.2-0.5-0.5V50c0-0.3,0.2-0.5,0.5-0.5s0.5,0.2,0.5,0.5v50C17.2,100.3,16.9,100.5,16.7,100.5z"/>
		<path d="M33.3,100.5c-0.3,0-0.5-0.2-0.5-0.5V50c0-0.3,0.2-0.5,0.5-0.5s0.5,0.2,0.5,0.5v50C33.8,100.3,33.6,100.5,33.3,100.5z"/>
		<path d="M41.7,100.5c-0.3,0-0.5-0.2-0.5-0.5V50c0-0.3,0.2-0.5,0.5-0.5s0.5,0.2,0.5,0.5v50C42.2,100.3,41.9,100.5,41.7,100.5z"/>
		<path d="M58.3,50.5c-0.3,0-0.5-0.2-0.5-0.5V0.2c0-0.3,0.2-0.5,0.5-0.5s0.5,0.2,0.5,0.5V50C58.8,50.3,58.6,50.5,58.3,50.5z"/>
		<path d="M66.7,50.5c-0.3,0-0.5-0.2-0.5-0.5V0.2c0-0.3,0.2-0.5,0.5-0.5s0.5,0.2,0.5,0.5V50C67.2,50.3,66.9,50.5,66.7,50.5z"/>
		<path d="M83.3,50.5c-0.3,0-0.5-0.2-0.5-0.5V33.3c0-0.3,0.2-0.5,0.5-0.5s0.5,0.2,0.5,0.5V50C83.8,50.3,83.6,50.5,83.3,50.5z"/>
		<path d="M75,50.5c-0.3,0-0.5-0.2-0.5-0.5V25c0-0.3,0.2-0.5,0.5-0.5s0.5,0.2,0.5,0.5v25C75.5,50.3,75.3,50.5,75,50.5z"/>
		<path d="M0,50.5c-0.3,0-0.5-0.2-0.5-0.5C-0.5,22.2,22.2-0.5,50-0.5c0.3,0,0.5,0.2,0.5,0.5S50.3,0.5,50,0.5
			C22.7,0.5,0.5,22.7,0.5,50C0.5,50.3,0.3,50.5,0,50.5z"/>
		<path d="M50,100.5c-0.3,0-0.5-0.2-0.5-0.5s0.2-0.5,0.5-0.5c27.3,0,49.5-22.2,49.5-49.5c0-0.3,0.2-0.5,0.5-0.5s0.5,0.2,0.5,0.5
			C100.5,77.8,77.8,100.5,50,100.5z"/>
		<path d="M4.2,50.5c-0.3,0-0.5-0.2-0.5-0.5C3.7,24.5,24.5,3.7,50,3.7c0.3,0,0.5,0.2,0.5,0.5S50.3,4.7,50,4.7C25,4.7,4.7,25,4.7,50
			C4.7,50.3,4.4,50.5,4.2,50.5z"/>
		<path d="M50,96.3c-0.3,0-0.5-0.2-0.5-0.5s0.2-0.5,0.5-0.5C75,95.3,95.3,75,95.3,50c0-0.3,0.2-0.5,0.5-0.5s0.5,0.2,0.5,0.5
			C96.3,75.5,75.5,96.3,50,96.3z"/>
		<path d="M8.3,50.5c-0.3,0-0.5-0.2-0.5-0.5C7.8,26.7,26.7,7.8,50,7.8c0.3,0,0.5,0.2,0.5,0.5S50.3,8.8,50,8.8
			C27.3,8.8,8.8,27.3,8.8,50C8.8,50.3,8.6,50.5,8.3,50.5z"/>
		<path d="M50,92.2c-0.3,0-0.5-0.2-0.5-0.5s0.2-0.5,0.5-0.5c22.7,0,41.2-18.5,41.2-41.2c0-0.3,0.2-0.5,0.5-0.5s0.5,0.2,0.5,0.5
			C92.2,73.3,73.3,92.2,50,92.2z"/>
		<path d="M12.5,50.5c-0.3,0-0.5-0.2-0.5-0.5c0-21,17-38,38-38c0.3,0,0.5,0.2,0.5,0.5S50.3,13,50,13c-20.4,0-37,16.6-37,37
			C13,50.3,12.8,50.5,12.5,50.5z"/>
		<path d="M50,88c-0.3,0-0.5-0.2-0.5-0.5S49.7,87,50,87c20.4,0,37-16.6,37-37c0-0.3,0.2-0.5,0.5-0.5S88,49.7,88,50
			C88,71,71,88,50,88z"/>
		<path d="M16.7,50.5c-0.3,0-0.5-0.2-0.5-0.5c0-18.7,15.2-33.8,33.8-33.8c0.3,0,0.5,0.2,0.5,0.5s-0.2,0.5-0.5,0.5
			c-18.1,0-32.8,14.7-32.8,32.8C17.2,50.3,16.9,50.5,16.7,50.5z"/>
		<path d="M50,83.8c-0.3,0-0.5-0.2-0.5-0.5s0.2-0.5,0.5-0.5c18.1,0,32.8-14.7,32.8-32.8c0-0.3,0.2-0.5,0.5-0.5s0.5,0.2,0.5,0.5
			C83.8,68.7,68.7,83.8,50,83.8z"/>
		<path d="M20.8,50.5c-0.3,0-0.5-0.2-0.5-0.5c0-16.4,13.3-29.7,29.7-29.7c0.3,0,0.5,0.2,0.5,0.5s-0.2,0.5-0.5,0.5
			c-15.8,0-28.7,12.9-28.7,28.7C21.3,50.3,21.1,50.5,20.8,50.5z"/>
		<path d="M50,79.7c-0.3,0-0.5-0.2-0.5-0.5s0.2-0.5,0.5-0.5c15.8,0,28.7-12.9,28.7-28.7c0-0.3,0.2-0.5,0.5-0.5s0.5,0.2,0.5,0.5
			C79.7,66.4,66.4,79.7,50,79.7z"/>
		<path d="M25,50.5c-0.3,0-0.5-0.2-0.5-0.5c0-14.1,11.4-25.5,25.5-25.5c0.3,0,0.5,0.2,0.5,0.5s-0.2,0.5-0.5,0.5
			c-13.5,0-24.5,11-24.5,24.5C25.5,50.3,25.3,50.5,25,50.5z"/>
		<path d="M50,75.5c-0.3,0-0.5-0.2-0.5-0.5s0.2-0.5,0.5-0.5c13.5,0,24.5-11,24.5-24.5c0-0.3,0.2-0.5,0.5-0.5s0.5,0.2,0.5,0.5
			C75.5,64.1,64.1,75.5,50,75.5z"/>
		<path d="M29.2,50.5c-0.3,0-0.5-0.2-0.5-0.5c0-11.8,9.6-21.3,21.3-21.3c0.3,0,0.5,0.2,0.5,0.5s-0.2,0.5-0.5,0.5
			c-11.2,0-20.3,9.1-20.3,20.3C29.7,50.3,29.4,50.5,29.2,50.5z"/>
		<path d="M50,71.3c-0.3,0-0.5-0.2-0.5-0.5s0.2-0.5,0.5-0.5c11.2,0,20.3-9.1,20.3-20.3c0-0.3,0.2-0.5,0.5-0.5s0.5,0.2,0.5,0.5
			C71.3,61.8,61.8,71.3,50,71.3z"/>
		<path d="M33.3,50.5c-0.3,0-0.5-0.2-0.5-0.5c0-9.5,7.7-17.2,17.2-17.2c0.3,0,0.5,0.2,0.5,0.5s-0.2,0.5-0.5,0.5
			c-8.9,0-16.2,7.3-16.2,16.2C33.8,50.3,33.6,50.5,33.3,50.5z"/>
		<path d="M50,67.2c-0.3,0-0.5-0.2-0.5-0.5s0.2-0.5,0.5-0.5c8.9,0,16.2-7.3,16.2-16.2c0-0.3,0.2-0.5,0.5-0.5s0.5,0.2,0.5,0.5
			C67.2,59.5,59.5,67.2,50,67.2z"/>
		<path d="M37.5,50.5c-0.3,0-0.5-0.2-0.5-0.5c0-7.2,5.8-13,13-13c0.3,0,0.5,0.2,0.5,0.5S50.3,38,50,38c-6.6,0-12,5.4-12,12
			C38,50.3,37.8,50.5,37.5,50.5z"/>
		<path d="M50,63c-0.3,0-0.5-0.2-0.5-0.5S49.7,62,50,62c6.6,0,12-5.4,12-12c0-0.3,0.2-0.5,0.5-0.5S63,49.7,63,50
			C63,57.2,57.2,63,50,63z"/>
		<path d="M41.7,50.5c-0.3,0-0.5-0.2-0.5-0.5c0-4.9,4-8.8,8.8-8.8c0.3,0,0.5,0.2,0.5,0.5s-0.2,0.5-0.5,0.5c-4.3,0-7.8,3.5-7.8,7.8
			C42.2,50.3,41.9,50.5,41.7,50.5z"/>
		<path d="M50,58.8c-0.3,0-0.5-0.2-0.5-0.5s0.2-0.5,0.5-0.5c4.3,0,7.8-3.5,7.8-7.8c0-0.3,0.2-0.5,0.5-0.5s0.5,0.2,0.5,0.5
			C58.8,54.9,54.9,58.8,50,58.8z"/>
		<path d="M45.8,50.5c-0.3,0-0.5-0.2-0.5-0.5c0-2.6,2.1-4.7,4.7-4.7c0.3,0,0.5,0.2,0.5,0.5s-0.2,0.5-0.5,0.5c-2,0-3.7,1.6-3.7,3.7
			C46.3,50.3,46.1,50.5,45.8,50.5z"/>
		<path d="M50,54.7c-0.3,0-0.5-0.2-0.5-0.5s0.2-0.5,0.5-0.5c2,0,3.7-1.6,3.7-3.7c0-0.3,0.2-0.5,0.5-0.5s0.5,0.2,0.5,0.5
			C54.7,52.6,52.6,54.7,50,54.7z"/>
	</g>
</g>
</svg>
