<?xml version="1.0" encoding="utf-8"?>
<!-- Generator: Adobe Illustrator 26.5.1, SVG Export Plug-In . SVG Version: 6.00 Build 0)  -->
<svg version="1.1" id="Ebene_1" xmlns="http://www.w3.org/2000/svg" xmlns:xlink="http://www.w3.org/1999/xlink" x="0px" y="0px"
	 viewBox="0 0 100 100" style="enable-background:new 0 0 100 100;" xml:space="preserve">
<g>
	<g>
		<path d="M100,33.8h-2.9c-0.3,0-0.5-0.2-0.5-0.5s0.2-0.5,0.5-0.5h2.9c0.3,0,0.5,0.2,0.5,0.5S100.3,33.8,100,33.8z"/>
		<path d="M100,17.2H50c-0.3,0-0.5-0.2-0.5-0.5s0.2-0.5,0.5-0.5h50c0.3,0,0.5,0.2,0.5,0.5S100.3,17.2,100,17.2z"/>
		<path d="M100,25.5L100,25.5l-16.7,0c-0.3,0-0.5-0.2-0.5-0.5s0.2-0.5,0.5-0.5l0,0l16.7,0c0.3,0,0.5,0.2,0.5,0.5
			S100.3,25.5,100,25.5z"/>
		<path d="M100,8.8H50c-0.3,0-0.5-0.2-0.5-0.5s0.2-0.5,0.5-0.5h50c0.3,0,0.5,0.2,0.5,0.5S100.3,8.8,100,8.8z"/>
		<path d="M100,0.5H50c-0.3,0-0.5-0.2-0.5-0.5s0.2-0.5,0.5-0.5h50c0.3,0,0.5,0.2,0.5,0.5S100.3,0.5,100,0.5z"/>
		<path d="M100,100.5h-8.4c-0.3,0-0.5-0.2-0.5-0.5s0.2-0.5,0.5-0.5h8.4c0.3,0,0.5,0.2,0.5,0.5S100.3,100.5,100,100.5z"/>
		<path d="M100,92.2h-8.4c-0.3,0-0.5-0.2-0.5-0.5s0.2-0.5,0.5-0.5h8.4c0.3,0,0.5,0.2,0.5,0.5S100.3,92.2,100,92.2z"/>
		<path d="M100,75.5h-8.4c-0.3,0-0.5-0.2-0.5-0.5s0.2-0.5,0.5-0.5h8.4c0.3,0,0.5,0.2,0.5,0.5S100.3,75.5,100,75.5z"/>
		<path d="M91.7,83.8c-0.3,0-0.5-0.2-0.5-0.5s0.2-0.5,0.5-0.5l8.4,0c0.3,0,0.5,0.2,0.5,0.5s-0.2,0.5-0.5,0.5L91.7,83.8z"/>
		<path d="M100,67.2h-8.4c-0.3,0-0.5-0.2-0.5-0.5s0.2-0.5,0.5-0.5h8.4c0.3,0,0.5,0.2,0.5,0.5S100.3,67.2,100,67.2z"/>
		<path d="M2.9,67.2H0c-0.3,0-0.5-0.2-0.5-0.5s0.2-0.5,0.5-0.5h2.9c0.3,0,0.5,0.2,0.5,0.5S3.1,67.2,2.9,67.2z"/>
		<path d="M50,83.8H0c-0.3,0-0.5-0.2-0.5-0.5s0.2-0.5,0.5-0.5h50c0.3,0,0.5,0.2,0.5,0.5S50.3,83.8,50,83.8z"/>
		<path d="M16.7,75.5L16.7,75.5L0,75.5c-0.3,0-0.5-0.2-0.5-0.5s0.2-0.5,0.5-0.5l0,0l16.7,0c0.3,0,0.5,0.2,0.5,0.5S17,75.5,16.7,75.5
			z"/>
		<path d="M50,92.2H0c-0.3,0-0.5-0.2-0.5-0.5s0.2-0.5,0.5-0.5h50c0.3,0,0.5,0.2,0.5,0.5S50.3,92.2,50,92.2z"/>
		<path d="M50,100.5H0c-0.3,0-0.5-0.2-0.5-0.5s0.2-0.5,0.5-0.5h50c0.3,0,0.5,0.2,0.5,0.5S50.3,100.5,50,100.5z"/>
		<path d="M8.3,0.5H0c-0.3,0-0.5-0.2-0.5-0.5S-0.3-0.5,0-0.5h8.4c0.3,0,0.5,0.2,0.5,0.5S8.6,0.5,8.3,0.5z"/>
		<path d="M8.3,8.8H0c-0.3,0-0.5-0.2-0.5-0.5S-0.3,7.8,0,7.8h8.4c0.3,0,0.5,0.2,0.5,0.5S8.6,8.8,8.3,8.8z"/>
		<path d="M8.3,25.5H0c-0.3,0-0.5-0.2-0.5-0.5s0.2-0.5,0.5-0.5h8.4c0.3,0,0.5,0.2,0.5,0.5S8.6,25.5,8.3,25.5z"/>
		<path d="M8.3,17.2H0c-0.3,0-0.5-0.2-0.5-0.5s0.2-0.5,0.5-0.5h8.4c0.3,0,0.5,0.2,0.5,0.5S8.6,17.2,8.3,17.2z"/>
		<path d="M8.3,33.8H0c-0.3,0-0.5-0.2-0.5-0.5s0.2-0.5,0.5-0.5h8.4c0.3,0,0.5,0.2,0.5,0.5S8.6,33.8,8.3,33.8z"/>
		<path d="M83.3,100.5H75c-0.3,0-0.5-0.2-0.5-0.5s0.2-0.5,0.5-0.5h8.4c0.3,0,0.5,0.2,0.5,0.5S83.6,100.5,83.3,100.5z"/>
		<path d="M83.3,92.2H75c-0.3,0-0.5-0.2-0.5-0.5s0.2-0.5,0.5-0.5h8.4c0.3,0,0.5,0.2,0.5,0.5S83.6,92.2,83.3,92.2z"/>
		<path d="M83.3,75.5H75c-0.3,0-0.5-0.2-0.5-0.5s0.2-0.5,0.5-0.5h8.4c0.3,0,0.5,0.2,0.5,0.5S83.6,75.5,83.3,75.5z"/>
		<path d="M75,83.8c-0.3,0-0.5-0.2-0.5-0.5s0.2-0.5,0.5-0.5l8.4,0c0.3,0,0.5,0.2,0.5,0.5s-0.2,0.5-0.5,0.5L75,83.8z"/>
		<path d="M83.3,67.2H75c-0.3,0-0.5-0.2-0.5-0.5s0.2-0.5,0.5-0.5h8.4c0.3,0,0.5,0.2,0.5,0.5S83.6,67.2,83.3,67.2z"/>
		<path d="M66.7,100.5h-8.4c-0.3,0-0.5-0.2-0.5-0.5s0.2-0.5,0.5-0.5h8.4c0.3,0,0.5,0.2,0.5,0.5S67,100.5,66.7,100.5z"/>
		<path d="M66.7,92.2h-8.4c-0.3,0-0.5-0.2-0.5-0.5s0.2-0.5,0.5-0.5h8.4c0.3,0,0.5,0.2,0.5,0.5S67,92.2,66.7,92.2z"/>
		<path d="M66.7,75.5h-8.4c-0.3,0-0.5-0.2-0.5-0.5s0.2-0.5,0.5-0.5h8.4c0.3,0,0.5,0.2,0.5,0.5S67,75.5,66.7,75.5z"/>
		<path d="M58.3,83.8c-0.3,0-0.5-0.2-0.5-0.5s0.2-0.5,0.5-0.5l8.4,0c0.3,0,0.5,0.2,0.5,0.5s-0.2,0.5-0.5,0.5L58.3,83.8z"/>
		<path d="M66.7,67.2h-8.4c-0.3,0-0.5-0.2-0.5-0.5s0.2-0.5,0.5-0.5h8.4c0.3,0,0.5,0.2,0.5,0.5S67,67.2,66.7,67.2z"/>
		<g>
			<path d="M25,50.5c-0.3,0-0.5-0.2-0.5-0.5V0c0-0.3,0.2-0.5,0.5-0.5s0.5,0.2,0.5,0.5v50C25.5,50.3,25.3,50.5,25,50.5z"/>
			<path d="M16.7,50.5c-0.3,0-0.5-0.2-0.5-0.5V0c0-0.3,0.2-0.5,0.5-0.5s0.5,0.2,0.5,0.5v50C17.2,50.3,16.9,50.5,16.7,50.5z"/>
			<path d="M33.3,50.5c-0.3,0-0.5-0.2-0.5-0.5V0c0-0.3,0.2-0.5,0.5-0.5s0.5,0.2,0.5,0.5v50C33.8,50.3,33.6,50.5,33.3,50.5z"/>
			<path d="M41.7,50.5c-0.3,0-0.5-0.2-0.5-0.5V0c0-0.3,0.2-0.5,0.5-0.5s0.5,0.2,0.5,0.5v50C42.2,50.3,41.9,50.5,41.7,50.5z"/>
		</g>
		<path d="M50,100.5C22.2,100.5-0.5,77.8-0.5,50S22.2-0.5,50-0.5s50.5,22.7,50.5,50.5S77.8,100.5,50,100.5z M50,0.5
			C22.7,0.5,0.5,22.7,0.5,50S22.7,99.5,50,99.5S99.5,77.3,99.5,50S77.3,0.5,50,0.5z"/>
		<path d="M50,92.2C26.7,92.2,7.8,73.3,7.8,50S26.7,7.8,50,7.8S92.2,26.7,92.2,50S73.3,92.2,50,92.2z M50,8.8
			C27.3,8.8,8.8,27.3,8.8,50S27.3,91.2,50,91.2S91.2,72.7,91.2,50S72.7,8.8,50,8.8z"/>
		<path d="M50,83.8c-18.7,0-33.8-15.2-33.8-33.8S31.3,16.2,50,16.2S83.8,31.3,83.8,50S68.7,83.8,50,83.8z M50,17.2
			c-18.1,0-32.8,14.7-32.8,32.8S31.9,82.8,50,82.8S82.8,68.1,82.8,50S68.1,17.2,50,17.2z"/>
		<path d="M50,75.5c-14.1,0-25.5-11.4-25.5-25.5S35.9,24.5,50,24.5S75.5,35.9,75.5,50S64.1,75.5,50,75.5z M50,25.5
			c-13.5,0-24.5,11-24.5,24.5s11,24.5,24.5,24.5s24.5-11,24.5-24.5S63.5,25.5,50,25.5z"/>
		<path d="M50,67.2c-9.5,0-17.2-7.7-17.2-17.2S40.5,32.8,50,32.8S67.2,40.5,67.2,50S59.5,67.2,50,67.2z M50,33.8
			c-8.9,0-16.2,7.3-16.2,16.2S41.1,66.2,50,66.2S66.2,58.9,66.2,50S58.9,33.8,50,33.8z"/>
		<path d="M50,58.8c-4.9,0-8.8-4-8.8-8.8s4-8.8,8.8-8.8s8.8,4,8.8,8.8S54.9,58.8,50,58.8z M50,42.2c-4.3,0-7.8,3.5-7.8,7.8
			s3.5,7.8,7.8,7.8s7.8-3.5,7.8-7.8S54.3,42.2,50,42.2z"/>
	</g>
</g>
</svg>
