<?xml version="1.0" encoding="utf-8"?>
<!-- Generator: Adobe Illustrator 26.5.1, SVG Export Plug-In . SVG Version: 6.00 Build 0)  -->
<svg version="1.1" id="Ebene_1" xmlns="http://www.w3.org/2000/svg" xmlns:xlink="http://www.w3.org/1999/xlink" x="0px" y="0px"
	 viewBox="0 0 100 100" style="enable-background:new 0 0 100 100;" xml:space="preserve">
<g>
	<g>
		<polygon points="83.3,50 94.4,33.3 100,33.3 100,66.7 94.4,66.7 		"/>
		<g>
			<polygon points="100,25 83.3,33.3 94.4,33.3 			"/>
			<polygon points="83.3,16.7 72.2,16.7 66.7,25 72.2,33.3 83.3,33.3 			"/>
			<polygon points="66.7,41.7 75,37.5 72.2,33.3 66.7,33.3 			"/>
			<polygon points="61.1,16.7 66.7,16.7 66.7,25 			"/>
			<polygon points="75,12.5 83.3,0 100,25 			"/>
		</g>
		<g>
			<polygon points="100,75 83.3,66.7 94.4,66.7 			"/>
			<polygon points="83.3,83.3 72.2,83.3 66.7,75 72.2,66.7 83.3,66.7 			"/>
			<polygon points="66.7,58.3 75,62.5 72.2,66.7 66.7,66.7 			"/>
			<polygon points="61.1,83.3 66.7,83.3 66.7,75 			"/>
			<polygon points="75,87.5 83.3,100 100,75 			"/>
		</g>
		<polygon points="50,50 66.7,41.7 66.7,58.3 		"/>
		<polygon points="33.3,33.3 38.9,33.3 50,50 33.3,41.7 		"/>
		<polygon points="33.3,66.7 38.9,66.7 50,50 33.3,58.3 		"/>
	</g>
</g>
</svg>
