<?xml version="1.0" encoding="utf-8"?>
<!-- Generator: Adobe Illustrator 26.5.1, SVG Export Plug-In . SVG Version: 6.00 Build 0)  -->
<svg version="1.1" id="Ebene_1" xmlns="http://www.w3.org/2000/svg" xmlns:xlink="http://www.w3.org/1999/xlink" x="0px" y="0px"
	 viewBox="0 0 100 100" style="enable-background:new 0 0 100 100;" xml:space="preserve">
<g>
	<g>
		<polygon points="100,0 83.3,0 94.4,16.7 100,16.7 		"/>
		<polygon points="75,12.5 83.3,0 66.7,0 66.7,8.3 		"/>
		<polygon points="50,0 33.3,8.3 33.3,0 		"/>
		<polygon points="100,25 94.4,33.3 100,33.3 		"/>
		<polygon points="83.3,33.3 83.3,16.7 72.2,16.7 66.7,25 72.2,33.3 		"/>
		<polygon points="100,50 83.3,50 100,75 		"/>
		<polygon points="75,37.5 83.3,33.3 83.3,50 		"/>
		<polygon points="94.4,16.7 83.3,16.7 100,25 		"/>
		<polygon points="61.1,16.7 50,0 50,16.7 		"/>
		<polygon points="50,50 61.1,33.3 50,33.3 		"/>
		<polygon points="66.7,41.7 50,50 66.7,50 		"/>
		<polygon points="66.7,33.3 66.7,25 61.1,33.3 		"/>
		<polygon points="66.7,16.7 61.1,16.7 66.7,25 		"/>
	</g>
</g>
</svg>
