<?xml version="1.0" encoding="utf-8"?>
<!-- Generator: Adobe Illustrator 26.5.1, SVG Export Plug-In . SVG Version: 6.00 Build 0)  -->
<svg version="1.1" id="Ebene_1" xmlns="http://www.w3.org/2000/svg" xmlns:xlink="http://www.w3.org/1999/xlink" x="0px" y="0px"
	 viewBox="0 0 100 100" style="enable-background:new 0 0 100 100;" xml:space="preserve">
<g>
	<g>
		<polygon points="0,25 16.7,0 16.7,16.7 		"/>
		<polygon points="25,12.5 33.3,8.3 33.3,0 16.7,0 		"/>
		<polygon points="27.8,16.7 33.3,16.7 33.3,25 		"/>
		<polygon points="0,33.3 5.6,33.3 16.7,50 0,50 		"/>
		<polygon points="0,75 16.7,100 16.7,83.3 		"/>
		<polygon points="25,87.5 33.3,91.7 33.3,100 16.7,100 		"/>
		<polygon points="27.8,83.3 33.3,83.3 33.3,75 		"/>
		<polygon points="0,66.7 5.6,66.7 16.7,50 0,50 		"/>
		<rect width="16.7" height="16.7"/>
		<rect x="0" y="83.3" width="16.7" height="16.7"/>
		<g>
			<polygon points="50,50 38.9,33.3 33.3,33.3 33.3,66.7 38.9,66.7 			"/>
			<g>
				<polygon points="50,16.7 61.1,16.7 66.7,25 61.1,33.3 50,33.3 				"/>
				<polygon points="72.2,16.7 66.7,16.7 66.7,25 				"/>
			</g>
			<g>
				<polygon points="50,83.3 61.1,83.3 66.7,75 61.1,66.7 50,66.7 				"/>
				<polygon points="72.2,83.3 66.7,83.3 66.7,75 				"/>
			</g>
			<polyline points="83.3,50 83.3,50 75,37.5 66.7,41.7 66.7,58.3 75,62.5 83.3,50 			"/>
			<polygon points="100,33.3 94.4,33.3 83.3,50 100,50 			"/>
			<polygon points="100,66.7 94.4,66.7 83.3,50 100,49.4 			"/>
		</g>
	</g>
</g>
</svg>
