<?xml version="1.0" encoding="utf-8"?>
<!-- Generator: Adobe Illustrator 26.5.1, SVG Export Plug-In . SVG Version: 6.00 Build 0)  -->
<svg version="1.1" id="Ebene_1" xmlns="http://www.w3.org/2000/svg" xmlns:xlink="http://www.w3.org/1999/xlink" x="0px" y="0px"
	 viewBox="0 0 100 100" style="enable-background:new 0 0 100 100;" xml:space="preserve">
<g>
	<g>
		<polygon points="100,100 83.3,100 94.4,83.3 100,83.3 		"/>
		<polygon points="100,75 94.4,66.7 100,66.7 		"/>
		<polygon points="75,62.5 83.3,66.7 83.3,50 		"/>
		<polygon points="94.4,83.3 83.3,83.3 100,75 		"/>
		<polygon points="61.1,83.3 50,100 50,83.3 		"/>
		<polygon points="50,50 61.1,66.7 50,66.7 		"/>
		<polygon points="66.7,58.3 50,50 66.7,50 		"/>
		<polygon points="66.7,83.3 61.1,83.3 66.7,75 		"/>
	</g>
	<g>
		<polygon points="0,100 16.7,100 5.6,83.3 0,83.3 		"/>
		<polygon points="0,75 5.6,66.7 0,66.7 		"/>
		<polygon points="5.6,83.3 16.7,83.3 0,75 		"/>
		<polygon points="38.9,83.3 50,100 50,83.3 		"/>
		<polygon points="50,50 38.9,66.7 50,66.7 		"/>
		<polygon points="33.3,58.3 50,50 33.3,50 		"/>
		<polygon points="33.3,66.7 33.3,75 38.9,66.7 		"/>
		<polygon points="33.3,83.3 38.9,83.3 33.3,75 		"/>
	</g>
	<g>
		<polygon points="100,0 83.3,0 94.4,16.7 100,16.7 		"/>
		<polygon points="100,25 94.4,33.3 100,33.3 		"/>
		<polygon points="94.4,16.7 83.3,16.7 100,25 		"/>
		<polygon points="61.1,16.7 50,0 50,16.7 		"/>
		<polygon points="50,50 61.1,33.3 50,33.3 		"/>
		<polygon points="66.7,41.7 50,50 66.7,50 		"/>
		<polygon points="66.7,33.3 66.7,25 61.1,33.3 		"/>
		<polygon points="66.7,16.7 61.1,16.7 66.7,25 		"/>
	</g>
	<g>
		<polygon points="0,0 16.7,0 5.6,16.7 0,16.7 		"/>
		<polygon points="0,25 5.6,33.3 0,33.3 		"/>
		<polygon points="25,37.5 16.7,33.3 16.7,50 		"/>
		<polygon points="5.6,16.7 16.7,16.7 0,25 		"/>
		<polygon points="38.9,16.7 50,0 50,16.7 		"/>
		<polygon points="50,50 38.9,33.3 50,33.3 		"/>
		<polygon points="33.3,41.7 50,50 33.3,50 		"/>
		<polygon points="33.3,16.7 38.9,16.7 33.3,25 		"/>
	</g>
</g>
</svg>
