<?xml version="1.0" encoding="utf-8"?>
<!-- Generator: Adobe Illustrator 26.5.1, SVG Export Plug-In . SVG Version: 6.00 Build 0)  -->
<svg version="1.1" id="Ebene_1" xmlns="http://www.w3.org/2000/svg" xmlns:xlink="http://www.w3.org/1999/xlink" x="0px" y="0px"
	 viewBox="0 0 100 100" style="enable-background:new 0 0 100 100;" xml:space="preserve">
<g>
	<g>
		<path d="M50,146.3c-53.1,0-96.3-43.2-96.3-96.3S-3.1-46.3,50-46.3S146.3-3.1,146.3,50S103.1,146.3,50,146.3z M50-45.3
			C-2.6-45.3-45.3-2.6-45.3,50s42.8,95.3,95.3,95.3s95.3-42.8,95.3-95.3S102.6-45.3,50-45.3z"/>
		<path d="M50,142.2c-50.8,0-92.2-41.3-92.2-92.2S-0.8-42.2,50-42.2c50.8,0,92.2,41.3,92.2,92.2S100.8,142.2,50,142.2z M50-41.2
			C-0.3-41.2-41.2-0.3-41.2,50s40.9,91.2,91.2,91.2c50.3,0,91.2-40.9,91.2-91.2S100.3-41.2,50-41.2z"/>
		<path d="M50,138c-48.5,0-88-39.5-88-88c0-48.5,39.5-88,88-88c48.5,0,88,39.5,88,88C138,98.5,98.5,138,50,138z M50-37
			C2-37-37,2-37,50s39,87,87,87s87-39,87-87S98-37,50-37z"/>
		<path d="M50,133.8c-46.2,0-83.8-37.6-83.8-83.8S3.8-33.8,50-33.8S133.8,3.8,133.8,50S96.2,133.8,50,133.8z M50-32.8
			C4.3-32.8-32.8,4.3-32.8,50S4.3,132.8,50,132.8c45.7,0,82.8-37.2,82.8-82.8S95.7-32.8,50-32.8z"/>
		<path d="M50,129.7c-43.9,0-79.7-35.7-79.7-79.7S6.1-29.7,50-29.7c43.9,0,79.7,35.7,79.7,79.7S93.9,129.7,50,129.7z M50-28.7
			C6.6-28.7-28.7,6.6-28.7,50S6.6,128.7,50,128.7s78.7-35.3,78.7-78.7S93.4-28.7,50-28.7z"/>
		<path d="M50,125.5c-41.6,0-75.5-33.9-75.5-75.5S8.4-25.5,50-25.5S125.5,8.4,125.5,50S91.6,125.5,50,125.5z M50-24.5
			C8.9-24.5-24.5,8.9-24.5,50S8.9,124.5,50,124.5c41.1,0,74.5-33.4,74.5-74.5S91.1-24.5,50-24.5z"/>
		<path d="M50,121.3c-39.3,0-71.3-32-71.3-71.3s32-71.3,71.3-71.3s71.3,32,71.3,71.3S89.3,121.3,50,121.3z M50-20.3
			c-38.8,0-70.3,31.6-70.3,70.3s31.6,70.3,70.3,70.3c38.8,0,70.3-31.6,70.3-70.3S88.8-20.3,50-20.3z"/>
		<path d="M50,117.2C13,117.2-17.2,87-17.2,50S13-17.2,50-17.2c37,0,67.2,30.1,67.2,67.2S87,117.2,50,117.2z M50-16.2
			c-36.5,0-66.2,29.7-66.2,66.2s29.7,66.2,66.2,66.2s66.2-29.7,66.2-66.2S86.5-16.2,50-16.2z"/>
		<path d="M50,113c-34.7,0-63-28.3-63-63s28.3-63,63-63s63,28.3,63,63S84.7,113,50,113z M50-12c-34.2,0-62,27.8-62,62
			c0,34.2,27.8,62,62,62s62-27.8,62-62C112,15.8,84.2-12,50-12z"/>
		<path d="M50,108.8C17.6,108.8-8.8,82.4-8.8,50S17.6-8.8,50-8.8c32.4,0,58.8,26.4,58.8,58.8S82.4,108.8,50,108.8z M50-7.8
			C18.1-7.8-7.8,18.1-7.8,50s25.9,57.8,57.8,57.8c31.9,0,57.8-25.9,57.8-57.8S81.9-7.8,50-7.8z"/>
		<path d="M50,104.7C19.9,104.7-4.7,80.1-4.7,50S19.9-4.7,50-4.7s54.7,24.5,54.7,54.7S80.1,104.7,50,104.7z M50-3.7
			C20.4-3.7-3.7,20.4-3.7,50c0,29.6,24.1,53.7,53.7,53.7c29.6,0,53.7-24.1,53.7-53.7C103.7,20.4,79.6-3.7,50-3.7z"/>
		<path d="M50,100.5C22.2,100.5-0.5,77.8-0.5,50S22.2-0.5,50-0.5c27.8,0,50.5,22.7,50.5,50.5S77.8,100.5,50,100.5z M50,0.5
			C22.7,0.5,0.5,22.7,0.5,50S22.7,99.5,50,99.5S99.5,77.3,99.5,50S77.3,0.5,50,0.5z"/>
		<path d="M50,96.3C24.5,96.3,3.7,75.5,3.7,50S24.5,3.7,50,3.7S96.3,24.5,96.3,50S75.5,96.3,50,96.3z M50,4.7C25,4.7,4.7,25,4.7,50
			S25,95.3,50,95.3C75,95.3,95.3,75,95.3,50S75,4.7,50,4.7z"/>
		<path d="M50,92.2C26.7,92.2,7.8,73.3,7.8,50S26.7,7.8,50,7.8c23.3,0,42.2,18.9,42.2,42.2S73.3,92.2,50,92.2z M50,8.8
			C27.3,8.8,8.8,27.3,8.8,50S27.3,91.2,50,91.2S91.2,72.7,91.2,50S72.7,8.8,50,8.8z"/>
		<path d="M50,88c-21,0-38-17-38-38s17-38,38-38c21,0,38,17,38,38S71,88,50,88z M50,13c-20.4,0-37,16.6-37,37s16.6,37,37,37
			s37-16.6,37-37S70.4,13,50,13z"/>
		<path d="M50,83.8c-18.7,0-33.8-15.2-33.8-33.8S31.3,16.2,50,16.2S83.8,31.3,83.8,50S68.7,83.8,50,83.8z M50,17.2
			c-18.1,0-32.8,14.7-32.8,32.8S31.9,82.8,50,82.8S82.8,68.1,82.8,50S68.1,17.2,50,17.2z"/>
		<path d="M50,79.7c-16.4,0-29.7-13.3-29.7-29.7c0-16.4,13.3-29.7,29.7-29.7c16.4,0,29.7,13.3,29.7,29.7
			C79.7,66.4,66.4,79.7,50,79.7z M50,21.3c-15.8,0-28.7,12.9-28.7,28.7c0,15.8,12.9,28.7,28.7,28.7c15.8,0,28.7-12.9,28.7-28.7
			C78.7,34.2,65.8,21.3,50,21.3z"/>
		<path d="M50,75.5c-14.1,0-25.5-11.4-25.5-25.5S35.9,24.5,50,24.5S75.5,35.9,75.5,50S64.1,75.5,50,75.5z M50,25.5
			c-13.5,0-24.5,11-24.5,24.5s11,24.5,24.5,24.5s24.5-11,24.5-24.5S63.5,25.5,50,25.5z"/>
		<path d="M50,71.3c-11.8,0-21.3-9.6-21.3-21.3S38.2,28.7,50,28.7c11.8,0,21.3,9.6,21.3,21.3S61.8,71.3,50,71.3z M50,29.7
			c-11.2,0-20.3,9.1-20.3,20.3S38.8,70.3,50,70.3c11.2,0,20.3-9.1,20.3-20.3S61.2,29.7,50,29.7z"/>
		<path d="M50,67.2c-9.5,0-17.2-7.7-17.2-17.2S40.5,32.8,50,32.8S67.2,40.5,67.2,50S59.5,67.2,50,67.2z M50,33.8
			c-8.9,0-16.2,7.3-16.2,16.2S41.1,66.2,50,66.2S66.2,58.9,66.2,50S58.9,33.8,50,33.8z"/>
		<path d="M50,63c-7.2,0-13-5.8-13-13s5.8-13,13-13c7.2,0,13,5.8,13,13S57.2,63,50,63z M50,38c-6.6,0-12,5.4-12,12s5.4,12,12,12
			s12-5.4,12-12S56.6,38,50,38z"/>
		<path d="M50,58.8c-4.9,0-8.8-4-8.8-8.8s4-8.8,8.8-8.8s8.8,4,8.8,8.8S54.9,58.8,50,58.8z M50,42.2c-4.3,0-7.8,3.5-7.8,7.8
			s3.5,7.8,7.8,7.8c4.3,0,7.8-3.5,7.8-7.8S54.3,42.2,50,42.2z"/>
		<path d="M50,54.7c-2.6,0-4.7-2.1-4.7-4.7s2.1-4.7,4.7-4.7c2.6,0,4.7,2.1,4.7,4.7S52.6,54.7,50,54.7z M50,46.3
			c-2,0-3.7,1.6-3.7,3.7s1.6,3.7,3.7,3.7s3.7-1.6,3.7-3.7S52,46.3,50,46.3z"/>
	</g>
</g>
</svg>
