<?xml version="1.0" encoding="utf-8"?>
<!-- Generator: Adobe Illustrator 26.5.1, SVG Export Plug-In . SVG Version: 6.00 Build 0)  -->
<svg version="1.1" id="Ebene_1" xmlns="http://www.w3.org/2000/svg" xmlns:xlink="http://www.w3.org/1999/xlink" x="0px" y="0px"
	 viewBox="0 0 100 100" style="enable-background:new 0 0 100 100;" xml:space="preserve">
<g>
	<g>
		<path d="M50,142.2c-50.8,0-92.2-41.3-92.2-92.2S-0.8-42.2,50-42.2S142.2-0.8,142.2,50S100.8,142.2,50,142.2z M50-41.2
			C-0.3-41.2-41.2-0.3-41.2,50s40.9,91.2,91.2,91.2s91.2-40.9,91.2-91.2S100.3-41.2,50-41.2z"/>
		<path d="M50,108.8C17.6,108.8-8.8,82.4-8.8,50S17.6-8.8,50-8.8s58.8,26.4,58.8,58.8S82.4,108.8,50,108.8z M50-7.8
			C18.1-7.8-7.8,18.1-7.8,50s25.9,57.8,57.8,57.8s57.8-25.9,57.8-57.8S81.9-7.8,50-7.8z"/>
		<path d="M50,75.5c-14.1,0-25.5-11.4-25.5-25.5S35.9,24.5,50,24.5S75.5,35.9,75.5,50S64.1,75.5,50,75.5z M50,25.5
			c-13.5,0-24.5,11-24.5,24.5s11,24.5,24.5,24.5s24.5-11,24.5-24.5S63.5,25.5,50,25.5z"/>
	</g>
</g>
</svg>
