<?xml version="1.0" encoding="utf-8"?>
<!-- Generator: Adobe Illustrator 26.5.1, SVG Export Plug-In . SVG Version: 6.00 Build 0)  -->
<svg version="1.1" id="Ebene_1" xmlns="http://www.w3.org/2000/svg" xmlns:xlink="http://www.w3.org/1999/xlink" x="0px" y="0px"
	 viewBox="0 0 100 100" style="enable-background:new 0 0 100 100;" xml:space="preserve">
<g>
	<g>
		<path d="M50,101C22.2,101-0.5,78.3-0.5,50.5S22.2,0,50,0c27.8,0,50.5,22.7,50.5,50.5S77.8,101,50,101z M50,1
			C22.7,1,0.5,23.2,0.5,50.5S22.7,100,50,100s49.5-22.2,49.5-49.5S77.3,1,50,1z"/>
		<path d="M50,96.8C24.5,96.8,3.7,76,3.7,50.5S24.5,4.2,50,4.2S96.3,25,96.3,50.5S75.5,96.8,50,96.8z M50,5.2
			C25,5.2,4.7,25.5,4.7,50.5S25,95.8,50,95.8c25,0,45.3-20.3,45.3-45.3S75,5.2,50,5.2z"/>
		<path d="M50,92.7c-23.3,0-42.2-18.9-42.2-42.2S26.7,8.3,50,8.3c23.3,0,42.2,18.9,42.2,42.2S73.3,92.7,50,92.7z M50,9.3
			C27.3,9.3,8.8,27.8,8.8,50.5S27.3,91.7,50,91.7s41.2-18.5,41.2-41.2S72.7,9.3,50,9.3z"/>
		<path d="M50,88.5c-21,0-38-17-38-38s17-38,38-38c21,0,38,17,38,38S71,88.5,50,88.5z M50,13.5c-20.4,0-37,16.6-37,37s16.6,37,37,37
			s37-16.6,37-37S70.4,13.5,50,13.5z"/>
		<path d="M50,84.3c-18.7,0-33.8-15.2-33.8-33.8S31.3,16.7,50,16.7s33.8,15.2,33.8,33.8S68.7,84.3,50,84.3z M50,17.7
			c-18.1,0-32.8,14.7-32.8,32.8S31.9,83.3,50,83.3s32.8-14.7,32.8-32.8S68.1,17.7,50,17.7z"/>
		<path d="M50,80.2c-16.4,0-29.7-13.3-29.7-29.7c0-16.4,13.3-29.7,29.7-29.7c16.4,0,29.7,13.3,29.7,29.7
			C79.7,66.9,66.4,80.2,50,80.2z M50,21.8c-15.8,0-28.7,12.9-28.7,28.7c0,15.8,12.9,28.7,28.7,28.7c15.8,0,28.7-12.9,28.7-28.7
			C78.7,34.7,65.8,21.8,50,21.8z"/>
		<path d="M50,76c-14.1,0-25.5-11.4-25.5-25.5S35.9,25,50,25s25.5,11.4,25.5,25.5S64.1,76,50,76z M50,26c-13.5,0-24.5,11-24.5,24.5
			S36.5,75,50,75s24.5-11,24.5-24.5S63.5,26,50,26z"/>
		<path d="M50,71.8c-11.8,0-21.3-9.6-21.3-21.3S38.2,29.2,50,29.2c11.8,0,21.3,9.6,21.3,21.3S61.8,71.8,50,71.8z M50,30.2
			c-11.2,0-20.3,9.1-20.3,20.3S38.8,70.8,50,70.8c11.2,0,20.3-9.1,20.3-20.3S61.2,30.2,50,30.2z"/>
		<path d="M50,67.7c-9.5,0-17.2-7.7-17.2-17.2S40.5,33.3,50,33.3S67.2,41,67.2,50.5S59.5,67.7,50,67.7z M50,34.3
			c-8.9,0-16.2,7.3-16.2,16.2S41.1,66.7,50,66.7s16.2-7.3,16.2-16.2S58.9,34.3,50,34.3z"/>
		<path d="M50,63.5c-7.2,0-13-5.8-13-13s5.8-13,13-13c7.2,0,13,5.8,13,13S57.2,63.5,50,63.5z M50,38.5c-6.6,0-12,5.4-12,12
			s5.4,12,12,12s12-5.4,12-12S56.6,38.5,50,38.5z"/>
		<path d="M50,59.3c-4.9,0-8.8-4-8.8-8.8s4-8.8,8.8-8.8s8.8,4,8.8,8.8S54.9,59.3,50,59.3z M50,42.7c-4.3,0-7.8,3.5-7.8,7.8
			s3.5,7.8,7.8,7.8c4.3,0,7.8-3.5,7.8-7.8S54.3,42.7,50,42.7z"/>
		<path d="M50,55.2c-2.6,0-4.7-2.1-4.7-4.7s2.1-4.7,4.7-4.7c2.6,0,4.7,2.1,4.7,4.7S52.6,55.2,50,55.2z M50,46.8
			c-2,0-3.7,1.6-3.7,3.7s1.6,3.7,3.7,3.7s3.7-1.6,3.7-3.7S52,46.8,50,46.8z"/>
	</g>
</g>
</svg>
