<?xml version="1.0" encoding="utf-8"?>
<!-- Generator: Adobe Illustrator 26.5.1, SVG Export Plug-In . SVG Version: 6.00 Build 0)  -->
<svg version="1.1" id="Ebene_1" xmlns="http://www.w3.org/2000/svg" xmlns:xlink="http://www.w3.org/1999/xlink" x="0px" y="0px"
	 viewBox="0 0 100 100" style="enable-background:new 0 0 100 100;" xml:space="preserve">
<g>
	<g>
		<path d="M50,92.2C26.7,92.2,7.8,73.3,7.8,50S26.7,7.8,50,7.8S92.2,26.7,92.2,50S73.3,92.2,50,92.2z M50,8.8
			C27.3,8.8,8.8,27.3,8.8,50S27.3,91.2,50,91.2S91.2,72.7,91.2,50S72.7,8.8,50,8.8z"/>
		<path d="M50,75.5c-14.1,0-25.5-11.4-25.5-25.5S35.9,24.5,50,24.5S75.5,35.9,75.5,50S64.1,75.5,50,75.5z M50,25.5
			c-13.5,0-24.5,11-24.5,24.5s11,24.5,24.5,24.5s24.5-11,24.5-24.5S63.5,25.5,50,25.5z"/>
		<path d="M50,58.8c-4.9,0-8.8-4-8.8-8.8s4-8.8,8.8-8.8s8.8,4,8.8,8.8S54.9,58.8,50,58.8z M50,42.2c-4.3,0-7.8,3.5-7.8,7.8
			s3.5,7.8,7.8,7.8s7.8-3.5,7.8-7.8S54.3,42.2,50,42.2z"/>
	</g>
</g>
</svg>
