<?xml version="1.0" encoding="utf-8"?>
<!-- Generator: Adobe Illustrator 26.5.1, SVG Export Plug-In . SVG Version: 6.00 Build 0)  -->
<svg version="1.1" id="Ebene_1" xmlns="http://www.w3.org/2000/svg" xmlns:xlink="http://www.w3.org/1999/xlink" x="0px" y="0px"
	 viewBox="0 0 100 100" style="enable-background:new 0 0 100 100;" xml:space="preserve">
<g>
	<g>
		<path d="M50,100.5C22.2,100.5-0.5,77.8-0.5,50c0-0.3,0.2-0.5,0.5-0.5s0.5,0.2,0.5,0.5c0,27.3,22.2,49.5,49.5,49.5
			S99.5,77.3,99.5,50c0-0.3,0.2-0.5,0.5-0.5s0.5,0.2,0.5,0.5C100.5,77.8,77.8,100.5,50,100.5z"/>
		<path d="M50,92.2C26.7,92.2,7.8,73.3,7.8,50c0-0.3,0.2-0.5,0.5-0.5s0.5,0.2,0.5,0.5c0,22.7,18.5,41.2,41.2,41.2S91.2,72.7,91.2,50
			c0-0.3,0.2-0.5,0.5-0.5s0.5,0.2,0.5,0.5C92.2,73.3,73.3,92.2,50,92.2z"/>
		<path d="M50,83.8c-18.7,0-33.8-15.2-33.8-33.8c0-0.3,0.2-0.5,0.5-0.5s0.5,0.2,0.5,0.5c0,18.1,14.7,32.8,32.8,32.8
			S82.8,68.1,82.8,50c0-0.3,0.2-0.5,0.5-0.5s0.5,0.2,0.5,0.5C83.8,68.7,68.7,83.8,50,83.8z"/>
		<path d="M50,75.5c-14.1,0-25.5-11.4-25.5-25.5c0-0.3,0.2-0.5,0.5-0.5s0.5,0.2,0.5,0.5c0,13.5,11,24.5,24.5,24.5s24.5-11,24.5-24.5
			c0-0.3,0.2-0.5,0.5-0.5s0.5,0.2,0.5,0.5C75.5,64.1,64.1,75.5,50,75.5z"/>
		<path d="M50,67.2c-9.5,0-17.2-7.7-17.2-17.2c0-0.3,0.2-0.5,0.5-0.5s0.5,0.2,0.5,0.5c0,8.9,7.3,16.2,16.2,16.2S66.2,58.9,66.2,50
			c0-0.3,0.2-0.5,0.5-0.5s0.5,0.2,0.5,0.5C67.2,59.5,59.5,67.2,50,67.2z"/>
		<path d="M50,58.8c-4.9,0-8.8-4-8.8-8.8c0-0.3,0.2-0.5,0.5-0.5s0.5,0.2,0.5,0.5c0,4.3,3.5,7.8,7.8,7.8s7.8-3.5,7.8-7.8
			c0-0.3,0.2-0.5,0.5-0.5s0.5,0.2,0.5,0.5C58.8,54.9,54.9,58.8,50,58.8z"/>
	</g>
</g>
</svg>
