<?xml version="1.0" encoding="utf-8"?>
<!-- Generator: Adobe Illustrator 26.5.1, SVG Export Plug-In . SVG Version: 6.00 Build 0)  -->
<svg version="1.1" id="Ebene_1" xmlns="http://www.w3.org/2000/svg" xmlns:xlink="http://www.w3.org/1999/xlink" x="0px" y="0px"
	 viewBox="0 0 100 100" style="enable-background:new 0 0 100 100;" xml:space="preserve">
<g>
	<g>
		<path d="M22.1,36.9c0-0.1,0.1-0.2,0.1-0.3c0.1,0.1,0.1,0.1,0.2,0.2c0,0,0,0.1,0,0.1c-0.1,0.2-0.1,0.3,0.1,0.3c0.2,0,0.4,0,0.6,0
			c0,0.1,0,0.1,0,0.2c0.2-0.2,0.5,0.1,0.8-0.2c-0.1-0.1-0.2-0.2-0.3-0.3c-0.7-0.7-1.3-1.5-2-2.2c-0.5-0.5-1-1-1.4-1.5
			c-0.2-0.2-0.2-0.8,0.2-0.9c0.4-0.1,0.5-0.4,0.5-0.8c0-0.4-0.1-0.7-0.4-1c-0.2-0.2-0.4-0.5-0.6-0.7c-0.2-0.3-0.4-0.5-0.6-0.7
			c-0.2-0.2-0.4-0.5-0.6-0.7c-0.5-0.5-0.9-1-1.3-1.5c-0.5-0.5-1-1.1-1.4-1.6c-0.2-0.3-0.5-0.6-0.7-0.9c-0.3-0.4-0.3-0.8,0.2-1
			c0.2-0.1,0.3-0.2,0.4-0.4c0-0.3,0-0.6,0-0.8c-0.1-0.2-0.3-0.4-0.5-0.5c-0.7-0.8-1.4-1.7-2.1-2.5c-0.3-0.3-0.6-0.6-0.9-1
			c-0.4-0.5-0.9-1.1-1.3-1.6c-0.2-0.3-0.5-0.5-0.7-0.8c-0.1-0.1-0.1-0.2-0.2-0.3c-0.2-0.2-0.4-0.5-0.6-0.7c-0.3-0.4-0.6-0.7-0.9-1.1
			c-0.1-0.1-0.2-0.2-0.3-0.4c-0.2-0.2-0.3-0.4-0.5-0.6c-0.3-0.3-0.5-0.6-0.8-0.9c-0.3-0.4-0.6-0.7-0.9-1.1c-0.4-0.5-0.8-1-1.2-1.5
			C4.4,8.9,4,8.7,3.8,8.2C3.6,7.9,3.2,7.7,3,7.4C2.8,7.2,2.6,6.9,2.5,6.7C2.3,6.1,2,5.7,1.7,5.3C1.4,5,1,4.8,0.9,4.4
			c0,0-0.1-0.1-0.1-0.1C0.6,4.2,0.5,4,0.5,3.8c0.6-0.9,0.6-0.9,1.1-1.1C1.5,2.4,1.8,2.3,1.9,2.2C2.1,2,2.4,1.8,2.5,1.6
			C2.7,1.4,3,1.2,3.1,0.9c0.2,0,0.3-0.2,0.4-0.4c0.1-0.1,0.3-0.1,0.4-0.1c0.1,0.1,0.3,0.1,0.4,0.3c0.4,0.5,0.9,1,1.3,1.5
			C6,2.8,6.5,3.4,7.1,4c0.4,0.4,0.7,0.8,1,1.2c0.2,0.2,0.4,0.5,0.6,0.8C9,6.3,9.3,6.5,9.5,6.9c0.2,0.4,0.6,0.6,0.8,1
			c0,0.1,0.2,0.2,0.3,0.3c0.5,0.6,0.9,1.2,1.4,1.7c0,0.1,0.1,0.1,0.1,0.2c0.1,0.3,0.3,0.7,0.2,1c0,0.1,0.1,0.2,0.1,0.2
			c0.5,0.6,1,1.3,1.5,1.9c0.4,0.5,0.7,1,1.1,1.5c0.1,0.1,0.3,0.2,0.4,0.3c0.3,0.6,0.8,1,1.2,1.5c0.4,0.6,0.8,1.1,1,1.8
			c0.1,0.2,0.3,0.4,0.4,0.6c0.2,0.2,0.4,0.4,0.5,0.6c0.6,0.7,1.2,1.4,1.7,2.1c0.3,0.4,0.6,0.9,1,1.3c0.2,0.2,0.4,0.5,0.6,0.7
			c0.3,0.3,0.4,0.6,0.5,0.9c0,0.3-0.1,0.6-0.4,0.6c-0.2,0.1-0.3,0.2-0.3,0.4c0,0.1,0,0.3-0.1,0.4c0,0.1,0,0.3-0.1,0.4
			c0.6,0.8,1.3,1.6,2,2.3c0.1,0,0.3-0.1,0.4-0.1c0.2,0,0.3,0.1,0.3,0.2c0,0,0,0.1,0,0.1c0.2,0.2,0.3,0.3,0.3,0.5
			c0.1-0.1,0.2-0.1,0.3,0.1c0.2,0.3,0.2,0.3,0.6,0.2c-0.3-0.4-0.6-0.8-0.9-1.1c-0.1-0.1-0.3-0.2-0.2-0.4c0.1-0.2,0.1-0.5,0.4-0.6
			c0.1,0,0.1-0.1,0.2-0.1c0.3-0.2,0.4-0.4,0.4-0.8c0-0.2,0-0.5-0.1-0.6c-0.1-0.2-0.3-0.4-0.5-0.6c-0.2-0.3-0.5-0.5-0.7-0.8
			c-0.7-0.8-1.3-1.6-2-2.4c-0.3-0.4-0.7-0.8-1-1.2c-0.2-0.3-0.5-0.6-0.7-0.9c-0.1-0.1-0.1-0.1-0.2-0.2c-0.3-0.3-0.3-0.7,0.1-1
			c0.4-0.3,0.7-0.5,1.1-0.7c0.3-0.2,0.6-0.4,0.9-0.6c0.3-0.2,0.7-0.3,1-0.3c0.2,0.2,0.4,0.4,0.6,0.6c0.2,0.2,0.4,0.5,0.6,0.7
			c0.2,0.3,0.5,0.6,0.7,0.9c0.3,0.4,0.6,0.8,0.9,1.3c0.2,0.3,0.4,0.6,0.6,0.8c0.3,0.4,0.6,0.7,0.8,1.1c0.4,0.5,0.8,1,1.2,1.5
			c0.3,0.4,0.7,0.7,0.9,1.1c0.2,0.4,0.7,0.7,0.8,1.1c0.3,0.2,0.4,0.5,0.7,0.8c0.2,0.2,0.3,0.5,0.5,0.8c0.4,0.3,0.5,0.8,0.9,1.1
			c0.1,0.4,0.6,0.6,0.8,1.1c0.1,0.2,0.3,0.3,0.4,0.5c0.1,0.1,0.1,0.2,0.2,0.3c0.2,0.3,0.4,0.6,0.7,0.9c-0.2,0.2-0.3,0.4-0.5,0.5
			c-0.4,0.4-0.7,0.7-1.1,1.1c-0.1,0.1-0.1,0.2-0.2,0.3c-0.1,0.2-0.2,0.4-0.4,0.6c-0.3,0.4-0.6,0.7-0.9,1.1c-0.9,1.1-1.7,2.2-2.6,3.4
			c-0.5,0.6-0.9,1.3-1.4,1.9c-0.3,0.3-0.3,0.3-0.7,0.2c-0.6-0.2-1.2-0.4-1.9,0c-0.2,0.1-0.4,0.2-0.6,0.1c-0.2,0-0.3,0.1-0.5,0.1
			c-1.2,0.2-1.8-0.3-2.3-1.1c0-0.1-0.1-0.1,0-0.2c0.1-0.4-0.2-0.6-0.3-0.9c-0.2-0.4-0.6-0.6-1-0.8c-0.4-0.2-0.8-0.4-1.1-0.7
			c-0.1-0.1-0.3-0.2-0.4-0.3c-0.1,0-0.1-0.1-0.2-0.1c-0.2-0.3-0.6-0.5-0.9-0.7c-0.2-0.1-0.4-0.3-0.6-0.5c-0.2-0.1-0.3-0.3-0.5-0.4
			c-0.2-0.1-0.4-0.2-0.4-0.4c-0.1-0.1-0.1,0-0.1,0c-0.1-0.1-0.4-0.2-0.3-0.4c-0.2-0.3-0.4-0.7-0.5-1c-0.2-0.5-0.7-0.9-1.1-1.2
			c-0.5-0.4-0.9-0.9-1.4-1.3c-0.5-0.5-1-1-1.5-1.5c-0.7-0.7-1.5-1.4-2.2-2.1c-0.3-0.3-0.6-0.6-0.9-0.8c-0.1-0.1-0.1-0.2-0.1-0.3
			c0-0.2-0.1-0.4,0-0.6c0.1-0.7-0.4-1-0.8-1.5c-0.1-0.1-0.3-0.1-0.4-0.2c-0.4-0.3-0.9-0.6-1.2-1c-0.5-0.2-0.7-0.8-1.1-1
			c-0.3-0.2-0.4-0.5-0.6-0.7C3.6,20.6,3,20,2.4,19.3c-0.3-0.3-0.6-0.7-0.9-1c-0.2-0.2-0.5-0.5-0.7-0.7c-0.3-0.3-0.6-0.7-0.9-1
			c-0.2-0.2-0.2-0.4-0.2-0.7c0-1.3,0-2.6,0-3.9c0-0.7,0-1.4,0-2.1c0-0.1,0-0.3,0-0.4C-0.2,9.7-0.1,9.7,0,9.7c0.3,0.4,0.6,0.8,1,1.2
			c0.2,0.2,0.4,0.5,0.5,0.8C1.7,11.9,1.8,12,2,12.2c0.3,0.4,0.6,0.7,0.9,1.1c0.1,0.1,0.1,0.1,0.2,0.2c0.3,0.4,0.6,0.9,0.6,1.4
			c0,0.1,0.1,0.3,0.2,0.4c0.4,0.5,0.9,1,1.3,1.5c0.3,0.4,0.7,0.7,1,1.2c0.3,0.4,0.7,0.8,1,1.1C7.6,19.5,8,20,8.4,20.4
			c0.1,0.1,0.2,0.3,0.4,0.4c0.3,0.3,0.5,0.7,0.9,1c0.2,0.2,0.4,0.5,0.6,0.7c0,0.1,0.1,0.1,0.1,0.2c0.4,0.4,0.7,0.8,1.1,1.2
			c0.3,0.3,0.5,0.6,0.8,0.9c0.2,0.3,0.5,0.6,0.8,0.9c0.3,0.4,0.6,0.8,1,1.1c0.2,0.3,0.5,0.5,0.7,0.8c0,0,0.1,0.1,0.1,0.1
			c0.3,0.5,0.5,1,0.3,1.6c-0.1,0.2,0,0.4,0.1,0.5c0.6,0.7,1.2,1.3,1.9,2c0,0,0,0,0,0.1c0.4,0.3,0.7,0.7,1,1c0.6,0.6,1.2,1.2,1.8,1.9
			c0.3,0.3,0.7,0.6,1,1c0.3,0.3,0.6,0.5,0.9,0.8C21.9,36.6,22,36.7,22.1,36.9z M26,30.3c0,0.1-0.1,0.3-0.1,0.4
			c-0.1,0-0.1-0.1-0.2-0.1c0.1,0.2,0,0.6,0.4,0.7c0-0.1,0.1-0.2,0.1-0.3c0.1,0.4,0.4,0.6,0.6,0.8c0.2-0.1,0.2,0.1,0.4,0.3
			c-0.2,0.1-0.3,0.1-0.4,0.2c0.4,0.1,0.7,0.4,0.9,0.6c0.1,0,0.1-0.2,0.3,0c0,0,0.1,0,0.2,0.1c0,0.2,0,0.3-0.1,0.5
			c0.2,0.1,0.3,0.2,0.4,0.2c0.2-0.1,0.1,0.4,0.3,0.2c-0.1-0.1-0.1-0.2-0.2-0.3c-0.1-0.1-0.1-0.2-0.1-0.3C28.3,33.1,28.2,33,28,33
			c0-0.2-0.1-0.4-0.2-0.6c-0.3-0.3-0.6-0.6-0.9-0.9c-0.1-0.1-0.1-0.1-0.1-0.2c0-0.3-0.3-0.4-0.5-0.5c-0.1,0.1-0.1,0.2-0.1,0.3
			c0-0.1,0-0.2-0.1-0.3c0.1,0,0.1-0.1,0.1-0.1c0,0,0-0.1-0.1-0.1C26.1,30.4,26.1,30.4,26,30.3c-0.1,0-0.2-0.1-0.3-0.2
			c-0.2,0.2,0.1,0.2,0.1,0.3C25.9,30.4,26,30.4,26,30.3z"/>
		<path d="M40.7,26.3c0.5,0.4,0.4,0.5-0.2,0.9c0.3,0.4,0.3,0.5-0.2,0.7c0,0.4-0.2,0.6-0.7,0.7c-0.3,0.1-0.7,0.1-1,0
			c-0.3,0-0.6,0.1-0.8,0.3c-0.3,0.3-0.6,0.7-0.9,1c-0.3,0-0.4-0.2-0.5-0.3c-0.3-0.4-0.5-0.8-0.8-1.2c-0.4-0.6-0.8-1.2-1.2-1.7
			c-0.5-0.5-0.8-1.1-1.2-1.7c-0.1-0.1-0.3-0.2-0.4-0.4c-0.2-0.2-0.1-0.4-0.1-0.7c0.1-0.3,0.3-0.4,0.5-0.5c0.2-0.1,0.5-0.2,0.7-0.4
			c0.4-0.4,0.4-1.1,0.1-1.5c-0.3-0.3-0.5-0.7-0.8-1c-0.4-0.5-0.8-1.1-1.2-1.6c-0.1-0.1-0.2-0.2-0.3-0.3c-0.3-0.4-0.8-0.5-1.2-0.4
			c-0.2,0-0.4,0.2-0.6,0.3c-0.7,0.4-1.4,0.9-2.1,1.3c-0.2,0.1-0.4,0.1-0.6,0c-0.3-0.2-0.6-0.3-0.8-0.6c-0.1-0.2-0.2-0.3-0.3-0.5
			c0-0.1-0.1-0.1-0.2-0.2c-0.3-0.4-0.7-0.8-1-1.2c-0.4-0.5-0.8-1.1-1.2-1.6c-0.3-0.4-0.7-0.8-1-1.3c-0.3-0.4-0.7-0.7-0.9-1.1
			c-0.2-0.3-0.5-0.6-0.7-0.9c-0.3-0.3-0.5-0.6-0.8-1c-0.3-0.4-0.7-0.8-0.9-1.2c0-0.1-0.2-0.2-0.2-0.3c-0.4-0.5-0.8-0.9-1.2-1.4
			c-0.4-0.5-0.8-1-1.2-1.4c-0.3-0.4-0.6-0.7-0.9-1.1c0-0.1-0.1-0.1-0.2-0.1C15.4,5.5,15.2,5.3,15,5c-0.2-0.2-0.4-0.4-0.6-0.6
			c-0.2-0.2-0.4-0.5-0.6-0.8c-0.2-0.3-0.5-0.6-0.7-0.9c-0.4-0.4-0.7-0.9-1.1-1.3c-0.1-0.2-0.3-0.4-0.4-0.5c-0.3-0.3-0.6-0.6-0.9-1
			c-0.1-0.1-0.1-0.1-0.1-0.3c0.1,0,0.2,0,0.3,0c2,0,4,0,6,0c0.2,0,0.4,0,0.5,0.3c0.3,0.4,0.6,0.8,0.9,1.1c0.4,0.4,0.7,0.9,1.1,1.4
			c0.3,0.4,0.6,0.7,0.8,1.1c0.2,0.3,0.4,0.5,0.6,0.7c0.4,0.5,0.8,1,1.2,1.5c0.3,0.4,0.7,0.8,1,1.2c0.2,0.2,0.3,0.4,0.4,0.6
			c0.1,0.1,0.2,0.2,0.3,0.4c0.2,0.3,0.3,0.6,0.6,0.8c0.6,0.5,0.9,1.2,1.2,1.9c0.1,0.1,0.1,0.3,0.2,0.4c0.4,0.4,0.7,0.8,0.9,1.2
			c0.2,0.3,0.5,0.6,0.7,0.9c0.3,0.3,0.6,0.4,1,0.4c0.2,0,0.4-0.1,0.6-0.3c0.5-0.3,0.9-0.7,1.3-1c0.4-0.2,0.4-0.5,0.4-0.8
			c0-0.2-0.1-0.5-0.2-0.7c-0.4-0.6-0.9-1.2-1.3-1.8c-0.3-0.4-0.6-0.8-0.9-1.2c-0.2-0.3-0.5-0.6-0.8-1c-0.1-0.2-0.3-0.4-0.4-0.6
			C27.2,6.1,27.1,6,27,5.9c-0.3-0.3-0.6-0.6-0.7-1c0-0.1-0.1-0.1-0.2-0.2c-0.5-0.5-0.8-1.1-1.2-1.6c-0.4-0.6-0.9-1.2-1.4-1.8
			c-0.3-0.4-0.7-0.9-1-1.3c-0.1-0.1-0.1-0.2-0.2-0.3c0.2,0,0.3,0,0.5,0c2.7,0,5.4,0,8.1,0c0.1,0,0.2,0,0.3,0c0.2,0,0.4,0.1,0.4,0.4
			c0.1,0.3,0.3,0.5,0.5,0.7c0.3,0.4,0.6,0.9,0.9,1.3c0.3,0.5,0.6,1,1,1.6c0.1,0.2,0.2,0.4,0.1,0.6c0,0.1-0.1,0.3-0.2,0.4
			c-0.1,0.1-0.3,0.3-0.5,0.3c-0.3,0.1-0.2,0.4-0.4,0.7c-0.1,0.3,0,0.4,0.2,0.7c0.3,0.5,0.7,1,1.1,1.5c0.3,0.4,0.5,0.9,0.8,1.3
			c0.2,0.4,0.5,0.7,0.7,1c0.2,0.3,0.5,0.5,0.6,0.9c0.1,0.3,0.4,0.7,0.6,1c0.4,0.5,0.7,1,1,1.6c0.1,0.2,0.1,0.5,0.2,0.7
			c0,0.2,0,0.3-0.2,0.4c-0.2,0.1-0.4,0.2-0.6,0.4c-0.2,0.1-0.4,0.2-0.5,0.3c-0.3,0.2-0.6,0.4-0.8,0.7c-0.1,0.2-0.2,0.5-0.2,0.8
			c0,0.2,0.2,0.4,0.4,0.6c0.2,0.3,0.5,0.7,0.7,1c0.1,0.2,0.2,0.4,0.4,0.6c0.2,0.3,0.4,0.6,0.7,0.9c0.3,0.5,0.6,1,0.9,1.5
			c0.2,0.3,0.3,0.5,0.5,0.8c0.4,0.7,0.9,1.5,1.3,2.2c0.2,0.3,0.4,0.7,0.6,1c0.1,0.1,0,0.4-0.1,0.5C41,26.1,40.9,26.2,40.7,26.3z"/>
		<path d="M-0.3,61.7c0-4.7,0-9.4,0-14c0.4,0,0.8-0.1,1.2-0.1c0.3,0,0.6,0.1,0.8,0.1c0.4,0,0.8,0.1,1.2,0.1c0.8,0,1.6,0,2.4,0.1
			c0.9,0.1,1.8,0.1,2.7,0.1c0.1,0,0.1,0,0.2-0.1c0.1,0,0.2-0.1,0.3-0.1c0.2-0.1,0.4-0.3,0.5-0.5c0.1-0.1,0.1-0.2,0.1-0.3
			c0.1-0.4,0.5-0.6,0.8-0.8c0.1-0.1,0.2,0,0.3,0c0.3,0,0.5,0,0.8,0c0.6,0,1.1,0.1,1.7,0.1c0.4,0,0.7,0.1,1.1,0.1
			c0.1,0,0.3-0.1,0.4-0.1c0.1,0,0.3,0,0.4-0.1c0.4-0.1,0.7-0.3,1.1-0.5c0.2-0.1,0.3-0.1,0.5-0.1c0.3,0,0.6,0.1,0.8,0.1
			c0.1,0,0.2,0,0.2,0c0.2-0.1,0.3,0,0.5,0.1c0.1,0,0.3,0.1,0.4,0.1c0.2,0.1,0.4,0.2,0.5,0.4c0.1,0.1,0.1,0.3,0.1,0.4
			c0,0.2,0,0.4,0,0.6c0,0.1,0.1,0.2,0.1,0.3c0,0.1,0.1,0.2,0.1,0.2c0,0.1,0,0.1,0.1,0.2c0.1,0.1,0.1,0.2,0.1,0.3
			c0.1,0.2,0.2,0.4,0.2,0.6c0,0.2,0,0.5,0,0.7c-0.5,0.1-1,0.4-1.5,0.4c-0.6,0-1.1,0-1.7,0.1c-0.6,0-1.3,0-1.9,0.1
			c-0.1,0-0.2,0-0.2,0.1c-0.1,0.1-0.2,0.3-0.3,0.4c-0.1,0.1-0.3,0.2-0.4,0.4c-0.1,0.2-0.2,0.3-0.4,0.5c-0.3,0.3-0.6,0.3-0.9,0.3
			c-0.8,0-1.5,0.1-2.3,0c-0.6,0-1.2,0-1.9-0.1c-0.5,0-0.7,0.2-0.9,0.5c-0.2,0.4-0.5,0.7-0.8,1c-0.2,0.2-0.5,0.2-0.7,0.2
			c-0.6,0-1.2,0.1-1.9-0.1c-0.3,0-0.6,0-0.9,0c-0.4,0-0.8,0.1-1.1-0.1c-0.4,0.1-0.7-0.1-1.1,0.1c-0.2,0.1-0.5,0.3-0.6,0.5
			c-0.1,0.1-0.1,0.3-0.1,0.4c0,0.2,0,0.5,0.2,0.7c0.2,0.2,0.5,0.4,0.8,0.4c0.6,0,1.2,0,1.7,0c0.4,0,0.7,0,1.1,0c0.2,0,0.4,0,0.5,0
			c0.7,0,1.4,0,2.1,0.1c0.4,0,0.7,0,1.1,0c0.2,0,0.4,0,0.6,0c0.3,0,0.5-0.1,0.7-0.3c0.1-0.2,0.3-0.3,0.4-0.6
			c0.1-0.3,0.3-0.6,0.5-0.8c0.1-0.1,0.4-0.2,0.6-0.2c0.5,0,1.1,0,1.6,0.1c0.7,0,1.4,0.1,2.1,0c0.3,0,0.6-0.1,1-0.1
			c0.7-0.1,1.5-0.2,2.2-0.1c0.4,0,0.7,0,1.1,0c0.1,0,0.2,0,0.3,0.1c0.1,0,0.2,0.1,0.3,0.1c0.5,0.1,0.7,0.4,0.5,0.8
			c-0.2,0.3-0.2,0.7-0.3,1.1c-0.2,0.5-0.4,1-0.7,1.5c-0.1,0.2-0.2,0.2-0.4,0.2c-0.5,0-0.9,0-1.4,0.1c-0.6,0-1.1,0.1-1.7,0.1
			c-0.3,0-0.5,0-0.8,0c-0.2,0-0.5,0-0.7,0c-0.2,0-0.4,0.1-0.5,0.3c0,0.1-0.2,0.2-0.3,0.3c-0.2,0.2-0.2,0.4-0.3,0.5
			c-0.1,0.4-0.5,0.5-0.8,0.6c-0.6,0.2-1.2,0.1-1.7,0.1c-0.7,0.1-1.4,0-2.1,0c-0.4,0-0.8,0.1-1.1,0.5c-0.1,0.1-0.1,0.1-0.2,0.2
			c-0.2,0.2-0.5,0.3-0.7,0.4c-0.1,0-0.2,0.1-0.2,0.1c-0.5,0-0.9,0.1-1.4,0.1c-0.1,0-0.3,0-0.4,0c-0.1,0-0.3-0.1-0.4,0.1
			c0,0-0.1,0-0.1,0c-0.8-0.1-1.5-0.1-2.3-0.1c-0.2,0-0.5,0.1-0.7,0.3C0.3,61.4,0,61.6-0.3,61.7z"/>
		<path d="M47,21.2c0.2,0.1,0.3,0.1,0.4,0.2c0.1,0.1,0.2,0.2,0.2,0.3c0,0.1-0.1,0.2-0.2,0.2C47,22,46.7,22,46.3,22
			c-0.1,0-0.3,0-0.4,0.1c0,0,0.1,0.1,0.1,0.1c0.1,0,0.3,0,0.4,0.1c0.1,0.1,0.3,0.2,0.3,0.3c0,0.2-0.1,0.2-0.3,0.3
			c-0.4,0.2-0.8,0.1-1.3,0c-0.2-0.1-0.4,0-0.6,0.1c-0.3,0.3-0.6,0.5-0.9,0.7c-0.1,0.1-0.1,0.1-0.2,0.2c0.1,0.1,0.3,0.2,0.5,0.4
			c-0.1,0.1-0.1,0.3-0.2,0.3c-0.4,0.1-0.7,0.3-1.1,0.2c0-0.5-0.1-0.9-0.4-1.3c-0.3-0.5-0.5-1-0.8-1.5c-0.2-0.3-0.2-0.6-0.5-0.8
			c-0.1-0.1-0.2-0.3-0.2-0.4c-0.2-0.4-0.5-0.9-0.7-1.3c-0.2-0.3-0.3-0.5-0.5-0.7c-0.3-0.3-0.3-0.7-0.3-1c0-0.2,0.2-0.3,0.4-0.4
			c0.3-0.1,0.5-0.2,0.8-0.5c0.1-0.1,0.2-0.1,0.3-0.1c0.4-0.1,0.5-0.4,0.6-0.7c0.1-0.4,0-0.7-0.3-1c-0.1-0.1-0.1-0.2-0.1-0.3
			c-0.2-0.5-0.6-0.9-0.9-1.3c-0.3-0.5-0.6-1-0.9-1.5c-0.1-0.1-0.2-0.2-0.2-0.3c-0.4-0.6-0.8-1.2-1.2-1.8c-0.3-0.4-0.5-0.7-0.7-1.1
			c-0.1-0.3-0.3-0.5-0.5-0.7c-0.4-0.5-0.6-1-1-1.5c-0.1-0.2-0.1-0.3,0-0.5c0.1-0.3,0.2-0.5,0.5-0.6c0.3-0.1,0.5-0.3,0.7-0.5
			c0.2-0.2,0.4-0.3,0.7-0.4c0.2-0.1,0.3-0.3,0.4-0.6c0-0.3,0-0.6-0.2-0.8c0-0.1-0.1-0.2-0.2-0.2c-0.1-0.2-0.3-0.4-0.4-0.7
			c-0.1-0.2-0.2-0.4-0.3-0.5c-0.4-0.4-0.6-0.9-0.9-1.4c-0.1-0.2-0.2-0.3-0.4-0.5c0.1-0.2,0.3-0.1,0.4-0.1c1.5,0,3,0,4.5,0
			c0.2,0,0.4,0,0.6,0c0.3,0,0.4,0.1,0.6,0.3c0.2,0.4,0.5,0.8,0.7,1.2c0.2,0.3,0.3,0.5,0.5,0.8c0.2,0.5,0.5,1,0.8,1.5
			c0.3,0.4,0.5,0.8,0.7,1.3c0.2,0.4,0.5,0.8,0.7,1.3c0.3,0.6,0.7,1.2,0.6,1.9c-0.5,0.3-0.9,0.6-1.3,0.9c-0.1,0-0.1,0.1-0.2,0.1
			c-0.3,0.2-0.5,0.3-0.6,0.7c0,0.2-0.2,0.5-0.1,0.7c0.1,0.2,0.2,0.4,0.4,0.7c0.2,0.4,0.4,0.7,0.5,1.1c0.1,0.3,0.3,0.5,0.4,0.7
			c0.3,0.5,0.5,0.9,0.7,1.4c0.1,0.3,0.3,0.6,0.5,1c0.2,0.4,0.3,0.7,0.5,1.1c0.2,0.4,0.4,0.9,0.6,1.3c0.2,0.4,0.3,0.8,0.5,1.2
			c0.1,0.3,0.3,0.6,0.4,0.9c0.1,0.2,0,0.4,0.2,0.6c0,0-0.1,0.2-0.1,0.2c-0.2,0.2-0.4,0.3-0.6,0.5C47.2,21.1,47.1,21.1,47,21.2z"/>
		<path d="M46.2-0.3c1.9,0,3.7,0,5.6,0c0.3,0.7,0.6,1.3,0.8,2C52.8,2.1,53,2.6,53.2,3c0.1,0.2,0.1,0.5,0.2,0.7
			c0.3,0.6,0.5,1.2,0.7,1.9c0.1,0.3,0.2,0.5,0.3,0.8c0.1,0.3,0.3,0.6,0.4,0.9c0.1,0.4,0.2,0.8,0.3,1.2c0.1,0.3,0.2,0.6,0.3,1
			c0.1,0.5,0.3,1,0.4,1.6c0,0.3,0.1,0.5,0.1,0.8c0,0.4,0.2,0.8,0.4,1.1c0.3,0.6,0.2,0.8-0.3,1.2c-0.2,0.1-0.3,0.2-0.5,0.4
			c-0.3,0.2-0.3,0.4,0,0.7c0.1,0.1,0.1,0.2,0.1,0.2c0,0.1-0.1,0.1-0.2,0.1c-0.3,0-0.6,0-0.9,0c-0.2,0-0.4,0-0.6,0.2
			c-0.7,0.6-1.5,1.1-2.2,1.7c-0.5,0.3-0.9,0.7-1.4,1c-0.1,0.1-0.2,0.2-0.4,0.3c-0.1,0.1-0.3,0.2-0.5,0.1c0-0.2,0-0.4,0.2-0.6
			c0.2-0.2,0.3-0.5,0.2-0.9c-0.1-0.5-0.3-1-0.4-1.4c-0.1-0.4-0.4-0.9-0.5-1.3c-0.1-0.2-0.1-0.4-0.2-0.6c-0.2-0.4-0.4-0.9-0.6-1.3
			c-0.2-0.5-0.5-0.9-0.6-1.4c-0.2-0.6-0.5-1.1-0.8-1.7c-0.1-0.2,0-0.7,0.3-0.9c0.2-0.1,0.3-0.3,0.5-0.4C47.8,8.2,48,8,48.3,7.9
			c0.3-0.2,0.7-0.4,1-0.7c0,0,0.1-0.1,0.1-0.1c0-0.3,0.1-0.6,0.1-0.9c0-0.2-0.1-0.4-0.2-0.6c-0.5-0.9-1-1.9-1.4-2.8
			c-0.1-0.1-0.1-0.3-0.2-0.5c-0.3-0.5-0.5-1-0.8-1.5c-0.2-0.3-0.2-0.6-0.4-0.8C46.3-0.1,46.2-0.2,46.2-0.3z"/>
		<path d="M18.9,42.6c-0.1,0.1-0.2,0.1-0.3,0.2c-0.4,0.3-0.9,0.4-1.5,0.3c-0.4-0.1-0.9,0-1.3,0c-0.5,0-1,0-1.5-0.1
			c-0.2,0-0.4,0-0.5,0c-0.7-0.1-1.1,0.3-1.4,0.9c0,0.1-0.1,0.2-0.1,0.3c0,0,0,0.1,0,0.1c-0.3,0.2-0.4,0.6-0.9,0.6
			c-0.3,0-0.6,0.1-1,0c-0.8,0-1.7-0.1-2.5-0.2c0,0-0.1,0-0.1,0c-0.4,0.1-0.9,0-1.3,0c-0.5-0.1-0.9,0.4-1,0.7c0,0.3-0.3,0.4-0.4,0.6
			c-0.5,0.3-1,0.4-1.5,0.4c-0.6-0.1-1.2-0.1-1.8-0.1c-0.6,0-1.3,0-1.9-0.1c-0.1,0-0.2,0-0.2,0c-0.1-0.3-0.1-5.6,0-6.1
			c0.3,0,0.5,0,0.8,0.1c0.5,0,1,0.1,1.6,0.1c0.3,0,0.7,0,1,0c0.4,0.1,0.8,0.1,1.2,0.1c0.5,0,1,0.1,1.5,0.1c0.2,0,0.5,0,0.7-0.1
			c0.4-0.2,0.8-0.3,0.9-0.9c0-0.4,0.4-0.4,0.6-0.7c0.2-0.3,0.6-0.3,0.9-0.3c0.6,0,1.2,0.1,1.8,0.2c0.9,0,1.7,0.3,2.6,0.2
			c0.3,0.1,0.6-0.1,0.9-0.1c0.1,0,0.2-0.1,0.3-0.1c0.3-0.2,0.7-0.3,1-0.5c0.3-0.1,0.5-0.1,0.8-0.1c0.2,0,0.4,0,0.6,0
			c0.7,0,1.4,0.2,2,0.4c0.2,0.1,0.3,0.3,0.4,0.4c0.1,0.1,0,0.3,0,0.5c0,0.3-0.1,0.6-0.1,1c0,0.1-0.1,0.2-0.1,0.4
			c0,0.2-0.2,0.4,0,0.7C19,41.8,19.1,42,19,42.2C18.9,42.3,18.9,42.5,18.9,42.6z"/>
		<path d="M-0.3,63.3c0.8,0,1.6,0,2.4,0c0.9,0,1.7,0,2.6-0.1c0.5,0,1.1,0,1.6,0c0.1,0,0.3,0,0.4,0c0.5,0,0.9,0,1.4,0
			c0.5,0,1,0,1.4,0c0.3,0,0.5-0.1,0.7-0.3c0.1-0.1,0.2-0.1,0.3-0.2c0.1-0.1,0.2-0.1,0.3-0.2c0.3-0.4,0.8-0.5,1.3-0.5
			c0.8,0,1.6-0.1,2.3-0.1c0.4,0,0.8,0,1.1-0.1c0.3,0,0.5-0.1,0.8-0.1c0,0.1,0,0.2-0.1,0.3c-0.1,0.1-0.1,0.3-0.2,0.4
			c-0.1,0.2-0.1,0.4,0.1,0.5c0.3,0.2,0.4,0.5,0.4,0.9c0,0.2-0.1,0.4-0.1,0.5c-0.2,0.5-0.7,1.2-1.4,1.2c-0.1,0-0.3,0-0.5,0
			c-0.2,0.6-0.8,0.9-1.4,1.2c-0.2,0.1-0.5,0-0.7,0.1c-0.5,0-1,0.1-1.5,0.1c-0.5,0-1,0.1-1.5,0.1c-0.3,0-0.5,0-0.8,0.1
			c-0.1,0-0.2,0.1-0.3,0.2c-0.2,0.4-0.7,0.7-1,1.1c0,0-0.1,0.1-0.2,0.1c-0.5,0.1-1.1,0.1-1.6,0.2c-0.4,0-0.7,0-1.1,0.1
			c-0.4,0-0.8,0-1.2,0c-0.5,0-1,0-1.5,0.1c-0.2,0-0.4,0.1-0.4,0.2c-0.2,0.4-0.6,0.5-0.9,0.7c-0.1,0.1-0.3,0.1-0.5,0.2
			c-0.2,0.1-0.3,0-0.3-0.2c0-0.1,0-0.1,0-0.2c0-2,0-4,0-6C-0.3,63.5-0.3,63.5-0.3,63.3z"/>
		<path d="M-0.3,37.5c0-3.5,0-6.9,0-10.3c0.2,0.1,0.5,0.2,0.7,0.3c0.2,0.1,0.3,0,0.4-0.1c0.2-0.3,0.2-0.4,0-0.5
			c-0.3-0.3-0.6-0.6-0.9-0.8c-0.1-0.1-0.2-0.2-0.2-0.3c0-0.9,0-1.9,0-2.9C0,23,0.1,23.3,0.3,23.4c0.4,0.2,0.5,0.6,0.7,1
			c0.1,0.2,0.2,0.4,0.1,0.6c0,0.2,0.1,0.3,0.3,0.5c0.3,0.2,0.6,0.5,0.9,0.8c0.5,0.4,1,0.9,1.5,1.3c0.7,0.6,1.5,1.2,2.2,1.8
			c0.3,0.3,0.7,0.5,1,0.8c0.2,0.2,0.4,0.4,0.4,0.7c0,0.1,0,0.2-0.1,0.3c-0.4-0.2-0.7-0.4-1.1-0.6c-0.5-0.3-1-0.5-1.6-0.7
			c-0.3-0.1-0.5-0.2-0.9-0.1c-0.1,0.3-0.2,0.5-0.5,0.6c-0.2,0.1-0.4,0.3-0.6,0.6c-0.1,0.1-0.1,0.3-0.1,0.4c0.4,0.3,0.9,0.4,1.4,0.5
			c0.5,0.1,1,0.1,1.6,0.2c0.1,0,0.1,0.1,0.2,0.1c0.2,0,0.4,0.1,0.6,0.1c0.3,0,0.6,0.2,1,0c0.2-0.1,0.3-0.1,0.5-0.1
			c0-0.1-0.1-0.2-0.1-0.3c0-0.1-0.1-0.2,0-0.3c0-0.1,0.2-0.2,0.3-0.2c0.2,0.2,0.5,0.2,0.8,0.3c0.2,0.1,0.4,0.2,0.6,0.3
			c0.4,0.3,0.8,0.5,1.2,0.8c0.4,0.3,0.8,0.5,1.2,0.7c0.2,0.1,0.4,0,0.5,0.3c0.1,0.2,0.1,0.3,0.2,0.5c0.1,0.2,0.1,0.4-0.2,0.4
			c-0.2,0-0.5,0-0.7,0c-0.4,0-0.8,0-1.1-0.1c-0.4,0-0.7,0.2-0.9,0.5c-0.4,0.6-0.9,0.9-1.7,0.8c-0.6,0-1.3-0.2-1.9-0.3
			c-0.2,0-0.3,0-0.5,0c-0.5,0-0.9-0.1-1.4-0.1c-0.3,0-0.5,0-0.8,0.1c-0.3,0.2-0.5,0.4-0.5,0.8c0,0.4-0.2,0.7-0.5,1
			c-0.2,0.2-0.5,0.3-0.7,0.3c-0.2,0.1-0.5,0-0.8,0C0.5,37.6,0.1,37.6-0.3,37.5z"/>
		<path d="M59.9,12.9c-0.2,0.1-0.3,0.1-0.4,0.1c-0.3,0-0.5,0.1-0.8,0.2c-0.2,0.1-0.4,0-0.6,0.1c-0.1,0-0.2,0-0.3,0
			c-0.3,0-0.3,0-0.2-0.3c0-0.3,0.1-0.6,0.1-0.9c0-0.2-0.1-0.4-0.2-0.6c-0.1-0.6-0.2-1.1-0.3-1.7c-0.1-0.3-0.2-0.6-0.2-1
			c0-0.1,0-0.3-0.1-0.4c-0.1-0.2-0.1-0.4-0.2-0.6c-0.1-0.3-0.2-0.6-0.2-0.9c0-0.2-0.2-0.3-0.2-0.5c-0.1-0.4-0.2-0.8-0.3-1.3
			c0-0.1-0.1-0.1-0.1-0.2c-0.1-0.2-0.2-0.4-0.2-0.6c0-0.1,0-0.2-0.1-0.2c-0.2-0.2-0.1-0.5,0.1-0.7C56,3.2,56.3,3,56.6,2.8
			c0,0,0.1,0,0.1-0.1c0.4-0.4,1-0.6,1.3-1c0.1-0.1,0.2-0.1,0.2-0.1c0.3-0.7,0.2-1.3-0.1-2c0.2,0,0.3,0,0.4,0c1.4,0,2.8,0,4.2,0
			c0.1,0,0.1,0,0.2,0c0.2,0,0.2,0.1,0.2,0.3c0,0.5,0.1,1,0.2,1.5c0.1,0.7,0.2,1.4,0.3,2.1c0.1,0.4,0.1,0.7,0.1,1.1
			c0,0.3,0.2,0.6,0.4,0.8c0.1,0.1,0.2,0.1,0.3,0.1c0.1,0,0.2-0.1,0.3-0.1c0.3,0,0.3,0,0.5,0.3c-0.3,0.1-0.6,0.2-1,0.2
			c-0.2,0-0.3,0-0.5,0.2c-0.1,0.2-0.3,0.3-0.4,0.5c-0.1,0.2-0.2,0.4-0.2,0.6c0.1,0.1,0.2,0.2,0.4,0.3c0.2,0.2,0.2,0.3,0.2,0.5
			c-0.1,0.3-0.2,0.4-0.5,0.4c-0.2,0-0.5,0-0.7-0.1c-0.2-0.1-0.7,0-0.8,0.3c-0.2,0.3-0.4,0.7-0.6,1.1c-0.3,0-0.7,0-0.9,0.3
			c-0.2,0.2-0.2,0.4-0.2,0.6c0.3,0,0.5,0.1,0.7,0.4c0,0.1-0.1,0.2-0.2,0.2c-0.3,0-0.5,0-0.8-0.1c-0.5-0.1-0.8,0-1,0.4
			c-0.2,0.3,0,0.7,0.3,0.8C59.5,12.5,59.6,12.5,59.9,12.9z"/>
		<path d="M11.7,70.8c-0.1,0.4-0.4,0.3-0.7,0.5c-0.3,0.2-0.6,0.4-0.9,0.4c-0.4,0-0.7,0.3-1,0.4c-0.4,0.2-0.7,0.4-1.1,0.6
			c-0.2,0.1-0.4,0.1-0.7,0.2C6.6,73.3,5.8,73.6,5,74c-0.1,0.1-0.3,0.1-0.4,0.2c-0.2,0.1-0.4,0.2-0.5,0.2c-0.2,0-0.3,0.1-0.5,0.2
			c-0.4,0.1-0.7,0.3-1,0.4c-0.5,0.2-1,0.4-1.5,0.6c-0.3,0.1-0.5,0.3-0.8,0.4C0.1,76,0,76,0,76c-0.1,0-0.2,0-0.2-0.2
			c0-0.1,0-0.1,0-0.2c0-1.5,0-2.9,0-4.4c0-0.1,0-0.2,0-0.3c0.6,0,1.2-0.1,1.9-0.1c0.5,0,1.1,0,1.6,0c0.4,0,0.9,0,1.3-0.1
			c0.4,0,0.8-0.1,1.1,0c0.2,0,0.5-0.1,0.7-0.1c0.5,0,0.9,0,1.4,0c0.3,0,0.5,0,0.8-0.1c0.4-0.1,0.8-0.3,1.3-0.4
			c0.4-0.1,0.8-0.1,1.2,0c0.2,0,0.3,0.2,0.4,0.2C11.6,70.5,11.7,70.7,11.7,70.8z"/>
	</g>
</g>
</svg>
