<?xml version="1.0" encoding="utf-8"?>
<!-- Generator: Adobe Illustrator 26.5.1, SVG Export Plug-In . SVG Version: 6.00 Build 0)  -->
<svg version="1.1" id="Ebene_1" xmlns="http://www.w3.org/2000/svg" xmlns:xlink="http://www.w3.org/1999/xlink" x="0px" y="0px"
	 viewBox="0 0 100 100" style="enable-background:new 0 0 100 100;" xml:space="preserve">
<g>
	<path d="M42,44.3c0-0.2,0.1-0.3,0.1-0.5c0.1,0.3,0.1,0.6,0.2,0.9c-0.1,0.1-0.2,0.2-0.4,0.4c0.6,0.3,0.2,1.2,1.1,1.3
		c-0.7,0.5-0.6,1-0.3,1.5c-0.1,0-0.2,0.1-0.3,0.1c-0.3,0-0.6,0-0.6,0.3c0,0.2,0.2,0.5,0.4,0.6c0.3,0.2,0.7,0.5,1.1,0.6
		c0.9,0.3,1.6,0.9,2.1,1.7c0.4,0.6,0.9,1.3,0.9,2c0,0.7-0.1,1.4-0.3,2.1c-0.7,2-2.1,3.4-3.6,4.7c-1.2,0.9-2.5,1.7-3.7,2.6
		c-3.2,2.4-6.2,5.1-9.1,7.9c-1.8,1.8-3.5,3.5-5.3,5.3c-1.1,1.1-2.2,2.2-3.2,3.3c-1.6,1.8-3.3,3.6-5.1,5.3c-1.3,1.3-2.7,2.6-4,3.9
		c-0.3,0.3-0.6,0.3-0.9-0.1c-0.8-0.8-1.7-1.7-2.5-2.5c-0.2-0.2-0.5-0.5-0.7-0.7c-0.4-0.3-0.7-0.3-1.1,0c-0.4,0.3-0.8,0.7-1.1,1.1
		c-1.1,1.4-1.7,3.1-1.8,4.9c-0.1,1,0.1,2.1,0.5,3C4.7,94.5,5,95,5,95.3c-0.1,0.4-0.6,0.7-0.9,1c-0.2,0.3-0.5,0.5-0.8,0.7
		c-0.3,0.3-0.5,0.5-0.8,0.8c-0.1-0.1-0.2-0.1-0.2-0.2c-1.5-2-2.3-4.2-2.6-6.7c-0.1-0.9,0-1.9,0.2-2.8c0.5-1.8,1.4-3.4,2.6-4.8
		c0.7-0.8,1.6-1.5,2.3-2.3c1.5-1.6,3.1-3.1,4.6-4.7c3.3-3.5,6.5-6.9,9.8-10.4c1.6-1.8,3.3-3.5,4.8-5.3c1.8-2,3.5-4.1,5.3-6.1
		c0.6-0.7,1.2-1.4,1.8-2.2c0.7-0.9,1.4-1.7,2.1-2.6c0.1-0.1,0.1-0.3,0.3-0.5c-0.3,0-0.6-0.1-0.9-0.1c-1.8,0.1-3.6,0.2-5.4,0.3
		c-2.7,0.1-5.5,0.2-8.2-0.1c-3.1-0.3-6-0.9-8.7-2.3c-2.3-1.1-4.1-2.7-5.3-5c-1.2-2.3-1.9-4.7-2.3-7.2c-0.4-2.8-0.7-5.6-1-8.4
		C1.6,23,1.4,19.6,1.1,16.2C0.7,12.3,0.4,8.4,0,4.5c-0.1-0.9,0-1,0.9-1.1C4.1,3,7.2,2.6,10.3,2.2c0.8-0.1,0.8-0.1,0.9,0.7
		c0.1,1.7,0.3,3.4,0.4,5.1c0.3,3.4,0.6,6.8,0.9,10.3c0.3,3.4,0.5,6.8,0.8,10.2c0.1,1.4,0.4,2.8,0.6,4.2c0.1,0.9,0.2,1.9,0.4,2.7
		c0.3,1.2,0.6,2.3,1.1,3.4c1,2.6,2.8,4.4,5.5,5.3c1.7,0.6,3.6,0.8,5.4,1c1.7,0.2,3.4,0.4,5.1,1c1,0.4,2.1,0.7,3.1,1.1
		c0.5,0.2,0.8,0.1,1.1-0.3c0.4-0.6,0.9-1.2,1.3-1.8c0.5-0.7,0.9-1.5,1.4-2.2c0.1-0.2,0.4-0.5,0.6-0.6c0.5-0.2,0.5-0.5,0.6-0.9
		c0-0.1,0.1-0.3,0.1-0.4c0.6-0.1,0.7,0.4,1,0.6c0.4,0.2,0.7,0.5,1,0.8c-0.1,0.6-0.1,0.6,0.5,1.1c0.1,0.1,0.1,0.1,0.2,0.2
		C41.7,43.7,41.8,44,42,44.3z M7.9,15.2c0.1-0.4,0.3-0.7,0.4-1.1c0.3-1.2,0.1-2.4-0.9-3.2c-1-0.9-2.3-1.1-3.4-0.5
		c-1.4,0.7-2.4,2-2.1,3.8c0.1,0.6,0.4,1.1,0.8,1.5c0.6,0.5,0.6,0.5,0.3,1.2c-0.5,1.3-0.2,2.7,0.8,3.6C4.3,21,4.3,21,4,21.5
		c-0.7,1.3-0.5,2.8,0.6,3.8c0.8,0.9,2.5,1.1,3.7,0.5C10.1,24.9,11,22,9,20.4c-0.1-0.1-0.3-0.2-0.4-0.4C9.6,18.2,9.5,16.6,7.9,15.2z"
		/>
</g>
</svg>
