<?xml version="1.0" encoding="utf-8"?>
<!-- Generator: Adobe Illustrator 26.5.1, SVG Export Plug-In . SVG Version: 6.00 Build 0)  -->
<svg version="1.1" id="Ebene_1" xmlns="http://www.w3.org/2000/svg" xmlns:xlink="http://www.w3.org/1999/xlink" x="0px" y="0px"
	 viewBox="0 0 100 100" style="enable-background:new 0 0 100 100;" xml:space="preserve">
<g>
	<g>
		<path d="M41.9,60.6c0.3-0.2,0.6-0.4,0.9-0.8c0.3-0.4,0.7-0.6,1-1c0.6-0.6,1.2-1.3,1.8-1.9c0.3-0.3,0.6-0.7,1-1c0,0,0,0,0-0.1
			c0.6-0.7,1.2-1.3,1.9-2c0.1-0.1,0.2-0.3,0.1-0.5c-0.2-0.6,0-1.1,0.3-1.6c0,0,0.1-0.1,0.1-0.1c0.2-0.3,0.5-0.5,0.7-0.8
			c0.3-0.4,0.7-0.7,1-1.1c0.3-0.3,0.5-0.6,0.8-0.9c0.3-0.3,0.5-0.6,0.8-0.9c0.4-0.4,0.7-0.9,1.1-1.2c0,0,0.1-0.1,0.1-0.2
			c0.2-0.3,0.4-0.6,0.6-0.7c0.4-0.3,0.6-0.7,0.9-1c0.1-0.1,0.3-0.3,0.4-0.4c0.4-0.4,0.8-0.9,1.2-1.3c0.3-0.4,0.7-0.7,1-1.1
			c0.3-0.4,0.7-0.7,1-1.2c0.4-0.5,0.9-1,1.3-1.5c0.1-0.1,0.2-0.2,0.2-0.4c0.1-0.5,0.3-1,0.6-1.4c0.1-0.1,0.1-0.1,0.2-0.2
			c0.3-0.4,0.6-0.7,0.9-1.1c0.2-0.2,0.3-0.3,0.5-0.5c0.2-0.2,0.3-0.5,0.5-0.8c0.4-0.4,0.7-0.7,1-1.2c0-0.1,0.1-0.1,0.3-0.2
			c0,0.2,0,0.3,0,0.4c0,0.7,0,1.4,0,2.1c0,1.3,0,2.6,0,3.9c0,0.3,0,0.5-0.2,0.7c-0.3,0.3-0.6,0.7-0.9,1c-0.2,0.2-0.5,0.5-0.7,0.7
			c-0.3,0.3-0.6,0.7-0.9,1c-0.6,0.6-1.2,1.3-1.8,1.9c-0.2,0.2-0.4,0.6-0.6,0.7c-0.4,0.3-0.6,0.8-1.1,1c-0.3,0.5-0.8,0.7-1.2,1
			c-0.1,0.1-0.3,0.1-0.4,0.2c-0.4,0.4-0.8,0.8-0.8,1.5c0,0.2,0,0.4,0,0.6c0,0.1-0.1,0.2-0.1,0.3c-0.3,0.3-0.6,0.6-0.9,0.8
			c-0.7,0.7-1.5,1.4-2.2,2.1c-0.5,0.5-1,1-1.5,1.5c-0.5,0.5-0.9,0.9-1.4,1.3c-0.4,0.4-0.8,0.7-1.1,1.2c-0.2,0.3-0.3,0.7-0.5,1
			c0.1,0.3-0.2,0.3-0.3,0.4c0,0-0.1-0.1-0.1,0c-0.1,0.2-0.3,0.3-0.4,0.4c-0.2,0.1-0.3,0.2-0.5,0.4c-0.2,0.2-0.4,0.3-0.6,0.5
			c-0.3,0.2-0.6,0.4-0.9,0.7c0,0.1-0.1,0.1-0.2,0.1c-0.1,0.1-0.3,0.2-0.4,0.3c-0.3,0.3-0.7,0.5-1.1,0.7c-0.4,0.2-0.8,0.4-1,0.8
			c-0.2,0.3-0.5,0.5-0.3,0.9c0,0.1,0,0.1,0,0.2c-0.5,0.9-1.1,1.3-2.3,1.1c-0.2,0-0.3-0.2-0.5-0.1c-0.2,0.1-0.4,0-0.6-0.1
			c-0.6-0.3-1.3-0.2-1.9,0c-0.4,0.1-0.5,0.2-0.7-0.2c-0.5-0.6-0.9-1.3-1.4-1.9c-0.8-1.1-1.7-2.2-2.6-3.4c-0.3-0.4-0.6-0.7-0.9-1.1
			c-0.1-0.2-0.2-0.4-0.4-0.6c-0.1-0.1-0.1-0.2-0.2-0.3c-0.3-0.4-0.7-0.7-1.1-1.1c-0.2-0.2-0.3-0.3-0.5-0.5c0.2-0.3,0.5-0.6,0.7-0.9
			c0.1-0.1,0.1-0.2,0.2-0.3c0.1-0.2,0.4-0.3,0.4-0.5c0.2-0.4,0.6-0.6,0.8-1.1c0.4-0.3,0.6-0.8,0.9-1.1c0.2-0.2,0.3-0.6,0.5-0.8
			c0.3-0.2,0.4-0.6,0.7-0.8c0.1-0.5,0.6-0.7,0.8-1.1c0.2-0.4,0.6-0.7,0.9-1.1c0.4-0.5,0.8-1,1.2-1.5c0.3-0.4,0.6-0.7,0.8-1.1
			c0.2-0.3,0.4-0.6,0.6-0.8c0.3-0.4,0.6-0.8,0.9-1.3c0.2-0.3,0.5-0.6,0.7-0.9c0.2-0.2,0.4-0.5,0.6-0.7c0.2-0.2,0.4-0.4,0.6-0.6
			c0.4-0.1,0.7,0,1,0.3c0.3,0.2,0.6,0.4,0.9,0.6c0.4,0.3,0.7,0.5,1.1,0.7c0.4,0.3,0.4,0.7,0.1,1c-0.1,0.1-0.1,0.1-0.2,0.2
			c-0.2,0.3-0.5,0.6-0.7,0.9c-0.3,0.4-0.7,0.8-1,1.2c-0.7,0.8-1.3,1.6-2,2.4c-0.2,0.3-0.5,0.5-0.7,0.8c-0.2,0.2-0.4,0.4-0.5,0.6
			c-0.1,0.2-0.1,0.4-0.1,0.6c0,0.3,0.1,0.6,0.4,0.8c0.1,0,0.1,0.1,0.2,0.1c0.2,0.1,0.3,0.4,0.4,0.6c0.1,0.2-0.1,0.3-0.2,0.4
			c-0.3,0.3-0.6,0.7-0.9,1.1c0.3,0.1,0.4,0.1,0.6-0.2c0.1-0.1,0.2-0.2,0.3-0.1c0-0.2,0-0.2,0.3-0.5c0,0,0-0.1,0-0.1
			c0-0.2,0.2-0.2,0.3-0.2c0.1,0,0.3,0,0.4,0.1c0.7-0.7,1.4-1.5,2-2.3c0-0.1,0-0.2-0.1-0.4c0-0.1-0.1-0.3-0.1-0.4
			c0-0.2-0.1-0.3-0.3-0.4c-0.3-0.1-0.5-0.3-0.4-0.6c0.1-0.4,0.2-0.7,0.5-0.9c0.2-0.2,0.4-0.4,0.6-0.7c0.3-0.4,0.6-0.9,1-1.3
			c0.6-0.7,1.1-1.4,1.7-2.1c0.2-0.2,0.4-0.4,0.5-0.6c0.2-0.2,0.4-0.4,0.4-0.6c0.2-0.7,0.6-1.2,1-1.8c0.4-0.5,0.9-1,1.2-1.5
			c0.1-0.1,0.3-0.2,0.4-0.3c0.4-0.5,0.7-1,1.1-1.5c0.5-0.6,1-1.3,1.5-1.9c0.1-0.1,0.1-0.2,0.1-0.2c-0.1-0.4,0.1-0.7,0.2-1
			c0-0.1,0.1-0.1,0.1-0.2c0.5-0.6,0.9-1.2,1.4-1.7c0.1-0.1,0.2-0.2,0.3-0.3c0.1-0.4,0.6-0.6,0.8-1c0.2-0.3,0.5-0.6,0.8-0.9
			c0.2-0.3,0.4-0.5,0.6-0.8c0.4-0.4,0.7-0.8,1-1.2c0.6-0.6,1.1-1.2,1.6-1.8c0.4-0.5,0.9-0.9,1.3-1.5c0.1-0.1,0.2-0.2,0.4-0.3
			c0.1,0,0.3-0.1,0.4,0.1c0.1,0.1,0.1,0.3,0.4,0.4c0.1,0.3,0.4,0.5,0.6,0.7c0.2,0.2,0.4,0.4,0.6,0.5c0.2,0.1,0.4,0.2,0.3,0.5
			c0.5,0.2,0.5,0.2,1.1,1.1c0,0.2-0.1,0.5-0.4,0.6c0,0-0.1,0.1-0.1,0.1c-0.1,0.4-0.5,0.6-0.7,0.9c-0.4,0.4-0.7,0.8-0.9,1.3
			c-0.1,0.3-0.3,0.5-0.5,0.8c-0.2,0.3-0.6,0.5-0.8,0.8c-0.3,0.4-0.6,0.7-0.9,1.1c-0.4,0.5-0.8,1-1.2,1.5c-0.3,0.4-0.6,0.7-0.9,1.1
			c-0.3,0.3-0.5,0.6-0.8,0.9c-0.2,0.2-0.3,0.4-0.5,0.6c-0.1,0.1-0.3,0.2-0.3,0.4c-0.3,0.4-0.6,0.7-0.9,1.1c-0.2,0.2-0.4,0.5-0.6,0.7
			c-0.1,0.1-0.1,0.2-0.2,0.3c-0.2,0.3-0.5,0.5-0.7,0.8c-0.4,0.5-0.9,1.1-1.3,1.6c-0.3,0.3-0.6,0.6-0.9,1c-0.7,0.8-1.4,1.7-2.1,2.5
			c-0.2,0.2-0.4,0.3-0.5,0.5c-0.1,0.3-0.1,0.6,0,0.8c0,0.2,0.2,0.3,0.4,0.4c0.4,0.3,0.5,0.6,0.2,1c-0.2,0.3-0.5,0.6-0.7,0.9
			c-0.4,0.6-0.9,1.1-1.4,1.6c-0.4,0.5-0.8,1-1.3,1.5c-0.2,0.2-0.4,0.5-0.6,0.7c-0.2,0.2-0.5,0.4-0.6,0.7c-0.2,0.3-0.4,0.5-0.6,0.7
			c-0.3,0.3-0.4,0.6-0.4,1c0,0.3,0.1,0.6,0.5,0.8c0.3,0.1,0.4,0.7,0.2,0.9c-0.5,0.5-1,1-1.4,1.5c-0.7,0.7-1.3,1.5-2,2.2
			c-0.1,0.1-0.2,0.2-0.3,0.3c0.3,0.3,0.5-0.1,0.8,0.2c0-0.1,0-0.2,0-0.2c0.2,0,0.4,0,0.6,0c0.2,0,0.2-0.1,0.1-0.3c0,0,0-0.1,0-0.1
			c0.1-0.1,0.1-0.1,0.2-0.2c0,0.1,0.1,0.2,0.1,0.3C41.8,60.7,41.8,60.6,41.9,60.6z M37.9,54.4c-0.1-0.1,0.3,0,0.1-0.3
			c-0.1,0.1-0.2,0.1-0.3,0.2c0,0-0.1,0.1-0.1,0.1c0,0-0.1,0.1-0.1,0.1c0,0.1,0.1,0.1,0.1,0.1c0,0.1,0,0.1-0.1,0.3
			c-0.1-0.1-0.1-0.2-0.1-0.3c-0.2,0.1-0.5,0.2-0.5,0.5c0,0.1-0.1,0.1-0.1,0.2c-0.3,0.3-0.6,0.6-0.9,0.9c-0.1,0.2-0.2,0.4-0.2,0.6
			c-0.1,0.1-0.2,0.2-0.4,0.2c0,0.1-0.1,0.2-0.1,0.3c-0.1,0.1-0.1,0.2-0.2,0.3c0.2,0.2,0.1-0.3,0.3-0.2c0.1,0,0.2-0.1,0.4-0.2
			c0-0.1,0-0.3-0.1-0.5c0.1,0,0.2,0,0.2-0.1c0.1-0.1,0.2,0,0.3,0c0.1-0.2,0.5-0.5,0.9-0.6c-0.1-0.1-0.3-0.1-0.4-0.2
			c0.1-0.1,0.1-0.3,0.4-0.3c0.2-0.2,0.5-0.4,0.6-0.8c0,0.1,0.1,0.2,0.1,0.3c0.4-0.1,0.2-0.5,0.4-0.7c-0.1,0-0.1,0.1-0.2,0.1
			c0-0.1-0.1-0.3-0.1-0.4C37.8,54.4,37.9,54.4,37.9,54.4z"/>
		<path d="M23.1,50.3c-0.5,0.4-0.4,0.5,0.2,0.9c-0.3,0.4-0.3,0.5,0.2,0.7c0,0.4,0.2,0.6,0.7,0.7c0.3,0.1,0.7,0.1,1,0
			c0.3,0,0.6,0.1,0.8,0.3c0.3,0.3,0.6,0.7,0.9,1c0.3,0,0.4-0.2,0.5-0.3c0.3-0.4,0.5-0.8,0.8-1.2c0.4-0.6,0.8-1.2,1.2-1.7
			c0.5-0.5,0.8-1.1,1.2-1.7c0.1-0.1,0.3-0.2,0.4-0.4c0.2-0.2,0.1-0.4,0.1-0.7c-0.1-0.3-0.3-0.4-0.5-0.5c-0.2-0.1-0.5-0.2-0.7-0.4
			c-0.4-0.4-0.4-1.1-0.1-1.5c0.3-0.3,0.5-0.7,0.8-1c0.4-0.5,0.8-1.1,1.2-1.6c0.1-0.1,0.2-0.2,0.3-0.3c0.3-0.4,0.8-0.5,1.2-0.4
			c0.2,0,0.4,0.2,0.6,0.3c0.7,0.4,1.4,0.9,2.1,1.3c0.2,0.1,0.4,0.1,0.6,0c0.3-0.2,0.6-0.3,0.8-0.6c0.1-0.2,0.2-0.3,0.3-0.5
			c0-0.1,0.1-0.1,0.2-0.2c0.3-0.4,0.7-0.8,1-1.2c0.4-0.5,0.8-1.1,1.2-1.6c0.3-0.4,0.7-0.8,1-1.3c0.3-0.4,0.7-0.7,0.9-1.1
			c0.2-0.3,0.5-0.6,0.7-0.9c0.3-0.3,0.5-0.6,0.8-1c0.3-0.4,0.7-0.8,0.9-1.2c0-0.1,0.2-0.2,0.2-0.3c0.4-0.5,0.8-0.9,1.2-1.4
			c0.4-0.5,0.8-1,1.2-1.4c0.3-0.4,0.6-0.7,0.9-1.1c0-0.1,0.1-0.1,0.2-0.1c0.3-0.2,0.5-0.4,0.7-0.7c0.2-0.2,0.4-0.4,0.6-0.6
			c0.2-0.2,0.4-0.5,0.6-0.8c0.2-0.3,0.5-0.6,0.7-0.9c0.4-0.4,0.7-0.9,1.1-1.3c0.1-0.2,0.3-0.4,0.4-0.5c0.3-0.3,0.6-0.6,0.9-1
			c0.1-0.1,0.1-0.1,0.1-0.3c-0.1,0-0.2,0-0.3,0c-2,0-4,0-6,0c-0.2,0-0.4,0-0.5,0.3c-0.3,0.4-0.6,0.8-0.9,1.1
			c-0.4,0.4-0.7,0.9-1.1,1.4c-0.3,0.4-0.6,0.7-0.8,1.1c-0.2,0.3-0.4,0.5-0.6,0.7c-0.4,0.5-0.8,1-1.2,1.5c-0.3,0.4-0.7,0.8-1,1.2
			c-0.2,0.2-0.3,0.4-0.4,0.6c-0.1,0.1-0.2,0.2-0.3,0.4c-0.2,0.3-0.3,0.6-0.6,0.8c-0.6,0.5-0.9,1.2-1.2,1.9c-0.1,0.1-0.1,0.3-0.2,0.4
			c-0.4,0.4-0.7,0.8-0.9,1.2c-0.2,0.3-0.5,0.6-0.7,0.9c-0.3,0.3-0.6,0.4-1,0.4c-0.2,0-0.4-0.1-0.6-0.3c-0.5-0.3-0.9-0.7-1.3-1
			C33,36,33,35.7,33,35.3c0-0.2,0.1-0.5,0.2-0.7c0.4-0.6,0.9-1.2,1.3-1.8c0.3-0.4,0.6-0.8,0.9-1.2c0.2-0.3,0.5-0.6,0.8-1
			c0.1-0.2,0.3-0.4,0.4-0.6c0.1-0.1,0.1-0.2,0.2-0.3c0.3-0.3,0.6-0.6,0.7-1c0-0.1,0.1-0.1,0.2-0.2c0.5-0.5,0.8-1.1,1.2-1.6
			c0.4-0.6,0.9-1.2,1.4-1.8c0.3-0.4,0.7-0.9,1-1.3c0.1-0.1,0.1-0.2,0.2-0.3c-0.2,0-0.3,0-0.5,0c-2.7,0-5.4,0-8.1,0
			c-0.1,0-0.2,0-0.3,0c-0.2,0-0.4,0.1-0.4,0.4c-0.1,0.3-0.3,0.5-0.5,0.7c-0.3,0.4-0.6,0.9-0.9,1.3c-0.3,0.5-0.6,1-1,1.6
			c-0.1,0.2-0.2,0.4-0.1,0.6c0,0.1,0.1,0.3,0.2,0.4c0.1,0.1,0.3,0.3,0.5,0.3c0.3,0.1,0.2,0.4,0.4,0.7c0.1,0.3,0,0.4-0.2,0.7
			c-0.3,0.5-0.7,1-1.1,1.5c-0.3,0.4-0.5,0.9-0.8,1.3c-0.2,0.4-0.5,0.7-0.7,1c-0.2,0.3-0.5,0.5-0.6,0.9c-0.1,0.3-0.4,0.7-0.6,1
			c-0.4,0.5-0.7,1-1,1.6c-0.1,0.2-0.1,0.5-0.2,0.7c0,0.2,0,0.3,0.2,0.4c0.2,0.1,0.4,0.2,0.6,0.4c0.2,0.1,0.4,0.2,0.5,0.3
			c0.3,0.2,0.6,0.4,0.8,0.7c0.1,0.2,0.2,0.5,0.2,0.8c0,0.2-0.2,0.4-0.4,0.6c-0.2,0.3-0.5,0.7-0.7,1c-0.1,0.2-0.2,0.4-0.4,0.6
			c-0.2,0.3-0.4,0.6-0.7,0.9c-0.3,0.5-0.6,1-0.9,1.5c-0.2,0.3-0.3,0.5-0.5,0.8c-0.4,0.7-0.9,1.5-1.3,2.2c-0.2,0.3-0.4,0.7-0.6,1
			c-0.1,0.1,0,0.4,0.1,0.5C22.8,50.1,22.9,50.2,23.1,50.3z"/>
		<path d="M64,85.7c0-4.7,0-9.4,0-14c-0.4,0-0.8-0.1-1.2-0.1c-0.3,0-0.6,0.1-0.8,0.1c-0.4,0-0.8,0.1-1.2,0.1c-0.8,0-1.6,0-2.4,0.1
			c-0.9,0.1-1.8,0.1-2.7,0.1c-0.1,0-0.1,0-0.2-0.1c-0.1,0-0.2-0.1-0.3-0.1c-0.2-0.1-0.4-0.3-0.5-0.5c-0.1-0.1-0.1-0.2-0.1-0.3
			c-0.1-0.4-0.5-0.6-0.8-0.8c-0.1-0.1-0.2,0-0.3,0c-0.3,0-0.5,0-0.8,0c-0.6,0-1.1,0.1-1.7,0.1c-0.4,0-0.7,0.1-1.1,0.1
			c-0.1,0-0.3-0.1-0.4-0.1c-0.1,0-0.3,0-0.4-0.1c-0.4-0.1-0.7-0.3-1.1-0.5c-0.2-0.1-0.3-0.1-0.5-0.1c-0.3,0-0.6,0.1-0.8,0.1
			c-0.1,0-0.2,0-0.2,0c-0.2-0.1-0.3,0-0.5,0.1c-0.1,0-0.3,0.1-0.4,0.1c-0.2,0.1-0.4,0.2-0.5,0.4c-0.1,0.1-0.1,0.3-0.1,0.4
			c0,0.2,0,0.4,0,0.6c0,0.1-0.1,0.2-0.1,0.3c0,0.1-0.1,0.2-0.1,0.2c0,0.1,0,0.1-0.1,0.2c-0.1,0.1-0.1,0.2-0.1,0.3
			c-0.1,0.2-0.2,0.4-0.2,0.6c0,0.2,0,0.5,0,0.7c0.5,0.1,1,0.4,1.5,0.4c0.6,0,1.1,0,1.7,0.1c0.6,0,1.3,0,1.9,0.1c0.1,0,0.2,0,0.2,0.1
			c0.1,0.1,0.2,0.3,0.3,0.4c0.1,0.1,0.3,0.2,0.4,0.4c0.1,0.2,0.2,0.3,0.4,0.5c0.3,0.3,0.6,0.3,0.9,0.3c0.8,0,1.5,0.1,2.3,0
			c0.6,0,1.2,0,1.9-0.1c0.5,0,0.7,0.2,0.9,0.5c0.2,0.4,0.5,0.7,0.8,1c0.2,0.2,0.5,0.2,0.7,0.2c0.6,0,1.2,0.1,1.9-0.1
			c0.3,0,0.6,0,0.9,0c0.4,0,0.8,0.1,1.1-0.1c0.4,0.1,0.7-0.1,1.1,0.1c0.2,0.1,0.5,0.3,0.6,0.5c0.1,0.1,0.1,0.3,0.1,0.4
			c0,0.2,0,0.5-0.2,0.7c-0.2,0.2-0.5,0.4-0.8,0.4c-0.6,0-1.2,0-1.7,0c-0.4,0-0.7,0-1.1,0c-0.2,0-0.4,0-0.5,0c-0.7,0-1.4,0-2.1,0.1
			c-0.4,0-0.7,0-1.1,0c-0.2,0-0.4,0-0.6,0c-0.3,0-0.5-0.1-0.7-0.3c-0.1-0.2-0.3-0.3-0.4-0.6c-0.1-0.3-0.3-0.6-0.5-0.8
			c-0.1-0.1-0.4-0.2-0.6-0.2c-0.5,0-1.1,0-1.6,0.1c-0.7,0-1.4,0.1-2.1,0c-0.3,0-0.6-0.1-1-0.1c-0.7-0.1-1.5-0.2-2.2-0.1
			c-0.4,0-0.7,0-1.1,0c-0.1,0-0.2,0-0.3,0.1c-0.1,0-0.2,0.1-0.3,0.1c-0.5,0.1-0.7,0.4-0.5,0.8c0.2,0.3,0.2,0.7,0.3,1.1
			c0.2,0.5,0.4,1,0.7,1.5c0.1,0.2,0.2,0.2,0.4,0.2c0.5,0,0.9,0,1.4,0.1c0.6,0,1.1,0.1,1.7,0.1c0.3,0,0.5,0,0.8,0c0.2,0,0.5,0,0.7,0
			c0.2,0,0.4,0.1,0.5,0.3c0,0.1,0.2,0.2,0.3,0.3c0.2,0.2,0.2,0.4,0.3,0.5c0.1,0.4,0.5,0.5,0.8,0.6c0.6,0.2,1.2,0.1,1.7,0.1
			c0.7,0.1,1.4,0,2.1,0c0.4,0,0.8,0.1,1.1,0.5c0.1,0.1,0.1,0.1,0.2,0.2c0.2,0.2,0.5,0.3,0.7,0.4c0.1,0,0.2,0.1,0.2,0.1
			c0.5,0,0.9,0.1,1.4,0.1c0.1,0,0.3,0,0.4,0c0.1,0,0.3-0.1,0.4,0.1c0,0,0.1,0,0.1,0c0.8-0.1,1.5-0.1,2.3-0.1c0.2,0,0.5,0.1,0.7,0.3
			C63.5,85.4,63.7,85.6,64,85.7z"/>
		<path d="M16.8,45.3c-0.2,0.1-0.3,0.1-0.4,0.2c-0.1,0.1-0.2,0.2-0.2,0.3c0,0.1,0.1,0.2,0.2,0.2c0.3,0.1,0.7,0.1,1,0.1
			c0.1,0,0.3,0,0.4,0.1c0,0-0.1,0.1-0.1,0.1c-0.1,0-0.3,0-0.4,0.1c-0.1,0.1-0.3,0.2-0.3,0.3c0,0.2,0.1,0.2,0.3,0.3
			c0.4,0.2,0.8,0.1,1.3,0c0.2-0.1,0.4,0,0.6,0.1c0.3,0.3,0.6,0.5,0.9,0.7c0.1,0.1,0.1,0.1,0.2,0.2c-0.1,0.1-0.3,0.2-0.5,0.4
			c0.1,0.1,0.1,0.3,0.2,0.3c0.4,0.1,0.7,0.3,1.1,0.2c0-0.5,0.1-0.9,0.4-1.3c0.3-0.5,0.5-1,0.8-1.5c0.2-0.3,0.2-0.6,0.5-0.8
			c0.1-0.1,0.2-0.3,0.2-0.4c0.2-0.4,0.5-0.9,0.7-1.3c0.2-0.3,0.3-0.5,0.5-0.7c0.3-0.3,0.3-0.7,0.3-1c0-0.2-0.2-0.3-0.4-0.4
			c-0.3-0.1-0.5-0.2-0.8-0.5c-0.1-0.1-0.2-0.1-0.3-0.1c-0.4-0.1-0.5-0.4-0.6-0.7c-0.1-0.4,0-0.7,0.3-1c0.1-0.1,0.1-0.2,0.1-0.3
			c0.2-0.5,0.6-0.9,0.9-1.3c0.3-0.5,0.6-1,0.9-1.5c0.1-0.1,0.2-0.2,0.2-0.3c0.4-0.6,0.8-1.2,1.2-1.8c0.3-0.4,0.5-0.7,0.7-1.1
			c0.1-0.3,0.3-0.5,0.5-0.7c0.4-0.5,0.6-1,1-1.5c0.1-0.2,0.1-0.3,0-0.5c-0.1-0.3-0.2-0.5-0.5-0.6c-0.3-0.1-0.5-0.3-0.7-0.5
			c-0.2-0.2-0.4-0.3-0.7-0.4c-0.2-0.1-0.3-0.3-0.4-0.6c0-0.3,0-0.6,0.2-0.8c0-0.1,0.1-0.2,0.2-0.2c0.1-0.2,0.3-0.4,0.4-0.7
			c0.1-0.2,0.2-0.4,0.3-0.5c0.4-0.4,0.6-0.9,0.9-1.4c0.1-0.2,0.2-0.3,0.4-0.5c-0.1-0.2-0.3-0.1-0.4-0.1c-1.5,0-3,0-4.5,0
			c-0.2,0-0.4,0-0.6,0c-0.3,0-0.4,0.1-0.6,0.3c-0.2,0.4-0.5,0.8-0.7,1.2c-0.2,0.3-0.3,0.5-0.5,0.8c-0.2,0.5-0.5,1-0.8,1.5
			c-0.3,0.4-0.5,0.8-0.7,1.3c-0.2,0.4-0.5,0.8-0.7,1.3c-0.3,0.6-0.7,1.2-0.6,1.9c0.5,0.3,0.9,0.6,1.3,0.9c0.1,0,0.1,0.1,0.2,0.1
			c0.3,0.2,0.5,0.3,0.6,0.7c0,0.2,0.2,0.5,0.1,0.7c-0.1,0.2-0.2,0.4-0.4,0.7c-0.2,0.4-0.4,0.7-0.5,1.1c-0.1,0.3-0.3,0.5-0.4,0.7
			c-0.3,0.5-0.5,0.9-0.7,1.4c-0.1,0.3-0.3,0.6-0.5,1c-0.2,0.4-0.3,0.7-0.5,1.1c-0.2,0.4-0.4,0.9-0.6,1.3c-0.2,0.4-0.3,0.8-0.5,1.2
			c-0.1,0.3-0.3,0.6-0.4,0.9c-0.1,0.2,0,0.4-0.2,0.6c0,0,0.1,0.2,0.1,0.2c0.2,0.2,0.4,0.3,0.6,0.5C16.6,45.1,16.7,45.1,16.8,45.3z"
			/>
		<path d="M17.6,23.7c-1.9,0-3.7,0-5.6,0c-0.3,0.7-0.6,1.3-0.8,2c-0.2,0.5-0.4,0.9-0.6,1.4c-0.1,0.2-0.1,0.5-0.2,0.7
			c-0.3,0.6-0.5,1.2-0.7,1.9c-0.1,0.3-0.2,0.5-0.3,0.8C9.3,30.7,9.1,31,9,31.3c-0.1,0.4-0.2,0.8-0.3,1.2c-0.1,0.3-0.2,0.6-0.3,1
			C8.3,34,8.1,34.5,8,35c0,0.3-0.1,0.5-0.1,0.8c0,0.4-0.2,0.8-0.4,1.1c-0.3,0.6-0.2,0.8,0.3,1.2c0.2,0.1,0.3,0.2,0.5,0.4
			c0.3,0.2,0.3,0.4,0,0.7c-0.1,0.1-0.1,0.2-0.1,0.2c0,0.1,0.1,0.1,0.2,0.1c0.3,0,0.6,0,0.9,0c0.2,0,0.4,0,0.6,0.2
			c0.7,0.6,1.5,1.1,2.2,1.7c0.5,0.3,0.9,0.7,1.4,1c0.1,0.1,0.2,0.2,0.4,0.3c0.1,0.1,0.3,0.2,0.5,0.1c0-0.2,0-0.4-0.2-0.6
			c-0.2-0.2-0.3-0.5-0.2-0.9c0.1-0.5,0.3-1,0.4-1.4c0.1-0.4,0.4-0.9,0.5-1.3c0.1-0.2,0.1-0.4,0.2-0.6c0.2-0.4,0.4-0.9,0.6-1.3
			c0.2-0.5,0.5-0.9,0.6-1.4c0.2-0.6,0.5-1.1,0.8-1.7c0.1-0.2,0-0.7-0.3-0.9c-0.2-0.1-0.3-0.3-0.5-0.4c-0.3-0.1-0.5-0.3-0.8-0.5
			c-0.3-0.2-0.7-0.4-1-0.7c0,0-0.1-0.1-0.1-0.1c0-0.3-0.1-0.6-0.1-0.9c0-0.2,0.1-0.4,0.2-0.6c0.5-0.9,1-1.9,1.4-2.8
			c0.1-0.1,0.1-0.3,0.2-0.5c0.3-0.5,0.5-1,0.8-1.5c0.2-0.3,0.2-0.6,0.4-0.8C17.5,23.9,17.5,23.8,17.6,23.7z"/>
		<path d="M44.8,66.6c0.1,0.1,0.2,0.1,0.3,0.2c0.4,0.3,0.9,0.4,1.5,0.3c0.4-0.1,0.9,0,1.3,0c0.5,0,1,0,1.5-0.1c0.2,0,0.4,0,0.5,0
			c0.7-0.1,1.1,0.3,1.4,0.9c0,0.1,0.1,0.2,0.1,0.3c0,0,0,0.1,0,0.1c0.3,0.2,0.4,0.6,0.9,0.6c0.3,0,0.6,0.1,1,0
			c0.8,0,1.7-0.1,2.5-0.2c0,0,0.1,0,0.1,0c0.4,0.1,0.9,0,1.3,0c0.5-0.1,0.9,0.4,1,0.7c0,0.3,0.3,0.4,0.4,0.6c0.5,0.3,1,0.4,1.5,0.4
			c0.6-0.1,1.2-0.1,1.8-0.1c0.6,0,1.3,0,1.9-0.1c0.1,0,0.2,0,0.2,0c0.1-0.3,0.1-5.6,0-6.1c-0.3,0-0.5,0-0.8,0.1
			c-0.5,0-1,0.1-1.6,0.1c-0.3,0-0.7,0-1,0c-0.4,0.1-0.8,0.1-1.2,0.1c-0.5,0-1,0.1-1.5,0.1c-0.2,0-0.5,0-0.7-0.1
			c-0.4-0.2-0.8-0.3-0.9-0.9c0-0.4-0.4-0.4-0.6-0.7c-0.2-0.3-0.6-0.3-0.9-0.3c-0.6,0-1.2,0.1-1.8,0.2c-0.9,0-1.7,0.3-2.6,0.2
			c-0.3,0.1-0.6-0.1-0.9-0.1c-0.1,0-0.2-0.1-0.3-0.1c-0.3-0.2-0.7-0.3-1-0.5c-0.3-0.1-0.5-0.1-0.8-0.1c-0.2,0-0.4,0-0.6,0
			c-0.7,0-1.4,0.2-2,0.4c-0.2,0.1-0.3,0.3-0.4,0.4c-0.1,0.1,0,0.3,0,0.5c0,0.3,0.1,0.6,0.1,1c0,0.1,0.1,0.2,0.1,0.4
			c0,0.2,0.2,0.4,0,0.7c0.1,0.2-0.1,0.4,0.1,0.6C44.9,66.3,44.8,66.5,44.8,66.6z"/>
		<path d="M64.1,87.3c-0.8,0-1.6,0-2.4,0c-0.9,0-1.7,0-2.6-0.1c-0.5,0-1.1,0-1.6,0c-0.1,0-0.3,0-0.4,0c-0.5,0-0.9,0-1.4,0
			c-0.5,0-1,0-1.4,0c-0.3,0-0.5-0.1-0.7-0.3c-0.1-0.1-0.2-0.1-0.3-0.2c-0.1-0.1-0.2-0.1-0.3-0.2c-0.3-0.4-0.8-0.5-1.3-0.5
			c-0.8,0-1.6-0.1-2.3-0.1c-0.4,0-0.8,0-1.1-0.1c-0.3,0-0.5-0.1-0.8-0.1c0,0.1,0,0.2,0.1,0.3c0.1,0.1,0.1,0.3,0.2,0.4
			c0.1,0.2,0.1,0.4-0.1,0.5c-0.3,0.2-0.4,0.5-0.4,0.9c0,0.2,0.1,0.4,0.1,0.5c0.2,0.5,0.7,1.2,1.4,1.2c0.1,0,0.3,0,0.5,0
			c0.2,0.6,0.8,0.9,1.4,1.2c0.2,0.1,0.5,0,0.7,0.1c0.5,0,1,0.1,1.5,0.1c0.5,0,1,0.1,1.5,0.1c0.3,0,0.5,0,0.8,0.1
			c0.1,0,0.2,0.1,0.3,0.2c0.2,0.4,0.7,0.7,1,1.1c0,0,0.1,0.1,0.2,0.1c0.5,0.1,1.1,0.1,1.6,0.2c0.4,0,0.7,0,1.1,0.1
			c0.4,0,0.8,0,1.2,0c0.5,0,1,0,1.5,0.1c0.2,0,0.4,0.1,0.4,0.2c0.2,0.4,0.6,0.5,0.9,0.7c0.1,0.1,0.3,0.1,0.5,0.2
			c0.2,0.1,0.3,0,0.3-0.2c0-0.1,0-0.1,0-0.2c0-2,0-4,0-6C64.1,87.5,64.1,87.5,64.1,87.3z"/>
		<path d="M64,61.5c0-3.5,0-6.9,0-10.3c-0.2,0.1-0.5,0.2-0.7,0.3c-0.2,0.1-0.3,0-0.4-0.1c-0.2-0.3-0.2-0.4,0-0.5
			c0.3-0.3,0.6-0.6,0.9-0.8c0.1-0.1,0.2-0.2,0.2-0.3c0-0.9,0-1.9,0-2.9c-0.3,0.2-0.4,0.5-0.6,0.6c-0.4,0.2-0.5,0.6-0.7,1
			c-0.1,0.2-0.2,0.4-0.1,0.6c0,0.2-0.1,0.3-0.3,0.5c-0.3,0.2-0.6,0.5-0.9,0.8c-0.5,0.4-1,0.9-1.5,1.3c-0.7,0.6-1.5,1.2-2.2,1.8
			c-0.3,0.3-0.7,0.5-1,0.8c-0.2,0.2-0.4,0.4-0.4,0.7c0,0.1,0,0.2,0.1,0.3c0.4-0.2,0.7-0.4,1.1-0.6c0.5-0.3,1-0.5,1.6-0.7
			c0.3-0.1,0.5-0.2,0.9-0.1c0.1,0.3,0.2,0.5,0.5,0.6c0.2,0.1,0.4,0.3,0.6,0.6c0.1,0.1,0.1,0.3,0.1,0.4c-0.4,0.3-0.9,0.4-1.4,0.5
			c-0.5,0.1-1,0.1-1.6,0.2c-0.1,0-0.1,0.1-0.2,0.1c-0.2,0-0.4,0.1-0.6,0.1c-0.3,0-0.6,0.2-1,0c-0.2-0.1-0.3-0.1-0.5-0.1
			c0-0.1,0.1-0.2,0.1-0.3c0-0.1,0.1-0.2,0-0.3c0-0.1-0.2-0.2-0.3-0.2c-0.2,0.2-0.5,0.2-0.8,0.3c-0.2,0.1-0.4,0.2-0.6,0.3
			c-0.4,0.3-0.8,0.5-1.2,0.8c-0.4,0.3-0.8,0.5-1.2,0.7c-0.2,0.1-0.4,0-0.5,0.3c-0.1,0.2-0.1,0.3-0.2,0.5c-0.1,0.2-0.1,0.4,0.2,0.4
			c0.2,0,0.5,0,0.7,0c0.4,0,0.8,0,1.1-0.1c0.4,0,0.7,0.2,0.9,0.5c0.4,0.6,0.9,0.9,1.7,0.8c0.6,0,1.3-0.2,1.9-0.3c0.2,0,0.3,0,0.5,0
			c0.5,0,0.9-0.1,1.4-0.1c0.3,0,0.5,0,0.8,0.1c0.3,0.2,0.5,0.4,0.5,0.8c0,0.4,0.2,0.7,0.5,1c0.2,0.2,0.5,0.3,0.7,0.3
			c0.2,0.1,0.5,0,0.8,0C63.3,61.6,63.7,61.6,64,61.5z"/>
		<path d="M-0.2,30.1c0.1,0.2,0.3,0.3,0.4,0.5c0.1,0.2,0.2,0.4,0.2,0.6c-0.1,0.1-0.2,0.2-0.4,0.3c-0.2,0.2-0.2,0.3-0.2,0.5
			c0.1,0.3,0.2,0.4,0.5,0.4c0.2,0,0.5,0,0.7-0.1c0.2-0.1,0.7,0,0.8,0.3c0.2,0.3,0.4,0.7,0.6,1.1c0.3,0,0.7,0,0.9,0.3
			c0.2,0.2,0.2,0.4,0.2,0.6c-0.3,0-0.5,0.1-0.7,0.4c0,0.1,0.1,0.2,0.2,0.2c0.3,0,0.5,0,0.8-0.1c0.5-0.1,0.8,0,1,0.4
			c0.2,0.3,0,0.7-0.3,0.8c-0.4,0.1-0.4,0.1-0.8,0.5C4,36.9,4.1,37,4.2,37c0.3,0,0.5,0.1,0.8,0.2c0.2,0.1,0.4,0,0.6,0.1
			c0.1,0,0.2,0,0.3,0c0.3,0,0.3,0,0.2-0.3c0-0.3-0.1-0.6-0.1-0.9c0-0.2,0.1-0.4,0.2-0.6c0.1-0.6,0.2-1.1,0.3-1.7
			c0.1-0.3,0.2-0.6,0.2-1c0-0.1,0-0.3,0.1-0.4C6.9,32.3,7,32.1,7,31.9c0.1-0.3,0.2-0.6,0.2-0.9c0-0.2,0.2-0.3,0.2-0.5
			c0.1-0.4,0.2-0.8,0.3-1.3c0-0.1,0.1-0.1,0.1-0.2C8,28.9,8,28.7,8.1,28.5c0-0.1,0-0.2,0.1-0.2C8.3,28,8.2,27.8,8,27.6
			c-0.2-0.3-0.6-0.6-0.9-0.8c0,0-0.1,0-0.1-0.1c-0.4-0.4-1-0.6-1.3-1c-0.1-0.1-0.2-0.1-0.2-0.1c-0.3-0.7-0.2-1.3,0.1-2
			c-0.2,0-0.3,0-0.4,0c-1.4,0-2.8,0-4.2,0c-0.1,0-0.1,0-0.2,0c-0.2,0-0.2,0.1-0.2,0.3c0,0.5-0.1,1-0.2,1.5c-0.1,0.7-0.2,1.4-0.3,2.1
			C0,27.9,0,28.3,0,28.6"/>
		<path d="M52.1,94.8c0.1,0.4,0.4,0.3,0.7,0.5c0.3,0.2,0.6,0.4,0.9,0.4c0.4,0,0.7,0.3,1,0.4c0.4,0.2,0.7,0.4,1.1,0.6
			c0.2,0.1,0.4,0.1,0.7,0.2c0.8,0.4,1.6,0.7,2.4,1.1c0.1,0.1,0.3,0.1,0.4,0.2c0.2,0.1,0.4,0.2,0.5,0.2c0.2,0,0.3,0.1,0.5,0.2
			c0.4,0.1,0.7,0.3,1,0.4c0.5,0.2,1,0.4,1.5,0.6c0.3,0.1,0.5,0.3,0.8,0.4c0.1,0,0.2,0.1,0.3,0.1c0.1,0,0.2,0,0.2-0.2
			c0-0.1,0-0.1,0-0.2c0-1.5,0-2.9,0-4.4c0-0.1,0-0.2,0-0.3c-0.6,0-1.2-0.1-1.9-0.1c-0.5,0-1.1,0-1.6,0c-0.4,0-0.9,0-1.3-0.1
			c-0.4,0-0.8-0.1-1.1,0c-0.2,0-0.5-0.1-0.7-0.1c-0.5,0-0.9,0-1.4,0c-0.3,0-0.5,0-0.8-0.1c-0.4-0.1-0.8-0.3-1.3-0.4
			c-0.4-0.1-0.8-0.1-1.2,0c-0.2,0-0.3,0.2-0.4,0.2C52.2,94.5,52.1,94.7,52.1,94.8z"/>
	</g>
</g>
</svg>
