<?xml version="1.0" encoding="utf-8"?>
<!-- Generator: Adobe Illustrator 26.5.1, SVG Export Plug-In . SVG Version: 6.00 Build 0)  -->
<svg version="1.1" id="Ebene_1" xmlns="http://www.w3.org/2000/svg" xmlns:xlink="http://www.w3.org/1999/xlink" x="0px" y="0px"
	 viewBox="0 0 100 100" style="enable-background:new 0 0 100 100;" xml:space="preserve">
<g>
	<path d="M59.8,66.4c-0.4,0.7-0.9,1.5-1.3,2.2c-2.7,4.9-6,9.6-10.3,13.6c-1.9,1.7-3.9,3.3-6.3,4.5c-5.2,2.5-10.4,5.1-15.6,7.7
		c-2.3,1.2-4.4,2.6-6.7,3.8c-2,1.1-4.2,1.6-6.6,1.7c-3.3,0.3-5.9-0.8-8-3c-2-2.2-2.9-4.7-3.4-7.4c-0.3-1.7-0.5-3.4-0.7-5.1
		c-0.1-0.6,0.2-1.2,0.2-1.7C1.2,79.3,2,76.1,3.2,73c0.9-2.3,2.1-4.5,3.6-6.5c2.2-3.2,5.2-5.7,8.8-7.6c2.7-1.4,5.4-2.8,8.3-3.8
		c2.9-1.1,6.1-1.7,9.1-2.6c1.7-0.5,3.5-0.9,5.3-1.4c0.4-0.1,0.9-0.2,1.4-0.3c0.4-0.1,0.8-0.2,1.5-0.4c-1.5-0.5-2.2-1.2-2.7-2.2
		c-0.4-0.7-1.6-1.3-2.6-1.6c-3.6-1.4-7.4-2.5-10.9-4.1c-5.3-2.5-11-4.3-16.4-6.5c-1.2-0.5-2.5-0.8-3.7-1.1c-0.6-0.2-1.3-0.3-2-0.5
		C1.1,33.7,0,32.7-0.5,31c-0.6-2.3-0.3-4.6,0.3-6.8c0.5-2.1,1.3-4.1,1.4-6.3c0.1-1.2,0.6-2.3,1.7-3.3c0.2-0.2,0.3-0.4,0.4-0.6
		c2.2-3.8,5.5-6.7,9.4-9.3c2.5-1.7,5.3-2.8,8.2-3.9c1-0.4,2.1-0.6,3.2-0.8c1.1-0.2,1.4,0.1,1.6,1c1,3.8,2,7.5,3,11.3
		c0.5,1.9,1,3.9,1.5,5.8c0.1,0.4,0.1,0.8,0.1,1.3C23,21.6,19.1,26.2,17.8,33c3-0.5,5.8-0.9,8.7-1.3c0,0.4-0.1,0.7-0.1,1.1
		c1,0.3,1.6,0.9,2,1.7c0.1,0.3,0.5,0.5,0.8,0.8c0.7,0.8,1.3,1.7,2.1,2.5c0.6,0.7,1.3,1.2,2,1.8c0.4,0.4,1,0.7,1.4,1
		c0.9,0.7,1.7,1.4,2.5,2.1c1,0.8,1.4,1.8,0.9,2.8c-0.1,0.6,1.1,0.6,0.5,1.3c-0.1,0.1,0.1,0.4,0.2,0.5c1.5,0.6,2.3,1.8,3.5,2.6
		c0.3,0.2,0.6,0.3,1.2,0.6c-0.1-0.7,0-1.3-0.3-1.6c-1.3-1-0.9-2.3-1.2-3.5c-0.2-0.9-0.4-1.8-1.1-2.5c-0.9-0.9-1.8-1.8-1.9-3.1
		c0-0.3-0.4-0.5-0.4-1c0-0.3-0.8-0.6-1-1c-0.6-1-1.1-2.1-1.6-3.2c-0.2-0.5-0.3-1-1.1-0.7c0-0.5,0-0.8,0-1.2c0-0.3,0.5-0.5-0.1-0.8
		c-0.2-0.1-0.3-0.6-0.4-0.9c-0.1,0-0.4,0-0.6,0c4.6-0.6,9.1-0.5,13.7,0.3c0.1-0.1,0.1-0.2,0.2-0.2c-0.5-0.4-1-0.9-1.5-1.3
		c-0.2-0.2-0.5-0.2-0.6-0.4c-0.5-1.2-1.2-2.3-1.8-3.4c-0.3-0.6,0.4-1,1.2-1c-0.1-0.5-0.2-0.9-0.3-1.3c-0.3-1-0.2-1.8,0.9-2.6
		c0.6-0.4,0.8-1.3,1.1-2c0.5-1,0.9-2,1.4-3c0.1-0.2,0.1-0.5,0.2-0.8c0.1-0.4,0.2-0.8,0.4-1.1c0.2-0.5,0.3-1,0.5-1.5
		c0.1-0.3,0.2-0.6,0.4-0.8c0.6-1,1.2-2,0.8-3.2c-0.2-0.5,0-0.8,0.5-1.2c0.4-0.3,0.8-0.9,0.9-1.4c0.2-0.7,0.4-1.3,1.2-1.6
		c0.1,0,0.2-0.1,0.2-0.2c0.6-1.1,1.4-1.2,2.5-0.5C55.9,4,56.1,4,56.3,3.9c0.9-0.3,1.8,0.1,2.6,0c1-0.1,1.5,0.2,1.7,1
		c1.9-0.3,2,1,2.6,2c1-0.1,1.9-0.1,2.9-0.2c-0.1,0.4-0.1,0.7-0.1,1c-0.1,0.7,0,1.4,0.7,2c0.8,0.7,1,1.5,0.6,2.4
		c-0.1,0.3-0.1,0.7,0,1.1c0.2,1,0.1,2.1-0.2,3.1c-0.3,0.8-0.5,1.7-0.3,2.6c0.1,0.6-0.2,1.2-0.3,1.9c0,0.6-0.7,1.1-0.1,1.7
		c0.1,0.1,0,0.3-0.1,0.4c-0.6,1.5-1.3,3.1-1,4.8c0.1,0.4-0.2,0.9-0.3,1.3c-0.4,1.4-0.7,2.8-1.1,4.2c-0.5,1.6-1,3.2-2.6,4.2
		c1.1,1.3,2.1,2.5,3.1,3.7c1.5,1.8,1.9,3.9,2.1,6c0.1,0.7,0.1,1.4,0,2c-0.1,0.7,0.3,1.1,1.1,1.2c1.4,0.3,2.9,0.4,4.3,0.8
		c4.8,1.3,9.1,3.1,13.1,5.8c3.8,2.5,7,5.5,9.6,9c1.9,2.6,3.6,5.2,4.4,8.2c0.2,0.7,0.5,1.3,0.9,2.1c-0.6,0.2-1.1,0.4-1.6,0.4
		c-5.6,0.6-11.2,1.1-16.7,1.7c-1.5,0.2-3,0.3-4.5,0.5c-0.7,0.1-1.1-0.1-1.2-0.7c-0.4-1.6-1.1-3.1-2.2-4.5c-1.2-1.5-2.6-2.8-4.3-3.9
		c-2.7-1.8-5.8-2.7-9-3.4C60.3,66.4,60.1,66.4,59.8,66.4z M39.2,68.1c-0.5,0.7-0.8,1.2-1.3,1.7c-1.9,1.9-3.9,3.8-5.8,5.7
		c-1.2,1.2-2.3,2.6-3.5,3.8c-1.1,1.1-2.3,2-3.8,2.5c-1,0.4-1.1,0.4-1,1.4c0.4,1.8,1.4,3.4,2.8,4.8c0.7,0.6,1.6,1,2.5,1.4
		c0.7,0.4,1.2,0.2,1.6-0.4c1.1-1.5,2.4-3,3.4-4.6c2.5-3.7,4.4-7.6,6.2-11.6c0.7-1.6,1.4-3.3,2.1-5c0.1-0.3,0.1-0.7,0.1-1.3
		C41.2,67.3,40.1,67.7,39.2,68.1z M28.8,72.7c0.2,0.2,0.3,0.3,0.4,0.3c0.1,0,0.3-0.1,0.3-0.2c0-0.1-0.1-0.2-0.1-0.3
		C29.2,72.6,29,72.6,28.8,72.7z M26.8,75.4c-0.1,0-0.2-0.1-0.3-0.1c-0.1,0.2-0.1,0.4-0.2,0.5c0.1,0,0.2,0.1,0.3,0
		C26.7,75.7,26.7,75.5,26.8,75.4z"/>
</g>
</svg>
