<?xml version="1.0" encoding="utf-8"?>
<!-- Generator: Adobe Illustrator 26.5.1, SVG Export Plug-In . SVG Version: 6.00 Build 0)  -->
<svg version="1.1" id="Ebene_1" xmlns="http://www.w3.org/2000/svg" xmlns:xlink="http://www.w3.org/1999/xlink" x="0px" y="0px"
	 viewBox="0 0 100 100" style="enable-background:new 0 0 100 100;" xml:space="preserve">
<g>
	<g>
		<path d="M11.2,55.8c0.1-0.5,0.3-1,0.8-1.1c0.5-0.1,0.9,0.1,1.1,0.6c0.2-0.5,0.4-0.9,0.9-1c0.5-0.1,0.8,0.2,1.1,0.7
			c0.1-0.6,0.3-1.1,1-1.1c0.6-0.1,0.9,0.3,1.1,0.7c0.1-0.2,0.2-0.4,0.3-0.5c0.5-0.6,1-0.5,1.5-0.2c0.4,0.3,0.5,1.2,0.1,1.6
			c-0.3,0.4-1,0.5-1.4,0.2c-0.2-0.2-0.4-0.3-0.5-0.7c-0.1,0.6-0.4,1-0.9,1.1c-0.4,0.1-0.8-0.1-1-0.6c-0.1,0.2-0.2,0.3-0.2,0.4
			c-0.2,0.5-0.6,0.7-1.1,0.7c-0.3,0-0.5-0.2-0.7-0.4c0,0,0-0.1-0.1-0.1c0,0,0,0-0.1,0c0,0.1-0.1,0.1-0.1,0.2
			c-0.1,0.5-0.5,0.7-0.9,0.7c-0.3,0-0.6-0.1-0.8-0.4c-0.1-0.1-0.1-0.2-0.2-0.4c-0.1,0.2-0.1,0.3-0.2,0.4c-0.3,0.6-0.9,0.7-1.4,0.4
			c-0.1-0.1-0.2-0.3-0.3-0.4c-0.2-0.3-0.1-1.1,0.2-1.4c0.6-0.5,1.3-0.3,1.5,0.3C11.1,55.6,11.2,55.7,11.2,55.8z"/>
		<path d="M68.2,10.7c0.3,0.3,0.4,0.6,0.4,1c0,0.7-0.5,1.3-1.3,1.5c-0.8,0.2-1.4-0.3-1.5-0.9c-0.2-0.6,0.2-1.3,0.8-1.6
			c0.2-0.1,0.4-0.1,0.6-0.2c-0.1-0.2-0.2-0.3-0.3-0.5c-0.3-0.5-0.1-1,0.2-1.4c0.2-0.2,0.3-0.5,0.3-0.7c0-0.2,0.1-0.4,0.3-0.6
			c0.5-0.6,1.1-0.8,1.9-0.5C70,6.7,70.2,7,70.2,7.4c0.1,0.5,0,1-0.5,1.4c-0.1,0.1-0.1,0.2-0.1,0.3c0,0.4-0.1,0.7-0.3,1
			c-0.2,0.3-0.6,0.4-0.9,0.5C68.4,10.6,68.3,10.6,68.2,10.7z"/>
		<path d="M10.2,53.7c-0.3,1.2-1.4,1.5-1.9,0.5c0,0.1-0.1,0.1-0.1,0.2C8,54.5,8,54.6,7.9,54.7c-0.5,0.4-1.1,0.4-1.3-0.3
			c-0.1-0.1-0.1-0.3-0.1-0.4c-0.1,0.2-0.1,0.3-0.2,0.5C6.1,54.7,6,54.9,5.8,55c-0.4,0.2-1,0-1.1-0.6c0-0.1,0-0.1,0-0.3
			c-0.1,0.2-0.2,0.4-0.3,0.5c-0.3,0.5-0.8,0.4-1.1,0.2c-0.1-0.1-0.2-0.3-0.3-0.5c-0.1-0.4,0-1,0.4-1.3c0.2-0.2,0.5-0.3,0.8-0.2
			c0.3,0.1,0.4,0.3,0.5,0.6c0,0.1,0,0.1,0.1,0.3c0.1-0.2,0.2-0.3,0.2-0.5C5.1,52.8,5.7,52.7,6,53c0.1,0.1,0.2,0.3,0.3,0.4
			c0,0.1,0.1,0.2,0.1,0.3c0.1-0.1,0.1-0.2,0.1-0.3C6.6,53.2,6.8,53,7,52.9c0.4-0.3,0.9-0.2,1.1,0.2c0.1,0.1,0.1,0.2,0.2,0.3
			c0.2-0.4,0.5-0.7,0.9-0.8c0.5,0,0.7,0.3,0.9,0.7c0.1-0.2,0.1-0.3,0.2-0.4c0.2-0.5,0.8-0.9,1.4-0.4c0.1,0.1,0.2,0.2,0.3,0.3
			c0.2,0.4,0.2,1-0.2,1.4c-0.5,0.5-1.2,0.4-1.5-0.3C10.2,53.9,10.2,53.9,10.2,53.7z"/>
		<path d="M76.1,1.9c0.5,0.1,0.8,0.8,0.8,1.2c0,0.8-0.4,1.2-1,1.5c-0.6,0.3-1.3,0-1.6-0.5C74,3.7,74,3.3,74.1,2.9c0,0,0-0.1,0-0.2
			c-0.6-0.1-0.8-0.6-1.2-1c-0.3-0.3-0.3-0.9-0.1-1.3c0.3-0.7,0.9-0.9,1.6-1c0.4,0,0.8,0.2,1,0.5c0,0,0,0.1,0.1,0.1
			c0.3,0.1,0.4,0.5,0.5,0.8c0.1,0.2,0,0.4,0,0.6C76.1,1.7,76.1,1.8,76.1,1.9z"/>
		<path d="M74.1,23.1c-0.5-0.2-0.6-0.6-0.6-1.1c0-0.4,0.2-0.7,0.5-0.9c0.3-0.3,0.8-0.5,1.2-0.4c0.3,0.1,0.5,0.2,0.7,0.5
			c0.2,0.4,0.1,0.8-0.2,1.2c-0.1,0.2-0.3,0.4-0.5,0.5c0,0,0.1,0.1,0.1,0.1c0.4,0.2,0.5,0.5,0.4,0.9c0,0.2,0,0.3,0.1,0.5
			c0.2,0.4,0,1.2-0.4,1.5c-0.3,0.2-0.6,0.4-0.9,0.4c-0.5,0.1-1-0.4-1-0.9c0-0.2,0-0.3-0.1-0.5c-0.2-0.3-0.2-0.7-0.1-1.1
			c0.1-0.2,0.2-0.5,0.5-0.6C74.1,23.2,74.1,23.2,74.1,23.1z"/>
		<path d="M62,10.8c-0.2-0.1-0.4-0.1-0.5-0.2c-0.5-0.4-0.7-1-0.3-1.6c0.3-0.5,0.8-0.9,1.4-0.8c0.4,0,0.9,0.3,1,0.7
			c0.1,0.5,0.1,0.9-0.2,1.3c-0.1,0.1-0.1,0.2,0.1,0.2c0.5,0.1,0.8,0.3,0.9,0.9c0,0,0,0.1,0,0.1c0.1,0.6,0,1-0.5,1.4
			c-0.5,0.4-1,0.4-1.6,0.2c-0.1,0-0.2-0.1-0.3-0.2c-0.5-0.5-0.5-0.9-0.1-1.6C61.9,11,61.9,10.9,62,10.8z"/>
		<path d="M70.7,25.5c-0.4-0.1-0.6-0.4-0.7-0.7c-0.1-0.4,0-0.8,0.3-1.1c0.3-0.4,0.8-0.5,1.2-0.6c0.4-0.1,0.9,0.3,0.9,0.7
			c0,0.1,0,0.1,0,0.2c0,0.2,0.3,0.7,0.4,0.9c0.2,0.3,0.3,0.6,0.2,1c-0.1,0.3-0.3,0.6-0.6,0.8c-0.2,0.1-0.3,0.3-0.4,0.4
			c-0.3,0.6-0.9,0.9-1.6,0.9c-0.3,0-0.6-0.2-0.7-0.5c-0.2-0.6,0-1.2,0.6-1.6C70.4,25.7,70.5,25.6,70.7,25.5z"/>
		<path d="M47.3,32.8c0-0.4-0.1-0.7,0.1-1c0.2-0.4,0.7-0.7,1.1-0.7c0.6,0,1,0.3,1.3,0.8c0.1,0.1,0.1,0.2,0.2,0.3
			c0.3,0.3,0.5,0.7,0.3,1.2c-0.1,0.5-0.7,0.9-1.1,1c-0.3,0-0.4,0.1-0.6,0.4c-0.4,0.7-1.5,0.9-2.1,0.2c-0.5-0.6-0.2-1.5,0.4-1.8
			C47.1,32.9,47.2,32.9,47.3,32.8z"/>
		<path d="M71.7,20.4c-0.1,0-0.2,0-0.2,0c-0.7-0.1-1-0.7-0.9-1.3c0.2-0.7,0.6-1.1,1.3-1.2c0.6-0.1,1.1,0.1,1.3,0.6
			c0.1,0.3,0.1,0.7-0.1,1c-0.1,0.2-0.2,0.4-0.4,0.5c0,0-0.1,0.1-0.1,0.1c0.2,0.1,0.4,0.1,0.5,0.2c0.6,0.3,0.6,0.8,0.4,1.4
			c-0.2,0.6-1,1-1.5,1c-0.4,0-0.8-0.2-0.9-0.7c-0.2-0.7,0.1-1.2,0.6-1.6C71.7,20.5,71.7,20.4,71.7,20.4z"/>
		<path d="M56.1,41.2c-0.1,0-0.1-0.1-0.2-0.2c-0.3-0.3-0.4-0.6-0.3-1c0.2-0.5,0.6-0.7,1.1-0.9c0.2-0.1,0.4-0.1,0.7,0
			c0.6,0.2,0.8,0.8,0.5,1.3c-0.1,0.1-0.1,0.2-0.2,0.4c0.2,0,0.2-0.1,0.3-0.2c0.4-0.3,0.8-0.4,1.2-0.3c0.5,0.1,0.7,0.5,0.6,0.9
			c-0.1,0.5-0.5,0.7-0.9,0.9c-0.2,0.1-0.5,0.2-0.8,0.1c-0.1,0-0.2,0-0.3,0.1c-0.3,0.3-0.7,0.4-1.1,0.4c-0.6,0-1-0.5-0.8-1
			C55.9,41.6,56,41.4,56.1,41.2z"/>
		<path d="M77.1,12.9c0.2-0.2,0.6-0.2,0.9-0.3c0.4,0,0.9,0.4,1,0.8c0,0.3,0.2,0.4,0.4,0.6c0.3,0.1,0.4,0.4,0.5,0.7
			c0.1,0.5-0.1,0.9-0.4,1.3c-0.3,0.4-1.2,0.6-1.6,0.4c-0.2-0.2-0.5-0.3-0.5-0.7c0-0.2-0.2-0.4-0.4-0.5c-0.3-0.1-0.5-0.5-0.5-0.8
			C76.3,13.8,76.5,13.3,77.1,12.9z"/>
		<path d="M48,37.5c-0.4-0.2-0.6-0.5-0.6-0.9c0-0.3,0.1-0.6,0.3-0.9c0.4-0.5,1.2-0.6,1.7-0.3c0.7,0.4,0.7,1.2,0.2,1.8
			c-0.1,0.2-0.3,0.3-0.5,0.4c0,0,0.1,0.1,0.2,0.2c0.6,0.5,0.4,1.5-0.3,1.9c-0.6,0.3-1.3,0.1-1.5-0.2C46.9,38.8,47.2,37.9,48,37.5
			C48,37.6,48,37.6,48,37.5z"/>
		<path d="M52.1,35.8c0-0.4,0.2-0.7,0.5-0.9c0.6-0.5,1.4-0.5,1.9,0.1c0.4,0.5,0.2,1.2-0.4,1.6c-0.4,0.2-0.8,0.4-1.3,0.2
			c0,0-0.1,0-0.1,0c-0.2,0.3-0.3,0.5-0.4,0.7c-0.2,0.4-1.1,0.5-1.5,0.4c-0.8-0.3-0.9-1.2-0.5-1.7c0.3-0.4,1.1-0.7,1.7-0.4
			C52,35.8,52,35.8,52.1,35.8z"/>
		<path d="M59.2,54.3c-0.3,0.1-0.5,0.2-0.8,0.3c-0.2,0.1-0.4,0.1-0.5-0.1c-0.1-0.2,0-0.4,0.1-0.5c0.1-0.2,0.2-0.4,0.4-0.5
			c0.1-0.2,0.3-0.3,0.4-0.4c0.3-0.2,0.7-0.4,1-0.4c0.1,0,0.2,0,0.3-0.1c0.3-0.4,0.7-0.6,1.2-0.7c0.2-0.1,0.4,0,0.6,0.1
			c0,0.1,0,0.2,0,0.4c0.2-0.1,0.4-0.2,0.6-0.3c0.2-0.1,0.4-0.1,0.6-0.1c0.2,0,0.3,0.1,0.3,0.3c0,0.1-0.1,0.2-0.1,0.3
			c-0.3,0.4-0.7,0.6-1.2,0.7c-0.5,0.1-0.6,0.1-0.6-0.4c-0.4,0.2-0.7,0.4-1.2,0.5c-0.3,0-0.4,0.3-0.5,0.5c0.2-0.1,0.5-0.2,0.7-0.3
			c0,0,0.1,0,0.1,0c0.4-0.1,0.6,0,0.5,0.5c0.3-0.2,0.6-0.4,0.9-0.6c0.1,0,0.3-0.1,0.5-0.1c0.2,0,0.4,0.1,0.3,0.3
			c0,0.1-0.1,0.2-0.1,0.2c-0.4,0.4-0.8,0.6-1.3,0.7c-0.1,0-0.3,0-0.4,0c0-0.1,0-0.2,0-0.4c-0.1,0.1-0.2,0.1-0.3,0.2
			c-0.3,0.1-0.5,0.3-0.8,0.4c-0.1,0-0.1,0-0.2,0C59.3,54.7,59.2,54.6,59.2,54.3z"/>
		<path d="M62,35.4c-0.5-0.9,0.3-1.8,1.2-1.9c0.3,0,0.5,0,0.7,0.1c0.3,0.1,0.5,0.6,0.4,0.9c-0.1,0.2-0.2,0.5-0.3,0.8
			c0,0,0,0.1,0.1,0.1c0.3,0.3,0.4,0.6,0.2,1.1c-0.2,0.5-1,1-1.5,0.9c-0.3,0-0.7-0.1-0.9-0.3c-0.4-0.4-0.3-0.8,0-1.3
			C61.9,35.5,61.9,35.5,62,35.4z"/>
		<path d="M76.7,21.6c-0.5-0.7-0.2-1.5,0.4-1.9c0.5-0.4,1.2-0.4,1.6,0c0.3,0.3,0.3,0.8,0.2,1.1c-0.1,0.3-0.2,0.5-0.1,0.7
			c0.2,0.7-0.2,1.4-0.8,1.7c-0.4,0.2-0.7,0.3-1.1,0.2c-0.1,0-0.2-0.1-0.3-0.2c-0.3-0.4-0.3-0.8-0.1-1.2
			C76.6,21.9,76.7,21.8,76.7,21.6z"/>
		<path d="M39.5,29.8c0-0.4,0.2-0.7,0.5-0.9c0.4-0.3,0.9-0.4,1.3-0.2c0.4,0.2,0.5,0.6,0.5,1c0,0.5-0.3,1-0.9,1.2
			c-0.1,0-0.2,0.1-0.3,0.1c-0.1,0.4-0.2,0.8-0.6,1c-0.5,0.3-1.1,0.3-1.5-0.3c-0.3-0.4-0.3-0.8-0.1-1.2c0.1-0.3,0.5-0.5,0.8-0.7
			C39.3,29.9,39.4,29.8,39.5,29.8z"/>
		<path d="M19,61.9c0-0.1,0-0.1,0-0.2c0.1-0.6,0.8-1,1.4-0.7c0.3,0.1,0.6,0.4,0.7,0.7c0.2,0.4,0,1.1-0.5,1.3
			c-0.6,0.2-1.1,0.2-1.5-0.3c0-0.1-0.1-0.1-0.2-0.1c-0.1,0.2-0.1,0.3-0.2,0.4c-0.3,0.5-1.3,0.6-1.6,0.2c-0.4-0.3-0.5-0.7-0.4-1.2
			c0.1-0.4,0.6-0.8,1.1-0.7c0.4,0,0.8,0.2,1,0.6C18.9,61.9,18.9,61.9,19,61.9C18.9,61.9,18.9,61.9,19,61.9z"/>
		<path d="M39,50.5c0-0.2,0-0.3,0.1-0.4c0.1-0.5,0.5-0.8,0.9-0.9c0.3-0.1,0.6-0.1,0.8,0.1c0.6,0.3,0.8,0.9,0.3,1.5
			c-0.3,0.3-0.7,0.4-1.1,0.4c-0.2,0-0.4-0.1-0.6-0.2c-0.1,0-0.1-0.1-0.2-0.1c0,0,0,0,0,0.1c0.1,0.8-1.1,1.5-1.9,1
			c-0.3-0.2-0.5-0.4-0.5-0.8c0-0.4,0.2-0.7,0.5-0.9C37.9,50.1,38.6,50.1,39,50.5z"/>
		<path d="M76.7,34.9c-0.1,0-0.1,0-0.1,0c-0.6,0-0.7-0.5-0.5-0.9c0.3-0.6,0.8-0.9,1.4-1c0.2,0,0.5,0,0.6,0.2c0.2,0.2,0.1,0.5,0,0.7
			c-0.1,0.3-0.4,0.5-0.7,0.8c0.1,0,0.2,0,0.2,0c0.3,0,0.5,0.2,0.4,0.6c-0.1,0.3-0.2,0.6-0.5,0.8c-0.1,0.1-0.2,0.1-0.3,0.2
			c-0.3,0.1-0.4,0.3-0.6,0.6c-0.3,0.4-0.7,0.6-1.2,0.6c-0.5,0.1-0.7-0.4-0.6-0.7c0.2-0.4,0.4-0.7,0.8-0.9c0.2-0.1,0.3-0.2,0.4-0.3
			C76.2,35.3,76.4,35.2,76.7,34.9z"/>
		<path d="M18.1,52c0-0.2,0-0.5,0.1-0.7c0.3-0.7,0.9-0.8,1.5-0.6c0.4,0.2,0.6,0.9,0.4,1.3c-0.1,0.3-0.3,0.6-0.7,0.7
			c-0.4,0.1-0.8,0.1-1.1-0.3c-0.1-0.1-0.1-0.1-0.2-0.2c0,0.1,0,0.2-0.1,0.3c0,0.1-0.1,0.3-0.1,0.4c-0.2,0.5-0.7,0.6-1.1,0.6
			c-0.4,0-0.7-0.5-0.8-0.9c0-0.1,0-0.2,0-0.2c0-0.6,0.3-1.1,0.9-1.2c0.3,0,0.6,0,0.8,0.3C17.9,51.7,18,51.9,18.1,52z"/>
		<path d="M33.3,36.7c-0.2-0.1-0.3-0.2-0.5-0.2c-0.4-0.3-0.5-0.7-0.4-1.2c0.1-0.5,0.4-0.8,0.9-0.9c0.7-0.1,1.2,0.2,1.3,0.9
			c0,0.1,0,0.2,0,0.2c0.2,0.2,0.5,0.3,0.6,0.5c0.5,0.5,0.3,1.5-0.3,1.9c-0.4,0.2-0.8,0.2-1.2,0c-0.3-0.2-0.5-0.6-0.5-1
			C33.3,36.8,33.3,36.7,33.3,36.7z"/>
		<path d="M68.2,35.7c-0.1,0.1-0.2,0.2-0.3,0.3c-0.4,0.4-0.8,0.7-1.4,0.7c-0.5,0-0.8-0.4-0.8-0.8c0-0.3,0.2-0.6,0.4-0.8
			c0.1,0,0.1-0.2,0.1-0.3c-0.1-0.4,0-0.8,0.4-1.1c0.4-0.3,0.8-0.6,1.4-0.5c0.3,0,0.4,0.2,0.5,0.4c0.1,0.2,0.2,0.4,0.3,0.6
			c0.1,0.3,0.1,0.6-0.1,0.9C68.6,35.4,68.4,35.6,68.2,35.7C68.2,35.8,68.2,35.7,68.2,35.7z"/>
		<path d="M28.6,59.9c-0.2,0-0.4,0-0.5,0.1c-0.5,0-0.8-0.2-1-0.6c-0.2-0.3-0.1-0.8,0.2-1c0.3-0.3,0.8-0.5,1.2-0.4
			c0.6,0.1,0.9,0.5,0.9,1.2c0.3,0,0.5,0,0.8,0c0.4,0,0.6,0.3,0.7,0.6c0.1,0.3,0,0.7-0.3,0.9c-0.4,0.3-0.8,0.5-1.2,0.4
			C28.8,61,28.5,60.5,28.6,59.9z"/>
		<path d="M49.9,60.4c0.1-0.1,0.2-0.1,0.3-0.2c0.3-0.3,0.7-0.4,1.1-0.6c0,0,0.1,0,0.1,0c0.1,0,0.3,0,0.4,0.1c0.1,0.2,0,0.3-0.1,0.4
			c-0.2,0.3-0.6,0.5-0.9,0.6c-0.5,0.2-1,0.5-1.4,0.9c-0.3,0.2-0.6,0.4-0.9,0.5c-0.2,0.1-0.4,0-0.6,0c0-0.1,0-0.2,0-0.4
			c-0.1,0-0.2,0.1-0.3,0.1c-0.2,0.1-0.4,0.1-0.6,0.1c-0.3,0-0.3-0.2-0.2-0.4c0-0.1,0.1-0.1,0.1-0.2c0.3-0.2,0.5-0.4,0.8-0.5
			c0.2-0.1,0.5-0.2,0.7-0.4c0.2-0.2,0.5-0.3,0.8-0.5c0.1-0.1,0.2-0.1,0.3-0.2c0.4-0.4,0.8-0.7,1.3-0.8c0.1,0,0.1,0,0.2,0
			c0.1,0,0.3,0,0.3,0.1c0.1,0.1,0.1,0.3-0.1,0.4c-0.3,0.3-0.6,0.5-0.9,0.6C50.1,60.1,49.9,60.1,49.9,60.4z M48.5,61.2
			c0.1-0.1,0.3-0.1,0.4-0.2C48.7,61,48.5,61,48.5,61.2z"/>
		<path d="M19.9,92.3c0.2-0.2,0.4-0.4,0.5-0.6c-0.5-0.2-0.7-0.5-0.5-1.1c0.1-0.3,0.3-0.6,0.7-0.8c0.4-0.2,0.8,0.1,0.8,0.5
			c0,0.4-0.2,0.8-0.6,1.1c0,0-0.1,0.1-0.1,0.1c0.1,0.1,0.2,0.2,0.3,0.2c0.2,0.2,0.3,0.4,0.3,0.7c-0.1,0.5-0.3,0.8-0.7,1
			c-0.2,0.2-0.5,0.1-0.7-0.1c-0.1-0.1-0.1-0.2-0.1-0.3c0-0.2-0.1-0.2-0.3-0.1c-0.1,0.1-0.2,0.2-0.3,0.2c-0.4,0.3-0.9,0-0.9-0.4
			c0-0.1,0-0.3,0-0.4c0.1-0.4,0.3-0.7,0.7-0.9c0.4-0.2,0.7,0,0.8,0.4C19.8,92.1,19.8,92.1,19.9,92.3z"/>
		<path d="M64.8,59.5c-0.1,0.4-0.3,0.6-0.6,0.8c0.1,0,0.2,0,0.2,0c0.1,0,0.3-0.1,0.4-0.1c0.1,0,0.2,0,0.2,0.1c0,0.1,0,0.2-0.1,0.3
			c-0.3,0.2-0.5,0.3-0.8,0.5c-0.2,0.1-0.3,0.2-0.5,0.1c-0.1,0-0.1,0-0.2-0.1c-0.1-0.2-0.2-0.1-0.4,0c-0.3,0.2-0.6,0.3-0.9,0.5
			c-0.3,0.2-0.6,0.4-1,0.4c-0.1,0-0.1,0-0.2,0c0-0.3,0.1-0.4,0.3-0.5c0.2-0.1,0.3-0.2,0.3-0.5c0-0.1,0.2-0.2,0.2-0.4
			c0,0,0.1-0.1,0.1-0.1c-0.2,0.1-0.4,0.1-0.6,0.1c-0.3,0.1-0.3,0-0.4-0.2c-0.4,0.3-0.9,0.6-1.4,0.5c0-0.3,0.3-0.5,0.5-0.6
			c0.3-0.2,0.7-0.4,1.2-0.4c0,0.1,0,0.3,0,0.4c0.5-0.4,1-0.7,1.5-0.7c0.2,0.3-0.1,0.4-0.2,0.6c0.1,0,0.2,0,0.2,0
			c0.1,0,0.1-0.1,0.2-0.1c0.4,0.1,0.7-0.2,1.1-0.4c0.2-0.1,0.4-0.1,0.5-0.2c0.1-0.1,0.1-0.3,0.2-0.4c0.1-0.1,0.3-0.3,0.5-0.4
			c0.2-0.1,0.4-0.2,0.6-0.3c0.1,0,0.2,0,0.4,0c0,0.4-0.3,0.5-0.5,0.7C65.4,59.3,65.2,59.5,64.8,59.5z M63.8,60.5
			C63.8,60.5,63.8,60.6,63.8,60.5c0.1,0,0.3,0,0.4-0.2C64,60.4,63.9,60.4,63.8,60.5z M62.5,60.3C62.4,60.3,62.4,60.2,62.5,60.3
			c-0.1,0-0.1,0-0.2,0c0,0,0,0,0,0C62.4,60.3,62.4,60.3,62.5,60.3z"/>
		<path d="M49.7,47.2c0.3-0.1,0.6-0.2,1-0.1c0.6,0.1,0.7,0.7,0.5,1.1c-0.1,0.2-0.2,0.3-0.4,0.4c-0.3,0.2-0.6,0.3-1,0.4
			c-0.3,0-0.6-0.1-0.8-0.4c-0.1,0-0.2,0-0.2,0.1c-0.2,0.1-0.5,0.1-0.7,0.1c-0.5-0.1-1-0.6-0.5-1.3c0.4-0.5,0.9-0.7,1.4-0.6
			C49.3,46.8,49.5,46.9,49.7,47.2z"/>
		<path d="M47.1,41.3c-0.5,0.4-1.2,0.4-1.7,0c-0.2-0.2-0.4-0.4-0.6-0.6c-0.4-0.5-0.3-1.4,0.5-1.7c0.6-0.2,1.3-0.1,1.6,0.4
			c0,0.1,0.1,0.1,0.2,0.2c0.5,0.4,0.6,1.1,0.2,1.6C47.3,41.2,47.2,41.2,47.1,41.3z"/>
		<path d="M72.8,10c-0.3,0.3-0.7,0.2-1.1,0.1c-0.6-0.1-0.8-0.6-0.9-1.1c-0.1-0.5,0.1-1,0.5-1.3c0.4-0.4,1.3-0.5,1.8-0.2
			c0.3,0.2,0.5,0.6,0.5,1C73.6,9.2,73.4,9.6,72.8,10z"/>
		<path d="M76.9,7.5c0.3,0.4,0.2,0.8,0,1.3c-0.1,0.3-0.3,0.5-0.6,0.6c-0.3,0.2-0.7,0.3-1.1,0.2c-0.4,0-0.9-0.5-0.9-0.9
			c-0.2-0.9,0.2-1.5,1.1-1.9c0.2-0.1,0.5,0,0.7,0C76.5,6.9,76.7,7.2,76.9,7.5z"/>
		<path d="M70,12.8c-0.3-0.4-0.2-0.9,0.1-1.4c0.3-0.5,0.8-0.8,1.4-0.7c0.8,0.1,1.2,0.6,1.1,1.4c-0.1,0.6-0.5,1-1,1.2
			C71.1,13.6,70.3,13.3,70,12.8z"/>
		<path d="M63,15.7c-0.5-0.9,0-1.6,0.5-1.9c0.7-0.5,1.7-0.2,2,0.5c0.2,0.5-0.1,1.4-0.7,1.7C64.2,16.3,63.3,16.3,63,15.7z"/>
		<path d="M69.2,15.3c0.3,0.4,0.2,0.8,0.1,1.2c-0.2,0.5-0.8,0.9-1.3,0.9c-0.4,0-0.7,0-1-0.3c-0.6-0.6-0.4-1.5,0.2-2
			c0.6-0.4,1.2-0.5,1.8-0.1C69,15.1,69.1,15.3,69.2,15.3z"/>
		<path d="M78.9,11.8c-0.3,0.2-0.7,0.3-1.1,0.3c-0.4-0.1-0.6-0.3-0.8-0.6c-0.3-0.5-0.2-1,0.2-1.5c0.5-0.6,1.2-0.8,1.8-0.5
			c0.1,0,0.1,0.1,0.2,0.2c0.1,0.1,0.2,0.2,0.3,0.3c0.1,0.1,0.1,0.2,0.1,0.3c0,0.3-0.1,0.7-0.2,1C79.3,11.5,79.1,11.7,78.9,11.8z"/>
		<path d="M65.9,17.1c0.4,0.8,0.1,1.8-0.8,2.1c-0.4,0.1-0.8,0.2-1.1,0c-0.1-0.1-0.3-0.2-0.4-0.3c-0.4-0.5-0.4-1.2,0.1-1.8
			c0.5-0.5,1.2-0.7,1.8-0.3C65.6,16.8,65.7,17,65.9,17.1z"/>
		<path d="M25.2,87.3c-0.1,0.1-0.2,0.2-0.3,0.3c-0.1,0.1-0.2,0.1-0.3,0.2c-0.2,0.1-0.4,0.2-0.6,0c-0.2-0.2-0.3-0.4-0.2-0.6
			c0.1-0.4,0.3-0.7,0.7-1c0.2-0.1,0.5-0.1,0.7,0c0.1,0.1,0.1,0.2,0.1,0.3c0,0.1,0,0.2,0,0.3c0.4-0.1,0.5-0.6,0.8-0.7
			c-0.1,0-0.1,0-0.2-0.1c-0.3-0.1-0.5-0.4-0.3-0.8c0.1-0.4,0.4-0.7,0.9-0.9c0.4-0.1,0.7,0.1,0.6,0.5c0,0.4-0.3,0.8-0.7,1
			c0,0-0.1,0-0.1,0.1c0,0,0,0-0.1,0.1c0.1,0,0.1,0.1,0.2,0.1c0.3,0.2,0.4,0.3,0.3,0.7c-0.1,0.4-0.2,0.8-0.7,1
			c-0.3,0.2-0.5,0.1-0.7-0.2C25.3,87.6,25.2,87.4,25.2,87.3z"/>
		<path d="M72.3,13.9c0.3-0.1,0.7-0.3,1.1-0.1c0.3,0.1,0.6,0.3,0.7,0.6c0.1,0.4,0.2,0.8-0.1,1.2c-0.2,0.3-0.5,0.6-0.9,0.8
			c-0.4,0.2-1.1,0-1.4-0.3C71.3,15.5,71.5,14.5,72.3,13.9z"/>
		<path d="M59.2,13.2c0.2-0.2,0.7-0.2,1.1,0c0.2,0.1,0.4,0.2,0.5,0.4c0.2,0.3,0.2,0.6,0.2,1c-0.2,0.8-0.9,1.2-1.6,1.2
			c-0.6,0-1-0.5-1-1.1C58.2,14.2,58.5,13.7,59.2,13.2z"/>
		<path d="M62.5,20.5c0.3,0.4,0.1,0.8,0,1.3c-0.3,0.3-0.5,0.5-0.9,0.6c-0.4,0.1-0.7,0.1-1.1,0c-0.1,0-0.2-0.1-0.3-0.2
			c-0.3-0.3-0.5-1-0.3-1.4c0.3-0.6,0.8-1,1.6-0.9C62,19.9,62.3,20.1,62.5,20.5z"/>
		<path d="M64.5,48.6c0.1,0,0.3,0,0.4,0c0.2,0,0.3,0.1,0.3,0.3c0,0.1-0.1,0.3-0.2,0.4c-0.3,0.4-0.7,0.7-1.2,0.8c-0.1,0-0.2,0-0.3,0
			c-0.3,0-0.4-0.2-0.3-0.4c0-0.1,0.1-0.2,0.1-0.3c-0.3,0-0.5,0-0.7,0.2c-0.2,0.2-0.6,0.3-0.9,0.3c-0.4,0-0.6-0.2-0.4-0.6
			c0.3-0.6,0.9-0.9,1.5-0.9c0.1,0,0.2-0.1,0.3-0.1c0.2-0.1,0.5-0.3,0.7-0.4c0.1,0,0.2,0,0.2-0.1c0.4,0,0.6,0.2,0.5,0.6
			C64.6,48.4,64.5,48.5,64.5,48.6z"/>
		<path d="M56,19.3c0.3,0.4,0.3,0.7,0.2,1.1c-0.2,0.8-1.1,1.3-1.8,1c-0.8-0.2-1.1-1.1-0.6-1.8c0.3-0.5,0.7-0.7,1.3-0.7
			C55.5,18.8,55.8,19,56,19.3z"/>
		<path d="M57.5,26.2c-0.3-0.7-0.2-1.4,0.5-1.9c0.5-0.3,0.9-0.3,1.4-0.1c0.4,0.2,0.7,0.5,0.7,0.9c0,1.1-1.1,1.8-2.1,1.4
			C57.8,26.5,57.6,26.3,57.5,26.2z"/>
		<path d="M67.1,23c-0.2,0.1-0.5,0.2-0.8,0.2c-0.3,0-0.5-0.1-0.8-0.3c-0.5-0.4-0.4-0.9-0.2-1.4c0.3-0.6,1.2-1.2,2.1-0.7
			c0.2,0.1,0.4,0.3,0.4,0.6c0,0.3,0.1,0.6-0.1,0.9C67.6,22.6,67.4,22.8,67.1,23z"/>
		<path d="M74.8,15.9c0.3-0.2,0.7-0.3,1.1-0.2c0.6,0.2,0.9,0.9,0.7,1.4c-0.3,0.8-0.7,1-1.5,1.1c-0.3,0-0.7-0.2-0.9-0.5
			c-0.2-0.3-0.2-0.6-0.1-1C74.2,16.4,74.4,16.1,74.8,15.9z"/>
		<path d="M69.9,47.4c-0.3,0.7-0.9,1.1-1.6,1.2c-0.2,0-0.3,0-0.4-0.1c-0.1-0.1,0-0.3,0.1-0.4c0.4-0.5,0.9-0.8,1.5-0.9
			c0.1-0.2,0.2-0.4,0.4-0.6c0,0,0,0-0.1,0c-0.4-0.1-0.5-0.2-0.3-0.6c0.3-0.6,0.9-0.9,1.5-1c0.3-0.1,0.5,0.2,0.4,0.5
			c-0.1,0.2-0.2,0.3-0.3,0.5c0.5,0.1,0.6,0.4,0.2,0.8c-0.3,0.3-0.7,0.6-1.1,0.7C70.1,47.3,70,47.4,69.9,47.4z"/>
		<path d="M56.1,29.8c-0.4,0.3-1.2,0.3-1.5,0c-0.7-0.6-0.6-1.6,0.3-2.1c0.5-0.3,0.9-0.3,1.4-0.1c0.3,0.1,0.5,0.4,0.6,0.8
			C56.9,29,56.6,29.5,56.1,29.8z"/>
		<path d="M46.4,27.4c-0.6,0.4-1.3,0.1-1.6-0.3c-0.4-0.7-0.1-1.5,0.5-1.8c0.6-0.3,1.3-0.2,1.6,0.2C47.2,26.2,47.1,26.9,46.4,27.4z"
			/>
		<path d="M44.1,33.7c-0.4,0.3-1.4,0.3-1.7-0.3c-0.3-0.6-0.2-1.3,0.4-1.7c0.5-0.4,1.3-0.3,1.7,0.3C44.9,32.6,44.7,33.4,44.1,33.7z"
			/>
		<path d="M46,23.6c-0.3-0.5-0.2-1.3,0.4-1.7c0.4-0.3,0.8-0.4,1.3-0.2c0.4,0.1,0.6,0.6,0.6,1c0,0.4-0.2,0.8-0.5,1.1
			C47.2,24.2,46.4,24.3,46,23.6z"/>
		<path d="M40.9,39.6c-0.6,0.4-1.4,0.2-1.7-0.3c-0.4-0.6-0.2-1.4,0.3-1.7c0.7-0.4,1.4-0.3,1.8,0.3C41.6,38.5,41.5,39.2,40.9,39.6z"
			/>
		<path d="M57.5,33.1c0.5-0.3,0.9-0.3,1.4-0.2c0.7,0.3,0.8,1.1,0.3,1.6c-0.3,0.4-0.8,0.6-1.3,0.6c-0.9,0-1.2-0.9-0.9-1.5
			C57.1,33.4,57.3,33.3,57.5,33.1z"/>
		<path d="M42.4,42c-0.4-0.7-0.1-1.4,0.6-1.7c0.6-0.2,1.2-0.1,1.6,0.4c0.4,0.6,0,1.4-0.6,1.6c-0.6,0.2-1,0.2-1.4-0.2
			C42.5,42.1,42.4,42,42.4,42z"/>
		<path d="M41.4,24.9c0.6-0.4,1.1-0.3,1.5,0.2c0.1,0.1,0.2,0.3,0.2,0.5c0,0.9-0.5,1.5-1.4,1.5c-0.4,0-0.8-0.4-0.9-0.8
			C40.7,25.8,40.9,25.3,41.4,24.9z"/>
		<path d="M58.1,50c-0.3-0.2-0.3-0.4-0.1-0.7c0.2-0.3,0.4-0.5,0.7-0.6c0.2-0.1,0.4-0.2,0.7-0.2c0.3-0.1,0.6,0,0.6,0.2
			c0.1,0.2,0,0.6-0.2,0.7c-0.1,0.1-0.2,0.1-0.2,0.2c0,0,0,0.1,0,0.1c0.2,0.4,0.2,0.6-0.1,0.9c-0.3,0.3-0.7,0.5-1.2,0.6
			c-0.1,0-0.2,0-0.2,0c-0.3,0-0.5-0.3-0.4-0.6c0.1-0.1,0.2-0.3,0.3-0.4C58,50.2,58.1,50.1,58.1,50z"/>
		<path d="M35.6,45.7c-0.3-0.5-0.2-1.2,0.4-1.5c0.6-0.4,1.4-0.2,1.7,0.3c0.3,0.6,0.2,1.2-0.3,1.6C36.8,46.5,35.9,46.4,35.6,45.7z"/>
		<path d="M32.3,41.9c-0.3-0.4-0.2-1.1,0.2-1.5c0.3-0.3,0.7-0.4,1.1-0.3c0.4,0.1,0.7,0.3,0.8,0.7c0.1,0.3,0.1,0.6,0,0.9
			c-0.2,0.4-0.5,0.6-0.9,0.7c-0.4,0.1-0.8-0.1-1-0.4C32.4,42,32.4,42,32.3,41.9z"/>
		<path d="M44.8,41.8c0.5-0.3,1.2-0.2,1.5,0.1c0.3,0.3,0.4,0.7,0.3,1.1c-0.3,0.8-1.4,1-1.9,0.6C43.9,43.2,44,42.2,44.8,41.8z"/>
		<path d="M36.2,33c-0.3-0.6-0.2-1.3,0.4-1.8c0.6-0.4,1.5-0.3,1.6,0.5c0.1,0.4,0.1,0.7-0.1,1c-0.3,0.6-1,0.9-1.6,0.6
			C36.4,33.3,36.3,33.1,36.2,33z"/>
		<path d="M29.5,49.4c-0.5,0.4-1.3,0.2-1.6-0.4c-0.3-0.5-0.2-1.2,0.3-1.5c0.5-0.3,1.2-0.3,1.6,0.3C30.2,48.4,30,49.2,29.5,49.4z"/>
		<path d="M37.1,81.3c-0.1,0.1-0.2,0.1-0.3,0.2c-0.3,0.2-0.6,0.1-0.7-0.2c0-0.1-0.1-0.2-0.2-0.3c-0.1,0-0.1,0-0.2,0.1
			c-0.2,0.1-0.3,0-0.4-0.1c-0.1-0.1-0.1-0.3-0.1-0.4c0.2-0.4,0.5-0.7,0.9-0.9c0.3-0.1,0.5,0.1,0.5,0.4c0,0.2,0,0.3,0.2,0.2
			c0.1,0,0.1,0,0.2,0c0.4-0.1,0.5,0.2,0.4,0.5c0,0.1-0.1,0.2-0.1,0.4c0.2-0.1,0.4-0.2,0.5-0.2c0.1,0,0.2-0.1,0.3-0.1
			c0.2,0,0.3,0.1,0.3,0.3c0,0.5-0.3,0.8-0.7,1c-0.3,0.2-0.5,0.1-0.6-0.2C37.2,81.7,37.2,81.5,37.1,81.3z"/>
		<path d="M22.5,89.9c0.3,0.2,0.5,0.4,0.5,0.7c0,0.4-0.3,1-0.7,1.2c-0.4,0.2-0.8,0-0.8-0.5c0-0.4,0.1-0.7,0.4-1
			c0.1-0.1,0.1-0.2,0.2-0.2c-0.1-0.1-0.2-0.2-0.3-0.3c-0.3-0.3-0.1-0.7,0-1c0.1-0.2,0.3-0.4,0.5-0.5c0.2-0.2,0.4-0.2,0.6,0
			c0.2,0.1,0.3,0.3,0.2,0.5C23,89.2,22.9,89.6,22.5,89.9z"/>
		<path d="M29.8,52.8c-0.3-0.6-0.2-1.2,0.3-1.5c0.5-0.4,1.4-0.2,1.7,0.2c0.3,0.5,0.2,1.2-0.2,1.5C30.9,53.5,30.1,53.4,29.8,52.8z"/>
		<path d="M22,58.9c-0.3-0.5-0.2-1.2,0.3-1.5c0.6-0.4,1.3-0.3,1.7,0.3c0.3,0.5,0.2,1.2-0.3,1.5C23.1,59.6,22.3,59.5,22,58.9z"/>
		<path d="M23.7,53.1c0.3,0.6,0.1,1.3-0.3,1.6c-0.6,0.4-1.3,0.2-1.6-0.4c-0.3-0.5-0.1-1.3,0.4-1.6C22.9,52.4,23.4,52.6,23.7,53.1z"
			/>
		<path d="M28.4,53.6c0.7-0.4,1.6-0.2,1.9,0.6c0.1,0.5-0.1,1-0.6,1.2c-0.5,0.2-1,0.2-1.4-0.2C27.8,54.7,27.8,53.9,28.4,53.6z"/>
		<path d="M52.7,40.8c0.3,0.4,0.2,0.9-0.2,1.2c-0.4,0.4-0.8,0.5-1.3,0.5c-0.3,0-0.6-0.2-0.7-0.5c-0.2-0.4-0.1-0.8,0.1-1.1
			c0.3-0.4,0.8-0.6,1.3-0.6C52.3,40.3,52.6,40.5,52.7,40.8z"/>
		<path d="M53.7,52.7c-0.3,0.2-0.7,0.3-1,0.2c-0.1,0-0.3,0-0.5,0.1c-0.2,0.1-0.4,0.1-0.7,0c-0.3-0.1-0.4-0.4-0.3-0.7
			c0.1-0.3,0.4-0.5,0.6-0.7c0.4-0.2,0.7-0.3,1.2-0.2c0.1,0,0.2,0,0.2,0c0.2-0.1,0.5-0.1,0.8-0.1c0.3,0,0.5,0.3,0.4,0.6
			C54.3,52.3,54.1,52.5,53.7,52.7z"/>
		<path d="M22.5,51.3c-0.2-0.3-0.3-0.7-0.2-1c0.1-0.5,0.4-0.7,1-0.8c0.4-0.1,0.9,0.2,1.1,0.5c0.2,0.4,0.2,0.7,0,1.1
			c-0.2,0.5-1,0.8-1.5,0.5C22.7,51.5,22.5,51.4,22.5,51.3z"/>
		<path d="M19,59.9c-0.3-0.6-0.2-1.2,0.4-1.6c0.5-0.3,1.2-0.1,1.5,0.4c0.3,0.6,0.2,1.2-0.3,1.5C20,60.5,19.4,60.5,19,59.9z"/>
		<path d="M26.4,93.3c0.2,0.2,0.3,0.3,0.5,0.4c0.4,0.4,0,1.3-0.5,1.5c-0.2,0.1-0.6,0-0.7-0.2c-0.1-0.3-0.1-0.6,0-0.9
			c0.1-0.2,0.2-0.4,0.3-0.6c0,0,0,0,0-0.1c-0.5-0.3-0.6-0.8-0.3-1.3c0.1-0.2,0.2-0.3,0.5-0.4c0.3-0.1,0.6-0.1,0.7,0.2
			c0.1,0.1,0.1,0.3,0,0.5C26.8,92.8,26.7,93.1,26.4,93.3z"/>
		<path d="M77.2,29.1c-0.2,0.2-0.5,0.2-0.8,0.3c-0.5,0.1-0.9-0.3-0.8-0.8c0.1-0.6,0.5-0.9,1-1.2c0.3-0.1,0.5-0.2,0.8-0.2
			c0.4,0.1,0.6,0.4,0.6,0.8C77.9,28.4,77.7,28.8,77.2,29.1z"/>
		<path d="M26.5,40.8c-0.4-0.7,0-1.6,0.8-1.8c0.3-0.1,0.6,0,0.9,0.2c0.5,0.5,0.4,1.4-0.1,1.8C27.5,41.3,26.7,41.3,26.5,40.8z"/>
		<path d="M23.4,61.8c-0.7,0.4-1.6,0.2-1.8-0.4c-0.3-0.8,0.2-1.3,0.8-1.4c0.6-0.1,1.4,0.2,1.4,1C23.9,61.3,23.7,61.6,23.4,61.8z"/>
		<path d="M17.9,59.5c0.4,0.6,0.2,1.5-0.5,1.7c-0.4,0.1-1.1,0-1.3-0.6c-0.1-0.3-0.2-0.6-0.1-0.9c0.2-0.7,1.2-0.9,1.7-0.5
			C17.7,59.4,17.8,59.5,17.9,59.5z"/>
		<path d="M73.2,29.7c0.3-0.2,0.5-0.3,0.8-0.3c0.7,0,1,0.4,0.8,1c-0.1,0.5-0.5,0.9-1.1,1.1c-0.1,0.1-0.3,0.1-0.4,0.1
			c-0.6,0-1-0.4-0.8-1.1C72.7,30.2,72.9,29.9,73.2,29.7z"/>
		<path d="M39.5,62.2c0-0.6,0.5-0.8,0.9-1.1c0.1,0,0.2-0.1,0.2-0.1c0.3,0,0.5-0.2,0.7-0.4c0.4-0.4,0.9-0.5,1.4-0.5
			c0.3,0,0.5,0.2,0.3,0.5c-0.1,0.2-0.2,0.4-0.4,0.5c-0.3,0.2-0.6,0.3-0.9,0.4c-0.1,0-0.3,0.1-0.3,0.2c0,0-0.1,0.1-0.1,0.1
			c-0.3,0.2-0.7,0.4-1.1,0.5C39.9,62.5,39.7,62.5,39.5,62.2z"/>
		<path d="M26.4,60.9c-0.7,0.4-1.3,0.3-1.7-0.2c-0.4-0.5-0.2-1.2,0.4-1.4c0.3-0.2,0.7-0.2,1-0.1c0.6,0.1,1,0.8,0.7,1.4
			C26.6,60.6,26.5,60.7,26.4,60.9z"/>
		<path d="M51.8,44.4c-0.4,0.2-0.8,0.3-1.2,0.2c-0.5-0.1-0.7-0.8-0.5-1.2c0.3-0.6,0.9-0.8,1.5-0.8c0.3,0,0.6,0.2,0.7,0.5
			c0.1,0.3,0,0.8-0.2,1C52,44.2,51.9,44.3,51.8,44.4z"/>
		<path d="M14,63.4c-0.2-0.4-0.2-0.7,0-1.1c0.1-0.2,0.3-0.4,0.5-0.5c0.5-0.1,0.9-0.1,1.2,0.3c0.3,0.4,0.4,0.8,0.2,1.3
			c-0.1,0.3-0.6,0.5-0.9,0.6c-0.3,0-0.5-0.1-0.7-0.2C14.2,63.7,14.1,63.5,14,63.4z"/>
		<path d="M75.5,41.4c0-0.5,0.4-0.7,0.7-1c0.2-0.1,0.5-0.2,0.8-0.3c0.2-0.1,0.4-0.1,0.5,0.1c0.1,0.1,0.1,0.4-0.1,0.6
			c-0.2,0.3-0.5,0.6-0.9,0.8c-0.1,0-0.2,0.1-0.2,0.2c-0.1,0.4-0.4,0.6-0.7,0.8c-0.2,0.2-0.5,0.2-0.7,0.3c-0.1,0-0.2,0-0.4,0
			c-0.2,0-0.3-0.2-0.2-0.4c0.1-0.3,0.3-0.6,0.5-0.7C75.1,41.7,75.3,41.6,75.5,41.4z"/>
		<path d="M43.4,49.6c-0.3,0.2-0.6,0.2-0.9,0.2c-0.3,0-0.8-0.4-0.8-0.7c-0.1-0.5,0.1-0.9,0.5-1.1c0.2-0.1,0.5-0.2,0.8-0.3
			c0.5,0,1,0.3,1,0.7C44,48.9,43.8,49.3,43.4,49.6z"/>
		<path d="M13.5,60.7c-0.2-0.3-0.3-0.6-0.1-1c0.2-0.6,0.7-0.8,1.3-0.7c0.7,0.2,1,0.9,0.7,1.6c-0.1,0.3-0.5,0.6-0.9,0.6
			C14,61.2,13.7,61.1,13.5,60.7z"/>
		<path d="M16.9,65.2c0.5,0.7,0.1,1.4-0.6,1.5c-0.5,0.1-0.9,0-1.2-0.4c-0.3-0.3-0.3-0.7-0.2-1.1c0.1-0.3,0.4-0.5,0.7-0.6
			C16.2,64.7,16.6,64.8,16.9,65.2z"/>
		<path d="M27.6,89.5c0.1,0,0.2-0.1,0.3-0.1c0.1,0,0.2-0.1,0.3-0.1c0.4-0.2,0.7,0.1,0.7,0.4c0,0.5-0.2,0.9-0.6,1.1
			c-0.3,0.2-0.6,0.1-0.7-0.2c0-0.1-0.1-0.2-0.1-0.4c-0.1,0.1-0.2,0.1-0.3,0.2c-0.2,0.1-0.4,0.2-0.6,0.1c-0.2-0.1-0.3-0.3-0.3-0.5
			c0-0.5,0.3-0.8,0.6-1.1c0.2-0.2,0.6-0.1,0.7,0.2C27.6,89.2,27.6,89.4,27.6,89.5z"/>
		<path d="M20.4,65.9c-0.7,0.4-1.5,0.1-1.8-0.6c-0.2-0.4,0.2-1.1,0.7-1.2c0.5-0.1,1-0.1,1.3,0.2c0.3,0.3,0.4,0.8,0.2,1.1
			C20.6,65.7,20.5,65.8,20.4,65.9z"/>
		<path d="M20.1,45.3c0.5-0.3,1.1-0.2,1.3,0.3c0.3,0.5,0.2,1.1-0.2,1.5c-0.3,0.3-0.6,0.4-0.9,0.3c-0.4-0.1-0.6-0.3-0.7-0.7
			c-0.1-0.5,0-0.9,0.3-1.2C19.9,45.4,20,45.4,20.1,45.3z"/>
		<path d="M11.1,63c0.6-0.4,1.4-0.1,1.6,0.5c0.1,0.3,0.2,0.6,0.1,0.9c-0.2,0.4-0.5,0.6-0.9,0.6c-0.6,0-0.9-0.4-1.1-0.9
			C10.6,63.8,10.8,63.2,11.1,63z"/>
		<path d="M13.7,67.5c-0.4,0.3-0.9,0.2-1.3-0.1c-0.5-0.3-0.5-0.8-0.3-1.3c0-0.1,0.1-0.2,0.2-0.3c0.6-0.5,1.4-0.2,1.7,0.3
			c0.2,0.4,0.3,0.8,0,1.2C13.8,67.4,13.7,67.4,13.7,67.5z"/>
		<path d="M11.2,61c-0.2-0.3-0.1-0.6-0.1-0.9c0.1-0.7,1.1-1,1.6-0.5c0.4,0.3,0.5,0.8,0.4,1.2c-0.1,0.6-0.8,0.9-1.3,0.7
			C11.6,61.4,11.4,61.3,11.2,61z"/>
		<path d="M24.1,63.4c0.3,0.4,0.1,0.9-0.3,1.2c-0.5,0.4-1.4,0.3-1.7-0.1c-0.3-0.4-0.2-1.1,0.2-1.4c0.5-0.3,1-0.4,1.5-0.1
			C23.9,63.1,24,63.3,24.1,63.4z"/>
		<path d="M35.5,56.9c-0.5,0.3-1,0.3-1.5,0c-0.2-0.1-0.4-0.6-0.3-0.9c0.1-0.3,0.3-0.6,0.6-0.7c0.2-0.1,0.5-0.2,0.7-0.2
			c0.5,0,0.8,0.2,1,0.6c0.1,0.3,0.1,0.6-0.1,0.8C35.7,56.7,35.6,56.9,35.5,56.9z"/>
		<path d="M8.9,67c-0.1-0.2-0.1-0.6,0-1c0.1-0.2,0.5-0.5,0.8-0.5c0.6,0,1,0.4,1.2,0.9c0.1,0.3-0.1,0.9-0.3,1.1
			C10.1,67.8,9.4,67.6,8.9,67z"/>
		<path d="M14.3,54.1c-0.7,0.4-1.4,0.1-1.5-0.5c-0.1-0.5,0-0.9,0.4-1.3c0.4-0.4,1-0.3,1.3,0.1C14.9,52.9,14.7,53.5,14.3,54.1
			C14.3,54,14.3,54.1,14.3,54.1z"/>
		<path d="M17.2,47.7C16.8,47,17,46,17.9,45.8c0.4-0.1,0.9,0.2,1,0.6c0.1,0.4,0.1,0.8-0.1,1.1c-0.3,0.5-0.9,0.6-1.4,0.4
			C17.3,47.9,17.2,47.8,17.2,47.7z"/>
		<path d="M26.1,63.7c-0.5,0.3-1.2,0.2-1.6-0.2c-0.3-0.3-0.3-0.9,0.1-1.2c0.5-0.5,1.3-0.5,1.8-0.1c0.4,0.4,0.5,0.9-0.2,1.4
			C26.1,63.6,26.1,63.6,26.1,63.7z"/>
		<path d="M10.1,62c-0.3,0.2-0.6,0.2-0.8,0.2c-0.2,0-0.3-0.2-0.5-0.3c-0.1-0.1-0.3-0.3-0.2-0.5c0-0.1-0.1-0.3-0.1-0.4
			c0-0.5,0.4-0.9,0.8-1c0.3-0.1,0.6,0,0.8,0.2c0.5,0.4,0.6,1.2,0.2,1.7C10.2,61.8,10.2,61.9,10.1,62z"/>
		<path d="M6.8,67.2c-0.1-0.2-0.2-0.5-0.1-0.8c0.1-0.3,0.2-0.6,0.6-0.7c0.4-0.2,0.8-0.1,1.1,0.2c0.3,0.4,0.4,0.8,0.2,1.3
			c-0.1,0.4-0.6,0.6-0.9,0.6C7.3,67.7,7,67.6,6.8,67.2z"/>
		<path d="M38.6,55.1c-0.4,0.2-0.7,0.3-1.1,0.2c-0.3-0.1-0.6-0.2-0.6-0.6c-0.1-0.3,0-0.7,0.3-0.9c0.4-0.3,0.8-0.5,1.3-0.4
			c0.4,0.1,0.6,0.3,0.7,0.7C39.2,54.5,39,54.8,38.6,55.1C38.6,55,38.6,55.1,38.6,55.1z"/>
		<path d="M9,64.5c-0.5,0.3-0.8,0.2-1.2-0.1c-0.4-0.3-0.5-0.8-0.4-1.3c0.2-0.7,1-0.9,1.6-0.4C9.5,63,9.5,63.5,9.4,64
			C9.4,64.2,9.2,64.4,9,64.5z"/>
		<path d="M28.2,84.3c-0.1,0-0.2,0.1-0.2,0.1c-0.3,0.1-0.5-0.1-0.6-0.3c-0.1-0.5,0.5-1.1,0.9-1.2c0.5-0.1,0.6,0.3,0.5,0.6
			c0,0.1,0,0.1-0.1,0.2c0.1,0,0.2,0,0.3,0c0.6-0.1,0.7,0.2,0.6,0.6c-0.1,0.4-0.5,0.9-0.9,1c-0.2,0-0.4-0.1-0.4-0.2
			C28.3,84.7,28.3,84.5,28.2,84.3z"/>
		<path d="M21.9,41.2c-0.6,0.5-1.3,0-1.4-0.7c0-0.5,0.1-0.9,0.6-1.2c0.6-0.5,1.2-0.1,1.3,0.4C22.6,40.3,22.4,40.9,21.9,41.2z"/>
		<path d="M45.4,48.6c0.3-0.2,0.7-0.3,1-0.3c0.7,0,1,0.8,0.6,1.3c-0.3,0.4-1,0.7-1.5,0.6c-0.6-0.1-0.9-0.9-0.4-1.4
			C45.2,48.8,45.3,48.7,45.4,48.6z"/>
		<path d="M14.9,46.8c0.6-0.4,1.2,0,1.3,0.6c0.1,0.4,0,0.8-0.3,1.2c-0.5,0.5-1.2,0.4-1.5-0.1c-0.2-0.5-0.2-1.1,0.3-1.5
			C14.8,46.9,14.8,46.8,14.9,46.8z"/>
		<path d="M6.4,72.5C7,72,7.8,72.2,8.1,72.8c0.1,0.2,0.1,0.3,0.2,0.5c0,0.2,0,0.5-0.3,0.6c-0.3,0.2-0.6,0.3-1,0.2
			c-0.3-0.1-0.5-0.2-0.7-0.4c-0.1-0.1-0.2-0.2-0.2-0.4c0-0.2,0-0.3,0-0.5C6.2,72.7,6.2,72.5,6.4,72.5z"/>
		<path d="M43.1,50.1c0.4-0.3,0.9-0.3,1.4-0.1c0.4,0.2,0.5,0.7,0.3,1.1c-0.3,0.6-1.2,0.9-1.8,0.7c-0.4-0.1-0.6-0.6-0.4-1
			C42.7,50.5,42.8,50.2,43.1,50.1z"/>
		<path d="M1.3,56.4c-0.1,0.1-0.2,0.2-0.3,0.3C0.8,56.5,1,56.2,1,56c0-0.3-0.1-0.5,0.1-0.8c0.3,0.2,0.2,0.5,0.4,0.7
			c0.1-0.1,0.1-0.1,0.1-0.2c0.1-0.2,0.2-0.4,0.4-0.5c0.4-0.2,0.9-0.1,1.1,0.4c0.1,0.4,0.1,0.8-0.1,1.2c-0.2,0.3-0.6,0.5-0.9,0.5
			c-0.3-0.1-0.5-0.3-0.5-0.6C1.4,56.6,1.4,56.6,1.3,56.4z"/>
		<path d="M5.5,64.3c-0.3-0.4-0.3-0.9,0-1.4c0.1-0.2,0.6-0.4,0.8-0.4c0.8,0.1,1.2,1,0.9,1.7c-0.1,0.1-0.2,0.3-0.3,0.3
			C6.5,64.8,5.8,64.8,5.5,64.3z"/>
		<path d="M32.8,57.5c0.4-0.3,1.4-0.3,1.6,0.1c0.2,0.3,0.2,0.5,0.1,0.8c-0.2,0.7-1.3,1-1.9,0.6c-0.5-0.3-0.5-1-0.1-1.4
			C32.6,57.6,32.7,57.5,32.8,57.5z"/>
		<path d="M4.4,67.4c-0.3-0.4-0.3-0.9-0.1-1.3c0.2-0.4,0.8-0.6,1.2-0.4C6.1,66,6.4,67,5.9,67.5c-0.2,0.3-0.7,0.4-1.1,0.2
			C4.6,67.6,4.5,67.5,4.4,67.4z"/>
		<path d="M5.9,61.7c-0.3-0.5-0.2-1.1,0.2-1.5c0.4-0.4,0.9-0.4,1.2-0.1c0.5,0.4,0.5,1,0.2,1.6c-0.3,0.6-1.1,0.6-1.5,0.1
			C5.9,61.8,5.9,61.7,5.9,61.7z"/>
		<path d="M9.5,73.9c-0.4-0.6,0-1.3,0.7-1.4c0.6-0.1,1,0.2,1.3,0.7c0.3,0.5,0,1-0.6,1.2C10.3,74.6,9.7,74.4,9.5,73.9z"/>
		<path d="M66,39.6c-0.3,0.1-0.6,0.2-0.9,0.2c-0.3,0.1-0.6-0.1-0.7-0.3c-0.1-0.2-0.1-0.5,0-0.8c0.3-0.6,0.8-0.9,1.5-0.9
			c0.5,0,0.9,0.5,0.6,1.1C66.5,39.2,66.3,39.4,66,39.6z"/>
		<path d="M3.3,64.6c-0.2-0.2-0.2-0.6-0.2-0.9c0-0.3,0.2-0.6,0.5-0.8c0.3-0.2,0.8-0.1,1,0.1C5,63.4,5.1,63.9,5,64.3
			c-0.1,0.6-0.7,0.8-1.3,0.7C3.5,65,3.4,64.8,3.3,64.6z"/>
		<path d="M72.1,36.1c-0.2,0.2-0.5,0.2-0.8,0.3c-0.4,0-0.7-0.3-0.7-0.7c0-0.4,0.2-0.6,0.5-0.9c0.4-0.3,0.8-0.5,1.3-0.4
			c0.3,0.1,0.4,0.2,0.5,0.5c0.1,0.3-0.1,0.6-0.3,0.9C72.4,35.8,72.2,35.9,72.1,36.1z"/>
		<path d="M2,67.1c-0.3-0.4-0.2-0.8-0.1-1.2c0.1-0.2,0.5-0.6,0.9-0.5c0.5,0.1,0.7,0.4,0.9,0.9c0.1,0.4,0,0.8-0.3,1.1
			c-0.4,0.3-0.9,0.3-1.2-0.1C2.1,67.3,2.1,67.2,2,67.1z"/>
		<path d="M27.8,63.1c-0.1-0.3-0.1-0.6,0.1-0.9c0.4-0.5,1.3-0.7,1.8-0.4c0.4,0.3,0.5,0.9,0.1,1.2c-0.4,0.3-0.8,0.4-1.2,0.4
			C28.2,63.5,27.9,63.3,27.8,63.1z"/>
		<path d="M14.7,73.3c-0.5,0.4-1.2,0.2-1.6-0.2c-0.5-0.6-0.1-1.2,0.5-1.4c0.5-0.1,0.9,0,1.2,0.2C15.3,72.2,15.3,72.9,14.7,73.3z"/>
		<path d="M76,33.8c-0.4,0.2-0.7,0.4-1.1,0.3c-0.3-0.1-0.5-0.2-0.5-0.6c0-0.4,0.2-0.7,0.5-0.9c0.3-0.3,0.7-0.5,1.1-0.5
			c0.5,0,0.7,0.4,0.6,0.8C76.6,33.3,76.3,33.5,76,33.8z"/>
		<path d="M4.2,74.2c-0.4,0.3-1,0.1-1.2-0.2c-0.1-0.1-0.1-0.3-0.1-0.5c0-0.1,0-0.2,0-0.2c-0.1-0.2-0.2-0.5,0-0.7
			c0.2-0.3,0.5-0.4,0.8-0.4c0.7,0,1.2,0.7,1.1,1.3C4.6,73.9,4.5,74.1,4.2,74.2z"/>
		<path d="M12.1,47.3c0.4-0.3,1-0.2,1.2,0.3c0.2,0.5,0.1,1.2-0.3,1.5c-0.5,0.5-1.2,0.3-1.4-0.3C11.4,48.2,11.7,47.6,12.1,47.3z"/>
		<path d="M7,55.6c0.5-0.3,1-0.1,1.3,0.3c0.2,0.5,0.2,1-0.2,1.5c-0.3,0.3-0.9,0.4-1.2,0c-0.3-0.4-0.3-0.8-0.2-1.3
			C6.6,55.8,6.8,55.7,7,55.6z"/>
		<path d="M62.8,42.4c-0.3,0.1-0.5,0.2-0.8,0.3c-0.2,0-0.4,0-0.5-0.1c-0.4-0.1-0.4-0.6-0.2-1c0.2-0.4,1.1-0.9,1.5-0.9
			c0.5,0,0.9,0.4,0.6,1C63.2,42.1,63,42.3,62.8,42.4z"/>
		<path d="M29.7,85.9c0.1,0,0.2-0.1,0.3-0.1c0.2,0,0.4,0.1,0.4,0.4c0,0.4,0.1,0.7,0.3,1c0.2,0.3,0.1,0.6-0.1,0.9
			c-0.1,0.2-0.3,0.3-0.5,0.5c-0.3,0.2-0.6,0-0.7-0.3c0-0.2,0-0.3,0-0.5c0-0.2,0-0.3-0.1-0.3c-0.2-0.2-0.3-0.4-0.2-0.6
			C29.2,86.4,29.4,86.1,29.7,85.9z"/>
		<path d="M37,58.4c-0.4,0.2-0.8,0.3-1.3,0.2c-0.6-0.2-0.6-0.9-0.3-1.3c0.4-0.4,0.8-0.5,1.4-0.5c0.3,0,0.6,0.2,0.7,0.4
			c0.1,0.3,0,0.6-0.2,0.8C37.2,58.2,37.1,58.3,37,58.4z"/>
		<path d="M4,60.6C4.3,61,4.2,61.7,3.9,62c-0.3,0.4-1.1,0.5-1.3-0.2c0-0.1-0.1-0.1-0.2-0.2c-0.1-0.4-0.1-0.9,0.2-1.2
			c0.4-0.5,1-0.4,1.3,0C4,60.5,4,60.5,4,60.6z"/>
		<path d="M4,57.3c-0.2-0.3-0.3-0.6-0.2-0.9c0-0.1,0.1-0.2,0.1-0.4c0.1-0.4,0.4-0.6,0.7-0.7c0.4,0,0.6,0.1,0.8,0.4
			c0.2,0.4,0.2,1.1-0.2,1.5C4.8,57.7,4.2,57.7,4,57.3z"/>
		<path d="M42.7,76.6c-0.7-0.1-0.7-0.1-0.5-0.8c-0.1-0.1-0.2-0.2-0.2-0.3c0-0.1,0.1-0.2,0.1-0.3c0.3-0.3,0.7-0.5,1.1-0.6
			c0.2,0.3,0.2,0.3-0.1,0.6c0.2,0.1,0.4,0.2,0.2,0.5c-0.1,0.2-0.2,0.4-0.3,0.5c0.1,0,0.2,0.1,0.3,0.1c0.2,0.1,0.2,0.2,0.2,0.3
			c-0.1,0.3-0.6,0.8-1.1,0.8c-0.3,0-0.4-0.2-0.2-0.5C42.5,76.9,42.6,76.7,42.7,76.6z"/>
		<path d="M59,63.6c-0.4,0.3-0.8,0.7-1.4,0.5c0.2-0.5,1-0.9,1.5-0.9c0,0.1,0,0.2,0.1,0.3c0.1-0.1,0.3-0.2,0.4-0.4
			c-0.1,0-0.2-0.1-0.3-0.1c0-0.2-0.1-0.3-0.1-0.4c0-0.1,0-0.2,0.1-0.2c0.3-0.3,0.7-0.5,1.1-0.6c0.2-0.1,0.3,0,0.3,0.2
			c0.1,0.4,0.1,0.5-0.3,0.7c0.1,0.1,0.1,0.1,0.2,0.2c0,0.3-0.3,0.5-0.5,0.6C59.8,63.7,59.4,63.9,59,63.6z"/>
		<path d="M42.1,55.4c-0.3,0.2-0.7,0.3-1.1,0.2c-0.6-0.1-0.8-0.7-0.4-1.2c0.4-0.5,0.9-0.7,1.5-0.6c0.6,0.1,0.9,0.7,0.4,1.2
			C42.4,55.2,42.2,55.3,42.1,55.4z"/>
		<path d="M32,81c0.5,0.4,0.3,0.7,0,1.2c-0.2,0.3-0.4,0.4-0.7,0.5c-0.2,0.1-0.6-0.1-0.6-0.4c0-0.2,0-0.4,0.2-0.5
			c0.1-0.1,0.2-0.3,0.3-0.4c-0.4-0.3-0.4-0.6-0.1-1c0.2-0.2,0.5-0.4,0.8-0.5c0.2,0,0.3,0,0.4,0.1c0.1,0.1,0.1,0.3,0,0.4
			C32.4,80.7,32.2,80.8,32,81z"/>
		<path d="M8.4,48.2c0.4-0.3,1-0.1,1.2,0.5c0.1,0.5,0.1,0.9-0.3,1.3c-0.2,0.2-0.5,0.4-0.8,0.3c-0.4-0.1-0.5-0.4-0.6-0.7
			c-0.1-0.4,0.1-0.7,0.3-1.1C8.2,48.4,8.3,48.3,8.4,48.2z"/>
		<path d="M16.7,72c-0.3-0.4-0.1-0.9,0.4-1.1c0.5-0.2,0.9-0.3,1.4,0c0.4,0.2,0.5,0.8,0.1,1.1c-0.3,0.3-0.7,0.4-1.2,0.4
			c-0.1,0-0.1,0-0.2,0C17,72.4,16.8,72.3,16.7,72z"/>
		<path d="M35.1,83.4c0.2-0.1,0.3-0.1,0.4-0.2c0.2-0.1,0.4-0.2,0.5-0.1c0.1,0.1,0.2,0.3,0.1,0.5c0,0.4-0.3,0.7-0.7,0.9
			c-0.3,0.1-0.5,0.1-0.6-0.2c-0.1-0.1-0.1-0.2-0.1-0.4c-0.1,0.1-0.2,0.1-0.2,0.1c-0.3,0.2-0.5,0.2-0.7,0.1c-0.2-0.1-0.2-0.4-0.1-0.7
			c0.1-0.2,0.2-0.4,0.4-0.5c0.2-0.2,0.6-0.3,0.8-0.1c0.1,0.1,0.1,0.2,0.1,0.2C35.1,83.1,35.1,83.2,35.1,83.4z"/>
		<path d="M47.4,52.9c-0.4,0.3-0.8,0.4-1.2,0.3c-0.4-0.1-0.6-0.6-0.4-1c0.3-0.5,1-0.8,1.5-0.8c0.6,0.1,0.9,0.6,0.5,1.1
			C47.6,52.7,47.5,52.8,47.4,52.9z"/>
		<path d="M70.8,58.2c0.1,0.2-0.1,0.4-0.2,0.5c-0.2,0.1-0.4,0.3-0.7,0.4c-0.4,0.2-0.8,0.3-1.2,0.4c-0.3,0.1-0.6,0-0.8,0
			c-0.1,0-0.2-0.2-0.1-0.3c0.1-0.1,0.3-0.2,0.4-0.3c0.2-0.1,0.3-0.2,0.4-0.4c0,0,0-0.1,0.1-0.1c0.4-0.3,0.9-0.6,1.4-0.7
			c0.1,0.3,0.1,0.4-0.4,0.7c0.2-0.1,0.4-0.1,0.6-0.2C70.4,58.1,70.6,58,70.8,58.2z"/>
		<path d="M66.8,40.5c0.3-0.2,0.6-0.3,0.9-0.2c0.4,0,0.6,0.3,0.5,0.7c-0.2,0.5-0.5,0.8-1,1c-0.1,0.1-0.3,0.1-0.4,0.1
			c-0.3,0.1-0.5,0-0.7-0.2c-0.2-0.2-0.1-0.5,0-0.7C66.2,40.9,66.5,40.7,66.8,40.5z"/>
		<path d="M64.5,52.3c-0.2-0.2-0.1-0.4,0-0.5c0.3-0.5,0.8-0.7,1.4-0.8c0.1,0,0.1,0,0.2,0c0.3,0,0.3,0.2,0.2,0.4
			c-0.2,0.3-0.5,0.6-0.8,0.7c-0.1,0-0.1,0.1-0.2,0.1c0.2,0.4-0.1,0.6-0.3,0.8c-0.3,0.2-0.6,0.5-1,0.5c-0.2,0-0.4,0.1-0.5-0.1
			c-0.1-0.2,0-0.3,0.1-0.4c0.1-0.1,0.3-0.3,0.4-0.4C64.2,52.5,64.4,52.4,64.5,52.3z"/>
		<path d="M5.4,50.3c-0.4,0.3-1,0.2-1.1-0.4c-0.1-0.5,0-1,0.5-1.4c0.2-0.2,0.5-0.3,0.7-0.2c0.3,0.1,0.4,0.3,0.5,0.6
			c0.1,0.5,0,0.9-0.3,1.3C5.6,50.1,5.5,50.2,5.4,50.3z"/>
		<path d="M65.5,49.2c0.3-0.2,0.6-0.4,1-0.3c0.2,0,0.3-0.1,0.5-0.2c0.2-0.1,0.3-0.1,0.5-0.1c0.2,0,0.3,0.1,0.3,0.3
			c0,0.1-0.1,0.2-0.1,0.3c-0.4,0.4-0.8,0.7-1.4,0.8c-0.1,0-0.3,0.1-0.4,0.1c-0.2,0.1-0.5,0.2-0.7,0.2c-0.3,0-0.4-0.1-0.3-0.4
			c0.1-0.2,0.2-0.4,0.3-0.5C65.3,49.4,65.4,49.3,65.5,49.2z"/>
		<path d="M64.1,44.6c-0.3,0.1-0.5,0.2-0.8,0.2c-0.2,0-0.5,0-0.6-0.2c-0.2-0.2-0.1-0.4,0-0.7c0.3-0.6,1.1-1,1.7-0.9
			c0.4,0.1,0.5,0.3,0.4,0.7C64.6,44.2,64.4,44.4,64.1,44.6z"/>
		<path d="M21,69.9c0.5-0.3,0.9-0.3,1.4-0.2c0.4,0.1,0.5,0.7,0.2,1c-0.4,0.4-0.8,0.6-1.4,0.5c-0.3,0-0.6-0.2-0.7-0.4
			c-0.1-0.3,0.1-0.6,0.3-0.8C20.9,70,21,70,21,69.9z"/>
		<path d="M52.9,49.3c0.3-0.2,0.6-0.3,0.9-0.3c0.1,0,0.3,0,0.4,0.1c0.3,0.2,0.4,0.4,0.1,0.9c-0.3,0.5-0.8,0.7-1.3,0.8
			c-0.1,0-0.3,0-0.4-0.1c-0.4-0.1-0.5-0.5-0.3-0.8C52.5,49.6,52.7,49.4,52.9,49.3z"/>
		<path d="M51.3,64.6c-0.1-0.1-0.1-0.3,0.1-0.4c0.3-0.2,0.6-0.4,0.9-0.6c0-0.1,0-0.2-0.2-0.1c-0.1,0-0.3,0-0.4,0
			c0-0.2,0-0.3,0.1-0.4c0.4-0.4,0.8-0.6,1.3-0.7c0.3-0.1,0.3,0,0.4,0.2c0.2,0,0.4-0.2,0.6,0c-0.1,0.3-0.3,0.5-0.6,0.6
			c-0.2,0.1-0.4,0.2-0.5,0.4c0,0.1-0.1,0.2-0.2,0.2C52.4,64.4,51.9,64.6,51.3,64.6z"/>
		<path d="M47.2,73.5c0.1,0,0.1,0.1,0.1,0.1c0.1,0,0.3,0,0.3,0.1c0,0.1,0,0.3-0.1,0.4c-0.2,0.2-0.4,0.4-0.7,0.5
			c-0.2,0.1-0.4,0.1-0.5-0.1c0.1-0.3,0.3-0.5,0.5-0.7c-0.2-0.2-0.5,0-0.7-0.2c-0.2,0.1-0.3,0.1-0.5,0.2c0,0-0.1,0-0.1,0
			c-0.1,0-0.3,0-0.4-0.1c-0.1-0.1,0-0.3,0.1-0.3c0.3-0.3,0.6-0.5,1-0.5c0.1,0,0.2,0,0.2,0.1c0.1,0.1,0.3,0.1,0.4,0.1
			c0.1-0.1,0.2-0.1,0.4-0.2c0.1,0,0.1,0,0.2,0c0.3,0,0.3,0.1,0.2,0.4c0,0.1-0.1,0.2-0.2,0.2C47.4,73.3,47.3,73.4,47.2,73.5z"/>
		<path d="M45.1,54.5c0.3-0.2,0.6-0.2,0.9-0.2c0.3,0,0.5,0.1,0.6,0.3c0.1,0.2,0.1,0.4-0.1,0.6c-0.4,0.5-0.9,0.7-1.5,0.7
			c-0.5,0-0.7-0.5-0.4-0.9C44.8,54.8,45,54.7,45.1,54.5z"/>
		<path d="M24.5,68.2c0.5-0.2,0.9-0.4,1.4-0.1c0.5,0.2,0.4,0.6,0.2,0.9c-0.4,0.5-0.9,0.6-1.5,0.6c-0.3,0-0.4-0.2-0.5-0.4
			c-0.1-0.2,0-0.4,0.2-0.6C24.2,68.4,24.4,68.3,24.5,68.2z"/>
		<path d="M1,54.7c-0.1-0.5-0.1-0.9,0-1.4C1,53,1.4,52.7,1.7,52.7c0.4,0,0.6,0.3,0.7,0.6c0.1,0.4,0,0.9-0.3,1.2
			c-0.2,0.3-0.5,0.3-0.8,0.2C1.2,54.8,1.1,54.7,1,54.7z"/>
		<path d="M58.7,48.1c-0.3,0.2-0.6,0.3-0.9,0.3c-0.5,0-0.7-0.4-0.5-0.8c0.2-0.4,0.5-0.7,1-0.8c0.2-0.1,0.4-0.1,0.6-0.1
			c0.3,0,0.5,0.3,0.5,0.6C59.3,47.7,59.1,47.9,58.7,48.1z"/>
		<path d="M34.9,78.5c0.1,0,0.3-0.1,0.5-0.1c0.4-0.1,0.5,0.1,0.4,0.4c-0.1,0.3-0.2,0.4-0.4,0.6c-0.1,0.1-0.2,0.1-0.3,0.2
			c-0.3,0.1-0.5,0.1-0.7-0.1c-0.1-0.2-0.3-0.2-0.5-0.1c-0.1,0.1-0.4,0-0.4-0.1c-0.1-0.1-0.1-0.3,0-0.4c0.2-0.4,0.6-0.6,1-0.8
			C34.7,78.1,34.8,78.2,34.9,78.5z"/>
		<path d="M65.6,63.8c0.1-0.1,0.2-0.2,0.2-0.2c0.1-0.1,0.3-0.1,0.4-0.2c0.1-0.1,0.2-0.2,0.2-0.3c0-0.3,0.3-0.4,0.4-0.5
			c0.2-0.2,0.4-0.3,0.6-0.5c0.3-0.2,0.6-0.4,1-0.5c0.2-0.1,0.3,0.1,0.2,0.2c-0.1,0.2-0.2,0.3-0.4,0.4c-0.3,0.2-0.6,0.6-1,0.7
			c0,0-0.1,0.1-0.1,0.2c0.2,0,0.3,0.1,0.5,0.1c0,0.3-0.1,0.5-0.4,0.6c-0.3,0.2-0.6,0.3-0.9,0.2c-0.2-0.1-0.4-0.2-0.7-0.1
			C65.8,63.9,65.7,63.9,65.6,63.8z"/>
		<path d="M42.2,56.5c0.3-0.2,0.6-0.3,0.9-0.3c0.3,0,0.5,0,0.6,0.3c0.1,0.3,0.1,0.6-0.2,0.8c-0.4,0.4-0.8,0.6-1.4,0.5
			c-0.4,0-0.7-0.3-0.5-0.9C41.8,56.8,42,56.6,42.2,56.5z"/>
		<path d="M35.2,61.4c0.3-0.3,0.8-0.3,1.1-0.3c0.5,0.1,0.6,0.6,0.4,0.9c-0.3,0.4-1.1,0.8-1.6,0.7c-0.2,0-0.4-0.2-0.5-0.4
			c0-0.2,0-0.5,0.2-0.7C34.9,61.6,35.1,61.5,35.2,61.4z"/>
		<path d="M38.6,78.7c0,0,0.1,0,0.1,0c0.4,0.1,0.6,0.4,0.4,0.7c-0.2,0.3-0.4,0.5-0.7,0.6c-0.3,0.1-0.5,0.1-0.6-0.4
			c0-0.1,0-0.3,0-0.4c0,0-0.1,0-0.1,0c-0.4,0-0.6-0.2-0.3-0.6c0.2-0.3,0.5-0.5,0.9-0.6c0.3-0.1,0.5,0.1,0.4,0.4
			C38.7,78.5,38.6,78.6,38.6,78.7z"/>
		<path d="M26.8,67.3c0.3-0.2,0.7-0.2,1-0.3c0.2,0,0.5,0.1,0.6,0.3c0.1,0.1,0.1,0.5-0.1,0.7c-0.4,0.4-1.1,0.7-1.6,0.6
			c-0.4-0.1-0.6-0.5-0.3-0.9C26.5,67.6,26.7,67.4,26.8,67.3z"/>
		<path d="M29.4,66c0.4-0.2,0.9-0.4,1.4-0.3c0.3,0.1,0.5,0.3,0.3,0.7c-0.1,0.2-0.2,0.3-0.4,0.4c-0.3,0.2-0.7,0.4-1.1,0.3
			c-0.3,0-0.5-0.1-0.6-0.3c-0.1-0.2,0-0.5,0.2-0.7C29.2,66.1,29.3,66.1,29.4,66z"/>
		<path d="M69.7,43.5c-0.3,0.2-0.6,0.3-1,0.3c-0.3,0-0.5-0.3-0.4-0.6c0.1-0.3,0.3-0.5,0.5-0.7c0.3-0.2,0.6-0.4,0.9-0.4
			c0.2,0,0.4-0.1,0.6,0.1c0.1,0.2,0.1,0.4,0,0.6C70.2,43.1,69.9,43.3,69.7,43.5z"/>
		<path d="M37.4,77c0.3,0.4,0.3,0.7-0.1,1c-0.2,0.2-0.4,0.3-0.7,0.4c-0.1,0.1-0.3,0.1-0.4,0c-0.1-0.1-0.2-0.2-0.1-0.4
			c0.1-0.1,0.1-0.3,0.1-0.4c-0.3-0.2-0.3-0.4,0-0.7c0.2-0.2,0.5-0.4,0.9-0.5c0.1,0,0.2,0,0.3,0c0.2,0,0.3,0.1,0.2,0.3
			C37.5,76.8,37.4,76.9,37.4,77z"/>
		<path d="M19.3,93.9c0.3,0.2,0.1,0.5,0.1,0.8c-0.1,0.4-0.3,0.7-0.7,0.8c-0.3,0.1-0.6,0-0.7-0.3c-0.2-0.4,0-1,0.3-1.3
			c0.1-0.1,0.2-0.2,0.3-0.2C18.9,93.5,19.1,93.6,19.3,93.9z"/>
		<path d="M62.5,67.9c-0.1-0.1-0.1-0.1-0.2-0.2c0.4-0.3,0.7-0.6,1.2-0.6c0.3,0,0.5,0,0.7-0.2c0.1,0,0.2-0.1,0.3-0.1
			c-0.1,0.5-0.4,0.8-0.9,0.9c-0.2,0-0.3,0-0.5,0c-0.1,0-0.2,0-0.3,0.2c0,0.5-0.4,0.7-0.8,0.9c-0.2,0.1-0.4,0.1-0.7,0.1
			c-0.1,0-0.3,0-0.4,0c-0.1,0-0.2-0.1-0.3-0.1c0.4-0.4,0.8-0.6,1.3-0.7C62.1,68.1,62.2,68.1,62.5,67.9z"/>
		<path d="M19.1,97.7c-0.5-0.4,0-1.4,0.6-1.6c0.3-0.1,0.6,0.1,0.7,0.4c0.2,0.6-0.2,1.3-0.7,1.6c-0.2,0.1-0.3,0-0.4-0.1
			C19.2,97.9,19.1,97.8,19.1,97.7z"/>
		<path d="M78.1,39.3c-0.3,0.2-0.6,0.4-0.9,0.4c-0.4,0.1-0.6-0.2-0.5-0.6c0.1-0.3,0.4-0.6,0.6-0.8c0.3-0.2,0.6-0.3,0.9-0.4
			c0.4-0.1,0.6,0.2,0.5,0.6C78.6,38.9,78.3,39.2,78.1,39.3z"/>
		<path d="M73.9,50.9c-0.3-0.1-0.4-0.2-0.2-0.5c0.3-0.4,0.8-0.7,1.3-0.8c0.1,0,0.1,0,0.2,0c0.2,0,0.3,0.1,0.2,0.3
			c-0.1,0.1-0.2,0.3-0.3,0.4c0.3,0.2,0.4,0.3,0.1,0.6c0,0,0,0.1-0.1,0.1c-0.4,0.3-0.8,0.6-1.3,0.6c-0.2,0-0.3-0.1-0.2-0.2
			c0-0.1,0.1-0.1,0.2-0.2C73.7,51.1,73.8,51,73.9,50.9z"/>
		<path d="M40.1,77.5c-0.1-0.1-0.2-0.2-0.3-0.3c0.2-0.7,0.9-1.1,1.4-0.9c0,0.2,0.1,0.4-0.2,0.6c0,0,0.1,0.1,0.1,0.1
			c0.4,0.3,0.3,0.6,0,0.9c-0.2,0.2-0.4,0.3-0.6,0.4c-0.2,0.1-0.3,0-0.4,0c-0.1-0.1-0.1-0.1-0.1-0.2C40,77.9,40,77.7,40.1,77.5z"/>
		<path d="M58.7,82.4c0.2,0.3,0.2,0.8,0,1c0,0-0.1,0.1-0.2,0.1c-0.2,0.1-0.4,0.1-0.6,0.2c-0.1,0-0.1,0.1-0.1,0.1
			c0,0.2-0.1,0.2-0.2,0.2c-0.1,0-0.3,0-0.4-0.2c0,0,0-0.1,0-0.1c0-0.4,0-0.7-0.2-1.1c-0.1-0.1,0.2-0.6,0.4-0.6
			c0.2-0.1,0.4,0.1,0.4,0.3c0,0.2,0,0.3,0.1,0.5c0.2,0.2,0.4,0.2,0.6,0C58.5,82.6,58.6,82.5,58.7,82.4z"/>
		<path d="M56.2,68.2c-0.1,0.4-0.4,0.6-0.7,0.7c-0.3,0.1-0.6,0.2-0.9-0.1c-0.3,0.2-0.6,0.2-0.9,0c0-0.1,0.1-0.2,0.1-0.3
			c-0.1,0-0.2-0.1-0.4-0.1c0.1-0.1,0.1-0.2,0.2-0.3c0.3-0.3,0.6-0.4,1-0.5c0.2-0.1,0.3,0,0.3,0.2c0,0.1,0,0.1,0,0.2
			c0.1,0,0.2,0,0.4,0c0,0.1,0,0.2,0,0.3C55.5,68.4,55.8,68,56.2,68.2z"/>
		<path d="M55.6,67c0-0.3,0.3-0.4,0.5-0.5c0.3-0.1,0.6-0.4,1-0.2c0,0.1-0.1,0.2-0.1,0.4c0.1,0,0.2,0,0.3,0c0.3-0.1,0.3-0.1,0.5,0.2
			c0.2,0.1,0.4-0.1,0.5,0.1c0,0.2-0.2,0.4-0.3,0.5c-0.1,0.1-0.2,0.2-0.4,0.2c-0.3,0.1-0.6,0.2-0.8-0.1c0,0-0.1,0-0.1,0
			c-0.3-0.1-0.4-0.1-0.3-0.4C56.1,67.1,55.9,67.1,55.6,67z"/>
		<path d="M51,70c0.1,0.1,0.2,0.2,0.3,0.3c0.1,0.1,0,0.3-0.1,0.4c-0.2,0.1-0.4,0.3-0.5,0.4c0,0,0,0.1,0,0.1c0.4,0.1,0.4,0.2,0.2,0.5
			c-0.3,0.3-0.6,0.6-1.1,0.6c-0.1,0-0.2-0.1-0.3-0.3c0.3-0.2,0.6-0.5,0.9-0.7c-0.2,0-0.4,0-0.5,0c-0.3,0-0.1-0.4-0.3-0.4
			C49.9,70.4,50.3,70.2,51,70z"/>
		<path d="M21.8,99.9c-0.4-0.7-0.2-1.2,0.2-1.7c0.2-0.2,0.6-0.2,0.8,0.1C23,98.5,23,98.7,23,99c-0.1,0.3-0.2,0.5-0.4,0.8
			c-0.2,0.2-0.3,0.3-0.6,0.2C21.9,100,21.8,99.9,21.8,99.9z"/>
		<path d="M43.6,58.3c0.3-0.2,0.6-0.2,0.8-0.3c0.1,0,0.2,0,0.3,0c0.5,0.1,0.6,0.5,0.2,0.9c-0.4,0.4-0.8,0.6-1.4,0.6
			c-0.5,0-0.6-0.3-0.4-0.7C43.3,58.6,43.4,58.5,43.6,58.3z"/>
		<path d="M38.1,63.3c-0.4,0.2-0.7,0.4-1.1,0.3c-0.4-0.1-0.5-0.3-0.3-0.6c0.2-0.4,0.6-0.6,0.9-0.7c0.2-0.1,0.4-0.1,0.7-0.1
			c0.4,0,0.5,0.3,0.4,0.6C38.5,63,38.3,63.2,38.1,63.3z"/>
		<path d="M49.2,62.8c0-0.2,0-0.3,0.2-0.4c0.4-0.3,0.7-0.6,1.2-0.6c0.4,0,0.7-0.3,1.1-0.4c0.2-0.1,0.5-0.2,0.8-0.2
			c0.2,0,0.3,0.1,0.2,0.3c0,0.1-0.1,0.1-0.1,0.2c-0.4,0.3-0.9,0.6-1.4,0.7c-0.1,0-0.2,0.1-0.3,0.1c-0.3,0.2-0.7,0.5-1.1,0.5
			C49.4,62.9,49.3,62.8,49.2,62.8z"/>
		<path d="M34.4,65.7c-0.3,0.2-0.7,0.3-1,0.3c-0.2,0-0.3-0.1-0.4-0.2c-0.1-0.2-0.1-0.3,0-0.5c0.4-0.5,1-0.7,1.6-0.7
			c0.2,0,0.4,0.1,0.4,0.3c0.1,0.2,0,0.4-0.1,0.5C34.7,65.5,34.6,65.6,34.4,65.7z"/>
		<path d="M39.2,75.8c0.3,0.3,0.3,0.3,0,0.7c0,0,0,0.1-0.1,0.1c-0.2,0.2-0.5,0.4-0.8,0.5c-0.1,0-0.3,0-0.4-0.1
			c-0.1-0.2,0-0.4,0.2-0.6c0.1-0.1,0.3-0.3,0.4-0.4c0,0,0-0.1,0-0.1c-0.3-0.2-0.3-0.3-0.1-0.6c0.3-0.3,0.6-0.5,1-0.5
			c0.1,0,0.2,0,0.3,0.1c0.1,0.1,0,0.2,0,0.3C39.6,75.5,39.4,75.6,39.2,75.8z"/>
		<path d="M69.9,45.1c-0.2,0.1-0.4,0.2-0.6,0.3c-0.2,0.1-0.5,0.1-0.7-0.1c-0.1-0.2-0.1-0.4,0.1-0.6c0.1-0.2,0.3-0.3,0.5-0.4
			c0.3-0.2,0.6-0.4,1-0.4c0.4,0,0.6,0.2,0.4,0.6C70.4,44.7,70.2,44.9,69.9,45.1z"/>
		<path d="M52.7,55c-0.2,0.2-0.6,0.3-0.9,0.3c-0.2,0-0.4,0-0.5-0.2c-0.1-0.2-0.1-0.4,0.1-0.6c0,0,0.1-0.1,0.1-0.1
			c0.4-0.3,0.8-0.6,1.3-0.6c0.1,0,0.2,0,0.3,0c0.3,0.1,0.4,0.2,0.2,0.5C53.2,54.6,53,54.8,52.7,55z"/>
		<path d="M21.7,95.2c-0.3-0.4-0.2-1,0.2-1.4c0.1-0.1,0.2-0.2,0.3-0.2c0.4-0.2,0.8,0.1,0.8,0.5c0,0.5-0.2,0.9-0.6,1.2
			C22.1,95.6,21.9,95.5,21.7,95.2z"/>
		<path d="M68.8,57c0.1,0,0.1,0,0.2,0c0.2,0.1,0.2,0.2,0.1,0.4c0,0-0.1,0.1-0.1,0.1c-0.4,0.3-0.8,0.6-1.3,0.6
			c-0.2,0-0.4-0.1-0.6-0.1c-0.1,0-0.1-0.1-0.1-0.2c0.4-0.6,0.9-1.1,1.6-1.3c0.1,0,0.2-0.1,0.3,0c0.1,0.1,0,0.2-0.1,0.3
			C68.9,56.8,68.9,56.9,68.8,57z"/>
		<path d="M67.9,45.6c0,0,0,0.2,0,0.3c-0.1,0.4-0.4,0.6-0.7,0.8c-0.2,0.1-0.4,0.2-0.6,0.3c-0.1,0-0.2,0-0.3,0
			c-0.3,0-0.4-0.2-0.4-0.5c0-0.1,0.1-0.3,0.2-0.4c0.3-0.4,0.8-0.7,1.3-0.8C67.5,45.4,67.7,45.3,67.9,45.6z"/>
		<path d="M35.5,69.4c0.1-0.3,0.2-0.4,0.4-0.5c0.4-0.3,0.8-0.4,1.2-0.5c0.1,0,0.3-0.1,0.4-0.2c0.3-0.1,0.5-0.2,0.8-0.3
			c0.2-0.1,0.3,0,0.4,0.1c0,0.2-0.1,0.3-0.2,0.4c-0.3,0.3-0.7,0.5-1.1,0.6c-0.3,0.1-0.5,0.2-0.8,0.3c-0.3,0.1-0.5,0.3-0.8,0.3
			C35.7,69.5,35.6,69.5,35.5,69.4z"/>
		<path d="M25,100.5c0.3-0.2,0.6-0.1,0.8,0.2c0.2,0.5,0.1,1.1-0.4,1.5c-0.2,0.2-0.5,0.2-0.7,0c-0.1-0.1-0.1-0.3-0.2-0.4
			C24.4,101.5,24.7,100.7,25,100.5z"/>
		<path d="M24.1,97.1c-0.3-0.4,0-1.1,0.2-1.4c0.1-0.1,0.3-0.2,0.5-0.2c0.1,0,0.3,0,0.4,0.1c0.2,0.3,0.3,0.7,0.1,1
			c-0.1,0.2-0.2,0.3-0.3,0.5C24.7,97.5,24.3,97.5,24.1,97.1z"/>
		<path d="M21.7,87.4c-0.3,0.1-0.6,0.2-0.8,0c-0.1-0.2-0.1-0.3-0.1-0.5c0.1-0.5,0.3-0.9,0.8-1.1c0.4-0.2,0.8,0.2,0.8,0.6
			C22.3,86.7,22,87.2,21.7,87.4z"/>
		<path d="M24.2,90c-0.3,0.2-0.6,0.2-0.7,0c-0.1-0.2-0.2-0.3-0.2-0.5c0-0.4,0.3-0.9,0.7-1.1c0.4-0.2,0.7,0.1,0.7,0.5
			c0,0.4-0.1,0.7-0.4,1C24.3,89.9,24.3,89.9,24.2,90z"/>
		<path d="M24,92.5c-0.1-0.2-0.2-0.5,0-0.8c0.1-0.2,0.2-0.5,0.5-0.6c0.4-0.2,0.8,0,0.8,0.4c0,0.4-0.1,0.8-0.4,1
			c-0.1,0-0.1,0.1-0.1,0.1C24.5,92.8,24.2,92.8,24,92.5z"/>
		<path d="M44.8,75c-0.1,0-0.2,0-0.2-0.1c-0.2-0.1-0.3-0.2-0.1-0.4c0.2-0.3,0.6-0.5,0.9-0.7c0.1-0.1,0.2-0.1,0.3,0
			c0.1,0.1,0.1,0.2,0,0.4c-0.1,0.1-0.2,0.2-0.3,0.3c-0.1,0.1-0.2,0.1-0.3,0.2c0.1,0.1,0.3,0.2,0.3,0.4c0,0.2-0.2,0.4-0.3,0.5
			c-0.1,0.1-0.3,0.2-0.4,0.3c-0.1,0-0.1,0.1-0.2,0.1c-0.2,0-0.3,0-0.4-0.1c-0.1-0.1,0-0.3,0.1-0.4C44.5,75.4,44.6,75.2,44.8,75z"/>
		<path d="M61.6,51.2c-0.3,0.2-0.6,0.3-0.9,0.3c-0.1,0-0.3,0-0.4-0.2c-0.1-0.2-0.1-0.3,0-0.5c0.3-0.5,0.8-0.7,1.4-0.9
			c0.2,0,0.4,0,0.5,0.1c0.1,0.2,0.1,0.3-0.1,0.5C62,50.9,61.8,51.1,61.6,51.2z"/>
		<path d="M73.3,45c-0.2,0.1-0.4,0.2-0.7,0.3c-0.1,0-0.1,0-0.2,0c-0.3,0-0.4-0.2-0.3-0.5c0.1-0.2,0.2-0.3,0.3-0.4
			c0.3-0.3,0.7-0.5,1.1-0.6c0.1,0,0.2,0,0.3,0c0.2,0,0.4,0.2,0.3,0.4C74,44.4,73.7,44.7,73.3,45z"/>
		<path d="M48.7,58.6c-0.3,0.1-0.6,0.2-0.9,0.3c-0.2,0.1-0.4,0-0.5-0.1c-0.1-0.1-0.1-0.5,0.1-0.6c0.3-0.2,0.6-0.4,0.9-0.5
			c0.2-0.1,0.4-0.1,0.6-0.1c0.4,0,0.5,0.2,0.3,0.6C49,58.2,48.8,58.4,48.7,58.6z"/>
		<path d="M28.3,97.5c0,0.1,0.1,0.2,0.1,0.4c0,0.4-0.1,0.7-0.4,1c-0.3,0.3-0.7,0.2-0.8-0.1c-0.3-0.5,0-1.3,0.5-1.5
			c0.1-0.1,0.2-0.1,0.4,0C28.1,97.4,28.2,97.5,28.3,97.5z"/>
		<path d="M71.3,62.2c0,0.5-0.5,0.8-1,0.8c0.1,0.3-0.1,0.6-0.4,0.8c-0.3,0.2-0.6,0.3-1,0.3c-0.1,0-0.1-0.1-0.2-0.2
			c-0.2,0-0.3,0-0.5,0c0-0.2,0-0.2,0.1-0.3c0.3-0.1,0.5-0.2,0.8-0.4c0.2-0.1,0.3-0.1,0.4,0.1c0,0,0.2,0.1,0.2,0
			c0.1,0,0.2-0.1,0.3-0.2c0-0.1-0.1-0.1-0.1-0.2c0-0.1,0.1-0.1,0.1-0.2c0.3-0.3,0.6-0.4,0.9-0.5C71.2,62.1,71.2,62.2,71.3,62.2z"/>
		<path d="M24.1,85.2c0,0-0.1,0-0.1,0c-0.2,0.1-0.4,0.2-0.6,0c-0.2-0.2-0.3-0.4-0.2-0.7c0.2-0.4,0.4-0.8,0.9-0.9
			c0.4-0.1,0.6,0.1,0.6,0.5C24.7,84.6,24.4,84.9,24.1,85.2z"/>
		<path d="M28.8,91.5c0,0,0,0.1,0.1,0.1c0.1,0.4-0.2,1.1-0.7,1.3c-0.2,0.1-0.4,0-0.5-0.2c-0.1-0.1-0.1-0.3-0.1-0.5
			c0-0.3,0.1-0.6,0.4-0.8C28.1,91.1,28.6,91.2,28.8,91.5z"/>
		<path d="M62.7,75.1c-0.1-0.1-0.3-0.1-0.5-0.2c0.1-0.3,0.3-0.5,0.5-0.6c0.2-0.1,0.4,0,0.3,0.2c-0.1,0.2,0,0.4,0.2,0.5
			c0,0,0.1,0.1,0.1,0.1c0,0.5,0.2,1-0.1,1.5c-0.1,0.2-0.3,0.3-0.6,0.2c-0.2,0-0.3-0.1-0.2-0.4c0.1-0.2,0.1-0.5,0.1-0.7
			C62.6,75.5,62.7,75.3,62.7,75.1z"/>
		<path d="M41.3,66.7c-0.4,0.2-0.7,0.4-1.1,0.5c-0.1,0-0.2,0-0.3-0.1c-0.2-0.2-0.3-0.3,0-0.6c0.4-0.4,0.9-0.6,1.5-0.7
			c0.2,0,0.3,0.1,0.4,0.2c0.1,0.1,0,0.3-0.1,0.4C41.5,66.6,41.4,66.7,41.3,66.7z"/>
		<path d="M45.5,61.5c-0.4,0.2-0.7,0.3-1,0.4c-0.2,0-0.4,0-0.5-0.2c-0.1-0.2,0-0.3,0.1-0.5c0.4-0.4,0.8-0.6,1.3-0.7c0,0,0,0,0.1,0
			c0.2,0,0.3,0,0.4,0.2c0.1,0.2,0,0.3-0.1,0.5C45.7,61.3,45.6,61.4,45.5,61.5z"/>
		<path d="M31,94c0.2,0.3,0.1,0.6,0,0.9c-0.1,0.2-0.2,0.5-0.5,0.6c-0.3,0.1-0.6-0.1-0.6-0.4c-0.1-0.3,0-0.7,0.1-0.9
			c0.1-0.2,0.3-0.3,0.5-0.4C30.8,93.8,30.9,93.8,31,94z"/>
		<path d="M30.6,89.4c0,0.1,0.1,0.2,0.1,0.3c0,0.4-0.1,0.8-0.5,1c-0.1,0.1-0.3,0.2-0.5,0.1c-0.2-0.1-0.4-0.2-0.4-0.5
			c0-0.4,0.1-0.8,0.4-1c0.2-0.1,0.4-0.3,0.6-0.2C30.5,89.3,30.5,89.4,30.6,89.4z"/>
		<path d="M64.6,68.6c0.1-0.1,0.2-0.2,0.3-0.3c0.2-0.1,0.2-0.3,0.1-0.4c-0.1-0.2-0.2-0.2-0.4-0.2c0,0,0,0-0.1,0c0-0.1-0.1-0.2,0-0.3
			c0.3-0.2,0.7-0.4,1-0.5c0.1,0.4,0.4,0.2,0.6,0.3c0,0.2,0,0.3-0.2,0.4c-0.1,0.1-0.2,0.2-0.2,0.3c0,0.1-0.1,0.2-0.2,0.3
			c-0.2,0.2-0.5,0.5-0.9,0.4C64.8,68.7,64.7,68.6,64.6,68.6z"/>
		<path d="M54,86.8c-0.3,0.1-0.4,0-0.6-0.2c0-0.2,0-0.4,0.1-0.6c0-0.2,0-0.3-0.1-0.5c-0.1-0.3,0-0.7,0.3-0.9c0.1-0.1,0.3-0.1,0.3,0
			c0.1,0.1,0.1,0.2,0.1,0.3c-0.1,0.3,0.1,0.7,0.1,1c0,0.3,0,0.5-0.2,0.8C54,86.6,54,86.7,54,86.8z"/>
		<path d="M77.1,44.1c0,0.4-0.1,0.6-0.3,0.8c-0.3,0.3-0.7,0.5-1.1,0.6c-0.1,0-0.2,0-0.3,0c-0.2,0-0.2-0.2-0.2-0.4
			c0.3-0.6,0.8-0.9,1.4-1.1C76.8,44.1,76.9,44.1,77.1,44.1z"/>
		<path d="M31.9,88.6c-0.1,0.1-0.3,0.1-0.5,0c-0.2-0.1-0.2-0.3-0.2-0.5c0-0.4,0.2-0.8,0.6-1c0.3-0.2,0.7,0,0.7,0.3
			C32.5,87.8,32.4,88.3,31.9,88.6z"/>
		<path d="M71,47.9c-0.3,0.7-0.9,1-1.5,1.2c-0.1,0-0.2,0-0.2,0c-0.2,0-0.3-0.1-0.2-0.3c0-0.1,0-0.1,0.1-0.2c0.3-0.5,0.8-0.8,1.4-0.9
			C70.7,47.6,70.9,47.7,71,47.9z"/>
		<path d="M28.2,81.8C28.1,81.9,28,82,27.8,82c-0.2,0.1-0.3,0-0.5-0.1c-0.1-0.1-0.2-0.3-0.1-0.4c0.2-0.5,0.5-0.7,1-0.9
			c0.2-0.1,0.4,0,0.5,0.1c0.1,0.1,0.1,0.3,0,0.5C28.7,81.4,28.5,81.7,28.2,81.8z"/>
		<path d="M53.1,87.6c0.3,0.5,0.1,1-0.4,1.1c0,0-0.1,0-0.1,0c-0.3-0.1-0.6-0.2-0.7-0.5c0-0.1,0-0.1,0-0.2c0-0.2,0.1-0.3,0.2-0.5
			c0.1-0.2,0.2-0.2,0.5-0.2c0.1,0,0.2,0,0.2,0C52.9,87.4,53,87.5,53.1,87.6z"/>
		<path d="M55.7,56c-0.1-0.3,0-0.5,0.1-0.6c0.3-0.3,0.7-0.6,1.2-0.7c0.1,0,0.1,0,0.2,0c0.1,0,0.3,0.1,0.3,0.1c0.1,0.1,0,0.3-0.1,0.5
			c-0.4,0.4-0.8,0.7-1.3,0.8C56,56.1,55.9,56,55.7,56z"/>
		<path d="M43.5,66.2c0-0.2,0.1-0.3,0.3-0.4c0.4-0.3,0.7-0.5,1.1-0.6c0.2-0.1,0.4-0.2,0.7-0.2c0.1,0,0.2-0.1,0.2-0.1
			c0.1,0,0.2,0,0.3,0.1c0,0.1,0,0.2-0.1,0.3c-0.3,0.2-0.6,0.4-0.9,0.5c-0.3,0.1-0.7,0.2-1,0.4C44,66.3,43.8,66.3,43.5,66.2z"/>
		<path d="M67,66.2c-0.1-0.1,0-0.2,0.1-0.3c0.2-0.1,0.5-0.3,0.7-0.4c0,0,0.1,0,0.1,0c0.2,0.2,0.5,0,0.7,0c0.4-0.1,0.7-0.1,1.1-0.2
			c0,0,0.2,0,0.2,0.1c0.1,0.1,0,0.2,0,0.2c-0.3,0.3-0.5,0.5-0.9,0.5c-0.3,0-0.6,0.1-0.9,0.1c-0.1,0-0.2,0-0.4,0
			C67.4,66.2,67.2,66.2,67,66.2z"/>
		<path d="M30.1,82.7c-0.1,0.1-0.3,0.1-0.4,0.2c-0.2,0.1-0.5,0-0.5-0.3c0-0.1,0-0.2,0-0.4c0.1-0.4,0.5-0.7,0.9-0.8
			c0.4-0.1,0.7,0.2,0.5,0.6C30.6,82.2,30.4,82.5,30.1,82.7z"/>
		<path d="M1.4,64.8c-0.1-0.4-0.2-1.8-0.2-2.1C1.6,62.6,1.8,62.8,2,63c0.3,0.4,0.3,0.9,0.1,1.3C2,64.6,1.7,64.8,1.4,64.8z"/>
		<path d="M32.5,84.3c-0.3,0.2-0.5,0.3-0.7,0c-0.1-0.1-0.1-0.2-0.1-0.3c0-0.5,0.3-0.7,0.7-1c0.2-0.1,0.4-0.1,0.6,0
			c0.2,0.1,0.2,0.3,0.1,0.5C33,83.9,32.8,84.1,32.5,84.3z"/>
		<path d="M66.2,72.3c0,0.1,0,0.2,0.1,0.3c0,0.1,0,0.3,0.2,0.4c0.3,0.1,0.3,0.5,0.1,0.7c-0.2,0.2-0.5,0.3-0.8,0.1
			c-0.4-0.2-0.5-0.3-0.3-0.8c0-0.1,0-0.1,0-0.2c0-0.1,0-0.2,0.1-0.3C65.7,72.5,65.8,72.2,66.2,72.3z"/>
		<path d="M32,86.5c-0.4,0.3-0.7,0.1-0.8-0.4c0-0.3,0.1-0.5,0.2-0.7c0.1-0.1,0.2-0.2,0.3-0.3c0.2-0.1,0.3-0.1,0.5-0.1
			c0.2,0.1,0.3,0.2,0.3,0.4C32.5,85.9,32.3,86.3,32,86.5z"/>
		<path d="M55,82.3c0.2-0.1,0.3-0.1,0.4,0c0,0.1,0.1,0.2,0.1,0.3c0,0.3-0.1,0.6,0,0.8c0,0.3,0.1,0.6-0.1,0.8
			c-0.1,0.1-0.1,0.3-0.3,0.2c-0.2,0-0.4-0.1-0.4-0.3c0-0.2,0-0.4,0.1-0.6c0.1-0.2,0.1-0.4-0.1-0.5c-0.1-0.1-0.1-0.2,0-0.3
			C54.8,82.6,54.8,82.4,55,82.3z"/>
		<path d="M32.7,90.8c0.5-0.3,0.8,0,0.8,0.4c0,0.2-0.1,0.5-0.2,0.7c-0.1,0.1-0.2,0.3-0.4,0.3c-0.1,0-0.2,0-0.3,0
			c-0.1-0.1-0.2-0.2-0.3-0.3C32.1,91.6,32.4,91,32.7,90.8z"/>
		<path d="M55.6,85.1c-0.2-0.2-0.1-0.4,0-0.6c0.1-0.3,0.5-0.2,0.6,0c0.1,0.1,0.1,0.3,0,0.4c0,0.2,0,0.3,0.1,0.4
			c0.2,0.3,0.2,0.6,0.1,0.9c0,0.2-0.2,0.2-0.3,0.3c-0.2,0.1-0.3,0-0.4-0.2c0-0.2,0-0.4,0-0.6c0-0.2,0-0.4-0.1-0.5
			C55.6,85.2,55.6,85.1,55.6,85.1z"/>
		<path d="M39.9,64.8c0-0.2,0.1-0.4,0.2-0.5c0.4-0.3,0.8-0.6,1.3-0.6c0.1,0,0.2,0,0.3,0c0.1,0.1,0.2,0.2,0.1,0.3
			c-0.1,0.2-0.3,0.4-0.4,0.5c-0.3,0.2-0.6,0.3-0.9,0.4C40.4,65,40.1,65,39.9,64.8z"/>
		<path d="M52.6,70.1c-0.3,0-0.5,0-0.7,0c-0.1-0.2,0.1-0.3,0.2-0.4c0.2-0.2,0.8-0.5,1.1-0.5c0,0.1,0.1,0.2,0.1,0.3
			c0.2,0,0.5-0.1,0.7-0.2c0.1,0.3-0.1,0.6-0.6,0.8C53.1,70.3,52.7,70.3,52.6,70.1z"/>
		<path d="M33.6,86.7c-0.3,0.3-0.7,0-0.7-0.3c-0.1-0.5,0.3-1.1,0.8-1.2c0.2,0,0.4,0.2,0.4,0.4C34.1,86.1,33.9,86.4,33.6,86.7z"/>
		<path d="M51.3,58.9c0-0.3,0.1-0.4,0.2-0.5c0.3-0.3,0.7-0.6,1.2-0.6c0.2,0,0.4-0.1,0.5,0.1c0.1,0.2,0,0.3-0.2,0.5
			c-0.4,0.4-0.8,0.6-1.3,0.7C51.6,59,51.4,58.9,51.3,58.9z"/>
		<path d="M33.5,81c-0.2,0.1-0.3,0.1-0.5,0.2c-0.2,0-0.4-0.1-0.4-0.2c-0.1-0.2-0.1-0.4,0.1-0.6c0.2-0.2,0.5-0.5,0.8-0.6
			c0.2-0.1,0.3,0,0.5,0c0.1,0.1,0.1,0.2,0.1,0.4C34.1,80.5,33.8,80.8,33.5,81z"/>
		<path d="M34.5,89.6c-0.1-0.1-0.1-0.3-0.1-0.5c0.1-0.3,0.2-0.6,0.5-0.8c0.3-0.2,0.6,0,0.7,0.3c0.1,0.4-0.2,0.9-0.5,1.2
			C34.9,89.9,34.7,89.9,34.5,89.6z"/>
		<path d="M74.2,47.6c0.2-0.1,0.5-0.2,0.7-0.3c0.1,0,0.2,0,0.2,0c0.2,0,0.3,0.2,0.2,0.4c-0.4,0.5-0.9,0.9-1.5,1c-0.1,0-0.1,0-0.2,0
			c-0.1,0-0.2-0.1-0.1-0.2c0.1-0.1,0.1-0.2,0.2-0.3C73.9,47.9,74,47.7,74.2,47.6z"/>
		<path d="M68.2,72.2c-0.2,0.1-0.5,0.1-0.6,0c-0.2-0.1-0.2-0.4-0.2-0.6c0-0.2,0.1-0.3,0.1-0.5c0-0.2,0.4-0.5,0.5-0.5
			c0.1,0,0.1,0.1,0.2,0.1c0.1,0.1,0.1,0.2,0.2,0.3c0.2,0.2,0.2,0.5,0.1,0.7C68.4,71.9,68.2,72.1,68.2,72.2z"/>
		<path d="M37.1,85.5c0.2,0,0.4-0.1,0.5-0.1c0.2,0.1,0.3,0.3,0.2,0.5c0,0.3-0.2,0.6-0.4,0.8c-0.3,0.3-0.6,0.2-0.8-0.2
			C36.6,86.3,36.7,85.8,37.1,85.5z"/>
		<path d="M34.1,81.4c0.1-0.1,0.2-0.2,0.4-0.2c0.3,0,0.5,0.3,0.4,0.6c-0.1,0.3-0.4,0.6-0.7,0.8c-0.3,0.2-0.5,0.1-0.7-0.1
			c-0.1-0.1-0.1-0.2,0-0.3C33.6,81.8,33.8,81.5,34.1,81.4z"/>
		<path d="M57.5,55.8c0.3-0.2,0.6-0.3,0.9-0.3c0.1,0,0.3,0,0.4,0.1c0.1,0.1,0,0.2-0.1,0.3c-0.1,0.1-0.2,0.2-0.4,0.3
			c-0.3,0.2-0.7,0.4-1.1,0.5c-0.1,0-0.1,0-0.2,0c-0.2-0.1-0.2-0.1-0.2-0.3C57,56.2,57.2,56,57.5,55.8z"/>
		<path d="M31.4,78.1c0.2-0.1,0.5-0.2,0.7-0.2c0.3-0.1,0.5,0.1,0.4,0.5c-0.1,0.4-0.8,0.9-1.3,0.8c-0.3,0-0.4-0.2-0.3-0.4
			C30.9,78.5,31.1,78.3,31.4,78.1z"/>
		<path d="M71.3,49.6c0,0.2-0.1,0.4-0.2,0.6c-0.4,0.4-0.8,0.6-1.4,0.7c-0.3,0-0.4-0.1-0.3-0.3c0-0.1,0.1-0.2,0.2-0.3
			c0.3-0.3,0.7-0.5,1.1-0.7C70.9,49.5,71.1,49.5,71.3,49.6z"/>
		<path d="M67.8,51.7c0,0.3-0.1,0.4-0.3,0.6c-0.4,0.3-0.8,0.5-1.3,0.6c-0.3,0-0.4-0.1-0.3-0.3c0.1-0.1,0.2-0.3,0.3-0.4
			c0.3-0.2,0.7-0.5,1.1-0.6C67.5,51.5,67.5,51.5,67.8,51.7z"/>
		<path d="M76.2,48.4c-0.3,0.1-0.6,0.2-0.8,0.3c-0.1,0-0.3,0.1-0.3-0.1c0-0.1,0-0.2,0.1-0.3c0.2-0.3,0.4-0.5,0.7-0.6
			c0.2-0.1,0.5-0.3,0.8-0.3c0.1,0,0.3,0,0.3,0.1c0,0.1,0,0.2-0.1,0.3C76.6,48,76.3,48.2,76.2,48.4z"/>
		<path d="M64.4,53.3c0.3-0.2,0.6-0.3,0.9-0.3c0.3,0,0.3,0.1,0.2,0.3c0,0.1-0.1,0.2-0.1,0.2c-0.4,0.4-0.8,0.6-1.3,0.7
			c-0.1,0-0.3,0-0.3-0.1c-0.1-0.1,0-0.2,0-0.3C64,53.7,64.2,53.5,64.4,53.3z"/>
		<path d="M39.6,84.1c-0.3,0.2-0.4,0.2-0.6,0c-0.1-0.1-0.2-0.3-0.1-0.5c0.1-0.3,0.3-0.6,0.6-0.7c0.1-0.1,0.3-0.1,0.4-0.1
			c0.1,0,0.2,0.3,0.2,0.4C40,83.5,39.9,83.9,39.6,84.1z"/>
		<path d="M60.3,55.8c0.1,0.2,0,0.3-0.1,0.5c-0.4,0.4-0.9,0.7-1.4,0.7c0,0,0,0-0.1,0c-0.2,0-0.3-0.1-0.2-0.3
			c0.1-0.1,0.2-0.2,0.2-0.3c0.3-0.3,0.7-0.5,1.2-0.6C60,55.8,60.1,55.8,60.3,55.8z"/>
		<path d="M59.1,80c-0.1-0.4,0.1-0.7,0.6-0.8c0.1,0,0.2-0.1,0.4-0.1c0.4-0.1,0.6,0.2,0.5,0.5c-0.1,0.2-0.2,0.4-0.5,0.4
			c-0.1,0-0.1,0-0.2,0c-0.2,0.1-0.3,0.1-0.5,0C59.2,80.1,59.2,80,59.1,80z"/>
		<path d="M62.5,64.5c0-0.3,0.2-0.4,0.4-0.4c0.4-0.2,0.7-0.5,1.1-0.7c0.3-0.2,0.5-0.3,0.8-0.3c0.1,0.2,0.1,0.3,0,0.4
			c-0.1,0.1-0.1,0.1-0.2,0.2c-0.5,0.3-0.9,0.6-1.4,0.9C62.9,64.6,62.8,64.6,62.5,64.5z"/>
		<path d="M53.3,59.7c0-0.1,0-0.2,0.1-0.3c0.4-0.5,0.9-0.7,1.5-0.8c0.1,0,0.2,0.1,0.3,0.1C55.1,59.3,54,59.9,53.3,59.7z"/>
		<path d="M47.9,62.4c0,0.4-0.3,0.6-0.6,0.7c-0.3,0.2-0.6,0.3-0.9,0.4c-0.2,0.1-0.3,0.1-0.4-0.1c-0.1-0.1,0-0.3,0.2-0.4
			c0.3-0.2,0.7-0.4,1-0.6C47.4,62.3,47.6,62.3,47.9,62.4z"/>
		<path d="M71.7,76.6c-0.5,0.3-1,0.7-1.5,1c0,0-0.1,0-0.2,0c0.1-0.3,0.1-0.4,0.3-0.6c0.3-0.3,0.5-0.6,0.3-1c-0.1-0.2,0-0.3,0.3-0.3
			c0.1,0,0.2,0.1,0.3,0.2C71.3,76.2,71.5,76.4,71.7,76.6z"/>
		<path d="M40.6,79.6c-0.2,0-0.3,0.1-0.5,0.1c-0.2,0-0.4-0.1-0.3-0.4c0.1-0.4,0.4-0.7,0.8-0.9c0.3-0.1,0.6,0,0.5,0.3
			C41.1,79.1,41,79.4,40.6,79.6z"/>
		<path d="M60.1,80.5c0.2,0.2,0.3,0.5,0.1,0.8c0,0.1-0.1,0.2-0.2,0.2c-0.2,0-0.4,0.1-0.6,0.1c-0.1,0-0.2,0-0.3,0.1
			c-0.3,0.3-0.3,0.3-0.7,0.1c0-0.3,0.1-0.5,0.3-0.6c0.2-0.2,0.3-0.2,0.5,0c0,0,0.1,0,0.1,0.1C59.5,81,59.8,80.8,60.1,80.5z"/>
		<path d="M1,59.6c0.3,0,0.4,0.1,0.5,0.2c0.3,0.5,0.3,1,0,1.5c-0.1,0.2-0.2,0.3-0.5,0.2C1.1,60.9,1.1,60.2,1,59.6z"/>
		<path d="M45.4,63.6c0.1,0.2,0,0.3-0.1,0.4c-0.3,0.3-0.8,0.5-1.2,0.7c-0.3,0.1-0.5,0-0.5-0.1c0-0.2,0.1-0.3,0.2-0.4
			c0.3-0.3,0.7-0.5,1.1-0.6C45.1,63.5,45.3,63.5,45.4,63.6z"/>
		<path d="M34.6,77.1c-0.1,0-0.3,0.1-0.4,0.2c-0.1,0-0.3,0-0.4,0c-0.2,0-0.2-0.2-0.1-0.3c0.2-0.4,0.9-0.8,1.3-0.8
			c0.2,0,0.3,0.1,0.2,0.3C35.1,76.7,34.9,76.9,34.6,77.1z"/>
		<path d="M62.7,77.7c0,0.2,0,0.3,0,0.5c-0.2,0.2-0.5,0.3-0.7,0.3c-0.3-0.1-0.7,0.1-1-0.1c0-0.3,0.2-0.5,0.4-0.7c0,0,0.2,0,0.2,0
			c0.2,0.1,0.4,0.1,0.5,0C62.4,77.5,62.5,77.6,62.7,77.7z"/>
		<path d="M34.8,69.8c0,0.2-0.1,0.3-0.2,0.4c-0.4,0.3-0.9,0.6-1.4,0.6c-0.1,0-0.1,0-0.2,0c-0.1,0-0.2-0.1-0.1-0.2
			c0.1-0.1,0.1-0.2,0.2-0.3c0.3-0.3,0.7-0.5,1.1-0.6C34.4,69.6,34.6,69.7,34.8,69.8z"/>
		<path d="M59.1,57.4c0.1,0.2,0,0.4-0.1,0.5c-0.3,0.3-0.7,0.5-1.1,0.6c0,0,0,0-0.1,0c-0.2,0-0.4,0.1-0.5-0.1
			c-0.1-0.2,0.1-0.3,0.2-0.4c0.4-0.4,0.8-0.6,1.4-0.6C59,57.4,59.1,57.4,59.1,57.4z"/>
		<path d="M55.2,60c-0.1-0.2,0-0.4,0.2-0.5c0.3-0.3,0.7-0.5,1.1-0.6c0,0,0,0,0.1,0c0.2,0,0.3-0.1,0.4,0.1c0.1,0.1-0.1,0.2-0.1,0.3
			c-0.4,0.4-0.9,0.7-1.4,0.7C55.3,60,55.2,60,55.2,60z"/>
		<path d="M42.4,80c0.4,0.1,0.4,0.4,0.3,0.7c-0.1,0.3-0.3,0.5-0.6,0.6c-0.2,0.1-0.5-0.1-0.5-0.3c0-0.3,0.2-0.5,0.4-0.7
			C42.1,80.2,42.3,80.1,42.4,80z"/>
		<path d="M62.7,56.3c0-0.2,0.1-0.4,0.3-0.5c0.3-0.3,0.7-0.5,1.2-0.6c0,0,0.1,0,0.1,0c0.2,0,0.3,0.1,0.2,0.3
			c-0.1,0.2-0.3,0.3-0.4,0.5c-0.2,0.1-0.4,0.3-0.7,0.4C63.1,56.3,62.9,56.4,62.7,56.3z"/>
		<path d="M64.3,66.4c0.3-0.2,0.5-0.5,0.9-0.6c0.1,0,0.3,0,0.4-0.1c0.2,0,0.4-0.1,0.7-0.2c0,0.1,0.1,0.2,0,0.2
			c-0.1,0.1-0.2,0.3-0.3,0.4c-0.3,0.2-0.7,0.3-1,0.3C64.7,66.5,64.5,66.6,64.3,66.4z"/>
		<path d="M67.3,54.2c0.3-0.1,0.6-0.3,0.9-0.4c0,0,0.1,0,0.2,0c0.3,0,0.4,0.1,0.2,0.4c-0.1,0.1-0.2,0.2-0.3,0.3
			c-0.3,0.3-0.7,0.5-1.1,0.5c-0.1,0-0.2,0-0.2,0c-0.1,0-0.2-0.1-0.1-0.3C67,54.5,67.1,54.4,67.3,54.2z"/>
		<path d="M66.3,65.2c0.2-0.3,0.5-0.4,0.8-0.6c0.1,0,0.2-0.1,0.2,0c0.4,0.1,0.7-0.1,1.1-0.2c0,0,0.1,0,0.1,0c0,0,0,0,0.1,0
			c0.1,0.2,0,0.3-0.1,0.4c-0.3,0.3-0.7,0.5-1.2,0.4c-0.1,0-0.3,0-0.4,0.1C66.7,65.3,66.5,65.3,66.3,65.2z"/>
		<path d="M63.9,75c0.1-0.1,0.2-0.3,0.3-0.4c0.2-0.2,0.2-0.2,0.5-0.1c0.1,0,0.2,0.1,0.3,0.1c0.3,0.1,0.3,0.5,0.1,0.7
			c-0.3,0.4-0.7,0.4-0.9,0C64,75.2,64,75.1,63.9,75z"/>
		<path d="M37.5,75.3c-0.2,0.1-0.5,0.2-0.7,0.3c-0.2,0.1-0.3,0-0.4,0c-0.2,0-0.2-0.2-0.1-0.4c0.3-0.3,0.7-0.6,1.2-0.7
			c0.1,0,0.3,0,0.4,0.1c0.1,0.1,0,0.2-0.1,0.3C37.7,75.1,37.6,75.2,37.5,75.3z"/>
		<path d="M72.4,52.8c0.1,0.2,0.1,0.4-0.1,0.5c-0.3,0.2-0.4,0.4-0.7,0.5c-0.3,0.1-0.5,0.1-0.8,0.1c-0.1-0.1,0-0.2,0.1-0.4
			C71.3,53.1,71.8,52.9,72.4,52.8z"/>
		<path d="M57.1,60.3c-0.2,0.1-0.4,0.2-0.6,0.3c-0.1,0-0.3,0.1-0.4,0.1c-0.1,0-0.2,0-0.2-0.1c0,0,0-0.1,0-0.2c0,0,0-0.1,0.1-0.1
			c0.4-0.4,0.8-0.6,1.3-0.7c0.1,0,0.2,0,0.2,0c0.2,0,0.2,0.2,0.1,0.3C57.4,60,57.2,60.2,57.1,60.3z"/>
		<path d="M41.6,67.6c0.1-0.3,0.3-0.5,0.5-0.6c0.3-0.2,0.6-0.4,1-0.4c0.1,0,0.1,0,0.2,0c0.2,0,0.2,0.1,0.1,0.3
			c-0.2,0.2-0.3,0.4-0.5,0.5c-0.3,0.1-0.6,0.2-0.9,0.3C41.8,67.7,41.7,67.6,41.6,67.6z"/>
		<path d="M64.2,57.1c-0.1-0.2,0.1-0.4,0.2-0.5c0.3-0.3,0.7-0.4,1.1-0.6c0.1,0,0.2,0,0.3,0C65.8,56.6,64.8,57.2,64.2,57.1z"/>
		<path d="M61.8,58.8c-0.3,0.2-0.6,0.3-0.9,0.4c-0.1,0-0.2,0-0.2-0.1c0,0,0-0.2,0.1-0.2c0.2-0.3,0.6-0.5,0.9-0.7
			c0.2-0.1,0.3-0.1,0.5-0.1c0.1,0,0.2,0.1,0.2,0.1c0,0.1,0,0.2-0.1,0.2C62.1,58.5,61.9,58.6,61.8,58.8z"/>
		<path d="M49.4,64.5c0.1-0.3,0.2-0.4,0.4-0.5c0.3-0.2,0.7-0.4,1.1-0.5c0.1,0,0.3-0.1,0.3,0.1c0.1,0.1,0,0.2-0.1,0.3
			c-0.4,0.3-0.8,0.6-1.2,0.7C49.7,64.5,49.6,64.5,49.4,64.5z"/>
		<path d="M67,56.5c0,0.2-0.1,0.3-0.2,0.4c-0.3,0.2-0.5,0.4-0.8,0.5c-0.2,0.1-0.4,0.1-0.6,0.1c-0.2-0.2,0-0.3,0.1-0.4
			c0.3-0.3,0.7-0.5,1.2-0.7C66.7,56.4,66.9,56.4,67,56.5z"/>
		<path d="M38.4,74.3c0-0.2,0.1-0.3,0.3-0.4c0.3-0.2,0.6-0.3,0.9-0.5c0.2-0.1,0.3-0.1,0.5,0.1c0.1,0.1,0,0.3-0.2,0.5
			c-0.3,0.2-0.6,0.4-0.9,0.5C38.8,74.5,38.6,74.4,38.4,74.3z"/>
		<path d="M44.4,77.8c0.1,0,0.2-0.1,0.3-0.1c0.3-0.1,0.4,0,0.4,0.3c0,0.4-0.5,0.9-0.9,0.9c-0.3,0-0.4-0.1-0.3-0.4
			C44,78.1,44.2,78,44.4,77.8z"/>
		<path d="M38.1,72.8c0.1-0.1,0.1-0.2,0.2-0.3c0.3-0.3,0.7-0.5,1.1-0.6c0.1,0,0.1,0,0.2,0c0.2,0,0.2,0.1,0.2,0.3
			c-0.1,0.1-0.2,0.3-0.3,0.3c-0.3,0.2-0.6,0.3-0.9,0.4C38.5,73,38.3,72.9,38.1,72.8z"/>
		<path d="M41.6,73.8c0.1,0.2,0,0.3,0,0.4c-0.2,0.4-0.6,0.5-1,0.6c0,0-0.1,0-0.1,0c-0.1,0-0.2-0.1-0.3-0.2c0-0.1,0-0.2,0.1-0.3
			C40.6,74,41,73.7,41.6,73.8z"/>
		<path d="M61.7,59.4c0.1-0.1,0.1-0.2,0.2-0.3c0.4-0.3,0.8-0.5,1.3-0.6c0.2,0,0.3,0.1,0.2,0.2c0,0.1-0.1,0.2-0.1,0.2
			c-0.4,0.3-0.7,0.6-1.2,0.6C62,59.5,61.9,59.5,61.7,59.4C61.7,59.5,61.7,59.4,61.7,59.4z"/>
		<path d="M41.1,69.3c0.1-0.4,0.5-0.5,0.8-0.7c0.3-0.2,0.6-0.3,1-0.2c0,0.3-0.2,0.5-0.4,0.6C42,69.4,41.5,69.5,41.1,69.3z"/>
		<path d="M71.2,56.8c0.4-0.4,0.8-0.7,1.3-0.8c0.1,0,0.2-0.1,0.3,0c0,0.1,0,0.3-0.1,0.4C72.4,56.8,72,57,71.5,57
			C71.4,57.1,71.3,57,71.2,56.8z"/>
		<path d="M50.8,65c0.2-0.1,0.5-0.2,0.7-0.3c0.1,0,0.3-0.1,0.4,0c0.1,0.1,0,0.3-0.2,0.4c-0.3,0.3-0.6,0.4-1,0.5c-0.1,0-0.2,0-0.3,0
			c-0.1,0-0.2,0-0.2,0c0-0.1,0-0.2,0.1-0.3C50.5,65.3,50.6,65.2,50.8,65z"/>
		<path d="M45.5,67c0.3-0.5,0.8-0.7,1.3-0.8c0.2-0.1,0.4-0.1,0.5,0c0,0.2-0.1,0.3-0.3,0.4c-0.3,0.2-0.6,0.4-0.9,0.5
			C46,67.2,45.8,67.2,45.5,67z"/>
		<path d="M73.6,57c0.2,0.3,0.1,0.4-0.1,0.5c-0.2,0.2-0.5,0.3-0.8,0.4c-0.2,0.1-0.4,0-0.6,0c0-0.1,0-0.3,0.1-0.4
			C72.6,57.3,73.1,57.1,73.6,57z"/>
		<path d="M44.3,70c-0.2,0.1-0.5,0.2-0.7,0.2c0,0-0.1,0-0.1,0c-0.1,0-0.3-0.1-0.3-0.1c-0.1-0.1,0.1-0.2,0.2-0.3
			c0.3-0.3,0.8-0.5,1.2-0.6c0.1,0,0.2,0,0.3,0.1c0,0,0,0.2,0,0.2C44.6,69.7,44.4,69.8,44.3,70z"/>
		<path d="M48,67.5c-0.1,0.4-0.4,0.5-0.7,0.7c-0.2,0.1-0.4,0.1-0.6,0.2c-0.1,0-0.2,0-0.3,0c-0.2,0-0.2-0.1-0.1-0.3
			c0.1-0.1,0.1-0.2,0.2-0.2c0.3-0.2,0.7-0.4,1.1-0.5C47.7,67.4,47.9,67.4,48,67.5z"/>
		<path d="M45.5,77.1c0.2-0.4,0.5-0.6,0.9-0.8c0.1,0,0.2-0.1,0.3,0c0.1,0.1,0.1,0.2,0.1,0.3c-0.2,0.4-0.5,0.6-0.8,0.7
			C45.7,77.5,45.6,77.3,45.5,77.1z"/>
		<path d="M42.7,71.9c-0.2,0.6-1.1,1.1-1.6,0.9c0-0.4,0.3-0.5,0.6-0.6C42,71.9,42.3,71.7,42.7,71.9z"/>
		<path d="M41.8,73.6c0.2-0.5,0.6-0.6,1-0.8c0.1,0,0.1,0,0.2-0.1c0.1,0,0.2,0,0.3,0.1c0.1,0.1,0,0.2,0,0.3c-0.2,0.2-0.4,0.4-0.7,0.5
			c-0.2,0.1-0.4,0.2-0.6,0.1C42,73.6,41.9,73.6,41.8,73.6z"/>
		<path d="M42.3,70.7c-0.1,0.4-0.4,0.6-0.7,0.7c-0.3,0.1-0.6,0.3-1,0.1c0-0.1,0-0.2,0.1-0.2c0.3-0.4,0.8-0.5,1.3-0.7
			C42,70.6,42.1,70.7,42.3,70.7z"/>
		<path d="M50.4,66.4c0.1-0.2,0.2-0.4,0.4-0.5c0.2-0.1,0.4-0.2,0.6-0.3c0.2-0.1,0.3-0.1,0.5-0.1c0.2,0,0.2,0.1,0.1,0.3c0,0,0,0,0,0
			c-0.4,0.4-0.9,0.7-1.5,0.7C50.5,66.5,50.5,66.5,50.4,66.4z"/>
		<path d="M43.3,71.4c0-0.2,0.2-0.3,0.3-0.4c0.4-0.2,0.7-0.5,1.2-0.4c0.1,0.1,0,0.3-0.1,0.4c-0.2,0.2-0.4,0.4-0.7,0.5
			c-0.1,0-0.3,0.1-0.4,0.1C43.6,71.5,43.4,71.5,43.3,71.4z"/>
		<path d="M65.2,61c0,0.2,0,0.4-0.2,0.5c-0.3,0.2-0.5,0.3-0.8,0.4c-0.2,0.1-0.4,0-0.6,0C63.8,61.4,64.6,60.9,65.2,61z"/>
		<path d="M50.7,67.6c-0.3,0.1-0.5,0.2-0.7,0.3c-0.1,0-0.3,0-0.4,0c-0.1,0-0.1-0.2,0-0.3c0.1-0.1,0.3-0.3,0.5-0.3
			c0.2-0.1,0.4-0.2,0.6-0.3c0.1,0,0.1,0,0.2,0c0.2,0,0.3,0.1,0.2,0.3C51,67.4,50.8,67.5,50.7,67.6z"/>
		<path d="M48.1,68.8c-0.1,0.4-0.5,0.6-0.8,0.7c-0.2,0.1-0.5,0.3-0.8,0c0.1-0.2,0.2-0.3,0.4-0.4c0.3-0.1,0.5-0.3,0.8-0.4
			C47.8,68.7,47.9,68.7,48.1,68.8z"/>
		<path d="M56.8,63.2c0.1-0.5,0.9-1,1.6-1c0,0.3-0.2,0.5-0.4,0.6c-0.2,0.1-0.5,0.2-0.7,0.3C57.1,63.2,57,63.2,56.8,63.2z"/>
		<path d="M45.3,72.1c-0.2,0.1-0.4,0.2-0.6,0.2c-0.1,0-0.2,0-0.3,0c-0.2,0-0.2-0.2-0.1-0.3c0.3-0.3,0.7-0.5,1.1-0.6
			c0.1,0,0.2,0,0.3,0.1c0.1,0.1,0,0.2,0,0.3C45.6,71.8,45.4,71.9,45.3,72.1z"/>
		<path d="M48.1,75.8C48,75.9,47.8,76,47.6,76c-0.2,0-0.2-0.1-0.2-0.3c0-0.1,0.1-0.2,0.2-0.3c0.2-0.2,0.4-0.3,0.7-0.4
			c0.2-0.1,0.4,0.1,0.3,0.3C48.6,75.5,48.4,75.7,48.1,75.8z"/>
		<path d="M50.6,88.5c-0.3,0-0.4-0.2-0.4-0.5c0-0.2,0.1-0.5,0.3-0.7c0.2-0.2,0.5-0.1,0.5,0.1C51.1,87.9,50.9,88.3,50.6,88.5z"/>
		<path d="M46.4,70.8c0-0.1,0.1-0.2,0.1-0.2c0.3-0.3,0.7-0.5,1.1-0.6c0.1,0,0.2,0,0.3,0.1c0,0.1,0,0.2-0.1,0.3
			c-0.3,0.3-0.6,0.4-0.9,0.6C46.7,71,46.6,71,46.4,70.8z"/>
		<path d="M68.8,60c0.4-0.5,0.9-0.8,1.6-0.8c0,0.3-0.1,0.5-0.3,0.6C69.7,60,69.3,60.3,68.8,60z"/>
		<path d="M49.4,71.6c0,0.4-0.2,0.6-0.4,0.7c-0.2,0.1-0.4,0.2-0.7,0.2c-0.1,0-0.2-0.1-0.3-0.1c-0.1-0.1,0-0.2,0.1-0.3
			c0.3-0.2,0.5-0.4,0.9-0.5C49.1,71.6,49.3,71.6,49.4,71.6z"/>
		<path d="M51.2,73c0.1,0.3,0.1,0.5-0.1,0.6c-0.2,0.1-0.3,0.2-0.5,0.3c0,0-0.1,0.1-0.2,0c-0.1,0-0.3,0-0.4-0.1
			c-0.1-0.1,0.1-0.3,0.1-0.3C50.5,73.2,50.8,73,51.2,73z"/>
		<path d="M50.5,68.6c0.1-0.1,0.1-0.2,0.2-0.3c0.3-0.3,0.7-0.5,1.2-0.6c0.1,0,0.2,0,0.2,0.1c0,0,0,0.2,0,0.2
			c-0.1,0.2-0.3,0.3-0.5,0.4C51.2,68.6,50.9,68.7,50.5,68.6z"/>
		<path d="M57.5,65.9c-0.1-0.2,0-0.3,0.1-0.4c0.4-0.2,0.7-0.4,1.2-0.5c0,0,0.1,0,0.1,0c0.1,0.3-0.2,0.5-0.4,0.6
			C58.3,65.8,57.9,66,57.5,65.9z"/>
		<path d="M58,64.8c0.1,0.3-0.1,0.5-0.3,0.6c-0.2,0.1-0.4,0.2-0.7,0.3c-0.2,0.1-0.4,0.1-0.5-0.1C56.9,65.1,57.3,64.9,58,64.8z"/>
		<path d="M52.5,84.5c0.1,0.4,0.1,0.7-0.1,1c-0.1,0.1-0.2,0.2-0.3,0.2c-0.1,0-0.3-0.1-0.3-0.2c-0.2-0.3,0.1-0.8,0.4-1
			C52.2,84.5,52.4,84.5,52.5,84.5z"/>
		<path d="M52.1,69.2c-0.3,0.1-0.5,0.2-0.8,0.2c-0.1,0-0.2,0-0.3-0.1c0-0.1,0-0.2,0.1-0.3c0.2-0.2,0.4-0.3,0.7-0.4
			c0.1,0,0.3-0.1,0.4-0.1c0.2,0,0.2,0.1,0.2,0.2C52.3,69,52.2,69.1,52.1,69.2z"/>
		<path d="M62.1,62.7c0.1,0.4-0.2,0.5-0.5,0.7c-0.2,0.1-0.4,0.2-0.7,0.3c-0.1,0-0.3,0-0.3-0.1c-0.1-0.1,0-0.2,0.1-0.3
			c0.3-0.2,0.6-0.4,1-0.5C61.9,62.7,62,62.7,62.1,62.7z"/>
		<path d="M51.8,76c0.2,0.5-0.2,0.8-0.6,1c-0.1,0.1-0.4,0-0.4-0.1c0-0.1,0-0.3,0.1-0.4C51.1,76.2,51.4,76,51.8,76z"/>
		<path d="M54,81.9c0.2,0.1,0.2,0.3,0.2,0.5c0,0.3-0.1,0.5-0.4,0.7c0,0-0.1,0-0.1-0.1c-0.3-0.1-0.4-0.4-0.2-0.7
			C53.6,82.1,53.7,82,54,81.9z"/>
		<path d="M54.7,78.7c0.1-0.3,0.3-0.6,0.6-0.8c0.2-0.1,0.4-0.1,0.4,0.2c0,0.3,0,0.4-0.2,0.7C55.2,79,55,79,54.8,78.8
			C54.8,78.8,54.7,78.8,54.7,78.7z"/>
		<path d="M56.7,80.7c0.1,0.2,0.1,0.3,0,0.5c0,0.1-0.1,0.1-0.1,0.2c-0.2,0.2-0.2,0.3-0.5,0.2c-0.2-0.1-0.3-0.4-0.2-0.6
			c0.1-0.1,0.2-0.2,0.4-0.3C56.4,80.5,56.6,80.5,56.7,80.7z"/>
		<path d="M69.3,75.1c0.1,0.1,0.1,0.2,0.1,0.3c0.1,0.2,0.1,0.4-0.2,0.5c-0.2,0.1-0.5,0.1-0.6,0c-0.3-0.2-0.2-0.5,0.1-0.6
			C68.9,75.2,69.1,75.2,69.3,75.1z"/>
		<path d="M57.2,76c0.1,0,0.2,0.1,0.2,0.3c0,0.2,0,0.4-0.2,0.6c-0.2,0.2-0.5,0.2-0.7,0.1c-0.1-0.1-0.1-0.2-0.1-0.3
			C56.7,76.4,56.9,76.1,57.2,76z"/>
		<path d="M51.5,74.2c-0.1-0.2,0.1-0.3,0.2-0.4c0.2-0.2,0.5-0.3,0.7-0.4c0.2-0.1,0.3,0.1,0.3,0.3c-0.1,0.3-0.3,0.5-0.6,0.6
			C51.9,74.4,51.6,74.4,51.5,74.2z"/>
		<path d="M55.6,79.9c0,0.2,0.2,0.3,0.1,0.5c-0.1,0.2-0.1,0.4-0.3,0.5c-0.1,0-0.4,0.1-0.5,0c-0.1-0.1-0.1-0.2-0.1-0.3
			c0.1-0.2,0.2-0.4,0.3-0.5C55.2,80,55.4,80,55.6,79.9z"/>
		<path d="M53.9,74.5c0.1,0.5-0.2,0.7-0.5,0.9c-0.1,0-0.2,0.1-0.3,0.1c-0.1,0-0.3,0-0.3-0.2c0-0.1,0.1-0.2,0.1-0.3
			c0.2-0.2,0.4-0.3,0.6-0.4C53.7,74.5,53.8,74.5,53.9,74.5z"/>
		<path d="M60.4,65.2c0,0.2-0.1,0.4-0.3,0.5c-0.2,0.1-0.5,0.3-0.8,0.3c-0.1,0-0.2-0.1-0.3-0.1c0-0.1,0.1-0.2,0.1-0.3
			c0.3-0.2,0.6-0.4,1-0.5c0,0,0.1,0,0.1,0C60.3,65.1,60.3,65.1,60.4,65.2z"/>
		<path d="M59.2,77c0.1-0.1,0.2-0.1,0.3-0.1c0,0,0.1,0,0.2,0.1c0.2,0.3,0.2,0.6-0.1,0.8c-0.2,0.2-0.4,0.2-0.5,0.1
			c-0.1-0.1-0.2-0.2-0.1-0.3C59,77.3,59.1,77.1,59.2,77z"/>
		<path d="M54.4,71.1c-0.1,0.4-0.4,0.6-0.8,0.7c-0.2,0.1-0.4,0.1-0.5-0.1c0.1-0.3,0.4-0.5,0.7-0.6C54,71,54.2,70.9,54.4,71.1z"/>
		<path d="M57.8,78.9c0.2,0.2,0.2,0.4,0.1,0.7c-0.1,0.2-0.3,0.4-0.5,0.3c-0.2-0.1-0.3-0.2-0.2-0.4c0-0.1,0.1-0.2,0.1-0.3
			C57.4,78.9,57.5,78.9,57.8,78.9z"/>
		<path d="M54.6,73.8c0.2-0.5,0.6-0.7,1-0.8c0.2,0.3,0.1,0.5-0.1,0.7c-0.1,0.1-0.2,0.1-0.3,0.2C55,74,54.9,74,54.6,73.8z"/>
		<path d="M56.8,78.5c0-0.4,0.2-0.7,0.5-0.9c0.2-0.1,0.3,0.1,0.3,0.3c0,0.1,0,0.1,0,0.2C57.5,78.6,57.3,78.7,56.8,78.5z"/>
		<path d="M57.8,84.5C57.8,84.6,57.8,84.6,57.8,84.5c0,0.3,0.1,0.5,0,0.8c-0.1,0.1-0.2,0.2-0.4,0.2c-0.2,0-0.3-0.2-0.2-0.4
			c0-0.2,0-0.4,0.2-0.6C57.5,84.3,57.6,84.3,57.8,84.5z"/>
		<path d="M55.6,69.9c0.3-0.4,0.6-0.5,1-0.7c0.1,0,0.2,0,0.3,0.1c0,0,0,0.2,0,0.2c-0.1,0.2-0.7,0.5-0.9,0.5
			C55.8,70.1,55.7,70,55.6,69.9z"/>
		<path d="M63.9,64.9c-0.2,0.5-0.8,0.9-1.2,0.8c-0.1,0-0.2,0-0.2-0.1c0-0.1,0-0.2,0.1-0.2c0.3-0.2,0.5-0.3,0.8-0.5
			C63.6,64.9,63.7,64.9,63.9,64.9z"/>
		<path d="M57.7,68.6c0.1-0.2,0.3-0.4,0.5-0.5c0.2-0.1,0.4-0.2,0.6-0.3c0.2-0.1,0.3,0.1,0.2,0.2c-0.1,0.4-0.8,0.7-1.1,0.6
			C57.8,68.7,57.8,68.6,57.7,68.6z"/>
		<path d="M56.4,72.4c0.1-0.4,0.5-0.7,1-0.7c0.1,0.3,0.1,0.4-0.2,0.6C56.9,72.5,56.7,72.5,56.4,72.4z"/>
		<path d="M58.6,71.8c0.1,0.6-0.5,0.9-0.9,0.8c-0.2,0-0.3-0.2-0.2-0.3C57.9,72.1,58.2,71.9,58.6,71.8z"/>
		<path d="M59.2,75.7c0.2,0.2,0.1,0.4,0.1,0.5c0,0.3-0.3,0.3-0.4,0.5c-0.2-0.1-0.4-0.2-0.5-0.2C58.7,76,58.8,75.9,59.2,75.7z"/>
		<path d="M60.4,66.7c0.2-0.1,0.4-0.2,0.6-0.2c0.1,0,0.2,0,0.2,0.1c0,0,0,0.2,0,0.2c-0.1,0.1-0.3,0.3-0.5,0.4
			c-0.2,0.1-0.3,0.1-0.5,0.1c-0.1,0-0.2,0-0.2-0.1c0-0.1,0-0.2,0.1-0.2C60.2,66.9,60.3,66.8,60.4,66.7
			C60.4,66.7,60.4,66.7,60.4,66.7z"/>
		<path d="M60.5,75.8c0.1-0.5,0.3-0.7,0.8-0.8c0.2,0.2,0.2,0.4,0,0.6C61.1,75.9,60.9,76,60.5,75.8z"/>
		<path d="M63.2,68.9c-0.3,0.3-0.6,0.6-1.1,0.4c-0.1-0.2,0-0.2,0.1-0.4c0.2-0.2,0.4-0.3,0.6-0.4c0.2-0.1,0.3-0.1,0.3,0.2
			C63.2,68.8,63.2,68.8,63.2,68.9z"/>
		<path d="M59.6,71c0.1-0.3,0.6-0.7,1-0.8c0.1,0.2,0,0.4-0.1,0.5C60.3,71,60,71.2,59.6,71z"/>
		<path d="M61,69.2c0,0.4-0.3,0.6-0.6,0.7C60.3,70,60.1,70,60,70c-0.1,0-0.1-0.1-0.1-0.2c0,0,0,0,0-0.1c0.3-0.3,0.6-0.5,1-0.6
			C60.9,69.1,60.9,69.1,61,69.2z"/>
		<path d="M64.4,65.5c0.5-0.5,0.9-0.7,1.2-0.6c0.1,0.4-0.2,0.5-0.5,0.6C64.9,65.6,64.7,65.7,64.4,65.5z"/>
		<path d="M63.7,72.6c0.1-0.2,0.2-0.3,0.3-0.4c0,0,0,0,0,0c0.1-0.1,0.2-0.2,0.4-0.2c0.1,0,0.1,0.1,0.1,0.2c0,0.2,0,0.3-0.1,0.5
			c-0.1,0-0.1,0.1-0.2,0.1C64,72.9,63.9,72.9,63.7,72.6z"/>
		<path d="M61,73.9c0.2-0.3,0.3-0.5,0.6-0.6c0.1,0,0.2,0,0.3,0c0,0,0,0.1,0,0.2c0,0.2-0.2,0.3-0.3,0.5C61.4,74.2,61.2,74.1,61,73.9z
			"/>
		<path d="M57.9,73.6c0,0,0.1-0.1,0.1-0.1c0.1,0,0.2-0.1,0.3,0c0.1,0,0.1,0.1,0,0.2c-0.1,0.3-0.4,0.6-0.7,0.6
			c-0.2,0-0.3-0.2-0.1-0.3C57.6,73.9,57.7,73.8,57.9,73.6C57.8,73.6,57.8,73.6,57.9,73.6z"/>
		<path d="M59,70.5c0.1,0.3,0,0.5-0.2,0.6c-0.3,0.2-0.5,0.2-0.7,0C58.2,70.8,58.7,70.5,59,70.5z"/>
		<path d="M59.1,74.9c-0.2,0.1-0.3,0-0.5,0c0,0-0.1-0.1-0.1-0.2c0.1-0.3,0.4-0.5,0.7-0.6c0.1,0,0.2,0,0.2,0.2
			C59.4,74.6,59.3,74.8,59.1,74.9z"/>
		<path d="M62.5,82.3c-0.2,0.1-0.3,0.1-0.4,0c0,0-0.1-0.1,0-0.1c0.1-0.2,0.1-0.4,0.2-0.6c0.1-0.1,0.3-0.1,0.4,0
			C62.8,81.7,62.7,82.1,62.5,82.3z"/>
		<path d="M61.3,71.6c-0.2,0-0.3,0.1-0.5,0.1c-0.2,0-0.2-0.1-0.1-0.2c0.2-0.3,0.4-0.4,0.7-0.5c0.1-0.1,0.3,0.1,0.2,0.2
			C61.5,71.3,61.4,71.4,61.3,71.6z"/>
		<path d="M60,83.7c-0.1-0.3,0-0.5,0.2-0.7c0,0,0.2-0.1,0.2-0.1c0.1,0,0.1,0.1,0.1,0.2c0,0.1,0,0.1,0,0.2
			C60.7,83.7,60.5,83.8,60,83.7z"/>
		<path d="M66.6,67.2c0.3-0.2,0.6-0.4,0.9-0.6c0.1,0,0.2,0,0.2,0c0,0,0.1,0.2,0,0.2c-0.1,0.1-0.1,0.2-0.2,0.3
			C67.3,67.3,67,67.4,66.6,67.2z"/>
		<path d="M63.8,69.3c0,0.1,0,0.1,0,0.2c-0.1,0.3-0.5,0.6-0.7,0.5c-0.1,0-0.2-0.1-0.2-0.1c0,0,0-0.1,0.1-0.2
			C63.3,69.4,63.3,69.4,63.8,69.3z"/>
		<path d="M61.7,80.7c0.2-0.2,0.3-0.4,0.5-0.6c0.2,0.2,0.3,0.4,0.2,0.5C62.3,80.9,62.2,81,62,81C61.9,81,61.7,81,61.7,80.7z"/>
		<path d="M67.4,78.8c0.2,0.1,0.3,0.2,0.2,0.4c-0.1,0.2-0.2,0.3-0.4,0.3c0,0-0.1,0-0.1,0c-0.1-0.1-0.2-0.2-0.2-0.3
			c0-0.1,0.1-0.2,0.2-0.3C67.1,78.8,67.2,78.8,67.4,78.8z"/>
		<path d="M62,72C62.1,72,62.1,72,62,72c0.1,0.2,0.1,0.4-0.1,0.5c-0.2,0.1-0.3,0.3-0.6,0.2c-0.1-0.1-0.2-0.1-0.1-0.2
			C61.5,72.2,61.7,72.1,62,72z"/>
		<path d="M54.8,86.9c0.1,0.2,0.2,0.3,0.2,0.4c-0.3,0.2-0.5,0.3-0.8,0.5c0-0.2,0-0.4,0.1-0.7C54.4,87.1,54.6,87,54.8,86.9z"/>
		<path d="M64.7,69.8c0.1,0,0.1,0.1,0.2,0.1c0,0.1-0.1,0.2-0.2,0.3c-0.1,0.1-0.3,0.2-0.5,0.2c-0.1,0-0.2,0-0.2-0.1
			c-0.1-0.1,0.1-0.2,0.1-0.2c0.1-0.1,0.2-0.1,0.3-0.2C64.5,69.9,64.6,69.9,64.7,69.8z"/>
		<path d="M63.8,78.1c0.1-0.1,0.2-0.3,0.3-0.4c0.2-0.2,0.4-0.1,0.4,0.2c0,0.1-0.2,0.3-0.3,0.4C64,78.4,63.9,78.4,63.8,78.1z"/>
		<path d="M63.6,71.7c0.1-0.3,0.4-0.4,0.7-0.6c0.1,0.3,0.1,0.4-0.2,0.6C63.9,71.9,63.8,71.9,63.6,71.7z"/>
		<path d="M65.9,76.1c-0.2-0.2-0.1-0.3,0-0.4c0.1-0.1,0.2-0.2,0.4-0.2c0.1,0,0.2,0,0.2,0.2c0,0.1,0,0.3-0.2,0.4
			C66.1,76,66,76,65.9,76.1z"/>
		<path d="M67.9,67.8c0,0.3-0.1,0.5-0.5,0.6c-0.1,0-0.3,0.1-0.4-0.1C67.3,68,67.5,67.9,67.9,67.8z"/>
		<path d="M67.4,74.1c0.1-0.3,0.3-0.4,0.5-0.5c0.2,0.2,0.2,0.4,0,0.5C67.7,74.2,67.6,74.2,67.4,74.1z"/>
		<path d="M67.8,69.4c0-0.3,0.3-0.3,0.5-0.5c0,0,0.2,0,0.3,0C68.3,69.4,68.1,69.5,67.8,69.4z"/>
		<path d="M66.9,78.5c0.1,0.1,0,0.3-0.1,0.4c-0.1,0.1-0.2,0.1-0.4,0.1c0,0,0,0,0,0c-0.1-0.1,0-0.2,0.1-0.3
			C66.6,78.5,66.7,78.4,66.9,78.5C66.8,78.5,66.8,78.5,66.9,78.5z"/>
		<path d="M65.3,80.5c0-0.1-0.1-0.2,0-0.3c0.1-0.1,0.2-0.3,0.4-0.3C65.7,80.3,65.7,80.3,65.3,80.5z"/>
		<path d="M68.8,77.5c-0.2-0.3,0.1-0.4,0.2-0.5c0.1,0,0.2,0,0.3,0.1c0,0,0,0,0,0C69.2,77.3,69.1,77.5,68.8,77.5z"/>
		<path d="M67.7,77.6c0-0.1,0-0.2-0.1-0.3c0.1-0.1,0.2-0.2,0.3-0.3c0.2,0.1,0.2,0.2,0.1,0.4C68,77.6,67.9,77.6,67.7,77.6z"/>
		<path d="M48.2,91.7c0.2-0.4,0.3-0.5,0.6-0.4C48.6,91.4,48.4,91.5,48.2,91.7z"/>
		<path d="M69.5,67.6c-0.1,0.2-0.2,0.3-0.5,0.3C69.2,67.7,69.3,67.6,69.5,67.6z"/>
		<path d="M69.8,74.1c0,0.2,0.1,0.2,0.1,0.3c-0.1,0-0.2,0-0.2,0c-0.1,0-0.1-0.1-0.1-0.2C69.6,74.2,69.7,74.2,69.8,74.1z"/>
		<path d="M51,89.9c-0.1,0.1-0.3,0.2-0.4,0.3C50.6,89.9,50.7,89.9,51,89.9z"/>
		<path d="M82,20.9c0-0.2,0.1-0.2,0.2-0.2C82.2,20.8,82.1,20.8,82,20.9z"/>
	</g>
</g>
</svg>
