<?xml version="1.0" encoding="utf-8"?>
<!-- Generator: Adobe Illustrator 26.5.1, SVG Export Plug-In . SVG Version: 6.00 Build 0)  -->
<svg version="1.1" id="Ebene_1" xmlns="http://www.w3.org/2000/svg" xmlns:xlink="http://www.w3.org/1999/xlink" x="0px" y="0px"
	 viewBox="0 0 100 100" style="enable-background:new 0 0 100 100;" xml:space="preserve">
<g>
	<path d="M71.9,35.7c0.4-0.3,0.7-0.4,0.9-0.6c0.5-0.4,0.9-0.8,1.3-1.3c0.4-0.5,0.8-0.4,1.2-0.1c0.6,0.4,1.2,0.8,1.7,1.2
		c1.7,1.3,3.4,2.6,5,3.9c1,0.8,1.8,1.6,2.8,2.3c2.7,1.9,5.4,3.7,8.1,5.5c1.6,1.1,3.2,2.2,4.4,3.7c1.9,2.3,2.8,4.8,2.4,7.7
		c-0.3,2.4-1.1,4.5-2.2,6.6c-0.4,0.7-0.5,0.7-1.1,0.3c-0.9-0.6-1.9-1.2-2.8-1.8c-0.4-0.2-0.4-0.5-0.2-0.9c1.3-2.7,0.9-5.3-0.5-7.8
		c-0.5-0.9-1.2-1.8-2.1-2.5c-0.2-0.2-0.4-0.4-0.7-0.5c-1-0.6-1.3-0.6-2.1,0.3c-1.1,1.3-2.3,2.6-3.4,3.9c-0.6,0.7-0.9,0.7-1.7,0.3
		c-1-0.6-2-1.3-3-2c-1.4-1-2.8-2-4.3-2.9c-0.1-0.1-0.2-0.1-0.5-0.1c0,0.4-0.1,0.7,0,1c0.4,1.8,0.8,3.5,1.2,5.3
		c0.2,1.1,0.5,2.2,0.7,3.4c0.1,0.5,0,0.8-0.5,1c-3.1,1.7-6.2,3.4-9.2,5.1c-0.5,0.3-0.8,0.2-1.2-0.1c-1.5-1.1-3-2.2-4.4-3.3
		c-0.8-0.6-0.9-0.6-1.6,0c-2.3,2.1-4.5,4.3-6.7,6.5c-0.5,0.5-1,1-1.5,1.6c-1.4,1.9-2.1,4-2.2,6.2c-0.1,1.4,0.3,2.8,1.1,4
		c0.8,1.2,1.5,2.3,2.8,3c2.4,1.4,5,1.7,7.8,1c2.7-0.7,4.9-2,6.5-4.2c2.1-2.8,2.4-5.9,1.2-9.1c-0.1-0.4-0.2-0.8-0.3-1.2
		c1.4-0.6,2.7-1.2,4.1-1.7c2.2-0.9,4.5-1.7,6.7-2.5c0.7-0.3,0.8-0.2,1.1,0.3c0.7,1.2,1.2,2.5,1.5,3.9C83.3,75,83,78.7,82,82.5
		c-0.8,2.8-2.5,5-4.6,6.9c-0.8,0.7-1.7,1.5-2.5,2.1c-0.4,0.3-0.7,0.7-0.7,1.2c-0.1,1.2-0.8,2.1-1.4,3c-0.9,1.2-2,2.5-3.5,3.2
		c-2.7,1.2-5.5,1.7-8.3,0.3c-0.8-0.4-1.4-1-2.1-1.5c-0.4-0.4-0.9-0.6-1.5-0.6c-1.5,0-3.1,0-4.6-0.2c-2.7-0.3-5.2-1.2-7.5-2.6
		c-2.1-1.2-3.8-2.7-5.1-4.5c-2.6-3.6-3.6-7.5-3.3-11.8c0.1-0.7,0.2-1.5,0.5-2.1c0.6-1.7,1.3-3.3,2.4-4.8c0.1-0.2,0.2-0.4,0.4-0.6
		c0.4-0.6,0.5-1.1-0.1-1.6c-0.3-0.3-0.4-0.8-0.5-1.2c-0.6-3.7-1.2-7.4-1.8-11.1c-0.7-4-1.4-8-2-12c-0.1-0.8-0.5-1.3-1.1-1.8
		c-3.6-2.7-7.2-5.4-10.8-8.2c-1-0.8-2.1-1.6-3.1-2.3c-0.6-0.4-0.9-0.4-1.4,0c-2.5,2.5-5.2,4.8-7.5,7.5c-0.9,1-1.8,2-2.7,3
		c-0.5,0.6-1,0.7-1.7,0.2c-0.8-0.6-1.6-1.2-2.4-1.8C3.4,40.1,2,39,0.6,37.9c-0.8-0.6-0.7-0.7-0.1-1.4C1.2,35.7,2,34.8,2.7,34
		c0.5-0.6,1.1-1,1.6-1.6c2-2.1,4.1-4.3,6.1-6.4c3.7-3.8,7.3-7.7,11-11.5c2.1-2.1,4.2-4.3,6.2-6.4c1.7-1.8,3.5-3.6,5.2-5.4
		c0.6-0.6,0.7-0.6,1.4-0.1c2.2,1.7,4.5,3.4,6.8,5c0.6,0.4,0.9,0.9,1,1.5c0.2,1.4,0.5,2.7,0.7,4.1c0.4,2.5,0.9,5,1.3,7.4
		c0.3,1.9,0.7,3.8,1,5.7c0.3,1.6,0.7,3.1,1,4.6c0.3,1.2,0.5,2.5,0.7,3.7c0.2,1.1,0.4,2.3,0.7,3.4c0.2,0.5,0.6,1,1,1.4
		c1.2,1,2.4,2,3.7,2.9c0.9,0.7,1.8,1.2,2.6,1.9c0.7,0.6,1.4,1.2,2.2,1.8c0.7,0.6,1.3,1.1,2,1.7c0.5,0.4,0.7,0.4,1.1,0
		c0.7-0.7,1.4-1.4,2.1-2c0.3-0.3,0.3-0.7,0.2-1.1c-0.3-1.2-0.7-2.4-1-3.6c-0.8-3.1-1.6-6.1-2.4-9.2c-0.9-3.4-1.7-6.7-2.6-10.1
		c-0.7-2.8-1.4-5.6-2.2-8.3c-0.5-2-1.1-4-1.6-6c-0.3-1.2-0.3-1.2,0.8-1.9c1.8-1,3.5-2,5.3-3c1.5-0.8,2.9-1.6,4.4-2.5
		c0.7-0.4,0.8-0.4,1.1,0.3c0.2,0.6,0.4,1.1,0.5,1.7c0.6,2.7,1.1,5.5,1.7,8.2c0.8,3.8,1.6,7.7,2.5,11.5c0.8,3.6,1.5,7.1,2.3,10.7
		C71.4,33.6,71.7,34.6,71.9,35.7z M32,26c0.1-0.2,0.2-0.2,0.2-0.3c-0.3-1.9-0.5-3.7-0.8-5.6c-0.1-0.5-0.4-0.5-0.8-0.3
		c-0.1,0.1-0.3,0.2-0.4,0.3c-0.6,0.7-1.2,1.4-1.7,2.1c-0.3,0.3-0.2,0.6,0.1,0.9c1,0.8,1.9,1.6,2.9,2.4C31.6,25.8,31.8,25.9,32,26z"
		/>
</g>
</svg>
