<?xml version="1.0" encoding="utf-8"?>
<!-- Generator: Adobe Illustrator 26.5.1, SVG Export Plug-In . SVG Version: 6.00 Build 0)  -->
<svg version="1.1" id="Ebene_1" xmlns="http://www.w3.org/2000/svg" xmlns:xlink="http://www.w3.org/1999/xlink" x="0px" y="0px"
	 viewBox="0 0 100 100" style="enable-background:new 0 0 100 100;" xml:space="preserve">
<g>
	<path d="M35.7,28.1c-0.3-0.4-0.4-0.7-0.6-0.9c-0.4-0.5-0.8-0.9-1.3-1.3c-0.5-0.4-0.4-0.8-0.1-1.2c0.4-0.6,0.8-1.2,1.2-1.7
		c1.3-1.7,2.6-3.4,3.9-5c0.8-1,1.6-1.8,2.3-2.8c1.9-2.7,3.7-5.4,5.5-8.1c1.1-1.6,2.2-3.2,3.7-4.4c2.3-1.9,4.8-2.8,7.7-2.4
		c2.4,0.3,4.5,1.1,6.6,2.2c0.7,0.4,0.7,0.5,0.3,1.1c-0.6,0.9-1.2,1.9-1.8,2.8c-0.2,0.4-0.5,0.4-0.9,0.2c-2.7-1.3-5.3-0.9-7.8,0.5
		c-0.9,0.5-1.8,1.2-2.5,2.1c-0.2,0.2-0.4,0.4-0.5,0.7c-0.6,1-0.6,1.3,0.3,2.1c1.3,1.1,2.6,2.3,3.9,3.4c0.7,0.6,0.7,0.9,0.3,1.7
		c-0.6,1-1.3,2-2,3c-1,1.4-2,2.8-2.9,4.3c-0.1,0.1-0.1,0.2-0.1,0.5c0.4,0,0.7,0.1,1,0c1.8-0.4,3.5-0.8,5.3-1.2
		c1.1-0.2,2.2-0.5,3.4-0.7c0.5-0.1,0.8,0,1,0.5c1.7,3.1,3.4,6.2,5.1,9.2c0.3,0.5,0.2,0.8-0.1,1.2c-1.1,1.5-2.2,3-3.3,4.4
		c-0.6,0.8-0.6,0.9,0,1.6c2.1,2.3,4.3,4.5,6.5,6.7c0.5,0.5,1,1,1.6,1.5c1.9,1.4,4,2.1,6.2,2.2c1.4,0.1,2.8-0.3,4-1.1
		c1.2-0.8,2.3-1.5,3-2.8c1.4-2.4,1.7-5,1-7.8c-0.7-2.7-2-4.9-4.2-6.5c-2.8-2.1-5.9-2.4-9.1-1.2c-0.4,0.1-0.8,0.2-1.2,0.3
		c-0.6-1.4-1.2-2.7-1.7-4.1c-0.9-2.2-1.7-4.5-2.5-6.7c-0.3-0.7-0.2-0.8,0.3-1.1c1.2-0.7,2.5-1.2,3.9-1.5C75,16.7,78.7,17,82.5,18
		c2.8,0.8,5,2.5,6.9,4.6c0.7,0.8,1.5,1.7,2.1,2.5c0.3,0.4,0.7,0.7,1.2,0.7c1.2,0.1,2.1,0.8,3,1.4c1.2,0.9,2.5,2,3.2,3.5
		c1.2,2.7,1.7,5.5,0.3,8.3c-0.4,0.8-1,1.4-1.5,2.1c-0.4,0.4-0.6,0.9-0.6,1.5c0,1.5,0,3.1-0.2,4.6c-0.3,2.7-1.2,5.2-2.6,7.5
		c-1.2,2.1-2.7,3.8-4.5,5.1c-3.6,2.6-7.5,3.6-11.8,3.3c-0.7-0.1-1.5-0.2-2.1-0.5c-1.7-0.6-3.3-1.3-4.8-2.4c-0.2-0.1-0.4-0.2-0.6-0.4
		c-0.6-0.4-1.1-0.5-1.6,0.1c-0.3,0.3-0.8,0.4-1.2,0.5c-3.7,0.6-7.4,1.2-11.1,1.8c-4,0.7-8,1.4-12,2c-0.8,0.1-1.3,0.5-1.8,1.1
		c-2.7,3.6-5.4,7.2-8.2,10.8c-0.8,1-1.6,2.1-2.3,3.1c-0.4,0.6-0.4,0.9,0,1.4c2.5,2.5,4.8,5.2,7.5,7.5c1,0.9,2,1.8,3,2.7
		c0.6,0.5,0.7,1,0.2,1.7c-0.6,0.8-1.2,1.6-1.8,2.4c-1.1,1.4-2.1,2.8-3.2,4.2c-0.6,0.8-0.7,0.7-1.4,0.1c-0.8-0.8-1.7-1.5-2.5-2.3
		c-0.6-0.5-1-1.1-1.6-1.6c-2.1-2-4.3-4.1-6.4-6.1c-3.8-3.7-7.7-7.3-11.5-11c-2.1-2.1-4.3-4.2-6.4-6.2c-1.8-1.7-3.6-3.5-5.4-5.2
		c-0.6-0.6-0.6-0.7-0.1-1.4c1.7-2.2,3.4-4.5,5-6.8c0.4-0.6,0.9-0.9,1.5-1c1.4-0.2,2.7-0.5,4.1-0.7c2.5-0.4,5-0.9,7.4-1.3
		c1.9-0.3,3.8-0.7,5.7-1c1.6-0.3,3.1-0.7,4.6-1c1.2-0.3,2.5-0.5,3.7-0.7c1.1-0.2,2.3-0.4,3.4-0.7c0.5-0.2,1-0.6,1.4-1
		c1-1.2,2-2.4,2.9-3.7c0.7-0.9,1.2-1.8,1.9-2.6c0.6-0.7,1.2-1.4,1.8-2.2c0.6-0.7,1.1-1.3,1.7-2c0.4-0.5,0.4-0.7,0-1.1
		c-0.7-0.7-1.4-1.4-2-2.1c-0.3-0.3-0.7-0.3-1.1-0.2c-1.2,0.3-2.4,0.7-3.6,1c-3.1,0.8-6.1,1.6-9.2,2.4c-3.4,0.9-6.7,1.7-10.1,2.6
		c-2.8,0.7-5.6,1.4-8.3,2.2c-2,0.5-4,1.1-6,1.6c-1.2,0.3-1.2,0.3-1.9-0.8c-1-1.8-2-3.5-3-5.3c-0.8-1.5-1.6-2.9-2.5-4.4
		c-0.4-0.7-0.4-0.8,0.3-1.1c0.6-0.2,1.1-0.4,1.7-0.5c2.7-0.6,5.5-1.1,8.2-1.7c3.8-0.8,7.7-1.6,11.5-2.5c3.6-0.8,7.1-1.5,10.7-2.3
		C33.6,28.6,34.6,28.3,35.7,28.1z M26,68c-0.2-0.1-0.2-0.2-0.3-0.2c-1.9,0.3-3.7,0.5-5.6,0.8c-0.5,0.1-0.5,0.4-0.3,0.8
		c0.1,0.1,0.2,0.3,0.3,0.4c0.7,0.6,1.4,1.2,2.1,1.7c0.3,0.3,0.6,0.2,0.9-0.1c0.8-1,1.6-1.9,2.4-2.9C25.8,68.4,25.9,68.2,26,68z"/>
</g>
</svg>
